<?xml version="1.0" encoding="utf-8" standalone="no"?>
<!DOCTYPE svg PUBLIC "-//W3C//DTD SVG 1.1//EN"
  "http://www.w3.org/Graphics/SVG/1.1/DTD/svg11.dtd">
<!-- Created with matplotlib (https://matplotlib.org/) -->
<svg height="388.844525pt" version="1.1" viewBox="0 0 1000.300625 388.844525" width="1000.300625pt" xmlns="http://www.w3.org/2000/svg" xmlns:xlink="http://www.w3.org/1999/xlink">
 <metadata>
  <rdf:RDF xmlns:cc="http://creativecommons.org/ns#" xmlns:dc="http://purl.org/dc/elements/1.1/" xmlns:rdf="http://www.w3.org/1999/02/22-rdf-syntax-ns#">
   <cc:Work>
    <dc:type rdf:resource="http://purl.org/dc/dcmitype/StillImage"/>
    <dc:date>2021-03-05T10:29:18.945386</dc:date>
    <dc:format>image/svg+xml</dc:format>
    <dc:creator>
     <cc:Agent>
      <dc:title>Matplotlib v3.3.2, https://matplotlib.org/</dc:title>
     </cc:Agent>
    </dc:creator>
   </cc:Work>
  </rdf:RDF>
 </metadata>
 <defs>
  <style type="text/css">*{stroke-linecap:butt;stroke-linejoin:round;}</style>
 </defs>
 <g id="figure_1">
  <g id="axes_1">
   <g id="patch_1">
    <path d="M 45.690625 353.2239
L 993.100625 353.2239
L 993.100625 35.2559
L 45.690625 35.2559
z
" style="fill:#ffffff;"/>
   </g>
   <g id="matplotlib.axis_1">
    <g id="xtick_1">
     <g id="text_1">
      <!-- 2 -->
      <g transform="translate(112.552951 366.30265)scale(0.08 -0.08)">
       <defs>
        <path d="M 19.1875 8.296875
L 53.609375 8.296875
L 53.609375 0
L 7.328125 0
L 7.328125 8.296875
Q 12.9375 14.109375 22.625 23.890625
Q 32.328125 33.6875 34.8125 36.53125
Q 39.546875 41.84375 41.421875 45.53125
Q 43.3125 49.21875 43.3125 52.78125
Q 43.3125 58.59375 39.234375 62.25
Q 35.15625 65.921875 28.609375 65.921875
Q 23.96875 65.921875 18.8125 64.3125
Q 13.671875 62.703125 7.8125 59.421875
L 7.8125 69.390625
Q 13.765625 71.78125 18.9375 73
Q 24.125 74.21875 28.421875 74.21875
Q 39.75 74.21875 46.484375 68.546875
Q 53.21875 62.890625 53.21875 53.421875
Q 53.21875 48.921875 51.53125 44.890625
Q 49.859375 40.875 45.40625 35.40625
Q 44.1875 33.984375 37.640625 27.21875
Q 31.109375 20.453125 19.1875 8.296875
z
" id="DejaVuSans-50"/>
       </defs>
       <use xlink:href="#DejaVuSans-50"/>
      </g>
     </g>
    </g>
    <g id="xtick_2">
     <g id="text_2">
      <!-- 4 -->
      <g transform="translate(251.367603 366.30265)scale(0.08 -0.08)">
       <defs>
        <path d="M 37.796875 64.3125
L 12.890625 25.390625
L 37.796875 25.390625
z
M 35.203125 72.90625
L 47.609375 72.90625
L 47.609375 25.390625
L 58.015625 25.390625
L 58.015625 17.1875
L 47.609375 17.1875
L 47.609375 0
L 37.796875 0
L 37.796875 17.1875
L 4.890625 17.1875
L 4.890625 26.703125
z
" id="DejaVuSans-52"/>
       </defs>
       <use xlink:href="#DejaVuSans-52"/>
      </g>
     </g>
    </g>
    <g id="xtick_3">
     <g id="text_3">
      <!-- 6 -->
      <g transform="translate(390.182255 366.30265)scale(0.08 -0.08)">
       <defs>
        <path d="M 33.015625 40.375
Q 26.375 40.375 22.484375 35.828125
Q 18.609375 31.296875 18.609375 23.390625
Q 18.609375 15.53125 22.484375 10.953125
Q 26.375 6.390625 33.015625 6.390625
Q 39.65625 6.390625 43.53125 10.953125
Q 47.40625 15.53125 47.40625 23.390625
Q 47.40625 31.296875 43.53125 35.828125
Q 39.65625 40.375 33.015625 40.375
z
M 52.59375 71.296875
L 52.59375 62.3125
Q 48.875 64.0625 45.09375 64.984375
Q 41.3125 65.921875 37.59375 65.921875
Q 27.828125 65.921875 22.671875 59.328125
Q 17.53125 52.734375 16.796875 39.40625
Q 19.671875 43.65625 24.015625 45.921875
Q 28.375 48.1875 33.59375 48.1875
Q 44.578125 48.1875 50.953125 41.515625
Q 57.328125 34.859375 57.328125 23.390625
Q 57.328125 12.15625 50.6875 5.359375
Q 44.046875 -1.421875 33.015625 -1.421875
Q 20.359375 -1.421875 13.671875 8.265625
Q 6.984375 17.96875 6.984375 36.375
Q 6.984375 53.65625 15.1875 63.9375
Q 23.390625 74.21875 37.203125 74.21875
Q 40.921875 74.21875 44.703125 73.484375
Q 48.484375 72.75 52.59375 71.296875
z
" id="DejaVuSans-54"/>
       </defs>
       <use xlink:href="#DejaVuSans-54"/>
      </g>
     </g>
    </g>
    <g id="xtick_4">
     <g id="text_4">
      <!-- 8 -->
      <g transform="translate(528.996907 366.30265)scale(0.08 -0.08)">
       <defs>
        <path d="M 31.78125 34.625
Q 24.75 34.625 20.71875 30.859375
Q 16.703125 27.09375 16.703125 20.515625
Q 16.703125 13.921875 20.71875 10.15625
Q 24.75 6.390625 31.78125 6.390625
Q 38.8125 6.390625 42.859375 10.171875
Q 46.921875 13.96875 46.921875 20.515625
Q 46.921875 27.09375 42.890625 30.859375
Q 38.875 34.625 31.78125 34.625
z
M 21.921875 38.8125
Q 15.578125 40.375 12.03125 44.71875
Q 8.5 49.078125 8.5 55.328125
Q 8.5 64.0625 14.71875 69.140625
Q 20.953125 74.21875 31.78125 74.21875
Q 42.671875 74.21875 48.875 69.140625
Q 55.078125 64.0625 55.078125 55.328125
Q 55.078125 49.078125 51.53125 44.71875
Q 48 40.375 41.703125 38.8125
Q 48.828125 37.15625 52.796875 32.3125
Q 56.78125 27.484375 56.78125 20.515625
Q 56.78125 9.90625 50.3125 4.234375
Q 43.84375 -1.421875 31.78125 -1.421875
Q 19.734375 -1.421875 13.25 4.234375
Q 6.78125 9.90625 6.78125 20.515625
Q 6.78125 27.484375 10.78125 32.3125
Q 14.796875 37.15625 21.921875 38.8125
z
M 18.3125 54.390625
Q 18.3125 48.734375 21.84375 45.5625
Q 25.390625 42.390625 31.78125 42.390625
Q 38.140625 42.390625 41.71875 45.5625
Q 45.3125 48.734375 45.3125 54.390625
Q 45.3125 60.0625 41.71875 63.234375
Q 38.140625 66.40625 31.78125 66.40625
Q 25.390625 66.40625 21.84375 63.234375
Q 18.3125 60.0625 18.3125 54.390625
z
" id="DejaVuSans-56"/>
       </defs>
       <use xlink:href="#DejaVuSans-56"/>
      </g>
     </g>
    </g>
    <g id="xtick_5">
     <g id="text_5">
      <!-- 10 -->
      <g transform="translate(665.266559 366.30265)scale(0.08 -0.08)">
       <defs>
        <path d="M 12.40625 8.296875
L 28.515625 8.296875
L 28.515625 63.921875
L 10.984375 60.40625
L 10.984375 69.390625
L 28.421875 72.90625
L 38.28125 72.90625
L 38.28125 8.296875
L 54.390625 8.296875
L 54.390625 0
L 12.40625 0
z
" id="DejaVuSans-49"/>
        <path d="M 31.78125 66.40625
Q 24.171875 66.40625 20.328125 58.90625
Q 16.5 51.421875 16.5 36.375
Q 16.5 21.390625 20.328125 13.890625
Q 24.171875 6.390625 31.78125 6.390625
Q 39.453125 6.390625 43.28125 13.890625
Q 47.125 21.390625 47.125 36.375
Q 47.125 51.421875 43.28125 58.90625
Q 39.453125 66.40625 31.78125 66.40625
z
M 31.78125 74.21875
Q 44.046875 74.21875 50.515625 64.515625
Q 56.984375 54.828125 56.984375 36.375
Q 56.984375 17.96875 50.515625 8.265625
Q 44.046875 -1.421875 31.78125 -1.421875
Q 19.53125 -1.421875 13.0625 8.265625
Q 6.59375 17.96875 6.59375 36.375
Q 6.59375 54.828125 13.0625 64.515625
Q 19.53125 74.21875 31.78125 74.21875
z
" id="DejaVuSans-48"/>
       </defs>
       <use xlink:href="#DejaVuSans-49"/>
       <use x="63.623047" xlink:href="#DejaVuSans-48"/>
      </g>
     </g>
    </g>
    <g id="xtick_6">
     <g id="text_6">
      <!-- 12 -->
      <g transform="translate(804.081211 366.30265)scale(0.08 -0.08)">
       <use xlink:href="#DejaVuSans-49"/>
       <use x="63.623047" xlink:href="#DejaVuSans-50"/>
      </g>
     </g>
    </g>
    <g id="xtick_7">
     <g id="text_7">
      <!-- 14 -->
      <g transform="translate(942.895863 366.30265)scale(0.08 -0.08)">
       <use xlink:href="#DejaVuSans-49"/>
       <use x="63.623047" xlink:href="#DejaVuSans-52"/>
      </g>
     </g>
    </g>
    <g id="text_8">
     <!-- Nucleotide position from 5' -->
     <g transform="translate(451.851875 379.564837)scale(0.1 -0.1)">
      <defs>
       <path d="M 9.8125 72.90625
L 23.09375 72.90625
L 55.421875 11.921875
L 55.421875 72.90625
L 64.984375 72.90625
L 64.984375 0
L 51.703125 0
L 19.390625 60.984375
L 19.390625 0
L 9.8125 0
z
" id="DejaVuSans-78"/>
       <path d="M 8.5 21.578125
L 8.5 54.6875
L 17.484375 54.6875
L 17.484375 21.921875
Q 17.484375 14.15625 20.5 10.265625
Q 23.53125 6.390625 29.59375 6.390625
Q 36.859375 6.390625 41.078125 11.03125
Q 45.3125 15.671875 45.3125 23.6875
L 45.3125 54.6875
L 54.296875 54.6875
L 54.296875 0
L 45.3125 0
L 45.3125 8.40625
Q 42.046875 3.421875 37.71875 1
Q 33.40625 -1.421875 27.6875 -1.421875
Q 18.265625 -1.421875 13.375 4.4375
Q 8.5 10.296875 8.5 21.578125
z
M 31.109375 56
z
" id="DejaVuSans-117"/>
       <path d="M 48.78125 52.59375
L 48.78125 44.1875
Q 44.96875 46.296875 41.140625 47.34375
Q 37.3125 48.390625 33.40625 48.390625
Q 24.65625 48.390625 19.8125 42.84375
Q 14.984375 37.3125 14.984375 27.296875
Q 14.984375 17.28125 19.8125 11.734375
Q 24.65625 6.203125 33.40625 6.203125
Q 37.3125 6.203125 41.140625 7.25
Q 44.96875 8.296875 48.78125 10.40625
L 48.78125 2.09375
Q 45.015625 0.34375 40.984375 -0.53125
Q 36.96875 -1.421875 32.421875 -1.421875
Q 20.0625 -1.421875 12.78125 6.34375
Q 5.515625 14.109375 5.515625 27.296875
Q 5.515625 40.671875 12.859375 48.328125
Q 20.21875 56 33.015625 56
Q 37.15625 56 41.109375 55.140625
Q 45.0625 54.296875 48.78125 52.59375
z
" id="DejaVuSans-99"/>
       <path d="M 9.421875 75.984375
L 18.40625 75.984375
L 18.40625 0
L 9.421875 0
z
" id="DejaVuSans-108"/>
       <path d="M 56.203125 29.59375
L 56.203125 25.203125
L 14.890625 25.203125
Q 15.484375 15.921875 20.484375 11.0625
Q 25.484375 6.203125 34.421875 6.203125
Q 39.59375 6.203125 44.453125 7.46875
Q 49.3125 8.734375 54.109375 11.28125
L 54.109375 2.78125
Q 49.265625 0.734375 44.1875 -0.34375
Q 39.109375 -1.421875 33.890625 -1.421875
Q 20.796875 -1.421875 13.15625 6.1875
Q 5.515625 13.8125 5.515625 26.8125
Q 5.515625 40.234375 12.765625 48.109375
Q 20.015625 56 32.328125 56
Q 43.359375 56 49.78125 48.890625
Q 56.203125 41.796875 56.203125 29.59375
z
M 47.21875 32.234375
Q 47.125 39.59375 43.09375 43.984375
Q 39.0625 48.390625 32.421875 48.390625
Q 24.90625 48.390625 20.390625 44.140625
Q 15.875 39.890625 15.1875 32.171875
z
" id="DejaVuSans-101"/>
       <path d="M 30.609375 48.390625
Q 23.390625 48.390625 19.1875 42.75
Q 14.984375 37.109375 14.984375 27.296875
Q 14.984375 17.484375 19.15625 11.84375
Q 23.34375 6.203125 30.609375 6.203125
Q 37.796875 6.203125 41.984375 11.859375
Q 46.1875 17.53125 46.1875 27.296875
Q 46.1875 37.015625 41.984375 42.703125
Q 37.796875 48.390625 30.609375 48.390625
z
M 30.609375 56
Q 42.328125 56 49.015625 48.375
Q 55.71875 40.765625 55.71875 27.296875
Q 55.71875 13.875 49.015625 6.21875
Q 42.328125 -1.421875 30.609375 -1.421875
Q 18.84375 -1.421875 12.171875 6.21875
Q 5.515625 13.875 5.515625 27.296875
Q 5.515625 40.765625 12.171875 48.375
Q 18.84375 56 30.609375 56
z
" id="DejaVuSans-111"/>
       <path d="M 18.3125 70.21875
L 18.3125 54.6875
L 36.8125 54.6875
L 36.8125 47.703125
L 18.3125 47.703125
L 18.3125 18.015625
Q 18.3125 11.328125 20.140625 9.421875
Q 21.96875 7.515625 27.59375 7.515625
L 36.8125 7.515625
L 36.8125 0
L 27.59375 0
Q 17.1875 0 13.234375 3.875
Q 9.28125 7.765625 9.28125 18.015625
L 9.28125 47.703125
L 2.6875 47.703125
L 2.6875 54.6875
L 9.28125 54.6875
L 9.28125 70.21875
z
" id="DejaVuSans-116"/>
       <path d="M 9.421875 54.6875
L 18.40625 54.6875
L 18.40625 0
L 9.421875 0
z
M 9.421875 75.984375
L 18.40625 75.984375
L 18.40625 64.59375
L 9.421875 64.59375
z
" id="DejaVuSans-105"/>
       <path d="M 45.40625 46.390625
L 45.40625 75.984375
L 54.390625 75.984375
L 54.390625 0
L 45.40625 0
L 45.40625 8.203125
Q 42.578125 3.328125 38.25 0.953125
Q 33.9375 -1.421875 27.875 -1.421875
Q 17.96875 -1.421875 11.734375 6.484375
Q 5.515625 14.40625 5.515625 27.296875
Q 5.515625 40.1875 11.734375 48.09375
Q 17.96875 56 27.875 56
Q 33.9375 56 38.25 53.625
Q 42.578125 51.265625 45.40625 46.390625
z
M 14.796875 27.296875
Q 14.796875 17.390625 18.875 11.75
Q 22.953125 6.109375 30.078125 6.109375
Q 37.203125 6.109375 41.296875 11.75
Q 45.40625 17.390625 45.40625 27.296875
Q 45.40625 37.203125 41.296875 42.84375
Q 37.203125 48.484375 30.078125 48.484375
Q 22.953125 48.484375 18.875 42.84375
Q 14.796875 37.203125 14.796875 27.296875
z
" id="DejaVuSans-100"/>
       <path id="DejaVuSans-32"/>
       <path d="M 18.109375 8.203125
L 18.109375 -20.796875
L 9.078125 -20.796875
L 9.078125 54.6875
L 18.109375 54.6875
L 18.109375 46.390625
Q 20.953125 51.265625 25.265625 53.625
Q 29.59375 56 35.59375 56
Q 45.5625 56 51.78125 48.09375
Q 58.015625 40.1875 58.015625 27.296875
Q 58.015625 14.40625 51.78125 6.484375
Q 45.5625 -1.421875 35.59375 -1.421875
Q 29.59375 -1.421875 25.265625 0.953125
Q 20.953125 3.328125 18.109375 8.203125
z
M 48.6875 27.296875
Q 48.6875 37.203125 44.609375 42.84375
Q 40.53125 48.484375 33.40625 48.484375
Q 26.265625 48.484375 22.1875 42.84375
Q 18.109375 37.203125 18.109375 27.296875
Q 18.109375 17.390625 22.1875 11.75
Q 26.265625 6.109375 33.40625 6.109375
Q 40.53125 6.109375 44.609375 11.75
Q 48.6875 17.390625 48.6875 27.296875
z
" id="DejaVuSans-112"/>
       <path d="M 44.28125 53.078125
L 44.28125 44.578125
Q 40.484375 46.53125 36.375 47.5
Q 32.28125 48.484375 27.875 48.484375
Q 21.1875 48.484375 17.84375 46.4375
Q 14.5 44.390625 14.5 40.28125
Q 14.5 37.15625 16.890625 35.375
Q 19.28125 33.59375 26.515625 31.984375
L 29.59375 31.296875
Q 39.15625 29.25 43.1875 25.515625
Q 47.21875 21.78125 47.21875 15.09375
Q 47.21875 7.46875 41.1875 3.015625
Q 35.15625 -1.421875 24.609375 -1.421875
Q 20.21875 -1.421875 15.453125 -0.5625
Q 10.6875 0.296875 5.421875 2
L 5.421875 11.28125
Q 10.40625 8.6875 15.234375 7.390625
Q 20.0625 6.109375 24.8125 6.109375
Q 31.15625 6.109375 34.5625 8.28125
Q 37.984375 10.453125 37.984375 14.40625
Q 37.984375 18.0625 35.515625 20.015625
Q 33.0625 21.96875 24.703125 23.78125
L 21.578125 24.515625
Q 13.234375 26.265625 9.515625 29.90625
Q 5.8125 33.546875 5.8125 39.890625
Q 5.8125 47.609375 11.28125 51.796875
Q 16.75 56 26.8125 56
Q 31.78125 56 36.171875 55.265625
Q 40.578125 54.546875 44.28125 53.078125
z
" id="DejaVuSans-115"/>
       <path d="M 54.890625 33.015625
L 54.890625 0
L 45.90625 0
L 45.90625 32.71875
Q 45.90625 40.484375 42.875 44.328125
Q 39.84375 48.1875 33.796875 48.1875
Q 26.515625 48.1875 22.3125 43.546875
Q 18.109375 38.921875 18.109375 30.90625
L 18.109375 0
L 9.078125 0
L 9.078125 54.6875
L 18.109375 54.6875
L 18.109375 46.1875
Q 21.34375 51.125 25.703125 53.5625
Q 30.078125 56 35.796875 56
Q 45.21875 56 50.046875 50.171875
Q 54.890625 44.34375 54.890625 33.015625
z
" id="DejaVuSans-110"/>
       <path d="M 37.109375 75.984375
L 37.109375 68.5
L 28.515625 68.5
Q 23.6875 68.5 21.796875 66.546875
Q 19.921875 64.59375 19.921875 59.515625
L 19.921875 54.6875
L 34.71875 54.6875
L 34.71875 47.703125
L 19.921875 47.703125
L 19.921875 0
L 10.890625 0
L 10.890625 47.703125
L 2.296875 47.703125
L 2.296875 54.6875
L 10.890625 54.6875
L 10.890625 58.5
Q 10.890625 67.625 15.140625 71.796875
Q 19.390625 75.984375 28.609375 75.984375
z
" id="DejaVuSans-102"/>
       <path d="M 41.109375 46.296875
Q 39.59375 47.171875 37.8125 47.578125
Q 36.03125 48 33.890625 48
Q 26.265625 48 22.1875 43.046875
Q 18.109375 38.09375 18.109375 28.8125
L 18.109375 0
L 9.078125 0
L 9.078125 54.6875
L 18.109375 54.6875
L 18.109375 46.1875
Q 20.953125 51.171875 25.484375 53.578125
Q 30.03125 56 36.53125 56
Q 37.453125 56 38.578125 55.875
Q 39.703125 55.765625 41.0625 55.515625
z
" id="DejaVuSans-114"/>
       <path d="M 52 44.1875
Q 55.375 50.25 60.0625 53.125
Q 64.75 56 71.09375 56
Q 79.640625 56 84.28125 50.015625
Q 88.921875 44.046875 88.921875 33.015625
L 88.921875 0
L 79.890625 0
L 79.890625 32.71875
Q 79.890625 40.578125 77.09375 44.375
Q 74.3125 48.1875 68.609375 48.1875
Q 61.625 48.1875 57.5625 43.546875
Q 53.515625 38.921875 53.515625 30.90625
L 53.515625 0
L 44.484375 0
L 44.484375 32.71875
Q 44.484375 40.625 41.703125 44.40625
Q 38.921875 48.1875 33.109375 48.1875
Q 26.21875 48.1875 22.15625 43.53125
Q 18.109375 38.875 18.109375 30.90625
L 18.109375 0
L 9.078125 0
L 9.078125 54.6875
L 18.109375 54.6875
L 18.109375 46.1875
Q 21.1875 51.21875 25.484375 53.609375
Q 29.78125 56 35.6875 56
Q 41.65625 56 45.828125 52.96875
Q 50 49.953125 52 44.1875
z
" id="DejaVuSans-109"/>
       <path d="M 10.796875 72.90625
L 49.515625 72.90625
L 49.515625 64.59375
L 19.828125 64.59375
L 19.828125 46.734375
Q 21.96875 47.46875 24.109375 47.828125
Q 26.265625 48.1875 28.421875 48.1875
Q 40.625 48.1875 47.75 41.5
Q 54.890625 34.8125 54.890625 23.390625
Q 54.890625 11.625 47.5625 5.09375
Q 40.234375 -1.421875 26.90625 -1.421875
Q 22.3125 -1.421875 17.546875 -0.640625
Q 12.796875 0.140625 7.71875 1.703125
L 7.71875 11.625
Q 12.109375 9.234375 16.796875 8.0625
Q 21.484375 6.890625 26.703125 6.890625
Q 35.15625 6.890625 40.078125 11.328125
Q 45.015625 15.765625 45.015625 23.390625
Q 45.015625 31 40.078125 35.4375
Q 35.15625 39.890625 26.703125 39.890625
Q 22.75 39.890625 18.8125 39.015625
Q 14.890625 38.140625 10.796875 36.28125
z
" id="DejaVuSans-53"/>
       <path d="M 17.921875 72.90625
L 17.921875 45.796875
L 9.625 45.796875
L 9.625 72.90625
z
" id="DejaVuSans-39"/>
      </defs>
      <use xlink:href="#DejaVuSans-78"/>
      <use x="74.804688" xlink:href="#DejaVuSans-117"/>
      <use x="138.183594" xlink:href="#DejaVuSans-99"/>
      <use x="193.164062" xlink:href="#DejaVuSans-108"/>
      <use x="220.947266" xlink:href="#DejaVuSans-101"/>
      <use x="282.470703" xlink:href="#DejaVuSans-111"/>
      <use x="343.652344" xlink:href="#DejaVuSans-116"/>
      <use x="382.861328" xlink:href="#DejaVuSans-105"/>
      <use x="410.644531" xlink:href="#DejaVuSans-100"/>
      <use x="474.121094" xlink:href="#DejaVuSans-101"/>
      <use x="535.644531" xlink:href="#DejaVuSans-32"/>
      <use x="567.431641" xlink:href="#DejaVuSans-112"/>
      <use x="630.908203" xlink:href="#DejaVuSans-111"/>
      <use x="692.089844" xlink:href="#DejaVuSans-115"/>
      <use x="744.189453" xlink:href="#DejaVuSans-105"/>
      <use x="771.972656" xlink:href="#DejaVuSans-116"/>
      <use x="811.181641" xlink:href="#DejaVuSans-105"/>
      <use x="838.964844" xlink:href="#DejaVuSans-111"/>
      <use x="900.146484" xlink:href="#DejaVuSans-110"/>
      <use x="963.525391" xlink:href="#DejaVuSans-32"/>
      <use x="995.3125" xlink:href="#DejaVuSans-102"/>
      <use x="1030.517578" xlink:href="#DejaVuSans-114"/>
      <use x="1069.380859" xlink:href="#DejaVuSans-111"/>
      <use x="1130.5625" xlink:href="#DejaVuSans-109"/>
      <use x="1227.974609" xlink:href="#DejaVuSans-32"/>
      <use x="1259.761719" xlink:href="#DejaVuSans-53"/>
      <use x="1323.384766" xlink:href="#DejaVuSans-39"/>
     </g>
    </g>
   </g>
   <g id="matplotlib.axis_2">
    <g id="ytick_1">
     <g id="line2d_1">
      <path clip-path="url(#pa8a1ca57d4)" d="M 45.690625 353.2239
L 993.100625 353.2239
" style="fill:none;stroke:#dedede;stroke-linecap:square;"/>
     </g>
     <g id="text_9">
      <!-- 0.0 -->
      <g transform="translate(25.968125 356.263275)scale(0.08 -0.08)">
       <defs>
        <path d="M 10.6875 12.40625
L 21 12.40625
L 21 0
L 10.6875 0
z
" id="DejaVuSans-46"/>
       </defs>
       <use xlink:href="#DejaVuSans-48"/>
       <use x="63.623047" xlink:href="#DejaVuSans-46"/>
       <use x="95.410156" xlink:href="#DejaVuSans-48"/>
      </g>
     </g>
    </g>
    <g id="ytick_2">
     <g id="line2d_2">
      <path clip-path="url(#pa8a1ca57d4)" d="M 45.690625 316.285048
L 993.100625 316.285048
" style="fill:none;stroke:#dedede;stroke-linecap:square;"/>
     </g>
     <g id="text_10">
      <!-- 2.5 -->
      <g transform="translate(25.968125 319.324423)scale(0.08 -0.08)">
       <use xlink:href="#DejaVuSans-50"/>
       <use x="63.623047" xlink:href="#DejaVuSans-46"/>
       <use x="95.410156" xlink:href="#DejaVuSans-53"/>
      </g>
     </g>
    </g>
    <g id="ytick_3">
     <g id="line2d_3">
      <path clip-path="url(#pa8a1ca57d4)" d="M 45.690625 279.346197
L 993.100625 279.346197
" style="fill:none;stroke:#dedede;stroke-linecap:square;"/>
     </g>
     <g id="text_11">
      <!-- 5.0 -->
      <g transform="translate(25.968125 282.385572)scale(0.08 -0.08)">
       <use xlink:href="#DejaVuSans-53"/>
       <use x="63.623047" xlink:href="#DejaVuSans-46"/>
       <use x="95.410156" xlink:href="#DejaVuSans-48"/>
      </g>
     </g>
    </g>
    <g id="ytick_4">
     <g id="line2d_4">
      <path clip-path="url(#pa8a1ca57d4)" d="M 45.690625 242.407345
L 993.100625 242.407345
" style="fill:none;stroke:#dedede;stroke-linecap:square;"/>
     </g>
     <g id="text_12">
      <!-- 7.5 -->
      <g transform="translate(25.968125 245.44672)scale(0.08 -0.08)">
       <defs>
        <path d="M 8.203125 72.90625
L 55.078125 72.90625
L 55.078125 68.703125
L 28.609375 0
L 18.3125 0
L 43.21875 64.59375
L 8.203125 64.59375
z
" id="DejaVuSans-55"/>
       </defs>
       <use xlink:href="#DejaVuSans-55"/>
       <use x="63.623047" xlink:href="#DejaVuSans-46"/>
       <use x="95.410156" xlink:href="#DejaVuSans-53"/>
      </g>
     </g>
    </g>
    <g id="ytick_5">
     <g id="line2d_5">
      <path clip-path="url(#pa8a1ca57d4)" d="M 45.690625 205.468493
L 993.100625 205.468493
" style="fill:none;stroke:#dedede;stroke-linecap:square;"/>
     </g>
     <g id="text_13">
      <!-- 10.0 -->
      <g transform="translate(20.878125 208.507868)scale(0.08 -0.08)">
       <use xlink:href="#DejaVuSans-49"/>
       <use x="63.623047" xlink:href="#DejaVuSans-48"/>
       <use x="127.246094" xlink:href="#DejaVuSans-46"/>
       <use x="159.033203" xlink:href="#DejaVuSans-48"/>
      </g>
     </g>
    </g>
    <g id="ytick_6">
     <g id="line2d_6">
      <path clip-path="url(#pa8a1ca57d4)" d="M 45.690625 168.529641
L 993.100625 168.529641
" style="fill:none;stroke:#dedede;stroke-linecap:square;"/>
     </g>
     <g id="text_14">
      <!-- 12.5 -->
      <g transform="translate(20.878125 171.569016)scale(0.08 -0.08)">
       <use xlink:href="#DejaVuSans-49"/>
       <use x="63.623047" xlink:href="#DejaVuSans-50"/>
       <use x="127.246094" xlink:href="#DejaVuSans-46"/>
       <use x="159.033203" xlink:href="#DejaVuSans-53"/>
      </g>
     </g>
    </g>
    <g id="ytick_7">
     <g id="line2d_7">
      <path clip-path="url(#pa8a1ca57d4)" d="M 45.690625 131.59079
L 993.100625 131.59079
" style="fill:none;stroke:#dedede;stroke-linecap:square;"/>
     </g>
     <g id="text_15">
      <!-- 15.0 -->
      <g transform="translate(20.878125 134.630165)scale(0.08 -0.08)">
       <use xlink:href="#DejaVuSans-49"/>
       <use x="63.623047" xlink:href="#DejaVuSans-53"/>
       <use x="127.246094" xlink:href="#DejaVuSans-46"/>
       <use x="159.033203" xlink:href="#DejaVuSans-48"/>
      </g>
     </g>
    </g>
    <g id="ytick_8">
     <g id="line2d_8">
      <path clip-path="url(#pa8a1ca57d4)" d="M 45.690625 94.651938
L 993.100625 94.651938
" style="fill:none;stroke:#dedede;stroke-linecap:square;"/>
     </g>
     <g id="text_16">
      <!-- 17.5 -->
      <g transform="translate(20.878125 97.691313)scale(0.08 -0.08)">
       <use xlink:href="#DejaVuSans-49"/>
       <use x="63.623047" xlink:href="#DejaVuSans-55"/>
       <use x="127.246094" xlink:href="#DejaVuSans-46"/>
       <use x="159.033203" xlink:href="#DejaVuSans-53"/>
      </g>
     </g>
    </g>
    <g id="ytick_9">
     <g id="line2d_9">
      <path clip-path="url(#pa8a1ca57d4)" d="M 45.690625 57.713086
L 993.100625 57.713086
" style="fill:none;stroke:#dedede;stroke-linecap:square;"/>
     </g>
     <g id="text_17">
      <!-- 20.0 -->
      <g transform="translate(20.878125 60.752461)scale(0.08 -0.08)">
       <use xlink:href="#DejaVuSans-50"/>
       <use x="63.623047" xlink:href="#DejaVuSans-48"/>
       <use x="127.246094" xlink:href="#DejaVuSans-46"/>
       <use x="159.033203" xlink:href="#DejaVuSans-48"/>
      </g>
     </g>
    </g>
    <g id="text_18">
     <!-- % C to T substituted -->
     <g transform="translate(14.798438 245.153181)rotate(-90)scale(0.1 -0.1)">
      <defs>
       <path d="M 72.703125 32.078125
Q 68.453125 32.078125 66.03125 28.46875
Q 63.625 24.859375 63.625 18.40625
Q 63.625 12.0625 66.03125 8.421875
Q 68.453125 4.78125 72.703125 4.78125
Q 76.859375 4.78125 79.265625 8.421875
Q 81.6875 12.0625 81.6875 18.40625
Q 81.6875 24.8125 79.265625 28.4375
Q 76.859375 32.078125 72.703125 32.078125
z
M 72.703125 38.28125
Q 80.421875 38.28125 84.953125 32.90625
Q 89.5 27.546875 89.5 18.40625
Q 89.5 9.28125 84.9375 3.921875
Q 80.375 -1.421875 72.703125 -1.421875
Q 64.890625 -1.421875 60.34375 3.921875
Q 55.8125 9.28125 55.8125 18.40625
Q 55.8125 27.59375 60.375 32.9375
Q 64.9375 38.28125 72.703125 38.28125
z
M 22.3125 68.015625
Q 18.109375 68.015625 15.6875 64.375
Q 13.28125 60.75 13.28125 54.390625
Q 13.28125 47.953125 15.671875 44.328125
Q 18.0625 40.71875 22.3125 40.71875
Q 26.5625 40.71875 28.96875 44.328125
Q 31.390625 47.953125 31.390625 54.390625
Q 31.390625 60.6875 28.953125 64.34375
Q 26.515625 68.015625 22.3125 68.015625
z
M 66.40625 74.21875
L 74.21875 74.21875
L 28.609375 -1.421875
L 20.796875 -1.421875
z
M 22.3125 74.21875
Q 30.03125 74.21875 34.609375 68.875
Q 39.203125 63.53125 39.203125 54.390625
Q 39.203125 45.171875 34.640625 39.84375
Q 30.078125 34.515625 22.3125 34.515625
Q 14.546875 34.515625 10.03125 39.859375
Q 5.515625 45.21875 5.515625 54.390625
Q 5.515625 63.484375 10.046875 68.84375
Q 14.59375 74.21875 22.3125 74.21875
z
" id="DejaVuSans-37"/>
       <path d="M 64.40625 67.28125
L 64.40625 56.890625
Q 59.421875 61.53125 53.78125 63.8125
Q 48.140625 66.109375 41.796875 66.109375
Q 29.296875 66.109375 22.65625 58.46875
Q 16.015625 50.828125 16.015625 36.375
Q 16.015625 21.96875 22.65625 14.328125
Q 29.296875 6.6875 41.796875 6.6875
Q 48.140625 6.6875 53.78125 8.984375
Q 59.421875 11.28125 64.40625 15.921875
L 64.40625 5.609375
Q 59.234375 2.09375 53.4375 0.328125
Q 47.65625 -1.421875 41.21875 -1.421875
Q 24.65625 -1.421875 15.125 8.703125
Q 5.609375 18.84375 5.609375 36.375
Q 5.609375 53.953125 15.125 64.078125
Q 24.65625 74.21875 41.21875 74.21875
Q 47.75 74.21875 53.53125 72.484375
Q 59.328125 70.75 64.40625 67.28125
z
" id="DejaVuSans-67"/>
       <path d="M -0.296875 72.90625
L 61.375 72.90625
L 61.375 64.59375
L 35.5 64.59375
L 35.5 0
L 25.59375 0
L 25.59375 64.59375
L -0.296875 64.59375
z
" id="DejaVuSans-84"/>
       <path d="M 48.6875 27.296875
Q 48.6875 37.203125 44.609375 42.84375
Q 40.53125 48.484375 33.40625 48.484375
Q 26.265625 48.484375 22.1875 42.84375
Q 18.109375 37.203125 18.109375 27.296875
Q 18.109375 17.390625 22.1875 11.75
Q 26.265625 6.109375 33.40625 6.109375
Q 40.53125 6.109375 44.609375 11.75
Q 48.6875 17.390625 48.6875 27.296875
z
M 18.109375 46.390625
Q 20.953125 51.265625 25.265625 53.625
Q 29.59375 56 35.59375 56
Q 45.5625 56 51.78125 48.09375
Q 58.015625 40.1875 58.015625 27.296875
Q 58.015625 14.40625 51.78125 6.484375
Q 45.5625 -1.421875 35.59375 -1.421875
Q 29.59375 -1.421875 25.265625 0.953125
Q 20.953125 3.328125 18.109375 8.203125
L 18.109375 0
L 9.078125 0
L 9.078125 75.984375
L 18.109375 75.984375
z
" id="DejaVuSans-98"/>
      </defs>
      <use xlink:href="#DejaVuSans-37"/>
      <use x="95.019531" xlink:href="#DejaVuSans-32"/>
      <use x="126.806641" xlink:href="#DejaVuSans-67"/>
      <use x="196.630859" xlink:href="#DejaVuSans-32"/>
      <use x="228.417969" xlink:href="#DejaVuSans-116"/>
      <use x="267.626953" xlink:href="#DejaVuSans-111"/>
      <use x="328.808594" xlink:href="#DejaVuSans-32"/>
      <use x="360.595703" xlink:href="#DejaVuSans-84"/>
      <use x="421.679688" xlink:href="#DejaVuSans-32"/>
      <use x="453.466797" xlink:href="#DejaVuSans-115"/>
      <use x="505.566406" xlink:href="#DejaVuSans-117"/>
      <use x="568.945312" xlink:href="#DejaVuSans-98"/>
      <use x="632.421875" xlink:href="#DejaVuSans-115"/>
      <use x="684.521484" xlink:href="#DejaVuSans-116"/>
      <use x="723.730469" xlink:href="#DejaVuSans-105"/>
      <use x="751.513672" xlink:href="#DejaVuSans-116"/>
      <use x="790.722656" xlink:href="#DejaVuSans-117"/>
      <use x="854.101562" xlink:href="#DejaVuSans-116"/>
      <use x="893.310547" xlink:href="#DejaVuSans-101"/>
      <use x="954.833984" xlink:href="#DejaVuSans-100"/>
     </g>
    </g>
   </g>
   <g id="line2d_10">
    <path clip-path="url(#pa8a1ca57d4)" d="M 45.690625 131.531918
L 115.097951 235.690479
L 184.505277 255.427105
L 253.912603 270.62884
L 323.319929 279.254877
L 392.727255 286.857978
L 462.134581 291.600209
L 531.541907 304.233146
L 600.949233 302.643667
L 670.356559 307.707537
L 739.763885 311.767474
L 809.171211 315.798335
L 878.578537 313.060381
L 947.985863 314.772984
" style="fill:none;stroke:#7cb5ec;stroke-linecap:square;"/>
   </g>
   <g id="line2d_11">
    <path clip-path="url(#pa8a1ca57d4)" d="M 45.690625 134.569639
L 115.097951 234.284747
L 184.505277 255.229413
L 253.912603 269.269899
L 323.319929 280.729949
L 392.727255 287.749377
L 462.134581 292.131774
L 531.541907 303.526398
L 600.949233 304.009924
L 670.356559 308.791998
L 739.763885 312.467037
L 809.171211 314.554629
L 878.578537 314.265653
L 947.985863 315.850121
" style="fill:none;stroke:#434348;stroke-linecap:square;"/>
   </g>
   <g id="line2d_12">
    <path clip-path="url(#pa8a1ca57d4)" d="M 45.690625 158.507472
L 115.097951 230.094394
L 184.505277 249.768588
L 253.912603 268.933903
L 323.319929 302.535939
L 392.727255 289.205093
L 462.134581 288.982419
L 531.541907 295.954362
L 600.949233 294.803311
L 670.356559 325.907774
L 739.763885 309.766427
L 809.171211 317.127302
L 878.578537 327.923317
L 947.985863 311.47198
" style="fill:none;stroke:#90ed7d;stroke-linecap:square;"/>
   </g>
   <g id="line2d_13">
    <path clip-path="url(#pa8a1ca57d4)" d="M 45.690625 151.126839
L 115.097951 227.794862
L 184.505277 261.550837
L 253.912603 273.840579
L 323.319929 308.529204
L 392.727255 285.350392
L 462.134581 288.19071
L 531.541907 298.84991
L 600.949233 295.280603
L 670.356559 326.225404
L 739.763885 310.865689
L 809.171211 317.591567
L 878.578537 335.693597
L 947.985863 313.667334
" style="fill:none;stroke:#f7a35c;stroke-linecap:square;"/>
   </g>
   <g id="line2d_14">
    <path clip-path="url(#pa8a1ca57d4)" d="M 45.690625 59.272418
L 115.097951 186.586195
L 184.505277 206.81111
L 253.912603 217.477759
L 323.319929 229.461567
L 392.727255 244.869251
L 462.134581 256.575088
L 531.541907 270.69515
L 600.949233 280.631213
L 670.356559 290.431262
L 739.763885 298.5376
L 809.171211 299.096109
L 878.578537 304.340818
L 947.985863 307.579585
" style="fill:none;stroke:#8085e9;stroke-linecap:square;"/>
   </g>
   <g id="line2d_15">
    <path clip-path="url(#pa8a1ca57d4)" d="M 45.690625 57.098871
L 115.097951 188.089925
L 184.505277 206.706877
L 253.912603 218.490745
L 323.319929 227.499774
L 392.727255 243.350765
L 462.134581 258.844377
L 531.541907 269.961045
L 600.949233 281.090082
L 670.356559 292.335156
L 739.763885 296.550769
L 809.171211 301.775139
L 878.578537 305.522786
L 947.985863 308.407312
" style="fill:none;stroke:#f15c80;stroke-linecap:square;"/>
   </g>
   <g id="line2d_16">
    <path clip-path="url(#pa8a1ca57d4)" d="M 45.690625 50.397233
L 115.097951 188.719542
L 184.505277 223.855787
L 253.912603 240.267314
L 323.319929 252.400767
L 392.727255 268.477473
L 462.134581 283.597659
L 531.541907 295.500811
L 600.949233 301.948051
L 670.356559 308.512584
L 739.763885 314.923896
L 809.171211 317.902161
L 878.578537 320.815546
L 947.985863 321.561081
" style="fill:none;stroke:#e4d354;stroke-linecap:square;"/>
   </g>
   <g id="line2d_17">
    <path clip-path="url(#pa8a1ca57d4)" d="M 45.690625 50.630861
L 115.097951 189.221197
L 184.505277 223.586629
L 253.912603 239.55274
L 323.319929 253.181052
L 392.727255 269.082836
L 462.134581 282.637967
L 531.541907 295.599379
L 600.949233 301.227537
L 670.356559 308.364237
L 739.763885 314.689771
L 809.171211 317.400686
L 878.578537 320.96645
L 947.985863 321.142146
" style="fill:none;stroke:#2b908f;stroke-linecap:square;"/>
   </g>
   <g id="line2d_18">
    <path clip-path="url(#pa8a1ca57d4)" d="M 45.690625 94.240593
L 115.097951 220.107816
L 184.505277 250.644967
L 253.912603 262.399762
L 323.319929 274.443774
L 392.727255 283.605938
L 462.134581 294.012153
L 531.541907 301.473128
L 600.949233 306.476593
L 670.356559 310.530255
L 739.763885 314.311069
L 809.171211 315.539495
L 878.578537 317.77186
L 947.985863 319.363296
" style="fill:none;stroke:#f45b5b;stroke-linecap:square;"/>
   </g>
   <g id="line2d_19">
    <path clip-path="url(#pa8a1ca57d4)" d="M 45.690625 95.019268
L 115.097951 220.959147
L 184.505277 251.545943
L 253.912603 261.799406
L 323.319929 274.761144
L 392.727255 283.511777
L 462.134581 294.410418
L 531.541907 301.390647
L 600.949233 306.9395
L 670.356559 310.869139
L 739.763885 314.519398
L 809.171211 315.466812
L 878.578537 318.042717
L 947.985863 319.514023
" style="fill:none;stroke:#91e8e1;stroke-linecap:square;"/>
   </g>
   <g id="line2d_20">
    <path clip-path="url(#pa8a1ca57d4)" d="M 45.690625 120.241364
L 115.097951 211.162469
L 184.505277 238.542626
L 253.912603 249.286942
L 323.319929 257.022242
L 392.727255 262.992847
L 462.134581 272.610626
L 531.541907 281.359763
L 600.949233 285.880653
L 670.356559 293.017088
L 739.763885 298.391195
L 809.171211 303.177459
L 878.578537 307.725896
L 947.985863 309.762411
" style="fill:none;stroke:#7cb5ec;stroke-linecap:square;"/>
   </g>
   <g id="line2d_21">
    <path clip-path="url(#pa8a1ca57d4)" d="M 45.690625 120.355845
L 115.097951 210.844195
L 184.505277 238.190993
L 253.912603 249.29177
L 323.319929 255.265653
L 392.727255 262.670457
L 462.134581 271.83791
L 531.541907 281.525544
L 600.949233 287.461206
L 670.356559 293.441787
L 739.763885 298.344909
L 809.171211 303.336176
L 878.578537 307.263526
L 947.985863 309.523635
" style="fill:none;stroke:#434348;stroke-linecap:square;"/>
   </g>
   <g id="line2d_22">
    <path clip-path="url(#pa8a1ca57d4)" d="M 45.690625 106.825376
L 115.097951 224.232804
L 184.505277 250.311336
L 253.912603 261.952072
L 323.319929 273.610943
L 392.727255 283.421437
L 462.134581 294.546469
L 531.541907 302.120839
L 600.949233 309.911221
L 670.356559 313.443109
L 739.763885 317.783436
L 809.171211 320.232033
L 878.578537 321.534084
L 947.985863 323.095359
" style="fill:none;stroke:#90ed7d;stroke-linecap:square;"/>
   </g>
   <g id="line2d_23">
    <path clip-path="url(#pa8a1ca57d4)" d="M 45.690625 106.816871
L 115.097951 223.928695
L 184.505277 250.732613
L 253.912603 262.061445
L 323.319929 274.208238
L 392.727255 283.241267
L 462.134581 294.894895
L 531.541907 302.047215
L 600.949233 309.41354
L 670.356559 313.17182
L 739.763885 317.638336
L 809.171211 320.175918
L 878.578537 322.107133
L 947.985863 323.20461
" style="fill:none;stroke:#f7a35c;stroke-linecap:square;"/>
   </g>
   <g id="line2d_24">
    <path clip-path="url(#pa8a1ca57d4)" d="M 45.690625 135.686075
L 115.097951 240.98566
L 184.505277 264.673621
L 253.912603 279.699371
L 323.319929 290.821715
L 392.727255 296.15171
L 462.134581 307.419724
L 531.541907 314.927032
L 600.949233 321.889675
L 670.356559 323.351853
L 739.763885 326.658567
L 809.171211 322.729084
L 878.578537 322.002121
L 947.985863 327.895318
" style="fill:none;stroke:#8085e9;stroke-linecap:square;"/>
   </g>
   <g id="line2d_25">
    <path clip-path="url(#pa8a1ca57d4)" d="M 45.690625 130.553116
L 115.097951 238.601724
L 184.505277 266.012418
L 253.912603 277.719076
L 323.319929 288.449992
L 392.727255 292.199553
L 462.134581 308.39025
L 531.541907 315.071845
L 600.949233 320.129804
L 670.356559 321.73608
L 739.763885 325.876596
L 809.171211 322.053229
L 878.578537 322.088328
L 947.985863 328.188719
" style="fill:none;stroke:#f15c80;stroke-linecap:square;"/>
   </g>
   <g id="line2d_26">
    <path clip-path="url(#pa8a1ca57d4)" d="M 45.690625 140.564476
L 115.097951 238.983803
L 184.505277 268.944094
L 253.912603 280.20524
L 323.319929 298.975538
L 392.727255 292.080247
L 462.134581 308.098535
L 531.541907 313.10931
L 600.949233 321.000142
L 670.356559 325.017332
L 739.763885 327.968621
L 809.171211 320.299233
L 878.578537 322.905068
L 947.985863 325.883801
" style="fill:none;stroke:#e4d354;stroke-linecap:square;"/>
   </g>
   <g id="line2d_27">
    <path clip-path="url(#pa8a1ca57d4)" d="M 45.690625 139.388057
L 115.097951 243.595791
L 184.505277 270.045319
L 253.912603 276.510629
L 323.319929 289.991501
L 392.727255 287.367204
L 462.134581 310.521412
L 531.541907 317.679744
L 600.949233 319.685768
L 670.356559 319.500409
L 739.763885 327.629565
L 809.171211 319.79827
L 878.578537 321.438187
L 947.985863 328.020921
" style="fill:none;stroke:#2b908f;stroke-linecap:square;"/>
   </g>
   <g id="line2d_28">
    <path clip-path="url(#pa8a1ca57d4)" d="M 45.690625 150.193788
L 115.097951 243.478972
L 184.505277 262.951055
L 253.912603 277.308191
L 323.319929 293.476363
L 392.727255 294.357204
L 462.134581 307.643826
L 531.541907 311.288341
L 600.949233 312.317633
L 670.356559 316.031463
L 739.763885 317.817299
L 809.171211 325.938483
L 878.578537 321.276785
L 947.985863 326.965249
" style="fill:none;stroke:#f45b5b;stroke-linecap:square;"/>
   </g>
   <g id="line2d_29">
    <path clip-path="url(#pa8a1ca57d4)" d="M 45.690625 144.636582
L 115.097951 242.962525
L 184.505277 262.394987
L 253.912603 279.142536
L 323.319929 294.78389
L 392.727255 294.234586
L 462.134581 305.609885
L 531.541907 312.351716
L 600.949233 314.666116
L 670.356559 316.090889
L 739.763885 318.53265
L 809.171211 325.226089
L 878.578537 319.671579
L 947.985863 326.53325
" style="fill:none;stroke:#91e8e1;stroke-linecap:square;"/>
   </g>
   <g id="line2d_30">
    <path clip-path="url(#pa8a1ca57d4)" d="M 45.690625 140.835914
L 115.097951 244.845851
L 184.505277 268.178093
L 253.912603 283.114573
L 323.319929 288.636207
L 392.727255 297.350007
L 462.134581 308.449534
L 531.541907 308.313442
L 600.949233 322.695923
L 670.356559 319.10631
L 739.763885 321.00852
L 809.171211 329.226502
L 878.578537 326.712762
L 947.985863 329.60403
" style="fill:none;stroke:#7cb5ec;stroke-linecap:square;"/>
   </g>
   <g id="line2d_31">
    <path clip-path="url(#pa8a1ca57d4)" d="M 45.690625 136.798029
L 115.097951 237.612082
L 184.505277 264.061154
L 253.912603 293.335139
L 323.319929 287.400858
L 392.727255 294.548468
L 462.134581 315.795933
L 531.541907 308.58216
L 600.949233 321.14086
L 670.356559 322.821553
L 739.763885 318.961777
L 809.171211 325.923069
L 878.578537 325.4438
L 947.985863 330.718683
" style="fill:none;stroke:#434348;stroke-linecap:square;"/>
   </g>
   <g id="line2d_32">
    <path clip-path="url(#pa8a1ca57d4)" d="M 45.690625 161.862227
L 115.097951 247.232656
L 184.505277 267.902548
L 253.912603 276.607827
L 323.319929 292.79584
L 392.727255 292.165555
L 462.134581 307.324417
L 531.541907 316.525003
L 600.949233 319.274106
L 670.356559 319.882757
L 739.763885 321.165385
L 809.171211 322.141294
L 878.578537 329.177432
L 947.985863 326.943294
" style="fill:none;stroke:#90ed7d;stroke-linecap:square;"/>
   </g>
   <g id="line2d_33">
    <path clip-path="url(#pa8a1ca57d4)" d="M 45.690625 160.33244
L 115.097951 246.246221
L 184.505277 264.551988
L 253.912603 273.584757
L 323.319929 293.711306
L 392.727255 288.254257
L 462.134581 306.986723
L 531.541907 316.72722
L 600.949233 318.037001
L 670.356559 320.301066
L 739.763885 321.445465
L 809.171211 323.017884
L 878.578537 329.200984
L 947.985863 327.301899
" style="fill:none;stroke:#f7a35c;stroke-linecap:square;"/>
   </g>
   <g id="line2d_34">
    <path clip-path="url(#pa8a1ca57d4)" d="M 45.690625 138.632084
L 115.097951 234.740791
L 184.505277 257.64785
L 253.912603 288.378267
L 323.319929 297.467143
L 392.727255 318.103769
L 462.134581 312.053663
L 531.541907 323.853559
L 600.949233 324.346622
L 670.356559 319.693929
L 739.763885 331.98111
L 809.171211 333.725386
L 878.578537 327.26049
L 947.985863 335.956991
" style="fill:none;stroke:#8085e9;stroke-linecap:square;"/>
   </g>
   <g id="line2d_35">
    <path clip-path="url(#pa8a1ca57d4)" d="M 45.690625 123.280971
L 115.097951 248.534079
L 184.505277 279.214036
L 253.912603 306.391758
L 323.319929 295.506944
L 392.727255 293.524746
L 462.134581 308.37801
L 531.541907 319.07396
L 600.949233 310.232281
L 670.356559 327.425337
L 739.763885 331.005042
L 809.171211 335.448813
L 878.578537 334.127886
L 947.985863 326.277625
" style="fill:none;stroke:#f15c80;stroke-linecap:square;"/>
   </g>
   <g id="line2d_36">
    <path clip-path="url(#pa8a1ca57d4)" d="M 45.690625 142.174569
L 115.097951 243.233382
L 184.505277 266.606285
L 253.912603 276.417125
L 323.319929 296.892288
L 392.727255 293.219481
L 462.134581 305.061739
L 531.541907 310.476784
L 600.949233 318.232006
L 670.356559 317.691538
L 739.763885 323.350782
L 809.171211 322.211096
L 878.578537 327.957492
L 947.985863 325.683881
" style="fill:none;stroke:#e4d354;stroke-linecap:square;"/>
   </g>
   <g id="line2d_37">
    <path clip-path="url(#pa8a1ca57d4)" d="M 45.690625 142.887043
L 115.097951 245.826065
L 184.505277 264.639326
L 253.912603 277.401761
L 323.319929 295.088483
L 392.727255 293.281671
L 462.134581 305.299679
L 531.541907 312.625885
L 600.949233 317.180794
L 670.356559 317.093234
L 739.763885 321.759622
L 809.171211 321.122021
L 878.578537 327.00889
L 947.985863 325.995723
" style="fill:none;stroke:#2b908f;stroke-linecap:square;"/>
   </g>
   <g id="line2d_38">
    <path clip-path="url(#pa8a1ca57d4)" d="M 45.690625 145.828223
L 115.097951 251.40527
L 184.505277 276.735891
L 253.912603 287.098795
L 323.319929 294.683723
L 392.727255 306.103725
L 462.134581 316.169252
L 531.541907 322.555617
L 600.949233 320.724675
L 670.356559 326.399923
L 739.763885 322.441524
L 809.171211 326.777407
L 878.578537 331.723517
L 947.985863 341.626144
" style="fill:none;stroke:#f45b5b;stroke-linecap:square;"/>
   </g>
   <g id="line2d_39">
    <path clip-path="url(#pa8a1ca57d4)" d="M 45.690625 139.022275
L 115.097951 268.279496
L 184.505277 278.033346
L 253.912603 275.284569
L 323.319929 295.77623
L 392.727255 303.633985
L 462.134581 319.178875
L 531.541907 314.252994
L 600.949233 314.639539
L 670.356559 322.770496
L 739.763885 317.753735
L 809.171211 327.439573
L 878.578537 329.462066
L 947.985863 324.365422
" style="fill:none;stroke:#91e8e1;stroke-linecap:square;"/>
   </g>
   <g id="line2d_40">
    <path clip-path="url(#pa8a1ca57d4)" d="M 45.690625 140.057806
L 115.097951 241.492302
L 184.505277 254.237972
L 253.912603 283.651569
L 323.319929 284.002883
L 392.727255 293.114672
L 462.134581 306.307492
L 531.541907 304.614114
L 600.949233 318.519346
L 670.356559 316.020389
L 739.763885 321.42224
L 809.171211 321.654877
L 878.578537 324.093261
L 947.985863 325.420463
" style="fill:none;stroke:#7cb5ec;stroke-linecap:square;"/>
   </g>
   <g id="line2d_41">
    <path clip-path="url(#pa8a1ca57d4)" d="M 45.690625 141.635304
L 115.097951 245.917299
L 184.505277 252.287296
L 253.912603 282.296283
L 323.319929 282.729308
L 392.727255 295.354605
L 462.134581 307.765521
L 531.541907 302.135798
L 600.949233 319.622298
L 670.356559 315.905799
L 739.763885 320.716484
L 809.171211 320.072655
L 878.578537 325.011411
L 947.985863 325.184508
" style="fill:none;stroke:#434348;stroke-linecap:square;"/>
   </g>
   <g id="line2d_42">
    <path clip-path="url(#pa8a1ca57d4)" d="M 45.690625 170.164104
L 115.097951 239.482568
L 184.505277 279.741869
L 253.912603 294.378517
L 323.319929 293.732338
L 392.727255 288.649315
L 462.134581 307.084665
L 531.541907 292.105916
L 600.949233 310.128573
L 670.356559 315.148061
L 739.763885 320.020438
L 809.171211 326.208143
L 878.578537 337.538613
L 947.985863 322.617423
" style="fill:none;stroke:#90ed7d;stroke-linecap:square;"/>
   </g>
   <g id="line2d_43">
    <path clip-path="url(#pa8a1ca57d4)" d="M 45.690625 172.60978
L 115.097951 239.815145
L 184.505277 281.893704
L 253.912603 301.024802
L 323.319929 290.164197
L 392.727255 287.603438
L 462.134581 308.449534
L 531.541907 292.5025
L 600.949233 313.234581
L 670.356559 316.205724
L 739.763885 322.226262
L 809.171211 323.090941
L 878.578537 335.534872
L 947.985863 318.618304
" style="fill:none;stroke:#f7a35c;stroke-linecap:square;"/>
   </g>
   <g id="line2d_44">
    <path clip-path="url(#pa8a1ca57d4)" d="M 45.690625 130.771576
L 115.097951 236.791732
L 184.505277 261.85065
L 253.912603 280.526502
L 323.319929 284.494943
L 392.727255 292.132377
L 462.134581 306.646223
L 531.541907 310.925745
L 600.949233 316.556022
L 670.356559 317.88732
L 739.763885 319.637951
L 809.171211 323.950511
L 878.578537 322.919299
L 947.985863 324.63991
" style="fill:none;stroke:#8085e9;stroke-linecap:square;"/>
   </g>
   <g id="line2d_45">
    <path clip-path="url(#pa8a1ca57d4)" d="M 45.690625 130.228729
L 115.097951 235.765034
L 184.505277 262.069018
L 253.912603 280.10633
L 323.319929 285.321152
L 392.727255 294.509888
L 462.134581 306.024768
L 531.541907 311.65256
L 600.949233 316.802399
L 670.356559 318.517844
L 739.763885 320.192239
L 809.171211 324.599259
L 878.578537 323.591239
L 947.985863 324.832932
" style="fill:none;stroke:#f15c80;stroke-linecap:square;"/>
   </g>
   <g id="line2d_46">
    <path clip-path="url(#pa8a1ca57d4)" d="M 45.690625 130.468511
L 115.097951 236.661437
L 184.505277 263.796043
L 253.912603 279.195978
L 323.319929 283.965455
L 392.727255 294.087313
L 462.134581 303.30404
L 531.541907 313.239001
L 600.949233 315.790477
L 670.356559 317.771111
L 739.763885 321.561196
L 809.171211 323.018971
L 878.578537 325.345521
L 947.985863 324.156056
" style="fill:none;stroke:#e4d354;stroke-linecap:square;"/>
   </g>
   <g id="line2d_47">
    <path clip-path="url(#pa8a1ca57d4)" d="M 45.690625 128.268564
L 115.097951 232.755346
L 184.505277 259.523226
L 253.912603 275.210679
L 323.319929 284.502887
L 392.727255 294.472555
L 462.134581 304.919644
L 531.541907 310.001842
L 600.949233 315.471327
L 670.356559 316.640445
L 739.763885 323.67891
L 809.171211 319.724615
L 878.578537 321.069979
L 947.985863 320.389365
" style="fill:none;stroke:#2b908f;stroke-linecap:square;"/>
   </g>
   <g id="line2d_48">
    <path clip-path="url(#pa8a1ca57d4)" d="M 45.690625 127.468858
L 115.097951 231.855283
L 184.505277 259.903525
L 253.912603 276.121438
L 323.319929 284.403682
L 392.727255 295.614826
L 462.134581 305.39471
L 531.541907 310.788956
L 600.949233 315.784465
L 670.356559 317.059634
L 739.763885 325.449158
L 809.171211 320.094416
L 878.578537 321.014785
L 947.985863 321.362896
" style="fill:none;stroke:#f45b5b;stroke-linecap:square;"/>
   </g>
   <g id="line2d_49">
    <path clip-path="url(#pa8a1ca57d4)" d="M 45.690625 127.92067
L 115.097951 236.796346
L 184.505277 256.744751
L 253.912603 275.248002
L 323.319929 284.110961
L 392.727255 294.744091
L 462.134581 304.945398
L 531.541907 310.533075
L 600.949233 317.442973
L 670.356559 317.476624
L 739.763885 325.368967
L 809.171211 321.304977
L 878.578537 321.757664
L 947.985863 324.081649
" style="fill:none;stroke:#91e8e1;stroke-linecap:square;"/>
   </g>
   <g id="line2d_50">
    <path clip-path="url(#pa8a1ca57d4)" d="M 45.690625 128.655643
L 115.097951 233.521881
L 184.505277 259.896126
L 253.912603 276.784207
L 323.319929 284.546558
L 392.727255 294.907829
L 462.134581 305.310475
L 531.541907 309.772494
L 600.949233 316.753113
L 670.356559 318.647966
L 739.763885 325.597697
L 809.171211 320.188448
L 878.578537 320.209441
L 947.985863 322.340627
" style="fill:none;stroke:#7cb5ec;stroke-linecap:square;"/>
   </g>
   <g id="line2d_51">
    <path clip-path="url(#pa8a1ca57d4)" d="M 45.690625 128.868737
L 115.097951 234.876988
L 184.505277 258.855112
L 253.912603 273.816682
L 323.319929 286.359498
L 392.727255 294.385471
L 462.134581 306.053625
L 531.541907 310.164226
L 600.949233 316.825447
L 670.356559 317.845748
L 739.763885 324.830759
L 809.171211 321.155026
L 878.578537 320.635404
L 947.985863 322.860311
" style="fill:none;stroke:#434348;stroke-linecap:square;"/>
   </g>
   <g id="line2d_52">
    <path clip-path="url(#pa8a1ca57d4)" d="M 45.690625 181.28124
L 115.097951 219.971422
L 184.505277 242.142316
L 253.912603 228.760469
L 323.319929 266.401626
L 392.727255 262.965688
L 462.134581 269.070038
L 531.541907 284.510899
L 600.949233 292.298442
L 670.356559 298.521402
L 739.763885 301.874091
L 809.171211 304.791719
L 878.578537 307.57081
L 947.985863 311.573535
" style="fill:none;stroke:#90ed7d;stroke-linecap:square;"/>
   </g>
   <g id="line2d_53">
    <path clip-path="url(#pa8a1ca57d4)" d="M 45.690625 180.252126
L 115.097951 219.278841
L 184.505277 239.790235
L 253.912603 228.672196
L 323.319929 269.156771
L 392.727255 264.222836
L 462.134581 272.017394
L 531.541907 282.770791
L 600.949233 290.667676
L 670.356559 298.61447
L 739.763885 302.731944
L 809.171211 305.754696
L 878.578537 305.637858
L 947.985863 313.725809
" style="fill:none;stroke:#f7a35c;stroke-linecap:square;"/>
   </g>
   <g id="line2d_54">
    <path clip-path="url(#pa8a1ca57d4)" d="M 45.690625 152.450694
L 115.097951 227.756131
L 184.505277 246.833073
L 253.912603 251.800854
L 323.319929 266.96487
L 392.727255 279.037085
L 462.134581 281.593241
L 531.541907 286.508311
L 600.949233 300.902307
L 670.356559 303.107805
L 739.763885 304.511185
L 809.171211 306.838815
L 878.578537 311.379504
L 947.985863 316.2598
" style="fill:none;stroke:#8085e9;stroke-linecap:square;"/>
   </g>
   <g id="line2d_55">
    <path clip-path="url(#pa8a1ca57d4)" d="M 45.690625 150.337494
L 115.097951 228.229652
L 184.505277 248.573834
L 253.912603 252.143326
L 323.319929 267.073422
L 392.727255 277.674026
L 462.134581 281.553717
L 531.541907 290.357619
L 600.949233 300.123094
L 670.356559 303.451221
L 739.763885 305.219557
L 809.171211 307.262656
L 878.578537 313.437384
L 947.985863 315.389776
" style="fill:none;stroke:#f15c80;stroke-linecap:square;"/>
   </g>
   <g id="line2d_56">
    <path clip-path="url(#pa8a1ca57d4)" d="M 45.690625 156.786076
L 115.097951 219.267055
L 184.505277 252.087539
L 253.912603 257.65604
L 323.319929 267.002993
L 392.727255 279.117473
L 462.134581 283.239101
L 531.541907 292.419206
L 600.949233 295.032558
L 670.356559 300.5735
L 739.763885 305.64309
L 809.171211 306.883242
L 878.578537 311.565207
L 947.985863 319.426476
" style="fill:none;stroke:#e4d354;stroke-linecap:square;"/>
   </g>
   <g id="line2d_57">
    <path clip-path="url(#pa8a1ca57d4)" d="M 45.690625 145.117693
L 115.097951 240.104923
L 184.505277 246.182467
L 253.912603 256.074499
L 323.319929 264.785053
L 392.727255 280.247144
L 462.134581 289.13104
L 531.541907 274.39766
L 600.949233 304.685097
L 670.356559 285.729686
L 739.763885 317.165056
L 809.171211 312.180731
L 878.578537 309.065081
L 947.985863 314.981324
" style="fill:none;stroke:#2b908f;stroke-linecap:square;"/>
   </g>
   <g id="line2d_58">
    <path clip-path="url(#pa8a1ca57d4)" d="M 45.690625 157.33605
L 115.097951 230.266507
L 184.505277 247.016658
L 253.912603 264.393494
L 323.319929 264.604001
L 392.727255 276.546167
L 462.134581 289.172295
L 531.541907 295.30378
L 600.949233 297.882568
L 670.356559 301.494362
L 739.763885 307.219469
L 809.171211 308.732985
L 878.578537 312.458737
L 947.985863 312.405458
" style="fill:none;stroke:#f45b5b;stroke-linecap:square;"/>
   </g>
   <g id="line2d_59">
    <path clip-path="url(#pa8a1ca57d4)" d="M 45.690625 156.626269
L 115.097951 230.174684
L 184.505277 243.12421
L 253.912603 263.629539
L 323.319929 265.26661
L 392.727255 277.38528
L 462.134581 289.161776
L 531.541907 296.254556
L 600.949233 299.138051
L 670.356559 300.758754
L 739.763885 306.232875
L 809.171211 308.770785
L 878.578537 313.015011
L 947.985863 313.309983
" style="fill:none;stroke:#91e8e1;stroke-linecap:square;"/>
   </g>
   <g id="line2d_60">
    <path clip-path="url(#pa8a1ca57d4)" d="M 45.690625 156.827404
L 115.097951 227.921933
L 184.505277 248.081686
L 253.912603 263.091561
L 323.319929 268.769965
L 392.727255 276.582065
L 462.134581 286.694248
L 531.541907 298.990475
L 600.949233 296.823042
L 670.356559 306.255935
L 739.763885 308.486778
L 809.171211 305.906308
L 878.578537 312.960862
L 947.985863 309.250589
" style="fill:none;stroke:#7cb5ec;stroke-linecap:square;"/>
   </g>
   <g id="line2d_61">
    <path clip-path="url(#pa8a1ca57d4)" d="M 45.690625 155.562906
L 115.097951 228.587804
L 184.505277 247.359704
L 253.912603 263.156753
L 323.319929 267.524756
L 392.727255 272.394903
L 462.134581 290.050001
L 531.541907 296.321946
L 600.949233 298.314796
L 670.356559 304.141084
L 739.763885 306.975838
L 809.171211 308.853635
L 878.578537 318.237627
L 947.985863 309.279936
" style="fill:none;stroke:#434348;stroke-linecap:square;"/>
   </g>
   <g id="line2d_62">
    <path clip-path="url(#pa8a1ca57d4)" d="M 45.690625 146.483554
L 115.097951 224.821003
L 184.505277 247.146382
L 253.912603 260.306492
L 323.319929 264.456416
L 392.727255 273.376357
L 462.134581 285.696149
L 531.541907 288.802955
L 600.949233 293.503046
L 670.356559 304.995132
L 739.763885 301.551133
L 809.171211 307.808805
L 878.578537 310.894292
L 947.985863 312.005525
" style="fill:none;stroke:#90ed7d;stroke-linecap:square;"/>
   </g>
   <g id="line2d_63">
    <path clip-path="url(#pa8a1ca57d4)" d="M 45.690625 148.836017
L 115.097951 227.378609
L 184.505277 245.667355
L 253.912603 258.186313
L 323.319929 264.567556
L 392.727255 276.37853
L 462.134581 285.315668
L 531.541907 289.6367
L 600.949233 293.193341
L 670.356559 302.636171
L 739.763885 302.802278
L 809.171211 308.086281
L 878.578537 310.558294
L 947.985863 311.903963
" style="fill:none;stroke:#f7a35c;stroke-linecap:square;"/>
   </g>
   <g id="line2d_64">
    <path clip-path="url(#pa8a1ca57d4)" d="M 45.690625 163.268486
L 115.097951 233.768133
L 184.505277 255.129024
L 253.912603 263.617395
L 323.319929 269.92727
L 392.727255 283.699313
L 462.134581 270.222102
L 531.541907 283.065786
L 600.949233 288.904739
L 670.356559 301.040443
L 739.763885 302.153689
L 809.171211 308.726603
L 878.578537 309.172599
L 947.985863 312.866736
" style="fill:none;stroke:#8085e9;stroke-linecap:square;"/>
   </g>
   <g id="line2d_65">
    <path clip-path="url(#pa8a1ca57d4)" d="M 45.690625 161.108265
L 115.097951 230.883297
L 184.505277 248.552565
L 253.912603 267.159168
L 323.319929 262.633904
L 392.727255 274.570832
L 462.134581 275.393891
L 531.541907 296.208267
L 600.949233 280.470037
L 670.356559 302.497493
L 739.763885 304.244207
L 809.171211 310.052567
L 878.578537 316.332752
L 947.985863 305.660496
" style="fill:none;stroke:#f15c80;stroke-linecap:square;"/>
   </g>
   <g id="line2d_66">
    <path clip-path="url(#pa8a1ca57d4)" d="M 45.690625 159.27485
L 115.097951 236.477481
L 184.505277 248.342494
L 253.912603 256.550261
L 323.319929 263.591272
L 392.727255 271.534252
L 462.134581 290.3633
L 531.541907 293.992269
L 600.949233 298.207724
L 670.356559 303.892273
L 739.763885 307.860759
L 809.171211 308.040028
L 878.578537 309.476925
L 947.985863 311.069351
" style="fill:none;stroke:#e4d354;stroke-linecap:square;"/>
   </g>
   <g id="line2d_67">
    <path clip-path="url(#pa8a1ca57d4)" d="M 45.690625 160.30772
L 115.097951 236.330598
L 184.505277 250.075606
L 253.912603 257.409814
L 323.319929 263.567336
L 392.727255 272.758403
L 462.134581 289.345771
L 531.541907 293.319769
L 600.949233 297.855259
L 670.356559 305.313586
L 739.763885 306.744414
L 809.171211 308.557916
L 878.578537 308.795656
L 947.985863 310.272709
" style="fill:none;stroke:#2b908f;stroke-linecap:square;"/>
   </g>
   <g id="line2d_68">
    <path clip-path="url(#pa8a1ca57d4)" d="M 45.690625 160.367408
L 115.097951 236.981408
L 184.505277 250.824638
L 253.912603 257.334659
L 323.319929 267.629515
L 392.727255 275.402547
L 462.134581 285.738235
L 531.541907 292.246795
L 600.949233 297.486091
L 670.356559 304.855465
L 739.763885 309.626139
L 809.171211 308.768795
L 878.578537 314.418056
L 947.985863 313.348073
" style="fill:none;stroke:#f45b5b;stroke-linecap:square;"/>
   </g>
   <g id="line2d_69">
    <path clip-path="url(#pa8a1ca57d4)" d="M 45.690625 159.593436
L 115.097951 234.069416
L 184.505277 250.23505
L 253.912603 258.095626
L 323.319929 266.759427
L 392.727255 274.643545
L 462.134581 285.439203
L 531.541907 293.061014
L 600.949233 298.050359
L 670.356559 305.20562
L 739.763885 309.089276
L 809.171211 307.33872
L 878.578537 313.89835
L 947.985863 313.883291
" style="fill:none;stroke:#91e8e1;stroke-linecap:square;"/>
   </g>
   <g id="line2d_70">
    <path clip-path="url(#pa8a1ca57d4)" d="M 45.690625 180.175309
L 115.097951 223.711621
L 184.505277 239.975761
L 253.912603 232.833513
L 323.319929 262.191208
L 392.727255 264.277797
L 462.134581 272.132055
L 531.541907 281.716674
L 600.949233 290.822768
L 670.356559 291.470003
L 739.763885 304.179647
L 809.171211 303.149068
L 878.578537 308.06003
L 947.985863 310.674694
" style="fill:none;stroke:#7cb5ec;stroke-linecap:square;"/>
   </g>
   <g id="line2d_71">
    <path clip-path="url(#pa8a1ca57d4)" d="M 45.690625 180.887123
L 115.097951 223.928384
L 184.505277 239.198114
L 253.912603 233.876194
L 323.319929 259.879174
L 392.727255 264.495311
L 462.134581 271.99557
L 531.541907 279.758194
L 600.949233 292.033139
L 670.356559 296.720876
L 739.763885 305.478356
L 809.171211 304.500875
L 878.578537 307.500823
L 947.985863 311.030815
" style="fill:none;stroke:#434348;stroke-linecap:square;"/>
   </g>
   <g id="line2d_72">
    <path clip-path="url(#pa8a1ca57d4)" d="M 45.690625 216.413338
L 115.097951 279.346197
L 184.505277 214.703206
L 253.912603 257.897831
L 323.319929 149.423339
L 392.727255 302.27376
L 462.134581 300.454112
L 531.541907 305.560866
L 600.949233 353.2239
L 670.356559 353.2239
L 739.763885 236.574895
L 809.171211 245.110188
L 878.578537 353.2239
L 947.985863 305.560866
" style="fill:none;stroke:#90ed7d;stroke-linecap:square;"/>
   </g>
   <g id="line2d_73">
    <path clip-path="url(#pa8a1ca57d4)" d="M 45.690625 163.252663
L 115.097951 296.394897
L 184.505277 189.051226
L 253.912603 279.346197
L 323.319929 205.468493
L 392.727255 298.499675
L 462.134581 242.407345
L 531.541907 290.349259
L 600.949233 256.861678
L 670.356559 353.2239
L 739.763885 295.280603
L 809.171211 262.761406
L 878.578537 286.062351
L 947.985863 262.761406
" style="fill:none;stroke:#f7a35c;stroke-linecap:square;"/>
   </g>
   <g id="line2d_74">
    <path clip-path="url(#pa8a1ca57d4)" d="M 45.690625 181.337021
L 115.097951 223.854515
L 184.505277 242.68986
L 253.912603 227.488729
L 323.319929 263.490311
L 392.727255 266.60499
L 462.134581 272.501297
L 531.541907 285.022628
L 600.949233 291.333741
L 670.356559 298.618641
L 739.763885 306.076642
L 809.171211 309.556081
L 878.578537 308.464689
L 947.985863 315.653958
" style="fill:none;stroke:#8085e9;stroke-linecap:square;"/>
   </g>
   <g id="line2d_75">
    <path clip-path="url(#pa8a1ca57d4)" d="M 45.690625 181.561709
L 115.097951 224.564288
L 184.505277 245.67625
L 253.912603 228.758832
L 323.319929 266.343486
L 392.727255 265.520932
L 462.134581 275.57309
L 531.541907 285.096053
L 600.949233 293.364744
L 670.356559 298.763955
L 739.763885 304.897668
L 809.171211 310.810075
L 878.578537 307.469333
L 947.985863 313.645055
" style="fill:none;stroke:#f15c80;stroke-linecap:square;"/>
   </g>
   <g id="line2d_76">
    <path clip-path="url(#pa8a1ca57d4)" d="M 45.690625 57.713086
L 115.097951 239.565895
L 184.505277 254.720295
L 253.912603 282.864182
L 323.319929 353.2239
L 392.727255 353.2239
L 462.134581 353.2239
L 531.541907 353.2239
L 600.949233 106.964888
L 670.356559 266.308955
L 739.763885 353.2239
L 809.171211 353.2239
L 878.578537 353.2239
L 947.985863 353.2239
" style="fill:none;stroke:#e4d354;stroke-linecap:square;"/>
   </g>
   <g id="line2d_77">
    <path clip-path="url(#pa8a1ca57d4)" d="M 45.690625 76.182512
L 115.097951 156.216691
L 184.505277 254.720295
L 253.912603 142.144747
L 323.319929 266.308955
L 392.727255 254.720295
L 462.134581 205.468493
L 531.541907 353.2239
L 600.949233 230.094394
L 670.356559 353.2239
L 739.763885 353.2239
L 809.171211 260.876771
L 878.578537 353.2239
L 947.985863 353.2239
" style="fill:none;stroke:#2b908f;stroke-linecap:square;"/>
   </g>
   <g id="line2d_78">
    <path clip-path="url(#pa8a1ca57d4)" d="M 45.690625 179.566283
L 115.097951 220.938099
L 184.505277 237.334248
L 253.912603 233.704865
L 323.319929 268.067825
L 392.727255 269.03768
L 462.134581 265.428655
L 531.541907 287.531446
L 600.949233 291.570565
L 670.356559 298.402474
L 739.763885 299.391772
L 809.171211 304.031366
L 878.578537 309.627336
L 947.985863 310.211384
" style="fill:none;stroke:#f45b5b;stroke-linecap:square;"/>
   </g>
   <g id="line2d_79">
    <path clip-path="url(#pa8a1ca57d4)" d="M 45.690625 179.451979
L 115.097951 219.850222
L 184.505277 240.809841
L 253.912603 236.264041
L 323.319929 264.899468
L 392.727255 265.763146
L 462.134581 264.003649
L 531.541907 284.250476
L 600.949233 288.857012
L 670.356559 298.16798
L 739.763885 300.605076
L 809.171211 304.134256
L 878.578537 308.647651
L 947.985863 312.5627
" style="fill:none;stroke:#91e8e1;stroke-linecap:square;"/>
   </g>
   <g id="line2d_80">
    <path clip-path="url(#pa8a1ca57d4)" d="M 45.690625 163.507743
L 115.097951 267.348963
L 184.505277 292.350886
L 253.912603 291.547414
L 323.319929 307.526351
L 392.727255 294.864493
L 462.134581 302.18996
L 531.541907 327.797539
L 600.949233 324.957648
L 670.356559 318.299895
L 739.763885 324.148596
L 809.171211 320.722711
L 878.578537 316.152651
L 947.985863 325.999286
" style="fill:none;stroke:#7cb5ec;stroke-linecap:square;"/>
   </g>
   <g id="line2d_81">
    <path clip-path="url(#pa8a1ca57d4)" d="M 45.690625 174.860443
L 115.097951 265.868507
L 184.505277 281.95042
L 253.912603 292.321134
L 323.319929 307.68285
L 392.727255 293.18195
L 462.134581 295.843159
L 531.541907 325.026303
L 600.949233 332.486299
L 670.356559 320.986357
L 739.763885 329.64591
L 809.171211 320.556888
L 878.578537 318.552054
L 947.985863 325.769348
" style="fill:none;stroke:#434348;stroke-linecap:square;"/>
   </g>
   <g id="line2d_82">
    <path clip-path="url(#pa8a1ca57d4)" d="M 45.690625 191.863606
L 115.097951 244.193193
L 184.505277 276.986466
L 253.912603 305.442301
L 323.319929 310.907316
L 392.727255 303.258303
L 462.134581 312.284115
L 531.541907 323.137957
L 600.949233 319.213704
L 670.356559 320.550714
L 739.763885 294.415778
L 809.171211 321.712083
L 878.578537 314.945297
L 947.985863 321.486462
" style="fill:none;stroke:#90ed7d;stroke-linecap:square;"/>
   </g>
   <g id="line2d_83">
    <path clip-path="url(#pa8a1ca57d4)" d="M 45.690625 191.211392
L 115.097951 248.239795
L 184.505277 272.961704
L 253.912603 311.655883
L 323.319929 305.203393
L 392.727255 291.049595
L 462.134581 315.14261
L 531.541907 322.153838
L 600.949233 314.945297
L 670.356559 330.780041
L 739.763885 289.1463
L 809.171211 321.712083
L 878.578537 317.667786
L 947.985863 324.877539
" style="fill:none;stroke:#f7a35c;stroke-linecap:square;"/>
   </g>
   <g id="line2d_84">
    <path clip-path="url(#pa8a1ca57d4)" d="M 45.690625 272.262033
L 115.097951 259.410943
L 184.505277 310.396246
L 253.912603 287.064763
L 323.319929 278.411036
L 392.727255 332.413279
L 462.134581 276.79869
L 531.541907 330.137118
L 600.949233 353.2239
L 670.356559 307.760698
L 739.763885 327.301899
L 809.171211 331.170854
L 878.578537 328.180611
L 947.985863 328.180611
" style="fill:none;stroke:#8085e9;stroke-linecap:square;"/>
   </g>
   <g id="line2d_85">
    <path clip-path="url(#pa8a1ca57d4)" d="M 45.690625 226.576408
L 115.097951 267.568592
L 184.505277 302.27376
L 253.912603 184.360578
L 323.319929 307.050335
L 392.727255 353.2239
L 462.134581 259.410943
L 531.541907 331.495164
L 600.949233 353.2239
L 670.356559 329.392383
L 739.763885 312.180731
L 809.171211 330.492299
L 878.578537 316.285048
L 947.985863 303.972098
" style="fill:none;stroke:#f15c80;stroke-linecap:square;"/>
   </g>
   <g id="line2d_86">
    <path clip-path="url(#pa8a1ca57d4)" d="M 45.690625 238.621368
L 115.097951 272.716146
L 184.505277 314.340898
L 253.912603 319.751801
L 323.319929 323.672819
L 392.727255 330.97158
L 462.134581 280.794779
L 531.541907 310.550858
L 600.949233 323.157393
L 670.356559 300.963145
L 739.763885 335.528642
L 809.171211 333.189269
L 878.578537 324.990383
L 947.985863 317.075788
" style="fill:none;stroke:#e4d354;stroke-linecap:square;"/>
   </g>
   <g id="line2d_87">
    <path clip-path="url(#pa8a1ca57d4)" d="M 45.690625 235.18239
L 115.097951 286.923397
L 184.505277 314.468383
L 253.912603 305.095103
L 323.319929 319.312823
L 392.727255 335.581463
L 462.134581 286.279703
L 531.541907 306.400003
L 600.949233 319.25714
L 670.356559 301.462452
L 739.763885 335.738053
L 809.171211 333.523179
L 878.578537 325.345521
L 947.985863 316.964904
" style="fill:none;stroke:#2b908f;stroke-linecap:square;"/>
   </g>
   <g id="line2d_88">
    <path clip-path="url(#pa8a1ca57d4)" d="M 45.690625 220.905625
L 115.097951 353.2239
L 184.505277 271.137563
L 253.912603 286.062351
L 323.319929 262.761406
L 392.727255 318.862177
L 462.134581 314.340898
L 531.541907 324.252252
L 600.949233 353.2239
L 670.356559 307.050335
L 739.763885 353.2239
L 809.171211 292.915571
L 878.578537 287.55483
L 947.985863 300.454112
" style="fill:none;stroke:#f45b5b;stroke-linecap:square;"/>
   </g>
   <g id="line2d_89">
    <path clip-path="url(#pa8a1ca57d4)" d="M 45.690625 220.905625
L 115.097951 200.373479
L 184.505277 316.285048
L 253.912603 296.394897
L 323.319929 291.659147
L 392.727255 353.2239
L 462.134581 353.2239
L 531.541907 353.2239
L 600.949233 353.2239
L 670.356559 353.2239
L 739.763885 353.2239
L 809.171211 323.069735
L 878.578537 353.2239
L 947.985863 300.454112
" style="fill:none;stroke:#91e8e1;stroke-linecap:square;"/>
   </g>
   <g id="line2d_90">
    <path clip-path="url(#pa8a1ca57d4)" d="M 45.690625 172.708244
L 115.097951 247.101232
L 184.505277 283.234497
L 253.912603 288.631372
L 323.319929 304.779504
L 392.727255 307.526351
L 462.134581 337.670699
L 531.541907 338.299111
L 600.949233 306.564298
L 670.356559 337.912459
L 739.763885 316.830943
L 809.171211 328.734054
L 878.578537 345.945309
L 947.985863 344.683125
" style="fill:none;stroke:#7cb5ec;stroke-linecap:square;"/>
   </g>
   <g id="line2d_91">
    <path clip-path="url(#pa8a1ca57d4)" d="M 45.690625 180.953022
L 115.097951 239.565895
L 184.505277 272.763035
L 253.912603 288.276468
L 323.319929 300.454112
L 392.727255 330.608276
L 462.134581 329.001702
L 531.541907 338.37411
L 600.949233 264.409175
L 670.356559 332.796885
L 739.763885 323.524321
L 809.171211 336.337568
L 878.578537 332.413279
L 947.985863 320.205932
" style="fill:none;stroke:#434348;stroke-linecap:square;"/>
   </g>
   <g id="line2d_92">
    <path clip-path="url(#pa8a1ca57d4)" d="M 45.690625 161.689113
L 115.097951 185.320029
L 184.505277 242.407345
L 253.912603 252.481577
L 323.319929 321.103159
L 392.727255 353.2239
L 462.134581 212.504465
L 531.541907 318.044041
L 600.949233 326.839006
L 670.356559 353.2239
L 739.763885 353.2239
L 809.171211 353.2239
L 878.578537 326.839006
L 947.985863 353.2239
" style="fill:none;stroke:#90ed7d;stroke-linecap:square;"/>
   </g>
   <g id="line2d_93">
    <path clip-path="url(#pa8a1ca57d4)" d="M 45.690625 168.529641
L 115.097951 218.900803
L 184.505277 241.710385
L 253.912603 274.069218
L 323.319929 327.74883
L 392.727255 326.359281
L 462.134581 274.069218
L 531.541907 353.2239
L 600.949233 326.839006
L 670.356559 314.340898
L 739.763885 353.2239
L 809.171211 353.2239
L 878.578537 353.2239
L 947.985863 318.044041
" style="fill:none;stroke:#f7a35c;stroke-linecap:square;"/>
   </g>
   <g id="line2d_94">
    <path clip-path="url(#pa8a1ca57d4)" d="M 45.690625 136.838932
L 115.097951 248.566529
L 184.505277 269.66961
L 253.912603 292.387245
L 323.319929 280.941616
L 392.727255 301.830715
L 462.134581 307.14633
L 531.541907 305.139577
L 600.949233 318.890194
L 670.356559 322.887645
L 739.763885 317.393366
L 809.171211 314.795966
L 878.578537 323.561585
L 947.985863 330.118116
" style="fill:none;stroke:#8085e9;stroke-linecap:square;"/>
   </g>
   <g id="line2d_95">
    <path clip-path="url(#pa8a1ca57d4)" d="M 45.690625 132.821193
L 115.097951 241.336422
L 184.505277 270.183071
L 253.912603 290.801102
L 323.319929 282.710155
L 392.727255 304.874618
L 462.134581 301.997088
L 531.541907 304.798867
L 600.949233 320.162275
L 670.356559 327.250117
L 739.763885 318.117363
L 809.171211 320.658966
L 878.578537 325.427105
L 947.985863 330.372026
" style="fill:none;stroke:#f15c80;stroke-linecap:square;"/>
   </g>
   <g id="line2d_96">
    <path clip-path="url(#pa8a1ca57d4)" d="M 45.690625 139.154573
L 115.097951 262.580046
L 184.505277 270.903889
L 253.912603 273.53075
L 323.319929 285.497969
L 392.727255 298.374017
L 462.134581 301.426739
L 531.541907 294.371729
L 600.949233 309.506203
L 670.356559 315.069868
L 739.763885 317.004117
L 809.171211 320.893542
L 878.578537 322.870625
L 947.985863 328.035274
" style="fill:none;stroke:#e4d354;stroke-linecap:square;"/>
   </g>
   <g id="line2d_97">
    <path clip-path="url(#pa8a1ca57d4)" d="M 45.690625 140.391934
L 115.097951 259.123344
L 184.505277 270.903889
L 253.912603 275.457896
L 323.319929 286.765477
L 392.727255 293.870627
L 462.134581 300.282223
L 531.541907 290.851096
L 600.949233 312.799762
L 670.356559 311.860763
L 739.763885 320.377399
L 809.171211 321.273755
L 878.578537 325.701892
L 947.985863 327.44324
" style="fill:none;stroke:#2b908f;stroke-linecap:square;"/>
   </g>
   <g id="line2d_98">
    <path clip-path="url(#pa8a1ca57d4)" d="M 45.690625 146.800905
L 115.097951 266.843816
L 184.505277 246.994522
L 253.912603 282.301305
L 323.319929 288.418897
L 392.727255 280.482777
L 462.134581 311.247932
L 531.541907 278.305666
L 600.949233 299.268274
L 670.356559 305.688648
L 739.763885 315.120786
L 809.171211 322.257198
L 878.578537 321.952914
L 947.985863 333.038735
" style="fill:none;stroke:#f45b5b;stroke-linecap:square;"/>
   </g>
   <g id="line2d_99">
    <path clip-path="url(#pa8a1ca57d4)" d="M 45.690625 164.312877
L 115.097951 273.985985
L 184.505277 272.97336
L 253.912603 281.864755
L 323.319929 292.915571
L 392.727255 271.376882
L 462.134581 281.661452
L 531.541907 320.144331
L 600.949233 308.816537
L 670.356559 294.954162
L 739.763885 321.103159
L 809.171211 328.93534
L 878.578537 336.575403
L 947.985863 328.734054
" style="fill:none;stroke:#91e8e1;stroke-linecap:square;"/>
   </g>
   <g id="line2d_100">
    <path clip-path="url(#pa8a1ca57d4)" d="M 45.690625 160.432931
L 115.097951 256.561484
L 184.505277 273.529814
L 253.912603 279.647738
L 323.319929 282.001421
L 392.727255 295.55437
L 462.134581 296.837491
L 531.541907 302.650287
L 600.949233 313.92119
L 670.356559 321.017177
L 739.763885 321.922245
L 809.171211 319.776489
L 878.578537 328.578439
L 947.985863 329.059673
" style="fill:none;stroke:#7cb5ec;stroke-linecap:square;"/>
   </g>
   <g id="line2d_101">
    <path clip-path="url(#pa8a1ca57d4)" d="M 45.690625 157.739942
L 115.097951 256.919037
L 184.505277 271.566212
L 253.912603 277.728437
L 323.319929 283.604188
L 392.727255 295.837295
L 462.134581 299.619082
L 531.541907 303.437996
L 600.949233 313.565624
L 670.356559 320.364612
L 739.763885 321.028169
L 809.171211 321.065026
L 878.578537 323.9306
L 947.985863 329.6208
" style="fill:none;stroke:#434348;stroke-linecap:square;"/>
   </g>
   <g id="line2d_102">
    <path clip-path="url(#pa8a1ca57d4)" d="M 45.690625 139.654138
L 115.097951 257.755695
L 184.505277 263.675169
L 253.912603 274.210313
L 323.319929 300.074473
L 392.727255 293.797594
L 462.134581 305.056939
L 531.541907 294.706907
L 600.949233 312.759764
L 670.356559 317.528029
L 739.763885 322.41478
L 809.171211 326.696897
L 878.578537 326.839006
L 947.985863 329.64591
" style="fill:none;stroke:#90ed7d;stroke-linecap:square;"/>
   </g>
   <g id="line2d_103">
    <path clip-path="url(#pa8a1ca57d4)" d="M 45.690625 164.960031
L 115.097951 254.332486
L 184.505277 270.01922
L 253.912603 276.077272
L 323.319929 295.557002
L 392.727255 288.454407
L 462.134581 300.409201
L 531.541907 303.378702
L 600.949233 324.092313
L 670.356559 319.032566
L 739.763885 326.058637
L 809.171211 326.148302
L 878.578537 322.361152
L 947.985863 327.770772
" style="fill:none;stroke:#f7a35c;stroke-linecap:square;"/>
   </g>
   <g id="line2d_104">
    <path clip-path="url(#pa8a1ca57d4)" d="M 45.690625 151.151407
L 115.097951 256.561484
L 184.505277 263.898085
L 253.912603 272.099405
L 323.319929 282.910365
L 392.727255 301.388558
L 462.134581 304.285803
L 531.541907 304.96435
L 600.949233 320.090869
L 670.356559 316.560027
L 739.763885 316.574992
L 809.171211 320.251316
L 878.578537 318.343935
L 947.985863 330.433863
" style="fill:none;stroke:#8085e9;stroke-linecap:square;"/>
   </g>
   <g id="line2d_105">
    <path clip-path="url(#pa8a1ca57d4)" d="M 45.690625 153.510989
L 115.097951 257.881384
L 184.505277 261.56814
L 253.912603 271.382597
L 323.319929 280.581124
L 392.727255 299.575201
L 462.134581 302.208606
L 531.541907 303.474605
L 600.949233 318.215025
L 670.356559 316.560027
L 739.763885 315.361577
L 809.171211 320.219293
L 878.578537 316.35781
L 947.985863 329.453725
" style="fill:none;stroke:#f15c80;stroke-linecap:square;"/>
   </g>
   <g id="line2d_106">
    <path clip-path="url(#pa8a1ca57d4)" d="M 45.690625 166.631169
L 115.097951 255.249885
L 184.505277 271.916371
L 253.912603 281.082924
L 323.319929 285.109705
L 392.727255 291.120051
L 462.134581 285.708248
L 531.541907 293.120006
L 600.949233 316.684696
L 670.356559 314.212571
L 739.763885 310.936999
L 809.171211 319.93412
L 878.578537 320.886858
L 947.985863 328.222985
" style="fill:none;stroke:#e4d354;stroke-linecap:square;"/>
   </g>
   <g id="line2d_107">
    <path clip-path="url(#pa8a1ca57d4)" d="M 45.690625 149.572753
L 115.097951 250.197171
L 184.505277 264.013088
L 253.912603 272.123162
L 323.319929 294.121737
L 392.727255 305.900104
L 462.134581 303.641549
L 531.541907 311.79715
L 600.949233 313.424464
L 670.356559 317.620187
L 739.763885 313.95336
L 809.171211 335.452631
L 878.578537 309.156498
L 947.985863 340.807479
" style="fill:none;stroke:#2b908f;stroke-linecap:square;"/>
   </g>
   <g id="line2d_108">
    <path clip-path="url(#pa8a1ca57d4)" d="M 45.690625 128.331797
L 115.097951 253.325554
L 184.505277 249.85592
L 253.912603 277.480044
L 323.319929 284.295562
L 392.727255 288.87139
L 462.134581 292.956569
L 531.541907 298.517294
L 600.949233 311.989833
L 670.356559 316.847447
L 739.763885 315.911929
L 809.171211 329.811056
L 878.578537 329.762565
L 947.985863 326.421303
" style="fill:none;stroke:#f45b5b;stroke-linecap:square;"/>
   </g>
   <g id="line2d_109">
    <path clip-path="url(#pa8a1ca57d4)" d="M 45.690625 121.954567
L 115.097951 251.700629
L 184.505277 255.087846
L 253.912603 273.356112
L 323.319929 277.690674
L 392.727255 293.426658
L 462.134581 294.081641
L 531.541907 298.902059
L 600.949233 310.743
L 670.356559 317.360937
L 739.763885 314.457121
L 809.171211 330.75936
L 878.578537 328.197924
L 947.985863 326.769019
" style="fill:none;stroke:#91e8e1;stroke-linecap:square;"/>
   </g>
   <g id="line2d_110">
    <path clip-path="url(#pa8a1ca57d4)" d="M 45.690625 137.500127
L 115.097951 241.394396
L 184.505277 262.189763
L 253.912603 275.515098
L 323.319929 296.232529
L 392.727255 289.143598
L 462.134581 298.075755
L 531.541907 309.169524
L 600.949233 313.31697
L 670.356559 310.374328
L 739.763885 315.507791
L 809.171211 322.167366
L 878.578537 319.445009
L 947.985863 325.149333
" style="fill:none;stroke:#7cb5ec;stroke-linecap:square;"/>
   </g>
   <g id="line2d_111">
    <path clip-path="url(#pa8a1ca57d4)" d="M 45.690625 134.294173
L 115.097951 242.622106
L 184.505277 260.402447
L 253.912603 274.421016
L 323.319929 293.173574
L 392.727255 289.673187
L 462.134581 296.034967
L 531.541907 309.147711
L 600.949233 312.152906
L 670.356559 308.327242
L 739.763885 315.65036
L 809.171211 321.97496
L 878.578537 319.928444
L 947.985863 326.709031
" style="fill:none;stroke:#434348;stroke-linecap:square;"/>
   </g>
   <g id="line2d_112">
    <path clip-path="url(#pa8a1ca57d4)" d="M 45.690625 132.124478
L 115.097951 252.371114
L 184.505277 271.803791
L 253.912603 279.757608
L 323.319929 297.106695
L 392.727255 291.31521
L 462.134581 305.187477
L 531.541907 301.568696
L 600.949233 319.27633
L 670.356559 319.156086
L 739.763885 313.585008
L 809.171211 327.598209
L 878.578537 321.346984
L 947.985863 328.199461
" style="fill:none;stroke:#90ed7d;stroke-linecap:square;"/>
   </g>
   <g id="line2d_113">
    <path clip-path="url(#pa8a1ca57d4)" d="M 45.690625 138.02613
L 115.097951 250.574046
L 184.505277 262.102793
L 253.912603 279.521678
L 323.319929 293.530716
L 392.727255 295.672112
L 462.134581 302.568156
L 531.541907 306.265419
L 600.949233 317.806874
L 670.356559 317.925856
L 739.763885 317.256742
L 809.171211 324.990383
L 878.578537 322.242928
L 947.985863 325.913395
" style="fill:none;stroke:#f7a35c;stroke-linecap:square;"/>
   </g>
   <g id="line2d_114">
    <path clip-path="url(#pa8a1ca57d4)" d="M 45.690625 146.286472
L 115.097951 246.393938
L 184.505277 264.279858
L 253.912603 284.627276
L 323.319929 286.675855
L 392.727255 297.099679
L 462.134581 303.567559
L 531.541907 311.6091
L 600.949233 318.391469
L 670.356559 318.779091
L 739.763885 324.277318
L 809.171211 321.973958
L 878.578537 325.338411
L 947.985863 325.400501
" style="fill:none;stroke:#8085e9;stroke-linecap:square;"/>
   </g>
   <g id="line2d_115">
    <path clip-path="url(#pa8a1ca57d4)" d="M 45.690625 146.775414
L 115.097951 246.763434
L 184.505277 262.183599
L 253.912603 283.491907
L 323.319929 286.419594
L 392.727255 296.772179
L 462.134581 304.41636
L 531.541907 312.16806
L 600.949233 315.678952
L 670.356559 318.565224
L 739.763885 323.080988
L 809.171211 323.652033
L 878.578537 325.145302
L 947.985863 326.042304
" style="fill:none;stroke:#f15c80;stroke-linecap:square;"/>
   </g>
   <g id="line2d_116">
    <path clip-path="url(#pa8a1ca57d4)" d="M 45.690625 147.966591
L 115.097951 242.597146
L 184.505277 264.599713
L 253.912603 276.156611
L 323.319929 281.922418
L 392.727255 290.72338
L 462.134581 301.566036
L 531.541907 304.119411
L 600.949233 314.520635
L 670.356559 320.271613
L 739.763885 316.893335
L 809.171211 327.244549
L 878.578537 327.957811
L 947.985863 325.259181
" style="fill:none;stroke:#e4d354;stroke-linecap:square;"/>
   </g>
   <g id="line2d_117">
    <path clip-path="url(#pa8a1ca57d4)" d="M 45.690625 150.011582
L 115.097951 240.697919
L 184.505277 264.125162
L 253.912603 281.757124
L 323.319929 282.815117
L 392.727255 289.802814
L 462.134581 302.363545
L 531.541907 302.228671
L 600.949233 314.327941
L 670.356559 320.761105
L 739.763885 315.081652
L 809.171211 327.232901
L 878.578537 327.064935
L 947.985863 324.030564
" style="fill:none;stroke:#2b908f;stroke-linecap:square;"/>
   </g>
   <g id="line2d_118">
    <path clip-path="url(#pa8a1ca57d4)" d="M 45.690625 133.48509
L 115.097951 245.069604
L 184.505277 249.170797
L 253.912603 283.77365
L 323.319929 289.59717
L 392.727255 273.705971
L 462.134581 310.221744
L 531.541907 312.912876
L 600.949233 306.370543
L 670.356559 297.652176
L 739.763885 314.385336
L 809.171211 329.142693
L 878.578537 325.734522
L 947.985863 331.445892
" style="fill:none;stroke:#f45b5b;stroke-linecap:square;"/>
   </g>
   <g id="line2d_119">
    <path clip-path="url(#pa8a1ca57d4)" d="M 45.690625 158.101927
L 115.097951 236.66511
L 184.505277 263.004585
L 253.912603 277.32768
L 323.319929 284.259883
L 392.727255 298.181141
L 462.134581 300.086805
L 531.541907 306.197025
L 600.949233 306.76936
L 670.356559 317.601527
L 739.763885 325.529943
L 809.171211 322.932359
L 878.578537 338.146818
L 947.985863 330.085469
" style="fill:none;stroke:#91e8e1;stroke-linecap:square;"/>
   </g>
   <g id="line2d_120">
    <path clip-path="url(#pa8a1ca57d4)" d="M 45.690625 146.6747
L 115.097951 250.292765
L 184.505277 265.144775
L 253.912603 274.621703
L 323.319929 284.767098
L 392.727255 294.78573
L 462.134581 305.716803
L 531.541907 308.78378
L 600.949233 314.492059
L 670.356559 316.134576
L 739.763885 321.661965
L 809.171211 322.451976
L 878.578537 328.680914
L 947.985863 327.145533
" style="fill:none;stroke:#7cb5ec;stroke-linecap:square;"/>
   </g>
   <g id="line2d_121">
    <path clip-path="url(#pa8a1ca57d4)" d="M 45.690625 143.552356
L 115.097951 244.000926
L 184.505277 264.407233
L 253.912603 273.437316
L 323.319929 286.146408
L 392.727255 293.5213
L 462.134581 302.903693
L 531.541907 308.812609
L 600.949233 313.938615
L 670.356559 313.922066
L 739.763885 320.739475
L 809.171211 323.796547
L 878.578537 326.314256
L 947.985863 327.492885
" style="fill:none;stroke:#434348;stroke-linecap:square;"/>
   </g>
   <g id="line2d_122">
    <path clip-path="url(#pa8a1ca57d4)" d="M 45.690625 166.426062
L 115.097951 234.410274
L 184.505277 262.478166
L 253.912603 276.053597
L 323.319929 291.829687
L 392.727255 291.617066
L 462.134581 315.54678
L 531.541907 314.391993
L 600.949233 313.342585
L 670.356559 327.423762
L 739.763885 317.138421
L 809.171211 327.731249
L 878.578537 332.301017
L 947.985863 326.638152
" style="fill:none;stroke:#90ed7d;stroke-linecap:square;"/>
   </g>
   <g id="line2d_123">
    <path clip-path="url(#pa8a1ca57d4)" d="M 45.690625 150.489737
L 115.097951 245.837736
L 184.505277 265.21262
L 253.912603 263.85571
L 323.319929 279.972687
L 392.727255 300.27903
L 462.134581 304.701519
L 531.541907 311.522566
L 600.949233 323.855108
L 670.356559 325.239921
L 739.763885 314.095734
L 809.171211 325.653783
L 878.578537 332.187537
L 947.985863 335.493251
" style="fill:none;stroke:#f7a35c;stroke-linecap:square;"/>
   </g>
   <g id="line2d_124">
    <path clip-path="url(#pa8a1ca57d4)" d="M 45.690625 143.796384
L 115.097951 249.293024
L 184.505277 270.591583
L 253.912603 279.251116
L 323.319929 278.439722
L 392.727255 286.664003
L 462.134581 299.716073
L 531.541907 303.758578
L 600.949233 308.438456
L 670.356559 318.980783
L 739.763885 319.932544
L 809.171211 324.263242
L 878.578537 328.021221
L 947.985863 331.080461
" style="fill:none;stroke:#8085e9;stroke-linecap:square;"/>
   </g>
   <g id="line2d_125">
    <path clip-path="url(#pa8a1ca57d4)" d="M 45.690625 139.713983
L 115.097951 247.213821
L 184.505277 272.388743
L 253.912603 277.466575
L 323.319929 280.320738
L 392.727255 287.865461
L 462.134581 297.722054
L 531.541907 303.936382
L 600.949233 307.514997
L 670.356559 319.28009
L 739.763885 320.243596
L 809.171211 323.922904
L 878.578537 328.613654
L 947.985863 330.46604
" style="fill:none;stroke:#f15c80;stroke-linecap:square;"/>
   </g>
   <g id="line2d_126">
    <path clip-path="url(#pa8a1ca57d4)" d="M 45.690625 154.428218
L 115.097951 240.182113
L 184.505277 285.300519
L 253.912603 274.184436
L 323.319929 276.19894
L 392.727255 281.22791
L 462.134581 300.674906
L 531.541907 309.336155
L 600.949233 316.152651
L 670.356559 319.942169
L 739.763885 318.934671
L 809.171211 330.417112
L 878.578537 315.652044
L 947.985863 332.876227
" style="fill:none;stroke:#e4d354;stroke-linecap:square;"/>
   </g>
   <g id="line2d_127">
    <path clip-path="url(#pa8a1ca57d4)" d="M 45.690625 141.650879
L 115.097951 248.233056
L 184.505277 274.475139
L 253.912603 285.076752
L 323.319929 290.715002
L 392.727255 285.638619
L 462.134581 304.530048
L 531.541907 308.084774
L 600.949233 317.372046
L 670.356559 311.46853
L 739.763885 317.350053
L 809.171211 325.450327
L 878.578537 319.660462
L 947.985863 333.964853
" style="fill:none;stroke:#2b908f;stroke-linecap:square;"/>
   </g>
   <g id="line2d_128">
    <path clip-path="url(#pa8a1ca57d4)" d="M 45.690625 146.013692
L 115.097951 239.618067
L 184.505277 263.754136
L 253.912603 277.381707
L 323.319929 285.453592
L 392.727255 298.319186
L 462.134581 302.622733
L 531.541907 309.995553
L 600.949233 313.63125
L 670.356559 315.743581
L 739.763885 319.475454
L 809.171211 320.973456
L 878.578537 323.571334
L 947.985863 326.762148
" style="fill:none;stroke:#f45b5b;stroke-linecap:square;"/>
   </g>
   <g id="line2d_129">
    <path clip-path="url(#pa8a1ca57d4)" d="M 45.690625 145.60703
L 115.097951 238.078805
L 184.505277 262.930851
L 253.912603 275.770821
L 323.319929 284.511735
L 392.727255 296.338798
L 462.134581 302.733658
L 531.541907 309.316464
L 600.949233 313.814117
L 670.356559 314.283968
L 739.763885 319.589545
L 809.171211 321.222021
L 878.578537 324.570621
L 947.985863 326.068852
" style="fill:none;stroke:#91e8e1;stroke-linecap:square;"/>
   </g>
   <g id="line2d_130">
    <path clip-path="url(#pa8a1ca57d4)" d="M 45.690625 147.204637
L 115.097951 243.263818
L 184.505277 256.225863
L 253.912603 277.705627
L 323.319929 284.962121
L 392.727255 296.259655
L 462.134581 306.900212
L 531.541907 310.534261
L 600.949233 316.225647
L 670.356559 319.353992
L 739.763885 319.198475
L 809.171211 322.897426
L 878.578537 324.546632
L 947.985863 326.757206
" style="fill:none;stroke:#7cb5ec;stroke-linecap:square;"/>
   </g>
   <g id="line2d_131">
    <path clip-path="url(#pa8a1ca57d4)" d="M 45.690625 144.345322
L 115.097951 237.862089
L 184.505277 253.673695
L 253.912603 276.539621
L 323.319929 284.359974
L 392.727255 297.682024
L 462.134581 306.848611
L 531.541907 311.078351
L 600.949233 316.759928
L 670.356559 319.470993
L 739.763885 320.438187
L 809.171211 322.725116
L 878.578537 325.687665
L 947.985863 325.478774
" style="fill:none;stroke:#434348;stroke-linecap:square;"/>
   </g>
   <g id="line2d_132">
    <path clip-path="url(#pa8a1ca57d4)" d="M 45.690625 158.900631
L 115.097951 250.920955
L 184.505277 266.849471
L 253.912603 280.445454
L 323.319929 292.010946
L 392.727255 301.574384
L 462.134581 305.118627
L 531.541907 310.952541
L 600.949233 314.960548
L 670.356559 317.338344
L 739.763885 322.792026
L 809.171211 320.644563
L 878.578537 323.73055
L 947.985863 319.231842
" style="fill:none;stroke:#90ed7d;stroke-linecap:square;"/>
   </g>
   <g id="line2d_133">
    <path clip-path="url(#pa8a1ca57d4)" d="M 45.690625 153.294531
L 115.097951 253.163229
L 184.505277 268.287292
L 253.912603 277.765217
L 323.319929 292.753723
L 392.727255 302.347765
L 462.134581 307.635591
L 531.541907 310.952858
L 600.949233 316.32195
L 670.356559 317.336807
L 739.763885 322.705585
L 809.171211 319.301416
L 878.578537 321.337814
L 947.985863 320.108635
" style="fill:none;stroke:#f7a35c;stroke-linecap:square;"/>
   </g>
   <g id="line2d_134">
    <path clip-path="url(#pa8a1ca57d4)" d="M 45.690625 163.356486
L 115.097951 248.834597
L 184.505277 264.459553
L 253.912603 283.159054
L 323.319929 294.108576
L 392.727255 298.062187
L 462.134581 301.602404
L 531.541907 306.298323
L 600.949233 318.054574
L 670.356559 317.325107
L 739.763885 320.391838
L 809.171211 322.411067
L 878.578537 319.857982
L 947.985863 321.857576
" style="fill:none;stroke:#8085e9;stroke-linecap:square;"/>
   </g>
   <g id="line2d_135">
    <path clip-path="url(#pa8a1ca57d4)" d="M 45.690625 159.811468
L 115.097951 245.64499
L 184.505277 262.812457
L 253.912603 283.926031
L 323.319929 293.624521
L 392.727255 299.257675
L 462.134581 302.055599
L 531.541907 306.129243
L 600.949233 317.337746
L 670.356559 318.549446
L 739.763885 319.094858
L 809.171211 324.912693
L 878.578537 322.402115
L 947.985863 321.701862
" style="fill:none;stroke:#f15c80;stroke-linecap:square;"/>
   </g>
   <g id="line2d_136">
    <path clip-path="url(#pa8a1ca57d4)" d="M 45.690625 154.100827
L 115.097951 243.394949
L 184.505277 273.269675
L 253.912603 279.78464
L 323.319929 290.921033
L 392.727255 297.654291
L 462.134581 305.270827
L 531.541907 308.91821
L 600.949233 311.619306
L 670.356559 315.059169
L 739.763885 321.174358
L 809.171211 322.720336
L 878.578537 326.956272
L 947.985863 324.576231
" style="fill:none;stroke:#e4d354;stroke-linecap:square;"/>
   </g>
   <g id="line2d_137">
    <path clip-path="url(#pa8a1ca57d4)" d="M 45.690625 154.870317
L 115.097951 244.246041
L 184.505277 270.583214
L 253.912603 282.408014
L 323.319929 291.68943
L 392.727255 299.270626
L 462.134581 304.398917
L 531.541907 309.131736
L 600.949233 311.584279
L 670.356559 315.988589
L 739.763885 322.672312
L 809.171211 322.30671
L 878.578537 326.233896
L 947.985863 324.333842
" style="fill:none;stroke:#2b908f;stroke-linecap:square;"/>
   </g>
   <g id="line2d_138">
    <path clip-path="url(#pa8a1ca57d4)" d="M 45.690625 92.160568
L 115.097951 207.729592
L 184.505277 228.255585
L 253.912603 245.955027
L 323.319929 256.526604
L 392.727255 268.395588
L 462.134581 283.210949
L 531.541907 295.359479
L 600.949233 299.238248
L 670.356559 308.367153
L 739.763885 312.939178
L 809.171211 314.348402
L 878.578537 317.060156
L 947.985863 317.599319
" style="fill:none;stroke:#f45b5b;stroke-linecap:square;"/>
   </g>
   <g id="line2d_139">
    <path clip-path="url(#pa8a1ca57d4)" d="M 45.690625 91.963686
L 115.097951 205.600916
L 184.505277 230.063293
L 253.912603 245.984681
L 323.319929 255.386849
L 392.727255 269.698036
L 462.134581 281.9169
L 531.541907 296.903773
L 600.949233 300.41549
L 670.356559 308.130827
L 739.763885 314.1335
L 809.171211 316.730441
L 878.578537 319.04304
L 947.985863 318.911502
" style="fill:none;stroke:#91e8e1;stroke-linecap:square;"/>
   </g>
   <g id="line2d_140">
    <path clip-path="url(#pa8a1ca57d4)" d="M 45.690625 81.40196
L 115.097951 203.705821
L 184.505277 230.206413
L 253.912603 245.384019
L 323.319929 257.197204
L 392.727255 269.709695
L 462.134581 281.588192
L 531.541907 291.490055
L 600.949233 298.462242
L 670.356559 303.203705
L 739.763885 307.830368
L 809.171211 311.522741
L 878.578537 312.950199
L 947.985863 315.190796
" style="fill:none;stroke:#7cb5ec;stroke-linecap:square;"/>
   </g>
   <g id="line2d_141">
    <path clip-path="url(#pa8a1ca57d4)" d="M 45.690625 80.062389
L 115.097951 205.3789
L 184.505277 230.132707
L 253.912603 244.403916
L 323.319929 257.012996
L 392.727255 269.665725
L 462.134581 281.707457
L 531.541907 291.405891
L 600.949233 298.228526
L 670.356559 303.133162
L 739.763885 307.429045
L 809.171211 311.670571
L 878.578537 313.246327
L 947.985863 314.964541
" style="fill:none;stroke:#434348;stroke-linecap:square;"/>
   </g>
   <g id="line2d_142">
    <path clip-path="url(#pa8a1ca57d4)" d="M 45.690625 155.274073
L 115.097951 233.314192
L 184.505277 280.557306
L 253.912603 279.69304
L 323.319929 292.915571
L 392.727255 307.483483
L 462.134581 304.823585
L 531.541907 322.62744
L 600.949233 311.79715
L 670.356559 325.249554
L 739.763885 330.217003
L 809.171211 317.02835
L 878.578537 326.815427
L 947.985863 336.862569
" style="fill:none;stroke:#90ed7d;stroke-linecap:square;"/>
   </g>
   <g id="line2d_143">
    <path clip-path="url(#pa8a1ca57d4)" d="M 45.690625 148.730417
L 115.097951 235.290685
L 184.505277 277.103359
L 253.912603 276.110174
L 323.319929 288.443078
L 392.727255 308.449534
L 462.134581 311.431768
L 531.541907 319.166803
L 600.949233 310.027994
L 670.356559 327.48254
L 739.763885 330.197083
L 809.171211 320.12457
L 878.578537 328.06841
L 947.985863 336.665104
" style="fill:none;stroke:#f7a35c;stroke-linecap:square;"/>
   </g>
   <g id="line2d_144">
    <path clip-path="url(#pa8a1ca57d4)" d="M 45.690625 353.2239
L 993.100625 353.2239
" style="fill:none;stroke:#dedede;stroke-linecap:square;stroke-width:2;"/>
   </g>
   <g id="text_19">
    <!-- DamageProfiler: 5' C&gt;T misincorporation plot -->
    <g transform="translate(337.408125 19.3575)scale(0.16 -0.16)">
     <defs>
      <path d="M 19.671875 64.796875
L 19.671875 8.109375
L 31.59375 8.109375
Q 46.6875 8.109375 53.6875 14.9375
Q 60.6875 21.78125 60.6875 36.53125
Q 60.6875 51.171875 53.6875 57.984375
Q 46.6875 64.796875 31.59375 64.796875
z
M 9.8125 72.90625
L 30.078125 72.90625
Q 51.265625 72.90625 61.171875 64.09375
Q 71.09375 55.28125 71.09375 36.53125
Q 71.09375 17.671875 61.125 8.828125
Q 51.171875 0 30.078125 0
L 9.8125 0
z
" id="DejaVuSans-68"/>
      <path d="M 34.28125 27.484375
Q 23.390625 27.484375 19.1875 25
Q 14.984375 22.515625 14.984375 16.5
Q 14.984375 11.71875 18.140625 8.90625
Q 21.296875 6.109375 26.703125 6.109375
Q 34.1875 6.109375 38.703125 11.40625
Q 43.21875 16.703125 43.21875 25.484375
L 43.21875 27.484375
z
M 52.203125 31.203125
L 52.203125 0
L 43.21875 0
L 43.21875 8.296875
Q 40.140625 3.328125 35.546875 0.953125
Q 30.953125 -1.421875 24.3125 -1.421875
Q 15.921875 -1.421875 10.953125 3.296875
Q 6 8.015625 6 15.921875
Q 6 25.140625 12.171875 29.828125
Q 18.359375 34.515625 30.609375 34.515625
L 43.21875 34.515625
L 43.21875 35.40625
Q 43.21875 41.609375 39.140625 45
Q 35.0625 48.390625 27.6875 48.390625
Q 23 48.390625 18.546875 47.265625
Q 14.109375 46.140625 10.015625 43.890625
L 10.015625 52.203125
Q 14.9375 54.109375 19.578125 55.046875
Q 24.21875 56 28.609375 56
Q 40.484375 56 46.34375 49.84375
Q 52.203125 43.703125 52.203125 31.203125
z
" id="DejaVuSans-97"/>
      <path d="M 45.40625 27.984375
Q 45.40625 37.75 41.375 43.109375
Q 37.359375 48.484375 30.078125 48.484375
Q 22.859375 48.484375 18.828125 43.109375
Q 14.796875 37.75 14.796875 27.984375
Q 14.796875 18.265625 18.828125 12.890625
Q 22.859375 7.515625 30.078125 7.515625
Q 37.359375 7.515625 41.375 12.890625
Q 45.40625 18.265625 45.40625 27.984375
z
M 54.390625 6.78125
Q 54.390625 -7.171875 48.1875 -13.984375
Q 42 -20.796875 29.203125 -20.796875
Q 24.46875 -20.796875 20.265625 -20.09375
Q 16.0625 -19.390625 12.109375 -17.921875
L 12.109375 -9.1875
Q 16.0625 -11.328125 19.921875 -12.34375
Q 23.78125 -13.375 27.78125 -13.375
Q 36.625 -13.375 41.015625 -8.765625
Q 45.40625 -4.15625 45.40625 5.171875
L 45.40625 9.625
Q 42.625 4.78125 38.28125 2.390625
Q 33.9375 0 27.875 0
Q 17.828125 0 11.671875 7.65625
Q 5.515625 15.328125 5.515625 27.984375
Q 5.515625 40.671875 11.671875 48.328125
Q 17.828125 56 27.875 56
Q 33.9375 56 38.28125 53.609375
Q 42.625 51.21875 45.40625 46.390625
L 45.40625 54.6875
L 54.390625 54.6875
z
" id="DejaVuSans-103"/>
      <path d="M 19.671875 64.796875
L 19.671875 37.40625
L 32.078125 37.40625
Q 38.96875 37.40625 42.71875 40.96875
Q 46.484375 44.53125 46.484375 51.125
Q 46.484375 57.671875 42.71875 61.234375
Q 38.96875 64.796875 32.078125 64.796875
z
M 9.8125 72.90625
L 32.078125 72.90625
Q 44.34375 72.90625 50.609375 67.359375
Q 56.890625 61.8125 56.890625 51.125
Q 56.890625 40.328125 50.609375 34.8125
Q 44.34375 29.296875 32.078125 29.296875
L 19.671875 29.296875
L 19.671875 0
L 9.8125 0
z
" id="DejaVuSans-80"/>
      <path d="M 11.71875 12.40625
L 22.015625 12.40625
L 22.015625 0
L 11.71875 0
z
M 11.71875 51.703125
L 22.015625 51.703125
L 22.015625 39.3125
L 11.71875 39.3125
z
" id="DejaVuSans-58"/>
      <path d="M 10.59375 49.21875
L 10.59375 58.109375
L 73.1875 35.40625
L 73.1875 27.296875
L 10.59375 4.59375
L 10.59375 13.484375
L 60.890625 31.296875
z
" id="DejaVuSans-62"/>
     </defs>
     <use xlink:href="#DejaVuSans-68"/>
     <use x="77.001953" xlink:href="#DejaVuSans-97"/>
     <use x="138.28125" xlink:href="#DejaVuSans-109"/>
     <use x="235.693359" xlink:href="#DejaVuSans-97"/>
     <use x="296.972656" xlink:href="#DejaVuSans-103"/>
     <use x="360.449219" xlink:href="#DejaVuSans-101"/>
     <use x="421.972656" xlink:href="#DejaVuSans-80"/>
     <use x="480.525391" xlink:href="#DejaVuSans-114"/>
     <use x="519.388672" xlink:href="#DejaVuSans-111"/>
     <use x="580.570312" xlink:href="#DejaVuSans-102"/>
     <use x="615.775391" xlink:href="#DejaVuSans-105"/>
     <use x="643.558594" xlink:href="#DejaVuSans-108"/>
     <use x="671.341797" xlink:href="#DejaVuSans-101"/>
     <use x="732.865234" xlink:href="#DejaVuSans-114"/>
     <use x="772.228516" xlink:href="#DejaVuSans-58"/>
     <use x="805.919922" xlink:href="#DejaVuSans-32"/>
     <use x="837.707031" xlink:href="#DejaVuSans-53"/>
     <use x="901.330078" xlink:href="#DejaVuSans-39"/>
     <use x="928.820312" xlink:href="#DejaVuSans-32"/>
     <use x="960.607422" xlink:href="#DejaVuSans-67"/>
     <use x="1030.431641" xlink:href="#DejaVuSans-62"/>
     <use x="1114.220703" xlink:href="#DejaVuSans-84"/>
     <use x="1175.304688" xlink:href="#DejaVuSans-32"/>
     <use x="1207.091797" xlink:href="#DejaVuSans-109"/>
     <use x="1304.503906" xlink:href="#DejaVuSans-105"/>
     <use x="1332.287109" xlink:href="#DejaVuSans-115"/>
     <use x="1384.386719" xlink:href="#DejaVuSans-105"/>
     <use x="1412.169922" xlink:href="#DejaVuSans-110"/>
     <use x="1475.548828" xlink:href="#DejaVuSans-99"/>
     <use x="1530.529297" xlink:href="#DejaVuSans-111"/>
     <use x="1591.710938" xlink:href="#DejaVuSans-114"/>
     <use x="1632.824219" xlink:href="#DejaVuSans-112"/>
     <use x="1696.300781" xlink:href="#DejaVuSans-111"/>
     <use x="1757.482422" xlink:href="#DejaVuSans-114"/>
     <use x="1798.595703" xlink:href="#DejaVuSans-97"/>
     <use x="1859.875" xlink:href="#DejaVuSans-116"/>
     <use x="1899.083984" xlink:href="#DejaVuSans-105"/>
     <use x="1926.867188" xlink:href="#DejaVuSans-111"/>
     <use x="1988.048828" xlink:href="#DejaVuSans-110"/>
     <use x="2051.427734" xlink:href="#DejaVuSans-32"/>
     <use x="2083.214844" xlink:href="#DejaVuSans-112"/>
     <use x="2146.691406" xlink:href="#DejaVuSans-108"/>
     <use x="2174.474609" xlink:href="#DejaVuSans-111"/>
     <use x="2235.65625" xlink:href="#DejaVuSans-116"/>
    </g>
   </g>
  </g>
 </g>
 <defs>
  <clipPath id="pa8a1ca57d4">
   <rect height="317.968" width="947.41" x="45.690625" y="35.2559"/>
  </clipPath>
 </defs>
</svg>
