<?xml version="1.0" encoding="utf-8" standalone="no"?>
<!DOCTYPE svg PUBLIC "-//W3C//DTD SVG 1.1//EN"
  "http://www.w3.org/Graphics/SVG/1.1/DTD/svg11.dtd">
<!-- Created with matplotlib (https://matplotlib.org/) -->
<svg height="330.541644pt" version="1.1" viewBox="0 0 1000.358125 330.541644" width="1000.358125pt" xmlns="http://www.w3.org/2000/svg" xmlns:xlink="http://www.w3.org/1999/xlink">
 <metadata>
  <rdf:RDF xmlns:cc="http://creativecommons.org/ns#" xmlns:dc="http://purl.org/dc/elements/1.1/" xmlns:rdf="http://www.w3.org/1999/02/22-rdf-syntax-ns#">
   <cc:Work>
    <dc:type rdf:resource="http://purl.org/dc/dcmitype/StillImage"/>
    <dc:date>2021-03-05T10:28:52.414776</dc:date>
    <dc:format>image/svg+xml</dc:format>
    <dc:creator>
     <cc:Agent>
      <dc:title>Matplotlib v3.3.2, https://matplotlib.org/</dc:title>
     </cc:Agent>
    </dc:creator>
   </cc:Work>
  </rdf:RDF>
 </metadata>
 <defs>
  <style type="text/css">*{stroke-linecap:butt;stroke-linejoin:round;}</style>
 </defs>
 <g id="figure_1">
  <g id="axes_1">
   <g id="patch_1">
    <path d="M 32.968125 273.99006
L 993.158125 273.99006
L 993.158125 31.48286
L 32.968125 31.48286
z
" style="fill:#ffffff;"/>
   </g>
   <g id="matplotlib.axis_1">
    <g id="xtick_1">
     <g id="text_1">
      <!-- 0 -->
      <g transform="translate(30.423125 287.06881)scale(0.08 -0.08)">
       <defs>
        <path d="M 31.78125 66.40625
Q 24.171875 66.40625 20.328125 58.90625
Q 16.5 51.421875 16.5 36.375
Q 16.5 21.390625 20.328125 13.890625
Q 24.171875 6.390625 31.78125 6.390625
Q 39.453125 6.390625 43.28125 13.890625
Q 47.125 21.390625 47.125 36.375
Q 47.125 51.421875 43.28125 58.90625
Q 39.453125 66.40625 31.78125 66.40625
z
M 31.78125 74.21875
Q 44.046875 74.21875 50.515625 64.515625
Q 56.984375 54.828125 56.984375 36.375
Q 56.984375 17.96875 50.515625 8.265625
Q 44.046875 -1.421875 31.78125 -1.421875
Q 19.53125 -1.421875 13.0625 8.265625
Q 6.59375 17.96875 6.59375 36.375
Q 6.59375 54.828125 13.0625 64.515625
Q 19.53125 74.21875 31.78125 74.21875
z
" id="DejaVuSans-48"/>
       </defs>
       <use xlink:href="#DejaVuSans-48"/>
      </g>
     </g>
    </g>
    <g id="xtick_2">
     <g id="text_2">
      <!-- 10 -->
      <g transform="translate(146.4201 287.06881)scale(0.08 -0.08)">
       <defs>
        <path d="M 12.40625 8.296875
L 28.515625 8.296875
L 28.515625 63.921875
L 10.984375 60.40625
L 10.984375 69.390625
L 28.421875 72.90625
L 38.28125 72.90625
L 38.28125 8.296875
L 54.390625 8.296875
L 54.390625 0
L 12.40625 0
z
" id="DejaVuSans-49"/>
       </defs>
       <use xlink:href="#DejaVuSans-49"/>
       <use x="63.623047" xlink:href="#DejaVuSans-48"/>
      </g>
     </g>
    </g>
    <g id="xtick_3">
     <g id="text_3">
      <!-- 20 -->
      <g transform="translate(264.962076 287.06881)scale(0.08 -0.08)">
       <defs>
        <path d="M 19.1875 8.296875
L 53.609375 8.296875
L 53.609375 0
L 7.328125 0
L 7.328125 8.296875
Q 12.9375 14.109375 22.625 23.890625
Q 32.328125 33.6875 34.8125 36.53125
Q 39.546875 41.84375 41.421875 45.53125
Q 43.3125 49.21875 43.3125 52.78125
Q 43.3125 58.59375 39.234375 62.25
Q 35.15625 65.921875 28.609375 65.921875
Q 23.96875 65.921875 18.8125 64.3125
Q 13.671875 62.703125 7.8125 59.421875
L 7.8125 69.390625
Q 13.765625 71.78125 18.9375 73
Q 24.125 74.21875 28.421875 74.21875
Q 39.75 74.21875 46.484375 68.546875
Q 53.21875 62.890625 53.21875 53.421875
Q 53.21875 48.921875 51.53125 44.890625
Q 49.859375 40.875 45.40625 35.40625
Q 44.1875 33.984375 37.640625 27.21875
Q 31.109375 20.453125 19.1875 8.296875
z
" id="DejaVuSans-50"/>
       </defs>
       <use xlink:href="#DejaVuSans-50"/>
       <use x="63.623047" xlink:href="#DejaVuSans-48"/>
      </g>
     </g>
    </g>
    <g id="xtick_4">
     <g id="text_4">
      <!-- 30 -->
      <g transform="translate(383.504051 287.06881)scale(0.08 -0.08)">
       <defs>
        <path d="M 40.578125 39.3125
Q 47.65625 37.796875 51.625 33
Q 55.609375 28.21875 55.609375 21.1875
Q 55.609375 10.40625 48.1875 4.484375
Q 40.765625 -1.421875 27.09375 -1.421875
Q 22.515625 -1.421875 17.65625 -0.515625
Q 12.796875 0.390625 7.625 2.203125
L 7.625 11.71875
Q 11.71875 9.328125 16.59375 8.109375
Q 21.484375 6.890625 26.8125 6.890625
Q 36.078125 6.890625 40.9375 10.546875
Q 45.796875 14.203125 45.796875 21.1875
Q 45.796875 27.640625 41.28125 31.265625
Q 36.765625 34.90625 28.71875 34.90625
L 20.21875 34.90625
L 20.21875 43.015625
L 29.109375 43.015625
Q 36.375 43.015625 40.234375 45.921875
Q 44.09375 48.828125 44.09375 54.296875
Q 44.09375 59.90625 40.109375 62.90625
Q 36.140625 65.921875 28.71875 65.921875
Q 24.65625 65.921875 20.015625 65.03125
Q 15.375 64.15625 9.8125 62.3125
L 9.8125 71.09375
Q 15.4375 72.65625 20.34375 73.4375
Q 25.25 74.21875 29.59375 74.21875
Q 40.828125 74.21875 47.359375 69.109375
Q 53.90625 64.015625 53.90625 55.328125
Q 53.90625 49.265625 50.4375 45.09375
Q 46.96875 40.921875 40.578125 39.3125
z
" id="DejaVuSans-51"/>
       </defs>
       <use xlink:href="#DejaVuSans-51"/>
       <use x="63.623047" xlink:href="#DejaVuSans-48"/>
      </g>
     </g>
    </g>
    <g id="xtick_5">
     <g id="text_5">
      <!-- 40 -->
      <g transform="translate(502.046026 287.06881)scale(0.08 -0.08)">
       <defs>
        <path d="M 37.796875 64.3125
L 12.890625 25.390625
L 37.796875 25.390625
z
M 35.203125 72.90625
L 47.609375 72.90625
L 47.609375 25.390625
L 58.015625 25.390625
L 58.015625 17.1875
L 47.609375 17.1875
L 47.609375 0
L 37.796875 0
L 37.796875 17.1875
L 4.890625 17.1875
L 4.890625 26.703125
z
" id="DejaVuSans-52"/>
       </defs>
       <use xlink:href="#DejaVuSans-52"/>
       <use x="63.623047" xlink:href="#DejaVuSans-48"/>
      </g>
     </g>
    </g>
    <g id="xtick_6">
     <g id="text_6">
      <!-- 50 -->
      <g transform="translate(620.588002 287.06881)scale(0.08 -0.08)">
       <defs>
        <path d="M 10.796875 72.90625
L 49.515625 72.90625
L 49.515625 64.59375
L 19.828125 64.59375
L 19.828125 46.734375
Q 21.96875 47.46875 24.109375 47.828125
Q 26.265625 48.1875 28.421875 48.1875
Q 40.625 48.1875 47.75 41.5
Q 54.890625 34.8125 54.890625 23.390625
Q 54.890625 11.625 47.5625 5.09375
Q 40.234375 -1.421875 26.90625 -1.421875
Q 22.3125 -1.421875 17.546875 -0.640625
Q 12.796875 0.140625 7.71875 1.703125
L 7.71875 11.625
Q 12.109375 9.234375 16.796875 8.0625
Q 21.484375 6.890625 26.703125 6.890625
Q 35.15625 6.890625 40.078125 11.328125
Q 45.015625 15.765625 45.015625 23.390625
Q 45.015625 31 40.078125 35.4375
Q 35.15625 39.890625 26.703125 39.890625
Q 22.75 39.890625 18.8125 39.015625
Q 14.890625 38.140625 10.796875 36.28125
z
" id="DejaVuSans-53"/>
       </defs>
       <use xlink:href="#DejaVuSans-53"/>
       <use x="63.623047" xlink:href="#DejaVuSans-48"/>
      </g>
     </g>
    </g>
    <g id="xtick_7">
     <g id="text_7">
      <!-- 60 -->
      <g transform="translate(739.129977 287.06881)scale(0.08 -0.08)">
       <defs>
        <path d="M 33.015625 40.375
Q 26.375 40.375 22.484375 35.828125
Q 18.609375 31.296875 18.609375 23.390625
Q 18.609375 15.53125 22.484375 10.953125
Q 26.375 6.390625 33.015625 6.390625
Q 39.65625 6.390625 43.53125 10.953125
Q 47.40625 15.53125 47.40625 23.390625
Q 47.40625 31.296875 43.53125 35.828125
Q 39.65625 40.375 33.015625 40.375
z
M 52.59375 71.296875
L 52.59375 62.3125
Q 48.875 64.0625 45.09375 64.984375
Q 41.3125 65.921875 37.59375 65.921875
Q 27.828125 65.921875 22.671875 59.328125
Q 17.53125 52.734375 16.796875 39.40625
Q 19.671875 43.65625 24.015625 45.921875
Q 28.375 48.1875 33.59375 48.1875
Q 44.578125 48.1875 50.953125 41.515625
Q 57.328125 34.859375 57.328125 23.390625
Q 57.328125 12.15625 50.6875 5.359375
Q 44.046875 -1.421875 33.015625 -1.421875
Q 20.359375 -1.421875 13.671875 8.265625
Q 6.984375 17.96875 6.984375 36.375
Q 6.984375 53.65625 15.1875 63.9375
Q 23.390625 74.21875 37.203125 74.21875
Q 40.921875 74.21875 44.703125 73.484375
Q 48.484375 72.75 52.59375 71.296875
z
" id="DejaVuSans-54"/>
       </defs>
       <use xlink:href="#DejaVuSans-54"/>
       <use x="63.623047" xlink:href="#DejaVuSans-48"/>
      </g>
     </g>
    </g>
    <g id="xtick_8">
     <g id="text_8">
      <!-- 70 -->
      <g transform="translate(857.671952 287.06881)scale(0.08 -0.08)">
       <defs>
        <path d="M 8.203125 72.90625
L 55.078125 72.90625
L 55.078125 68.703125
L 28.609375 0
L 18.3125 0
L 43.21875 64.59375
L 8.203125 64.59375
z
" id="DejaVuSans-55"/>
       </defs>
       <use xlink:href="#DejaVuSans-55"/>
       <use x="63.623047" xlink:href="#DejaVuSans-48"/>
      </g>
     </g>
    </g>
    <g id="xtick_9">
     <g id="text_9">
      <!-- 80 -->
      <g transform="translate(976.213927 287.06881)scale(0.08 -0.08)">
       <defs>
        <path d="M 31.78125 34.625
Q 24.75 34.625 20.71875 30.859375
Q 16.703125 27.09375 16.703125 20.515625
Q 16.703125 13.921875 20.71875 10.15625
Q 24.75 6.390625 31.78125 6.390625
Q 38.8125 6.390625 42.859375 10.171875
Q 46.921875 13.96875 46.921875 20.515625
Q 46.921875 27.09375 42.890625 30.859375
Q 38.875 34.625 31.78125 34.625
z
M 21.921875 38.8125
Q 15.578125 40.375 12.03125 44.71875
Q 8.5 49.078125 8.5 55.328125
Q 8.5 64.0625 14.71875 69.140625
Q 20.953125 74.21875 31.78125 74.21875
Q 42.671875 74.21875 48.875 69.140625
Q 55.078125 64.0625 55.078125 55.328125
Q 55.078125 49.078125 51.53125 44.71875
Q 48 40.375 41.703125 38.8125
Q 48.828125 37.15625 52.796875 32.3125
Q 56.78125 27.484375 56.78125 20.515625
Q 56.78125 9.90625 50.3125 4.234375
Q 43.84375 -1.421875 31.78125 -1.421875
Q 19.734375 -1.421875 13.25 4.234375
Q 6.78125 9.90625 6.78125 20.515625
Q 6.78125 27.484375 10.78125 32.3125
Q 14.796875 37.15625 21.921875 38.8125
z
M 18.3125 54.390625
Q 18.3125 48.734375 21.84375 45.5625
Q 25.390625 42.390625 31.78125 42.390625
Q 38.140625 42.390625 41.71875 45.5625
Q 45.3125 48.734375 45.3125 54.390625
Q 45.3125 60.0625 41.71875 63.234375
Q 38.140625 66.40625 31.78125 66.40625
Q 25.390625 66.40625 21.84375 63.234375
Q 18.3125 60.0625 18.3125 54.390625
z
" id="DejaVuSans-56"/>
       </defs>
       <use xlink:href="#DejaVuSans-56"/>
       <use x="63.623047" xlink:href="#DejaVuSans-48"/>
      </g>
     </g>
    </g>
    <g id="text_10">
     <!-- Coverage (X) -->
     <g transform="translate(480.190469 300.330997)scale(0.1 -0.1)">
      <defs>
       <path d="M 64.40625 67.28125
L 64.40625 56.890625
Q 59.421875 61.53125 53.78125 63.8125
Q 48.140625 66.109375 41.796875 66.109375
Q 29.296875 66.109375 22.65625 58.46875
Q 16.015625 50.828125 16.015625 36.375
Q 16.015625 21.96875 22.65625 14.328125
Q 29.296875 6.6875 41.796875 6.6875
Q 48.140625 6.6875 53.78125 8.984375
Q 59.421875 11.28125 64.40625 15.921875
L 64.40625 5.609375
Q 59.234375 2.09375 53.4375 0.328125
Q 47.65625 -1.421875 41.21875 -1.421875
Q 24.65625 -1.421875 15.125 8.703125
Q 5.609375 18.84375 5.609375 36.375
Q 5.609375 53.953125 15.125 64.078125
Q 24.65625 74.21875 41.21875 74.21875
Q 47.75 74.21875 53.53125 72.484375
Q 59.328125 70.75 64.40625 67.28125
z
" id="DejaVuSans-67"/>
       <path d="M 30.609375 48.390625
Q 23.390625 48.390625 19.1875 42.75
Q 14.984375 37.109375 14.984375 27.296875
Q 14.984375 17.484375 19.15625 11.84375
Q 23.34375 6.203125 30.609375 6.203125
Q 37.796875 6.203125 41.984375 11.859375
Q 46.1875 17.53125 46.1875 27.296875
Q 46.1875 37.015625 41.984375 42.703125
Q 37.796875 48.390625 30.609375 48.390625
z
M 30.609375 56
Q 42.328125 56 49.015625 48.375
Q 55.71875 40.765625 55.71875 27.296875
Q 55.71875 13.875 49.015625 6.21875
Q 42.328125 -1.421875 30.609375 -1.421875
Q 18.84375 -1.421875 12.171875 6.21875
Q 5.515625 13.875 5.515625 27.296875
Q 5.515625 40.765625 12.171875 48.375
Q 18.84375 56 30.609375 56
z
" id="DejaVuSans-111"/>
       <path d="M 2.984375 54.6875
L 12.5 54.6875
L 29.59375 8.796875
L 46.6875 54.6875
L 56.203125 54.6875
L 35.6875 0
L 23.484375 0
z
" id="DejaVuSans-118"/>
       <path d="M 56.203125 29.59375
L 56.203125 25.203125
L 14.890625 25.203125
Q 15.484375 15.921875 20.484375 11.0625
Q 25.484375 6.203125 34.421875 6.203125
Q 39.59375 6.203125 44.453125 7.46875
Q 49.3125 8.734375 54.109375 11.28125
L 54.109375 2.78125
Q 49.265625 0.734375 44.1875 -0.34375
Q 39.109375 -1.421875 33.890625 -1.421875
Q 20.796875 -1.421875 13.15625 6.1875
Q 5.515625 13.8125 5.515625 26.8125
Q 5.515625 40.234375 12.765625 48.109375
Q 20.015625 56 32.328125 56
Q 43.359375 56 49.78125 48.890625
Q 56.203125 41.796875 56.203125 29.59375
z
M 47.21875 32.234375
Q 47.125 39.59375 43.09375 43.984375
Q 39.0625 48.390625 32.421875 48.390625
Q 24.90625 48.390625 20.390625 44.140625
Q 15.875 39.890625 15.1875 32.171875
z
" id="DejaVuSans-101"/>
       <path d="M 41.109375 46.296875
Q 39.59375 47.171875 37.8125 47.578125
Q 36.03125 48 33.890625 48
Q 26.265625 48 22.1875 43.046875
Q 18.109375 38.09375 18.109375 28.8125
L 18.109375 0
L 9.078125 0
L 9.078125 54.6875
L 18.109375 54.6875
L 18.109375 46.1875
Q 20.953125 51.171875 25.484375 53.578125
Q 30.03125 56 36.53125 56
Q 37.453125 56 38.578125 55.875
Q 39.703125 55.765625 41.0625 55.515625
z
" id="DejaVuSans-114"/>
       <path d="M 34.28125 27.484375
Q 23.390625 27.484375 19.1875 25
Q 14.984375 22.515625 14.984375 16.5
Q 14.984375 11.71875 18.140625 8.90625
Q 21.296875 6.109375 26.703125 6.109375
Q 34.1875 6.109375 38.703125 11.40625
Q 43.21875 16.703125 43.21875 25.484375
L 43.21875 27.484375
z
M 52.203125 31.203125
L 52.203125 0
L 43.21875 0
L 43.21875 8.296875
Q 40.140625 3.328125 35.546875 0.953125
Q 30.953125 -1.421875 24.3125 -1.421875
Q 15.921875 -1.421875 10.953125 3.296875
Q 6 8.015625 6 15.921875
Q 6 25.140625 12.171875 29.828125
Q 18.359375 34.515625 30.609375 34.515625
L 43.21875 34.515625
L 43.21875 35.40625
Q 43.21875 41.609375 39.140625 45
Q 35.0625 48.390625 27.6875 48.390625
Q 23 48.390625 18.546875 47.265625
Q 14.109375 46.140625 10.015625 43.890625
L 10.015625 52.203125
Q 14.9375 54.109375 19.578125 55.046875
Q 24.21875 56 28.609375 56
Q 40.484375 56 46.34375 49.84375
Q 52.203125 43.703125 52.203125 31.203125
z
" id="DejaVuSans-97"/>
       <path d="M 45.40625 27.984375
Q 45.40625 37.75 41.375 43.109375
Q 37.359375 48.484375 30.078125 48.484375
Q 22.859375 48.484375 18.828125 43.109375
Q 14.796875 37.75 14.796875 27.984375
Q 14.796875 18.265625 18.828125 12.890625
Q 22.859375 7.515625 30.078125 7.515625
Q 37.359375 7.515625 41.375 12.890625
Q 45.40625 18.265625 45.40625 27.984375
z
M 54.390625 6.78125
Q 54.390625 -7.171875 48.1875 -13.984375
Q 42 -20.796875 29.203125 -20.796875
Q 24.46875 -20.796875 20.265625 -20.09375
Q 16.0625 -19.390625 12.109375 -17.921875
L 12.109375 -9.1875
Q 16.0625 -11.328125 19.921875 -12.34375
Q 23.78125 -13.375 27.78125 -13.375
Q 36.625 -13.375 41.015625 -8.765625
Q 45.40625 -4.15625 45.40625 5.171875
L 45.40625 9.625
Q 42.625 4.78125 38.28125 2.390625
Q 33.9375 0 27.875 0
Q 17.828125 0 11.671875 7.65625
Q 5.515625 15.328125 5.515625 27.984375
Q 5.515625 40.671875 11.671875 48.328125
Q 17.828125 56 27.875 56
Q 33.9375 56 38.28125 53.609375
Q 42.625 51.21875 45.40625 46.390625
L 45.40625 54.6875
L 54.390625 54.6875
z
" id="DejaVuSans-103"/>
       <path id="DejaVuSans-32"/>
       <path d="M 31 75.875
Q 24.46875 64.65625 21.28125 53.65625
Q 18.109375 42.671875 18.109375 31.390625
Q 18.109375 20.125 21.3125 9.0625
Q 24.515625 -2 31 -13.1875
L 23.1875 -13.1875
Q 15.875 -1.703125 12.234375 9.375
Q 8.59375 20.453125 8.59375 31.390625
Q 8.59375 42.28125 12.203125 53.3125
Q 15.828125 64.359375 23.1875 75.875
z
" id="DejaVuSans-40"/>
       <path d="M 6.296875 72.90625
L 16.890625 72.90625
L 35.015625 45.796875
L 53.21875 72.90625
L 63.8125 72.90625
L 40.375 37.890625
L 65.375 0
L 54.78125 0
L 34.28125 31
L 13.625 0
L 2.984375 0
L 29 38.921875
z
" id="DejaVuSans-88"/>
       <path d="M 8.015625 75.875
L 15.828125 75.875
Q 23.140625 64.359375 26.78125 53.3125
Q 30.421875 42.28125 30.421875 31.390625
Q 30.421875 20.453125 26.78125 9.375
Q 23.140625 -1.703125 15.828125 -13.1875
L 8.015625 -13.1875
Q 14.5 -2 17.703125 9.0625
Q 20.90625 20.125 20.90625 31.390625
Q 20.90625 42.671875 17.703125 53.65625
Q 14.5 64.65625 8.015625 75.875
z
" id="DejaVuSans-41"/>
      </defs>
      <use xlink:href="#DejaVuSans-67"/>
      <use x="69.824219" xlink:href="#DejaVuSans-111"/>
      <use x="131.005859" xlink:href="#DejaVuSans-118"/>
      <use x="190.185547" xlink:href="#DejaVuSans-101"/>
      <use x="251.708984" xlink:href="#DejaVuSans-114"/>
      <use x="292.822266" xlink:href="#DejaVuSans-97"/>
      <use x="354.101562" xlink:href="#DejaVuSans-103"/>
      <use x="417.578125" xlink:href="#DejaVuSans-101"/>
      <use x="479.101562" xlink:href="#DejaVuSans-32"/>
      <use x="510.888672" xlink:href="#DejaVuSans-40"/>
      <use x="549.902344" xlink:href="#DejaVuSans-88"/>
      <use x="618.408203" xlink:href="#DejaVuSans-41"/>
     </g>
    </g>
   </g>
   <g id="matplotlib.axis_2">
    <g id="ytick_1">
     <g id="line2d_1">
      <path clip-path="url(#p2071cded68)" d="M 32.968125 273.99006
L 993.158125 273.99006
" style="fill:none;stroke:#dedede;stroke-linecap:square;"/>
     </g>
     <g id="text_11">
      <!-- 0 -->
      <g transform="translate(20.878125 277.029435)scale(0.08 -0.08)">
       <use xlink:href="#DejaVuSans-48"/>
      </g>
     </g>
    </g>
    <g id="ytick_2">
     <g id="line2d_2">
      <path clip-path="url(#p2071cded68)" d="M 32.968125 224.108815
L 993.158125 224.108815
" style="fill:none;stroke:#dedede;stroke-linecap:square;"/>
     </g>
     <g id="text_12">
      <!-- 1 -->
      <g transform="translate(20.878125 227.14819)scale(0.08 -0.08)">
       <use xlink:href="#DejaVuSans-49"/>
      </g>
     </g>
    </g>
    <g id="ytick_3">
     <g id="line2d_3">
      <path clip-path="url(#p2071cded68)" d="M 32.968125 174.227571
L 993.158125 174.227571
" style="fill:none;stroke:#dedede;stroke-linecap:square;"/>
     </g>
     <g id="text_13">
      <!-- 2 -->
      <g transform="translate(20.878125 177.266946)scale(0.08 -0.08)">
       <use xlink:href="#DejaVuSans-50"/>
      </g>
     </g>
    </g>
    <g id="ytick_4">
     <g id="line2d_4">
      <path clip-path="url(#p2071cded68)" d="M 32.968125 124.346326
L 993.158125 124.346326
" style="fill:none;stroke:#dedede;stroke-linecap:square;"/>
     </g>
     <g id="text_14">
      <!-- 3 -->
      <g transform="translate(20.878125 127.385701)scale(0.08 -0.08)">
       <use xlink:href="#DejaVuSans-51"/>
      </g>
     </g>
    </g>
    <g id="ytick_5">
     <g id="line2d_5">
      <path clip-path="url(#p2071cded68)" d="M 32.968125 74.465082
L 993.158125 74.465082
" style="fill:none;stroke:#dedede;stroke-linecap:square;"/>
     </g>
     <g id="text_15">
      <!-- 4 -->
      <g transform="translate(20.878125 77.504457)scale(0.08 -0.08)">
       <use xlink:href="#DejaVuSans-52"/>
      </g>
     </g>
    </g>
    <g id="text_16">
     <!-- Genome bin counts -->
     <g transform="translate(14.798438 201.483335)rotate(-90)scale(0.1 -0.1)">
      <defs>
       <path d="M 59.515625 10.40625
L 59.515625 29.984375
L 43.40625 29.984375
L 43.40625 38.09375
L 69.28125 38.09375
L 69.28125 6.78125
Q 63.578125 2.734375 56.6875 0.65625
Q 49.8125 -1.421875 42 -1.421875
Q 24.90625 -1.421875 15.25 8.5625
Q 5.609375 18.5625 5.609375 36.375
Q 5.609375 54.25 15.25 64.234375
Q 24.90625 74.21875 42 74.21875
Q 49.125 74.21875 55.546875 72.453125
Q 61.96875 70.703125 67.390625 67.28125
L 67.390625 56.78125
Q 61.921875 61.421875 55.765625 63.765625
Q 49.609375 66.109375 42.828125 66.109375
Q 29.4375 66.109375 22.71875 58.640625
Q 16.015625 51.171875 16.015625 36.375
Q 16.015625 21.625 22.71875 14.15625
Q 29.4375 6.6875 42.828125 6.6875
Q 48.046875 6.6875 52.140625 7.59375
Q 56.25 8.5 59.515625 10.40625
z
" id="DejaVuSans-71"/>
       <path d="M 54.890625 33.015625
L 54.890625 0
L 45.90625 0
L 45.90625 32.71875
Q 45.90625 40.484375 42.875 44.328125
Q 39.84375 48.1875 33.796875 48.1875
Q 26.515625 48.1875 22.3125 43.546875
Q 18.109375 38.921875 18.109375 30.90625
L 18.109375 0
L 9.078125 0
L 9.078125 54.6875
L 18.109375 54.6875
L 18.109375 46.1875
Q 21.34375 51.125 25.703125 53.5625
Q 30.078125 56 35.796875 56
Q 45.21875 56 50.046875 50.171875
Q 54.890625 44.34375 54.890625 33.015625
z
" id="DejaVuSans-110"/>
       <path d="M 52 44.1875
Q 55.375 50.25 60.0625 53.125
Q 64.75 56 71.09375 56
Q 79.640625 56 84.28125 50.015625
Q 88.921875 44.046875 88.921875 33.015625
L 88.921875 0
L 79.890625 0
L 79.890625 32.71875
Q 79.890625 40.578125 77.09375 44.375
Q 74.3125 48.1875 68.609375 48.1875
Q 61.625 48.1875 57.5625 43.546875
Q 53.515625 38.921875 53.515625 30.90625
L 53.515625 0
L 44.484375 0
L 44.484375 32.71875
Q 44.484375 40.625 41.703125 44.40625
Q 38.921875 48.1875 33.109375 48.1875
Q 26.21875 48.1875 22.15625 43.53125
Q 18.109375 38.875 18.109375 30.90625
L 18.109375 0
L 9.078125 0
L 9.078125 54.6875
L 18.109375 54.6875
L 18.109375 46.1875
Q 21.1875 51.21875 25.484375 53.609375
Q 29.78125 56 35.6875 56
Q 41.65625 56 45.828125 52.96875
Q 50 49.953125 52 44.1875
z
" id="DejaVuSans-109"/>
       <path d="M 48.6875 27.296875
Q 48.6875 37.203125 44.609375 42.84375
Q 40.53125 48.484375 33.40625 48.484375
Q 26.265625 48.484375 22.1875 42.84375
Q 18.109375 37.203125 18.109375 27.296875
Q 18.109375 17.390625 22.1875 11.75
Q 26.265625 6.109375 33.40625 6.109375
Q 40.53125 6.109375 44.609375 11.75
Q 48.6875 17.390625 48.6875 27.296875
z
M 18.109375 46.390625
Q 20.953125 51.265625 25.265625 53.625
Q 29.59375 56 35.59375 56
Q 45.5625 56 51.78125 48.09375
Q 58.015625 40.1875 58.015625 27.296875
Q 58.015625 14.40625 51.78125 6.484375
Q 45.5625 -1.421875 35.59375 -1.421875
Q 29.59375 -1.421875 25.265625 0.953125
Q 20.953125 3.328125 18.109375 8.203125
L 18.109375 0
L 9.078125 0
L 9.078125 75.984375
L 18.109375 75.984375
z
" id="DejaVuSans-98"/>
       <path d="M 9.421875 54.6875
L 18.40625 54.6875
L 18.40625 0
L 9.421875 0
z
M 9.421875 75.984375
L 18.40625 75.984375
L 18.40625 64.59375
L 9.421875 64.59375
z
" id="DejaVuSans-105"/>
       <path d="M 48.78125 52.59375
L 48.78125 44.1875
Q 44.96875 46.296875 41.140625 47.34375
Q 37.3125 48.390625 33.40625 48.390625
Q 24.65625 48.390625 19.8125 42.84375
Q 14.984375 37.3125 14.984375 27.296875
Q 14.984375 17.28125 19.8125 11.734375
Q 24.65625 6.203125 33.40625 6.203125
Q 37.3125 6.203125 41.140625 7.25
Q 44.96875 8.296875 48.78125 10.40625
L 48.78125 2.09375
Q 45.015625 0.34375 40.984375 -0.53125
Q 36.96875 -1.421875 32.421875 -1.421875
Q 20.0625 -1.421875 12.78125 6.34375
Q 5.515625 14.109375 5.515625 27.296875
Q 5.515625 40.671875 12.859375 48.328125
Q 20.21875 56 33.015625 56
Q 37.15625 56 41.109375 55.140625
Q 45.0625 54.296875 48.78125 52.59375
z
" id="DejaVuSans-99"/>
       <path d="M 8.5 21.578125
L 8.5 54.6875
L 17.484375 54.6875
L 17.484375 21.921875
Q 17.484375 14.15625 20.5 10.265625
Q 23.53125 6.390625 29.59375 6.390625
Q 36.859375 6.390625 41.078125 11.03125
Q 45.3125 15.671875 45.3125 23.6875
L 45.3125 54.6875
L 54.296875 54.6875
L 54.296875 0
L 45.3125 0
L 45.3125 8.40625
Q 42.046875 3.421875 37.71875 1
Q 33.40625 -1.421875 27.6875 -1.421875
Q 18.265625 -1.421875 13.375 4.4375
Q 8.5 10.296875 8.5 21.578125
z
M 31.109375 56
z
" id="DejaVuSans-117"/>
       <path d="M 18.3125 70.21875
L 18.3125 54.6875
L 36.8125 54.6875
L 36.8125 47.703125
L 18.3125 47.703125
L 18.3125 18.015625
Q 18.3125 11.328125 20.140625 9.421875
Q 21.96875 7.515625 27.59375 7.515625
L 36.8125 7.515625
L 36.8125 0
L 27.59375 0
Q 17.1875 0 13.234375 3.875
Q 9.28125 7.765625 9.28125 18.015625
L 9.28125 47.703125
L 2.6875 47.703125
L 2.6875 54.6875
L 9.28125 54.6875
L 9.28125 70.21875
z
" id="DejaVuSans-116"/>
       <path d="M 44.28125 53.078125
L 44.28125 44.578125
Q 40.484375 46.53125 36.375 47.5
Q 32.28125 48.484375 27.875 48.484375
Q 21.1875 48.484375 17.84375 46.4375
Q 14.5 44.390625 14.5 40.28125
Q 14.5 37.15625 16.890625 35.375
Q 19.28125 33.59375 26.515625 31.984375
L 29.59375 31.296875
Q 39.15625 29.25 43.1875 25.515625
Q 47.21875 21.78125 47.21875 15.09375
Q 47.21875 7.46875 41.1875 3.015625
Q 35.15625 -1.421875 24.609375 -1.421875
Q 20.21875 -1.421875 15.453125 -0.5625
Q 10.6875 0.296875 5.421875 2
L 5.421875 11.28125
Q 10.40625 8.6875 15.234375 7.390625
Q 20.0625 6.109375 24.8125 6.109375
Q 31.15625 6.109375 34.5625 8.28125
Q 37.984375 10.453125 37.984375 14.40625
Q 37.984375 18.0625 35.515625 20.015625
Q 33.0625 21.96875 24.703125 23.78125
L 21.578125 24.515625
Q 13.234375 26.265625 9.515625 29.90625
Q 5.8125 33.546875 5.8125 39.890625
Q 5.8125 47.609375 11.28125 51.796875
Q 16.75 56 26.8125 56
Q 31.78125 56 36.171875 55.265625
Q 40.578125 54.546875 44.28125 53.078125
z
" id="DejaVuSans-115"/>
      </defs>
      <use xlink:href="#DejaVuSans-71"/>
      <use x="77.490234" xlink:href="#DejaVuSans-101"/>
      <use x="139.013672" xlink:href="#DejaVuSans-110"/>
      <use x="202.392578" xlink:href="#DejaVuSans-111"/>
      <use x="263.574219" xlink:href="#DejaVuSans-109"/>
      <use x="360.986328" xlink:href="#DejaVuSans-101"/>
      <use x="422.509766" xlink:href="#DejaVuSans-32"/>
      <use x="454.296875" xlink:href="#DejaVuSans-98"/>
      <use x="517.773438" xlink:href="#DejaVuSans-105"/>
      <use x="545.556641" xlink:href="#DejaVuSans-110"/>
      <use x="608.935547" xlink:href="#DejaVuSans-32"/>
      <use x="640.722656" xlink:href="#DejaVuSans-99"/>
      <use x="695.703125" xlink:href="#DejaVuSans-111"/>
      <use x="756.884766" xlink:href="#DejaVuSans-117"/>
      <use x="820.263672" xlink:href="#DejaVuSans-110"/>
      <use x="883.642578" xlink:href="#DejaVuSans-116"/>
      <use x="922.851562" xlink:href="#DejaVuSans-115"/>
     </g>
    </g>
    <g id="text_17">
     <!-- 1e6 -->
     <g transform="translate(32.968125 28.48286)scale(0.1 -0.1)">
      <use xlink:href="#DejaVuSans-49"/>
      <use x="63.623047" xlink:href="#DejaVuSans-101"/>
      <use x="125.146484" xlink:href="#DejaVuSans-54"/>
     </g>
    </g>
   </g>
   <g id="line2d_6">
    <path clip-path="url(#p2071cded68)" d="M 32.968125 206.635765
L 44.822323 220.968442
L 56.67652 233.802786
L 68.530718 245.81828
L 80.384915 254.876814
L 92.239113 261.295583
L 104.09331 265.909448
L 115.947508 268.981734
L 127.801705 271.00781
L 139.655903 272.250751
L 151.5101 272.959065
L 163.364298 273.408844
L 175.218495 273.63291
L 187.072693 273.768488
L 198.92689 273.869148
L 210.781088 273.915687
L 222.635285 273.936288
L 234.489483 273.957637
L 246.343681 273.962825
L 258.197878 273.973649
L 270.052076 273.975644
L 281.906273 273.979834
L 293.760471 273.982777
L 305.614668 273.984623
L 317.468866 273.98567
L 329.323063 273.987616
L 341.177261 273.989162
L 353.031458 273.988364
L 364.885656 273.988813
L 376.739853 273.989112
L 388.594051 273.989112
" style="fill:none;stroke:#7cb5ec;stroke-linecap:square;"/>
   </g>
   <g id="line2d_7">
    <path clip-path="url(#p2071cded68)" d="M 32.968125 43.03082
L 44.822323 264.471322
L 56.67652 273.615402
L 68.530718 273.960431
L 80.384915 273.976792
L 92.239113 273.986419
L 104.09331 273.984224
L 115.947508 273.984822
L 127.801705 273.989062
L 139.655903 273.988913
L 151.5101 273.988913
L 163.364298 273.988713
L 175.218495 273.989611
L 187.072693 273.988564
L 198.92689 273.989661
L 210.781088 273.99001
L 222.635285 273.98996
L 234.489483 273.989761
L 246.343681 273.98996
L 258.197878 273.99001
L 270.052076 273.988713
" style="fill:none;stroke:#434348;stroke-linecap:square;"/>
   </g>
   <g id="line2d_8">
    <path clip-path="url(#p2071cded68)" d="M 32.968125 244.613299
L 44.822323 253.002427
L 56.67652 254.270358
L 68.530718 256.250843
L 80.384915 258.480983
L 92.239113 260.410141
L 104.09331 262.066298
L 115.947508 263.414787
L 127.801705 264.432814
L 139.655903 265.450092
L 151.5101 266.35798
L 163.364298 267.157377
L 175.218495 267.757847
L 187.072693 268.392137
L 198.92689 268.910603
L 210.781088 269.435603
L 222.635285 269.847024
L 234.489483 270.216195
L 246.343681 270.559128
L 258.197878 270.843701
L 270.052076 271.099093
L 281.906273 271.37763
L 293.760471 271.602843
L 305.614668 271.823269
L 317.468866 271.95276
L 329.323063 272.138319
L 341.177261 272.3141
L 353.031458 272.454616
L 364.885656 272.595231
L 376.739853 272.670751
L 388.594051 272.814908
L 400.448248 272.910829
L 412.302446 272.995578
L 424.156644 273.079278
L 436.010841 273.170711
L 447.865039 273.233761
L 459.719236 273.283891
L 471.573434 273.346392
L 483.427631 273.421563
L 495.281829 273.459124
L 507.136026 273.513594
L 518.990224 273.552502
L 530.844421 273.612409
L 542.698619 273.629468
L 554.552816 273.665034
L 566.407014 273.701447
L 578.261211 273.72559
L 590.115409 273.755369
L 601.969606 273.778115
L 613.823804 273.797069
L 625.678002 273.821062
L 637.532199 273.845355
L 649.386397 273.849944
L 661.240594 273.861815
L 673.094792 273.874685
L 684.948989 273.881369
L 696.803187 273.898678
L 708.657384 273.91005
L 720.511582 273.914739
L 732.365779 273.920875
L 744.219977 273.929005
L 756.074174 273.939331
L 767.928372 273.943521
L 779.782569 273.945217
L 791.636767 273.950803
L 803.490965 273.957188
L 815.345162 273.958535
L 827.19936 273.963423
L 839.053557 273.965568
L 850.907755 273.96901
L 862.761952 273.972053
L 874.61615 273.974098
L 886.470347 273.974996
L 898.324545 273.975944
L 910.178742 273.976991
L 922.03294 273.978188
L 933.887137 273.978238
L 945.741335 273.978936
L 957.595532 273.979385
L 969.44973 273.981979
L 981.303927 273.982578
L 993.158125 273.983176
" style="fill:none;stroke:#90ed7d;stroke-linecap:square;"/>
   </g>
   <g id="line2d_9">
    <path clip-path="url(#p2071cded68)" d="M 32.968125 231.28957
L 44.822323 240.182398
L 56.67652 242.648277
L 68.530718 246.769466
L 80.384915 250.86741
L 92.239113 254.92036
L 104.09331 258.651926
L 115.947508 261.750899
L 127.801705 264.55632
L 139.655903 266.839085
L 151.5101 268.620843
L 163.364298 270.089945
L 175.218495 271.165135
L 187.072693 271.93605
L 198.92689 272.541758
L 210.781088 272.964601
L 222.635285 273.23396
L 234.489483 273.463314
L 246.343681 273.604678
L 258.197878 273.70883
L 270.052076 273.781157
L 281.906273 273.843609
L 293.760471 273.886407
L 305.614668 273.909003
L 317.468866 273.921374
L 329.323063 273.933694
L 341.177261 273.944069
L 353.031458 273.949606
L 364.885656 273.959982
L 376.739853 273.963523
L 388.594051 273.969459
L 400.448248 273.975345
L 412.302446 273.976891
L 424.156644 273.976692
L 436.010841 273.979136
L 447.865039 273.980034
L 459.719236 273.984523
L 471.573434 273.983825
L 483.427631 273.98567
L 495.281829 273.986818
L 507.136026 273.987616
L 518.990224 273.988115
L 530.844421 273.987865
L 542.698619 273.988414
L 554.552816 273.988464
L 566.407014 273.989362
L 578.261211 273.989312
L 590.115409 273.989661
L 601.969606 273.989761
L 613.823804 273.98996
L 625.678002 273.98986
L 637.532199 273.99001
L 649.386397 273.98996
" style="fill:none;stroke:#f7a35c;stroke-linecap:square;"/>
   </g>
   <g id="line2d_10">
    <path clip-path="url(#p2071cded68)" d="M 32.968125 259.518414
L 44.822323 268.524821
L 56.67652 267.841897
L 68.530718 267.362389
L 80.384915 267.296446
L 92.239113 267.199626
L 104.09331 267.329966
L 115.947508 267.351814
L 127.801705 267.541512
L 139.655903 267.696643
L 151.5101 267.774807
L 163.364298 267.970441
L 175.218495 268.194258
L 187.072693 268.333926
L 198.92689 268.506864
L 210.781088 268.720655
L 222.635285 268.793482
L 234.489483 268.967069
L 246.343681 269.199515
L 258.197878 269.340729
L 270.052076 269.450019
L 281.906273 269.483738
L 293.760471 269.646651
L 305.614668 269.78537
L 317.468866 269.892565
L 329.323063 270.012081
L 341.177261 270.167461
L 353.031458 270.28937
L 364.885656 270.381401
L 376.739853 270.489444
L 388.594051 270.609808
L 400.448248 270.758953
L 412.302446 270.881261
L 424.156644 270.998782
L 436.010841 271.088717
L 447.865039 271.197209
L 459.719236 271.278416
L 471.573434 271.397482
L 483.427631 271.45724
L 495.281829 271.581993
L 507.136026 271.658212
L 518.990224 271.790297
L 530.844421 271.878637
L 542.698619 271.98214
L 554.552816 272.017955
L 566.407014 272.093176
L 578.261211 272.160615
L 590.115409 272.227806
L 601.969606 272.311357
L 613.823804 272.38533
L 625.678002 272.446485
L 637.532199 272.533029
L 649.386397 272.588696
L 661.240594 272.670402
L 673.094792 272.7341
L 684.948989 272.787772
L 696.803187 272.852867
L 708.657384 272.878806
L 720.511582 272.939761
L 732.365779 272.983506
L 744.219977 273.047853
L 756.074174 273.097285
L 767.928372 273.146718
L 779.782569 273.212162
L 791.636767 273.246281
L 803.490965 273.299604
L 815.345162 273.332974
L 827.19936 273.377069
L 839.053557 273.423708
L 850.907755 273.44416
L 862.761952 273.489751
L 874.61615 273.518483
L 886.470347 273.546117
L 898.324545 273.567067
L 910.178742 273.610264
L 922.03294 273.640991
L 933.887137 273.671369
L 945.741335 273.680647
L 957.595532 273.707583
L 969.44973 273.723594
L 981.303927 273.744096
L 993.158125 273.765594
" style="fill:none;stroke:#8085e9;stroke-linecap:square;"/>
   </g>
   <g id="line2d_11">
    <path clip-path="url(#p2071cded68)" d="M 32.968125 244.497575
L 44.822323 250.393887
L 56.67652 249.657939
L 68.530718 250.949664
L 80.384915 252.865552
L 92.239113 254.996729
L 104.09331 257.208214
L 115.947508 259.477661
L 127.801705 261.549279
L 139.655903 263.475842
L 151.5101 265.187617
L 163.364298 266.645296
L 175.218495 267.951536
L 187.072693 269.009218
L 198.92689 270.049591
L 210.781088 270.771572
L 222.635285 271.437337
L 234.489483 271.964931
L 246.343681 272.400395
L 258.197878 272.751409
L 270.052076 273.009195
L 281.906273 273.254761
L 293.760471 273.43159
L 305.614668 273.553749
L 317.468866 273.650668
L 329.323063 273.736314
L 341.177261 273.795324
L 353.031458 273.828445
L 364.885656 273.855431
L 376.739853 273.885509
L 388.594051 273.909901
L 400.448248 273.926511
L 412.302446 273.940129
L 424.156644 273.949307
L 436.010841 273.9523
L 447.865039 273.960031
L 459.719236 273.965718
L 471.573434 273.970756
L 483.427631 273.975395
L 495.281829 273.976941
L 507.136026 273.979735
L 518.990224 273.980333
L 530.844421 273.981979
L 542.698619 273.983725
L 554.552816 273.985222
L 566.407014 273.984822
L 578.261211 273.986219
L 590.115409 273.98572
L 601.969606 273.986618
L 613.823804 273.987017
L 625.678002 273.987566
L 637.532199 273.987366
L 649.386397 273.987666
L 661.240594 273.987267
L 673.094792 273.986818
L 684.948989 273.989162
L 696.803187 273.989312
L 708.657384 273.988913
L 720.511582 273.988214
L 732.365779 273.989312
L 744.219977 273.989212
L 756.074174 273.989761
L 767.928372 273.989511
L 779.782569 273.989362
L 791.636767 273.989212
L 803.490965 273.989362
L 815.345162 273.989611
L 827.19936 273.989362
L 839.053557 273.989661
L 850.907755 273.989511
L 862.761952 273.989511
L 874.61615 273.989661
L 886.470347 273.98991
L 898.324545 273.98991
L 910.178742 273.989811
L 922.03294 273.98991
L 933.887137 273.99001
L 945.741335 273.99001
" style="fill:none;stroke:#f15c80;stroke-linecap:square;"/>
   </g>
   <g id="line2d_12">
    <path clip-path="url(#p2071cded68)" d="M 32.968125 259.15867
L 44.822323 268.881522
L 56.67652 268.249377
L 68.530718 267.598726
L 80.384915 267.294052
L 92.239113 267.027935
L 104.09331 266.905377
L 115.947508 266.79499
L 127.801705 266.777531
L 139.655903 266.81599
L 151.5101 266.752092
L 163.364298 266.770947
L 175.218495 266.842277
L 187.072693 266.84936
L 198.92689 266.909367
L 210.781088 267.073826
L 222.635285 267.123059
L 234.489483 267.266567
L 246.343681 267.336201
L 258.197878 267.542859
L 270.052076 267.679584
L 281.906273 267.946249
L 293.760471 268.069406
L 305.614668 268.233365
L 317.468866 268.494095
L 329.323063 268.727688
L 341.177261 268.923572
L 353.031458 269.112223
L 364.885656 269.346715
L 376.739853 269.635028
L 388.594051 269.890769
L 400.448248 270.148207
L 412.302446 270.43642
L 424.156644 270.696052
L 436.010841 270.920318
L 447.865039 271.188929
L 459.719236 271.411848
L 471.573434 271.67986
L 483.427631 271.905772
L 495.281829 272.109836
L 507.136026 272.320934
L 518.990224 272.481901
L 530.844421 272.663269
L 542.698619 272.790566
L 554.552816 272.931181
L 566.407014 273.069901
L 578.261211 273.197297
L 590.115409 273.314219
L 601.969606 273.403457
L 613.823804 273.471544
L 625.678002 273.543074
L 637.532199 273.604129
L 649.386397 273.655307
L 661.240594 273.714865
L 673.094792 273.755319
L 684.948989 273.785846
L 696.803187 273.815825
L 708.657384 273.833932
L 720.511582 273.857625
L 732.365779 273.881219
L 744.219977 273.896233
L 756.074174 273.909103
L 767.928372 273.911796
L 779.782569 273.924067
L 791.636767 273.927708
L 803.490965 273.934442
L 815.345162 273.93968
L 827.19936 273.946314
L 839.053557 273.948409
L 850.907755 273.950504
L 862.761952 273.953397
L 874.61615 273.953996
L 886.470347 273.954096
L 898.324545 273.959682
L 910.178742 273.959383
L 922.03294 273.963324
L 933.887137 273.961628
L 945.741335 273.966117
L 957.595532 273.964521
L 969.44973 273.967963
L 981.303927 273.969659
L 993.158125 273.9733
" style="fill:none;stroke:#e4d354;stroke-linecap:square;"/>
   </g>
   <g id="line2d_13">
    <path clip-path="url(#p2071cded68)" d="M 32.968125 222.104288
L 44.822323 241.537671
L 56.67652 248.941794
L 68.530718 254.117472
L 80.384915 257.702587
L 92.239113 260.368041
L 104.09331 262.453276
L 115.947508 264.113474
L 127.801705 265.452735
L 139.655903 266.619707
L 151.5101 267.539916
L 163.364298 268.446658
L 175.218495 269.199216
L 187.072693 269.862587
L 198.92689 270.480765
L 210.781088 270.913335
L 222.635285 271.381221
L 234.489483 271.748497
L 246.343681 272.103501
L 258.197878 272.403038
L 270.052076 272.617578
L 281.906273 272.82638
L 293.760471 273.036331
L 305.614668 273.164176
L 317.468866 273.316763
L 329.323063 273.440219
L 341.177261 273.543773
L 353.031458 273.624131
L 364.885656 273.703642
L 376.739853 273.759359
L 388.594051 273.793678
L 400.448248 273.82186
L 412.302446 273.837473
L 424.156644 273.868998
L 436.010841 273.886606
L 447.865039 273.907207
L 459.719236 273.919378
L 471.573434 273.930153
L 483.427631 273.935141
L 495.281829 273.938732
L 507.136026 273.945566
L 518.990224 273.950105
L 530.844421 273.953896
L 542.698619 273.956789
L 554.552816 273.959483
L 566.407014 273.964172
L 578.261211 273.965917
L 590.115409 273.966915
L 601.969606 273.970008
L 613.823804 273.968262
L 625.678002 273.969808
L 637.532199 273.969908
L 649.386397 273.973499
L 661.240594 273.973849
L 673.094792 273.977889
L 684.948989 273.976393
L 696.803187 273.975894
L 708.657384 273.97739
L 720.511582 273.979784
L 732.365779 273.981979
L 744.219977 273.983326
L 756.074174 273.983476
L 767.928372 273.982927
L 779.782569 273.984124
L 791.636767 273.98577
L 803.490965 273.986169
L 815.345162 273.986917
L 827.19936 273.987416
L 839.053557 273.987267
L 850.907755 273.987366
L 862.761952 273.987117
L 874.61615 273.987317
L 886.470347 273.987267
L 898.324545 273.987616
L 910.178742 273.987317
L 922.03294 273.987117
L 933.887137 273.987416
L 945.741335 273.988364
L 957.595532 273.988464
L 969.44973 273.988564
L 981.303927 273.987865
L 993.158125 273.987616
" style="fill:none;stroke:#2b908f;stroke-linecap:square;"/>
   </g>
   <g id="line2d_14">
    <path clip-path="url(#p2071cded68)" d="M 32.968125 228.581567
L 44.822323 247.105765
L 56.67652 253.256123
L 68.530718 257.101967
L 80.384915 259.52415
L 92.239113 261.524887
L 104.09331 262.986557
L 115.947508 264.321678
L 127.801705 265.373025
L 139.655903 266.158854
L 151.5101 266.855246
L 163.364298 267.564009
L 175.218495 268.137344
L 187.072693 268.63451
L 198.92689 269.248499
L 210.781088 269.637872
L 222.635285 270.069793
L 234.489483 270.494233
L 246.343681 270.889591
L 258.197878 271.214867
L 270.052076 271.53276
L 281.906273 271.819178
L 293.760471 272.0621
L 305.614668 272.330461
L 317.468866 272.555176
L 329.323063 272.748616
L 341.177261 272.896364
L 353.031458 273.042117
L 364.885656 273.157891
L 376.739853 273.277357
L 388.594051 273.365846
L 400.448248 273.461967
L 412.302446 273.539084
L 424.156644 273.590362
L 436.010841 273.642986
L 447.865039 273.703891
L 459.719236 273.72564
L 471.573434 273.768338
L 483.427631 273.796371
L 495.281829 273.814079
L 507.136026 273.839419
L 518.990224 273.858872
L 530.844421 273.876131
L 542.698619 273.883264
L 554.552816 273.894537
L 566.407014 273.904613
L 578.261211 273.911697
L 590.115409 273.916385
L 601.969606 273.926262
L 613.823804 273.931799
L 625.678002 273.936737
L 637.532199 273.944419
L 649.386397 273.947661
L 661.240594 273.950903
L 673.094792 273.952749
L 684.948989 273.958236
L 696.803187 273.958485
L 708.657384 273.959533
L 720.511582 273.960431
L 732.365779 273.962376
L 744.219977 273.962625
L 756.074174 273.96482
L 767.928372 273.966466
L 779.782569 273.969459
L 791.636767 273.971604
L 803.490965 273.972452
L 815.345162 273.974148
L 827.19936 273.97325
L 839.053557 273.974697
L 850.907755 273.97759
L 862.761952 273.978887
L 874.61615 273.977939
L 886.470347 273.979984
L 898.324545 273.980982
L 910.178742 273.982727
L 922.03294 273.98163
L 933.887137 273.982129
L 945.741335 273.982877
L 957.595532 273.982528
L 969.44973 273.984074
L 981.303927 273.983625
L 993.158125 273.984174
" style="fill:none;stroke:#f45b5b;stroke-linecap:square;"/>
   </g>
   <g id="line2d_15">
    <path clip-path="url(#p2071cded68)" d="M 32.968125 60.119386
L 44.822323 251.220319
L 56.67652 270.692012
L 68.530718 273.350682
L 80.384915 273.842362
L 92.239113 273.933345
L 104.09331 273.938134
L 115.947508 273.959084
L 127.801705 273.973549
L 139.655903 273.978039
L 151.5101 273.983226
L 163.364298 273.982977
L 175.218495 273.986668
L 187.072693 273.987017
L 198.92689 273.989162
L 210.781088 273.989761
L 222.635285 273.99001
L 234.489483 273.98986
L 246.343681 273.989711
L 258.197878 273.989711
L 270.052076 273.988613
L 281.906273 273.989711
L 293.760471 273.988863
" style="fill:none;stroke:#91e8e1;stroke-linecap:square;"/>
   </g>
   <g id="line2d_16">
    <path clip-path="url(#p2071cded68)" d="M 32.968125 146.158597
L 44.822323 224.26644
L 56.67652 248.389758
L 68.530718 259.507789
L 80.384915 265.380856
L 92.239113 268.71033
L 104.09331 270.68448
L 115.947508 271.962387
L 127.801705 272.717739
L 139.655903 273.167269
L 151.5101 273.466906
L 163.364298 273.628471
L 175.218495 273.751029
L 187.072693 273.820963
L 198.92689 273.872241
L 210.781088 273.904164
L 222.635285 273.928407
L 234.489483 273.938882
L 246.343681 273.955343
L 258.197878 273.956789
L 270.052076 273.966267
L 281.906273 273.974447
L 293.760471 273.972602
L 305.614668 273.973948
L 317.468866 273.977041
L 329.323063 273.981081
L 341.177261 273.981281
L 353.031458 273.98183
L 364.885656 273.98168
L 376.739853 273.981181
L 388.594051 273.982279
L 400.448248 273.984074
L 412.302446 273.983276
L 424.156644 273.983176
L 436.010841 273.984623
L 447.865039 273.984374
L 459.719236 273.986119
L 471.573434 273.98587
L 483.427631 273.986269
L 495.281829 273.986618
L 507.136026 273.985321
L 518.990224 273.985122
L 530.844421 273.986369
L 542.698619 273.986818
L 554.552816 273.986917
L 566.407014 273.986568
L 578.261211 273.986568
L 590.115409 273.986568
L 601.969606 273.987067
L 613.823804 273.986219
L 625.678002 273.986419
L 637.532199 273.986169
L 649.386397 273.986967
L 661.240594 273.986169
L 673.094792 273.987416
L 684.948989 273.986718
L 696.803187 273.987017
L 708.657384 273.986668
L 720.511582 273.985321
L 732.365779 273.985471
L 744.219977 273.987516
L 756.074174 273.987117
L 767.928372 273.987666
L 779.782569 273.987965
L 791.636767 273.988663
L 803.490965 273.987815
L 815.345162 273.988065
L 827.19936 273.988813
L 839.053557 273.988813
L 850.907755 273.989062
L 862.761952 273.988663
L 874.61615 273.989212
L 886.470347 273.989412
L 898.324545 273.989162
L 910.178742 273.989262
L 922.03294 273.989062
L 933.887137 273.989461
L 945.741335 273.989561
L 957.595532 273.989461
L 969.44973 273.98996
L 981.303927 273.98996
L 993.158125 273.98986
" style="fill:none;stroke:#7cb5ec;stroke-linecap:square;"/>
   </g>
   <g id="line2d_17">
    <path clip-path="url(#p2071cded68)" d="M 32.968125 224.817179
L 44.822323 245.872252
L 56.67652 252.393377
L 68.530718 256.626449
L 80.384915 259.805231
L 92.239113 261.969628
L 104.09331 263.532706
L 115.947508 264.932025
L 127.801705 265.960227
L 139.655903 266.770049
L 151.5101 267.524054
L 163.364298 268.13909
L 175.218495 268.653814
L 187.072693 269.101798
L 198.92689 269.567639
L 210.781088 269.969582
L 222.635285 270.309423
L 234.489483 270.649563
L 246.343681 271.02472
L 258.197878 271.324955
L 270.052076 271.573214
L 281.906273 271.813891
L 293.760471 272.076615
L 305.614668 272.277537
L 317.468866 272.502601
L 329.323063 272.646858
L 341.177261 272.815407
L 353.031458 272.947342
L 364.885656 273.06192
L 376.739853 273.193706
L 388.594051 273.291224
L 400.448248 273.383105
L 412.302446 273.480473
L 424.156644 273.549409
L 436.010841 273.631563
L 447.865039 273.692369
L 459.719236 273.74639
L 471.573434 273.776269
L 483.427631 273.818917
L 495.281829 273.84286
L 507.136026 273.864758
L 518.990224 273.881768
L 530.844421 273.900922
L 542.698619 273.914889
L 554.552816 273.924666
L 566.407014 273.934841
L 578.261211 273.942174
L 590.115409 273.945366
L 601.969606 273.950454
L 613.823804 273.954445
L 625.678002 273.956241
L 637.532199 273.957587
L 649.386397 273.957837
L 661.240594 273.962775
L 673.094792 273.961678
L 684.948989 273.965568
L 696.803187 273.968212
L 708.657384 273.968212
L 720.511582 273.970856
L 732.365779 273.972203
L 744.219977 273.97325
L 756.074174 273.97315
L 767.928372 273.975594
L 779.782569 273.978288
L 791.636767 273.979784
L 803.490965 273.980333
L 815.345162 273.979186
L 827.19936 273.98163
L 839.053557 273.981879
L 850.907755 273.983526
L 862.761952 273.983526
L 874.61615 273.983526
L 886.470347 273.984473
L 898.324545 273.984274
L 910.178742 273.985621
L 922.03294 273.98607
L 933.887137 273.987416
L 945.741335 273.987117
L 957.595532 273.987466
L 969.44973 273.987317
L 981.303927 273.987017
L 993.158125 273.987267
" style="fill:none;stroke:#434348;stroke-linecap:square;"/>
   </g>
   <g id="line2d_18">
    <path clip-path="url(#p2071cded68)" d="M 32.968125 192.352719
L 44.822323 224.440576
L 56.67652 241.629453
L 68.530718 252.310923
L 80.384915 258.813691
L 92.239113 263.253571
L 104.09331 266.3918
L 115.947508 268.450249
L 127.801705 269.876703
L 139.655903 271.035793
L 151.5101 271.753185
L 163.364298 272.264867
L 175.218495 272.689955
L 187.072693 273.021366
L 198.92689 273.236454
L 210.781088 273.402359
L 222.635285 273.52387
L 234.489483 273.649122
L 246.343681 273.729231
L 258.197878 273.791882
L 270.052076 273.842611
L 281.906273 273.868499
L 293.760471 273.895535
L 305.614668 273.910699
L 317.468866 273.931799
L 329.323063 273.946514
L 341.177261 273.954096
L 353.031458 273.958186
L 364.885656 273.963124
L 376.739853 273.96906
L 388.594051 273.974796
L 400.448248 273.976243
L 412.302446 273.980383
L 424.156644 273.98168
L 436.010841 273.985571
L 447.865039 273.986518
L 459.719236 273.98602
L 471.573434 273.987267
L 483.427631 273.986668
L 495.281829 273.988264
L 507.136026 273.988663
L 518.990224 273.989461
L 530.844421 273.989362
L 542.698619 273.989461
L 554.552816 273.989661
L 566.407014 273.989212
L 578.261211 273.989561
L 590.115409 273.989511
L 601.969606 273.989611
L 613.823804 273.989711
L 625.678002 273.98991
L 637.532199 273.98991
L 649.386397 273.98991
L 673.094792 273.98991
L 684.948989 273.989811
L 696.803187 273.98996
L 708.657384 273.989811
L 720.511582 273.98986
L 732.365779 273.98986
L 744.219977 273.98996
" style="fill:none;stroke:#90ed7d;stroke-linecap:square;"/>
   </g>
   <g id="line2d_19">
    <path clip-path="url(#p2071cded68)" d="M 32.968125 261.066378
L 44.822323 270.458518
L 56.67652 269.71848
L 68.530718 268.995601
L 80.384915 268.818323
L 92.239113 268.518437
L 104.09331 268.362009
L 115.947508 268.301204
L 127.801705 268.338166
L 139.655903 268.301453
L 151.5101 268.316068
L 163.364298 268.373831
L 175.218495 268.476786
L 187.072693 268.549163
L 198.92689 268.617601
L 210.781088 268.671023
L 222.635285 268.759213
L 234.489483 268.831042
L 246.343681 268.850895
L 258.197878 268.969363
L 270.052076 269.044734
L 281.906273 269.164648
L 293.760471 269.266855
L 305.614668 269.345917
L 317.468866 269.466879
L 329.323063 269.557114
L 341.177261 269.646701
L 353.031458 269.741475
L 364.885656 269.8148
L 376.739853 269.950028
L 388.594051 270.068197
L 400.448248 270.134689
L 412.302446 270.270515
L 424.156644 270.338354
L 436.010841 270.41971
L 447.865039 270.563717
L 459.719236 270.66358
L 471.573434 270.768829
L 483.427631 270.851582
L 495.281829 270.993095
L 507.136026 271.073853
L 518.990224 271.16329
L 530.844421 271.264698
L 542.698619 271.371095
L 554.552816 271.451853
L 566.407014 271.571119
L 578.261211 271.692031
L 590.115409 271.781967
L 601.969606 271.874447
L 613.823804 271.970368
L 625.678002 272.109238
L 637.532199 272.186404
L 649.386397 272.296342
L 661.240594 272.389271
L 673.094792 272.487886
L 684.948989 272.610245
L 696.803187 272.710257
L 708.657384 272.795903
L 720.511582 272.876112
L 732.365779 272.96505
L 744.219977 273.059625
L 756.074174 273.133
L 767.928372 273.189366
L 779.782569 273.271221
L 791.636767 273.342003
L 803.490965 273.401062
L 815.345162 273.445207
L 827.19936 273.499877
L 839.053557 273.565471
L 850.907755 273.605575
L 862.761952 273.646528
L 874.61615 273.681844
L 886.470347 273.723894
L 898.324545 273.751029
L 910.178742 273.779511
L 922.03294 273.810288
L 933.887137 273.836077
L 945.741335 273.854383
L 957.595532 273.869547
L 969.44973 273.883015
L 981.303927 273.895735
L 993.158125 273.908355
" style="fill:none;stroke:#f7a35c;stroke-linecap:square;"/>
   </g>
   <g id="line2d_20">
    <path clip-path="url(#p2071cded68)" d="M 32.968125 46.13029
L 44.822323 261.837842
L 56.67652 273.263739
L 68.530718 273.911697
L 80.384915 273.962176
L 92.239113 273.974098
L 104.09331 273.97345
L 115.947508 273.984024
L 127.801705 273.982977
L 139.655903 273.985371
L 151.5101 273.988314
L 163.364298 273.987416
L 175.218495 273.988214
L 187.072693 273.988863
L 198.92689 273.988464
L 210.781088 273.988264
L 222.635285 273.988414
L 234.489483 273.988963
L 246.343681 273.989012
L 258.197878 273.987965
L 270.052076 273.988963
L 281.906273 273.989162
L 293.760471 273.987865
L 305.614668 273.98986
L 317.468866 273.989761
L 329.323063 273.989412
L 341.177261 273.989262
L 353.031458 273.989711
L 364.885656 273.98996
L 376.739853 273.99001
L 388.594051 273.989162
" style="fill:none;stroke:#8085e9;stroke-linecap:square;"/>
   </g>
   <g id="line2d_21">
    <path clip-path="url(#p2071cded68)" d="M 32.968125 273.99006
L 993.158125 273.99006
" style="fill:none;stroke:#dedede;stroke-linecap:square;stroke-width:2;"/>
   </g>
   <g id="text_18">
    <!-- Qualimap BamQC: Coverage histogram -->
    <g transform="translate(355.299375 19.3575)scale(0.16 -0.16)">
     <defs>
      <path d="M 39.40625 66.21875
Q 28.65625 66.21875 22.328125 58.203125
Q 16.015625 50.203125 16.015625 36.375
Q 16.015625 22.609375 22.328125 14.59375
Q 28.65625 6.59375 39.40625 6.59375
Q 50.140625 6.59375 56.421875 14.59375
Q 62.703125 22.609375 62.703125 36.375
Q 62.703125 50.203125 56.421875 58.203125
Q 50.140625 66.21875 39.40625 66.21875
z
M 53.21875 1.3125
L 66.21875 -12.890625
L 54.296875 -12.890625
L 43.5 -1.21875
Q 41.890625 -1.3125 41.03125 -1.359375
Q 40.1875 -1.421875 39.40625 -1.421875
Q 24.03125 -1.421875 14.8125 8.859375
Q 5.609375 19.140625 5.609375 36.375
Q 5.609375 53.65625 14.8125 63.9375
Q 24.03125 74.21875 39.40625 74.21875
Q 54.734375 74.21875 63.90625 63.9375
Q 73.09375 53.65625 73.09375 36.375
Q 73.09375 23.6875 67.984375 14.640625
Q 62.890625 5.609375 53.21875 1.3125
z
" id="DejaVuSans-81"/>
      <path d="M 9.421875 75.984375
L 18.40625 75.984375
L 18.40625 0
L 9.421875 0
z
" id="DejaVuSans-108"/>
      <path d="M 18.109375 8.203125
L 18.109375 -20.796875
L 9.078125 -20.796875
L 9.078125 54.6875
L 18.109375 54.6875
L 18.109375 46.390625
Q 20.953125 51.265625 25.265625 53.625
Q 29.59375 56 35.59375 56
Q 45.5625 56 51.78125 48.09375
Q 58.015625 40.1875 58.015625 27.296875
Q 58.015625 14.40625 51.78125 6.484375
Q 45.5625 -1.421875 35.59375 -1.421875
Q 29.59375 -1.421875 25.265625 0.953125
Q 20.953125 3.328125 18.109375 8.203125
z
M 48.6875 27.296875
Q 48.6875 37.203125 44.609375 42.84375
Q 40.53125 48.484375 33.40625 48.484375
Q 26.265625 48.484375 22.1875 42.84375
Q 18.109375 37.203125 18.109375 27.296875
Q 18.109375 17.390625 22.1875 11.75
Q 26.265625 6.109375 33.40625 6.109375
Q 40.53125 6.109375 44.609375 11.75
Q 48.6875 17.390625 48.6875 27.296875
z
" id="DejaVuSans-112"/>
      <path d="M 19.671875 34.8125
L 19.671875 8.109375
L 35.5 8.109375
Q 43.453125 8.109375 47.28125 11.40625
Q 51.125 14.703125 51.125 21.484375
Q 51.125 28.328125 47.28125 31.5625
Q 43.453125 34.8125 35.5 34.8125
z
M 19.671875 64.796875
L 19.671875 42.828125
L 34.28125 42.828125
Q 41.5 42.828125 45.03125 45.53125
Q 48.578125 48.25 48.578125 53.8125
Q 48.578125 59.328125 45.03125 62.0625
Q 41.5 64.796875 34.28125 64.796875
z
M 9.8125 72.90625
L 35.015625 72.90625
Q 46.296875 72.90625 52.390625 68.21875
Q 58.5 63.53125 58.5 54.890625
Q 58.5 48.1875 55.375 44.234375
Q 52.25 40.28125 46.1875 39.3125
Q 53.46875 37.75 57.5 32.78125
Q 61.53125 27.828125 61.53125 20.40625
Q 61.53125 10.640625 54.890625 5.3125
Q 48.25 0 35.984375 0
L 9.8125 0
z
" id="DejaVuSans-66"/>
      <path d="M 11.71875 12.40625
L 22.015625 12.40625
L 22.015625 0
L 11.71875 0
z
M 11.71875 51.703125
L 22.015625 51.703125
L 22.015625 39.3125
L 11.71875 39.3125
z
" id="DejaVuSans-58"/>
      <path d="M 54.890625 33.015625
L 54.890625 0
L 45.90625 0
L 45.90625 32.71875
Q 45.90625 40.484375 42.875 44.328125
Q 39.84375 48.1875 33.796875 48.1875
Q 26.515625 48.1875 22.3125 43.546875
Q 18.109375 38.921875 18.109375 30.90625
L 18.109375 0
L 9.078125 0
L 9.078125 75.984375
L 18.109375 75.984375
L 18.109375 46.1875
Q 21.34375 51.125 25.703125 53.5625
Q 30.078125 56 35.796875 56
Q 45.21875 56 50.046875 50.171875
Q 54.890625 44.34375 54.890625 33.015625
z
" id="DejaVuSans-104"/>
     </defs>
     <use xlink:href="#DejaVuSans-81"/>
     <use x="78.710938" xlink:href="#DejaVuSans-117"/>
     <use x="142.089844" xlink:href="#DejaVuSans-97"/>
     <use x="203.369141" xlink:href="#DejaVuSans-108"/>
     <use x="231.152344" xlink:href="#DejaVuSans-105"/>
     <use x="258.935547" xlink:href="#DejaVuSans-109"/>
     <use x="356.347656" xlink:href="#DejaVuSans-97"/>
     <use x="417.626953" xlink:href="#DejaVuSans-112"/>
     <use x="481.103516" xlink:href="#DejaVuSans-32"/>
     <use x="512.890625" xlink:href="#DejaVuSans-66"/>
     <use x="581.494141" xlink:href="#DejaVuSans-97"/>
     <use x="642.773438" xlink:href="#DejaVuSans-109"/>
     <use x="740.185547" xlink:href="#DejaVuSans-81"/>
     <use x="818.896484" xlink:href="#DejaVuSans-67"/>
     <use x="888.720703" xlink:href="#DejaVuSans-58"/>
     <use x="922.412109" xlink:href="#DejaVuSans-32"/>
     <use x="954.199219" xlink:href="#DejaVuSans-67"/>
     <use x="1024.023438" xlink:href="#DejaVuSans-111"/>
     <use x="1085.205078" xlink:href="#DejaVuSans-118"/>
     <use x="1144.384766" xlink:href="#DejaVuSans-101"/>
     <use x="1205.908203" xlink:href="#DejaVuSans-114"/>
     <use x="1247.021484" xlink:href="#DejaVuSans-97"/>
     <use x="1308.300781" xlink:href="#DejaVuSans-103"/>
     <use x="1371.777344" xlink:href="#DejaVuSans-101"/>
     <use x="1433.300781" xlink:href="#DejaVuSans-32"/>
     <use x="1465.087891" xlink:href="#DejaVuSans-104"/>
     <use x="1528.466797" xlink:href="#DejaVuSans-105"/>
     <use x="1556.25" xlink:href="#DejaVuSans-115"/>
     <use x="1608.349609" xlink:href="#DejaVuSans-116"/>
     <use x="1647.558594" xlink:href="#DejaVuSans-111"/>
     <use x="1708.740234" xlink:href="#DejaVuSans-103"/>
     <use x="1772.216797" xlink:href="#DejaVuSans-114"/>
     <use x="1813.330078" xlink:href="#DejaVuSans-97"/>
     <use x="1874.609375" xlink:href="#DejaVuSans-109"/>
    </g>
   </g>
   <g id="legend_1">
    <g id="line2d_22">
     <path d="M 40.168125 292.192894
L 56.168125 292.192894
" style="fill:none;stroke:#7cb5ec;stroke-linecap:square;"/>
    </g>
    <g id="line2d_23"/>
    <g id="text_19">
     <!-- D24 -->
     <g transform="translate(62.568125 294.992894)scale(0.08 -0.08)">
      <defs>
       <path d="M 19.671875 64.796875
L 19.671875 8.109375
L 31.59375 8.109375
Q 46.6875 8.109375 53.6875 14.9375
Q 60.6875 21.78125 60.6875 36.53125
Q 60.6875 51.171875 53.6875 57.984375
Q 46.6875 64.796875 31.59375 64.796875
z
M 9.8125 72.90625
L 30.078125 72.90625
Q 51.265625 72.90625 61.171875 64.09375
Q 71.09375 55.28125 71.09375 36.53125
Q 71.09375 17.671875 61.125 8.828125
Q 51.171875 0 30.078125 0
L 9.8125 0
z
" id="DejaVuSans-68"/>
      </defs>
      <use xlink:href="#DejaVuSans-68"/>
      <use x="77.001953" xlink:href="#DejaVuSans-50"/>
      <use x="140.625" xlink:href="#DejaVuSans-52"/>
     </g>
    </g>
    <g id="line2d_24">
     <path d="M 40.168125 303.935394
L 56.168125 303.935394
" style="fill:none;stroke:#434348;stroke-linecap:square;"/>
    </g>
    <g id="line2d_25"/>
    <g id="text_20">
     <!-- D25 -->
     <g transform="translate(62.568125 306.735394)scale(0.08 -0.08)">
      <use xlink:href="#DejaVuSans-68"/>
      <use x="77.001953" xlink:href="#DejaVuSans-50"/>
      <use x="140.625" xlink:href="#DejaVuSans-53"/>
     </g>
    </g>
    <g id="line2d_26">
     <path d="M 40.168125 315.677894
L 56.168125 315.677894
" style="fill:none;stroke:#90ed7d;stroke-linecap:square;"/>
    </g>
    <g id="line2d_27"/>
    <g id="text_21">
     <!-- D51 -->
     <g transform="translate(62.568125 318.477894)scale(0.08 -0.08)">
      <use xlink:href="#DejaVuSans-68"/>
      <use x="77.001953" xlink:href="#DejaVuSans-53"/>
      <use x="140.625" xlink:href="#DejaVuSans-49"/>
     </g>
    </g>
    <g id="line2d_28">
     <path d="M 265.204063 292.192894
L 281.204063 292.192894
" style="fill:none;stroke:#f7a35c;stroke-linecap:square;"/>
    </g>
    <g id="line2d_29"/>
    <g id="text_22">
     <!-- D62 -->
     <g transform="translate(287.604063 294.992894)scale(0.08 -0.08)">
      <use xlink:href="#DejaVuSans-68"/>
      <use x="77.001953" xlink:href="#DejaVuSans-54"/>
      <use x="140.625" xlink:href="#DejaVuSans-50"/>
     </g>
    </g>
    <g id="line2d_30">
     <path d="M 265.204063 303.935394
L 281.204063 303.935394
" style="fill:none;stroke:#8085e9;stroke-linecap:square;"/>
    </g>
    <g id="line2d_31"/>
    <g id="text_23">
     <!-- D71 -->
     <g transform="translate(287.604063 306.735394)scale(0.08 -0.08)">
      <use xlink:href="#DejaVuSans-68"/>
      <use x="77.001953" xlink:href="#DejaVuSans-55"/>
      <use x="140.625" xlink:href="#DejaVuSans-49"/>
     </g>
    </g>
    <g id="line2d_32">
     <path d="M 265.204063 315.677894
L 281.204063 315.677894
" style="fill:none;stroke:#f15c80;stroke-linecap:square;"/>
    </g>
    <g id="line2d_33"/>
    <g id="text_24">
     <!-- D72 -->
     <g transform="translate(287.604063 318.477894)scale(0.08 -0.08)">
      <use xlink:href="#DejaVuSans-68"/>
      <use x="77.001953" xlink:href="#DejaVuSans-55"/>
      <use x="140.625" xlink:href="#DejaVuSans-50"/>
     </g>
    </g>
    <g id="line2d_34">
     <path d="M 490.24 292.192894
L 506.24 292.192894
" style="fill:none;stroke:#e4d354;stroke-linecap:square;"/>
    </g>
    <g id="line2d_35"/>
    <g id="text_25">
     <!-- D75 -->
     <g transform="translate(512.64 294.992894)scale(0.08 -0.08)">
      <use xlink:href="#DejaVuSans-68"/>
      <use x="77.001953" xlink:href="#DejaVuSans-55"/>
      <use x="140.625" xlink:href="#DejaVuSans-53"/>
     </g>
    </g>
    <g id="line2d_36">
     <path d="M 490.24 303.935394
L 506.24 303.935394
" style="fill:none;stroke:#2b908f;stroke-linecap:square;"/>
    </g>
    <g id="line2d_37"/>
    <g id="text_26">
     <!-- P187 -->
     <g transform="translate(512.64 306.735394)scale(0.08 -0.08)">
      <defs>
       <path d="M 19.671875 64.796875
L 19.671875 37.40625
L 32.078125 37.40625
Q 38.96875 37.40625 42.71875 40.96875
Q 46.484375 44.53125 46.484375 51.125
Q 46.484375 57.671875 42.71875 61.234375
Q 38.96875 64.796875 32.078125 64.796875
z
M 9.8125 72.90625
L 32.078125 72.90625
Q 44.34375 72.90625 50.609375 67.359375
Q 56.890625 61.8125 56.890625 51.125
Q 56.890625 40.328125 50.609375 34.8125
Q 44.34375 29.296875 32.078125 29.296875
L 19.671875 29.296875
L 19.671875 0
L 9.8125 0
z
" id="DejaVuSans-80"/>
      </defs>
      <use xlink:href="#DejaVuSans-80"/>
      <use x="60.302734" xlink:href="#DejaVuSans-49"/>
      <use x="123.925781" xlink:href="#DejaVuSans-56"/>
      <use x="187.548828" xlink:href="#DejaVuSans-55"/>
     </g>
    </g>
    <g id="line2d_38">
     <path d="M 490.24 315.677894
L 506.24 315.677894
" style="fill:none;stroke:#f45b5b;stroke-linecap:square;"/>
    </g>
    <g id="line2d_39"/>
    <g id="text_27">
     <!-- P212 -->
     <g transform="translate(512.64 318.477894)scale(0.08 -0.08)">
      <use xlink:href="#DejaVuSans-80"/>
      <use x="60.302734" xlink:href="#DejaVuSans-50"/>
      <use x="123.925781" xlink:href="#DejaVuSans-49"/>
      <use x="187.548828" xlink:href="#DejaVuSans-50"/>
     </g>
    </g>
    <g id="line2d_40">
     <path d="M 719.029688 292.192894
L 735.029688 292.192894
" style="fill:none;stroke:#91e8e1;stroke-linecap:square;"/>
    </g>
    <g id="line2d_41"/>
    <g id="text_28">
     <!-- P246 -->
     <g transform="translate(741.429688 294.992894)scale(0.08 -0.08)">
      <use xlink:href="#DejaVuSans-80"/>
      <use x="60.302734" xlink:href="#DejaVuSans-50"/>
      <use x="123.925781" xlink:href="#DejaVuSans-52"/>
      <use x="187.548828" xlink:href="#DejaVuSans-54"/>
     </g>
    </g>
    <g id="line2d_42">
     <path d="M 719.029688 303.935394
L 735.029688 303.935394
" style="fill:none;stroke:#7cb5ec;stroke-linecap:square;"/>
    </g>
    <g id="line2d_43"/>
    <g id="text_29">
     <!-- P384 -->
     <g transform="translate(741.429688 306.735394)scale(0.08 -0.08)">
      <use xlink:href="#DejaVuSans-80"/>
      <use x="60.302734" xlink:href="#DejaVuSans-51"/>
      <use x="123.925781" xlink:href="#DejaVuSans-56"/>
      <use x="187.548828" xlink:href="#DejaVuSans-52"/>
     </g>
    </g>
    <g id="line2d_44">
     <path d="M 719.029688 315.677894
L 735.029688 315.677894
" style="fill:none;stroke:#434348;stroke-linecap:square;"/>
    </g>
    <g id="line2d_45"/>
    <g id="text_30">
     <!-- P387 -->
     <g transform="translate(741.429688 318.477894)scale(0.08 -0.08)">
      <use xlink:href="#DejaVuSans-80"/>
      <use x="60.302734" xlink:href="#DejaVuSans-51"/>
      <use x="123.925781" xlink:href="#DejaVuSans-56"/>
      <use x="187.548828" xlink:href="#DejaVuSans-55"/>
     </g>
    </g>
    <g id="line2d_46">
     <path d="M 947.819375 292.192894
L 963.819375 292.192894
" style="fill:none;stroke:#90ed7d;stroke-linecap:square;"/>
    </g>
    <g id="line2d_47"/>
    <g id="text_31">
     <!-- R21 -->
     <g transform="translate(970.219375 294.992894)scale(0.08 -0.08)">
      <defs>
       <path d="M 44.390625 34.1875
Q 47.5625 33.109375 50.5625 29.59375
Q 53.5625 26.078125 56.59375 19.921875
L 66.609375 0
L 56 0
L 46.6875 18.703125
Q 43.0625 26.03125 39.671875 28.421875
Q 36.28125 30.8125 30.421875 30.8125
L 19.671875 30.8125
L 19.671875 0
L 9.8125 0
L 9.8125 72.90625
L 32.078125 72.90625
Q 44.578125 72.90625 50.734375 67.671875
Q 56.890625 62.453125 56.890625 51.90625
Q 56.890625 45.015625 53.6875 40.46875
Q 50.484375 35.9375 44.390625 34.1875
z
M 19.671875 64.796875
L 19.671875 38.921875
L 32.078125 38.921875
Q 39.203125 38.921875 42.84375 42.21875
Q 46.484375 45.515625 46.484375 51.90625
Q 46.484375 58.296875 42.84375 61.546875
Q 39.203125 64.796875 32.078125 64.796875
z
" id="DejaVuSans-82"/>
      </defs>
      <use xlink:href="#DejaVuSans-82"/>
      <use x="69.482422" xlink:href="#DejaVuSans-50"/>
      <use x="133.105469" xlink:href="#DejaVuSans-49"/>
     </g>
    </g>
    <g id="line2d_48">
     <path d="M 947.819375 303.935394
L 963.819375 303.935394
" style="fill:none;stroke:#f7a35c;stroke-linecap:square;"/>
    </g>
    <g id="line2d_49"/>
    <g id="text_32">
     <!-- R36 -->
     <g transform="translate(970.219375 306.735394)scale(0.08 -0.08)">
      <use xlink:href="#DejaVuSans-82"/>
      <use x="69.482422" xlink:href="#DejaVuSans-51"/>
      <use x="133.105469" xlink:href="#DejaVuSans-54"/>
     </g>
    </g>
    <g id="line2d_50">
     <path d="M 947.819375 315.677894
L 963.819375 315.677894
" style="fill:none;stroke:#8085e9;stroke-linecap:square;"/>
    </g>
    <g id="line2d_51"/>
    <g id="text_33">
     <!-- R44 -->
     <g transform="translate(970.219375 318.477894)scale(0.08 -0.08)">
      <use xlink:href="#DejaVuSans-82"/>
      <use x="69.482422" xlink:href="#DejaVuSans-52"/>
      <use x="133.105469" xlink:href="#DejaVuSans-52"/>
     </g>
    </g>
   </g>
  </g>
 </g>
 <defs>
  <clipPath id="p2071cded68">
   <rect height="242.5072" width="960.19" x="32.968125" y="31.48286"/>
  </clipPath>
 </defs>
</svg>
