<?xml version="1.0" encoding="utf-8" standalone="no"?>
<!DOCTYPE svg PUBLIC "-//W3C//DTD SVG 1.1//EN"
  "http://www.w3.org/Graphics/SVG/1.1/DTD/svg11.dtd">
<!-- Created with matplotlib (https://matplotlib.org/) -->
<svg height="388.844525pt" version="1.1" viewBox="0 0 1000.318125 388.844525" width="1000.318125pt" xmlns="http://www.w3.org/2000/svg" xmlns:xlink="http://www.w3.org/1999/xlink">
 <metadata>
  <rdf:RDF xmlns:cc="http://creativecommons.org/ns#" xmlns:dc="http://purl.org/dc/elements/1.1/" xmlns:rdf="http://www.w3.org/1999/02/22-rdf-syntax-ns#">
   <cc:Work>
    <dc:type rdf:resource="http://purl.org/dc/dcmitype/StillImage"/>
    <dc:date>2021-03-05T10:29:16.289484</dc:date>
    <dc:format>image/svg+xml</dc:format>
    <dc:creator>
     <cc:Agent>
      <dc:title>Matplotlib v3.3.2, https://matplotlib.org/</dc:title>
     </cc:Agent>
    </dc:creator>
   </cc:Work>
  </rdf:RDF>
 </metadata>
 <defs>
  <style type="text/css">*{stroke-linecap:butt;stroke-linejoin:round;}</style>
 </defs>
 <g id="figure_1">
  <g id="axes_1">
   <g id="patch_1">
    <path d="M 38.058125 353.2239
L 993.118125 353.2239
L 993.118125 35.2559
L 38.058125 35.2559
z
" style="fill:#ffffff;"/>
   </g>
   <g id="matplotlib.axis_1">
    <g id="xtick_1">
     <g id="text_1">
      <!-- 2 -->
      <g transform="translate(105.480891 366.30265)scale(0.08 -0.08)">
       <defs>
        <path d="M 19.1875 8.296875
L 53.609375 8.296875
L 53.609375 0
L 7.328125 0
L 7.328125 8.296875
Q 12.9375 14.109375 22.625 23.890625
Q 32.328125 33.6875 34.8125 36.53125
Q 39.546875 41.84375 41.421875 45.53125
Q 43.3125 49.21875 43.3125 52.78125
Q 43.3125 58.59375 39.234375 62.25
Q 35.15625 65.921875 28.609375 65.921875
Q 23.96875 65.921875 18.8125 64.3125
Q 13.671875 62.703125 7.8125 59.421875
L 7.8125 69.390625
Q 13.765625 71.78125 18.9375 73
Q 24.125 74.21875 28.421875 74.21875
Q 39.75 74.21875 46.484375 68.546875
Q 53.21875 62.890625 53.21875 53.421875
Q 53.21875 48.921875 51.53125 44.890625
Q 49.859375 40.875 45.40625 35.40625
Q 44.1875 33.984375 37.640625 27.21875
Q 31.109375 20.453125 19.1875 8.296875
z
" id="DejaVuSans-50"/>
       </defs>
       <use xlink:href="#DejaVuSans-50"/>
      </g>
     </g>
    </g>
    <g id="xtick_2">
     <g id="text_2">
      <!-- 4 -->
      <g transform="translate(245.416422 366.30265)scale(0.08 -0.08)">
       <defs>
        <path d="M 37.796875 64.3125
L 12.890625 25.390625
L 37.796875 25.390625
z
M 35.203125 72.90625
L 47.609375 72.90625
L 47.609375 25.390625
L 58.015625 25.390625
L 58.015625 17.1875
L 47.609375 17.1875
L 47.609375 0
L 37.796875 0
L 37.796875 17.1875
L 4.890625 17.1875
L 4.890625 26.703125
z
" id="DejaVuSans-52"/>
       </defs>
       <use xlink:href="#DejaVuSans-52"/>
      </g>
     </g>
    </g>
    <g id="xtick_3">
     <g id="text_3">
      <!-- 6 -->
      <g transform="translate(385.351953 366.30265)scale(0.08 -0.08)">
       <defs>
        <path d="M 33.015625 40.375
Q 26.375 40.375 22.484375 35.828125
Q 18.609375 31.296875 18.609375 23.390625
Q 18.609375 15.53125 22.484375 10.953125
Q 26.375 6.390625 33.015625 6.390625
Q 39.65625 6.390625 43.53125 10.953125
Q 47.40625 15.53125 47.40625 23.390625
Q 47.40625 31.296875 43.53125 35.828125
Q 39.65625 40.375 33.015625 40.375
z
M 52.59375 71.296875
L 52.59375 62.3125
Q 48.875 64.0625 45.09375 64.984375
Q 41.3125 65.921875 37.59375 65.921875
Q 27.828125 65.921875 22.671875 59.328125
Q 17.53125 52.734375 16.796875 39.40625
Q 19.671875 43.65625 24.015625 45.921875
Q 28.375 48.1875 33.59375 48.1875
Q 44.578125 48.1875 50.953125 41.515625
Q 57.328125 34.859375 57.328125 23.390625
Q 57.328125 12.15625 50.6875 5.359375
Q 44.046875 -1.421875 33.015625 -1.421875
Q 20.359375 -1.421875 13.671875 8.265625
Q 6.984375 17.96875 6.984375 36.375
Q 6.984375 53.65625 15.1875 63.9375
Q 23.390625 74.21875 37.203125 74.21875
Q 40.921875 74.21875 44.703125 73.484375
Q 48.484375 72.75 52.59375 71.296875
z
" id="DejaVuSans-54"/>
       </defs>
       <use xlink:href="#DejaVuSans-54"/>
      </g>
     </g>
    </g>
    <g id="xtick_4">
     <g id="text_4">
      <!-- 8 -->
      <g transform="translate(525.287484 366.30265)scale(0.08 -0.08)">
       <defs>
        <path d="M 31.78125 34.625
Q 24.75 34.625 20.71875 30.859375
Q 16.703125 27.09375 16.703125 20.515625
Q 16.703125 13.921875 20.71875 10.15625
Q 24.75 6.390625 31.78125 6.390625
Q 38.8125 6.390625 42.859375 10.171875
Q 46.921875 13.96875 46.921875 20.515625
Q 46.921875 27.09375 42.890625 30.859375
Q 38.875 34.625 31.78125 34.625
z
M 21.921875 38.8125
Q 15.578125 40.375 12.03125 44.71875
Q 8.5 49.078125 8.5 55.328125
Q 8.5 64.0625 14.71875 69.140625
Q 20.953125 74.21875 31.78125 74.21875
Q 42.671875 74.21875 48.875 69.140625
Q 55.078125 64.0625 55.078125 55.328125
Q 55.078125 49.078125 51.53125 44.71875
Q 48 40.375 41.703125 38.8125
Q 48.828125 37.15625 52.796875 32.3125
Q 56.78125 27.484375 56.78125 20.515625
Q 56.78125 9.90625 50.3125 4.234375
Q 43.84375 -1.421875 31.78125 -1.421875
Q 19.734375 -1.421875 13.25 4.234375
Q 6.78125 9.90625 6.78125 20.515625
Q 6.78125 27.484375 10.78125 32.3125
Q 14.796875 37.15625 21.921875 38.8125
z
M 18.3125 54.390625
Q 18.3125 48.734375 21.84375 45.5625
Q 25.390625 42.390625 31.78125 42.390625
Q 38.140625 42.390625 41.71875 45.5625
Q 45.3125 48.734375 45.3125 54.390625
Q 45.3125 60.0625 41.71875 63.234375
Q 38.140625 66.40625 31.78125 66.40625
Q 25.390625 66.40625 21.84375 63.234375
Q 18.3125 60.0625 18.3125 54.390625
z
" id="DejaVuSans-56"/>
       </defs>
       <use xlink:href="#DejaVuSans-56"/>
      </g>
     </g>
    </g>
    <g id="xtick_5">
     <g id="text_5">
      <!-- 10 -->
      <g transform="translate(662.678015 366.30265)scale(0.08 -0.08)">
       <defs>
        <path d="M 12.40625 8.296875
L 28.515625 8.296875
L 28.515625 63.921875
L 10.984375 60.40625
L 10.984375 69.390625
L 28.421875 72.90625
L 38.28125 72.90625
L 38.28125 8.296875
L 54.390625 8.296875
L 54.390625 0
L 12.40625 0
z
" id="DejaVuSans-49"/>
        <path d="M 31.78125 66.40625
Q 24.171875 66.40625 20.328125 58.90625
Q 16.5 51.421875 16.5 36.375
Q 16.5 21.390625 20.328125 13.890625
Q 24.171875 6.390625 31.78125 6.390625
Q 39.453125 6.390625 43.28125 13.890625
Q 47.125 21.390625 47.125 36.375
Q 47.125 51.421875 43.28125 58.90625
Q 39.453125 66.40625 31.78125 66.40625
z
M 31.78125 74.21875
Q 44.046875 74.21875 50.515625 64.515625
Q 56.984375 54.828125 56.984375 36.375
Q 56.984375 17.96875 50.515625 8.265625
Q 44.046875 -1.421875 31.78125 -1.421875
Q 19.53125 -1.421875 13.0625 8.265625
Q 6.59375 17.96875 6.59375 36.375
Q 6.59375 54.828125 13.0625 64.515625
Q 19.53125 74.21875 31.78125 74.21875
z
" id="DejaVuSans-48"/>
       </defs>
       <use xlink:href="#DejaVuSans-49"/>
       <use x="63.623047" xlink:href="#DejaVuSans-48"/>
      </g>
     </g>
    </g>
    <g id="xtick_6">
     <g id="text_6">
      <!-- 12 -->
      <g transform="translate(802.613546 366.30265)scale(0.08 -0.08)">
       <use xlink:href="#DejaVuSans-49"/>
       <use x="63.623047" xlink:href="#DejaVuSans-50"/>
      </g>
     </g>
    </g>
    <g id="xtick_7">
     <g id="text_7">
      <!-- 14 -->
      <g transform="translate(942.549077 366.30265)scale(0.08 -0.08)">
       <use xlink:href="#DejaVuSans-49"/>
       <use x="63.623047" xlink:href="#DejaVuSans-52"/>
      </g>
     </g>
    </g>
    <g id="text_8">
     <!-- Nucleotide position from 3' -->
     <g transform="translate(448.044375 379.564837)scale(0.1 -0.1)">
      <defs>
       <path d="M 9.8125 72.90625
L 23.09375 72.90625
L 55.421875 11.921875
L 55.421875 72.90625
L 64.984375 72.90625
L 64.984375 0
L 51.703125 0
L 19.390625 60.984375
L 19.390625 0
L 9.8125 0
z
" id="DejaVuSans-78"/>
       <path d="M 8.5 21.578125
L 8.5 54.6875
L 17.484375 54.6875
L 17.484375 21.921875
Q 17.484375 14.15625 20.5 10.265625
Q 23.53125 6.390625 29.59375 6.390625
Q 36.859375 6.390625 41.078125 11.03125
Q 45.3125 15.671875 45.3125 23.6875
L 45.3125 54.6875
L 54.296875 54.6875
L 54.296875 0
L 45.3125 0
L 45.3125 8.40625
Q 42.046875 3.421875 37.71875 1
Q 33.40625 -1.421875 27.6875 -1.421875
Q 18.265625 -1.421875 13.375 4.4375
Q 8.5 10.296875 8.5 21.578125
z
M 31.109375 56
z
" id="DejaVuSans-117"/>
       <path d="M 48.78125 52.59375
L 48.78125 44.1875
Q 44.96875 46.296875 41.140625 47.34375
Q 37.3125 48.390625 33.40625 48.390625
Q 24.65625 48.390625 19.8125 42.84375
Q 14.984375 37.3125 14.984375 27.296875
Q 14.984375 17.28125 19.8125 11.734375
Q 24.65625 6.203125 33.40625 6.203125
Q 37.3125 6.203125 41.140625 7.25
Q 44.96875 8.296875 48.78125 10.40625
L 48.78125 2.09375
Q 45.015625 0.34375 40.984375 -0.53125
Q 36.96875 -1.421875 32.421875 -1.421875
Q 20.0625 -1.421875 12.78125 6.34375
Q 5.515625 14.109375 5.515625 27.296875
Q 5.515625 40.671875 12.859375 48.328125
Q 20.21875 56 33.015625 56
Q 37.15625 56 41.109375 55.140625
Q 45.0625 54.296875 48.78125 52.59375
z
" id="DejaVuSans-99"/>
       <path d="M 9.421875 75.984375
L 18.40625 75.984375
L 18.40625 0
L 9.421875 0
z
" id="DejaVuSans-108"/>
       <path d="M 56.203125 29.59375
L 56.203125 25.203125
L 14.890625 25.203125
Q 15.484375 15.921875 20.484375 11.0625
Q 25.484375 6.203125 34.421875 6.203125
Q 39.59375 6.203125 44.453125 7.46875
Q 49.3125 8.734375 54.109375 11.28125
L 54.109375 2.78125
Q 49.265625 0.734375 44.1875 -0.34375
Q 39.109375 -1.421875 33.890625 -1.421875
Q 20.796875 -1.421875 13.15625 6.1875
Q 5.515625 13.8125 5.515625 26.8125
Q 5.515625 40.234375 12.765625 48.109375
Q 20.015625 56 32.328125 56
Q 43.359375 56 49.78125 48.890625
Q 56.203125 41.796875 56.203125 29.59375
z
M 47.21875 32.234375
Q 47.125 39.59375 43.09375 43.984375
Q 39.0625 48.390625 32.421875 48.390625
Q 24.90625 48.390625 20.390625 44.140625
Q 15.875 39.890625 15.1875 32.171875
z
" id="DejaVuSans-101"/>
       <path d="M 30.609375 48.390625
Q 23.390625 48.390625 19.1875 42.75
Q 14.984375 37.109375 14.984375 27.296875
Q 14.984375 17.484375 19.15625 11.84375
Q 23.34375 6.203125 30.609375 6.203125
Q 37.796875 6.203125 41.984375 11.859375
Q 46.1875 17.53125 46.1875 27.296875
Q 46.1875 37.015625 41.984375 42.703125
Q 37.796875 48.390625 30.609375 48.390625
z
M 30.609375 56
Q 42.328125 56 49.015625 48.375
Q 55.71875 40.765625 55.71875 27.296875
Q 55.71875 13.875 49.015625 6.21875
Q 42.328125 -1.421875 30.609375 -1.421875
Q 18.84375 -1.421875 12.171875 6.21875
Q 5.515625 13.875 5.515625 27.296875
Q 5.515625 40.765625 12.171875 48.375
Q 18.84375 56 30.609375 56
z
" id="DejaVuSans-111"/>
       <path d="M 18.3125 70.21875
L 18.3125 54.6875
L 36.8125 54.6875
L 36.8125 47.703125
L 18.3125 47.703125
L 18.3125 18.015625
Q 18.3125 11.328125 20.140625 9.421875
Q 21.96875 7.515625 27.59375 7.515625
L 36.8125 7.515625
L 36.8125 0
L 27.59375 0
Q 17.1875 0 13.234375 3.875
Q 9.28125 7.765625 9.28125 18.015625
L 9.28125 47.703125
L 2.6875 47.703125
L 2.6875 54.6875
L 9.28125 54.6875
L 9.28125 70.21875
z
" id="DejaVuSans-116"/>
       <path d="M 9.421875 54.6875
L 18.40625 54.6875
L 18.40625 0
L 9.421875 0
z
M 9.421875 75.984375
L 18.40625 75.984375
L 18.40625 64.59375
L 9.421875 64.59375
z
" id="DejaVuSans-105"/>
       <path d="M 45.40625 46.390625
L 45.40625 75.984375
L 54.390625 75.984375
L 54.390625 0
L 45.40625 0
L 45.40625 8.203125
Q 42.578125 3.328125 38.25 0.953125
Q 33.9375 -1.421875 27.875 -1.421875
Q 17.96875 -1.421875 11.734375 6.484375
Q 5.515625 14.40625 5.515625 27.296875
Q 5.515625 40.1875 11.734375 48.09375
Q 17.96875 56 27.875 56
Q 33.9375 56 38.25 53.625
Q 42.578125 51.265625 45.40625 46.390625
z
M 14.796875 27.296875
Q 14.796875 17.390625 18.875 11.75
Q 22.953125 6.109375 30.078125 6.109375
Q 37.203125 6.109375 41.296875 11.75
Q 45.40625 17.390625 45.40625 27.296875
Q 45.40625 37.203125 41.296875 42.84375
Q 37.203125 48.484375 30.078125 48.484375
Q 22.953125 48.484375 18.875 42.84375
Q 14.796875 37.203125 14.796875 27.296875
z
" id="DejaVuSans-100"/>
       <path id="DejaVuSans-32"/>
       <path d="M 18.109375 8.203125
L 18.109375 -20.796875
L 9.078125 -20.796875
L 9.078125 54.6875
L 18.109375 54.6875
L 18.109375 46.390625
Q 20.953125 51.265625 25.265625 53.625
Q 29.59375 56 35.59375 56
Q 45.5625 56 51.78125 48.09375
Q 58.015625 40.1875 58.015625 27.296875
Q 58.015625 14.40625 51.78125 6.484375
Q 45.5625 -1.421875 35.59375 -1.421875
Q 29.59375 -1.421875 25.265625 0.953125
Q 20.953125 3.328125 18.109375 8.203125
z
M 48.6875 27.296875
Q 48.6875 37.203125 44.609375 42.84375
Q 40.53125 48.484375 33.40625 48.484375
Q 26.265625 48.484375 22.1875 42.84375
Q 18.109375 37.203125 18.109375 27.296875
Q 18.109375 17.390625 22.1875 11.75
Q 26.265625 6.109375 33.40625 6.109375
Q 40.53125 6.109375 44.609375 11.75
Q 48.6875 17.390625 48.6875 27.296875
z
" id="DejaVuSans-112"/>
       <path d="M 44.28125 53.078125
L 44.28125 44.578125
Q 40.484375 46.53125 36.375 47.5
Q 32.28125 48.484375 27.875 48.484375
Q 21.1875 48.484375 17.84375 46.4375
Q 14.5 44.390625 14.5 40.28125
Q 14.5 37.15625 16.890625 35.375
Q 19.28125 33.59375 26.515625 31.984375
L 29.59375 31.296875
Q 39.15625 29.25 43.1875 25.515625
Q 47.21875 21.78125 47.21875 15.09375
Q 47.21875 7.46875 41.1875 3.015625
Q 35.15625 -1.421875 24.609375 -1.421875
Q 20.21875 -1.421875 15.453125 -0.5625
Q 10.6875 0.296875 5.421875 2
L 5.421875 11.28125
Q 10.40625 8.6875 15.234375 7.390625
Q 20.0625 6.109375 24.8125 6.109375
Q 31.15625 6.109375 34.5625 8.28125
Q 37.984375 10.453125 37.984375 14.40625
Q 37.984375 18.0625 35.515625 20.015625
Q 33.0625 21.96875 24.703125 23.78125
L 21.578125 24.515625
Q 13.234375 26.265625 9.515625 29.90625
Q 5.8125 33.546875 5.8125 39.890625
Q 5.8125 47.609375 11.28125 51.796875
Q 16.75 56 26.8125 56
Q 31.78125 56 36.171875 55.265625
Q 40.578125 54.546875 44.28125 53.078125
z
" id="DejaVuSans-115"/>
       <path d="M 54.890625 33.015625
L 54.890625 0
L 45.90625 0
L 45.90625 32.71875
Q 45.90625 40.484375 42.875 44.328125
Q 39.84375 48.1875 33.796875 48.1875
Q 26.515625 48.1875 22.3125 43.546875
Q 18.109375 38.921875 18.109375 30.90625
L 18.109375 0
L 9.078125 0
L 9.078125 54.6875
L 18.109375 54.6875
L 18.109375 46.1875
Q 21.34375 51.125 25.703125 53.5625
Q 30.078125 56 35.796875 56
Q 45.21875 56 50.046875 50.171875
Q 54.890625 44.34375 54.890625 33.015625
z
" id="DejaVuSans-110"/>
       <path d="M 37.109375 75.984375
L 37.109375 68.5
L 28.515625 68.5
Q 23.6875 68.5 21.796875 66.546875
Q 19.921875 64.59375 19.921875 59.515625
L 19.921875 54.6875
L 34.71875 54.6875
L 34.71875 47.703125
L 19.921875 47.703125
L 19.921875 0
L 10.890625 0
L 10.890625 47.703125
L 2.296875 47.703125
L 2.296875 54.6875
L 10.890625 54.6875
L 10.890625 58.5
Q 10.890625 67.625 15.140625 71.796875
Q 19.390625 75.984375 28.609375 75.984375
z
" id="DejaVuSans-102"/>
       <path d="M 41.109375 46.296875
Q 39.59375 47.171875 37.8125 47.578125
Q 36.03125 48 33.890625 48
Q 26.265625 48 22.1875 43.046875
Q 18.109375 38.09375 18.109375 28.8125
L 18.109375 0
L 9.078125 0
L 9.078125 54.6875
L 18.109375 54.6875
L 18.109375 46.1875
Q 20.953125 51.171875 25.484375 53.578125
Q 30.03125 56 36.53125 56
Q 37.453125 56 38.578125 55.875
Q 39.703125 55.765625 41.0625 55.515625
z
" id="DejaVuSans-114"/>
       <path d="M 52 44.1875
Q 55.375 50.25 60.0625 53.125
Q 64.75 56 71.09375 56
Q 79.640625 56 84.28125 50.015625
Q 88.921875 44.046875 88.921875 33.015625
L 88.921875 0
L 79.890625 0
L 79.890625 32.71875
Q 79.890625 40.578125 77.09375 44.375
Q 74.3125 48.1875 68.609375 48.1875
Q 61.625 48.1875 57.5625 43.546875
Q 53.515625 38.921875 53.515625 30.90625
L 53.515625 0
L 44.484375 0
L 44.484375 32.71875
Q 44.484375 40.625 41.703125 44.40625
Q 38.921875 48.1875 33.109375 48.1875
Q 26.21875 48.1875 22.15625 43.53125
Q 18.109375 38.875 18.109375 30.90625
L 18.109375 0
L 9.078125 0
L 9.078125 54.6875
L 18.109375 54.6875
L 18.109375 46.1875
Q 21.1875 51.21875 25.484375 53.609375
Q 29.78125 56 35.6875 56
Q 41.65625 56 45.828125 52.96875
Q 50 49.953125 52 44.1875
z
" id="DejaVuSans-109"/>
       <path d="M 40.578125 39.3125
Q 47.65625 37.796875 51.625 33
Q 55.609375 28.21875 55.609375 21.1875
Q 55.609375 10.40625 48.1875 4.484375
Q 40.765625 -1.421875 27.09375 -1.421875
Q 22.515625 -1.421875 17.65625 -0.515625
Q 12.796875 0.390625 7.625 2.203125
L 7.625 11.71875
Q 11.71875 9.328125 16.59375 8.109375
Q 21.484375 6.890625 26.8125 6.890625
Q 36.078125 6.890625 40.9375 10.546875
Q 45.796875 14.203125 45.796875 21.1875
Q 45.796875 27.640625 41.28125 31.265625
Q 36.765625 34.90625 28.71875 34.90625
L 20.21875 34.90625
L 20.21875 43.015625
L 29.109375 43.015625
Q 36.375 43.015625 40.234375 45.921875
Q 44.09375 48.828125 44.09375 54.296875
Q 44.09375 59.90625 40.109375 62.90625
Q 36.140625 65.921875 28.71875 65.921875
Q 24.65625 65.921875 20.015625 65.03125
Q 15.375 64.15625 9.8125 62.3125
L 9.8125 71.09375
Q 15.4375 72.65625 20.34375 73.4375
Q 25.25 74.21875 29.59375 74.21875
Q 40.828125 74.21875 47.359375 69.109375
Q 53.90625 64.015625 53.90625 55.328125
Q 53.90625 49.265625 50.4375 45.09375
Q 46.96875 40.921875 40.578125 39.3125
z
" id="DejaVuSans-51"/>
       <path d="M 17.921875 72.90625
L 17.921875 45.796875
L 9.625 45.796875
L 9.625 72.90625
z
" id="DejaVuSans-39"/>
      </defs>
      <use xlink:href="#DejaVuSans-78"/>
      <use x="74.804688" xlink:href="#DejaVuSans-117"/>
      <use x="138.183594" xlink:href="#DejaVuSans-99"/>
      <use x="193.164062" xlink:href="#DejaVuSans-108"/>
      <use x="220.947266" xlink:href="#DejaVuSans-101"/>
      <use x="282.470703" xlink:href="#DejaVuSans-111"/>
      <use x="343.652344" xlink:href="#DejaVuSans-116"/>
      <use x="382.861328" xlink:href="#DejaVuSans-105"/>
      <use x="410.644531" xlink:href="#DejaVuSans-100"/>
      <use x="474.121094" xlink:href="#DejaVuSans-101"/>
      <use x="535.644531" xlink:href="#DejaVuSans-32"/>
      <use x="567.431641" xlink:href="#DejaVuSans-112"/>
      <use x="630.908203" xlink:href="#DejaVuSans-111"/>
      <use x="692.089844" xlink:href="#DejaVuSans-115"/>
      <use x="744.189453" xlink:href="#DejaVuSans-105"/>
      <use x="771.972656" xlink:href="#DejaVuSans-116"/>
      <use x="811.181641" xlink:href="#DejaVuSans-105"/>
      <use x="838.964844" xlink:href="#DejaVuSans-111"/>
      <use x="900.146484" xlink:href="#DejaVuSans-110"/>
      <use x="963.525391" xlink:href="#DejaVuSans-32"/>
      <use x="995.3125" xlink:href="#DejaVuSans-102"/>
      <use x="1030.517578" xlink:href="#DejaVuSans-114"/>
      <use x="1069.380859" xlink:href="#DejaVuSans-111"/>
      <use x="1130.5625" xlink:href="#DejaVuSans-109"/>
      <use x="1227.974609" xlink:href="#DejaVuSans-32"/>
      <use x="1259.761719" xlink:href="#DejaVuSans-51"/>
      <use x="1323.384766" xlink:href="#DejaVuSans-39"/>
     </g>
    </g>
   </g>
   <g id="matplotlib.axis_2">
    <g id="ytick_1">
     <g id="line2d_1">
      <path clip-path="url(#p5eda1d841a)" d="M 38.058125 353.2239
L 993.118125 353.2239
" style="fill:none;stroke:#dedede;stroke-linecap:square;"/>
     </g>
     <g id="text_9">
      <!-- 0 -->
      <g transform="translate(25.968125 356.263275)scale(0.08 -0.08)">
       <use xlink:href="#DejaVuSans-48"/>
      </g>
     </g>
    </g>
    <g id="ytick_2">
     <g id="line2d_2">
      <path clip-path="url(#p5eda1d841a)" d="M 38.058125 302.752789
L 993.118125 302.752789
" style="fill:none;stroke:#dedede;stroke-linecap:square;"/>
     </g>
     <g id="text_10">
      <!-- 5 -->
      <g transform="translate(25.968125 305.792164)scale(0.08 -0.08)">
       <defs>
        <path d="M 10.796875 72.90625
L 49.515625 72.90625
L 49.515625 64.59375
L 19.828125 64.59375
L 19.828125 46.734375
Q 21.96875 47.46875 24.109375 47.828125
Q 26.265625 48.1875 28.421875 48.1875
Q 40.625 48.1875 47.75 41.5
Q 54.890625 34.8125 54.890625 23.390625
Q 54.890625 11.625 47.5625 5.09375
Q 40.234375 -1.421875 26.90625 -1.421875
Q 22.3125 -1.421875 17.546875 -0.640625
Q 12.796875 0.140625 7.71875 1.703125
L 7.71875 11.625
Q 12.109375 9.234375 16.796875 8.0625
Q 21.484375 6.890625 26.703125 6.890625
Q 35.15625 6.890625 40.078125 11.328125
Q 45.015625 15.765625 45.015625 23.390625
Q 45.015625 31 40.078125 35.4375
Q 35.15625 39.890625 26.703125 39.890625
Q 22.75 39.890625 18.8125 39.015625
Q 14.890625 38.140625 10.796875 36.28125
z
" id="DejaVuSans-53"/>
       </defs>
       <use xlink:href="#DejaVuSans-53"/>
      </g>
     </g>
    </g>
    <g id="ytick_3">
     <g id="line2d_3">
      <path clip-path="url(#p5eda1d841a)" d="M 38.058125 252.281678
L 993.118125 252.281678
" style="fill:none;stroke:#dedede;stroke-linecap:square;"/>
     </g>
     <g id="text_11">
      <!-- 10 -->
      <g transform="translate(20.878125 255.321053)scale(0.08 -0.08)">
       <use xlink:href="#DejaVuSans-49"/>
       <use x="63.623047" xlink:href="#DejaVuSans-48"/>
      </g>
     </g>
    </g>
    <g id="ytick_4">
     <g id="line2d_4">
      <path clip-path="url(#p5eda1d841a)" d="M 38.058125 201.810567
L 993.118125 201.810567
" style="fill:none;stroke:#dedede;stroke-linecap:square;"/>
     </g>
     <g id="text_12">
      <!-- 15 -->
      <g transform="translate(20.878125 204.849942)scale(0.08 -0.08)">
       <use xlink:href="#DejaVuSans-49"/>
       <use x="63.623047" xlink:href="#DejaVuSans-53"/>
      </g>
     </g>
    </g>
    <g id="ytick_5">
     <g id="line2d_5">
      <path clip-path="url(#p5eda1d841a)" d="M 38.058125 151.339456
L 993.118125 151.339456
" style="fill:none;stroke:#dedede;stroke-linecap:square;"/>
     </g>
     <g id="text_13">
      <!-- 20 -->
      <g transform="translate(20.878125 154.378831)scale(0.08 -0.08)">
       <use xlink:href="#DejaVuSans-50"/>
       <use x="63.623047" xlink:href="#DejaVuSans-48"/>
      </g>
     </g>
    </g>
    <g id="ytick_6">
     <g id="line2d_6">
      <path clip-path="url(#p5eda1d841a)" d="M 38.058125 100.868344
L 993.118125 100.868344
" style="fill:none;stroke:#dedede;stroke-linecap:square;"/>
     </g>
     <g id="text_14">
      <!-- 25 -->
      <g transform="translate(20.878125 103.907719)scale(0.08 -0.08)">
       <use xlink:href="#DejaVuSans-50"/>
       <use x="63.623047" xlink:href="#DejaVuSans-53"/>
      </g>
     </g>
    </g>
    <g id="ytick_7">
     <g id="line2d_7">
      <path clip-path="url(#p5eda1d841a)" d="M 38.058125 50.397233
L 993.118125 50.397233
" style="fill:none;stroke:#dedede;stroke-linecap:square;"/>
     </g>
     <g id="text_15">
      <!-- 30 -->
      <g transform="translate(20.878125 53.436608)scale(0.08 -0.08)">
       <use xlink:href="#DejaVuSans-51"/>
       <use x="63.623047" xlink:href="#DejaVuSans-48"/>
      </g>
     </g>
    </g>
    <g id="text_16">
     <!-- % G to A substituted -->
     <g transform="translate(14.798438 245.9024)rotate(-90)scale(0.1 -0.1)">
      <defs>
       <path d="M 72.703125 32.078125
Q 68.453125 32.078125 66.03125 28.46875
Q 63.625 24.859375 63.625 18.40625
Q 63.625 12.0625 66.03125 8.421875
Q 68.453125 4.78125 72.703125 4.78125
Q 76.859375 4.78125 79.265625 8.421875
Q 81.6875 12.0625 81.6875 18.40625
Q 81.6875 24.8125 79.265625 28.4375
Q 76.859375 32.078125 72.703125 32.078125
z
M 72.703125 38.28125
Q 80.421875 38.28125 84.953125 32.90625
Q 89.5 27.546875 89.5 18.40625
Q 89.5 9.28125 84.9375 3.921875
Q 80.375 -1.421875 72.703125 -1.421875
Q 64.890625 -1.421875 60.34375 3.921875
Q 55.8125 9.28125 55.8125 18.40625
Q 55.8125 27.59375 60.375 32.9375
Q 64.9375 38.28125 72.703125 38.28125
z
M 22.3125 68.015625
Q 18.109375 68.015625 15.6875 64.375
Q 13.28125 60.75 13.28125 54.390625
Q 13.28125 47.953125 15.671875 44.328125
Q 18.0625 40.71875 22.3125 40.71875
Q 26.5625 40.71875 28.96875 44.328125
Q 31.390625 47.953125 31.390625 54.390625
Q 31.390625 60.6875 28.953125 64.34375
Q 26.515625 68.015625 22.3125 68.015625
z
M 66.40625 74.21875
L 74.21875 74.21875
L 28.609375 -1.421875
L 20.796875 -1.421875
z
M 22.3125 74.21875
Q 30.03125 74.21875 34.609375 68.875
Q 39.203125 63.53125 39.203125 54.390625
Q 39.203125 45.171875 34.640625 39.84375
Q 30.078125 34.515625 22.3125 34.515625
Q 14.546875 34.515625 10.03125 39.859375
Q 5.515625 45.21875 5.515625 54.390625
Q 5.515625 63.484375 10.046875 68.84375
Q 14.59375 74.21875 22.3125 74.21875
z
" id="DejaVuSans-37"/>
       <path d="M 59.515625 10.40625
L 59.515625 29.984375
L 43.40625 29.984375
L 43.40625 38.09375
L 69.28125 38.09375
L 69.28125 6.78125
Q 63.578125 2.734375 56.6875 0.65625
Q 49.8125 -1.421875 42 -1.421875
Q 24.90625 -1.421875 15.25 8.5625
Q 5.609375 18.5625 5.609375 36.375
Q 5.609375 54.25 15.25 64.234375
Q 24.90625 74.21875 42 74.21875
Q 49.125 74.21875 55.546875 72.453125
Q 61.96875 70.703125 67.390625 67.28125
L 67.390625 56.78125
Q 61.921875 61.421875 55.765625 63.765625
Q 49.609375 66.109375 42.828125 66.109375
Q 29.4375 66.109375 22.71875 58.640625
Q 16.015625 51.171875 16.015625 36.375
Q 16.015625 21.625 22.71875 14.15625
Q 29.4375 6.6875 42.828125 6.6875
Q 48.046875 6.6875 52.140625 7.59375
Q 56.25 8.5 59.515625 10.40625
z
" id="DejaVuSans-71"/>
       <path d="M 34.1875 63.1875
L 20.796875 26.90625
L 47.609375 26.90625
z
M 28.609375 72.90625
L 39.796875 72.90625
L 67.578125 0
L 57.328125 0
L 50.6875 18.703125
L 17.828125 18.703125
L 11.1875 0
L 0.78125 0
z
" id="DejaVuSans-65"/>
       <path d="M 48.6875 27.296875
Q 48.6875 37.203125 44.609375 42.84375
Q 40.53125 48.484375 33.40625 48.484375
Q 26.265625 48.484375 22.1875 42.84375
Q 18.109375 37.203125 18.109375 27.296875
Q 18.109375 17.390625 22.1875 11.75
Q 26.265625 6.109375 33.40625 6.109375
Q 40.53125 6.109375 44.609375 11.75
Q 48.6875 17.390625 48.6875 27.296875
z
M 18.109375 46.390625
Q 20.953125 51.265625 25.265625 53.625
Q 29.59375 56 35.59375 56
Q 45.5625 56 51.78125 48.09375
Q 58.015625 40.1875 58.015625 27.296875
Q 58.015625 14.40625 51.78125 6.484375
Q 45.5625 -1.421875 35.59375 -1.421875
Q 29.59375 -1.421875 25.265625 0.953125
Q 20.953125 3.328125 18.109375 8.203125
L 18.109375 0
L 9.078125 0
L 9.078125 75.984375
L 18.109375 75.984375
z
" id="DejaVuSans-98"/>
      </defs>
      <use xlink:href="#DejaVuSans-37"/>
      <use x="95.019531" xlink:href="#DejaVuSans-32"/>
      <use x="126.806641" xlink:href="#DejaVuSans-71"/>
      <use x="204.296875" xlink:href="#DejaVuSans-32"/>
      <use x="236.083984" xlink:href="#DejaVuSans-116"/>
      <use x="275.292969" xlink:href="#DejaVuSans-111"/>
      <use x="336.474609" xlink:href="#DejaVuSans-32"/>
      <use x="368.261719" xlink:href="#DejaVuSans-65"/>
      <use x="436.669922" xlink:href="#DejaVuSans-32"/>
      <use x="468.457031" xlink:href="#DejaVuSans-115"/>
      <use x="520.556641" xlink:href="#DejaVuSans-117"/>
      <use x="583.935547" xlink:href="#DejaVuSans-98"/>
      <use x="647.412109" xlink:href="#DejaVuSans-115"/>
      <use x="699.511719" xlink:href="#DejaVuSans-116"/>
      <use x="738.720703" xlink:href="#DejaVuSans-105"/>
      <use x="766.503906" xlink:href="#DejaVuSans-116"/>
      <use x="805.712891" xlink:href="#DejaVuSans-117"/>
      <use x="869.091797" xlink:href="#DejaVuSans-116"/>
      <use x="908.300781" xlink:href="#DejaVuSans-101"/>
      <use x="969.824219" xlink:href="#DejaVuSans-100"/>
     </g>
    </g>
   </g>
   <g id="line2d_8">
    <path clip-path="url(#p5eda1d841a)" d="M 38.058125 183.408424
L 108.025891 265.111941
L 177.993656 282.730396
L 247.961422 292.731865
L 317.929187 295.230484
L 387.896953 305.388611
L 457.864718 308.986273
L 527.832484 313.201152
L 597.80025 318.02525
L 667.768015 321.828563
L 737.735781 320.830889
L 807.703546 322.222949
L 877.671312 323.229215
L 947.639077 323.320467
" style="fill:none;stroke:#7cb5ec;stroke-linecap:square;"/>
   </g>
   <g id="line2d_9">
    <path clip-path="url(#p5eda1d841a)" d="M 38.058125 184.332244
L 108.025891 263.945107
L 177.993656 283.743314
L 247.961422 292.190024
L 317.929187 294.046625
L 387.896953 307.018999
L 457.864718 309.478941
L 527.832484 313.77345
L 597.80025 317.661931
L 667.768015 322.43779
L 737.735781 321.745786
L 807.703546 322.534235
L 877.671312 322.523761
L 947.639077 323.362195
" style="fill:none;stroke:#434348;stroke-linecap:square;"/>
   </g>
   <g id="line2d_10">
    <path clip-path="url(#p5eda1d841a)" d="M 38.058125 213.723003
L 108.025891 250.154856
L 177.993656 282.4526
L 247.961422 291.385422
L 317.929187 298.007642
L 387.896953 300.006062
L 457.864718 309.040436
L 527.832484 330.982393
L 597.80025 322.32322
L 667.768015 328.643813
L 737.735781 321.025424
L 807.703546 335.110288
L 877.671312 324.479884
L 947.639077 324.527951
" style="fill:none;stroke:#90ed7d;stroke-linecap:square;"/>
   </g>
   <g id="line2d_11">
    <path clip-path="url(#p5eda1d841a)" d="M 38.058125 214.488144
L 108.025891 253.749335
L 177.993656 285.300162
L 247.961422 292.658567
L 317.929187 298.475576
L 387.896953 297.913093
L 457.864718 306.793917
L 527.832484 331.279939
L 597.80025 321.897003
L 667.768015 328.603846
L 737.735781 319.198432
L 807.703546 336.594209
L 877.671312 326.350763
L 947.639077 323.637387
" style="fill:none;stroke:#f7a35c;stroke-linecap:square;"/>
   </g>
   <g id="line2d_12">
    <path clip-path="url(#p5eda1d841a)" d="M 38.058125 127.955962
L 108.025891 233.465141
L 177.993656 243.572119
L 247.961422 258.920037
L 317.929187 261.184198
L 387.896953 270.823987
L 457.864718 282.172119
L 527.832484 292.756518
L 597.80025 300.718615
L 667.768015 305.920351
L 737.735781 309.565039
L 807.703546 313.705967
L 877.671312 316.952255
L 947.639077 320.26047
" style="fill:none;stroke:#8085e9;stroke-linecap:square;"/>
   </g>
   <g id="line2d_13">
    <path clip-path="url(#p5eda1d841a)" d="M 38.058125 127.286779
L 108.025891 231.28323
L 177.993656 244.58765
L 247.961422 258.880594
L 317.929187 260.30618
L 387.896953 272.316012
L 457.864718 282.038214
L 527.832484 292.841156
L 597.80025 299.100748
L 667.768015 305.237636
L 737.735781 309.862799
L 807.703546 314.040981
L 877.671312 316.754762
L 947.639077 319.617563
" style="fill:none;stroke:#f15c80;stroke-linecap:square;"/>
   </g>
   <g id="line2d_14">
    <path clip-path="url(#p5eda1d841a)" d="M 38.058125 129.405192
L 108.025891 233.832964
L 177.993656 253.888128
L 247.961422 272.626247
L 317.929187 280.252835
L 387.896953 290.202499
L 457.864718 300.241953
L 527.832484 306.620313
L 597.80025 315.501198
L 667.768015 320.061938
L 737.735781 322.963011
L 807.703546 324.792135
L 877.671312 328.30703
L 947.639077 329.071046
" style="fill:none;stroke:#e4d354;stroke-linecap:square;"/>
   </g>
   <g id="line2d_15">
    <path clip-path="url(#p5eda1d841a)" d="M 38.058125 128.748796
L 108.025891 233.032798
L 177.993656 253.064288
L 247.961422 272.254203
L 317.929187 280.463219
L 387.896953 290.178042
L 457.864718 300.572158
L 527.832484 307.092967
L 597.80025 314.801717
L 667.768015 320.211521
L 737.735781 322.501626
L 807.703546 325.054051
L 877.671312 327.616203
L 947.639077 328.735211
" style="fill:none;stroke:#2b908f;stroke-linecap:square;"/>
   </g>
   <g id="line2d_16">
    <path clip-path="url(#p5eda1d841a)" d="M 38.058125 155.00837
L 108.025891 256.849088
L 177.993656 276.668748
L 247.961422 287.608658
L 317.929187 296.394044
L 387.896953 301.197166
L 457.864718 308.431512
L 527.832484 314.637496
L 597.80025 317.894239
L 667.768015 321.461469
L 737.735781 323.638063
L 807.703546 324.946076
L 877.671312 326.694818
L 947.639077 327.538284
" style="fill:none;stroke:#f45b5b;stroke-linecap:square;"/>
   </g>
   <g id="line2d_17">
    <path clip-path="url(#p5eda1d841a)" d="M 38.058125 154.441464
L 108.025891 257.12789
L 177.993656 277.005587
L 247.961422 287.807518
L 317.929187 295.609013
L 387.896953 301.425157
L 457.864718 308.906111
L 527.832484 314.768291
L 597.80025 318.002455
L 667.768015 321.842655
L 737.735781 323.44097
L 807.703546 324.748645
L 877.671312 326.655224
L 947.639077 327.562007
" style="fill:none;stroke:#91e8e1;stroke-linecap:square;"/>
   </g>
   <g id="line2d_18">
    <path clip-path="url(#p5eda1d841a)" d="M 38.058125 173.130269
L 108.025891 250.758214
L 177.993656 268.325157
L 247.961422 278.703763
L 317.929187 283.036006
L 387.896953 289.289796
L 457.864718 294.259896
L 527.832484 301.054694
L 597.80025 306.27616
L 667.768015 309.455265
L 737.735781 313.385161
L 807.703546 315.30241
L 877.671312 319.516187
L 947.639077 322.157732
" style="fill:none;stroke:#7cb5ec;stroke-linecap:square;"/>
   </g>
   <g id="line2d_19">
    <path clip-path="url(#p5eda1d841a)" d="M 38.058125 173.771664
L 108.025891 252.152047
L 177.993656 268.315159
L 247.961422 279.304678
L 317.929187 282.735546
L 387.896953 288.849739
L 457.864718 293.332161
L 527.832484 301.645489
L 597.80025 306.36975
L 667.768015 310.802467
L 737.735781 313.604068
L 807.703546 315.367663
L 877.671312 320.202408
L 947.639077 321.951177
" style="fill:none;stroke:#434348;stroke-linecap:square;"/>
   </g>
   <g id="line2d_20">
    <path clip-path="url(#p5eda1d841a)" d="M 38.058125 168.297131
L 108.025891 259.203211
L 177.993656 278.031049
L 247.961422 290.515298
L 317.929187 295.322088
L 387.896953 303.476009
L 457.864718 310.554069
L 527.832484 316.425431
L 597.80025 320.697593
L 667.768015 324.564527
L 737.735781 327.34184
L 807.703546 328.214893
L 877.671312 329.583217
L 947.639077 331.35673
" style="fill:none;stroke:#90ed7d;stroke-linecap:square;"/>
   </g>
   <g id="line2d_21">
    <path clip-path="url(#p5eda1d841a)" d="M 38.058125 168.722106
L 108.025891 259.007058
L 177.993656 277.999535
L 247.961422 290.363819
L 317.929187 295.321406
L 387.896953 303.170158
L 457.864718 310.478126
L 527.832484 316.791134
L 597.80025 321.069542
L 667.768015 324.300763
L 737.735781 327.488688
L 807.703546 328.248804
L 877.671312 329.685523
L 947.639077 331.31696
" style="fill:none;stroke:#f7a35c;stroke-linecap:square;"/>
   </g>
   <g id="line2d_22">
    <path clip-path="url(#p5eda1d841a)" d="M 38.058125 195.735391
L 108.025891 268.53341
L 177.993656 291.610288
L 247.961422 296.163694
L 317.929187 306.706228
L 387.896953 309.667765
L 457.864718 318.04053
L 527.832484 320.572329
L 597.80025 325.750501
L 667.768015 330.649323
L 737.735781 329.110297
L 807.703546 329.227946
L 877.671312 330.0885
L 947.639077 331.161844
" style="fill:none;stroke:#8085e9;stroke-linecap:square;"/>
   </g>
   <g id="line2d_23">
    <path clip-path="url(#p5eda1d841a)" d="M 38.058125 195.656077
L 108.025891 268.653493
L 177.993656 288.820816
L 247.961422 296.701725
L 317.929187 307.305866
L 387.896953 307.921867
L 457.864718 317.421508
L 527.832484 321.070383
L 597.80025 324.875031
L 667.768015 328.551638
L 737.735781 328.755071
L 807.703546 330.067305
L 877.671312 332.154789
L 947.639077 331.860467
" style="fill:none;stroke:#f15c80;stroke-linecap:square;"/>
   </g>
   <g id="line2d_24">
    <path clip-path="url(#p5eda1d841a)" d="M 38.058125 198.296755
L 108.025891 269.56734
L 177.993656 293.743817
L 247.961422 295.476633
L 317.929187 308.606754
L 387.896953 306.226509
L 457.864718 318.444791
L 527.832484 323.715417
L 597.80025 324.152011
L 667.768015 331.94292
L 737.735781 330.981827
L 807.703546 332.599296
L 877.671312 334.050332
L 947.639077 331.898078
" style="fill:none;stroke:#e4d354;stroke-linecap:square;"/>
   </g>
   <g id="line2d_25">
    <path clip-path="url(#p5eda1d841a)" d="M 38.058125 194.199906
L 108.025891 270.434313
L 177.993656 293.07787
L 247.961422 295.950553
L 317.929187 306.727724
L 387.896953 309.357733
L 457.864718 316.953248
L 527.832484 322.986997
L 597.80025 325.875022
L 667.768015 329.624408
L 737.735781 328.826487
L 807.703546 332.173552
L 877.671312 332.370121
L 947.639077 335.014336
" style="fill:none;stroke:#2b908f;stroke-linecap:square;"/>
   </g>
   <g id="line2d_26">
    <path clip-path="url(#p5eda1d841a)" d="M 38.058125 202.210548
L 108.025891 272.309342
L 177.993656 291.381827
L 247.961422 302.58973
L 317.929187 306.635182
L 387.896953 311.038559
L 457.864718 316.293819
L 527.832484 325.142854
L 597.80025 326.767269
L 667.768015 329.021969
L 737.735781 328.223791
L 807.703546 332.491659
L 877.671312 330.995244
L 947.639077 330.916227
" style="fill:none;stroke:#f45b5b;stroke-linecap:square;"/>
   </g>
   <g id="line2d_27">
    <path clip-path="url(#p5eda1d841a)" d="M 38.058125 203.040378
L 108.025891 272.895289
L 177.993656 288.920235
L 247.961422 301.449808
L 317.929187 305.580542
L 387.896953 311.105151
L 457.864718 315.882301
L 527.832484 323.539889
L 597.80025 326.151273
L 667.768015 329.282367
L 737.735781 328.17155
L 807.703546 331.635588
L 877.671312 331.611801
L 947.639077 329.890522
" style="fill:none;stroke:#91e8e1;stroke-linecap:square;"/>
   </g>
   <g id="line2d_28">
    <path clip-path="url(#p5eda1d841a)" d="M 38.058125 220.730216
L 108.025891 266.895793
L 177.993656 287.459453
L 247.961422 307.856609
L 317.929187 311.492244
L 387.896953 310.650469
L 457.864718 321.256814
L 527.832484 323.345471
L 597.80025 327.93086
L 667.768015 332.795117
L 737.735781 328.864682
L 807.703546 340.555737
L 877.671312 330.547141
L 947.639077 331.115517
" style="fill:none;stroke:#7cb5ec;stroke-linecap:square;"/>
   </g>
   <g id="line2d_29">
    <path clip-path="url(#p5eda1d841a)" d="M 38.058125 225.621994
L 108.025891 271.838474
L 177.993656 285.847417
L 247.961422 291.658897
L 317.929187 307.869676
L 387.896953 307.173616
L 457.864718 316.633796
L 527.832484 328.383532
L 597.80025 320.536792
L 667.768015 330.868723
L 737.735781 334.007576
L 807.703546 337.803819
L 877.671312 328.187498
L 947.639077 322.477131
" style="fill:none;stroke:#434348;stroke-linecap:square;"/>
   </g>
   <g id="line2d_30">
    <path clip-path="url(#p5eda1d841a)" d="M 38.058125 209.959548
L 108.025891 279.750653
L 177.993656 290.669331
L 247.961422 301.603427
L 317.929187 305.243307
L 387.896953 312.461923
L 457.864718 319.091776
L 527.832484 323.604243
L 597.80025 328.052759
L 667.768015 331.625681
L 737.735781 330.140214
L 807.703546 329.518508
L 877.671312 333.652259
L 947.639077 331.310532
" style="fill:none;stroke:#90ed7d;stroke-linecap:square;"/>
   </g>
   <g id="line2d_31">
    <path clip-path="url(#p5eda1d841a)" d="M 38.058125 213.457746
L 108.025891 281.821173
L 177.993656 288.744014
L 247.961422 301.704428
L 317.929187 305.571384
L 387.896953 312.969613
L 457.864718 317.545354
L 527.832484 324.728996
L 597.80025 327.488483
L 667.768015 330.54904
L 737.735781 331.043072
L 807.703546 329.171564
L 877.671312 333.785233
L 947.639077 330.747699
" style="fill:none;stroke:#f7a35c;stroke-linecap:square;"/>
   </g>
   <g id="line2d_32">
    <path clip-path="url(#p5eda1d841a)" d="M 38.058125 204.920161
L 108.025891 269.829293
L 177.993656 313.568027
L 247.961422 311.989332
L 317.929187 316.077162
L 387.896953 311.854137
L 457.864718 318.530174
L 527.832484 326.157374
L 597.80025 320.566122
L 667.768015 327.132211
L 737.735781 335.626999
L 807.703546 334.559699
L 877.671312 340.071819
L 947.639077 336.890207
" style="fill:none;stroke:#8085e9;stroke-linecap:square;"/>
   </g>
   <g id="line2d_33">
    <path clip-path="url(#p5eda1d841a)" d="M 38.058125 199.791722
L 108.025891 275.955424
L 177.993656 302.402295
L 247.961422 300.585318
L 317.929187 314.593765
L 387.896953 305.232352
L 457.864718 311.649673
L 527.832484 329.230842
L 597.80025 335.08069
L 667.768015 332.427563
L 737.735781 329.929541
L 807.703546 340.586376
L 877.671312 336.890207
L 947.639077 339.876168
" style="fill:none;stroke:#f15c80;stroke-linecap:square;"/>
   </g>
   <g id="line2d_34">
    <path clip-path="url(#p5eda1d841a)" d="M 38.058125 207.151387
L 108.025891 277.197893
L 177.993656 289.679424
L 247.961422 300.512947
L 317.929187 307.299736
L 387.896953 317.258738
L 457.864718 314.290961
L 527.832484 322.701729
L 597.80025 327.024256
L 667.768015 331.642752
L 737.735781 331.049945
L 807.703546 329.958088
L 877.671312 331.092659
L 947.639077 334.503382
" style="fill:none;stroke:#e4d354;stroke-linecap:square;"/>
   </g>
   <g id="line2d_35">
    <path clip-path="url(#p5eda1d841a)" d="M 38.058125 207.881905
L 108.025891 276.300829
L 177.993656 290.483349
L 247.961422 300.206458
L 317.929187 306.777164
L 387.896953 314.566447
L 457.864718 314.69747
L 527.832484 323.27417
L 597.80025 326.970663
L 667.768015 332.095455
L 737.735781 330.585909
L 807.703546 329.230842
L 877.671312 330.558564
L 947.639077 334.5254
" style="fill:none;stroke:#2b908f;stroke-linecap:square;"/>
   </g>
   <g id="line2d_36">
    <path clip-path="url(#p5eda1d841a)" d="M 38.058125 213.697585
L 108.025891 284.936881
L 177.993656 287.06009
L 247.961422 293.797571
L 317.929187 296.613333
L 387.896953 314.554892
L 457.864718 306.023681
L 527.832484 329.398041
L 597.80025 334.363858
L 667.768015 325.42038
L 737.735781 335.156421
L 807.703546 332.505053
L 877.671312 327.947576
L 947.639077 331.315218
" style="fill:none;stroke:#f45b5b;stroke-linecap:square;"/>
   </g>
   <g id="line2d_37">
    <path clip-path="url(#p5eda1d841a)" d="M 38.058125 224.443525
L 108.025891 279.264623
L 177.993656 289.722665
L 247.961422 305.464549
L 317.929187 307.62213
L 387.896953 315.634865
L 457.864718 316.293819
L 527.832484 327.501172
L 597.80025 323.377451
L 667.768015 327.639466
L 737.735781 334.377331
L 807.703546 327.801414
L 877.671312 336.180701
L 947.639077 333.035456
" style="fill:none;stroke:#91e8e1;stroke-linecap:square;"/>
   </g>
   <g id="line2d_38">
    <path clip-path="url(#p5eda1d841a)" d="M 38.058125 208.101868
L 108.025891 279.141935
L 177.993656 283.340823
L 247.961422 306.894665
L 317.929187 308.437991
L 387.896953 314.296115
L 457.864718 311.128846
L 527.832484 324.734623
L 597.80025 322.299767
L 667.768015 328.118024
L 737.735781 329.729794
L 807.703546 326.189606
L 877.671312 332.426543
L 947.639077 328.887943
" style="fill:none;stroke:#7cb5ec;stroke-linecap:square;"/>
   </g>
   <g id="line2d_39">
    <path clip-path="url(#p5eda1d841a)" d="M 38.058125 210.141922
L 108.025891 280.584477
L 177.993656 282.383124
L 247.961422 307.573783
L 317.929187 308.022647
L 387.896953 316.787536
L 457.864718 311.296986
L 527.832484 326.959482
L 597.80025 323.132723
L 667.768015 328.877909
L 737.735781 331.221277
L 807.703546 325.148946
L 877.671312 333.638096
L 947.639077 329.364449
" style="fill:none;stroke:#434348;stroke-linecap:square;"/>
   </g>
   <g id="line2d_40">
    <path clip-path="url(#p5eda1d841a)" d="M 38.058125 210.65014
L 108.025891 282.172336
L 177.993656 288.383932
L 247.961422 299.105692
L 317.929187 316.201678
L 387.896953 307.839025
L 457.864718 319.070517
L 527.832484 319.550983
L 597.80025 322.378301
L 667.768015 334.844034
L 737.735781 327.642652
L 807.703546 333.696387
L 877.671312 336.102432
L 947.639077 331.779422
" style="fill:none;stroke:#90ed7d;stroke-linecap:square;"/>
   </g>
   <g id="line2d_41">
    <path clip-path="url(#p5eda1d841a)" d="M 38.058125 209.326025
L 108.025891 287.322131
L 177.993656 287.615408
L 247.961422 299.646874
L 317.929187 315.837892
L 387.896953 309.404021
L 457.864718 319.804353
L 527.832484 320.563888
L 597.80025 323.103421
L 667.768015 332.713144
L 737.735781 329.271508
L 807.703546 335.238649
L 877.671312 337.486805
L 947.639077 328.863786
" style="fill:none;stroke:#f7a35c;stroke-linecap:square;"/>
   </g>
   <g id="line2d_42">
    <path clip-path="url(#p5eda1d841a)" d="M 38.058125 227.108679
L 108.025891 289.290896
L 177.993656 296.356233
L 247.961422 306.793228
L 317.929187 312.869564
L 387.896953 317.149788
L 457.864718 324.297769
L 527.832484 325.447429
L 597.80025 327.380501
L 667.768015 329.988082
L 737.735781 329.811717
L 807.703546 332.54266
L 877.671312 333.090882
L 947.639077 334.720105
" style="fill:none;stroke:#8085e9;stroke-linecap:square;"/>
   </g>
   <g id="line2d_43">
    <path clip-path="url(#p5eda1d841a)" d="M 38.058125 193.423606
L 108.025891 268.780381
L 177.993656 287.880852
L 247.961422 294.518138
L 317.929187 306.893563
L 387.896953 310.330604
L 457.864718 317.925907
L 527.832484 322.519966
L 597.80025 322.68224
L 667.768015 327.628794
L 737.735781 328.097765
L 807.703546 328.695883
L 877.671312 332.653552
L 947.639077 331.191569
" style="fill:none;stroke:#f15c80;stroke-linecap:square;"/>
   </g>
   <g id="line2d_44">
    <path clip-path="url(#p5eda1d841a)" d="M 38.058125 190.019651
L 108.025891 269.343757
L 177.993656 288.772031
L 247.961422 293.225312
L 317.929187 309.066329
L 387.896953 309.83131
L 457.864718 317.516561
L 527.832484 322.400602
L 597.80025 322.28657
L 667.768015 327.482862
L 737.735781 327.905166
L 807.703546 329.115593
L 877.671312 331.736281
L 947.639077 330.967906
" style="fill:none;stroke:#e4d354;stroke-linecap:square;"/>
   </g>
   <g id="line2d_45">
    <path clip-path="url(#p5eda1d841a)" d="M 38.058125 226.37536
L 108.025891 290.895222
L 177.993656 296.894535
L 247.961422 306.080746
L 317.929187 313.493941
L 387.896953 320.473567
L 457.864718 323.286215
L 527.832484 326.608549
L 597.80025 326.908278
L 667.768015 329.660633
L 737.735781 330.9521
L 807.703546 333.818871
L 877.671312 333.457796
L 947.639077 333.945401
" style="fill:none;stroke:#2b908f;stroke-linecap:square;"/>
   </g>
   <g id="line2d_46">
    <path clip-path="url(#p5eda1d841a)" d="M 38.058125 193.83413
L 108.025891 267.645284
L 177.993656 287.745423
L 247.961422 295.823133
L 317.929187 304.068808
L 387.896953 311.649067
L 457.864718 319.173588
L 527.832484 319.7734
L 597.80025 323.713645
L 667.768015 326.420676
L 737.735781 327.711493
L 807.703546 328.120373
L 877.671312 330.318276
L 947.639077 333.145494
" style="fill:none;stroke:#f45b5b;stroke-linecap:square;"/>
   </g>
   <g id="line2d_47">
    <path clip-path="url(#p5eda1d841a)" d="M 38.058125 190.745079
L 108.025891 265.368937
L 177.993656 288.753918
L 247.961422 296.433103
L 317.929187 304.032762
L 387.896953 312.006558
L 457.864718 316.358045
L 527.832484 318.680118
L 597.80025 324.479047
L 667.768015 324.798547
L 737.735781 327.681343
L 807.703546 327.835945
L 877.671312 331.526711
L 947.639077 333.016891
" style="fill:none;stroke:#91e8e1;stroke-linecap:square;"/>
   </g>
   <g id="line2d_48">
    <path clip-path="url(#p5eda1d841a)" d="M 38.058125 190.922832
L 108.025891 267.421068
L 177.993656 287.882063
L 247.961422 297.479185
L 317.929187 305.126549
L 387.896953 312.567836
L 457.864718 317.802143
L 527.832484 319.936825
L 597.80025 323.212245
L 667.768015 327.352194
L 737.735781 328.181429
L 807.703546 328.693999
L 877.671312 331.058261
L 947.639077 333.43596
" style="fill:none;stroke:#7cb5ec;stroke-linecap:square;"/>
   </g>
   <g id="line2d_49">
    <path clip-path="url(#p5eda1d841a)" d="M 38.058125 190.640788
L 108.025891 268.291384
L 177.993656 286.737746
L 247.961422 297.66292
L 317.929187 305.407146
L 387.896953 312.192071
L 457.864718 317.535031
L 527.832484 320.39484
L 597.80025 323.817682
L 667.768015 327.609084
L 737.735781 327.819848
L 807.703546 328.974967
L 877.671312 331.126048
L 947.639077 333.490189
" style="fill:none;stroke:#434348;stroke-linecap:square;"/>
   </g>
   <g id="line2d_50">
    <path clip-path="url(#p5eda1d841a)" d="M 38.058125 226.52379
L 108.025891 265.335078
L 177.993656 275.856682
L 247.961422 269.313268
L 317.929187 292.737893
L 387.896953 290.098548
L 457.864718 292.147496
L 527.832484 300.449728
L 597.80025 304.979456
L 667.768015 311.546349
L 737.735781 315.307123
L 807.703546 318.366598
L 877.671312 322.451342
L 947.639077 322.872299
" style="fill:none;stroke:#90ed7d;stroke-linecap:square;"/>
   </g>
   <g id="line2d_51">
    <path clip-path="url(#p5eda1d841a)" d="M 38.058125 225.199618
L 108.025891 264.03985
L 177.993656 274.350939
L 247.961422 270.061596
L 317.929187 292.926555
L 387.896953 287.542719
L 457.864718 291.82296
L 527.832484 301.196135
L 597.80025 304.024128
L 667.768015 310.958199
L 737.735781 313.623185
L 807.703546 317.357152
L 877.671312 321.531057
L 947.639077 322.107309
" style="fill:none;stroke:#f7a35c;stroke-linecap:square;"/>
   </g>
   <g id="line2d_52">
    <path clip-path="url(#p5eda1d841a)" d="M 38.058125 220.405187
L 108.025891 268.146249
L 177.993656 280.61216
L 247.961422 277.704268
L 317.929187 289.652025
L 387.896953 291.740648
L 457.864718 303.492756
L 527.832484 309.638939
L 597.80025 315.097033
L 667.768015 315.632867
L 737.735781 319.729558
L 807.703546 318.522816
L 877.671312 322.572305
L 947.639077 324.586837
" style="fill:none;stroke:#8085e9;stroke-linecap:square;"/>
   </g>
   <g id="line2d_53">
    <path clip-path="url(#p5eda1d841a)" d="M 38.058125 220.644908
L 108.025891 269.040665
L 177.993656 278.903312
L 247.961422 279.012072
L 317.929187 289.138245
L 387.896953 292.831117
L 457.864718 303.711101
L 527.832484 310.278521
L 597.80025 315.738368
L 667.768015 315.357599
L 737.735781 318.583559
L 807.703546 319.207869
L 877.671312 322.057728
L 947.639077 325.1959
" style="fill:none;stroke:#f15c80;stroke-linecap:square;"/>
   </g>
   <g id="line2d_54">
    <path clip-path="url(#p5eda1d841a)" d="M 38.058125 222.157559
L 108.025891 257.056868
L 177.993656 276.979613
L 247.961422 288.635641
L 317.929187 290.944337
L 387.896953 297.007607
L 457.864718 311.042588
L 527.832484 308.543592
L 597.80025 316.642347
L 667.768015 319.95823
L 737.735781 318.578227
L 807.703546 318.885783
L 877.671312 319.656415
L 947.639077 325.251959
" style="fill:none;stroke:#e4d354;stroke-linecap:square;"/>
   </g>
   <g id="line2d_55">
    <path clip-path="url(#p5eda1d841a)" d="M 38.058125 220.908442
L 108.025891 266.413589
L 177.993656 281.720475
L 247.961422 282.258459
L 317.929187 291.0861
L 387.896953 298.544303
L 457.864718 309.826071
L 527.832484 313.97821
L 597.80025 304.508798
L 667.768015 318.889811
L 737.735781 305.626072
L 807.703546 321.046332
L 877.671312 317.569728
L 947.639077 322.174121
" style="fill:none;stroke:#2b908f;stroke-linecap:square;"/>
   </g>
   <g id="line2d_56">
    <path clip-path="url(#p5eda1d841a)" d="M 38.058125 220.176412
L 108.025891 264.971012
L 177.993656 283.327743
L 247.961422 282.889297
L 317.929187 292.234291
L 387.896953 296.070794
L 457.864718 301.751709
L 527.832484 307.221371
L 597.80025 313.292152
L 667.768015 317.522946
L 737.735781 318.681248
L 807.703546 320.194392
L 877.671312 323.003224
L 947.639077 324.268905
" style="fill:none;stroke:#f45b5b;stroke-linecap:square;"/>
   </g>
   <g id="line2d_57">
    <path clip-path="url(#p5eda1d841a)" d="M 38.058125 219.373277
L 108.025891 265.780099
L 177.993656 281.180133
L 247.961422 280.820632
L 317.929187 292.317349
L 387.896953 297.98992
L 457.864718 303.269843
L 527.832484 307.397168
L 597.80025 313.531199
L 667.768015 317.798498
L 737.735781 320.401843
L 807.703546 319.071157
L 877.671312 323.094463
L 947.639077 325.997928
" style="fill:none;stroke:#91e8e1;stroke-linecap:square;"/>
   </g>
   <g id="line2d_58">
    <path clip-path="url(#p5eda1d841a)" d="M 38.058125 219.010569
L 108.025891 262.768925
L 177.993656 272.259238
L 247.961422 282.005911
L 317.929187 289.275236
L 387.896953 294.35719
L 457.864718 302.822549
L 527.832484 309.525968
L 597.80025 311.582471
L 667.768015 322.754485
L 737.735781 317.234605
L 807.703546 320.383109
L 877.671312 323.571567
L 947.639077 319.240196
" style="fill:none;stroke:#7cb5ec;stroke-linecap:square;"/>
   </g>
   <g id="line2d_59">
    <path clip-path="url(#p5eda1d841a)" d="M 38.058125 221.083017
L 108.025891 265.389043
L 177.993656 274.725567
L 247.961422 283.125135
L 317.929187 292.100639
L 387.896953 292.371593
L 457.864718 301.608565
L 527.832484 306.483797
L 597.80025 311.58627
L 667.768015 316.71323
L 737.735781 318.966737
L 807.703546 319.51375
L 877.671312 322.572376
L 947.639077 322.383738
" style="fill:none;stroke:#434348;stroke-linecap:square;"/>
   </g>
   <g id="line2d_60">
    <path clip-path="url(#p5eda1d841a)" d="M 38.058125 219.872135
L 108.025891 268.075513
L 177.993656 277.973633
L 247.961422 279.490384
L 317.929187 289.756278
L 387.896953 300.199575
L 457.864718 304.064706
L 527.832484 306.772258
L 597.80025 310.548494
L 667.768015 317.210734
L 737.735781 319.655943
L 807.703546 323.626799
L 877.671312 319.071276
L 947.639077 325.447177
" style="fill:none;stroke:#90ed7d;stroke-linecap:square;"/>
   </g>
   <g id="line2d_61">
    <path clip-path="url(#p5eda1d841a)" d="M 38.058125 219.223542
L 108.025891 266.559764
L 177.993656 277.191221
L 247.961422 278.867284
L 317.929187 291.154496
L 387.896953 300.961067
L 457.864718 304.059194
L 527.832484 307.158599
L 597.80025 312.34541
L 667.768015 317.413965
L 737.735781 319.972344
L 807.703546 323.369449
L 877.671312 319.95069
L 947.639077 324.053903
" style="fill:none;stroke:#f7a35c;stroke-linecap:square;"/>
   </g>
   <g id="line2d_62">
    <path clip-path="url(#p5eda1d841a)" d="M 38.058125 213.046971
L 108.025891 264.087508
L 177.993656 274.623302
L 247.961422 271.706985
L 317.929187 282.144124
L 387.896953 306.740156
L 457.864718 308.454546
L 527.832484 304.09273
L 597.80025 309.639886
L 667.768015 314.111258
L 737.735781 325.411618
L 807.703546 320.822693
L 877.671312 320.878702
L 947.639077 324.627161
" style="fill:none;stroke:#8085e9;stroke-linecap:square;"/>
   </g>
   <g id="line2d_63">
    <path clip-path="url(#p5eda1d841a)" d="M 38.058125 218.361822
L 108.025891 263.054543
L 177.993656 275.828609
L 247.961422 280.356903
L 317.929187 293.240495
L 387.896953 308.792067
L 457.864718 309.927604
L 527.832484 307.171345
L 597.80025 313.016306
L 667.768015 320.557819
L 737.735781 319.455893
L 807.703546 322.507842
L 877.671312 320.289361
L 947.639077 326.993786
" style="fill:none;stroke:#f15c80;stroke-linecap:square;"/>
   </g>
   <g id="line2d_64">
    <path clip-path="url(#p5eda1d841a)" d="M 38.058125 222.333881
L 108.025891 269.21317
L 177.993656 279.268081
L 247.961422 283.910086
L 317.929187 292.946512
L 387.896953 294.226727
L 457.864718 302.820445
L 527.832484 311.038268
L 597.80025 312.824875
L 667.768015 315.676423
L 737.735781 316.874138
L 807.703546 320.174583
L 877.671312 321.927102
L 947.639077 323.359337
" style="fill:none;stroke:#e4d354;stroke-linecap:square;"/>
   </g>
   <g id="line2d_65">
    <path clip-path="url(#p5eda1d841a)" d="M 38.058125 221.579801
L 108.025891 267.945238
L 177.993656 280.371948
L 247.961422 284.070305
L 317.929187 293.496197
L 387.896953 293.832272
L 457.864718 303.976912
L 527.832484 310.328569
L 597.80025 312.236082
L 667.768015 315.353539
L 737.735781 317.954592
L 807.703546 320.467738
L 877.671312 321.627203
L 947.639077 323.521467
" style="fill:none;stroke:#2b908f;stroke-linecap:square;"/>
   </g>
   <g id="line2d_66">
    <path clip-path="url(#p5eda1d841a)" d="M 38.058125 218.988618
L 108.025891 267.11833
L 177.993656 276.161028
L 247.961422 282.407241
L 317.929187 293.214868
L 387.896953 297.436704
L 457.864718 302.823116
L 527.832484 309.71774
L 597.80025 313.721068
L 667.768015 318.391373
L 737.735781 320.412418
L 807.703546 321.727831
L 877.671312 321.705473
L 947.639077 324.108785
" style="fill:none;stroke:#f45b5b;stroke-linecap:square;"/>
   </g>
   <g id="line2d_67">
    <path clip-path="url(#p5eda1d841a)" d="M 38.058125 218.413042
L 108.025891 267.117984
L 177.993656 277.57574
L 247.961422 281.868706
L 317.929187 293.465518
L 387.896953 296.502608
L 457.864718 302.548216
L 527.832484 310.497333
L 597.80025 313.665309
L 667.768015 318.890186
L 737.735781 319.113758
L 807.703546 320.338283
L 877.671312 322.674893
L 947.639077 324.912991
" style="fill:none;stroke:#91e8e1;stroke-linecap:square;"/>
   </g>
   <g id="line2d_68">
    <path clip-path="url(#p5eda1d841a)" d="M 38.058125 223.017458
L 108.025891 264.497162
L 177.993656 273.532672
L 247.961422 265.924335
L 317.929187 286.965115
L 387.896953 290.122109
L 457.864718 292.215242
L 527.832484 302.125315
L 597.80025 306.335383
L 667.768015 311.553467
L 737.735781 314.370579
L 807.703546 316.752379
L 877.671312 320.549385
L 947.639077 321.236014
" style="fill:none;stroke:#7cb5ec;stroke-linecap:square;"/>
   </g>
   <g id="line2d_69">
    <path clip-path="url(#p5eda1d841a)" d="M 38.058125 224.086041
L 108.025891 267.289127
L 177.993656 275.23141
L 247.961422 266.45734
L 317.929187 287.054275
L 387.896953 290.053915
L 457.864718 293.344078
L 527.832484 304.693985
L 597.80025 307.25728
L 667.768015 312.219961
L 737.735781 315.789782
L 807.703546 317.723436
L 877.671312 319.478858
L 947.639077 320.988426
" style="fill:none;stroke:#434348;stroke-linecap:square;"/>
   </g>
   <g id="line2d_70">
    <path clip-path="url(#p5eda1d841a)" d="M 38.058125 298.164506
L 108.025891 257.08845
L 177.993656 230.123629
L 247.961422 252.281678
L 317.929187 246.968929
L 387.896953 249.693416
L 457.864718 292.046796
L 527.832484 300.096415
L 597.80025 298.660537
L 667.768015 353.2239
L 737.735781 292.046796
L 807.703546 293.846122
L 877.671312 322.635348
L 947.639077 293.846122
" style="fill:none;stroke:#90ed7d;stroke-linecap:square;"/>
   </g>
   <g id="line2d_71">
    <path clip-path="url(#p5eda1d841a)" d="M 38.058125 257.995388
L 108.025891 319.576493
L 177.993656 285.929085
L 247.961422 331.279939
L 317.929187 329.748965
L 387.896953 331.279939
L 457.864718 285.929085
L 527.832484 331.746831
L 597.80025 235.849223
L 667.768015 275.576037
L 737.735781 305.156175
L 807.703546 305.156175
L 877.671312 315.132495
L 947.639077 312.847011
" style="fill:none;stroke:#f7a35c;stroke-linecap:square;"/>
   </g>
   <g id="line2d_72">
    <path clip-path="url(#p5eda1d841a)" d="M 38.058125 224.984176
L 108.025891 267.080079
L 177.993656 273.007319
L 247.961422 269.915416
L 317.929187 284.617764
L 387.896953 288.466776
L 457.864718 297.384077
L 527.832484 301.541115
L 597.80025 307.908564
L 667.768015 314.395677
L 737.735781 317.102777
L 807.703546 319.533896
L 877.671312 320.597994
L 947.639077 322.692065
" style="fill:none;stroke:#8085e9;stroke-linecap:square;"/>
   </g>
   <g id="line2d_73">
    <path clip-path="url(#p5eda1d841a)" d="M 38.058125 225.752987
L 108.025891 267.380133
L 177.993656 273.507282
L 247.961422 270.736667
L 317.929187 286.582433
L 387.896953 289.429972
L 457.864718 298.415983
L 527.832484 301.419116
L 597.80025 308.063574
L 667.768015 313.282733
L 737.735781 317.274156
L 807.703546 320.326778
L 877.671312 318.22137
L 947.639077 324.199165
" style="fill:none;stroke:#f15c80;stroke-linecap:square;"/>
   </g>
   <g id="line2d_74">
    <path clip-path="url(#p5eda1d841a)" d="M 38.058125 160.953001
L 108.025891 285.929085
L 177.993656 275.576037
L 247.961422 50.397233
L 317.929187 50.397233
L 387.896953 353.2239
L 457.864718 275.576037
L 527.832484 290.135011
L 597.80025 297.144888
L 667.768015 353.2239
L 737.735781 290.135011
L 807.703546 285.929085
L 877.671312 252.281678
L 947.639077 353.2239
" style="fill:none;stroke:#e4d354;stroke-linecap:square;"/>
   </g>
   <g id="line2d_75">
    <path clip-path="url(#p5eda1d841a)" d="M 38.058125 133.784286
L 108.025891 353.2239
L 177.993656 151.339456
L 247.961422 353.2239
L 317.929187 293.846122
L 387.896953 353.2239
L 457.864718 269.105381
L 527.832484 353.2239
L 597.80025 285.929085
L 667.768015 353.2239
L 737.735781 307.341072
L 807.703546 353.2239
L 877.671312 353.2239
L 947.639077 281.122313
" style="fill:none;stroke:#2b908f;stroke-linecap:square;"/>
   </g>
   <g id="line2d_76">
    <path clip-path="url(#p5eda1d841a)" d="M 38.058125 226.545144
L 108.025891 259.640258
L 177.993656 269.294655
L 247.961422 268.472769
L 317.929187 281.530943
L 387.896953 285.905872
L 457.864718 292.022068
L 527.832484 303.755391
L 597.80025 310.207015
L 667.768015 309.763641
L 737.735781 317.48776
L 807.703546 316.306256
L 877.671312 320.418967
L 947.639077 324.445155
" style="fill:none;stroke:#f45b5b;stroke-linecap:square;"/>
   </g>
   <g id="line2d_77">
    <path clip-path="url(#p5eda1d841a)" d="M 38.058125 222.002139
L 108.025891 261.134629
L 177.993656 271.631625
L 247.961422 267.877512
L 317.929187 284.581252
L 387.896953 287.190186
L 457.864718 293.463128
L 527.832484 302.291147
L 597.80025 310.994222
L 667.768015 311.094092
L 737.735781 318.201312
L 807.703546 316.75722
L 877.671312 318.06379
L 947.639077 323.649384
" style="fill:none;stroke:#91e8e1;stroke-linecap:square;"/>
   </g>
   <g id="line2d_78">
    <path clip-path="url(#p5eda1d841a)" d="M 38.058125 241.243622
L 108.025891 299.182175
L 177.993656 312.27732
L 247.961422 289.566643
L 317.929187 314.612121
L 387.896953 320.836021
L 457.864718 325.803262
L 527.832484 319.984693
L 597.80025 332.19427
L 667.768015 337.001043
L 737.735781 324.536945
L 807.703546 335.452382
L 877.671312 339.300835
L 947.639077 335.230634
" style="fill:none;stroke:#7cb5ec;stroke-linecap:square;"/>
   </g>
   <g id="line2d_79">
    <path clip-path="url(#p5eda1d841a)" d="M 38.058125 249.970024
L 108.025891 300.688914
L 177.993656 309.639175
L 247.961422 291.607463
L 317.929187 318.604726
L 387.896953 324.331672
L 457.864718 320.495193
L 527.832484 321.569545
L 597.80025 332.693279
L 667.768015 331.784844
L 737.735781 328.474494
L 807.703546 335.483615
L 877.671312 339.228445
L 947.639077 333.777938
" style="fill:none;stroke:#434348;stroke-linecap:square;"/>
   </g>
   <g id="line2d_80">
    <path clip-path="url(#p5eda1d841a)" d="M 38.058125 245.524039
L 108.025891 300.229233
L 177.993656 312.439164
L 247.961422 322.274634
L 317.929187 318.330292
L 387.896953 299.14771
L 457.864718 315.275696
L 527.832484 317.597233
L 597.80025 335.335405
L 667.768015 338.120326
L 737.735781 340.883775
L 807.703546 333.169154
L 877.671312 336.753141
L 947.639077 325.739632
" style="fill:none;stroke:#90ed7d;stroke-linecap:square;"/>
   </g>
   <g id="line2d_81">
    <path clip-path="url(#p5eda1d841a)" d="M 38.058125 242.274475
L 108.025891 304.91402
L 177.993656 314.98821
L 247.961422 321.373199
L 317.929187 314.98821
L 387.896953 297.566534
L 457.864718 316.229368
L 527.832484 317.173106
L 597.80025 335.290003
L 667.768015 337.573943
L 737.735781 340.542716
L 807.703546 332.623446
L 877.671312 338.664926
L 947.639077 327.73344
" style="fill:none;stroke:#f7a35c;stroke-linecap:square;"/>
   </g>
   <g id="line2d_82">
    <path clip-path="url(#p5eda1d841a)" d="M 38.058125 250.570793
L 108.025891 284.788495
L 177.993656 315.837892
L 247.961422 336.675995
L 317.929187 293.846122
L 387.896953 321.17875
L 457.864718 284.788495
L 527.832484 337.929624
L 597.80025 337.451678
L 667.768015 291.105609
L 737.735781 292.658567
L 807.703546 353.2239
L 877.671312 315.370567
L 947.639077 330.792295
" style="fill:none;stroke:#8085e9;stroke-linecap:square;"/>
   </g>
   <g id="line2d_83">
    <path clip-path="url(#p5eda1d841a)" d="M 38.058125 339.583059
L 108.025891 339.583059
L 177.993656 289.1336
L 247.961422 313.378286
L 317.929187 340.282589
L 387.896953 292.046796
L 457.864718 297.913093
L 527.832484 325.184394
L 597.80025 321.17875
L 667.768015 305.907233
L 737.735781 338.379456
L 807.703546 338.594592
L 877.671312 323.965285
L 947.639077 337.929624
" style="fill:none;stroke:#f15c80;stroke-linecap:square;"/>
   </g>
   <g id="line2d_84">
    <path clip-path="url(#p5eda1d841a)" d="M 38.058125 289.804703
L 108.025891 299.388048
L 177.993656 322.839954
L 247.961422 305.156175
L 317.929187 304.868344
L 387.896953 309.061678
L 457.864718 316.818508
L 527.832484 317.405692
L 597.80025 333.623469
L 667.768015 326.5039
L 737.735781 329.680525
L 807.703546 322.068893
L 877.671312 318.085785
L 947.639077 336.456089
" style="fill:none;stroke:#e4d354;stroke-linecap:square;"/>
   </g>
   <g id="line2d_85">
    <path clip-path="url(#p5eda1d841a)" d="M 38.058125 292.28765
L 108.025891 289.080013
L 177.993656 319.688278
L 247.961422 305.459442
L 317.929187 301.846122
L 387.896953 313.093965
L 457.864718 314.023037
L 527.832484 323.43767
L 597.80025 329.748965
L 667.768015 329.884658
L 737.735781 332.860916
L 807.703546 328.452803
L 877.671312 317.861975
L 947.639077 336.890207
" style="fill:none;stroke:#2b908f;stroke-linecap:square;"/>
   </g>
   <g id="line2d_86">
    <path clip-path="url(#p5eda1d841a)" d="M 38.058125 255.537878
L 108.025891 329.748965
L 177.993656 269.105381
L 247.961422 267.315626
L 317.929187 311.164641
L 387.896953 353.2239
L 457.864718 292.658567
L 527.832484 333.811934
L 597.80025 353.2239
L 667.768015 353.2239
L 737.735781 353.2239
L 807.703546 353.2239
L 877.671312 305.907233
L 947.639077 314.399968
" style="fill:none;stroke:#f45b5b;stroke-linecap:square;"/>
   </g>
   <g id="line2d_87">
    <path clip-path="url(#p5eda1d841a)" d="M 38.058125 236.752105
L 108.025891 288.792694
L 177.993656 290.135011
L 247.961422 292.658567
L 317.929187 353.2239
L 387.896953 333.035456
L 457.864718 333.035456
L 527.832484 316.517637
L 597.80025 301.458658
L 667.768015 334.870769
L 737.735781 353.2239
L 807.703546 332.623446
L 877.671312 319.006198
L 947.639077 333.431307
" style="fill:none;stroke:#91e8e1;stroke-linecap:square;"/>
   </g>
   <g id="line2d_88">
    <path clip-path="url(#p5eda1d841a)" d="M 38.058125 266.701995
L 108.025891 267.679644
L 177.993656 320.81126
L 247.961422 315.438041
L 317.929187 314.023037
L 387.896953 300.649826
L 457.864718 328.483159
L 527.832484 336.585072
L 597.80025 329.528543
L 667.768015 347.615999
L 737.735781 327.073065
L 807.703546 331.972906
L 877.671312 331.746831
L 947.639077 336.115049
" style="fill:none;stroke:#7cb5ec;stroke-linecap:square;"/>
   </g>
   <g id="line2d_89">
    <path clip-path="url(#p5eda1d841a)" d="M 38.058125 252.73843
L 108.025891 267.193597
L 177.993656 320.511143
L 247.961422 316.229368
L 317.929187 323.823253
L 387.896953 317.356105
L 457.864718 329.416772
L 527.832484 331.038796
L 597.80025 333.718157
L 667.768015 342.763566
L 737.735781 322.789059
L 807.703546 335.514738
L 877.671312 342.42794
L 947.639077 341.687646
" style="fill:none;stroke:#434348;stroke-linecap:square;"/>
   </g>
   <g id="line2d_90">
    <path clip-path="url(#p5eda1d841a)" d="M 38.058125 227.046122
L 108.025891 252.281678
L 177.993656 254.260937
L 247.961422 309.335977
L 317.929187 291.422539
L 387.896953 274.05353
L 457.864718 353.2239
L 527.832484 329.748965
L 597.80025 353.2239
L 667.768015 327.341279
L 737.735781 301.458658
L 807.703546 353.2239
L 877.671312 277.517233
L 947.639077 301.458658
" style="fill:none;stroke:#90ed7d;stroke-linecap:square;"/>
   </g>
   <g id="line2d_91">
    <path clip-path="url(#p5eda1d841a)" d="M 38.058125 311.164641
L 108.025891 290.135011
L 177.993656 353.2239
L 247.961422 285.929085
L 317.929187 301.012406
L 387.896953 333.431307
L 457.864718 353.2239
L 527.832484 310.269763
L 597.80025 353.2239
L 667.768015 313.638715
L 737.735781 302.752789
L 807.703546 353.2239
L 877.671312 353.2239
L 947.639077 329.748965
" style="fill:none;stroke:#f7a35c;stroke-linecap:square;"/>
   </g>
   <g id="line2d_92">
    <path clip-path="url(#p5eda1d841a)" d="M 38.058125 201.155098
L 108.025891 285.304539
L 177.993656 282.923121
L 247.961422 295.067887
L 317.929187 305.07203
L 387.896953 307.6428
L 457.864718 320.552395
L 527.832484 324.903437
L 597.80025 325.464789
L 667.768015 330.282486
L 737.735781 332.212138
L 807.703546 332.739079
L 877.671312 334.073816
L 947.639077 335.251991
" style="fill:none;stroke:#8085e9;stroke-linecap:square;"/>
   </g>
   <g id="line2d_93">
    <path clip-path="url(#p5eda1d841a)" d="M 38.058125 205.096108
L 108.025891 282.541246
L 177.993656 284.344536
L 247.961422 291.488356
L 317.929187 303.35983
L 387.896953 304.005228
L 457.864718 319.04196
L 527.832484 324.15254
L 597.80025 330.662311
L 667.768015 329.366325
L 737.735781 330.726264
L 807.703546 331.024446
L 877.671312 334.994099
L 947.639077 336.172849
" style="fill:none;stroke:#f15c80;stroke-linecap:square;"/>
   </g>
   <g id="line2d_94">
    <path clip-path="url(#p5eda1d841a)" d="M 38.058125 206.043214
L 108.025891 284.926303
L 177.993656 287.954224
L 247.961422 300.458647
L 317.929187 312.769956
L 387.896953 314.707978
L 457.864718 315.769218
L 527.832484 316.145912
L 597.80025 329.828975
L 667.768015 331.807587
L 737.735781 336.188767
L 807.703546 330.369057
L 877.671312 332.937782
L 947.639077 334.304189
" style="fill:none;stroke:#e4d354;stroke-linecap:square;"/>
   </g>
   <g id="line2d_95">
    <path clip-path="url(#p5eda1d841a)" d="M 38.058125 205.01636
L 108.025891 281.498596
L 177.993656 291.57352
L 247.961422 301.219833
L 317.929187 314.385178
L 387.896953 313.030751
L 457.864718 317.014757
L 527.832484 315.080154
L 597.80025 327.633888
L 667.768015 329.617865
L 737.735781 333.658645
L 807.703546 331.363312
L 877.671312 334.271173
L 947.639077 335.820069
" style="fill:none;stroke:#2b908f;stroke-linecap:square;"/>
   </g>
   <g id="line2d_96">
    <path clip-path="url(#p5eda1d841a)" d="M 38.058125 221.33959
L 108.025891 299.566905
L 177.993656 289.293826
L 247.961422 289.566643
L 317.929187 292.134947
L 387.896953 290.69332
L 457.864718 319.482767
L 527.832484 288.448142
L 597.80025 334.481312
L 667.768015 337.451678
L 737.735781 334.77493
L 807.703546 328.973516
L 877.671312 341.817999
L 947.639077 338.112789
" style="fill:none;stroke:#f45b5b;stroke-linecap:square;"/>
   </g>
   <g id="line2d_97">
    <path clip-path="url(#p5eda1d841a)" d="M 38.058125 196.497818
L 108.025891 294.751271
L 177.993656 277.431105
L 247.961422 297.7932
L 317.929187 308.5592
L 387.896953 301.536618
L 457.864718 312.022993
L 527.832484 309.447936
L 597.80025 339.396198
L 667.768015 329.627017
L 737.735781 327.847364
L 807.703546 346.855306
L 877.671312 342.191963
L 947.639077 332.802063
" style="fill:none;stroke:#91e8e1;stroke-linecap:square;"/>
   </g>
   <g id="line2d_98">
    <path clip-path="url(#p5eda1d841a)" d="M 38.058125 205.468923
L 108.025891 283.334018
L 177.993656 297.119953
L 247.961422 295.783974
L 317.929187 305.726537
L 387.896953 306.035463
L 457.864718 317.956819
L 527.832484 322.808164
L 597.80025 326.63988
L 667.768015 326.607887
L 737.735781 333.439066
L 807.703546 331.134974
L 877.671312 332.19427
L 947.639077 336.562744
" style="fill:none;stroke:#7cb5ec;stroke-linecap:square;"/>
   </g>
   <g id="line2d_99">
    <path clip-path="url(#p5eda1d841a)" d="M 38.058125 204.716909
L 108.025891 280.173608
L 177.993656 295.845287
L 247.961422 296.723241
L 317.929187 307.847339
L 387.896953 305.389797
L 457.864718 319.980627
L 527.832484 321.323423
L 597.80025 327.537881
L 667.768015 328.246052
L 737.735781 335.48015
L 807.703546 330.009262
L 877.671312 329.543617
L 947.639077 336.962567
" style="fill:none;stroke:#434348;stroke-linecap:square;"/>
   </g>
   <g id="line2d_100">
    <path clip-path="url(#p5eda1d841a)" d="M 38.058125 218.685523
L 108.025891 282.353649
L 177.993656 296.759654
L 247.961422 307.557296
L 317.929187 300.876172
L 387.896953 312.364123
L 457.864718 322.793428
L 527.832484 325.919157
L 597.80025 329.405149
L 667.768015 324.688996
L 737.735781 328.582381
L 807.703546 339.764937
L 877.671312 334.806987
L 947.639077 337.015515
" style="fill:none;stroke:#90ed7d;stroke-linecap:square;"/>
   </g>
   <g id="line2d_101">
    <path clip-path="url(#p5eda1d841a)" d="M 38.058125 218.887258
L 108.025891 279.270036
L 177.993656 298.76205
L 247.961422 295.747902
L 317.929187 299.195949
L 387.896953 303.594713
L 457.864718 322.509573
L 527.832484 320.766594
L 597.80025 328.503356
L 667.768015 326.706679
L 737.735781 329.532515
L 807.703546 335.939273
L 877.671312 340.388377
L 947.639077 328.496147
" style="fill:none;stroke:#f7a35c;stroke-linecap:square;"/>
   </g>
   <g id="line2d_102">
    <path clip-path="url(#p5eda1d841a)" d="M 38.058125 210.65014
L 108.025891 288.974961
L 177.993656 300.096415
L 247.961422 296.143477
L 317.929187 310.277073
L 387.896953 308.735174
L 457.864718 314.362911
L 527.832484 323.965285
L 597.80025 323.133563
L 667.768015 320.13852
L 737.735781 328.946657
L 807.703546 328.385755
L 877.671312 339.721025
L 947.639077 330.114711
" style="fill:none;stroke:#8085e9;stroke-linecap:square;"/>
   </g>
   <g id="line2d_103">
    <path clip-path="url(#p5eda1d841a)" d="M 38.058125 208.816066
L 108.025891 288.861165
L 177.993656 301.69974
L 247.961422 296.439725
L 317.929187 308.705792
L 387.896953 308.909453
L 457.864718 314.019943
L 527.832484 323.929906
L 597.80025 324.710899
L 667.768015 320.221727
L 737.735781 327.964364
L 807.703546 328.781084
L 877.671312 336.267203
L 947.639077 330.620075
" style="fill:none;stroke:#f15c80;stroke-linecap:square;"/>
   </g>
   <g id="line2d_104">
    <path clip-path="url(#p5eda1d841a)" d="M 38.058125 204.242909
L 108.025891 273.770272
L 177.993656 315.683404
L 247.961422 296.329193
L 317.929187 310.944435
L 387.896953 287.929106
L 457.864718 325.568497
L 527.832484 330.107361
L 597.80025 322.089124
L 667.768015 327.506136
L 737.735781 326.079773
L 807.703546 326.753038
L 877.671312 328.560879
L 947.639077 331.389476
" style="fill:none;stroke:#e4d354;stroke-linecap:square;"/>
   </g>
   <g id="line2d_105">
    <path clip-path="url(#p5eda1d841a)" d="M 38.058125 221.222532
L 108.025891 292.277653
L 177.993656 296.416589
L 247.961422 298.99151
L 317.929187 314.98821
L 387.896953 303.891235
L 457.864718 316.254615
L 527.832484 321.057183
L 597.80025 324.245272
L 667.768015 323.162737
L 737.735781 328.731853
L 807.703546 327.385447
L 877.671312 340.673357
L 947.639077 330.481285
" style="fill:none;stroke:#2b908f;stroke-linecap:square;"/>
   </g>
   <g id="line2d_106">
    <path clip-path="url(#p5eda1d841a)" d="M 38.058125 201.446417
L 108.025891 289.774503
L 177.993656 285.412426
L 247.961422 295.645449
L 317.929187 303.861651
L 387.896953 305.070615
L 457.864718 312.182203
L 527.832484 320.547091
L 597.80025 325.555119
L 667.768015 323.377196
L 737.735781 328.677657
L 807.703546 326.75182
L 877.671312 332.267037
L 947.639077 338.75069
" style="fill:none;stroke:#f45b5b;stroke-linecap:square;"/>
   </g>
   <g id="line2d_107">
    <path clip-path="url(#p5eda1d841a)" d="M 38.058125 198.73537
L 108.025891 289.686299
L 177.993656 285.644267
L 247.961422 300.460302
L 317.929187 305.12173
L 387.896953 305.772428
L 457.864718 309.73176
L 527.832484 321.323423
L 597.80025 322.406853
L 667.768015 324.831812
L 737.735781 328.530596
L 807.703546 325.554458
L 877.671312 330.321918
L 947.639077 337.046182
" style="fill:none;stroke:#91e8e1;stroke-linecap:square;"/>
   </g>
   <g id="line2d_108">
    <path clip-path="url(#p5eda1d841a)" d="M 38.058125 189.105086
L 108.025891 289.41427
L 177.993656 287.450892
L 247.961422 301.362297
L 317.929187 310.7957
L 387.896953 309.208396
L 457.864718 316.019882
L 527.832484 317.125357
L 597.80025 327.332427
L 667.768015 329.173907
L 737.735781 327.89292
L 807.703546 328.079448
L 877.671312 332.216907
L 947.639077 333.354781
" style="fill:none;stroke:#7cb5ec;stroke-linecap:square;"/>
   </g>
   <g id="line2d_109">
    <path clip-path="url(#p5eda1d841a)" d="M 38.058125 188.620824
L 108.025891 284.983431
L 177.993656 289.41427
L 247.961422 298.751916
L 317.929187 308.767481
L 387.896953 307.52534
L 457.864718 315.524711
L 527.832484 317.483272
L 597.80025 327.403072
L 667.768015 329.78057
L 737.735781 328.992228
L 807.703546 327.463945
L 877.671312 332.831532
L 947.639077 333.860206
" style="fill:none;stroke:#434348;stroke-linecap:square;"/>
   </g>
   <g id="line2d_110">
    <path clip-path="url(#p5eda1d841a)" d="M 38.058125 194.610346
L 108.025891 275.639526
L 177.993656 289.26135
L 247.961422 295.632792
L 317.929187 296.237174
L 387.896953 310.093287
L 457.864718 314.85176
L 527.832484 321.921131
L 597.80025 323.114939
L 667.768015 327.688497
L 737.735781 330.633324
L 807.703546 327.612301
L 877.671312 332.268405
L 947.639077 333.596246
" style="fill:none;stroke:#90ed7d;stroke-linecap:square;"/>
   </g>
   <g id="line2d_111">
    <path clip-path="url(#p5eda1d841a)" d="M 38.058125 195.340791
L 108.025891 277.14913
L 177.993656 290.161642
L 247.961422 294.104593
L 317.929187 294.880414
L 387.896953 305.625129
L 457.864718 312.847011
L 527.832484 321.645031
L 597.80025 323.195321
L 667.768015 326.88441
L 737.735781 330.367643
L 807.703546 330.098069
L 877.671312 331.14906
L 947.639077 334.374935
" style="fill:none;stroke:#f7a35c;stroke-linecap:square;"/>
   </g>
   <g id="line2d_112">
    <path clip-path="url(#p5eda1d841a)" d="M 38.058125 222.19031
L 108.025891 285.408455
L 177.993656 294.634575
L 247.961422 303.744331
L 317.929187 307.753247
L 387.896953 314.150337
L 457.864718 318.920925
L 527.832484 321.888861
L 597.80025 325.987896
L 667.768015 327.403706
L 737.735781 330.596913
L 807.703546 329.827133
L 877.671312 331.787035
L 947.639077 332.186253
" style="fill:none;stroke:#8085e9;stroke-linecap:square;"/>
   </g>
   <g id="line2d_113">
    <path clip-path="url(#p5eda1d841a)" d="M 38.058125 219.885291
L 108.025891 286.638619
L 177.993656 293.295691
L 247.961422 306.255875
L 317.929187 307.679127
L 387.896953 315.721944
L 457.864718 317.568145
L 527.832484 321.749284
L 597.80025 325.644058
L 667.768015 327.199934
L 737.735781 330.199942
L 807.703546 329.950781
L 877.671312 331.430365
L 947.639077 331.356837
" style="fill:none;stroke:#f15c80;stroke-linecap:square;"/>
   </g>
   <g id="line2d_114">
    <path clip-path="url(#p5eda1d841a)" d="M 38.058125 210.42959
L 108.025891 273.915739
L 177.993656 294.037901
L 247.961422 300.034343
L 317.929187 305.523614
L 387.896953 308.068344
L 457.864718 314.866549
L 527.832484 321.558781
L 597.80025 324.254659
L 667.768015 328.114465
L 737.735781 330.938841
L 807.703546 331.858614
L 877.671312 333.566669
L 947.639077 334.080093
" style="fill:none;stroke:#e4d354;stroke-linecap:square;"/>
   </g>
   <g id="line2d_115">
    <path clip-path="url(#p5eda1d841a)" d="M 38.058125 209.167512
L 108.025891 276.631556
L 177.993656 293.121281
L 247.961422 298.346114
L 317.929187 306.801525
L 387.896953 306.323858
L 457.864718 313.820507
L 527.832484 320.458358
L 597.80025 324.631321
L 667.768015 326.444488
L 737.735781 329.791496
L 807.703546 332.451521
L 877.671312 333.431307
L 947.639077 334.738039
" style="fill:none;stroke:#2b908f;stroke-linecap:square;"/>
   </g>
   <g id="line2d_116">
    <path clip-path="url(#p5eda1d841a)" d="M 38.058125 191.591209
L 108.025891 289.667686
L 177.993656 304.730797
L 247.961422 295.010392
L 317.929187 316.922173
L 387.896953 308.87934
L 457.864718 316.559302
L 527.832484 313.378286
L 597.80025 322.497406
L 667.768015 324.979726
L 737.735781 326.660157
L 807.703546 330.89155
L 877.671312 328.830498
L 947.639077 334.652279
" style="fill:none;stroke:#f45b5b;stroke-linecap:square;"/>
   </g>
   <g id="line2d_117">
    <path clip-path="url(#p5eda1d841a)" d="M 38.058125 199.744498
L 108.025891 277.087431
L 177.993656 276.30427
L 247.961422 291.717886
L 317.929187 318.928694
L 387.896953 307.241543
L 457.864718 322.635348
L 527.832484 329.945819
L 597.80025 316.280568
L 667.768015 327.456185
L 737.735781 331.188696
L 807.703546 326.720805
L 877.671312 329.247125
L 947.639077 330.177731
" style="fill:none;stroke:#91e8e1;stroke-linecap:square;"/>
   </g>
   <g id="line2d_118">
    <path clip-path="url(#p5eda1d841a)" d="M 38.058125 206.18679
L 108.025891 275.138155
L 177.993656 291.018609
L 247.961422 297.332097
L 317.929187 302.284512
L 387.896953 310.160805
L 457.864718 317.389748
L 527.832484 320.348964
L 597.80025 320.840245
L 667.768015 325.096888
L 737.735781 326.217081
L 807.703546 328.840604
L 877.671312 333.669526
L 947.639077 331.463623
" style="fill:none;stroke:#7cb5ec;stroke-linecap:square;"/>
   </g>
   <g id="line2d_119">
    <path clip-path="url(#p5eda1d841a)" d="M 38.058125 210.260662
L 108.025891 275.709175
L 177.993656 290.371929
L 247.961422 296.311142
L 317.929187 305.51404
L 387.896953 309.836658
L 457.864718 317.91766
L 527.832484 319.619438
L 597.80025 320.952074
L 667.768015 324.7009
L 737.735781 327.114289
L 807.703546 329.027404
L 877.671312 333.666417
L 947.639077 332.096191
" style="fill:none;stroke:#434348;stroke-linecap:square;"/>
   </g>
   <g id="line2d_120">
    <path clip-path="url(#p5eda1d841a)" d="M 38.058125 213.913185
L 108.025891 275.936352
L 177.993656 280.312183
L 247.961422 298.848946
L 317.929187 302.925045
L 387.896953 311.951612
L 457.864718 316.505041
L 527.832484 311.926277
L 597.80025 323.901541
L 667.768015 323.435451
L 737.735781 327.448453
L 807.703546 330.128102
L 877.671312 334.767516
L 947.639077 333.255793
" style="fill:none;stroke:#90ed7d;stroke-linecap:square;"/>
   </g>
   <g id="line2d_121">
    <path clip-path="url(#p5eda1d841a)" d="M 38.058125 216.831731
L 108.025891 273.980923
L 177.993656 281.74121
L 247.961422 298.11563
L 317.929187 313.413799
L 387.896953 313.515779
L 457.864718 318.25391
L 527.832484 316.824902
L 597.80025 324.131973
L 667.768015 324.993128
L 737.735781 326.270036
L 807.703546 326.969249
L 877.671312 334.858401
L 947.639077 328.753058
" style="fill:none;stroke:#f7a35c;stroke-linecap:square;"/>
   </g>
   <g id="line2d_122">
    <path clip-path="url(#p5eda1d841a)" d="M 38.058125 205.593174
L 108.025891 269.603124
L 177.993656 294.722667
L 247.961422 300.157574
L 317.929187 307.016155
L 387.896953 307.659244
L 457.864718 313.011347
L 527.832484 323.570609
L 597.80025 324.529411
L 667.768015 326.233323
L 737.735781 331.831024
L 807.703546 331.763435
L 877.671312 334.557302
L 947.639077 330.648133
" style="fill:none;stroke:#8085e9;stroke-linecap:square;"/>
   </g>
   <g id="line2d_123">
    <path clip-path="url(#p5eda1d841a)" d="M 38.058125 206.00454
L 108.025891 268.89561
L 177.993656 293.063334
L 247.961422 298.487715
L 317.929187 306.103834
L 387.896953 307.612282
L 457.864718 311.486496
L 527.832484 324.838807
L 597.80025 324.162319
L 667.768015 325.850589
L 737.735781 330.806057
L 807.703546 331.521518
L 877.671312 336.070999
L 947.639077 330.341583
" style="fill:none;stroke:#f15c80;stroke-linecap:square;"/>
   </g>
   <g id="line2d_124">
    <path clip-path="url(#p5eda1d841a)" d="M 38.058125 199.881579
L 108.025891 278.24185
L 177.993656 289.57736
L 247.961422 297.175119
L 317.929187 310.704474
L 387.896953 307.341072
L 457.864718 320.414944
L 527.832484 330.968922
L 597.80025 327.095168
L 667.768015 326.576006
L 737.735781 335.334032
L 807.703546 332.108734
L 877.671312 332.680103
L 947.639077 337.357643
" style="fill:none;stroke:#e4d354;stroke-linecap:square;"/>
   </g>
   <g id="line2d_125">
    <path clip-path="url(#p5eda1d841a)" d="M 38.058125 204.323554
L 108.025891 286.618111
L 177.993656 291.890466
L 247.961422 308.739025
L 317.929187 310.771564
L 387.896953 308.931809
L 457.864718 320.973989
L 527.832484 323.329856
L 597.80025 327.109494
L 667.768015 325.61214
L 737.735781 331.571329
L 807.703546 332.04721
L 877.671312 332.623446
L 947.639077 336.20519
" style="fill:none;stroke:#2b908f;stroke-linecap:square;"/>
   </g>
   <g id="line2d_126">
    <path clip-path="url(#p5eda1d841a)" d="M 38.058125 206.981155
L 108.025891 278.4563
L 177.993656 290.494764
L 247.961422 300.456101
L 317.929187 301.216977
L 387.896953 311.192366
L 457.864718 314.110174
L 527.832484 320.8045
L 597.80025 325.763274
L 667.768015 326.555875
L 737.735781 330.316866
L 807.703546 331.895732
L 877.671312 330.335515
L 947.639077 334.510511
" style="fill:none;stroke:#f45b5b;stroke-linecap:square;"/>
   </g>
   <g id="line2d_127">
    <path clip-path="url(#p5eda1d841a)" d="M 38.058125 207.975675
L 108.025891 276.519722
L 177.993656 289.637326
L 247.961422 299.530036
L 317.929187 302.133511
L 387.896953 311.950924
L 457.864718 314.951445
L 527.832484 321.063263
L 597.80025 325.072683
L 667.768015 326.66851
L 737.735781 330.582856
L 807.703546 331.380665
L 877.671312 330.981643
L 947.639077 335.464423
" style="fill:none;stroke:#91e8e1;stroke-linecap:square;"/>
   </g>
   <g id="line2d_128">
    <path clip-path="url(#p5eda1d841a)" d="M 38.058125 205.564359
L 108.025891 275.204001
L 177.993656 289.661134
L 247.961422 298.845464
L 317.929187 301.81869
L 387.896953 311.084145
L 457.864718 315.39246
L 527.832484 325.431057
L 597.80025 322.324396
L 667.768015 327.184001
L 737.735781 330.939027
L 807.703546 333.188109
L 877.671312 332.751247
L 947.639077 333.694995
" style="fill:none;stroke:#7cb5ec;stroke-linecap:square;"/>
   </g>
   <g id="line2d_129">
    <path clip-path="url(#p5eda1d841a)" d="M 38.058125 207.053848
L 108.025891 275.458744
L 177.993656 290.560542
L 247.961422 297.752003
L 317.929187 303.47287
L 387.896953 311.164641
L 457.864718 315.202484
L 527.832484 324.653173
L 597.80025 324.278247
L 667.768015 327.093344
L 737.735781 331.861709
L 807.703546 332.901539
L 877.671312 332.024596
L 947.639077 333.99348
" style="fill:none;stroke:#434348;stroke-linecap:square;"/>
   </g>
   <g id="line2d_130">
    <path clip-path="url(#p5eda1d841a)" d="M 38.058125 218.927648
L 108.025891 279.153073
L 177.993656 291.413264
L 247.961422 302.450252
L 317.929187 304.012864
L 387.896953 313.316311
L 457.864718 317.471945
L 527.832484 321.272669
L 597.80025 323.925135
L 667.768015 325.221215
L 737.735781 329.098925
L 807.703546 331.361625
L 877.671312 331.352656
L 947.639077 332.347463
" style="fill:none;stroke:#90ed7d;stroke-linecap:square;"/>
   </g>
   <g id="line2d_131">
    <path clip-path="url(#p5eda1d841a)" d="M 38.058125 223.685824
L 108.025891 277.307316
L 177.993656 290.558882
L 247.961422 302.416693
L 317.929187 303.925745
L 387.896953 312.932015
L 457.864718 316.474728
L 527.832484 319.874805
L 597.80025 325.672259
L 667.768015 325.948859
L 737.735781 329.07979
L 807.703546 332.36631
L 877.671312 331.797485
L 947.639077 332.566663
" style="fill:none;stroke:#f7a35c;stroke-linecap:square;"/>
   </g>
   <g id="line2d_132">
    <path clip-path="url(#p5eda1d841a)" d="M 38.058125 218.743272
L 108.025891 276.699598
L 177.993656 289.660348
L 247.961422 306.19514
L 317.929187 308.170549
L 387.896953 308.557823
L 457.864718 319.538213
L 527.832484 317.962191
L 597.80025 325.100166
L 667.768015 328.862985
L 737.735781 327.542114
L 807.703546 331.186132
L 877.671312 329.905189
L 947.639077 333.143168
" style="fill:none;stroke:#8085e9;stroke-linecap:square;"/>
   </g>
   <g id="line2d_133">
    <path clip-path="url(#p5eda1d841a)" d="M 38.058125 218.533789
L 108.025891 277.90467
L 177.993656 292.499941
L 247.961422 303.738598
L 317.929187 309.70844
L 387.896953 312.28143
L 457.864718 317.424399
L 527.832484 318.159525
L 597.80025 324.063821
L 667.768015 328.249133
L 737.735781 327.549171
L 807.703546 331.327036
L 877.671312 330.531582
L 947.639077 334.376408
" style="fill:none;stroke:#f15c80;stroke-linecap:square;"/>
   </g>
   <g id="line2d_134">
    <path clip-path="url(#p5eda1d841a)" d="M 38.058125 218.302937
L 108.025891 276.237642
L 177.993656 292.695093
L 247.961422 302.707464
L 317.929187 306.38737
L 387.896953 314.371231
L 457.864718 316.263969
L 527.832484 322.598226
L 597.80025 324.558766
L 667.768015 325.897994
L 737.735781 328.300897
L 807.703546 329.61705
L 877.671312 331.274557
L 947.639077 330.887538
" style="fill:none;stroke:#e4d354;stroke-linecap:square;"/>
   </g>
   <g id="line2d_135">
    <path clip-path="url(#p5eda1d841a)" d="M 38.058125 220.794775
L 108.025891 275.595488
L 177.993656 291.045906
L 247.961422 304.663759
L 317.929187 308.792774
L 387.896953 315.361226
L 457.864718 316.945491
L 527.832484 321.75863
L 597.80025 323.638373
L 667.768015 327.462519
L 737.735781 327.594197
L 807.703546 329.437564
L 877.671312 331.136608
L 947.639077 331.704891
" style="fill:none;stroke:#2b908f;stroke-linecap:square;"/>
   </g>
   <g id="line2d_136">
    <path clip-path="url(#p5eda1d841a)" d="M 38.058125 160.806487
L 108.025891 244.3685
L 177.993656 261.478277
L 247.961422 276.736231
L 317.929187 286.585865
L 387.896953 295.241157
L 457.864718 304.245136
L 527.832484 309.95116
L 597.80025 317.915521
L 667.768015 319.784494
L 737.735781 322.568262
L 807.703546 324.995184
L 877.671312 326.964522
L 947.639077 328.774114
" style="fill:none;stroke:#f45b5b;stroke-linecap:square;"/>
   </g>
   <g id="line2d_137">
    <path clip-path="url(#p5eda1d841a)" d="M 38.058125 161.155062
L 108.025891 245.020949
L 177.993656 260.397505
L 247.961422 278.033155
L 317.929187 285.519152
L 387.896953 293.752167
L 457.864718 301.96951
L 527.832484 309.211615
L 597.80025 316.875383
L 667.768015 320.410097
L 737.735781 323.389824
L 807.703546 325.521341
L 877.671312 327.360611
L 947.639077 328.879298
" style="fill:none;stroke:#91e8e1;stroke-linecap:square;"/>
   </g>
   <g id="line2d_138">
    <path clip-path="url(#p5eda1d841a)" d="M 38.058125 143.655573
L 108.025891 244.469276
L 177.993656 262.539102
L 247.961422 276.297835
L 317.929187 283.607419
L 387.896953 290.929985
L 457.864718 299.37342
L 527.832484 306.293197
L 597.80025 311.388053
L 667.768015 316.516895
L 737.735781 318.928265
L 807.703546 320.767512
L 877.671312 322.451032
L 947.639077 324.236787
" style="fill:none;stroke:#7cb5ec;stroke-linecap:square;"/>
   </g>
   <g id="line2d_139">
    <path clip-path="url(#p5eda1d841a)" d="M 38.058125 143.944994
L 108.025891 244.382992
L 177.993656 262.737445
L 247.961422 276.600917
L 317.929187 283.663979
L 387.896953 290.378242
L 457.864718 298.83364
L 527.832484 306.512618
L 597.80025 311.599567
L 667.768015 316.210388
L 737.735781 318.81918
L 807.703546 320.634846
L 877.671312 322.418235
L 947.639077 324.299453
" style="fill:none;stroke:#434348;stroke-linecap:square;"/>
   </g>
   <g id="line2d_140">
    <path clip-path="url(#p5eda1d841a)" d="M 38.058125 208.897999
L 108.025891 279.224903
L 177.993656 283.640567
L 247.961422 297.144888
L 317.929187 312.962045
L 387.896953 316.09979
L 457.864718 327.246122
L 527.832484 324.201877
L 597.80025 321.109865
L 667.768015 332.55007
L 737.735781 329.622301
L 807.703546 334.870769
L 877.671312 334.005526
L 947.639077 335.744727
" style="fill:none;stroke:#90ed7d;stroke-linecap:square;"/>
   </g>
   <g id="line2d_141">
    <path clip-path="url(#p5eda1d841a)" d="M 38.058125 213.752781
L 108.025891 288.353533
L 177.993656 286.75207
L 247.961422 298.735418
L 317.929187 312.429581
L 387.896953 314.503868
L 457.864718 328.741645
L 527.832484 323.965285
L 597.80025 319.31566
L 667.768015 328.780492
L 737.735781 333.668672
L 807.703546 336.627983
L 877.671312 329.32137
L 947.639077 336.251314
" style="fill:none;stroke:#f7a35c;stroke-linecap:square;"/>
   </g>
   <g id="line2d_142">
    <path clip-path="url(#p5eda1d841a)" d="M 38.058125 353.2239
L 993.118125 353.2239
" style="fill:none;stroke:#dedede;stroke-linecap:square;stroke-width:2;"/>
   </g>
   <g id="text_17">
    <!-- DamageProfiler: 3' G&gt;A misincorporation plot -->
    <g transform="translate(332.401875 19.3575)scale(0.16 -0.16)">
     <defs>
      <path d="M 19.671875 64.796875
L 19.671875 8.109375
L 31.59375 8.109375
Q 46.6875 8.109375 53.6875 14.9375
Q 60.6875 21.78125 60.6875 36.53125
Q 60.6875 51.171875 53.6875 57.984375
Q 46.6875 64.796875 31.59375 64.796875
z
M 9.8125 72.90625
L 30.078125 72.90625
Q 51.265625 72.90625 61.171875 64.09375
Q 71.09375 55.28125 71.09375 36.53125
Q 71.09375 17.671875 61.125 8.828125
Q 51.171875 0 30.078125 0
L 9.8125 0
z
" id="DejaVuSans-68"/>
      <path d="M 34.28125 27.484375
Q 23.390625 27.484375 19.1875 25
Q 14.984375 22.515625 14.984375 16.5
Q 14.984375 11.71875 18.140625 8.90625
Q 21.296875 6.109375 26.703125 6.109375
Q 34.1875 6.109375 38.703125 11.40625
Q 43.21875 16.703125 43.21875 25.484375
L 43.21875 27.484375
z
M 52.203125 31.203125
L 52.203125 0
L 43.21875 0
L 43.21875 8.296875
Q 40.140625 3.328125 35.546875 0.953125
Q 30.953125 -1.421875 24.3125 -1.421875
Q 15.921875 -1.421875 10.953125 3.296875
Q 6 8.015625 6 15.921875
Q 6 25.140625 12.171875 29.828125
Q 18.359375 34.515625 30.609375 34.515625
L 43.21875 34.515625
L 43.21875 35.40625
Q 43.21875 41.609375 39.140625 45
Q 35.0625 48.390625 27.6875 48.390625
Q 23 48.390625 18.546875 47.265625
Q 14.109375 46.140625 10.015625 43.890625
L 10.015625 52.203125
Q 14.9375 54.109375 19.578125 55.046875
Q 24.21875 56 28.609375 56
Q 40.484375 56 46.34375 49.84375
Q 52.203125 43.703125 52.203125 31.203125
z
" id="DejaVuSans-97"/>
      <path d="M 45.40625 27.984375
Q 45.40625 37.75 41.375 43.109375
Q 37.359375 48.484375 30.078125 48.484375
Q 22.859375 48.484375 18.828125 43.109375
Q 14.796875 37.75 14.796875 27.984375
Q 14.796875 18.265625 18.828125 12.890625
Q 22.859375 7.515625 30.078125 7.515625
Q 37.359375 7.515625 41.375 12.890625
Q 45.40625 18.265625 45.40625 27.984375
z
M 54.390625 6.78125
Q 54.390625 -7.171875 48.1875 -13.984375
Q 42 -20.796875 29.203125 -20.796875
Q 24.46875 -20.796875 20.265625 -20.09375
Q 16.0625 -19.390625 12.109375 -17.921875
L 12.109375 -9.1875
Q 16.0625 -11.328125 19.921875 -12.34375
Q 23.78125 -13.375 27.78125 -13.375
Q 36.625 -13.375 41.015625 -8.765625
Q 45.40625 -4.15625 45.40625 5.171875
L 45.40625 9.625
Q 42.625 4.78125 38.28125 2.390625
Q 33.9375 0 27.875 0
Q 17.828125 0 11.671875 7.65625
Q 5.515625 15.328125 5.515625 27.984375
Q 5.515625 40.671875 11.671875 48.328125
Q 17.828125 56 27.875 56
Q 33.9375 56 38.28125 53.609375
Q 42.625 51.21875 45.40625 46.390625
L 45.40625 54.6875
L 54.390625 54.6875
z
" id="DejaVuSans-103"/>
      <path d="M 19.671875 64.796875
L 19.671875 37.40625
L 32.078125 37.40625
Q 38.96875 37.40625 42.71875 40.96875
Q 46.484375 44.53125 46.484375 51.125
Q 46.484375 57.671875 42.71875 61.234375
Q 38.96875 64.796875 32.078125 64.796875
z
M 9.8125 72.90625
L 32.078125 72.90625
Q 44.34375 72.90625 50.609375 67.359375
Q 56.890625 61.8125 56.890625 51.125
Q 56.890625 40.328125 50.609375 34.8125
Q 44.34375 29.296875 32.078125 29.296875
L 19.671875 29.296875
L 19.671875 0
L 9.8125 0
z
" id="DejaVuSans-80"/>
      <path d="M 11.71875 12.40625
L 22.015625 12.40625
L 22.015625 0
L 11.71875 0
z
M 11.71875 51.703125
L 22.015625 51.703125
L 22.015625 39.3125
L 11.71875 39.3125
z
" id="DejaVuSans-58"/>
      <path d="M 10.59375 49.21875
L 10.59375 58.109375
L 73.1875 35.40625
L 73.1875 27.296875
L 10.59375 4.59375
L 10.59375 13.484375
L 60.890625 31.296875
z
" id="DejaVuSans-62"/>
     </defs>
     <use xlink:href="#DejaVuSans-68"/>
     <use x="77.001953" xlink:href="#DejaVuSans-97"/>
     <use x="138.28125" xlink:href="#DejaVuSans-109"/>
     <use x="235.693359" xlink:href="#DejaVuSans-97"/>
     <use x="296.972656" xlink:href="#DejaVuSans-103"/>
     <use x="360.449219" xlink:href="#DejaVuSans-101"/>
     <use x="421.972656" xlink:href="#DejaVuSans-80"/>
     <use x="480.525391" xlink:href="#DejaVuSans-114"/>
     <use x="519.388672" xlink:href="#DejaVuSans-111"/>
     <use x="580.570312" xlink:href="#DejaVuSans-102"/>
     <use x="615.775391" xlink:href="#DejaVuSans-105"/>
     <use x="643.558594" xlink:href="#DejaVuSans-108"/>
     <use x="671.341797" xlink:href="#DejaVuSans-101"/>
     <use x="732.865234" xlink:href="#DejaVuSans-114"/>
     <use x="772.228516" xlink:href="#DejaVuSans-58"/>
     <use x="805.919922" xlink:href="#DejaVuSans-32"/>
     <use x="837.707031" xlink:href="#DejaVuSans-51"/>
     <use x="901.330078" xlink:href="#DejaVuSans-39"/>
     <use x="928.820312" xlink:href="#DejaVuSans-32"/>
     <use x="960.607422" xlink:href="#DejaVuSans-71"/>
     <use x="1038.097656" xlink:href="#DejaVuSans-62"/>
     <use x="1121.886719" xlink:href="#DejaVuSans-65"/>
     <use x="1190.294922" xlink:href="#DejaVuSans-32"/>
     <use x="1222.082031" xlink:href="#DejaVuSans-109"/>
     <use x="1319.494141" xlink:href="#DejaVuSans-105"/>
     <use x="1347.277344" xlink:href="#DejaVuSans-115"/>
     <use x="1399.376953" xlink:href="#DejaVuSans-105"/>
     <use x="1427.160156" xlink:href="#DejaVuSans-110"/>
     <use x="1490.539062" xlink:href="#DejaVuSans-99"/>
     <use x="1545.519531" xlink:href="#DejaVuSans-111"/>
     <use x="1606.701172" xlink:href="#DejaVuSans-114"/>
     <use x="1647.814453" xlink:href="#DejaVuSans-112"/>
     <use x="1711.291016" xlink:href="#DejaVuSans-111"/>
     <use x="1772.472656" xlink:href="#DejaVuSans-114"/>
     <use x="1813.585938" xlink:href="#DejaVuSans-97"/>
     <use x="1874.865234" xlink:href="#DejaVuSans-116"/>
     <use x="1914.074219" xlink:href="#DejaVuSans-105"/>
     <use x="1941.857422" xlink:href="#DejaVuSans-111"/>
     <use x="2003.039062" xlink:href="#DejaVuSans-110"/>
     <use x="2066.417969" xlink:href="#DejaVuSans-32"/>
     <use x="2098.205078" xlink:href="#DejaVuSans-112"/>
     <use x="2161.681641" xlink:href="#DejaVuSans-108"/>
     <use x="2189.464844" xlink:href="#DejaVuSans-111"/>
     <use x="2250.646484" xlink:href="#DejaVuSans-116"/>
    </g>
   </g>
  </g>
 </g>
 <defs>
  <clipPath id="p5eda1d841a">
   <rect height="317.968" width="955.06" x="38.058125" y="35.2559"/>
  </clipPath>
 </defs>
</svg>
