<?xml version="1.0" encoding="utf-8" standalone="no"?>
<!DOCTYPE svg PUBLIC "-//W3C//DTD SVG 1.1//EN"
  "http://www.w3.org/Graphics/SVG/1.1/DTD/svg11.dtd">
<!-- Created with matplotlib (https://matplotlib.org/) -->
<svg height="388.844525pt" version="1.1" viewBox="0 0 1000.278125 388.844525" width="1000.278125pt" xmlns="http://www.w3.org/2000/svg" xmlns:xlink="http://www.w3.org/1999/xlink">
 <metadata>
  <rdf:RDF xmlns:cc="http://creativecommons.org/ns#" xmlns:dc="http://purl.org/dc/elements/1.1/" xmlns:rdf="http://www.w3.org/1999/02/22-rdf-syntax-ns#">
   <cc:Work>
    <dc:type rdf:resource="http://purl.org/dc/dcmitype/StillImage"/>
    <dc:date>2021-03-05T10:30:42.379307</dc:date>
    <dc:format>image/svg+xml</dc:format>
    <dc:creator>
     <cc:Agent>
      <dc:title>Matplotlib v3.3.2, https://matplotlib.org/</dc:title>
     </cc:Agent>
    </dc:creator>
   </cc:Work>
  </rdf:RDF>
 </metadata>
 <defs>
  <style type="text/css">*{stroke-linecap:butt;stroke-linejoin:round;}</style>
 </defs>
 <g id="figure_1">
  <g id="axes_1">
   <g id="patch_1">
    <path d="M 43.148125 353.2239
L 993.078125 353.2239
L 993.078125 35.2559
L 43.148125 35.2559
z
" style="fill:#ffffff;"/>
   </g>
   <g id="matplotlib.axis_1">
    <g id="xtick_1">
     <g id="text_1">
      <!-- 0 -->
      <g transform="translate(83.781761 366.30265)scale(0.08 -0.08)">
       <defs>
        <path d="M 31.78125 66.40625
Q 24.171875 66.40625 20.328125 58.90625
Q 16.5 51.421875 16.5 36.375
Q 16.5 21.390625 20.328125 13.890625
Q 24.171875 6.390625 31.78125 6.390625
Q 39.453125 6.390625 43.28125 13.890625
Q 47.125 21.390625 47.125 36.375
Q 47.125 51.421875 43.28125 58.90625
Q 39.453125 66.40625 31.78125 66.40625
z
M 31.78125 74.21875
Q 44.046875 74.21875 50.515625 64.515625
Q 56.984375 54.828125 56.984375 36.375
Q 56.984375 17.96875 50.515625 8.265625
Q 44.046875 -1.421875 31.78125 -1.421875
Q 19.53125 -1.421875 13.0625 8.265625
Q 6.59375 17.96875 6.59375 36.375
Q 6.59375 54.828125 13.0625 64.515625
Q 19.53125 74.21875 31.78125 74.21875
z
" id="DejaVuSans-48"/>
       </defs>
       <use xlink:href="#DejaVuSans-48"/>
      </g>
     </g>
    </g>
    <g id="xtick_2">
     <g id="text_2">
      <!-- 25 -->
      <g transform="translate(207.490084 366.30265)scale(0.08 -0.08)">
       <defs>
        <path d="M 19.1875 8.296875
L 53.609375 8.296875
L 53.609375 0
L 7.328125 0
L 7.328125 8.296875
Q 12.9375 14.109375 22.625 23.890625
Q 32.328125 33.6875 34.8125 36.53125
Q 39.546875 41.84375 41.421875 45.53125
Q 43.3125 49.21875 43.3125 52.78125
Q 43.3125 58.59375 39.234375 62.25
Q 35.15625 65.921875 28.609375 65.921875
Q 23.96875 65.921875 18.8125 64.3125
Q 13.671875 62.703125 7.8125 59.421875
L 7.8125 69.390625
Q 13.765625 71.78125 18.9375 73
Q 24.125 74.21875 28.421875 74.21875
Q 39.75 74.21875 46.484375 68.546875
Q 53.21875 62.890625 53.21875 53.421875
Q 53.21875 48.921875 51.53125 44.890625
Q 49.859375 40.875 45.40625 35.40625
Q 44.1875 33.984375 37.640625 27.21875
Q 31.109375 20.453125 19.1875 8.296875
z
" id="DejaVuSans-50"/>
        <path d="M 10.796875 72.90625
L 49.515625 72.90625
L 49.515625 64.59375
L 19.828125 64.59375
L 19.828125 46.734375
Q 21.96875 47.46875 24.109375 47.828125
Q 26.265625 48.1875 28.421875 48.1875
Q 40.625 48.1875 47.75 41.5
Q 54.890625 34.8125 54.890625 23.390625
Q 54.890625 11.625 47.5625 5.09375
Q 40.234375 -1.421875 26.90625 -1.421875
Q 22.3125 -1.421875 17.546875 -0.640625
Q 12.796875 0.140625 7.71875 1.703125
L 7.71875 11.625
Q 12.109375 9.234375 16.796875 8.0625
Q 21.484375 6.890625 26.703125 6.890625
Q 35.15625 6.890625 40.078125 11.328125
Q 45.015625 15.765625 45.015625 23.390625
Q 45.015625 31 40.078125 35.4375
Q 35.15625 39.890625 26.703125 39.890625
Q 22.75 39.890625 18.8125 39.015625
Q 14.890625 38.140625 10.796875 36.28125
z
" id="DejaVuSans-53"/>
       </defs>
       <use xlink:href="#DejaVuSans-50"/>
       <use x="63.623047" xlink:href="#DejaVuSans-53"/>
      </g>
     </g>
    </g>
    <g id="xtick_3">
     <g id="text_3">
      <!-- 50 -->
      <g transform="translate(333.743407 366.30265)scale(0.08 -0.08)">
       <use xlink:href="#DejaVuSans-53"/>
       <use x="63.623047" xlink:href="#DejaVuSans-48"/>
      </g>
     </g>
    </g>
    <g id="xtick_4">
     <g id="text_4">
      <!-- 75 -->
      <g transform="translate(459.996729 366.30265)scale(0.08 -0.08)">
       <defs>
        <path d="M 8.203125 72.90625
L 55.078125 72.90625
L 55.078125 68.703125
L 28.609375 0
L 18.3125 0
L 43.21875 64.59375
L 8.203125 64.59375
z
" id="DejaVuSans-55"/>
       </defs>
       <use xlink:href="#DejaVuSans-55"/>
       <use x="63.623047" xlink:href="#DejaVuSans-53"/>
      </g>
     </g>
    </g>
    <g id="xtick_5">
     <g id="text_5">
      <!-- 100 -->
      <g transform="translate(583.705052 366.30265)scale(0.08 -0.08)">
       <defs>
        <path d="M 12.40625 8.296875
L 28.515625 8.296875
L 28.515625 63.921875
L 10.984375 60.40625
L 10.984375 69.390625
L 28.421875 72.90625
L 38.28125 72.90625
L 38.28125 8.296875
L 54.390625 8.296875
L 54.390625 0
L 12.40625 0
z
" id="DejaVuSans-49"/>
       </defs>
       <use xlink:href="#DejaVuSans-49"/>
       <use x="63.623047" xlink:href="#DejaVuSans-48"/>
       <use x="127.246094" xlink:href="#DejaVuSans-48"/>
      </g>
     </g>
    </g>
    <g id="xtick_6">
     <g id="text_6">
      <!-- 125 -->
      <g transform="translate(709.958375 366.30265)scale(0.08 -0.08)">
       <use xlink:href="#DejaVuSans-49"/>
       <use x="63.623047" xlink:href="#DejaVuSans-50"/>
       <use x="127.246094" xlink:href="#DejaVuSans-53"/>
      </g>
     </g>
    </g>
    <g id="xtick_7">
     <g id="text_7">
      <!-- 150 -->
      <g transform="translate(836.211698 366.30265)scale(0.08 -0.08)">
       <use xlink:href="#DejaVuSans-49"/>
       <use x="63.623047" xlink:href="#DejaVuSans-53"/>
       <use x="127.246094" xlink:href="#DejaVuSans-48"/>
      </g>
     </g>
    </g>
    <g id="xtick_8">
     <g id="text_8">
      <!-- 175 -->
      <g transform="translate(962.46502 366.30265)scale(0.08 -0.08)">
       <use xlink:href="#DejaVuSans-49"/>
       <use x="63.623047" xlink:href="#DejaVuSans-55"/>
       <use x="127.246094" xlink:href="#DejaVuSans-53"/>
      </g>
     </g>
    </g>
    <g id="text_9">
     <!-- read length -->
     <g transform="translate(489.32875 379.564837)scale(0.1 -0.1)">
      <defs>
       <path d="M 41.109375 46.296875
Q 39.59375 47.171875 37.8125 47.578125
Q 36.03125 48 33.890625 48
Q 26.265625 48 22.1875 43.046875
Q 18.109375 38.09375 18.109375 28.8125
L 18.109375 0
L 9.078125 0
L 9.078125 54.6875
L 18.109375 54.6875
L 18.109375 46.1875
Q 20.953125 51.171875 25.484375 53.578125
Q 30.03125 56 36.53125 56
Q 37.453125 56 38.578125 55.875
Q 39.703125 55.765625 41.0625 55.515625
z
" id="DejaVuSans-114"/>
       <path d="M 56.203125 29.59375
L 56.203125 25.203125
L 14.890625 25.203125
Q 15.484375 15.921875 20.484375 11.0625
Q 25.484375 6.203125 34.421875 6.203125
Q 39.59375 6.203125 44.453125 7.46875
Q 49.3125 8.734375 54.109375 11.28125
L 54.109375 2.78125
Q 49.265625 0.734375 44.1875 -0.34375
Q 39.109375 -1.421875 33.890625 -1.421875
Q 20.796875 -1.421875 13.15625 6.1875
Q 5.515625 13.8125 5.515625 26.8125
Q 5.515625 40.234375 12.765625 48.109375
Q 20.015625 56 32.328125 56
Q 43.359375 56 49.78125 48.890625
Q 56.203125 41.796875 56.203125 29.59375
z
M 47.21875 32.234375
Q 47.125 39.59375 43.09375 43.984375
Q 39.0625 48.390625 32.421875 48.390625
Q 24.90625 48.390625 20.390625 44.140625
Q 15.875 39.890625 15.1875 32.171875
z
" id="DejaVuSans-101"/>
       <path d="M 34.28125 27.484375
Q 23.390625 27.484375 19.1875 25
Q 14.984375 22.515625 14.984375 16.5
Q 14.984375 11.71875 18.140625 8.90625
Q 21.296875 6.109375 26.703125 6.109375
Q 34.1875 6.109375 38.703125 11.40625
Q 43.21875 16.703125 43.21875 25.484375
L 43.21875 27.484375
z
M 52.203125 31.203125
L 52.203125 0
L 43.21875 0
L 43.21875 8.296875
Q 40.140625 3.328125 35.546875 0.953125
Q 30.953125 -1.421875 24.3125 -1.421875
Q 15.921875 -1.421875 10.953125 3.296875
Q 6 8.015625 6 15.921875
Q 6 25.140625 12.171875 29.828125
Q 18.359375 34.515625 30.609375 34.515625
L 43.21875 34.515625
L 43.21875 35.40625
Q 43.21875 41.609375 39.140625 45
Q 35.0625 48.390625 27.6875 48.390625
Q 23 48.390625 18.546875 47.265625
Q 14.109375 46.140625 10.015625 43.890625
L 10.015625 52.203125
Q 14.9375 54.109375 19.578125 55.046875
Q 24.21875 56 28.609375 56
Q 40.484375 56 46.34375 49.84375
Q 52.203125 43.703125 52.203125 31.203125
z
" id="DejaVuSans-97"/>
       <path d="M 45.40625 46.390625
L 45.40625 75.984375
L 54.390625 75.984375
L 54.390625 0
L 45.40625 0
L 45.40625 8.203125
Q 42.578125 3.328125 38.25 0.953125
Q 33.9375 -1.421875 27.875 -1.421875
Q 17.96875 -1.421875 11.734375 6.484375
Q 5.515625 14.40625 5.515625 27.296875
Q 5.515625 40.1875 11.734375 48.09375
Q 17.96875 56 27.875 56
Q 33.9375 56 38.25 53.625
Q 42.578125 51.265625 45.40625 46.390625
z
M 14.796875 27.296875
Q 14.796875 17.390625 18.875 11.75
Q 22.953125 6.109375 30.078125 6.109375
Q 37.203125 6.109375 41.296875 11.75
Q 45.40625 17.390625 45.40625 27.296875
Q 45.40625 37.203125 41.296875 42.84375
Q 37.203125 48.484375 30.078125 48.484375
Q 22.953125 48.484375 18.875 42.84375
Q 14.796875 37.203125 14.796875 27.296875
z
" id="DejaVuSans-100"/>
       <path id="DejaVuSans-32"/>
       <path d="M 9.421875 75.984375
L 18.40625 75.984375
L 18.40625 0
L 9.421875 0
z
" id="DejaVuSans-108"/>
       <path d="M 54.890625 33.015625
L 54.890625 0
L 45.90625 0
L 45.90625 32.71875
Q 45.90625 40.484375 42.875 44.328125
Q 39.84375 48.1875 33.796875 48.1875
Q 26.515625 48.1875 22.3125 43.546875
Q 18.109375 38.921875 18.109375 30.90625
L 18.109375 0
L 9.078125 0
L 9.078125 54.6875
L 18.109375 54.6875
L 18.109375 46.1875
Q 21.34375 51.125 25.703125 53.5625
Q 30.078125 56 35.796875 56
Q 45.21875 56 50.046875 50.171875
Q 54.890625 44.34375 54.890625 33.015625
z
" id="DejaVuSans-110"/>
       <path d="M 45.40625 27.984375
Q 45.40625 37.75 41.375 43.109375
Q 37.359375 48.484375 30.078125 48.484375
Q 22.859375 48.484375 18.828125 43.109375
Q 14.796875 37.75 14.796875 27.984375
Q 14.796875 18.265625 18.828125 12.890625
Q 22.859375 7.515625 30.078125 7.515625
Q 37.359375 7.515625 41.375 12.890625
Q 45.40625 18.265625 45.40625 27.984375
z
M 54.390625 6.78125
Q 54.390625 -7.171875 48.1875 -13.984375
Q 42 -20.796875 29.203125 -20.796875
Q 24.46875 -20.796875 20.265625 -20.09375
Q 16.0625 -19.390625 12.109375 -17.921875
L 12.109375 -9.1875
Q 16.0625 -11.328125 19.921875 -12.34375
Q 23.78125 -13.375 27.78125 -13.375
Q 36.625 -13.375 41.015625 -8.765625
Q 45.40625 -4.15625 45.40625 5.171875
L 45.40625 9.625
Q 42.625 4.78125 38.28125 2.390625
Q 33.9375 0 27.875 0
Q 17.828125 0 11.671875 7.65625
Q 5.515625 15.328125 5.515625 27.984375
Q 5.515625 40.671875 11.671875 48.328125
Q 17.828125 56 27.875 56
Q 33.9375 56 38.28125 53.609375
Q 42.625 51.21875 45.40625 46.390625
L 45.40625 54.6875
L 54.390625 54.6875
z
" id="DejaVuSans-103"/>
       <path d="M 18.3125 70.21875
L 18.3125 54.6875
L 36.8125 54.6875
L 36.8125 47.703125
L 18.3125 47.703125
L 18.3125 18.015625
Q 18.3125 11.328125 20.140625 9.421875
Q 21.96875 7.515625 27.59375 7.515625
L 36.8125 7.515625
L 36.8125 0
L 27.59375 0
Q 17.1875 0 13.234375 3.875
Q 9.28125 7.765625 9.28125 18.015625
L 9.28125 47.703125
L 2.6875 47.703125
L 2.6875 54.6875
L 9.28125 54.6875
L 9.28125 70.21875
z
" id="DejaVuSans-116"/>
       <path d="M 54.890625 33.015625
L 54.890625 0
L 45.90625 0
L 45.90625 32.71875
Q 45.90625 40.484375 42.875 44.328125
Q 39.84375 48.1875 33.796875 48.1875
Q 26.515625 48.1875 22.3125 43.546875
Q 18.109375 38.921875 18.109375 30.90625
L 18.109375 0
L 9.078125 0
L 9.078125 75.984375
L 18.109375 75.984375
L 18.109375 46.1875
Q 21.34375 51.125 25.703125 53.5625
Q 30.078125 56 35.796875 56
Q 45.21875 56 50.046875 50.171875
Q 54.890625 44.34375 54.890625 33.015625
z
" id="DejaVuSans-104"/>
      </defs>
      <use xlink:href="#DejaVuSans-114"/>
      <use x="38.863281" xlink:href="#DejaVuSans-101"/>
      <use x="100.386719" xlink:href="#DejaVuSans-97"/>
      <use x="161.666016" xlink:href="#DejaVuSans-100"/>
      <use x="225.142578" xlink:href="#DejaVuSans-32"/>
      <use x="256.929688" xlink:href="#DejaVuSans-108"/>
      <use x="284.712891" xlink:href="#DejaVuSans-101"/>
      <use x="346.236328" xlink:href="#DejaVuSans-110"/>
      <use x="409.615234" xlink:href="#DejaVuSans-103"/>
      <use x="473.091797" xlink:href="#DejaVuSans-116"/>
      <use x="512.300781" xlink:href="#DejaVuSans-104"/>
     </g>
    </g>
   </g>
   <g id="matplotlib.axis_2">
    <g id="ytick_1">
     <g id="line2d_1">
      <path clip-path="url(#p9770871168)" d="M 43.148125 353.2239
L 993.078125 353.2239
" style="fill:none;stroke:#dedede;stroke-linecap:square;"/>
     </g>
     <g id="text_10">
      <!-- 0 -->
      <g transform="translate(31.058125 356.263275)scale(0.08 -0.08)">
       <use xlink:href="#DejaVuSans-48"/>
      </g>
     </g>
    </g>
    <g id="ytick_2">
     <g id="line2d_2">
      <path clip-path="url(#p9770871168)" d="M 43.148125 291.673764
L 993.078125 291.673764
" style="fill:none;stroke:#dedede;stroke-linecap:square;"/>
     </g>
     <g id="text_11">
      <!-- 50 -->
      <g transform="translate(25.968125 294.713139)scale(0.08 -0.08)">
       <use xlink:href="#DejaVuSans-53"/>
       <use x="63.623047" xlink:href="#DejaVuSans-48"/>
      </g>
     </g>
    </g>
    <g id="ytick_3">
     <g id="line2d_3">
      <path clip-path="url(#p9770871168)" d="M 43.148125 230.123629
L 993.078125 230.123629
" style="fill:none;stroke:#dedede;stroke-linecap:square;"/>
     </g>
     <g id="text_12">
      <!-- 100 -->
      <g transform="translate(20.878125 233.163004)scale(0.08 -0.08)">
       <use xlink:href="#DejaVuSans-49"/>
       <use x="63.623047" xlink:href="#DejaVuSans-48"/>
       <use x="127.246094" xlink:href="#DejaVuSans-48"/>
      </g>
     </g>
    </g>
    <g id="ytick_4">
     <g id="line2d_4">
      <path clip-path="url(#p9770871168)" d="M 43.148125 168.573493
L 993.078125 168.573493
" style="fill:none;stroke:#dedede;stroke-linecap:square;"/>
     </g>
     <g id="text_13">
      <!-- 150 -->
      <g transform="translate(20.878125 171.612868)scale(0.08 -0.08)">
       <use xlink:href="#DejaVuSans-49"/>
       <use x="63.623047" xlink:href="#DejaVuSans-53"/>
       <use x="127.246094" xlink:href="#DejaVuSans-48"/>
      </g>
     </g>
    </g>
    <g id="ytick_5">
     <g id="line2d_5">
      <path clip-path="url(#p9770871168)" d="M 43.148125 107.023358
L 993.078125 107.023358
" style="fill:none;stroke:#dedede;stroke-linecap:square;"/>
     </g>
     <g id="text_14">
      <!-- 200 -->
      <g transform="translate(20.878125 110.062733)scale(0.08 -0.08)">
       <use xlink:href="#DejaVuSans-50"/>
       <use x="63.623047" xlink:href="#DejaVuSans-48"/>
       <use x="127.246094" xlink:href="#DejaVuSans-48"/>
      </g>
     </g>
    </g>
    <g id="ytick_6">
     <g id="line2d_6">
      <path clip-path="url(#p9770871168)" d="M 43.148125 45.473222
L 993.078125 45.473222
" style="fill:none;stroke:#dedede;stroke-linecap:square;"/>
     </g>
     <g id="text_15">
      <!-- 250 -->
      <g transform="translate(20.878125 48.512597)scale(0.08 -0.08)">
       <use xlink:href="#DejaVuSans-50"/>
       <use x="63.623047" xlink:href="#DejaVuSans-53"/>
       <use x="127.246094" xlink:href="#DejaVuSans-48"/>
      </g>
     </g>
    </g>
    <g id="text_16">
     <!-- Count -->
     <g transform="translate(14.798437 209.088338)rotate(-90)scale(0.1 -0.1)">
      <defs>
       <path d="M 64.40625 67.28125
L 64.40625 56.890625
Q 59.421875 61.53125 53.78125 63.8125
Q 48.140625 66.109375 41.796875 66.109375
Q 29.296875 66.109375 22.65625 58.46875
Q 16.015625 50.828125 16.015625 36.375
Q 16.015625 21.96875 22.65625 14.328125
Q 29.296875 6.6875 41.796875 6.6875
Q 48.140625 6.6875 53.78125 8.984375
Q 59.421875 11.28125 64.40625 15.921875
L 64.40625 5.609375
Q 59.234375 2.09375 53.4375 0.328125
Q 47.65625 -1.421875 41.21875 -1.421875
Q 24.65625 -1.421875 15.125 8.703125
Q 5.609375 18.84375 5.609375 36.375
Q 5.609375 53.953125 15.125 64.078125
Q 24.65625 74.21875 41.21875 74.21875
Q 47.75 74.21875 53.53125 72.484375
Q 59.328125 70.75 64.40625 67.28125
z
" id="DejaVuSans-67"/>
       <path d="M 30.609375 48.390625
Q 23.390625 48.390625 19.1875 42.75
Q 14.984375 37.109375 14.984375 27.296875
Q 14.984375 17.484375 19.15625 11.84375
Q 23.34375 6.203125 30.609375 6.203125
Q 37.796875 6.203125 41.984375 11.859375
Q 46.1875 17.53125 46.1875 27.296875
Q 46.1875 37.015625 41.984375 42.703125
Q 37.796875 48.390625 30.609375 48.390625
z
M 30.609375 56
Q 42.328125 56 49.015625 48.375
Q 55.71875 40.765625 55.71875 27.296875
Q 55.71875 13.875 49.015625 6.21875
Q 42.328125 -1.421875 30.609375 -1.421875
Q 18.84375 -1.421875 12.171875 6.21875
Q 5.515625 13.875 5.515625 27.296875
Q 5.515625 40.765625 12.171875 48.375
Q 18.84375 56 30.609375 56
z
" id="DejaVuSans-111"/>
       <path d="M 8.5 21.578125
L 8.5 54.6875
L 17.484375 54.6875
L 17.484375 21.921875
Q 17.484375 14.15625 20.5 10.265625
Q 23.53125 6.390625 29.59375 6.390625
Q 36.859375 6.390625 41.078125 11.03125
Q 45.3125 15.671875 45.3125 23.6875
L 45.3125 54.6875
L 54.296875 54.6875
L 54.296875 0
L 45.3125 0
L 45.3125 8.40625
Q 42.046875 3.421875 37.71875 1
Q 33.40625 -1.421875 27.6875 -1.421875
Q 18.265625 -1.421875 13.375 4.4375
Q 8.5 10.296875 8.5 21.578125
z
M 31.109375 56
z
" id="DejaVuSans-117"/>
      </defs>
      <use xlink:href="#DejaVuSans-67"/>
      <use x="69.824219" xlink:href="#DejaVuSans-111"/>
      <use x="131.005859" xlink:href="#DejaVuSans-117"/>
      <use x="194.384766" xlink:href="#DejaVuSans-110"/>
      <use x="257.763672" xlink:href="#DejaVuSans-116"/>
     </g>
    </g>
   </g>
   <g id="line2d_7">
    <path clip-path="url(#p9770871168)" d="M 86.326761 353.2239
L 949.899489 353.2239
L 949.899489 353.2239
" style="fill:none;stroke:#7cb5ec;stroke-linecap:square;"/>
   </g>
   <g id="line2d_8">
    <path clip-path="url(#p9770871168)" d="M 86.326761 353.2239
L 949.899489 353.2239
L 949.899489 353.2239
" style="fill:none;stroke:#434348;stroke-linecap:square;"/>
   </g>
   <g id="line2d_9">
    <path clip-path="url(#p9770871168)" d="M 86.326761 353.2239
L 949.899489 353.2239
L 949.899489 353.2239
" style="fill:none;stroke:#90ed7d;stroke-linecap:square;"/>
   </g>
   <g id="line2d_10">
    <path clip-path="url(#p9770871168)" d="M 86.326761 353.2239
L 949.899489 353.2239
L 949.899489 353.2239
" style="fill:none;stroke:#f7a35c;stroke-linecap:square;"/>
   </g>
   <g id="line2d_11">
    <path clip-path="url(#p9770871168)" d="M 86.326761 353.2239
L 949.899489 353.2239
L 949.899489 353.2239
" style="fill:none;stroke:#8085e9;stroke-linecap:square;"/>
   </g>
   <g id="line2d_12">
    <path clip-path="url(#p9770871168)" d="M 86.326761 353.2239
L 949.899489 353.2239
L 949.899489 353.2239
" style="fill:none;stroke:#f15c80;stroke-linecap:square;"/>
   </g>
   <g id="line2d_13">
    <path clip-path="url(#p9770871168)" d="M 86.326761 353.2239
L 949.899489 353.2239
L 949.899489 353.2239
" style="fill:none;stroke:#e4d354;stroke-linecap:square;"/>
   </g>
   <g id="line2d_14">
    <path clip-path="url(#p9770871168)" d="M 86.326761 353.2239
L 540.838723 353.2239
L 545.888856 351.992897
L 550.938989 353.2239
L 949.899489 353.2239
L 949.899489 353.2239
" style="fill:none;stroke:#2b908f;stroke-linecap:square;"/>
   </g>
   <g id="line2d_15">
    <path clip-path="url(#p9770871168)" d="M 86.326761 353.2239
L 949.899489 353.2239
L 949.899489 353.2239
" style="fill:none;stroke:#f45b5b;stroke-linecap:square;"/>
   </g>
   <g id="line2d_16">
    <path clip-path="url(#p9770871168)" d="M 86.326761 353.2239
L 540.838723 353.2239
L 545.888856 350.761895
L 550.938989 353.2239
L 949.899489 353.2239
L 949.899489 353.2239
" style="fill:none;stroke:#91e8e1;stroke-linecap:square;"/>
   </g>
   <g id="line2d_17">
    <path clip-path="url(#p9770871168)" d="M 86.326761 353.2239
L 535.78859 353.2239
L 540.838723 351.992897
L 545.888856 351.992897
L 550.938989 353.2239
L 949.899489 353.2239
L 949.899489 353.2239
" style="fill:none;stroke:#7cb5ec;stroke-linecap:square;"/>
   </g>
   <g id="line2d_18">
    <path clip-path="url(#p9770871168)" d="M 86.326761 353.2239
L 540.838723 353.2239
L 545.888856 350.761895
L 550.938989 353.2239
L 949.899489 353.2239
L 949.899489 353.2239
" style="fill:none;stroke:#434348;stroke-linecap:square;"/>
   </g>
   <g id="line2d_19">
    <path clip-path="url(#p9770871168)" d="M 86.326761 353.2239
L 949.899489 353.2239
L 949.899489 353.2239
" style="fill:none;stroke:#90ed7d;stroke-linecap:square;"/>
   </g>
   <g id="line2d_20">
    <path clip-path="url(#p9770871168)" d="M 86.326761 353.2239
L 949.899489 353.2239
L 949.899489 353.2239
" style="fill:none;stroke:#f7a35c;stroke-linecap:square;"/>
   </g>
   <g id="line2d_21">
    <path clip-path="url(#p9770871168)" d="M 86.326761 353.2239
L 924.648824 353.2239
L 924.648824 353.2239
" style="fill:none;stroke:#8085e9;stroke-linecap:square;"/>
   </g>
   <g id="line2d_22">
    <path clip-path="url(#p9770871168)" d="M 86.326761 353.2239
L 924.648824 353.2239
L 924.648824 353.2239
" style="fill:none;stroke:#f15c80;stroke-linecap:square;"/>
   </g>
   <g id="line2d_23">
    <path clip-path="url(#p9770871168)" d="M 86.326761 353.2239
L 949.899489 353.2239
L 949.899489 353.2239
" style="fill:none;stroke:#e4d354;stroke-linecap:square;"/>
   </g>
   <g id="line2d_24">
    <path clip-path="url(#p9770871168)" d="M 86.326761 353.2239
L 949.899489 353.2239
L 949.899489 353.2239
" style="fill:none;stroke:#2b908f;stroke-linecap:square;"/>
   </g>
   <g id="line2d_25">
    <path clip-path="url(#p9770871168)" d="M 86.326761 353.2239
L 949.899489 353.2239
L 949.899489 353.2239
" style="fill:none;stroke:#f45b5b;stroke-linecap:square;"/>
   </g>
   <g id="line2d_26">
    <path clip-path="url(#p9770871168)" d="M 86.326761 353.2239
L 949.899489 353.2239
L 949.899489 353.2239
" style="fill:none;stroke:#91e8e1;stroke-linecap:square;"/>
   </g>
   <g id="line2d_27">
    <path clip-path="url(#p9770871168)" d="M 86.326761 353.2239
L 490.337394 353.2239
L 495.387527 349.530892
L 500.43766 349.530892
L 505.487793 353.2239
L 510.537926 353.2239
L 515.588059 349.530892
L 520.638191 353.2239
L 525.688324 351.992897
L 535.78859 351.992897
L 540.838723 344.606881
L 545.888856 267.05371
L 550.938989 353.2239
L 949.899489 353.2239
L 949.899489 353.2239
" style="fill:none;stroke:#7cb5ec;stroke-linecap:square;"/>
   </g>
   <g id="line2d_28">
    <path clip-path="url(#p9770871168)" d="M 86.326761 353.2239
L 500.43766 353.2239
L 505.487793 350.761895
L 510.537926 353.2239
L 515.588059 351.992897
L 520.638191 349.530892
L 525.688324 353.2239
L 530.738457 351.992897
L 535.78859 349.530892
L 540.838723 339.68287
L 545.888856 294.13577
L 550.938989 353.2239
L 949.899489 353.2239
L 949.899489 353.2239
" style="fill:none;stroke:#434348;stroke-linecap:square;"/>
   </g>
   <g id="line2d_29">
    <path clip-path="url(#p9770871168)" d="M 86.326761 353.2239
L 949.899489 353.2239
L 949.899489 353.2239
" style="fill:none;stroke:#90ed7d;stroke-linecap:square;"/>
   </g>
   <g id="line2d_30">
    <path clip-path="url(#p9770871168)" d="M 86.326761 353.2239
L 949.899489 353.2239
L 949.899489 353.2239
" style="fill:none;stroke:#f7a35c;stroke-linecap:square;"/>
   </g>
   <g id="line2d_31">
    <path clip-path="url(#p9770871168)" d="M 86.326761 353.2239
L 485.287261 353.2239
L 490.337394 351.992897
L 495.387527 351.992897
L 500.43766 350.761895
L 505.487793 353.2239
L 510.537926 350.761895
L 515.588059 351.992897
L 520.638191 348.299889
L 525.688324 349.530892
L 530.738457 351.992897
L 535.78859 345.837884
L 540.838723 319.986827
L 545.888856 50.397233
L 550.938989 353.2239
L 949.899489 353.2239
L 949.899489 353.2239
" style="fill:none;stroke:#8085e9;stroke-linecap:square;"/>
   </g>
   <g id="line2d_32">
    <path clip-path="url(#p9770871168)" d="M 86.326761 353.2239
L 490.337394 353.2239
L 495.387527 351.992897
L 500.43766 351.992897
L 505.487793 350.761895
L 515.588059 353.2239
L 520.638191 353.2239
L 525.688324 351.992897
L 530.738457 351.992897
L 535.78859 350.761895
L 540.838723 337.220865
L 545.888856 107.023358
L 550.938989 353.2239
L 949.899489 353.2239
L 949.899489 353.2239
" style="fill:none;stroke:#f15c80;stroke-linecap:square;"/>
   </g>
   <g id="line2d_33">
    <path clip-path="url(#p9770871168)" d="M 86.326761 353.2239
L 949.899489 353.2239
L 949.899489 353.2239
" style="fill:none;stroke:#e4d354;stroke-linecap:square;"/>
   </g>
   <g id="line2d_34">
    <path clip-path="url(#p9770871168)" d="M 86.326761 353.2239
L 949.899489 353.2239
L 949.899489 353.2239
" style="fill:none;stroke:#2b908f;stroke-linecap:square;"/>
   </g>
   <g id="line2d_35">
    <path clip-path="url(#p9770871168)" d="M 86.326761 353.2239
L 495.387527 353.2239
L 500.43766 351.992897
L 505.487793 349.530892
L 510.537926 351.992897
L 520.638191 351.992897
L 525.688324 349.530892
L 530.738457 349.530892
L 535.78859 350.761895
L 540.838723 349.530892
L 545.888856 278.132735
L 550.938989 353.2239
L 949.899489 353.2239
L 949.899489 353.2239
" style="fill:none;stroke:#f45b5b;stroke-linecap:square;"/>
   </g>
   <g id="line2d_36">
    <path clip-path="url(#p9770871168)" d="M 86.326761 353.2239
L 490.337394 353.2239
L 495.387527 350.761895
L 500.43766 353.2239
L 505.487793 351.992897
L 510.537926 353.2239
L 530.738457 353.2239
L 535.78859 351.992897
L 540.838723 347.068886
L 545.888856 297.828778
L 550.938989 353.2239
L 949.899489 353.2239
L 949.899489 353.2239
" style="fill:none;stroke:#91e8e1;stroke-linecap:square;"/>
   </g>
   <g id="line2d_37">
    <path clip-path="url(#p9770871168)" d="M 86.326761 353.2239
L 949.899489 353.2239
L 949.899489 353.2239
" style="fill:none;stroke:#7cb5ec;stroke-linecap:square;"/>
   </g>
   <g id="line2d_38">
    <path clip-path="url(#p9770871168)" d="M 86.326761 353.2239
L 949.899489 353.2239
L 949.899489 353.2239
" style="fill:none;stroke:#434348;stroke-linecap:square;"/>
   </g>
   <g id="line2d_39">
    <path clip-path="url(#p9770871168)" d="M 86.326761 353.2239
L 949.899489 353.2239
L 949.899489 353.2239
" style="fill:none;stroke:#90ed7d;stroke-linecap:square;"/>
   </g>
   <g id="line2d_40">
    <path clip-path="url(#p9770871168)" d="M 86.326761 353.2239
L 949.899489 353.2239
L 949.899489 353.2239
" style="fill:none;stroke:#f7a35c;stroke-linecap:square;"/>
   </g>
   <g id="line2d_41">
    <path clip-path="url(#p9770871168)" d="M 0 0
" style="fill:none;stroke:#8085e9;stroke-linecap:square;"/>
   </g>
   <g id="line2d_42">
    <path clip-path="url(#p9770871168)" d="M 86.326761 353.2239
L 949.899489 353.2239
L 949.899489 353.2239
" style="fill:none;stroke:#f15c80;stroke-linecap:square;"/>
   </g>
   <g id="line2d_43">
    <path clip-path="url(#p9770871168)" d="M 86.326761 353.2239
L 949.899489 353.2239
L 949.899489 353.2239
" style="fill:none;stroke:#e4d354;stroke-linecap:square;"/>
   </g>
   <g id="line2d_44">
    <path clip-path="url(#p9770871168)" d="M 0 0
" style="fill:none;stroke:#2b908f;stroke-linecap:square;"/>
   </g>
   <g id="line2d_45">
    <path clip-path="url(#p9770871168)" d="M 86.326761 353.2239
L 949.899489 353.2239
L 949.899489 353.2239
" style="fill:none;stroke:#f45b5b;stroke-linecap:square;"/>
   </g>
   <g id="line2d_46">
    <path clip-path="url(#p9770871168)" d="M 86.326761 353.2239
L 949.899489 353.2239
L 949.899489 353.2239
" style="fill:none;stroke:#91e8e1;stroke-linecap:square;"/>
   </g>
   <g id="line2d_47">
    <path clip-path="url(#p9770871168)" d="M 86.326761 353.2239
L 949.899489 353.2239
L 949.899489 353.2239
" style="fill:none;stroke:#7cb5ec;stroke-linecap:square;"/>
   </g>
   <g id="line2d_48">
    <path clip-path="url(#p9770871168)" d="M 86.326761 353.2239
L 949.899489 353.2239
L 949.899489 353.2239
" style="fill:none;stroke:#434348;stroke-linecap:square;"/>
   </g>
   <g id="line2d_49">
    <path clip-path="url(#p9770871168)" d="M 86.326761 353.2239
L 475.186995 353.2239
L 480.237128 351.992897
L 485.287261 353.2239
L 490.337394 353.2239
L 495.387527 351.992897
L 500.43766 353.2239
L 510.537926 353.2239
L 515.588059 351.992897
L 520.638191 351.992897
L 525.688324 353.2239
L 924.648824 353.2239
L 924.648824 353.2239
" style="fill:none;stroke:#90ed7d;stroke-linecap:square;"/>
   </g>
   <g id="line2d_50">
    <path clip-path="url(#p9770871168)" d="M 86.326761 353.2239
L 924.648824 353.2239
L 924.648824 353.2239
" style="fill:none;stroke:#f7a35c;stroke-linecap:square;"/>
   </g>
   <g id="line2d_51">
    <path clip-path="url(#p9770871168)" d="M 86.326761 353.2239
L 949.899489 353.2239
L 949.899489 353.2239
" style="fill:none;stroke:#8085e9;stroke-linecap:square;"/>
   </g>
   <g id="line2d_52">
    <path clip-path="url(#p9770871168)" d="M 86.326761 353.2239
L 540.838723 353.2239
L 545.888856 351.992897
L 550.938989 353.2239
L 949.899489 353.2239
L 949.899489 353.2239
" style="fill:none;stroke:#f15c80;stroke-linecap:square;"/>
   </g>
   <g id="line2d_53">
    <path clip-path="url(#p9770871168)" d="M 86.326761 353.2239
L 490.337394 353.2239
L 495.387527 351.992897
L 505.487793 351.992897
L 510.537926 353.2239
L 515.588059 351.992897
L 520.638191 351.992897
L 525.688324 353.2239
L 530.738457 350.761895
L 535.78859 349.530892
L 540.838723 339.68287
L 545.888856 235.04764
L 550.938989 353.2239
L 949.899489 353.2239
L 949.899489 353.2239
" style="fill:none;stroke:#e4d354;stroke-linecap:square;"/>
   </g>
   <g id="line2d_54">
    <path clip-path="url(#p9770871168)" d="M 86.326761 353.2239
L 490.337394 353.2239
L 495.387527 350.761895
L 500.43766 353.2239
L 510.537926 353.2239
L 515.588059 349.530892
L 520.638191 353.2239
L 525.688324 353.2239
L 530.738457 351.992897
L 535.78859 349.530892
L 540.838723 344.606881
L 545.888856 253.51268
L 550.938989 353.2239
L 949.899489 353.2239
L 949.899489 353.2239
" style="fill:none;stroke:#2b908f;stroke-linecap:square;"/>
   </g>
   <g id="line2d_55">
    <path clip-path="url(#p9770871168)" d="M 86.326761 353.2239
L 949.899489 353.2239
L 949.899489 353.2239
" style="fill:none;stroke:#f45b5b;stroke-linecap:square;"/>
   </g>
   <g id="line2d_56">
    <path clip-path="url(#p9770871168)" d="M 86.326761 353.2239
L 949.899489 353.2239
L 949.899489 353.2239
" style="fill:none;stroke:#91e8e1;stroke-linecap:square;"/>
   </g>
   <g id="line2d_57">
    <path clip-path="url(#p9770871168)" d="M 86.326761 353.2239
L 490.337394 353.2239
L 495.387527 350.761895
L 500.43766 353.2239
L 515.588059 353.2239
L 520.638191 351.992897
L 525.688324 353.2239
L 530.738457 353.2239
L 535.78859 350.761895
L 540.838723 345.837884
L 545.888856 263.360702
L 550.938989 353.2239
L 949.899489 353.2239
L 949.899489 353.2239
" style="fill:none;stroke:#7cb5ec;stroke-linecap:square;"/>
   </g>
   <g id="line2d_58">
    <path clip-path="url(#p9770871168)" d="M 86.326761 353.2239
L 490.337394 353.2239
L 495.387527 351.992897
L 500.43766 351.992897
L 505.487793 350.761895
L 510.537926 353.2239
L 520.638191 353.2239
L 530.738457 350.761895
L 535.78859 351.992897
L 540.838723 343.375878
L 545.888856 299.059781
L 550.938989 353.2239
L 949.899489 353.2239
L 949.899489 353.2239
" style="fill:none;stroke:#434348;stroke-linecap:square;"/>
   </g>
   <g id="line2d_59">
    <path clip-path="url(#p9770871168)" d="M 86.326761 353.2239
L 949.899489 353.2239
L 949.899489 353.2239
" style="fill:none;stroke:#90ed7d;stroke-linecap:square;"/>
   </g>
   <g id="line2d_60">
    <path clip-path="url(#p9770871168)" d="M 86.326761 353.2239
L 949.899489 353.2239
L 949.899489 353.2239
" style="fill:none;stroke:#f7a35c;stroke-linecap:square;"/>
   </g>
   <g id="line2d_61">
    <path clip-path="url(#p9770871168)" d="M 86.326761 353.2239
L 485.287261 353.2239
L 490.337394 351.992897
L 495.387527 351.992897
L 500.43766 353.2239
L 505.487793 353.2239
L 510.537926 349.530892
L 515.588059 350.761895
L 520.638191 349.530892
L 525.688324 351.992897
L 530.738457 351.992897
L 535.78859 342.144876
L 540.838723 333.527857
L 545.888856 137.798426
L 550.938989 353.2239
L 949.899489 353.2239
L 949.899489 353.2239
" style="fill:none;stroke:#8085e9;stroke-linecap:square;"/>
   </g>
   <g id="line2d_62">
    <path clip-path="url(#p9770871168)" d="M 86.326761 353.2239
L 490.337394 353.2239
L 495.387527 351.992897
L 500.43766 353.2239
L 510.537926 353.2239
L 515.588059 350.761895
L 525.688324 353.2239
L 530.738457 350.761895
L 535.78859 347.068886
L 540.838723 344.606881
L 545.888856 180.883521
L 550.938989 353.2239
L 949.899489 353.2239
L 949.899489 353.2239
" style="fill:none;stroke:#f15c80;stroke-linecap:square;"/>
   </g>
   <g id="line2d_63">
    <path clip-path="url(#p9770871168)" d="M 86.326761 353.2239
L 949.899489 353.2239
L 949.899489 353.2239
" style="fill:none;stroke:#e4d354;stroke-linecap:square;"/>
   </g>
   <g id="line2d_64">
    <path clip-path="url(#p9770871168)" d="M 86.326761 353.2239
L 540.838723 353.2239
L 545.888856 351.992897
L 550.938989 353.2239
L 949.899489 353.2239
L 949.899489 353.2239
" style="fill:none;stroke:#2b908f;stroke-linecap:square;"/>
   </g>
   <g id="line2d_65">
    <path clip-path="url(#p9770871168)" d="M 86.326761 353.2239
L 949.899489 353.2239
L 949.899489 353.2239
" style="fill:none;stroke:#f45b5b;stroke-linecap:square;"/>
   </g>
   <g id="line2d_66">
    <path clip-path="url(#p9770871168)" d="M 86.326761 353.2239
L 949.899489 353.2239
L 949.899489 353.2239
" style="fill:none;stroke:#91e8e1;stroke-linecap:square;"/>
   </g>
   <g id="line2d_67">
    <path clip-path="url(#p9770871168)" d="M 86.326761 353.2239
L 949.899489 353.2239
L 949.899489 353.2239
" style="fill:none;stroke:#7cb5ec;stroke-linecap:square;"/>
   </g>
   <g id="line2d_68">
    <path clip-path="url(#p9770871168)" d="M 86.326761 353.2239
L 949.899489 353.2239
L 949.899489 353.2239
" style="fill:none;stroke:#434348;stroke-linecap:square;"/>
   </g>
   <g id="line2d_69">
    <path clip-path="url(#p9770871168)" d="M 86.326761 353.2239
L 944.849356 353.2239
L 944.849356 353.2239
" style="fill:none;stroke:#90ed7d;stroke-linecap:square;"/>
   </g>
   <g id="line2d_70">
    <path clip-path="url(#p9770871168)" d="M 86.326761 353.2239
L 944.849356 353.2239
L 944.849356 353.2239
" style="fill:none;stroke:#f7a35c;stroke-linecap:square;"/>
   </g>
   <g id="line2d_71">
    <path clip-path="url(#p9770871168)" d="M 86.326761 353.2239
L 949.899489 353.2239
L 949.899489 353.2239
" style="fill:none;stroke:#8085e9;stroke-linecap:square;"/>
   </g>
   <g id="line2d_72">
    <path clip-path="url(#p9770871168)" d="M 86.326761 353.2239
L 949.899489 353.2239
L 949.899489 353.2239
" style="fill:none;stroke:#f15c80;stroke-linecap:square;"/>
   </g>
   <g id="line2d_73">
    <path clip-path="url(#p9770871168)" d="M 86.326761 353.2239
L 944.849356 353.2239
L 944.849356 353.2239
" style="fill:none;stroke:#e4d354;stroke-linecap:square;"/>
   </g>
   <g id="line2d_74">
    <path clip-path="url(#p9770871168)" d="M 86.326761 353.2239
L 894.348027 353.2239
L 894.348027 353.2239
" style="fill:none;stroke:#2b908f;stroke-linecap:square;"/>
   </g>
   <g id="line2d_75">
    <path clip-path="url(#p9770871168)" d="M 86.326761 353.2239
L 949.899489 353.2239
L 949.899489 353.2239
" style="fill:none;stroke:#f45b5b;stroke-linecap:square;"/>
   </g>
   <g id="line2d_76">
    <path clip-path="url(#p9770871168)" d="M 86.326761 353.2239
L 949.899489 353.2239
L 949.899489 353.2239
" style="fill:none;stroke:#91e8e1;stroke-linecap:square;"/>
   </g>
   <g id="line2d_77">
    <path clip-path="url(#p9770871168)" d="M 86.326761 353.2239
L 510.537926 353.2239
L 515.588059 351.992897
L 520.638191 351.992897
L 525.688324 353.2239
L 924.648824 353.2239
L 924.648824 353.2239
" style="fill:none;stroke:#7cb5ec;stroke-linecap:square;"/>
   </g>
   <g id="line2d_78">
    <path clip-path="url(#p9770871168)" d="M 86.326761 353.2239
L 924.648824 353.2239
L 924.648824 353.2239
" style="fill:none;stroke:#434348;stroke-linecap:square;"/>
   </g>
   <g id="line2d_79">
    <path clip-path="url(#p9770871168)" d="M 86.326761 353.2239
L 949.899489 353.2239
L 949.899489 353.2239
" style="fill:none;stroke:#90ed7d;stroke-linecap:square;"/>
   </g>
   <g id="line2d_80">
    <path clip-path="url(#p9770871168)" d="M 86.326761 353.2239
L 949.899489 353.2239
L 949.899489 353.2239
" style="fill:none;stroke:#f7a35c;stroke-linecap:square;"/>
   </g>
   <g id="line2d_81">
    <path clip-path="url(#p9770871168)" d="M 86.326761 353.2239
L 490.337394 353.2239
L 495.387527 349.530892
L 500.43766 349.530892
L 505.487793 351.992897
L 510.537926 350.761895
L 515.588059 350.761895
L 520.638191 351.992897
L 525.688324 349.530892
L 530.738457 351.992897
L 540.838723 347.068886
L 545.888856 276.901732
L 550.938989 353.2239
L 949.899489 353.2239
L 949.899489 353.2239
" style="fill:none;stroke:#8085e9;stroke-linecap:square;"/>
   </g>
   <g id="line2d_82">
    <path clip-path="url(#p9770871168)" d="M 86.326761 353.2239
L 490.337394 353.2239
L 495.387527 351.992897
L 500.43766 351.992897
L 505.487793 353.2239
L 510.537926 351.992897
L 515.588059 351.992897
L 520.638191 350.761895
L 525.688324 353.2239
L 530.738457 353.2239
L 535.78859 348.299889
L 540.838723 348.299889
L 545.888856 265.822708
L 550.938989 353.2239
L 949.899489 353.2239
L 949.899489 353.2239
" style="fill:none;stroke:#f15c80;stroke-linecap:square;"/>
   </g>
   <g id="line2d_83">
    <path clip-path="url(#p9770871168)" d="M 86.326761 353.2239
L 540.838723 353.2239
L 545.888856 351.992897
L 550.938989 353.2239
L 949.899489 353.2239
L 949.899489 353.2239
" style="fill:none;stroke:#e4d354;stroke-linecap:square;"/>
   </g>
   <g id="line2d_84">
    <path clip-path="url(#p9770871168)" d="M 86.326761 353.2239
L 949.899489 353.2239
L 949.899489 353.2239
" style="fill:none;stroke:#2b908f;stroke-linecap:square;"/>
   </g>
   <g id="line2d_85">
    <path clip-path="url(#p9770871168)" d="M 86.326761 353.2239
L 470.136862 353.2239
L 475.186995 351.992897
L 480.237128 353.2239
L 490.337394 353.2239
L 495.387527 351.992897
L 510.537926 351.992897
L 515.588059 349.530892
L 520.638191 349.530892
L 525.688324 351.992897
L 530.738457 353.2239
L 535.78859 351.992897
L 540.838723 340.913873
L 545.888856 312.600811
L 550.938989 353.2239
L 949.899489 353.2239
L 949.899489 353.2239
" style="fill:none;stroke:#f45b5b;stroke-linecap:square;"/>
   </g>
   <g id="line2d_86">
    <path clip-path="url(#p9770871168)" d="M 86.326761 353.2239
L 490.337394 353.2239
L 495.387527 350.761895
L 500.43766 351.992897
L 505.487793 351.992897
L 510.537926 353.2239
L 515.588059 353.2239
L 520.638191 351.992897
L 525.688324 348.299889
L 530.738457 353.2239
L 535.78859 353.2239
L 540.838723 348.299889
L 545.888856 302.752789
L 550.938989 353.2239
L 949.899489 353.2239
L 949.899489 353.2239
" style="fill:none;stroke:#91e8e1;stroke-linecap:square;"/>
   </g>
   <g id="line2d_87">
    <path clip-path="url(#p9770871168)" d="M 86.326761 353.2239
L 949.899489 353.2239
L 949.899489 353.2239
" style="fill:none;stroke:#7cb5ec;stroke-linecap:square;"/>
   </g>
   <g id="line2d_88">
    <path clip-path="url(#p9770871168)" d="M 86.326761 353.2239
L 949.899489 353.2239
L 949.899489 353.2239
" style="fill:none;stroke:#434348;stroke-linecap:square;"/>
   </g>
   <g id="line2d_89">
    <path clip-path="url(#p9770871168)" d="M 86.326761 353.2239
L 490.337394 353.2239
L 495.387527 347.068886
L 500.43766 348.299889
L 505.487793 351.992897
L 510.537926 350.761895
L 515.588059 351.992897
L 520.638191 351.992897
L 525.688324 350.761895
L 530.738457 350.761895
L 535.78859 345.837884
L 540.838723 338.451867
L 545.888856 237.509645
L 550.938989 353.2239
L 949.899489 353.2239
L 949.899489 353.2239
" style="fill:none;stroke:#90ed7d;stroke-linecap:square;"/>
   </g>
   <g id="line2d_90">
    <path clip-path="url(#p9770871168)" d="M 86.326761 353.2239
L 495.387527 353.2239
L 500.43766 350.761895
L 505.487793 347.068886
L 510.537926 353.2239
L 515.588059 350.761895
L 525.688324 350.761895
L 530.738457 348.299889
L 535.78859 350.761895
L 540.838723 342.144876
L 545.888856 237.509645
L 550.938989 353.2239
L 949.899489 353.2239
L 949.899489 353.2239
" style="fill:none;stroke:#f7a35c;stroke-linecap:square;"/>
   </g>
   <g id="line2d_91">
    <path clip-path="url(#p9770871168)" d="M 86.326761 353.2239
L 505.487793 353.2239
L 510.537926 351.992897
L 515.588059 353.2239
L 924.648824 353.2239
L 924.648824 353.2239
" style="fill:none;stroke:#8085e9;stroke-linecap:square;"/>
   </g>
   <g id="line2d_92">
    <path clip-path="url(#p9770871168)" d="M 86.326761 353.2239
L 924.648824 353.2239
L 924.648824 353.2239
" style="fill:none;stroke:#f15c80;stroke-linecap:square;"/>
   </g>
   <g id="line2d_93">
    <path clip-path="url(#p9770871168)" d="M 86.326761 353.2239
L 949.899489 353.2239
L 949.899489 353.2239
" style="fill:none;stroke:#e4d354;stroke-linecap:square;"/>
   </g>
   <g id="line2d_94">
    <path clip-path="url(#p9770871168)" d="M 86.326761 353.2239
L 949.899489 353.2239
L 949.899489 353.2239
" style="fill:none;stroke:#2b908f;stroke-linecap:square;"/>
   </g>
   <g id="line2d_95">
    <path clip-path="url(#p9770871168)" d="M 86.326761 353.2239
L 490.337394 353.2239
L 495.387527 351.992897
L 505.487793 351.992897
L 510.537926 349.530892
L 515.588059 351.992897
L 525.688324 351.992897
L 530.738457 353.2239
L 535.78859 350.761895
L 540.838723 345.837884
L 545.888856 236.278643
L 550.938989 353.2239
L 949.899489 353.2239
L 949.899489 353.2239
" style="fill:none;stroke:#f45b5b;stroke-linecap:square;"/>
   </g>
   <g id="line2d_96">
    <path clip-path="url(#p9770871168)" d="M 86.326761 353.2239
L 495.387527 353.2239
L 500.43766 350.761895
L 510.537926 350.761895
L 515.588059 349.530892
L 520.638191 350.761895
L 525.688324 349.530892
L 530.738457 353.2239
L 535.78859 353.2239
L 540.838723 344.606881
L 545.888856 273.208724
L 550.938989 353.2239
L 949.899489 353.2239
L 949.899489 353.2239
" style="fill:none;stroke:#91e8e1;stroke-linecap:square;"/>
   </g>
   <g id="line2d_97">
    <path clip-path="url(#p9770871168)" d="M 86.326761 353.2239
L 540.838723 353.2239
L 545.888856 351.992897
L 550.938989 353.2239
L 949.899489 353.2239
L 949.899489 353.2239
" style="fill:none;stroke:#7cb5ec;stroke-linecap:square;"/>
   </g>
   <g id="line2d_98">
    <path clip-path="url(#p9770871168)" d="M 86.326761 353.2239
L 949.899489 353.2239
L 949.899489 353.2239
" style="fill:none;stroke:#434348;stroke-linecap:square;"/>
   </g>
   <g id="line2d_99">
    <path clip-path="url(#p9770871168)" d="M 86.326761 353.2239
L 490.337394 353.2239
L 495.387527 350.761895
L 500.43766 351.992897
L 505.487793 348.299889
L 510.537926 351.992897
L 515.588059 348.299889
L 520.638191 353.2239
L 525.688324 347.068886
L 530.738457 350.761895
L 535.78859 349.530892
L 540.838723 323.679835
L 545.888856 120.564388
L 550.938989 353.2239
L 949.899489 353.2239
L 949.899489 353.2239
" style="fill:none;stroke:#90ed7d;stroke-linecap:square;"/>
   </g>
   <g id="line2d_100">
    <path clip-path="url(#p9770871168)" d="M 86.326761 353.2239
L 490.337394 353.2239
L 495.387527 349.530892
L 500.43766 348.299889
L 505.487793 349.530892
L 510.537926 347.068886
L 515.588059 350.761895
L 520.638191 350.761895
L 525.688324 349.530892
L 530.738457 350.761895
L 535.78859 345.837884
L 540.838723 337.220865
L 545.888856 137.798426
L 550.938989 353.2239
L 949.899489 353.2239
L 949.899489 353.2239
" style="fill:none;stroke:#f7a35c;stroke-linecap:square;"/>
   </g>
   <g id="line2d_101">
    <path clip-path="url(#p9770871168)" d="M 86.326761 353.2239
L 949.899489 353.2239
L 949.899489 353.2239
" style="fill:none;stroke:#8085e9;stroke-linecap:square;"/>
   </g>
   <g id="line2d_102">
    <path clip-path="url(#p9770871168)" d="M 86.326761 353.2239
L 949.899489 353.2239
L 949.899489 353.2239
" style="fill:none;stroke:#f15c80;stroke-linecap:square;"/>
   </g>
   <g id="line2d_103">
    <path clip-path="url(#p9770871168)" d="M 86.326761 353.2239
L 490.337394 353.2239
L 495.387527 350.761895
L 500.43766 353.2239
L 505.487793 353.2239
L 510.537926 351.992897
L 515.588059 349.530892
L 520.638191 353.2239
L 525.688324 351.992897
L 530.738457 348.299889
L 535.78859 347.068886
L 540.838723 338.451867
L 545.888856 264.591705
L 550.938989 353.2239
L 949.899489 353.2239
L 949.899489 353.2239
" style="fill:none;stroke:#e4d354;stroke-linecap:square;"/>
   </g>
   <g id="line2d_104">
    <path clip-path="url(#p9770871168)" d="M 86.326761 353.2239
L 490.337394 353.2239
L 495.387527 350.761895
L 500.43766 353.2239
L 505.487793 353.2239
L 510.537926 348.299889
L 515.588059 349.530892
L 520.638191 351.992897
L 530.738457 351.992897
L 535.78859 350.761895
L 540.838723 338.451867
L 545.888856 262.129699
L 550.938989 353.2239
L 949.899489 353.2239
L 949.899489 353.2239
" style="fill:none;stroke:#2b908f;stroke-linecap:square;"/>
   </g>
   <g id="line2d_105">
    <path clip-path="url(#p9770871168)" d="M 86.326761 353.2239
L 949.899489 353.2239
L 949.899489 353.2239
" style="fill:none;stroke:#f45b5b;stroke-linecap:square;"/>
   </g>
   <g id="line2d_106">
    <path clip-path="url(#p9770871168)" d="M 86.326761 353.2239
L 949.899489 353.2239
L 949.899489 353.2239
" style="fill:none;stroke:#91e8e1;stroke-linecap:square;"/>
   </g>
   <g id="line2d_107">
    <path clip-path="url(#p9770871168)" d="M 86.326761 353.2239
L 949.899489 353.2239
L 949.899489 353.2239
" style="fill:none;stroke:#7cb5ec;stroke-linecap:square;"/>
   </g>
   <g id="line2d_108">
    <path clip-path="url(#p9770871168)" d="M 86.326761 353.2239
L 949.899489 353.2239
L 949.899489 353.2239
" style="fill:none;stroke:#434348;stroke-linecap:square;"/>
   </g>
   <g id="line2d_109">
    <path clip-path="url(#p9770871168)" d="M 86.326761 353.2239
L 949.899489 353.2239
L 949.899489 353.2239
" style="fill:none;stroke:#90ed7d;stroke-linecap:square;"/>
   </g>
   <g id="line2d_110">
    <path clip-path="url(#p9770871168)" d="M 86.326761 353.2239
L 949.899489 353.2239
L 949.899489 353.2239
" style="fill:none;stroke:#f7a35c;stroke-linecap:square;"/>
   </g>
   <g id="line2d_111">
    <path clip-path="url(#p9770871168)" d="M 86.326761 353.2239
L 490.337394 353.2239
L 495.387527 351.992897
L 500.43766 353.2239
L 515.588059 353.2239
L 520.638191 350.761895
L 525.688324 353.2239
L 924.648824 353.2239
L 924.648824 353.2239
" style="fill:none;stroke:#8085e9;stroke-linecap:square;"/>
   </g>
   <g id="line2d_112">
    <path clip-path="url(#p9770871168)" d="M 86.326761 353.2239
L 924.648824 353.2239
L 924.648824 353.2239
" style="fill:none;stroke:#f15c80;stroke-linecap:square;"/>
   </g>
   <g id="line2d_113">
    <path clip-path="url(#p9770871168)" d="M 86.326761 353.2239
L 949.899489 353.2239
L 949.899489 353.2239
" style="fill:none;stroke:#e4d354;stroke-linecap:square;"/>
   </g>
   <g id="line2d_114">
    <path clip-path="url(#p9770871168)" d="M 86.326761 353.2239
L 949.899489 353.2239
L 949.899489 353.2239
" style="fill:none;stroke:#2b908f;stroke-linecap:square;"/>
   </g>
   <g id="line2d_115">
    <path clip-path="url(#p9770871168)" d="M 86.326761 353.2239
L 490.337394 353.2239
L 495.387527 350.761895
L 500.43766 353.2239
L 515.588059 353.2239
L 520.638191 350.761895
L 530.738457 353.2239
L 535.78859 350.761895
L 540.838723 344.606881
L 545.888856 308.907802
L 550.938989 353.2239
L 949.899489 353.2239
L 949.899489 353.2239
" style="fill:none;stroke:#f45b5b;stroke-linecap:square;"/>
   </g>
   <g id="line2d_116">
    <path clip-path="url(#p9770871168)" d="M 86.326761 353.2239
L 490.337394 353.2239
L 495.387527 351.992897
L 500.43766 353.2239
L 515.588059 353.2239
L 520.638191 351.992897
L 525.688324 351.992897
L 530.738457 350.761895
L 535.78859 351.992897
L 540.838723 345.837884
L 545.888856 323.679835
L 550.938989 353.2239
L 949.899489 353.2239
L 949.899489 353.2239
" style="fill:none;stroke:#91e8e1;stroke-linecap:square;"/>
   </g>
   <g id="line2d_117">
    <path clip-path="url(#p9770871168)" d="M 86.326761 353.2239
L 949.899489 353.2239
L 949.899489 353.2239
" style="fill:none;stroke:#7cb5ec;stroke-linecap:square;"/>
   </g>
   <g id="line2d_118">
    <path clip-path="url(#p9770871168)" d="M 86.326761 353.2239
L 949.899489 353.2239
L 949.899489 353.2239
" style="fill:none;stroke:#434348;stroke-linecap:square;"/>
   </g>
   <g id="line2d_119">
    <path clip-path="url(#p9770871168)" d="M 86.326761 353.2239
L 500.43766 353.2239
L 505.487793 351.992897
L 515.588059 351.992897
L 520.638191 353.2239
L 525.688324 349.530892
L 530.738457 350.761895
L 535.78859 344.606881
L 540.838723 343.375878
L 545.888856 214.120594
L 550.938989 353.2239
L 949.899489 353.2239
L 949.899489 353.2239
" style="fill:none;stroke:#90ed7d;stroke-linecap:square;"/>
   </g>
   <g id="line2d_120">
    <path clip-path="url(#p9770871168)" d="M 86.326761 353.2239
L 485.287261 353.2239
L 500.43766 349.530892
L 505.487793 351.992897
L 510.537926 353.2239
L 515.588059 351.992897
L 520.638191 353.2239
L 525.688324 353.2239
L 530.738457 350.761895
L 535.78859 351.992897
L 540.838723 345.837884
L 545.888856 216.582599
L 550.938989 353.2239
L 949.899489 353.2239
L 949.899489 353.2239
" style="fill:none;stroke:#f7a35c;stroke-linecap:square;"/>
   </g>
   <g id="line2d_121">
    <path clip-path="url(#p9770871168)" d="M 86.326761 353.2239
L 949.899489 353.2239
L 949.899489 353.2239
" style="fill:none;stroke:#8085e9;stroke-linecap:square;"/>
   </g>
   <g id="line2d_122">
    <path clip-path="url(#p9770871168)" d="M 86.326761 353.2239
L 949.899489 353.2239
L 949.899489 353.2239
" style="fill:none;stroke:#f15c80;stroke-linecap:square;"/>
   </g>
   <g id="line2d_123">
    <path clip-path="url(#p9770871168)" d="M 86.326761 353.2239
L 490.337394 353.2239
L 495.387527 351.992897
L 500.43766 353.2239
L 510.537926 353.2239
L 515.588059 351.992897
L 520.638191 353.2239
L 530.738457 353.2239
L 535.78859 351.992897
L 540.838723 347.068886
L 545.888856 310.138805
L 550.938989 353.2239
L 949.899489 353.2239
L 949.899489 353.2239
" style="fill:none;stroke:#e4d354;stroke-linecap:square;"/>
   </g>
   <g id="line2d_124">
    <path clip-path="url(#p9770871168)" d="M 86.326761 353.2239
L 490.337394 353.2239
L 495.387527 350.761895
L 500.43766 353.2239
L 505.487793 351.992897
L 510.537926 351.992897
L 515.588059 350.761895
L 520.638191 353.2239
L 525.688324 351.992897
L 530.738457 353.2239
L 535.78859 353.2239
L 540.838723 351.992897
L 545.888856 308.907802
L 550.938989 353.2239
L 949.899489 353.2239
L 949.899489 353.2239
" style="fill:none;stroke:#2b908f;stroke-linecap:square;"/>
   </g>
   <g id="line2d_125">
    <path clip-path="url(#p9770871168)" d="M 86.326761 353.2239
L 949.899489 353.2239
L 949.899489 353.2239
" style="fill:none;stroke:#f45b5b;stroke-linecap:square;"/>
   </g>
   <g id="line2d_126">
    <path clip-path="url(#p9770871168)" d="M 86.326761 353.2239
L 949.899489 353.2239
L 949.899489 353.2239
" style="fill:none;stroke:#91e8e1;stroke-linecap:square;"/>
   </g>
   <g id="line2d_127">
    <path clip-path="url(#p9770871168)" d="M 86.326761 353.2239
L 949.899489 353.2239
L 949.899489 353.2239
" style="fill:none;stroke:#7cb5ec;stroke-linecap:square;"/>
   </g>
   <g id="line2d_128">
    <path clip-path="url(#p9770871168)" d="M 86.326761 353.2239
L 949.899489 353.2239
L 949.899489 353.2239
" style="fill:none;stroke:#434348;stroke-linecap:square;"/>
   </g>
   <g id="line2d_129">
    <path clip-path="url(#p9770871168)" d="M 86.326761 353.2239
L 949.899489 353.2239
L 949.899489 353.2239
" style="fill:none;stroke:#90ed7d;stroke-linecap:square;"/>
   </g>
   <g id="line2d_130">
    <path clip-path="url(#p9770871168)" d="M 86.326761 353.2239
L 949.899489 353.2239
L 949.899489 353.2239
" style="fill:none;stroke:#f7a35c;stroke-linecap:square;"/>
   </g>
   <g id="line2d_131">
    <path clip-path="url(#p9770871168)" d="M 86.326761 353.2239
L 348.933673 353.2239
L 353.983805 351.992897
L 359.033938 353.2239
L 949.899489 353.2239
L 949.899489 353.2239
" style="fill:none;stroke:#8085e9;stroke-linecap:square;"/>
   </g>
   <g id="line2d_132">
    <path clip-path="url(#p9770871168)" d="M 86.326761 353.2239
L 949.899489 353.2239
L 949.899489 353.2239
" style="fill:none;stroke:#f15c80;stroke-linecap:square;"/>
   </g>
   <g id="line2d_133">
    <path clip-path="url(#p9770871168)" d="M 86.326761 353.2239
L 949.899489 353.2239
L 949.899489 353.2239
" style="fill:none;stroke:#e4d354;stroke-linecap:square;"/>
   </g>
   <g id="line2d_134">
    <path clip-path="url(#p9770871168)" d="M 86.326761 353.2239
L 949.899489 353.2239
L 949.899489 353.2239
" style="fill:none;stroke:#2b908f;stroke-linecap:square;"/>
   </g>
   <g id="line2d_135">
    <path clip-path="url(#p9770871168)" d="M 86.326761 353.2239
L 949.899489 353.2239
L 949.899489 353.2239
" style="fill:none;stroke:#f45b5b;stroke-linecap:square;"/>
   </g>
   <g id="line2d_136">
    <path clip-path="url(#p9770871168)" d="M 86.326761 353.2239
L 540.838723 353.2239
L 545.888856 351.992897
L 550.938989 353.2239
L 949.899489 353.2239
L 949.899489 353.2239
" style="fill:none;stroke:#91e8e1;stroke-linecap:square;"/>
   </g>
   <g id="line2d_137">
    <path clip-path="url(#p9770871168)" d="M 86.326761 353.2239
L 949.899489 353.2239
L 949.899489 353.2239
" style="fill:none;stroke:#7cb5ec;stroke-linecap:square;"/>
   </g>
   <g id="line2d_138">
    <path clip-path="url(#p9770871168)" d="M 86.326761 353.2239
L 949.899489 353.2239
L 949.899489 353.2239
" style="fill:none;stroke:#434348;stroke-linecap:square;"/>
   </g>
   <g id="line2d_139">
    <path clip-path="url(#p9770871168)" d="M 86.326761 353.2239
L 949.899489 353.2239
L 949.899489 353.2239
" style="fill:none;stroke:#90ed7d;stroke-linecap:square;"/>
   </g>
   <g id="line2d_140">
    <path clip-path="url(#p9770871168)" d="M 86.326761 353.2239
L 949.899489 353.2239
L 949.899489 353.2239
" style="fill:none;stroke:#f7a35c;stroke-linecap:square;"/>
   </g>
   <g id="line2d_141">
    <path clip-path="url(#p9770871168)" d="M 43.148125 353.2239
L 993.078125 353.2239
" style="fill:none;stroke:#dedede;stroke-linecap:square;stroke-width:2;"/>
   </g>
   <g id="text_17">
    <!-- Adapter Removal: Length Distribution -->
    <g transform="translate(367.116875 19.3575)scale(0.16 -0.16)">
     <defs>
      <path d="M 34.1875 63.1875
L 20.796875 26.90625
L 47.609375 26.90625
z
M 28.609375 72.90625
L 39.796875 72.90625
L 67.578125 0
L 57.328125 0
L 50.6875 18.703125
L 17.828125 18.703125
L 11.1875 0
L 0.78125 0
z
" id="DejaVuSans-65"/>
      <path d="M 18.109375 8.203125
L 18.109375 -20.796875
L 9.078125 -20.796875
L 9.078125 54.6875
L 18.109375 54.6875
L 18.109375 46.390625
Q 20.953125 51.265625 25.265625 53.625
Q 29.59375 56 35.59375 56
Q 45.5625 56 51.78125 48.09375
Q 58.015625 40.1875 58.015625 27.296875
Q 58.015625 14.40625 51.78125 6.484375
Q 45.5625 -1.421875 35.59375 -1.421875
Q 29.59375 -1.421875 25.265625 0.953125
Q 20.953125 3.328125 18.109375 8.203125
z
M 48.6875 27.296875
Q 48.6875 37.203125 44.609375 42.84375
Q 40.53125 48.484375 33.40625 48.484375
Q 26.265625 48.484375 22.1875 42.84375
Q 18.109375 37.203125 18.109375 27.296875
Q 18.109375 17.390625 22.1875 11.75
Q 26.265625 6.109375 33.40625 6.109375
Q 40.53125 6.109375 44.609375 11.75
Q 48.6875 17.390625 48.6875 27.296875
z
" id="DejaVuSans-112"/>
      <path d="M 44.390625 34.1875
Q 47.5625 33.109375 50.5625 29.59375
Q 53.5625 26.078125 56.59375 19.921875
L 66.609375 0
L 56 0
L 46.6875 18.703125
Q 43.0625 26.03125 39.671875 28.421875
Q 36.28125 30.8125 30.421875 30.8125
L 19.671875 30.8125
L 19.671875 0
L 9.8125 0
L 9.8125 72.90625
L 32.078125 72.90625
Q 44.578125 72.90625 50.734375 67.671875
Q 56.890625 62.453125 56.890625 51.90625
Q 56.890625 45.015625 53.6875 40.46875
Q 50.484375 35.9375 44.390625 34.1875
z
M 19.671875 64.796875
L 19.671875 38.921875
L 32.078125 38.921875
Q 39.203125 38.921875 42.84375 42.21875
Q 46.484375 45.515625 46.484375 51.90625
Q 46.484375 58.296875 42.84375 61.546875
Q 39.203125 64.796875 32.078125 64.796875
z
" id="DejaVuSans-82"/>
      <path d="M 52 44.1875
Q 55.375 50.25 60.0625 53.125
Q 64.75 56 71.09375 56
Q 79.640625 56 84.28125 50.015625
Q 88.921875 44.046875 88.921875 33.015625
L 88.921875 0
L 79.890625 0
L 79.890625 32.71875
Q 79.890625 40.578125 77.09375 44.375
Q 74.3125 48.1875 68.609375 48.1875
Q 61.625 48.1875 57.5625 43.546875
Q 53.515625 38.921875 53.515625 30.90625
L 53.515625 0
L 44.484375 0
L 44.484375 32.71875
Q 44.484375 40.625 41.703125 44.40625
Q 38.921875 48.1875 33.109375 48.1875
Q 26.21875 48.1875 22.15625 43.53125
Q 18.109375 38.875 18.109375 30.90625
L 18.109375 0
L 9.078125 0
L 9.078125 54.6875
L 18.109375 54.6875
L 18.109375 46.1875
Q 21.1875 51.21875 25.484375 53.609375
Q 29.78125 56 35.6875 56
Q 41.65625 56 45.828125 52.96875
Q 50 49.953125 52 44.1875
z
" id="DejaVuSans-109"/>
      <path d="M 2.984375 54.6875
L 12.5 54.6875
L 29.59375 8.796875
L 46.6875 54.6875
L 56.203125 54.6875
L 35.6875 0
L 23.484375 0
z
" id="DejaVuSans-118"/>
      <path d="M 11.71875 12.40625
L 22.015625 12.40625
L 22.015625 0
L 11.71875 0
z
M 11.71875 51.703125
L 22.015625 51.703125
L 22.015625 39.3125
L 11.71875 39.3125
z
" id="DejaVuSans-58"/>
      <path d="M 9.8125 72.90625
L 19.671875 72.90625
L 19.671875 8.296875
L 55.171875 8.296875
L 55.171875 0
L 9.8125 0
z
" id="DejaVuSans-76"/>
      <path d="M 19.671875 64.796875
L 19.671875 8.109375
L 31.59375 8.109375
Q 46.6875 8.109375 53.6875 14.9375
Q 60.6875 21.78125 60.6875 36.53125
Q 60.6875 51.171875 53.6875 57.984375
Q 46.6875 64.796875 31.59375 64.796875
z
M 9.8125 72.90625
L 30.078125 72.90625
Q 51.265625 72.90625 61.171875 64.09375
Q 71.09375 55.28125 71.09375 36.53125
Q 71.09375 17.671875 61.125 8.828125
Q 51.171875 0 30.078125 0
L 9.8125 0
z
" id="DejaVuSans-68"/>
      <path d="M 9.421875 54.6875
L 18.40625 54.6875
L 18.40625 0
L 9.421875 0
z
M 9.421875 75.984375
L 18.40625 75.984375
L 18.40625 64.59375
L 9.421875 64.59375
z
" id="DejaVuSans-105"/>
      <path d="M 44.28125 53.078125
L 44.28125 44.578125
Q 40.484375 46.53125 36.375 47.5
Q 32.28125 48.484375 27.875 48.484375
Q 21.1875 48.484375 17.84375 46.4375
Q 14.5 44.390625 14.5 40.28125
Q 14.5 37.15625 16.890625 35.375
Q 19.28125 33.59375 26.515625 31.984375
L 29.59375 31.296875
Q 39.15625 29.25 43.1875 25.515625
Q 47.21875 21.78125 47.21875 15.09375
Q 47.21875 7.46875 41.1875 3.015625
Q 35.15625 -1.421875 24.609375 -1.421875
Q 20.21875 -1.421875 15.453125 -0.5625
Q 10.6875 0.296875 5.421875 2
L 5.421875 11.28125
Q 10.40625 8.6875 15.234375 7.390625
Q 20.0625 6.109375 24.8125 6.109375
Q 31.15625 6.109375 34.5625 8.28125
Q 37.984375 10.453125 37.984375 14.40625
Q 37.984375 18.0625 35.515625 20.015625
Q 33.0625 21.96875 24.703125 23.78125
L 21.578125 24.515625
Q 13.234375 26.265625 9.515625 29.90625
Q 5.8125 33.546875 5.8125 39.890625
Q 5.8125 47.609375 11.28125 51.796875
Q 16.75 56 26.8125 56
Q 31.78125 56 36.171875 55.265625
Q 40.578125 54.546875 44.28125 53.078125
z
" id="DejaVuSans-115"/>
      <path d="M 48.6875 27.296875
Q 48.6875 37.203125 44.609375 42.84375
Q 40.53125 48.484375 33.40625 48.484375
Q 26.265625 48.484375 22.1875 42.84375
Q 18.109375 37.203125 18.109375 27.296875
Q 18.109375 17.390625 22.1875 11.75
Q 26.265625 6.109375 33.40625 6.109375
Q 40.53125 6.109375 44.609375 11.75
Q 48.6875 17.390625 48.6875 27.296875
z
M 18.109375 46.390625
Q 20.953125 51.265625 25.265625 53.625
Q 29.59375 56 35.59375 56
Q 45.5625 56 51.78125 48.09375
Q 58.015625 40.1875 58.015625 27.296875
Q 58.015625 14.40625 51.78125 6.484375
Q 45.5625 -1.421875 35.59375 -1.421875
Q 29.59375 -1.421875 25.265625 0.953125
Q 20.953125 3.328125 18.109375 8.203125
L 18.109375 0
L 9.078125 0
L 9.078125 75.984375
L 18.109375 75.984375
z
" id="DejaVuSans-98"/>
     </defs>
     <use xlink:href="#DejaVuSans-65"/>
     <use x="66.658203" xlink:href="#DejaVuSans-100"/>
     <use x="130.134766" xlink:href="#DejaVuSans-97"/>
     <use x="191.414062" xlink:href="#DejaVuSans-112"/>
     <use x="254.890625" xlink:href="#DejaVuSans-116"/>
     <use x="294.099609" xlink:href="#DejaVuSans-101"/>
     <use x="355.623047" xlink:href="#DejaVuSans-114"/>
     <use x="396.736328" xlink:href="#DejaVuSans-32"/>
     <use x="428.523438" xlink:href="#DejaVuSans-82"/>
     <use x="493.505859" xlink:href="#DejaVuSans-101"/>
     <use x="555.029297" xlink:href="#DejaVuSans-109"/>
     <use x="652.441406" xlink:href="#DejaVuSans-111"/>
     <use x="713.623047" xlink:href="#DejaVuSans-118"/>
     <use x="772.802734" xlink:href="#DejaVuSans-97"/>
     <use x="834.082031" xlink:href="#DejaVuSans-108"/>
     <use x="861.865234" xlink:href="#DejaVuSans-58"/>
     <use x="895.556641" xlink:href="#DejaVuSans-32"/>
     <use x="927.34375" xlink:href="#DejaVuSans-76"/>
     <use x="981.306641" xlink:href="#DejaVuSans-101"/>
     <use x="1042.830078" xlink:href="#DejaVuSans-110"/>
     <use x="1106.208984" xlink:href="#DejaVuSans-103"/>
     <use x="1169.685547" xlink:href="#DejaVuSans-116"/>
     <use x="1208.894531" xlink:href="#DejaVuSans-104"/>
     <use x="1272.273438" xlink:href="#DejaVuSans-32"/>
     <use x="1304.060547" xlink:href="#DejaVuSans-68"/>
     <use x="1381.0625" xlink:href="#DejaVuSans-105"/>
     <use x="1408.845703" xlink:href="#DejaVuSans-115"/>
     <use x="1460.945312" xlink:href="#DejaVuSans-116"/>
     <use x="1500.154297" xlink:href="#DejaVuSans-114"/>
     <use x="1541.267578" xlink:href="#DejaVuSans-105"/>
     <use x="1569.050781" xlink:href="#DejaVuSans-98"/>
     <use x="1632.527344" xlink:href="#DejaVuSans-117"/>
     <use x="1695.90625" xlink:href="#DejaVuSans-116"/>
     <use x="1735.115234" xlink:href="#DejaVuSans-105"/>
     <use x="1762.898438" xlink:href="#DejaVuSans-111"/>
     <use x="1824.080078" xlink:href="#DejaVuSans-110"/>
    </g>
   </g>
  </g>
 </g>
 <defs>
  <clipPath id="p9770871168">
   <rect height="317.968" width="949.93" x="43.148125" y="35.2559"/>
  </clipPath>
 </defs>
</svg>
