<?xml version="1.0" encoding="utf-8" standalone="no"?>
<!DOCTYPE svg PUBLIC "-//W3C//DTD SVG 1.1//EN"
  "http://www.w3.org/Graphics/SVG/1.1/DTD/svg11.dtd">
<!-- Created with matplotlib (https://matplotlib.org/) -->
<svg height="330.541644pt" version="1.1" viewBox="0 0 1000.278125 330.541644" width="1000.278125pt" xmlns="http://www.w3.org/2000/svg" xmlns:xlink="http://www.w3.org/1999/xlink">
 <metadata>
  <rdf:RDF xmlns:cc="http://creativecommons.org/ns#" xmlns:dc="http://purl.org/dc/elements/1.1/" xmlns:rdf="http://www.w3.org/1999/02/22-rdf-syntax-ns#">
   <cc:Work>
    <dc:type rdf:resource="http://purl.org/dc/dcmitype/StillImage"/>
    <dc:date>2021-03-05T10:28:55.074772</dc:date>
    <dc:format>image/svg+xml</dc:format>
    <dc:creator>
     <cc:Agent>
      <dc:title>Matplotlib v3.3.2, https://matplotlib.org/</dc:title>
     </cc:Agent>
    </dc:creator>
   </cc:Work>
  </rdf:RDF>
 </metadata>
 <defs>
  <style type="text/css">*{stroke-linecap:butt;stroke-linejoin:round;}</style>
 </defs>
 <g id="figure_1">
  <g id="axes_1">
   <g id="patch_1">
    <path d="M 43.148125 273.99006
L 993.078125 273.99006
L 993.078125 31.48286
L 43.148125 31.48286
z
" style="fill:#ffffff;"/>
   </g>
   <g id="matplotlib.axis_1">
    <g id="xtick_1">
     <g id="text_1">
      <!-- 0 -->
      <g transform="translate(40.603125 287.06881)scale(0.08 -0.08)">
       <defs>
        <path d="M 31.78125 66.40625
Q 24.171875 66.40625 20.328125 58.90625
Q 16.5 51.421875 16.5 36.375
Q 16.5 21.390625 20.328125 13.890625
Q 24.171875 6.390625 31.78125 6.390625
Q 39.453125 6.390625 43.28125 13.890625
Q 47.125 21.390625 47.125 36.375
Q 47.125 51.421875 43.28125 58.90625
Q 39.453125 66.40625 31.78125 66.40625
z
M 31.78125 74.21875
Q 44.046875 74.21875 50.515625 64.515625
Q 56.984375 54.828125 56.984375 36.375
Q 56.984375 17.96875 50.515625 8.265625
Q 44.046875 -1.421875 31.78125 -1.421875
Q 19.53125 -1.421875 13.0625 8.265625
Q 6.59375 17.96875 6.59375 36.375
Q 6.59375 54.828125 13.0625 64.515625
Q 19.53125 74.21875 31.78125 74.21875
z
" id="DejaVuSans-48"/>
       </defs>
       <use xlink:href="#DejaVuSans-48"/>
      </g>
     </g>
    </g>
    <g id="xtick_2">
     <g id="text_2">
      <!-- 10 -->
      <g transform="translate(155.333434 287.06881)scale(0.08 -0.08)">
       <defs>
        <path d="M 12.40625 8.296875
L 28.515625 8.296875
L 28.515625 63.921875
L 10.984375 60.40625
L 10.984375 69.390625
L 28.421875 72.90625
L 38.28125 72.90625
L 38.28125 8.296875
L 54.390625 8.296875
L 54.390625 0
L 12.40625 0
z
" id="DejaVuSans-49"/>
       </defs>
       <use xlink:href="#DejaVuSans-49"/>
       <use x="63.623047" xlink:href="#DejaVuSans-48"/>
      </g>
     </g>
    </g>
    <g id="xtick_3">
     <g id="text_3">
      <!-- 20 -->
      <g transform="translate(272.608742 287.06881)scale(0.08 -0.08)">
       <defs>
        <path d="M 19.1875 8.296875
L 53.609375 8.296875
L 53.609375 0
L 7.328125 0
L 7.328125 8.296875
Q 12.9375 14.109375 22.625 23.890625
Q 32.328125 33.6875 34.8125 36.53125
Q 39.546875 41.84375 41.421875 45.53125
Q 43.3125 49.21875 43.3125 52.78125
Q 43.3125 58.59375 39.234375 62.25
Q 35.15625 65.921875 28.609375 65.921875
Q 23.96875 65.921875 18.8125 64.3125
Q 13.671875 62.703125 7.8125 59.421875
L 7.8125 69.390625
Q 13.765625 71.78125 18.9375 73
Q 24.125 74.21875 28.421875 74.21875
Q 39.75 74.21875 46.484375 68.546875
Q 53.21875 62.890625 53.21875 53.421875
Q 53.21875 48.921875 51.53125 44.890625
Q 49.859375 40.875 45.40625 35.40625
Q 44.1875 33.984375 37.640625 27.21875
Q 31.109375 20.453125 19.1875 8.296875
z
" id="DejaVuSans-50"/>
       </defs>
       <use xlink:href="#DejaVuSans-50"/>
       <use x="63.623047" xlink:href="#DejaVuSans-48"/>
      </g>
     </g>
    </g>
    <g id="xtick_4">
     <g id="text_4">
      <!-- 30 -->
      <g transform="translate(389.884051 287.06881)scale(0.08 -0.08)">
       <defs>
        <path d="M 40.578125 39.3125
Q 47.65625 37.796875 51.625 33
Q 55.609375 28.21875 55.609375 21.1875
Q 55.609375 10.40625 48.1875 4.484375
Q 40.765625 -1.421875 27.09375 -1.421875
Q 22.515625 -1.421875 17.65625 -0.515625
Q 12.796875 0.390625 7.625 2.203125
L 7.625 11.71875
Q 11.71875 9.328125 16.59375 8.109375
Q 21.484375 6.890625 26.8125 6.890625
Q 36.078125 6.890625 40.9375 10.546875
Q 45.796875 14.203125 45.796875 21.1875
Q 45.796875 27.640625 41.28125 31.265625
Q 36.765625 34.90625 28.71875 34.90625
L 20.21875 34.90625
L 20.21875 43.015625
L 29.109375 43.015625
Q 36.375 43.015625 40.234375 45.921875
Q 44.09375 48.828125 44.09375 54.296875
Q 44.09375 59.90625 40.109375 62.90625
Q 36.140625 65.921875 28.71875 65.921875
Q 24.65625 65.921875 20.015625 65.03125
Q 15.375 64.15625 9.8125 62.3125
L 9.8125 71.09375
Q 15.4375 72.65625 20.34375 73.4375
Q 25.25 74.21875 29.59375 74.21875
Q 40.828125 74.21875 47.359375 69.109375
Q 53.90625 64.015625 53.90625 55.328125
Q 53.90625 49.265625 50.4375 45.09375
Q 46.96875 40.921875 40.578125 39.3125
z
" id="DejaVuSans-51"/>
       </defs>
       <use xlink:href="#DejaVuSans-51"/>
       <use x="63.623047" xlink:href="#DejaVuSans-48"/>
      </g>
     </g>
    </g>
    <g id="xtick_5">
     <g id="text_5">
      <!-- 40 -->
      <g transform="translate(507.15936 287.06881)scale(0.08 -0.08)">
       <defs>
        <path d="M 37.796875 64.3125
L 12.890625 25.390625
L 37.796875 25.390625
z
M 35.203125 72.90625
L 47.609375 72.90625
L 47.609375 25.390625
L 58.015625 25.390625
L 58.015625 17.1875
L 47.609375 17.1875
L 47.609375 0
L 37.796875 0
L 37.796875 17.1875
L 4.890625 17.1875
L 4.890625 26.703125
z
" id="DejaVuSans-52"/>
       </defs>
       <use xlink:href="#DejaVuSans-52"/>
       <use x="63.623047" xlink:href="#DejaVuSans-48"/>
      </g>
     </g>
    </g>
    <g id="xtick_6">
     <g id="text_6">
      <!-- 50 -->
      <g transform="translate(624.434668 287.06881)scale(0.08 -0.08)">
       <defs>
        <path d="M 10.796875 72.90625
L 49.515625 72.90625
L 49.515625 64.59375
L 19.828125 64.59375
L 19.828125 46.734375
Q 21.96875 47.46875 24.109375 47.828125
Q 26.265625 48.1875 28.421875 48.1875
Q 40.625 48.1875 47.75 41.5
Q 54.890625 34.8125 54.890625 23.390625
Q 54.890625 11.625 47.5625 5.09375
Q 40.234375 -1.421875 26.90625 -1.421875
Q 22.3125 -1.421875 17.546875 -0.640625
Q 12.796875 0.140625 7.71875 1.703125
L 7.71875 11.625
Q 12.109375 9.234375 16.796875 8.0625
Q 21.484375 6.890625 26.703125 6.890625
Q 35.15625 6.890625 40.078125 11.328125
Q 45.015625 15.765625 45.015625 23.390625
Q 45.015625 31 40.078125 35.4375
Q 35.15625 39.890625 26.703125 39.890625
Q 22.75 39.890625 18.8125 39.015625
Q 14.890625 38.140625 10.796875 36.28125
z
" id="DejaVuSans-53"/>
       </defs>
       <use xlink:href="#DejaVuSans-53"/>
       <use x="63.623047" xlink:href="#DejaVuSans-48"/>
      </g>
     </g>
    </g>
    <g id="xtick_7">
     <g id="text_7">
      <!-- 60 -->
      <g transform="translate(741.709977 287.06881)scale(0.08 -0.08)">
       <defs>
        <path d="M 33.015625 40.375
Q 26.375 40.375 22.484375 35.828125
Q 18.609375 31.296875 18.609375 23.390625
Q 18.609375 15.53125 22.484375 10.953125
Q 26.375 6.390625 33.015625 6.390625
Q 39.65625 6.390625 43.53125 10.953125
Q 47.40625 15.53125 47.40625 23.390625
Q 47.40625 31.296875 43.53125 35.828125
Q 39.65625 40.375 33.015625 40.375
z
M 52.59375 71.296875
L 52.59375 62.3125
Q 48.875 64.0625 45.09375 64.984375
Q 41.3125 65.921875 37.59375 65.921875
Q 27.828125 65.921875 22.671875 59.328125
Q 17.53125 52.734375 16.796875 39.40625
Q 19.671875 43.65625 24.015625 45.921875
Q 28.375 48.1875 33.59375 48.1875
Q 44.578125 48.1875 50.953125 41.515625
Q 57.328125 34.859375 57.328125 23.390625
Q 57.328125 12.15625 50.6875 5.359375
Q 44.046875 -1.421875 33.015625 -1.421875
Q 20.359375 -1.421875 13.671875 8.265625
Q 6.984375 17.96875 6.984375 36.375
Q 6.984375 53.65625 15.1875 63.9375
Q 23.390625 74.21875 37.203125 74.21875
Q 40.921875 74.21875 44.703125 73.484375
Q 48.484375 72.75 52.59375 71.296875
z
" id="DejaVuSans-54"/>
       </defs>
       <use xlink:href="#DejaVuSans-54"/>
       <use x="63.623047" xlink:href="#DejaVuSans-48"/>
      </g>
     </g>
    </g>
    <g id="xtick_8">
     <g id="text_8">
      <!-- 70 -->
      <g transform="translate(858.985285 287.06881)scale(0.08 -0.08)">
       <defs>
        <path d="M 8.203125 72.90625
L 55.078125 72.90625
L 55.078125 68.703125
L 28.609375 0
L 18.3125 0
L 43.21875 64.59375
L 8.203125 64.59375
z
" id="DejaVuSans-55"/>
       </defs>
       <use xlink:href="#DejaVuSans-55"/>
       <use x="63.623047" xlink:href="#DejaVuSans-48"/>
      </g>
     </g>
    </g>
    <g id="xtick_9">
     <g id="text_9">
      <!-- 80 -->
      <g transform="translate(976.260594 287.06881)scale(0.08 -0.08)">
       <defs>
        <path d="M 31.78125 34.625
Q 24.75 34.625 20.71875 30.859375
Q 16.703125 27.09375 16.703125 20.515625
Q 16.703125 13.921875 20.71875 10.15625
Q 24.75 6.390625 31.78125 6.390625
Q 38.8125 6.390625 42.859375 10.171875
Q 46.921875 13.96875 46.921875 20.515625
Q 46.921875 27.09375 42.890625 30.859375
Q 38.875 34.625 31.78125 34.625
z
M 21.921875 38.8125
Q 15.578125 40.375 12.03125 44.71875
Q 8.5 49.078125 8.5 55.328125
Q 8.5 64.0625 14.71875 69.140625
Q 20.953125 74.21875 31.78125 74.21875
Q 42.671875 74.21875 48.875 69.140625
Q 55.078125 64.0625 55.078125 55.328125
Q 55.078125 49.078125 51.53125 44.71875
Q 48 40.375 41.703125 38.8125
Q 48.828125 37.15625 52.796875 32.3125
Q 56.78125 27.484375 56.78125 20.515625
Q 56.78125 9.90625 50.3125 4.234375
Q 43.84375 -1.421875 31.78125 -1.421875
Q 19.734375 -1.421875 13.25 4.234375
Q 6.78125 9.90625 6.78125 20.515625
Q 6.78125 27.484375 10.78125 32.3125
Q 14.796875 37.15625 21.921875 38.8125
z
M 18.3125 54.390625
Q 18.3125 48.734375 21.84375 45.5625
Q 25.390625 42.390625 31.78125 42.390625
Q 38.140625 42.390625 41.71875 45.5625
Q 45.3125 48.734375 45.3125 54.390625
Q 45.3125 60.0625 41.71875 63.234375
Q 38.140625 66.40625 31.78125 66.40625
Q 25.390625 66.40625 21.84375 63.234375
Q 18.3125 60.0625 18.3125 54.390625
z
" id="DejaVuSans-56"/>
       </defs>
       <use xlink:href="#DejaVuSans-56"/>
       <use x="63.623047" xlink:href="#DejaVuSans-48"/>
      </g>
     </g>
    </g>
    <g id="text_10">
     <!-- Coverage (X) -->
     <g transform="translate(485.240469 300.330997)scale(0.1 -0.1)">
      <defs>
       <path d="M 64.40625 67.28125
L 64.40625 56.890625
Q 59.421875 61.53125 53.78125 63.8125
Q 48.140625 66.109375 41.796875 66.109375
Q 29.296875 66.109375 22.65625 58.46875
Q 16.015625 50.828125 16.015625 36.375
Q 16.015625 21.96875 22.65625 14.328125
Q 29.296875 6.6875 41.796875 6.6875
Q 48.140625 6.6875 53.78125 8.984375
Q 59.421875 11.28125 64.40625 15.921875
L 64.40625 5.609375
Q 59.234375 2.09375 53.4375 0.328125
Q 47.65625 -1.421875 41.21875 -1.421875
Q 24.65625 -1.421875 15.125 8.703125
Q 5.609375 18.84375 5.609375 36.375
Q 5.609375 53.953125 15.125 64.078125
Q 24.65625 74.21875 41.21875 74.21875
Q 47.75 74.21875 53.53125 72.484375
Q 59.328125 70.75 64.40625 67.28125
z
" id="DejaVuSans-67"/>
       <path d="M 30.609375 48.390625
Q 23.390625 48.390625 19.1875 42.75
Q 14.984375 37.109375 14.984375 27.296875
Q 14.984375 17.484375 19.15625 11.84375
Q 23.34375 6.203125 30.609375 6.203125
Q 37.796875 6.203125 41.984375 11.859375
Q 46.1875 17.53125 46.1875 27.296875
Q 46.1875 37.015625 41.984375 42.703125
Q 37.796875 48.390625 30.609375 48.390625
z
M 30.609375 56
Q 42.328125 56 49.015625 48.375
Q 55.71875 40.765625 55.71875 27.296875
Q 55.71875 13.875 49.015625 6.21875
Q 42.328125 -1.421875 30.609375 -1.421875
Q 18.84375 -1.421875 12.171875 6.21875
Q 5.515625 13.875 5.515625 27.296875
Q 5.515625 40.765625 12.171875 48.375
Q 18.84375 56 30.609375 56
z
" id="DejaVuSans-111"/>
       <path d="M 2.984375 54.6875
L 12.5 54.6875
L 29.59375 8.796875
L 46.6875 54.6875
L 56.203125 54.6875
L 35.6875 0
L 23.484375 0
z
" id="DejaVuSans-118"/>
       <path d="M 56.203125 29.59375
L 56.203125 25.203125
L 14.890625 25.203125
Q 15.484375 15.921875 20.484375 11.0625
Q 25.484375 6.203125 34.421875 6.203125
Q 39.59375 6.203125 44.453125 7.46875
Q 49.3125 8.734375 54.109375 11.28125
L 54.109375 2.78125
Q 49.265625 0.734375 44.1875 -0.34375
Q 39.109375 -1.421875 33.890625 -1.421875
Q 20.796875 -1.421875 13.15625 6.1875
Q 5.515625 13.8125 5.515625 26.8125
Q 5.515625 40.234375 12.765625 48.109375
Q 20.015625 56 32.328125 56
Q 43.359375 56 49.78125 48.890625
Q 56.203125 41.796875 56.203125 29.59375
z
M 47.21875 32.234375
Q 47.125 39.59375 43.09375 43.984375
Q 39.0625 48.390625 32.421875 48.390625
Q 24.90625 48.390625 20.390625 44.140625
Q 15.875 39.890625 15.1875 32.171875
z
" id="DejaVuSans-101"/>
       <path d="M 41.109375 46.296875
Q 39.59375 47.171875 37.8125 47.578125
Q 36.03125 48 33.890625 48
Q 26.265625 48 22.1875 43.046875
Q 18.109375 38.09375 18.109375 28.8125
L 18.109375 0
L 9.078125 0
L 9.078125 54.6875
L 18.109375 54.6875
L 18.109375 46.1875
Q 20.953125 51.171875 25.484375 53.578125
Q 30.03125 56 36.53125 56
Q 37.453125 56 38.578125 55.875
Q 39.703125 55.765625 41.0625 55.515625
z
" id="DejaVuSans-114"/>
       <path d="M 34.28125 27.484375
Q 23.390625 27.484375 19.1875 25
Q 14.984375 22.515625 14.984375 16.5
Q 14.984375 11.71875 18.140625 8.90625
Q 21.296875 6.109375 26.703125 6.109375
Q 34.1875 6.109375 38.703125 11.40625
Q 43.21875 16.703125 43.21875 25.484375
L 43.21875 27.484375
z
M 52.203125 31.203125
L 52.203125 0
L 43.21875 0
L 43.21875 8.296875
Q 40.140625 3.328125 35.546875 0.953125
Q 30.953125 -1.421875 24.3125 -1.421875
Q 15.921875 -1.421875 10.953125 3.296875
Q 6 8.015625 6 15.921875
Q 6 25.140625 12.171875 29.828125
Q 18.359375 34.515625 30.609375 34.515625
L 43.21875 34.515625
L 43.21875 35.40625
Q 43.21875 41.609375 39.140625 45
Q 35.0625 48.390625 27.6875 48.390625
Q 23 48.390625 18.546875 47.265625
Q 14.109375 46.140625 10.015625 43.890625
L 10.015625 52.203125
Q 14.9375 54.109375 19.578125 55.046875
Q 24.21875 56 28.609375 56
Q 40.484375 56 46.34375 49.84375
Q 52.203125 43.703125 52.203125 31.203125
z
" id="DejaVuSans-97"/>
       <path d="M 45.40625 27.984375
Q 45.40625 37.75 41.375 43.109375
Q 37.359375 48.484375 30.078125 48.484375
Q 22.859375 48.484375 18.828125 43.109375
Q 14.796875 37.75 14.796875 27.984375
Q 14.796875 18.265625 18.828125 12.890625
Q 22.859375 7.515625 30.078125 7.515625
Q 37.359375 7.515625 41.375 12.890625
Q 45.40625 18.265625 45.40625 27.984375
z
M 54.390625 6.78125
Q 54.390625 -7.171875 48.1875 -13.984375
Q 42 -20.796875 29.203125 -20.796875
Q 24.46875 -20.796875 20.265625 -20.09375
Q 16.0625 -19.390625 12.109375 -17.921875
L 12.109375 -9.1875
Q 16.0625 -11.328125 19.921875 -12.34375
Q 23.78125 -13.375 27.78125 -13.375
Q 36.625 -13.375 41.015625 -8.765625
Q 45.40625 -4.15625 45.40625 5.171875
L 45.40625 9.625
Q 42.625 4.78125 38.28125 2.390625
Q 33.9375 0 27.875 0
Q 17.828125 0 11.671875 7.65625
Q 5.515625 15.328125 5.515625 27.984375
Q 5.515625 40.671875 11.671875 48.328125
Q 17.828125 56 27.875 56
Q 33.9375 56 38.28125 53.609375
Q 42.625 51.21875 45.40625 46.390625
L 45.40625 54.6875
L 54.390625 54.6875
z
" id="DejaVuSans-103"/>
       <path id="DejaVuSans-32"/>
       <path d="M 31 75.875
Q 24.46875 64.65625 21.28125 53.65625
Q 18.109375 42.671875 18.109375 31.390625
Q 18.109375 20.125 21.3125 9.0625
Q 24.515625 -2 31 -13.1875
L 23.1875 -13.1875
Q 15.875 -1.703125 12.234375 9.375
Q 8.59375 20.453125 8.59375 31.390625
Q 8.59375 42.28125 12.203125 53.3125
Q 15.828125 64.359375 23.1875 75.875
z
" id="DejaVuSans-40"/>
       <path d="M 6.296875 72.90625
L 16.890625 72.90625
L 35.015625 45.796875
L 53.21875 72.90625
L 63.8125 72.90625
L 40.375 37.890625
L 65.375 0
L 54.78125 0
L 34.28125 31
L 13.625 0
L 2.984375 0
L 29 38.921875
z
" id="DejaVuSans-88"/>
       <path d="M 8.015625 75.875
L 15.828125 75.875
Q 23.140625 64.359375 26.78125 53.3125
Q 30.421875 42.28125 30.421875 31.390625
Q 30.421875 20.453125 26.78125 9.375
Q 23.140625 -1.703125 15.828125 -13.1875
L 8.015625 -13.1875
Q 14.5 -2 17.703125 9.0625
Q 20.90625 20.125 20.90625 31.390625
Q 20.90625 42.671875 17.703125 53.65625
Q 14.5 64.65625 8.015625 75.875
z
" id="DejaVuSans-41"/>
      </defs>
      <use xlink:href="#DejaVuSans-67"/>
      <use x="69.824219" xlink:href="#DejaVuSans-111"/>
      <use x="131.005859" xlink:href="#DejaVuSans-118"/>
      <use x="190.185547" xlink:href="#DejaVuSans-101"/>
      <use x="251.708984" xlink:href="#DejaVuSans-114"/>
      <use x="292.822266" xlink:href="#DejaVuSans-97"/>
      <use x="354.101562" xlink:href="#DejaVuSans-103"/>
      <use x="417.578125" xlink:href="#DejaVuSans-101"/>
      <use x="479.101562" xlink:href="#DejaVuSans-32"/>
      <use x="510.888672" xlink:href="#DejaVuSans-40"/>
      <use x="549.902344" xlink:href="#DejaVuSans-88"/>
      <use x="618.408203" xlink:href="#DejaVuSans-41"/>
     </g>
    </g>
   </g>
   <g id="matplotlib.axis_2">
    <g id="ytick_1">
     <g id="line2d_1">
      <path clip-path="url(#p522e5fb4bf)" d="M 43.148125 273.99006
L 993.078125 273.99006
" style="fill:none;stroke:#dedede;stroke-linecap:square;"/>
     </g>
     <g id="text_11">
      <!-- 0 -->
      <g transform="translate(31.058125 277.029435)scale(0.08 -0.08)">
       <use xlink:href="#DejaVuSans-48"/>
      </g>
     </g>
    </g>
    <g id="ytick_2">
     <g id="line2d_2">
      <path clip-path="url(#p522e5fb4bf)" d="M 43.148125 225.48862
L 993.078125 225.48862
" style="fill:none;stroke:#dedede;stroke-linecap:square;"/>
     </g>
     <g id="text_12">
      <!-- 20 -->
      <g transform="translate(25.968125 228.527995)scale(0.08 -0.08)">
       <use xlink:href="#DejaVuSans-50"/>
       <use x="63.623047" xlink:href="#DejaVuSans-48"/>
      </g>
     </g>
    </g>
    <g id="ytick_3">
     <g id="line2d_3">
      <path clip-path="url(#p522e5fb4bf)" d="M 43.148125 176.98718
L 993.078125 176.98718
" style="fill:none;stroke:#dedede;stroke-linecap:square;"/>
     </g>
     <g id="text_13">
      <!-- 40 -->
      <g transform="translate(25.968125 180.026555)scale(0.08 -0.08)">
       <use xlink:href="#DejaVuSans-52"/>
       <use x="63.623047" xlink:href="#DejaVuSans-48"/>
      </g>
     </g>
    </g>
    <g id="ytick_4">
     <g id="line2d_4">
      <path clip-path="url(#p522e5fb4bf)" d="M 43.148125 128.48574
L 993.078125 128.48574
" style="fill:none;stroke:#dedede;stroke-linecap:square;"/>
     </g>
     <g id="text_14">
      <!-- 60 -->
      <g transform="translate(25.968125 131.525115)scale(0.08 -0.08)">
       <use xlink:href="#DejaVuSans-54"/>
       <use x="63.623047" xlink:href="#DejaVuSans-48"/>
      </g>
     </g>
    </g>
    <g id="ytick_5">
     <g id="line2d_5">
      <path clip-path="url(#p522e5fb4bf)" d="M 43.148125 79.9843
L 993.078125 79.9843
" style="fill:none;stroke:#dedede;stroke-linecap:square;"/>
     </g>
     <g id="text_15">
      <!-- 80 -->
      <g transform="translate(25.968125 83.023675)scale(0.08 -0.08)">
       <use xlink:href="#DejaVuSans-56"/>
       <use x="63.623047" xlink:href="#DejaVuSans-48"/>
      </g>
     </g>
    </g>
    <g id="ytick_6">
     <g id="line2d_6">
      <path clip-path="url(#p522e5fb4bf)" d="M 43.148125 31.48286
L 993.078125 31.48286
" style="fill:none;stroke:#dedede;stroke-linecap:square;"/>
     </g>
     <g id="text_16">
      <!-- 100 -->
      <g transform="translate(20.878125 34.522235)scale(0.08 -0.08)">
       <use xlink:href="#DejaVuSans-49"/>
       <use x="63.623047" xlink:href="#DejaVuSans-48"/>
       <use x="127.246094" xlink:href="#DejaVuSans-48"/>
      </g>
     </g>
    </g>
    <g id="text_17">
     <!-- Fraction of reference (%) -->
     <g transform="translate(14.798438 214.80521)rotate(-90)scale(0.1 -0.1)">
      <defs>
       <path d="M 9.8125 72.90625
L 51.703125 72.90625
L 51.703125 64.59375
L 19.671875 64.59375
L 19.671875 43.109375
L 48.578125 43.109375
L 48.578125 34.8125
L 19.671875 34.8125
L 19.671875 0
L 9.8125 0
z
" id="DejaVuSans-70"/>
       <path d="M 48.78125 52.59375
L 48.78125 44.1875
Q 44.96875 46.296875 41.140625 47.34375
Q 37.3125 48.390625 33.40625 48.390625
Q 24.65625 48.390625 19.8125 42.84375
Q 14.984375 37.3125 14.984375 27.296875
Q 14.984375 17.28125 19.8125 11.734375
Q 24.65625 6.203125 33.40625 6.203125
Q 37.3125 6.203125 41.140625 7.25
Q 44.96875 8.296875 48.78125 10.40625
L 48.78125 2.09375
Q 45.015625 0.34375 40.984375 -0.53125
Q 36.96875 -1.421875 32.421875 -1.421875
Q 20.0625 -1.421875 12.78125 6.34375
Q 5.515625 14.109375 5.515625 27.296875
Q 5.515625 40.671875 12.859375 48.328125
Q 20.21875 56 33.015625 56
Q 37.15625 56 41.109375 55.140625
Q 45.0625 54.296875 48.78125 52.59375
z
" id="DejaVuSans-99"/>
       <path d="M 18.3125 70.21875
L 18.3125 54.6875
L 36.8125 54.6875
L 36.8125 47.703125
L 18.3125 47.703125
L 18.3125 18.015625
Q 18.3125 11.328125 20.140625 9.421875
Q 21.96875 7.515625 27.59375 7.515625
L 36.8125 7.515625
L 36.8125 0
L 27.59375 0
Q 17.1875 0 13.234375 3.875
Q 9.28125 7.765625 9.28125 18.015625
L 9.28125 47.703125
L 2.6875 47.703125
L 2.6875 54.6875
L 9.28125 54.6875
L 9.28125 70.21875
z
" id="DejaVuSans-116"/>
       <path d="M 9.421875 54.6875
L 18.40625 54.6875
L 18.40625 0
L 9.421875 0
z
M 9.421875 75.984375
L 18.40625 75.984375
L 18.40625 64.59375
L 9.421875 64.59375
z
" id="DejaVuSans-105"/>
       <path d="M 54.890625 33.015625
L 54.890625 0
L 45.90625 0
L 45.90625 32.71875
Q 45.90625 40.484375 42.875 44.328125
Q 39.84375 48.1875 33.796875 48.1875
Q 26.515625 48.1875 22.3125 43.546875
Q 18.109375 38.921875 18.109375 30.90625
L 18.109375 0
L 9.078125 0
L 9.078125 54.6875
L 18.109375 54.6875
L 18.109375 46.1875
Q 21.34375 51.125 25.703125 53.5625
Q 30.078125 56 35.796875 56
Q 45.21875 56 50.046875 50.171875
Q 54.890625 44.34375 54.890625 33.015625
z
" id="DejaVuSans-110"/>
       <path d="M 37.109375 75.984375
L 37.109375 68.5
L 28.515625 68.5
Q 23.6875 68.5 21.796875 66.546875
Q 19.921875 64.59375 19.921875 59.515625
L 19.921875 54.6875
L 34.71875 54.6875
L 34.71875 47.703125
L 19.921875 47.703125
L 19.921875 0
L 10.890625 0
L 10.890625 47.703125
L 2.296875 47.703125
L 2.296875 54.6875
L 10.890625 54.6875
L 10.890625 58.5
Q 10.890625 67.625 15.140625 71.796875
Q 19.390625 75.984375 28.609375 75.984375
z
" id="DejaVuSans-102"/>
       <path d="M 72.703125 32.078125
Q 68.453125 32.078125 66.03125 28.46875
Q 63.625 24.859375 63.625 18.40625
Q 63.625 12.0625 66.03125 8.421875
Q 68.453125 4.78125 72.703125 4.78125
Q 76.859375 4.78125 79.265625 8.421875
Q 81.6875 12.0625 81.6875 18.40625
Q 81.6875 24.8125 79.265625 28.4375
Q 76.859375 32.078125 72.703125 32.078125
z
M 72.703125 38.28125
Q 80.421875 38.28125 84.953125 32.90625
Q 89.5 27.546875 89.5 18.40625
Q 89.5 9.28125 84.9375 3.921875
Q 80.375 -1.421875 72.703125 -1.421875
Q 64.890625 -1.421875 60.34375 3.921875
Q 55.8125 9.28125 55.8125 18.40625
Q 55.8125 27.59375 60.375 32.9375
Q 64.9375 38.28125 72.703125 38.28125
z
M 22.3125 68.015625
Q 18.109375 68.015625 15.6875 64.375
Q 13.28125 60.75 13.28125 54.390625
Q 13.28125 47.953125 15.671875 44.328125
Q 18.0625 40.71875 22.3125 40.71875
Q 26.5625 40.71875 28.96875 44.328125
Q 31.390625 47.953125 31.390625 54.390625
Q 31.390625 60.6875 28.953125 64.34375
Q 26.515625 68.015625 22.3125 68.015625
z
M 66.40625 74.21875
L 74.21875 74.21875
L 28.609375 -1.421875
L 20.796875 -1.421875
z
M 22.3125 74.21875
Q 30.03125 74.21875 34.609375 68.875
Q 39.203125 63.53125 39.203125 54.390625
Q 39.203125 45.171875 34.640625 39.84375
Q 30.078125 34.515625 22.3125 34.515625
Q 14.546875 34.515625 10.03125 39.859375
Q 5.515625 45.21875 5.515625 54.390625
Q 5.515625 63.484375 10.046875 68.84375
Q 14.59375 74.21875 22.3125 74.21875
z
" id="DejaVuSans-37"/>
      </defs>
      <use xlink:href="#DejaVuSans-70"/>
      <use x="50.269531" xlink:href="#DejaVuSans-114"/>
      <use x="91.382812" xlink:href="#DejaVuSans-97"/>
      <use x="152.662109" xlink:href="#DejaVuSans-99"/>
      <use x="207.642578" xlink:href="#DejaVuSans-116"/>
      <use x="246.851562" xlink:href="#DejaVuSans-105"/>
      <use x="274.634766" xlink:href="#DejaVuSans-111"/>
      <use x="335.816406" xlink:href="#DejaVuSans-110"/>
      <use x="399.195312" xlink:href="#DejaVuSans-32"/>
      <use x="430.982422" xlink:href="#DejaVuSans-111"/>
      <use x="492.164062" xlink:href="#DejaVuSans-102"/>
      <use x="527.369141" xlink:href="#DejaVuSans-32"/>
      <use x="559.15625" xlink:href="#DejaVuSans-114"/>
      <use x="598.019531" xlink:href="#DejaVuSans-101"/>
      <use x="659.542969" xlink:href="#DejaVuSans-102"/>
      <use x="694.748047" xlink:href="#DejaVuSans-101"/>
      <use x="756.271484" xlink:href="#DejaVuSans-114"/>
      <use x="795.134766" xlink:href="#DejaVuSans-101"/>
      <use x="856.658203" xlink:href="#DejaVuSans-110"/>
      <use x="920.037109" xlink:href="#DejaVuSans-99"/>
      <use x="975.017578" xlink:href="#DejaVuSans-101"/>
      <use x="1036.541016" xlink:href="#DejaVuSans-32"/>
      <use x="1068.328125" xlink:href="#DejaVuSans-40"/>
      <use x="1107.341797" xlink:href="#DejaVuSans-37"/>
      <use x="1202.361328" xlink:href="#DejaVuSans-41"/>
     </g>
    </g>
   </g>
   <g id="line2d_7">
    <path clip-path="url(#p522e5fb4bf)" d="M 43.148125 31.48286
L 54.875656 99.281122
L 66.603187 152.652233
L 78.330718 193.104401
L 90.058248 221.461875
L 101.785779 240.701106
L 113.51331 253.47926
L 125.240841 261.613135
L 136.968372 266.654474
L 148.695903 269.656381
L 160.423434 271.407155
L 172.150965 272.444947
L 183.878495 273.029994
L 195.606026 273.389498
L 207.333557 273.612531
L 219.061088 273.73424
L 230.788619 273.809103
L 242.51615 273.863229
L 254.243681 273.895866
L 265.971211 273.923281
L 277.698742 273.9398
L 289.426273 273.95431
L 301.153804 273.964604
L 312.881335 273.971934
L 324.608866 273.977407
L 336.336397 273.981826
L 348.063927 273.984286
L 359.791458 273.98519
L 371.518989 273.986897
L 383.24652 273.988152
L 394.974051 273.989106
L 406.701582 273.99006
L 418.429113 273.99006
L 430.156644 273.99006
L 441.884174 273.99006
L 453.611705 273.99006
L 465.339236 273.99006
L 477.066767 273.99006
L 488.794298 273.99006
L 500.521829 273.99006
L 512.24936 273.99006
L 523.97689 273.99006
L 535.704421 273.99006
L 547.431952 273.99006
L 559.159483 273.99006
L 570.887014 273.99006
L 582.614545 273.99006
L 594.342076 273.99006
L 606.069606 273.99006
L 617.797137 273.99006
L 629.524668 273.99006
L 641.252199 273.99006
L 652.97973 273.99006
L 664.707261 273.99006
L 676.434792 273.99006
L 688.162323 273.99006
L 699.889853 273.99006
L 711.617384 273.99006
L 723.344915 273.99006
L 735.072446 273.99006
L 746.799977 273.99006
L 758.527508 273.99006
L 770.255039 273.99006
L 781.982569 273.99006
L 793.7101 273.99006
L 805.437631 273.99006
L 817.165162 273.99006
L 828.892693 273.99006
L 840.620224 273.99006
L 852.347755 273.99006
L 864.075285 273.99006
L 875.802816 273.99006
L 887.530347 273.99006
L 899.257878 273.99006
L 910.985409 273.99006
L 922.71294 273.99006
L 934.440471 273.99006
L 946.168002 273.99006
L 957.895532 273.99006
L 969.623063 273.99006
L 981.350594 273.99006
L 993.078125 273.99006
" style="fill:none;stroke:#7cb5ec;stroke-linecap:square;"/>
   </g>
   <g id="line2d_8">
    <path clip-path="url(#p522e5fb4bf)" d="M 43.148125 31.48286
L 54.875656 263.964471
L 66.603187 273.545952
L 78.330718 273.92308
L 90.058248 273.952905
L 101.785779 273.96626
L 113.51331 273.969926
L 125.240841 273.9758
L 136.968372 273.981072
L 148.695903 273.982077
L 160.423434 273.983231
L 172.150965 273.984386
L 183.878495 273.985742
L 195.606026 273.986194
L 207.333557 273.9877
L 219.061088 273.988102
L 230.788619 273.988152
L 242.51615 273.988252
L 254.243681 273.988554
L 265.971211 273.988654
L 277.698742 273.988704
L 289.426273 273.99006
L 301.153804 273.99006
L 312.881335 273.99006
L 324.608866 273.99006
L 336.336397 273.99006
L 348.063927 273.99006
L 359.791458 273.99006
L 371.518989 273.99006
L 383.24652 273.99006
L 394.974051 273.99006
L 406.701582 273.99006
L 418.429113 273.99006
L 430.156644 273.99006
L 441.884174 273.99006
L 453.611705 273.99006
L 465.339236 273.99006
L 477.066767 273.99006
L 488.794298 273.99006
L 500.521829 273.99006
L 512.24936 273.99006
L 523.97689 273.99006
L 535.704421 273.99006
L 547.431952 273.99006
L 559.159483 273.99006
L 570.887014 273.99006
L 582.614545 273.99006
L 594.342076 273.99006
L 606.069606 273.99006
L 617.797137 273.99006
L 629.524668 273.99006
L 641.252199 273.99006
L 652.97973 273.99006
L 664.707261 273.99006
L 676.434792 273.99006
L 688.162323 273.99006
L 699.889853 273.99006
L 711.617384 273.99006
L 723.344915 273.99006
L 735.072446 273.99006
L 746.799977 273.99006
L 758.527508 273.99006
L 770.255039 273.99006
L 781.982569 273.99006
L 793.7101 273.99006
L 805.437631 273.99006
L 817.165162 273.99006
L 828.892693 273.99006
L 840.620224 273.99006
L 852.347755 273.99006
L 864.075285 273.99006
L 875.802816 273.99006
L 887.530347 273.99006
L 899.257878 273.99006
L 910.985409 273.99006
L 922.71294 273.99006
L 934.440471 273.99006
L 946.168002 273.99006
L 957.895532 273.99006
L 969.623063 273.99006
L 981.350594 273.99006
L 993.078125 273.99006
" style="fill:none;stroke:#434348;stroke-linecap:square;"/>
   </g>
   <g id="line2d_9">
    <path clip-path="url(#p522e5fb4bf)" d="M 43.148125 31.48286
L 54.875656 61.053258
L 66.603187 82.179232
L 78.330718 102.028916
L 90.058248 119.885062
L 101.785779 135.496367
L 113.51331 149.165798
L 125.240841 161.168156
L 136.968372 171.813136
L 148.695903 181.433379
L 160.423434 190.029639
L 172.150965 197.712026
L 183.878495 204.589746
L 195.606026 210.863039
L 207.333557 216.49786
L 219.061088 221.610798
L 230.788619 226.195276
L 242.51615 230.365621
L 254.243681 234.164362
L 265.971211 237.617909
L 277.698742 240.785007
L 289.426273 243.695031
L 301.153804 246.324681
L 312.881335 248.727633
L 324.608866 250.908707
L 336.336397 252.959435
L 348.063927 254.823382
L 359.791458 256.510389
L 371.518989 258.055955
L 383.24652 259.459978
L 394.974051 260.787983
L 406.701582 261.970882
L 418.429113 263.057226
L 430.156644 264.058264
L 441.884174 264.975049
L 453.611705 265.799799
L 465.339236 266.561083
L 477.066767 267.271907
L 488.794298 267.919817
L 500.521829 268.492061
L 512.24936 269.026497
L 523.97689 269.506103
L 535.704421 269.946545
L 547.431952 270.326685
L 559.159483 270.689654
L 570.887014 271.016822
L 582.614545 271.307338
L 594.342076 271.573551
L 606.069606 271.80979
L 617.797137 272.023132
L 629.524668 272.217395
L 641.252199 272.387506
L 652.97973 272.533166
L 664.707261 272.674206
L 676.434792 272.803296
L 688.162323 272.919431
L 699.889853 273.028839
L 711.617384 273.120824
L 723.344915 273.201361
L 735.072446 273.277178
L 746.799977 273.346819
L 758.527508 273.408276
L 770.255039 273.45934
L 781.982569 273.506186
L 793.7101 273.551325
L 805.437631 273.59084
L 817.165162 273.623928
L 828.892693 273.655661
L 840.620224 273.682473
L 852.347755 273.707126
L 864.075285 273.728315
L 875.802816 273.746441
L 887.530347 273.762508
L 899.257878 273.777672
L 910.985409 273.791881
L 922.71294 273.805036
L 934.440471 273.816986
L 946.168002 273.828886
L 957.895532 273.840083
L 969.623063 273.850828
L 981.350594 273.858962
L 993.078125 273.866493
" style="fill:none;stroke:#90ed7d;stroke-linecap:square;"/>
   </g>
   <g id="line2d_10">
    <path clip-path="url(#p522e5fb4bf)" d="M 43.148125 31.48286
L 54.875656 74.464811
L 66.603187 108.495317
L 78.330718 140.043689
L 90.058248 167.443708
L 101.785779 190.718772
L 113.51331 209.914169
L 125.240841 225.353404
L 136.968372 237.67324
L 148.695903 247.169164
L 160.423434 254.367274
L 172.150965 259.771883
L 183.878495 263.697705
L 195.606026 266.54125
L 207.333557 268.608799
L 219.061088 270.066648
L 230.788619 271.098866
L 242.51615 271.859949
L 254.243681 272.390167
L 265.971211 272.77809
L 277.698742 273.061174
L 289.426273 273.271454
L 301.153804 273.418871
L 312.881335 273.523207
L 324.608866 273.604798
L 336.336397 273.673938
L 348.063927 273.730675
L 359.791458 273.776969
L 371.518989 273.817689
L 383.24652 273.847966
L 394.974051 273.874677
L 406.701582 273.895414
L 418.429113 273.910226
L 430.156644 273.923481
L 441.884174 273.936938
L 453.611705 273.947934
L 465.339236 273.958026
L 477.066767 273.963599
L 488.794298 273.969876
L 500.521829 273.974294
L 512.24936 273.977558
L 523.97689 273.980018
L 535.704421 273.981976
L 547.431952 273.984185
L 559.159483 273.985842
L 570.887014 273.987449
L 582.614545 273.988152
L 594.342076 273.988905
L 606.069606 273.989307
L 617.797137 273.989608
L 629.524668 273.989709
L 641.252199 273.989909
L 652.97973 273.98996
L 664.707261 273.99006
L 676.434792 273.99006
L 688.162323 273.99006
L 699.889853 273.99006
L 711.617384 273.99006
L 723.344915 273.99006
L 735.072446 273.99006
L 746.799977 273.99006
L 758.527508 273.99006
L 770.255039 273.99006
L 781.982569 273.99006
L 793.7101 273.99006
L 805.437631 273.99006
L 817.165162 273.99006
L 828.892693 273.99006
L 840.620224 273.99006
L 852.347755 273.99006
L 864.075285 273.99006
L 875.802816 273.99006
L 887.530347 273.99006
L 899.257878 273.99006
L 910.985409 273.99006
L 922.71294 273.99006
L 934.440471 273.99006
L 946.168002 273.99006
L 957.895532 273.99006
L 969.623063 273.99006
L 981.350594 273.99006
L 993.078125 273.99006
" style="fill:none;stroke:#f7a35c;stroke-linecap:square;"/>
   </g>
   <g id="line2d_11">
    <path clip-path="url(#p522e5fb4bf)" d="M 43.148125 31.48286
L 54.875656 46.049896
L 66.603187 51.551159
L 78.330718 57.739848
L 90.058248 64.411205
L 101.785779 71.14894
L 113.51331 77.984133
L 125.240841 84.688127
L 136.968372 91.370129
L 148.695903 97.861182
L 160.423434 104.196082
L 172.150965 110.452303
L 183.878495 116.5116
L 195.606026 122.345605
L 207.333557 128.039021
L 219.061088 133.55836
L 230.788619 138.862498
L 242.51615 144.093329
L 254.243681 149.14943
L 265.971211 153.971552
L 277.698742 158.651529
L 289.426273 163.221496
L 301.153804 167.757521
L 312.881335 172.12956
L 324.608866 176.361965
L 336.336397 180.486468
L 348.063927 184.490668
L 359.791458 188.338464
L 371.518989 192.063547
L 383.24652 195.695992
L 394.974051 199.219682
L 406.701582 202.622216
L 418.429113 205.874621
L 430.156644 209.003912
L 441.884174 212.014907
L 453.611705 214.935374
L 465.339236 217.746634
L 477.066767 220.476152
L 488.794298 223.085819
L 500.521829 225.635334
L 512.24936 228.059273
L 523.97689 230.406492
L 535.704421 232.620755
L 547.431952 234.746096
L 559.159483 236.76725
L 570.887014 238.752355
L 582.614545 240.661742
L 594.342076 242.503245
L 606.069606 244.277116
L 617.797137 245.966884
L 629.524668 247.582191
L 641.252199 249.135941
L 652.97973 250.602576
L 664.707261 252.013177
L 676.434792 253.341534
L 688.162323 254.605772
L 699.889853 255.815985
L 711.617384 256.960673
L 723.344915 258.079252
L 735.072446 259.136475
L 746.799977 260.149663
L 758.527508 261.098081
L 770.255039 261.99674
L 781.982569 262.845641
L 793.7101 263.628666
L 805.437631 264.377348
L 817.165162 265.072356
L 828.892693 265.733773
L 840.620224 266.350804
L 852.347755 266.920888
L 864.075285 267.470387
L 875.802816 267.973994
L 887.530347 268.448679
L 899.257878 268.895549
L 910.985409 269.32133
L 922.71294 269.703629
L 934.440471 270.054999
L 946.168002 270.375791
L 957.895532 270.687244
L 969.623063 270.971583
L 981.350594 271.239805
L 993.078125 271.487391
" style="fill:none;stroke:#8085e9;stroke-linecap:square;"/>
   </g>
   <g id="line2d_12">
    <path clip-path="url(#p522e5fb4bf)" d="M 43.148125 31.48286
L 54.875656 61.169745
L 66.603187 84.921453
L 78.330718 109.413959
L 90.058248 132.606227
L 101.785779 153.869977
L 113.51331 172.988503
L 125.240841 189.880967
L 136.968372 204.489025
L 148.695903 217.01181
L 160.423434 227.595333
L 172.150965 236.455798
L 183.878495 243.848975
L 195.606026 249.927301
L 207.333557 254.940974
L 219.061088 258.907417
L 230.788619 262.147119
L 242.51615 264.716668
L 254.243681 266.755145
L 265.971211 268.355289
L 277.698742 269.602104
L 289.426273 270.589435
L 301.153804 271.329581
L 312.881335 271.891732
L 324.608866 272.33092
L 336.336397 272.672549
L 348.063927 272.927967
L 359.791458 273.123987
L 371.518989 273.286668
L 383.24652 273.422184
L 394.974051 273.527425
L 406.701582 273.608112
L 418.429113 273.67208
L 430.156644 273.72234
L 441.884174 273.763362
L 453.611705 273.801371
L 465.339236 273.831597
L 477.066767 273.8561
L 488.794298 273.875531
L 500.521829 273.890293
L 512.24936 273.903498
L 523.97689 273.913891
L 535.704421 273.923682
L 547.431952 273.931816
L 559.159483 273.938193
L 570.887014 273.943063
L 582.614545 273.948335
L 594.342076 273.952202
L 606.069606 273.95657
L 617.797137 273.960034
L 629.524668 273.963097
L 641.252199 273.965608
L 652.97973 273.968319
L 664.707261 273.970729
L 676.434792 273.973541
L 688.162323 273.976805
L 699.889853 273.977708
L 711.617384 273.978461
L 723.344915 273.979616
L 735.072446 273.981474
L 746.799977 273.982227
L 758.527508 273.983081
L 770.255039 273.983382
L 781.982569 273.983934
L 793.7101 273.984637
L 805.437631 273.985491
L 817.165162 273.986194
L 828.892693 273.986646
L 840.620224 273.987349
L 852.347755 273.98775
L 864.075285 273.988303
L 875.802816 273.988855
L 887.530347 273.989257
L 899.257878 273.989407
L 910.985409 273.989558
L 922.71294 273.989809
L 934.440471 273.98996
L 946.168002 273.99001
L 957.895532 273.99006
L 969.623063 273.99006
L 981.350594 273.99006
L 993.078125 273.99006
" style="fill:none;stroke:#f15c80;stroke-linecap:square;"/>
   </g>
   <g id="line2d_13">
    <path clip-path="url(#p522e5fb4bf)" d="M 43.148125 31.48286
L 54.875656 46.412011
L 66.603187 51.554222
L 78.330718 57.332745
L 90.058248 63.766207
L 101.785779 70.506352
L 113.51331 77.514368
L 125.240841 84.64575
L 136.968372 91.888246
L 148.695903 99.148316
L 160.423434 106.369675
L 172.150965 113.655352
L 183.878495 120.92205
L 195.606026 128.116947
L 207.333557 135.304715
L 219.061088 142.43208
L 230.788619 149.393902
L 242.51615 156.306168
L 254.243681 163.073979
L 265.971211 169.771696
L 277.698742 176.261394
L 289.426273 182.613466
L 301.153804 188.697115
L 312.881335 194.656795
L 324.608866 200.451435
L 336.336397 205.983627
L 348.063927 211.280686
L 359.791458 216.380569
L 371.518989 221.290559
L 383.24652 225.964511
L 394.974051 230.348249
L 406.701582 234.47456
L 418.429113 238.341737
L 430.156644 241.9188
L 441.884174 245.234521
L 453.611705 248.324496
L 465.339236 251.144091
L 477.066767 253.739298
L 488.794298 256.064725
L 500.521829 258.162752
L 512.24936 260.055369
L 523.97689 261.735497
L 535.704421 263.253598
L 547.431952 264.589134
L 559.159483 265.796535
L 570.887014 266.862394
L 582.614545 267.788618
L 594.342076 268.586606
L 606.069606 269.266902
L 617.797137 269.857372
L 629.524668 270.379306
L 641.252199 270.829238
L 652.97973 271.217713
L 664.707261 271.554672
L 676.434792 271.831681
L 688.162323 272.06797
L 699.889853 272.273529
L 711.617384 272.448913
L 723.344915 272.606071
L 735.072446 272.739378
L 746.799977 272.848936
L 758.527508 272.943382
L 770.255039 273.024872
L 781.982569 273.103652
L 793.7101 273.17008
L 805.437631 273.232842
L 817.165162 273.288827
L 828.892693 273.339539
L 840.620224 273.383573
L 852.347755 273.425498
L 864.075285 273.465315
L 875.802816 273.502219
L 887.530347 273.538521
L 899.257878 273.574723
L 910.985409 273.6053
L 922.71294 273.63618
L 934.440471 273.663092
L 946.168002 273.691712
L 957.895532 273.715813
L 969.623063 273.74152
L 981.350594 273.763763
L 993.078125 273.784299
" style="fill:none;stroke:#e4d354;stroke-linecap:square;"/>
   </g>
   <g id="line2d_14">
    <path clip-path="url(#p522e5fb4bf)" d="M 43.148125 31.48286
L 54.875656 83.710638
L 66.603187 116.376937
L 78.330718 141.590309
L 90.058248 161.593887
L 101.785779 177.98872
L 113.51331 191.700529
L 125.240841 203.313357
L 136.968372 213.255045
L 148.695903 221.848643
L 160.423434 229.267578
L 172.150965 235.760238
L 183.878495 241.34018
L 195.606026 246.162603
L 207.333557 250.317283
L 219.061088 253.849709
L 230.788619 256.946715
L 242.51615 259.57275
L 254.243681 261.829089
L 265.971211 263.728082
L 277.698742 265.325565
L 289.426273 266.707094
L 301.153804 267.878444
L 312.881335 268.83846
L 324.608866 269.669788
L 336.336397 270.347523
L 348.063927 270.900988
L 359.791458 271.350217
L 371.518989 271.718558
L 383.24652 272.006864
L 394.974051 272.239085
L 406.701582 272.436762
L 418.429113 272.606071
L 430.156644 272.759663
L 441.884174 272.881523
L 453.611705 272.985658
L 465.339236 273.069057
L 477.066767 273.140205
L 488.794298 273.200507
L 500.521829 273.255788
L 512.24936 273.307455
L 523.97689 273.352242
L 535.704421 273.39246
L 547.431952 273.428862
L 559.159483 273.462353
L 570.887014 273.493131
L 582.614545 273.51919
L 594.342076 273.543492
L 606.069606 273.566789
L 617.797137 273.586974
L 629.524668 273.608916
L 641.252199 273.629301
L 652.97973 273.649586
L 664.707261 273.666255
L 676.434792 273.682574
L 688.162323 273.694825
L 699.889853 273.708583
L 711.617384 273.722842
L 723.344915 273.735596
L 735.072446 273.745939
L 746.799977 273.754073
L 758.527508 273.760851
L 770.255039 273.767479
L 781.982569 273.774659
L 793.7101 273.780634
L 805.437631 273.784952
L 817.165162 273.788868
L 828.892693 273.792032
L 840.620224 273.794693
L 852.347755 273.797505
L 864.075285 273.800216
L 875.802816 273.803178
L 887.530347 273.80594
L 899.257878 273.808752
L 910.985409 273.811212
L 922.71294 273.813973
L 934.440471 273.816936
L 946.168002 273.819597
L 957.895532 273.821304
L 969.623063 273.822911
L 981.350594 273.824417
L 993.078125 273.826626
" style="fill:none;stroke:#2b908f;stroke-linecap:square;"/>
   </g>
   <g id="line2d_15">
    <path clip-path="url(#p522e5fb4bf)" d="M 43.148125 31.48286
L 54.875656 77.190664
L 66.603187 104.252167
L 78.330718 125.122772
L 90.058248 142.122184
L 101.785779 156.683446
L 113.51331 169.230784
L 125.240841 180.306817
L 136.968372 190.038928
L 148.695903 198.712762
L 160.423434 206.595587
L 172.150965 213.77743
L 183.878495 220.245839
L 195.606026 226.137133
L 207.333557 231.527984
L 219.061088 236.300799
L 230.788619 240.681675
L 242.51615 244.627782
L 254.243681 248.146653
L 265.971211 251.267558
L 277.698742 254.061043
L 289.426273 256.534541
L 301.153804 258.719732
L 312.881335 260.6604
L 324.608866 262.330938
L 336.336397 263.77528
L 348.063927 265.024907
L 359.791458 266.125812
L 371.518989 267.080004
L 383.24652 267.917658
L 394.974051 268.635059
L 406.701582 269.263388
L 418.429113 269.794961
L 430.156644 270.24891
L 441.884174 270.651243
L 453.611705 271.000605
L 465.339236 271.28866
L 477.066767 271.554823
L 488.794298 271.778007
L 500.521829 271.972972
L 512.24936 272.150113
L 523.97689 272.301747
L 535.704421 272.4338
L 547.431952 272.54848
L 559.159483 272.655979
L 570.887014 272.752132
L 582.614545 272.838141
L 594.342076 272.917021
L 606.069606 272.991182
L 617.797137 273.0554
L 629.524668 273.114045
L 641.252199 273.16772
L 652.97973 273.213662
L 664.707261 273.256341
L 676.434792 273.295756
L 688.162323 273.333313
L 699.889853 273.365347
L 711.617384 273.39713
L 723.344915 273.427858
L 735.072446 273.457683
L 746.799977 273.48555
L 758.527508 273.513165
L 770.255039 273.538571
L 781.982569 273.562321
L 793.7101 273.583057
L 805.437631 273.601635
L 817.165162 273.619359
L 828.892693 273.635376
L 840.620224 273.652297
L 852.347755 273.667762
L 864.075285 273.680314
L 875.802816 273.691561
L 887.530347 273.703762
L 899.257878 273.713905
L 910.985409 273.723043
L 922.71294 273.730424
L 934.440471 273.738909
L 946.168002 273.746893
L 957.895532 273.754123
L 969.623063 273.761705
L 981.350594 273.76773
L 993.078125 273.774207
" style="fill:none;stroke:#f45b5b;stroke-linecap:square;"/>
   </g>
   <g id="line2d_16">
    <path clip-path="url(#p522e5fb4bf)" d="M 43.148125 31.48286
L 54.875656 246.763266
L 66.603187 269.683093
L 78.330718 273.00288
L 90.058248 273.646473
L 101.785779 273.795145
L 113.51331 273.852233
L 125.240841 273.904502
L 136.968372 273.935683
L 148.695903 273.952302
L 160.423434 273.964403
L 172.150965 273.971281
L 183.878495 273.978411
L 195.606026 273.981826
L 207.333557 273.984888
L 219.061088 273.985792
L 230.788619 273.986093
L 242.51615 273.986144
L 254.243681 273.986344
L 265.971211 273.986696
L 277.698742 273.987047
L 289.426273 273.988503
L 301.153804 273.988855
L 312.881335 273.99006
L 324.608866 273.99006
L 336.336397 273.99006
L 348.063927 273.99006
L 359.791458 273.99006
L 371.518989 273.99006
L 383.24652 273.99006
L 394.974051 273.99006
L 406.701582 273.99006
L 418.429113 273.99006
L 430.156644 273.99006
L 441.884174 273.99006
L 453.611705 273.99006
L 465.339236 273.99006
L 477.066767 273.99006
L 488.794298 273.99006
L 500.521829 273.99006
L 512.24936 273.99006
L 523.97689 273.99006
L 535.704421 273.99006
L 547.431952 273.99006
L 559.159483 273.99006
L 570.887014 273.99006
L 582.614545 273.99006
L 594.342076 273.99006
L 606.069606 273.99006
L 617.797137 273.99006
L 629.524668 273.99006
L 641.252199 273.99006
L 652.97973 273.99006
L 664.707261 273.99006
L 676.434792 273.99006
L 688.162323 273.99006
L 699.889853 273.99006
L 711.617384 273.99006
L 723.344915 273.99006
L 735.072446 273.99006
L 746.799977 273.99006
L 758.527508 273.99006
L 770.255039 273.99006
L 781.982569 273.99006
L 793.7101 273.99006
L 805.437631 273.99006
L 817.165162 273.99006
L 828.892693 273.99006
L 840.620224 273.99006
L 852.347755 273.99006
L 864.075285 273.99006
L 875.802816 273.99006
L 887.530347 273.99006
L 899.257878 273.99006
L 910.985409 273.99006
L 922.71294 273.99006
L 934.440471 273.99006
L 946.168002 273.99006
L 957.895532 273.99006
L 969.623063 273.99006
L 981.350594 273.99006
L 993.078125 273.99006
" style="fill:none;stroke:#91e8e1;stroke-linecap:square;"/>
   </g>
   <g id="line2d_17">
    <path clip-path="url(#p522e5fb4bf)" d="M 43.148125 31.48286
L 54.875656 160.156926
L 66.603187 210.2083
L 78.330718 235.977346
L 90.058248 250.555077
L 101.785779 259.221029
L 113.51331 264.53556
L 125.240841 267.862929
L 136.968372 269.903967
L 148.695903 271.184675
L 160.423434 272.012889
L 172.150965 272.539492
L 183.878495 272.903465
L 195.606026 273.144071
L 207.333557 273.314283
L 219.061088 273.432879
L 230.788619 273.519341
L 242.51615 273.581401
L 254.243681 273.632916
L 265.971211 273.667862
L 277.698742 273.701352
L 289.426273 273.725302
L 301.153804 273.741018
L 312.881335 273.758592
L 324.608866 273.77481
L 336.336397 273.787914
L 348.063927 273.796952
L 359.791458 273.805789
L 371.518989 273.814074
L 383.24652 273.822509
L 394.974051 273.831446
L 406.701582 273.839279
L 418.429113 273.845304
L 430.156644 273.852133
L 441.884174 273.859062
L 453.611705 273.864535
L 465.339236 273.870259
L 477.066767 273.874225
L 488.794298 273.878443
L 500.521829 273.882259
L 512.24936 273.885724
L 523.97689 273.890493
L 535.704421 273.895464
L 547.431952 273.89918
L 559.159483 273.902443
L 570.887014 273.905607
L 582.614545 273.909121
L 594.342076 273.912636
L 606.069606 273.916151
L 617.797137 273.919163
L 629.524668 273.92303
L 641.252199 273.926695
L 652.97973 273.930611
L 664.707261 273.933724
L 676.434792 273.937641
L 688.162323 273.940302
L 699.889853 273.943666
L 711.617384 273.946729
L 723.344915 273.950143
L 735.072446 273.954913
L 746.799977 273.959532
L 758.527508 273.962093
L 770.255039 273.965055
L 781.982569 273.967465
L 793.7101 273.969574
L 805.437631 273.97098
L 817.165162 273.97324
L 828.892693 273.975248
L 840.620224 273.976503
L 852.347755 273.977759
L 864.075285 273.978763
L 875.802816 273.980169
L 887.530347 273.981022
L 899.257878 273.981675
L 910.985409 273.982579
L 922.71294 273.983382
L 934.440471 273.984386
L 946.168002 273.984989
L 957.895532 273.985491
L 969.623063 273.986093
L 981.350594 273.986194
L 993.078125 273.986294
" style="fill:none;stroke:#7cb5ec;stroke-linecap:square;"/>
   </g>
   <g id="line2d_18">
    <path clip-path="url(#p522e5fb4bf)" d="M 43.148125 31.48286
L 54.875656 80.979865
L 66.603187 109.283012
L 78.330718 131.02205
L 90.058248 148.500114
L 101.785779 162.778442
L 113.51331 174.878107
L 125.240841 185.404391
L 136.968372 194.522132
L 148.695903 202.604893
L 160.423434 209.872495
L 172.150965 216.381122
L 183.878495 222.270659
L 195.606026 227.642078
L 207.333557 232.562562
L 219.061088 237.014133
L 230.788619 241.061112
L 242.51615 244.766011
L 254.243681 248.128527
L 265.971211 251.113413
L 277.698742 253.796085
L 289.426273 256.228862
L 301.153804 258.419375
L 312.881335 260.345432
L 324.608866 262.069243
L 336.336397 263.566506
L 348.063927 264.918562
L 359.791458 266.100959
L 371.518989 267.150549
L 383.24652 268.084807
L 394.974051 268.886411
L 406.701582 269.589853
L 418.429113 270.200809
L 430.156644 270.713755
L 441.884174 271.15731
L 453.611705 271.51817
L 465.339236 271.817823
L 477.066767 272.063099
L 488.794298 272.278299
L 500.521829 272.45057
L 512.24936 272.59874
L 523.97689 272.724867
L 535.704421 272.833873
L 547.431952 272.923599
L 559.159483 272.999265
L 570.887014 273.065091
L 582.614545 273.120673
L 594.342076 273.168875
L 606.069606 273.213863
L 617.797137 273.25373
L 629.524668 273.28958
L 641.252199 273.323622
L 652.97973 273.356309
L 664.707261 273.388745
L 676.434792 273.416209
L 688.162323 273.444779
L 699.889853 273.469432
L 711.617384 273.491424
L 723.344915 273.513416
L 735.072446 273.532747
L 746.799977 273.550722
L 758.527508 273.567643
L 770.255039 273.584664
L 781.982569 273.599225
L 793.7101 273.611075
L 805.437631 273.621418
L 817.165162 273.631209
L 828.892693 273.642155
L 840.620224 273.65064
L 852.347755 273.658875
L 864.075285 273.665452
L 875.802816 273.67203
L 887.530347 273.678607
L 899.257878 273.684231
L 910.985409 273.690055
L 922.71294 273.694524
L 934.440471 273.698541
L 946.168002 273.701202
L 957.895532 273.704164
L 969.623063 273.706775
L 981.350594 273.709537
L 993.078125 273.712599
" style="fill:none;stroke:#434348;stroke-linecap:square;"/>
   </g>
   <g id="line2d_19">
    <path clip-path="url(#p522e5fb4bf)" d="M 43.148125 31.48286
L 54.875656 113.658314
L 66.603187 163.534405
L 78.330718 196.108317
L 90.058248 217.930352
L 101.785779 233.206756
L 113.51331 244.014015
L 125.240841 251.662359
L 136.968372 257.238686
L 148.695903 261.379156
L 160.423434 264.352896
L 172.150965 266.604515
L 183.878495 268.341079
L 195.606026 269.649754
L 207.333557 270.624833
L 219.061088 271.383406
L 230.788619 271.974981
L 242.51615 272.444244
L 254.243681 272.787429
L 265.971211 273.049977
L 277.698742 273.249462
L 289.426273 273.397883
L 301.153804 273.520245
L 312.881335 273.615393
L 324.608866 273.695277
L 336.336397 273.753922
L 348.063927 273.797756
L 359.791458 273.833957
L 371.518989 273.866041
L 383.24652 273.893155
L 394.974051 273.914293
L 406.701582 273.929657
L 418.429113 273.943566
L 430.156644 273.953306
L 441.884174 273.961742
L 453.611705 273.96626
L 465.339236 273.969825
L 477.066767 273.973892
L 488.794298 273.976704
L 500.521829 273.980118
L 512.24936 273.981926
L 523.97689 273.983332
L 535.704421 273.983934
L 547.431952 273.984637
L 559.159483 273.98524
L 570.887014 273.985642
L 582.614545 273.986495
L 594.342076 273.986997
L 606.069606 273.987549
L 617.797137 273.988001
L 629.524668 273.988353
L 641.252199 273.988503
L 652.97973 273.988654
L 664.707261 273.988805
L 676.434792 273.988805
L 688.162323 273.988955
L 699.889853 273.989206
L 711.617384 273.989307
L 723.344915 273.989558
L 735.072446 273.989759
L 746.799977 273.98996
L 758.527508 273.99006
L 770.255039 273.99006
L 781.982569 273.99006
L 793.7101 273.99006
L 805.437631 273.99006
L 817.165162 273.99006
L 828.892693 273.99006
L 840.620224 273.99006
L 852.347755 273.99006
L 864.075285 273.99006
L 875.802816 273.99006
L 887.530347 273.99006
L 899.257878 273.99006
L 910.985409 273.99006
L 922.71294 273.99006
L 934.440471 273.99006
L 946.168002 273.99006
L 957.895532 273.99006
L 969.623063 273.99006
L 981.350594 273.99006
L 993.078125 273.99006
" style="fill:none;stroke:#90ed7d;stroke-linecap:square;"/>
   </g>
   <g id="line2d_20">
    <path clip-path="url(#p522e5fb4bf)" d="M 43.148125 31.48286
L 54.875656 44.491728
L 66.603187 48.046549
L 78.330718 52.346285
L 90.058248 57.373666
L 101.785779 62.579493
L 113.51331 68.087182
L 125.240841 73.752331
L 136.968372 79.478685
L 148.695903 85.167834
L 160.423434 90.893937
L 172.150965 96.605329
L 183.878495 102.258577
L 195.606026 107.808192
L 207.333557 113.284952
L 219.061088 118.692825
L 230.788619 124.046922
L 242.51615 129.312247
L 254.243681 134.505271
L 265.971211 139.67831
L 277.698742 144.732101
L 289.426273 149.710025
L 301.153804 154.567243
L 312.881335 159.321582
L 324.608866 163.996337
L 336.336397 168.549333
L 348.063927 173.011499
L 359.791458 177.383488
L 371.518989 181.660078
L 383.24652 185.862859
L 394.974051 189.92952
L 406.701582 193.877234
L 418.429113 197.758018
L 430.156644 201.50208
L 441.884174 205.177857
L 453.611705 208.77174
L 465.339236 212.220668
L 477.066767 215.569075
L 488.794298 218.811539
L 500.521829 221.970704
L 512.24936 224.987423
L 523.97689 227.922853
L 535.704421 230.768256
L 547.431952 233.511581
L 559.159483 236.147809
L 570.887014 238.702747
L 582.614545 241.137633
L 594.342076 243.450809
L 606.069606 245.673457
L 617.797137 247.803015
L 629.524668 249.836019
L 641.252199 251.729239
L 652.97973 253.544784
L 664.707261 255.249666
L 676.434792 256.861006
L 688.162323 258.373081
L 699.889853 259.761992
L 711.617384 261.05023
L 723.344915 262.252259
L 735.072446 263.373549
L 746.799977 264.405315
L 758.527508 265.341883
L 770.255039 266.204592
L 781.982569 267.010564
L 793.7101 267.73414
L 805.437631 268.386469
L 817.165162 268.979349
L 828.892693 269.527794
L 840.620224 270.021208
L 852.347755 270.448595
L 864.075285 270.835614
L 875.802816 271.181411
L 887.530347 271.491659
L 899.257878 271.75958
L 910.985409 272.000186
L 922.71294 272.212123
L 934.440471 272.39308
L 946.168002 272.548078
L 957.895532 272.684649
L 969.623063 272.805957
L 981.350594 272.913707
L 993.078125 273.008655
" style="fill:none;stroke:#f7a35c;stroke-linecap:square;"/>
   </g>
   <g id="line2d_21">
    <path clip-path="url(#p522e5fb4bf)" d="M 43.148125 31.48286
L 54.875656 260.84457
L 66.603187 273.07689
L 78.330718 273.807998
L 90.058248 273.886878
L 101.785779 273.914946
L 113.51331 273.931013
L 125.240841 273.947733
L 136.968372 273.953808
L 148.695903 273.960938
L 160.423434 273.965658
L 172.150965 273.967415
L 183.878495 273.970076
L 195.606026 273.971934
L 207.333557 273.973139
L 219.061088 273.974746
L 230.788619 273.976553
L 242.51615 273.97821
L 254.243681 273.979315
L 265.971211 273.980369
L 277.698742 273.982478
L 289.426273 273.983583
L 301.153804 273.984487
L 312.881335 273.986696
L 324.608866 273.986897
L 336.336397 273.987198
L 348.063927 273.987851
L 359.791458 273.988654
L 371.518989 273.989006
L 383.24652 273.989106
L 394.974051 273.989156
L 406.701582 273.99006
L 418.429113 273.99006
L 430.156644 273.99006
L 441.884174 273.99006
L 453.611705 273.99006
L 465.339236 273.99006
L 477.066767 273.99006
L 488.794298 273.99006
L 500.521829 273.99006
L 512.24936 273.99006
L 523.97689 273.99006
L 535.704421 273.99006
L 547.431952 273.99006
L 559.159483 273.99006
L 570.887014 273.99006
L 582.614545 273.99006
L 594.342076 273.99006
L 606.069606 273.99006
L 617.797137 273.99006
L 629.524668 273.99006
L 641.252199 273.99006
L 652.97973 273.99006
L 664.707261 273.99006
L 676.434792 273.99006
L 688.162323 273.99006
L 699.889853 273.99006
L 711.617384 273.99006
L 723.344915 273.99006
L 735.072446 273.99006
L 746.799977 273.99006
L 758.527508 273.99006
L 770.255039 273.99006
L 781.982569 273.99006
L 793.7101 273.99006
L 805.437631 273.99006
L 817.165162 273.99006
L 828.892693 273.99006
L 840.620224 273.99006
L 852.347755 273.99006
L 864.075285 273.99006
L 875.802816 273.99006
L 887.530347 273.99006
L 899.257878 273.99006
L 910.985409 273.99006
L 922.71294 273.99006
L 934.440471 273.99006
L 946.168002 273.99006
L 957.895532 273.99006
L 969.623063 273.99006
L 981.350594 273.99006
L 993.078125 273.99006
" style="fill:none;stroke:#8085e9;stroke-linecap:square;"/>
   </g>
   <g id="line2d_22">
    <path clip-path="url(#p522e5fb4bf)" d="M 43.148125 273.99006
L 993.078125 273.99006
" style="fill:none;stroke:#dedede;stroke-linecap:square;stroke-width:2;"/>
   </g>
   <g id="text_18">
    <!-- Qualimap BamQC: Genome fraction covered by at least X reads -->
    <g transform="translate(262.523125 19.3575)scale(0.16 -0.16)">
     <defs>
      <path d="M 39.40625 66.21875
Q 28.65625 66.21875 22.328125 58.203125
Q 16.015625 50.203125 16.015625 36.375
Q 16.015625 22.609375 22.328125 14.59375
Q 28.65625 6.59375 39.40625 6.59375
Q 50.140625 6.59375 56.421875 14.59375
Q 62.703125 22.609375 62.703125 36.375
Q 62.703125 50.203125 56.421875 58.203125
Q 50.140625 66.21875 39.40625 66.21875
z
M 53.21875 1.3125
L 66.21875 -12.890625
L 54.296875 -12.890625
L 43.5 -1.21875
Q 41.890625 -1.3125 41.03125 -1.359375
Q 40.1875 -1.421875 39.40625 -1.421875
Q 24.03125 -1.421875 14.8125 8.859375
Q 5.609375 19.140625 5.609375 36.375
Q 5.609375 53.65625 14.8125 63.9375
Q 24.03125 74.21875 39.40625 74.21875
Q 54.734375 74.21875 63.90625 63.9375
Q 73.09375 53.65625 73.09375 36.375
Q 73.09375 23.6875 67.984375 14.640625
Q 62.890625 5.609375 53.21875 1.3125
z
" id="DejaVuSans-81"/>
      <path d="M 8.5 21.578125
L 8.5 54.6875
L 17.484375 54.6875
L 17.484375 21.921875
Q 17.484375 14.15625 20.5 10.265625
Q 23.53125 6.390625 29.59375 6.390625
Q 36.859375 6.390625 41.078125 11.03125
Q 45.3125 15.671875 45.3125 23.6875
L 45.3125 54.6875
L 54.296875 54.6875
L 54.296875 0
L 45.3125 0
L 45.3125 8.40625
Q 42.046875 3.421875 37.71875 1
Q 33.40625 -1.421875 27.6875 -1.421875
Q 18.265625 -1.421875 13.375 4.4375
Q 8.5 10.296875 8.5 21.578125
z
M 31.109375 56
z
" id="DejaVuSans-117"/>
      <path d="M 9.421875 75.984375
L 18.40625 75.984375
L 18.40625 0
L 9.421875 0
z
" id="DejaVuSans-108"/>
      <path d="M 52 44.1875
Q 55.375 50.25 60.0625 53.125
Q 64.75 56 71.09375 56
Q 79.640625 56 84.28125 50.015625
Q 88.921875 44.046875 88.921875 33.015625
L 88.921875 0
L 79.890625 0
L 79.890625 32.71875
Q 79.890625 40.578125 77.09375 44.375
Q 74.3125 48.1875 68.609375 48.1875
Q 61.625 48.1875 57.5625 43.546875
Q 53.515625 38.921875 53.515625 30.90625
L 53.515625 0
L 44.484375 0
L 44.484375 32.71875
Q 44.484375 40.625 41.703125 44.40625
Q 38.921875 48.1875 33.109375 48.1875
Q 26.21875 48.1875 22.15625 43.53125
Q 18.109375 38.875 18.109375 30.90625
L 18.109375 0
L 9.078125 0
L 9.078125 54.6875
L 18.109375 54.6875
L 18.109375 46.1875
Q 21.1875 51.21875 25.484375 53.609375
Q 29.78125 56 35.6875 56
Q 41.65625 56 45.828125 52.96875
Q 50 49.953125 52 44.1875
z
" id="DejaVuSans-109"/>
      <path d="M 18.109375 8.203125
L 18.109375 -20.796875
L 9.078125 -20.796875
L 9.078125 54.6875
L 18.109375 54.6875
L 18.109375 46.390625
Q 20.953125 51.265625 25.265625 53.625
Q 29.59375 56 35.59375 56
Q 45.5625 56 51.78125 48.09375
Q 58.015625 40.1875 58.015625 27.296875
Q 58.015625 14.40625 51.78125 6.484375
Q 45.5625 -1.421875 35.59375 -1.421875
Q 29.59375 -1.421875 25.265625 0.953125
Q 20.953125 3.328125 18.109375 8.203125
z
M 48.6875 27.296875
Q 48.6875 37.203125 44.609375 42.84375
Q 40.53125 48.484375 33.40625 48.484375
Q 26.265625 48.484375 22.1875 42.84375
Q 18.109375 37.203125 18.109375 27.296875
Q 18.109375 17.390625 22.1875 11.75
Q 26.265625 6.109375 33.40625 6.109375
Q 40.53125 6.109375 44.609375 11.75
Q 48.6875 17.390625 48.6875 27.296875
z
" id="DejaVuSans-112"/>
      <path d="M 19.671875 34.8125
L 19.671875 8.109375
L 35.5 8.109375
Q 43.453125 8.109375 47.28125 11.40625
Q 51.125 14.703125 51.125 21.484375
Q 51.125 28.328125 47.28125 31.5625
Q 43.453125 34.8125 35.5 34.8125
z
M 19.671875 64.796875
L 19.671875 42.828125
L 34.28125 42.828125
Q 41.5 42.828125 45.03125 45.53125
Q 48.578125 48.25 48.578125 53.8125
Q 48.578125 59.328125 45.03125 62.0625
Q 41.5 64.796875 34.28125 64.796875
z
M 9.8125 72.90625
L 35.015625 72.90625
Q 46.296875 72.90625 52.390625 68.21875
Q 58.5 63.53125 58.5 54.890625
Q 58.5 48.1875 55.375 44.234375
Q 52.25 40.28125 46.1875 39.3125
Q 53.46875 37.75 57.5 32.78125
Q 61.53125 27.828125 61.53125 20.40625
Q 61.53125 10.640625 54.890625 5.3125
Q 48.25 0 35.984375 0
L 9.8125 0
z
" id="DejaVuSans-66"/>
      <path d="M 11.71875 12.40625
L 22.015625 12.40625
L 22.015625 0
L 11.71875 0
z
M 11.71875 51.703125
L 22.015625 51.703125
L 22.015625 39.3125
L 11.71875 39.3125
z
" id="DejaVuSans-58"/>
      <path d="M 59.515625 10.40625
L 59.515625 29.984375
L 43.40625 29.984375
L 43.40625 38.09375
L 69.28125 38.09375
L 69.28125 6.78125
Q 63.578125 2.734375 56.6875 0.65625
Q 49.8125 -1.421875 42 -1.421875
Q 24.90625 -1.421875 15.25 8.5625
Q 5.609375 18.5625 5.609375 36.375
Q 5.609375 54.25 15.25 64.234375
Q 24.90625 74.21875 42 74.21875
Q 49.125 74.21875 55.546875 72.453125
Q 61.96875 70.703125 67.390625 67.28125
L 67.390625 56.78125
Q 61.921875 61.421875 55.765625 63.765625
Q 49.609375 66.109375 42.828125 66.109375
Q 29.4375 66.109375 22.71875 58.640625
Q 16.015625 51.171875 16.015625 36.375
Q 16.015625 21.625 22.71875 14.15625
Q 29.4375 6.6875 42.828125 6.6875
Q 48.046875 6.6875 52.140625 7.59375
Q 56.25 8.5 59.515625 10.40625
z
" id="DejaVuSans-71"/>
      <path d="M 45.40625 46.390625
L 45.40625 75.984375
L 54.390625 75.984375
L 54.390625 0
L 45.40625 0
L 45.40625 8.203125
Q 42.578125 3.328125 38.25 0.953125
Q 33.9375 -1.421875 27.875 -1.421875
Q 17.96875 -1.421875 11.734375 6.484375
Q 5.515625 14.40625 5.515625 27.296875
Q 5.515625 40.1875 11.734375 48.09375
Q 17.96875 56 27.875 56
Q 33.9375 56 38.25 53.625
Q 42.578125 51.265625 45.40625 46.390625
z
M 14.796875 27.296875
Q 14.796875 17.390625 18.875 11.75
Q 22.953125 6.109375 30.078125 6.109375
Q 37.203125 6.109375 41.296875 11.75
Q 45.40625 17.390625 45.40625 27.296875
Q 45.40625 37.203125 41.296875 42.84375
Q 37.203125 48.484375 30.078125 48.484375
Q 22.953125 48.484375 18.875 42.84375
Q 14.796875 37.203125 14.796875 27.296875
z
" id="DejaVuSans-100"/>
      <path d="M 48.6875 27.296875
Q 48.6875 37.203125 44.609375 42.84375
Q 40.53125 48.484375 33.40625 48.484375
Q 26.265625 48.484375 22.1875 42.84375
Q 18.109375 37.203125 18.109375 27.296875
Q 18.109375 17.390625 22.1875 11.75
Q 26.265625 6.109375 33.40625 6.109375
Q 40.53125 6.109375 44.609375 11.75
Q 48.6875 17.390625 48.6875 27.296875
z
M 18.109375 46.390625
Q 20.953125 51.265625 25.265625 53.625
Q 29.59375 56 35.59375 56
Q 45.5625 56 51.78125 48.09375
Q 58.015625 40.1875 58.015625 27.296875
Q 58.015625 14.40625 51.78125 6.484375
Q 45.5625 -1.421875 35.59375 -1.421875
Q 29.59375 -1.421875 25.265625 0.953125
Q 20.953125 3.328125 18.109375 8.203125
L 18.109375 0
L 9.078125 0
L 9.078125 75.984375
L 18.109375 75.984375
z
" id="DejaVuSans-98"/>
      <path d="M 32.171875 -5.078125
Q 28.375 -14.84375 24.75 -17.8125
Q 21.140625 -20.796875 15.09375 -20.796875
L 7.90625 -20.796875
L 7.90625 -13.28125
L 13.1875 -13.28125
Q 16.890625 -13.28125 18.9375 -11.515625
Q 21 -9.765625 23.484375 -3.21875
L 25.09375 0.875
L 2.984375 54.6875
L 12.5 54.6875
L 29.59375 11.921875
L 46.6875 54.6875
L 56.203125 54.6875
z
" id="DejaVuSans-121"/>
      <path d="M 44.28125 53.078125
L 44.28125 44.578125
Q 40.484375 46.53125 36.375 47.5
Q 32.28125 48.484375 27.875 48.484375
Q 21.1875 48.484375 17.84375 46.4375
Q 14.5 44.390625 14.5 40.28125
Q 14.5 37.15625 16.890625 35.375
Q 19.28125 33.59375 26.515625 31.984375
L 29.59375 31.296875
Q 39.15625 29.25 43.1875 25.515625
Q 47.21875 21.78125 47.21875 15.09375
Q 47.21875 7.46875 41.1875 3.015625
Q 35.15625 -1.421875 24.609375 -1.421875
Q 20.21875 -1.421875 15.453125 -0.5625
Q 10.6875 0.296875 5.421875 2
L 5.421875 11.28125
Q 10.40625 8.6875 15.234375 7.390625
Q 20.0625 6.109375 24.8125 6.109375
Q 31.15625 6.109375 34.5625 8.28125
Q 37.984375 10.453125 37.984375 14.40625
Q 37.984375 18.0625 35.515625 20.015625
Q 33.0625 21.96875 24.703125 23.78125
L 21.578125 24.515625
Q 13.234375 26.265625 9.515625 29.90625
Q 5.8125 33.546875 5.8125 39.890625
Q 5.8125 47.609375 11.28125 51.796875
Q 16.75 56 26.8125 56
Q 31.78125 56 36.171875 55.265625
Q 40.578125 54.546875 44.28125 53.078125
z
" id="DejaVuSans-115"/>
     </defs>
     <use xlink:href="#DejaVuSans-81"/>
     <use x="78.710938" xlink:href="#DejaVuSans-117"/>
     <use x="142.089844" xlink:href="#DejaVuSans-97"/>
     <use x="203.369141" xlink:href="#DejaVuSans-108"/>
     <use x="231.152344" xlink:href="#DejaVuSans-105"/>
     <use x="258.935547" xlink:href="#DejaVuSans-109"/>
     <use x="356.347656" xlink:href="#DejaVuSans-97"/>
     <use x="417.626953" xlink:href="#DejaVuSans-112"/>
     <use x="481.103516" xlink:href="#DejaVuSans-32"/>
     <use x="512.890625" xlink:href="#DejaVuSans-66"/>
     <use x="581.494141" xlink:href="#DejaVuSans-97"/>
     <use x="642.773438" xlink:href="#DejaVuSans-109"/>
     <use x="740.185547" xlink:href="#DejaVuSans-81"/>
     <use x="818.896484" xlink:href="#DejaVuSans-67"/>
     <use x="888.720703" xlink:href="#DejaVuSans-58"/>
     <use x="922.412109" xlink:href="#DejaVuSans-32"/>
     <use x="954.199219" xlink:href="#DejaVuSans-71"/>
     <use x="1031.689453" xlink:href="#DejaVuSans-101"/>
     <use x="1093.212891" xlink:href="#DejaVuSans-110"/>
     <use x="1156.591797" xlink:href="#DejaVuSans-111"/>
     <use x="1217.773438" xlink:href="#DejaVuSans-109"/>
     <use x="1315.185547" xlink:href="#DejaVuSans-101"/>
     <use x="1376.708984" xlink:href="#DejaVuSans-32"/>
     <use x="1408.496094" xlink:href="#DejaVuSans-102"/>
     <use x="1443.701172" xlink:href="#DejaVuSans-114"/>
     <use x="1484.814453" xlink:href="#DejaVuSans-97"/>
     <use x="1546.09375" xlink:href="#DejaVuSans-99"/>
     <use x="1601.074219" xlink:href="#DejaVuSans-116"/>
     <use x="1640.283203" xlink:href="#DejaVuSans-105"/>
     <use x="1668.066406" xlink:href="#DejaVuSans-111"/>
     <use x="1729.248047" xlink:href="#DejaVuSans-110"/>
     <use x="1792.626953" xlink:href="#DejaVuSans-32"/>
     <use x="1824.414062" xlink:href="#DejaVuSans-99"/>
     <use x="1879.394531" xlink:href="#DejaVuSans-111"/>
     <use x="1940.576172" xlink:href="#DejaVuSans-118"/>
     <use x="1999.755859" xlink:href="#DejaVuSans-101"/>
     <use x="2061.279297" xlink:href="#DejaVuSans-114"/>
     <use x="2100.142578" xlink:href="#DejaVuSans-101"/>
     <use x="2161.666016" xlink:href="#DejaVuSans-100"/>
     <use x="2225.142578" xlink:href="#DejaVuSans-32"/>
     <use x="2256.929688" xlink:href="#DejaVuSans-98"/>
     <use x="2320.40625" xlink:href="#DejaVuSans-121"/>
     <use x="2379.585938" xlink:href="#DejaVuSans-32"/>
     <use x="2411.373047" xlink:href="#DejaVuSans-97"/>
     <use x="2472.652344" xlink:href="#DejaVuSans-116"/>
     <use x="2511.861328" xlink:href="#DejaVuSans-32"/>
     <use x="2543.648438" xlink:href="#DejaVuSans-108"/>
     <use x="2571.431641" xlink:href="#DejaVuSans-101"/>
     <use x="2632.955078" xlink:href="#DejaVuSans-97"/>
     <use x="2694.234375" xlink:href="#DejaVuSans-115"/>
     <use x="2746.333984" xlink:href="#DejaVuSans-116"/>
     <use x="2785.542969" xlink:href="#DejaVuSans-32"/>
     <use x="2817.330078" xlink:href="#DejaVuSans-88"/>
     <use x="2885.835938" xlink:href="#DejaVuSans-32"/>
     <use x="2917.623047" xlink:href="#DejaVuSans-114"/>
     <use x="2956.486328" xlink:href="#DejaVuSans-101"/>
     <use x="3018.009766" xlink:href="#DejaVuSans-97"/>
     <use x="3079.289062" xlink:href="#DejaVuSans-100"/>
     <use x="3142.765625" xlink:href="#DejaVuSans-115"/>
    </g>
   </g>
   <g id="legend_1">
    <g id="line2d_23">
     <path d="M 50.348125 292.192894
L 66.348125 292.192894
" style="fill:none;stroke:#7cb5ec;stroke-linecap:square;"/>
    </g>
    <g id="line2d_24"/>
    <g id="text_19">
     <!-- D24 -->
     <g transform="translate(72.748125 294.992894)scale(0.08 -0.08)">
      <defs>
       <path d="M 19.671875 64.796875
L 19.671875 8.109375
L 31.59375 8.109375
Q 46.6875 8.109375 53.6875 14.9375
Q 60.6875 21.78125 60.6875 36.53125
Q 60.6875 51.171875 53.6875 57.984375
Q 46.6875 64.796875 31.59375 64.796875
z
M 9.8125 72.90625
L 30.078125 72.90625
Q 51.265625 72.90625 61.171875 64.09375
Q 71.09375 55.28125 71.09375 36.53125
Q 71.09375 17.671875 61.125 8.828125
Q 51.171875 0 30.078125 0
L 9.8125 0
z
" id="DejaVuSans-68"/>
      </defs>
      <use xlink:href="#DejaVuSans-68"/>
      <use x="77.001953" xlink:href="#DejaVuSans-50"/>
      <use x="140.625" xlink:href="#DejaVuSans-52"/>
     </g>
    </g>
    <g id="line2d_25">
     <path d="M 50.348125 303.935394
L 66.348125 303.935394
" style="fill:none;stroke:#434348;stroke-linecap:square;"/>
    </g>
    <g id="line2d_26"/>
    <g id="text_20">
     <!-- D25 -->
     <g transform="translate(72.748125 306.735394)scale(0.08 -0.08)">
      <use xlink:href="#DejaVuSans-68"/>
      <use x="77.001953" xlink:href="#DejaVuSans-50"/>
      <use x="140.625" xlink:href="#DejaVuSans-53"/>
     </g>
    </g>
    <g id="line2d_27">
     <path d="M 50.348125 315.677894
L 66.348125 315.677894
" style="fill:none;stroke:#90ed7d;stroke-linecap:square;"/>
    </g>
    <g id="line2d_28"/>
    <g id="text_21">
     <!-- D51 -->
     <g transform="translate(72.748125 318.477894)scale(0.08 -0.08)">
      <use xlink:href="#DejaVuSans-68"/>
      <use x="77.001953" xlink:href="#DejaVuSans-53"/>
      <use x="140.625" xlink:href="#DejaVuSans-49"/>
     </g>
    </g>
    <g id="line2d_29">
     <path d="M 272.819062 292.192894
L 288.819062 292.192894
" style="fill:none;stroke:#f7a35c;stroke-linecap:square;"/>
    </g>
    <g id="line2d_30"/>
    <g id="text_22">
     <!-- D62 -->
     <g transform="translate(295.219062 294.992894)scale(0.08 -0.08)">
      <use xlink:href="#DejaVuSans-68"/>
      <use x="77.001953" xlink:href="#DejaVuSans-54"/>
      <use x="140.625" xlink:href="#DejaVuSans-50"/>
     </g>
    </g>
    <g id="line2d_31">
     <path d="M 272.819062 303.935394
L 288.819062 303.935394
" style="fill:none;stroke:#8085e9;stroke-linecap:square;"/>
    </g>
    <g id="line2d_32"/>
    <g id="text_23">
     <!-- D71 -->
     <g transform="translate(295.219062 306.735394)scale(0.08 -0.08)">
      <use xlink:href="#DejaVuSans-68"/>
      <use x="77.001953" xlink:href="#DejaVuSans-55"/>
      <use x="140.625" xlink:href="#DejaVuSans-49"/>
     </g>
    </g>
    <g id="line2d_33">
     <path d="M 272.819062 315.677894
L 288.819062 315.677894
" style="fill:none;stroke:#f15c80;stroke-linecap:square;"/>
    </g>
    <g id="line2d_34"/>
    <g id="text_24">
     <!-- D72 -->
     <g transform="translate(295.219062 318.477894)scale(0.08 -0.08)">
      <use xlink:href="#DejaVuSans-68"/>
      <use x="77.001953" xlink:href="#DejaVuSans-55"/>
      <use x="140.625" xlink:href="#DejaVuSans-50"/>
     </g>
    </g>
    <g id="line2d_35">
     <path d="M 495.29 292.192894
L 511.29 292.192894
" style="fill:none;stroke:#e4d354;stroke-linecap:square;"/>
    </g>
    <g id="line2d_36"/>
    <g id="text_25">
     <!-- D75 -->
     <g transform="translate(517.69 294.992894)scale(0.08 -0.08)">
      <use xlink:href="#DejaVuSans-68"/>
      <use x="77.001953" xlink:href="#DejaVuSans-55"/>
      <use x="140.625" xlink:href="#DejaVuSans-53"/>
     </g>
    </g>
    <g id="line2d_37">
     <path d="M 495.29 303.935394
L 511.29 303.935394
" style="fill:none;stroke:#2b908f;stroke-linecap:square;"/>
    </g>
    <g id="line2d_38"/>
    <g id="text_26">
     <!-- P187 -->
     <g transform="translate(517.69 306.735394)scale(0.08 -0.08)">
      <defs>
       <path d="M 19.671875 64.796875
L 19.671875 37.40625
L 32.078125 37.40625
Q 38.96875 37.40625 42.71875 40.96875
Q 46.484375 44.53125 46.484375 51.125
Q 46.484375 57.671875 42.71875 61.234375
Q 38.96875 64.796875 32.078125 64.796875
z
M 9.8125 72.90625
L 32.078125 72.90625
Q 44.34375 72.90625 50.609375 67.359375
Q 56.890625 61.8125 56.890625 51.125
Q 56.890625 40.328125 50.609375 34.8125
Q 44.34375 29.296875 32.078125 29.296875
L 19.671875 29.296875
L 19.671875 0
L 9.8125 0
z
" id="DejaVuSans-80"/>
      </defs>
      <use xlink:href="#DejaVuSans-80"/>
      <use x="60.302734" xlink:href="#DejaVuSans-49"/>
      <use x="123.925781" xlink:href="#DejaVuSans-56"/>
      <use x="187.548828" xlink:href="#DejaVuSans-55"/>
     </g>
    </g>
    <g id="line2d_39">
     <path d="M 495.29 315.677894
L 511.29 315.677894
" style="fill:none;stroke:#f45b5b;stroke-linecap:square;"/>
    </g>
    <g id="line2d_40"/>
    <g id="text_27">
     <!-- P212 -->
     <g transform="translate(517.69 318.477894)scale(0.08 -0.08)">
      <use xlink:href="#DejaVuSans-80"/>
      <use x="60.302734" xlink:href="#DejaVuSans-50"/>
      <use x="123.925781" xlink:href="#DejaVuSans-49"/>
      <use x="187.548828" xlink:href="#DejaVuSans-50"/>
     </g>
    </g>
    <g id="line2d_41">
     <path d="M 721.514687 292.192894
L 737.514687 292.192894
" style="fill:none;stroke:#91e8e1;stroke-linecap:square;"/>
    </g>
    <g id="line2d_42"/>
    <g id="text_28">
     <!-- P246 -->
     <g transform="translate(743.914687 294.992894)scale(0.08 -0.08)">
      <use xlink:href="#DejaVuSans-80"/>
      <use x="60.302734" xlink:href="#DejaVuSans-50"/>
      <use x="123.925781" xlink:href="#DejaVuSans-52"/>
      <use x="187.548828" xlink:href="#DejaVuSans-54"/>
     </g>
    </g>
    <g id="line2d_43">
     <path d="M 721.514687 303.935394
L 737.514687 303.935394
" style="fill:none;stroke:#7cb5ec;stroke-linecap:square;"/>
    </g>
    <g id="line2d_44"/>
    <g id="text_29">
     <!-- P384 -->
     <g transform="translate(743.914687 306.735394)scale(0.08 -0.08)">
      <use xlink:href="#DejaVuSans-80"/>
      <use x="60.302734" xlink:href="#DejaVuSans-51"/>
      <use x="123.925781" xlink:href="#DejaVuSans-56"/>
      <use x="187.548828" xlink:href="#DejaVuSans-52"/>
     </g>
    </g>
    <g id="line2d_45">
     <path d="M 721.514687 315.677894
L 737.514687 315.677894
" style="fill:none;stroke:#434348;stroke-linecap:square;"/>
    </g>
    <g id="line2d_46"/>
    <g id="text_30">
     <!-- P387 -->
     <g transform="translate(743.914687 318.477894)scale(0.08 -0.08)">
      <use xlink:href="#DejaVuSans-80"/>
      <use x="60.302734" xlink:href="#DejaVuSans-51"/>
      <use x="123.925781" xlink:href="#DejaVuSans-56"/>
      <use x="187.548828" xlink:href="#DejaVuSans-55"/>
     </g>
    </g>
    <g id="line2d_47">
     <path d="M 947.739375 292.192894
L 963.739375 292.192894
" style="fill:none;stroke:#90ed7d;stroke-linecap:square;"/>
    </g>
    <g id="line2d_48"/>
    <g id="text_31">
     <!-- R21 -->
     <g transform="translate(970.139375 294.992894)scale(0.08 -0.08)">
      <defs>
       <path d="M 44.390625 34.1875
Q 47.5625 33.109375 50.5625 29.59375
Q 53.5625 26.078125 56.59375 19.921875
L 66.609375 0
L 56 0
L 46.6875 18.703125
Q 43.0625 26.03125 39.671875 28.421875
Q 36.28125 30.8125 30.421875 30.8125
L 19.671875 30.8125
L 19.671875 0
L 9.8125 0
L 9.8125 72.90625
L 32.078125 72.90625
Q 44.578125 72.90625 50.734375 67.671875
Q 56.890625 62.453125 56.890625 51.90625
Q 56.890625 45.015625 53.6875 40.46875
Q 50.484375 35.9375 44.390625 34.1875
z
M 19.671875 64.796875
L 19.671875 38.921875
L 32.078125 38.921875
Q 39.203125 38.921875 42.84375 42.21875
Q 46.484375 45.515625 46.484375 51.90625
Q 46.484375 58.296875 42.84375 61.546875
Q 39.203125 64.796875 32.078125 64.796875
z
" id="DejaVuSans-82"/>
      </defs>
      <use xlink:href="#DejaVuSans-82"/>
      <use x="69.482422" xlink:href="#DejaVuSans-50"/>
      <use x="133.105469" xlink:href="#DejaVuSans-49"/>
     </g>
    </g>
    <g id="line2d_49">
     <path d="M 947.739375 303.935394
L 963.739375 303.935394
" style="fill:none;stroke:#f7a35c;stroke-linecap:square;"/>
    </g>
    <g id="line2d_50"/>
    <g id="text_32">
     <!-- R36 -->
     <g transform="translate(970.139375 306.735394)scale(0.08 -0.08)">
      <use xlink:href="#DejaVuSans-82"/>
      <use x="69.482422" xlink:href="#DejaVuSans-51"/>
      <use x="133.105469" xlink:href="#DejaVuSans-54"/>
     </g>
    </g>
    <g id="line2d_51">
     <path d="M 947.739375 315.677894
L 963.739375 315.677894
" style="fill:none;stroke:#8085e9;stroke-linecap:square;"/>
    </g>
    <g id="line2d_52"/>
    <g id="text_33">
     <!-- R44 -->
     <g transform="translate(970.139375 318.477894)scale(0.08 -0.08)">
      <use xlink:href="#DejaVuSans-82"/>
      <use x="69.482422" xlink:href="#DejaVuSans-52"/>
      <use x="133.105469" xlink:href="#DejaVuSans-52"/>
     </g>
    </g>
   </g>
  </g>
 </g>
 <defs>
  <clipPath id="p522e5fb4bf">
   <rect height="242.5072" width="949.93" x="43.148125" y="31.48286"/>
  </clipPath>
 </defs>
</svg>
