<?xml version="1.0" encoding="utf-8" standalone="no"?>
<!DOCTYPE svg PUBLIC "-//W3C//DTD SVG 1.1//EN"
  "http://www.w3.org/Graphics/SVG/1.1/DTD/svg11.dtd">
<!-- Created with matplotlib (https://matplotlib.org/) -->
<svg height="330.541644pt" version="1.1" viewBox="0 0 1000.240625 330.541644" width="1000.240625pt" xmlns="http://www.w3.org/2000/svg" xmlns:xlink="http://www.w3.org/1999/xlink">
 <metadata>
  <rdf:RDF xmlns:cc="http://creativecommons.org/ns#" xmlns:dc="http://purl.org/dc/elements/1.1/" xmlns:rdf="http://www.w3.org/1999/02/22-rdf-syntax-ns#">
   <cc:Work>
    <dc:type rdf:resource="http://purl.org/dc/dcmitype/StillImage"/>
    <dc:date>2021-03-05T10:28:57.451680</dc:date>
    <dc:format>image/svg+xml</dc:format>
    <dc:creator>
     <cc:Agent>
      <dc:title>Matplotlib v3.3.2, https://matplotlib.org/</dc:title>
     </cc:Agent>
    </dc:creator>
   </cc:Work>
  </rdf:RDF>
 </metadata>
 <defs>
  <style type="text/css">*{stroke-linecap:butt;stroke-linejoin:round;}</style>
 </defs>
 <g id="figure_1">
  <g id="axes_1">
   <g id="patch_1">
    <path d="M 45.690625 273.99006
L 985.405625 273.99006
L 985.405625 31.48286
L 45.690625 31.48286
z
" style="fill:#ffffff;"/>
   </g>
   <g id="matplotlib.axis_1">
    <g id="xtick_1">
     <g id="text_1">
      <!-- 0 -->
      <g transform="translate(43.145625 287.06881)scale(0.08 -0.08)">
       <defs>
        <path d="M 31.78125 66.40625
Q 24.171875 66.40625 20.328125 58.90625
Q 16.5 51.421875 16.5 36.375
Q 16.5 21.390625 20.328125 13.890625
Q 24.171875 6.390625 31.78125 6.390625
Q 39.453125 6.390625 43.28125 13.890625
Q 47.125 21.390625 47.125 36.375
Q 47.125 51.421875 43.28125 58.90625
Q 39.453125 66.40625 31.78125 66.40625
z
M 31.78125 74.21875
Q 44.046875 74.21875 50.515625 64.515625
Q 56.984375 54.828125 56.984375 36.375
Q 56.984375 17.96875 50.515625 8.265625
Q 44.046875 -1.421875 31.78125 -1.421875
Q 19.53125 -1.421875 13.0625 8.265625
Q 6.59375 17.96875 6.59375 36.375
Q 6.59375 54.828125 13.0625 64.515625
Q 19.53125 74.21875 31.78125 74.21875
z
" id="DejaVuSans-48"/>
       </defs>
       <use xlink:href="#DejaVuSans-48"/>
      </g>
     </g>
    </g>
    <g id="xtick_2">
     <g id="text_2">
      <!-- 20 -->
      <g transform="translate(228.543625 287.06881)scale(0.08 -0.08)">
       <defs>
        <path d="M 19.1875 8.296875
L 53.609375 8.296875
L 53.609375 0
L 7.328125 0
L 7.328125 8.296875
Q 12.9375 14.109375 22.625 23.890625
Q 32.328125 33.6875 34.8125 36.53125
Q 39.546875 41.84375 41.421875 45.53125
Q 43.3125 49.21875 43.3125 52.78125
Q 43.3125 58.59375 39.234375 62.25
Q 35.15625 65.921875 28.609375 65.921875
Q 23.96875 65.921875 18.8125 64.3125
Q 13.671875 62.703125 7.8125 59.421875
L 7.8125 69.390625
Q 13.765625 71.78125 18.9375 73
Q 24.125 74.21875 28.421875 74.21875
Q 39.75 74.21875 46.484375 68.546875
Q 53.21875 62.890625 53.21875 53.421875
Q 53.21875 48.921875 51.53125 44.890625
Q 49.859375 40.875 45.40625 35.40625
Q 44.1875 33.984375 37.640625 27.21875
Q 31.109375 20.453125 19.1875 8.296875
z
" id="DejaVuSans-50"/>
       </defs>
       <use xlink:href="#DejaVuSans-50"/>
       <use x="63.623047" xlink:href="#DejaVuSans-48"/>
      </g>
     </g>
    </g>
    <g id="xtick_3">
     <g id="text_3">
      <!-- 40 -->
      <g transform="translate(416.486625 287.06881)scale(0.08 -0.08)">
       <defs>
        <path d="M 37.796875 64.3125
L 12.890625 25.390625
L 37.796875 25.390625
z
M 35.203125 72.90625
L 47.609375 72.90625
L 47.609375 25.390625
L 58.015625 25.390625
L 58.015625 17.1875
L 47.609375 17.1875
L 47.609375 0
L 37.796875 0
L 37.796875 17.1875
L 4.890625 17.1875
L 4.890625 26.703125
z
" id="DejaVuSans-52"/>
       </defs>
       <use xlink:href="#DejaVuSans-52"/>
       <use x="63.623047" xlink:href="#DejaVuSans-48"/>
      </g>
     </g>
    </g>
    <g id="xtick_4">
     <g id="text_4">
      <!-- 60 -->
      <g transform="translate(604.429625 287.06881)scale(0.08 -0.08)">
       <defs>
        <path d="M 33.015625 40.375
Q 26.375 40.375 22.484375 35.828125
Q 18.609375 31.296875 18.609375 23.390625
Q 18.609375 15.53125 22.484375 10.953125
Q 26.375 6.390625 33.015625 6.390625
Q 39.65625 6.390625 43.53125 10.953125
Q 47.40625 15.53125 47.40625 23.390625
Q 47.40625 31.296875 43.53125 35.828125
Q 39.65625 40.375 33.015625 40.375
z
M 52.59375 71.296875
L 52.59375 62.3125
Q 48.875 64.0625 45.09375 64.984375
Q 41.3125 65.921875 37.59375 65.921875
Q 27.828125 65.921875 22.671875 59.328125
Q 17.53125 52.734375 16.796875 39.40625
Q 19.671875 43.65625 24.015625 45.921875
Q 28.375 48.1875 33.59375 48.1875
Q 44.578125 48.1875 50.953125 41.515625
Q 57.328125 34.859375 57.328125 23.390625
Q 57.328125 12.15625 50.6875 5.359375
Q 44.046875 -1.421875 33.015625 -1.421875
Q 20.359375 -1.421875 13.671875 8.265625
Q 6.984375 17.96875 6.984375 36.375
Q 6.984375 53.65625 15.1875 63.9375
Q 23.390625 74.21875 37.203125 74.21875
Q 40.921875 74.21875 44.703125 73.484375
Q 48.484375 72.75 52.59375 71.296875
z
" id="DejaVuSans-54"/>
       </defs>
       <use xlink:href="#DejaVuSans-54"/>
       <use x="63.623047" xlink:href="#DejaVuSans-48"/>
      </g>
     </g>
    </g>
    <g id="xtick_5">
     <g id="text_5">
      <!-- 80 -->
      <g transform="translate(792.372625 287.06881)scale(0.08 -0.08)">
       <defs>
        <path d="M 31.78125 34.625
Q 24.75 34.625 20.71875 30.859375
Q 16.703125 27.09375 16.703125 20.515625
Q 16.703125 13.921875 20.71875 10.15625
Q 24.75 6.390625 31.78125 6.390625
Q 38.8125 6.390625 42.859375 10.171875
Q 46.921875 13.96875 46.921875 20.515625
Q 46.921875 27.09375 42.890625 30.859375
Q 38.875 34.625 31.78125 34.625
z
M 21.921875 38.8125
Q 15.578125 40.375 12.03125 44.71875
Q 8.5 49.078125 8.5 55.328125
Q 8.5 64.0625 14.71875 69.140625
Q 20.953125 74.21875 31.78125 74.21875
Q 42.671875 74.21875 48.875 69.140625
Q 55.078125 64.0625 55.078125 55.328125
Q 55.078125 49.078125 51.53125 44.71875
Q 48 40.375 41.703125 38.8125
Q 48.828125 37.15625 52.796875 32.3125
Q 56.78125 27.484375 56.78125 20.515625
Q 56.78125 9.90625 50.3125 4.234375
Q 43.84375 -1.421875 31.78125 -1.421875
Q 19.734375 -1.421875 13.25 4.234375
Q 6.78125 9.90625 6.78125 20.515625
Q 6.78125 27.484375 10.78125 32.3125
Q 14.796875 37.15625 21.921875 38.8125
z
M 18.3125 54.390625
Q 18.3125 48.734375 21.84375 45.5625
Q 25.390625 42.390625 31.78125 42.390625
Q 38.140625 42.390625 41.71875 45.5625
Q 45.3125 48.734375 45.3125 54.390625
Q 45.3125 60.0625 41.71875 63.234375
Q 38.140625 66.40625 31.78125 66.40625
Q 25.390625 66.40625 21.84375 63.234375
Q 18.3125 60.0625 18.3125 54.390625
z
" id="DejaVuSans-56"/>
       </defs>
       <use xlink:href="#DejaVuSans-56"/>
       <use x="63.623047" xlink:href="#DejaVuSans-48"/>
      </g>
     </g>
    </g>
    <g id="xtick_6">
     <g id="text_6">
      <!-- 100 -->
      <g transform="translate(977.770625 287.06881)scale(0.08 -0.08)">
       <defs>
        <path d="M 12.40625 8.296875
L 28.515625 8.296875
L 28.515625 63.921875
L 10.984375 60.40625
L 10.984375 69.390625
L 28.421875 72.90625
L 38.28125 72.90625
L 38.28125 8.296875
L 54.390625 8.296875
L 54.390625 0
L 12.40625 0
z
" id="DejaVuSans-49"/>
       </defs>
       <use xlink:href="#DejaVuSans-49"/>
       <use x="63.623047" xlink:href="#DejaVuSans-48"/>
       <use x="127.246094" xlink:href="#DejaVuSans-48"/>
      </g>
     </g>
    </g>
    <g id="text_7">
     <!-- GC content (%) -->
     <g transform="translate(477.209063 300.330997)scale(0.1 -0.1)">
      <defs>
       <path d="M 59.515625 10.40625
L 59.515625 29.984375
L 43.40625 29.984375
L 43.40625 38.09375
L 69.28125 38.09375
L 69.28125 6.78125
Q 63.578125 2.734375 56.6875 0.65625
Q 49.8125 -1.421875 42 -1.421875
Q 24.90625 -1.421875 15.25 8.5625
Q 5.609375 18.5625 5.609375 36.375
Q 5.609375 54.25 15.25 64.234375
Q 24.90625 74.21875 42 74.21875
Q 49.125 74.21875 55.546875 72.453125
Q 61.96875 70.703125 67.390625 67.28125
L 67.390625 56.78125
Q 61.921875 61.421875 55.765625 63.765625
Q 49.609375 66.109375 42.828125 66.109375
Q 29.4375 66.109375 22.71875 58.640625
Q 16.015625 51.171875 16.015625 36.375
Q 16.015625 21.625 22.71875 14.15625
Q 29.4375 6.6875 42.828125 6.6875
Q 48.046875 6.6875 52.140625 7.59375
Q 56.25 8.5 59.515625 10.40625
z
" id="DejaVuSans-71"/>
       <path d="M 64.40625 67.28125
L 64.40625 56.890625
Q 59.421875 61.53125 53.78125 63.8125
Q 48.140625 66.109375 41.796875 66.109375
Q 29.296875 66.109375 22.65625 58.46875
Q 16.015625 50.828125 16.015625 36.375
Q 16.015625 21.96875 22.65625 14.328125
Q 29.296875 6.6875 41.796875 6.6875
Q 48.140625 6.6875 53.78125 8.984375
Q 59.421875 11.28125 64.40625 15.921875
L 64.40625 5.609375
Q 59.234375 2.09375 53.4375 0.328125
Q 47.65625 -1.421875 41.21875 -1.421875
Q 24.65625 -1.421875 15.125 8.703125
Q 5.609375 18.84375 5.609375 36.375
Q 5.609375 53.953125 15.125 64.078125
Q 24.65625 74.21875 41.21875 74.21875
Q 47.75 74.21875 53.53125 72.484375
Q 59.328125 70.75 64.40625 67.28125
z
" id="DejaVuSans-67"/>
       <path id="DejaVuSans-32"/>
       <path d="M 48.78125 52.59375
L 48.78125 44.1875
Q 44.96875 46.296875 41.140625 47.34375
Q 37.3125 48.390625 33.40625 48.390625
Q 24.65625 48.390625 19.8125 42.84375
Q 14.984375 37.3125 14.984375 27.296875
Q 14.984375 17.28125 19.8125 11.734375
Q 24.65625 6.203125 33.40625 6.203125
Q 37.3125 6.203125 41.140625 7.25
Q 44.96875 8.296875 48.78125 10.40625
L 48.78125 2.09375
Q 45.015625 0.34375 40.984375 -0.53125
Q 36.96875 -1.421875 32.421875 -1.421875
Q 20.0625 -1.421875 12.78125 6.34375
Q 5.515625 14.109375 5.515625 27.296875
Q 5.515625 40.671875 12.859375 48.328125
Q 20.21875 56 33.015625 56
Q 37.15625 56 41.109375 55.140625
Q 45.0625 54.296875 48.78125 52.59375
z
" id="DejaVuSans-99"/>
       <path d="M 30.609375 48.390625
Q 23.390625 48.390625 19.1875 42.75
Q 14.984375 37.109375 14.984375 27.296875
Q 14.984375 17.484375 19.15625 11.84375
Q 23.34375 6.203125 30.609375 6.203125
Q 37.796875 6.203125 41.984375 11.859375
Q 46.1875 17.53125 46.1875 27.296875
Q 46.1875 37.015625 41.984375 42.703125
Q 37.796875 48.390625 30.609375 48.390625
z
M 30.609375 56
Q 42.328125 56 49.015625 48.375
Q 55.71875 40.765625 55.71875 27.296875
Q 55.71875 13.875 49.015625 6.21875
Q 42.328125 -1.421875 30.609375 -1.421875
Q 18.84375 -1.421875 12.171875 6.21875
Q 5.515625 13.875 5.515625 27.296875
Q 5.515625 40.765625 12.171875 48.375
Q 18.84375 56 30.609375 56
z
" id="DejaVuSans-111"/>
       <path d="M 54.890625 33.015625
L 54.890625 0
L 45.90625 0
L 45.90625 32.71875
Q 45.90625 40.484375 42.875 44.328125
Q 39.84375 48.1875 33.796875 48.1875
Q 26.515625 48.1875 22.3125 43.546875
Q 18.109375 38.921875 18.109375 30.90625
L 18.109375 0
L 9.078125 0
L 9.078125 54.6875
L 18.109375 54.6875
L 18.109375 46.1875
Q 21.34375 51.125 25.703125 53.5625
Q 30.078125 56 35.796875 56
Q 45.21875 56 50.046875 50.171875
Q 54.890625 44.34375 54.890625 33.015625
z
" id="DejaVuSans-110"/>
       <path d="M 18.3125 70.21875
L 18.3125 54.6875
L 36.8125 54.6875
L 36.8125 47.703125
L 18.3125 47.703125
L 18.3125 18.015625
Q 18.3125 11.328125 20.140625 9.421875
Q 21.96875 7.515625 27.59375 7.515625
L 36.8125 7.515625
L 36.8125 0
L 27.59375 0
Q 17.1875 0 13.234375 3.875
Q 9.28125 7.765625 9.28125 18.015625
L 9.28125 47.703125
L 2.6875 47.703125
L 2.6875 54.6875
L 9.28125 54.6875
L 9.28125 70.21875
z
" id="DejaVuSans-116"/>
       <path d="M 56.203125 29.59375
L 56.203125 25.203125
L 14.890625 25.203125
Q 15.484375 15.921875 20.484375 11.0625
Q 25.484375 6.203125 34.421875 6.203125
Q 39.59375 6.203125 44.453125 7.46875
Q 49.3125 8.734375 54.109375 11.28125
L 54.109375 2.78125
Q 49.265625 0.734375 44.1875 -0.34375
Q 39.109375 -1.421875 33.890625 -1.421875
Q 20.796875 -1.421875 13.15625 6.1875
Q 5.515625 13.8125 5.515625 26.8125
Q 5.515625 40.234375 12.765625 48.109375
Q 20.015625 56 32.328125 56
Q 43.359375 56 49.78125 48.890625
Q 56.203125 41.796875 56.203125 29.59375
z
M 47.21875 32.234375
Q 47.125 39.59375 43.09375 43.984375
Q 39.0625 48.390625 32.421875 48.390625
Q 24.90625 48.390625 20.390625 44.140625
Q 15.875 39.890625 15.1875 32.171875
z
" id="DejaVuSans-101"/>
       <path d="M 31 75.875
Q 24.46875 64.65625 21.28125 53.65625
Q 18.109375 42.671875 18.109375 31.390625
Q 18.109375 20.125 21.3125 9.0625
Q 24.515625 -2 31 -13.1875
L 23.1875 -13.1875
Q 15.875 -1.703125 12.234375 9.375
Q 8.59375 20.453125 8.59375 31.390625
Q 8.59375 42.28125 12.203125 53.3125
Q 15.828125 64.359375 23.1875 75.875
z
" id="DejaVuSans-40"/>
       <path d="M 72.703125 32.078125
Q 68.453125 32.078125 66.03125 28.46875
Q 63.625 24.859375 63.625 18.40625
Q 63.625 12.0625 66.03125 8.421875
Q 68.453125 4.78125 72.703125 4.78125
Q 76.859375 4.78125 79.265625 8.421875
Q 81.6875 12.0625 81.6875 18.40625
Q 81.6875 24.8125 79.265625 28.4375
Q 76.859375 32.078125 72.703125 32.078125
z
M 72.703125 38.28125
Q 80.421875 38.28125 84.953125 32.90625
Q 89.5 27.546875 89.5 18.40625
Q 89.5 9.28125 84.9375 3.921875
Q 80.375 -1.421875 72.703125 -1.421875
Q 64.890625 -1.421875 60.34375 3.921875
Q 55.8125 9.28125 55.8125 18.40625
Q 55.8125 27.59375 60.375 32.9375
Q 64.9375 38.28125 72.703125 38.28125
z
M 22.3125 68.015625
Q 18.109375 68.015625 15.6875 64.375
Q 13.28125 60.75 13.28125 54.390625
Q 13.28125 47.953125 15.671875 44.328125
Q 18.0625 40.71875 22.3125 40.71875
Q 26.5625 40.71875 28.96875 44.328125
Q 31.390625 47.953125 31.390625 54.390625
Q 31.390625 60.6875 28.953125 64.34375
Q 26.515625 68.015625 22.3125 68.015625
z
M 66.40625 74.21875
L 74.21875 74.21875
L 28.609375 -1.421875
L 20.796875 -1.421875
z
M 22.3125 74.21875
Q 30.03125 74.21875 34.609375 68.875
Q 39.203125 63.53125 39.203125 54.390625
Q 39.203125 45.171875 34.640625 39.84375
Q 30.078125 34.515625 22.3125 34.515625
Q 14.546875 34.515625 10.03125 39.859375
Q 5.515625 45.21875 5.515625 54.390625
Q 5.515625 63.484375 10.046875 68.84375
Q 14.59375 74.21875 22.3125 74.21875
z
" id="DejaVuSans-37"/>
       <path d="M 8.015625 75.875
L 15.828125 75.875
Q 23.140625 64.359375 26.78125 53.3125
Q 30.421875 42.28125 30.421875 31.390625
Q 30.421875 20.453125 26.78125 9.375
Q 23.140625 -1.703125 15.828125 -13.1875
L 8.015625 -13.1875
Q 14.5 -2 17.703125 9.0625
Q 20.90625 20.125 20.90625 31.390625
Q 20.90625 42.671875 17.703125 53.65625
Q 14.5 64.65625 8.015625 75.875
z
" id="DejaVuSans-41"/>
      </defs>
      <use xlink:href="#DejaVuSans-71"/>
      <use x="77.490234" xlink:href="#DejaVuSans-67"/>
      <use x="147.314453" xlink:href="#DejaVuSans-32"/>
      <use x="179.101562" xlink:href="#DejaVuSans-99"/>
      <use x="234.082031" xlink:href="#DejaVuSans-111"/>
      <use x="295.263672" xlink:href="#DejaVuSans-110"/>
      <use x="358.642578" xlink:href="#DejaVuSans-116"/>
      <use x="397.851562" xlink:href="#DejaVuSans-101"/>
      <use x="459.375" xlink:href="#DejaVuSans-110"/>
      <use x="522.753906" xlink:href="#DejaVuSans-116"/>
      <use x="561.962891" xlink:href="#DejaVuSans-32"/>
      <use x="593.75" xlink:href="#DejaVuSans-40"/>
      <use x="632.763672" xlink:href="#DejaVuSans-37"/>
      <use x="727.783203" xlink:href="#DejaVuSans-41"/>
     </g>
    </g>
   </g>
   <g id="matplotlib.axis_2">
    <g id="ytick_1">
     <g id="line2d_1">
      <path clip-path="url(#pcf77459c9d)" d="M 45.690625 273.99006
L 985.405625 273.99006
" style="fill:none;stroke:#dedede;stroke-linecap:square;"/>
     </g>
     <g id="text_8">
      <!-- 0.00 -->
      <g transform="translate(20.878125 277.029435)scale(0.08 -0.08)">
       <defs>
        <path d="M 10.6875 12.40625
L 21 12.40625
L 21 0
L 10.6875 0
z
" id="DejaVuSans-46"/>
       </defs>
       <use xlink:href="#DejaVuSans-48"/>
       <use x="63.623047" xlink:href="#DejaVuSans-46"/>
       <use x="95.410156" xlink:href="#DejaVuSans-48"/>
       <use x="159.033203" xlink:href="#DejaVuSans-48"/>
      </g>
     </g>
    </g>
    <g id="ytick_2">
     <g id="line2d_2">
      <path clip-path="url(#pcf77459c9d)" d="M 45.690625 235.386873
L 985.405625 235.386873
" style="fill:none;stroke:#dedede;stroke-linecap:square;"/>
     </g>
     <g id="text_9">
      <!-- 0.02 -->
      <g transform="translate(20.878125 238.426248)scale(0.08 -0.08)">
       <use xlink:href="#DejaVuSans-48"/>
       <use x="63.623047" xlink:href="#DejaVuSans-46"/>
       <use x="95.410156" xlink:href="#DejaVuSans-48"/>
       <use x="159.033203" xlink:href="#DejaVuSans-50"/>
      </g>
     </g>
    </g>
    <g id="ytick_3">
     <g id="line2d_3">
      <path clip-path="url(#pcf77459c9d)" d="M 45.690625 196.783686
L 985.405625 196.783686
" style="fill:none;stroke:#dedede;stroke-linecap:square;"/>
     </g>
     <g id="text_10">
      <!-- 0.04 -->
      <g transform="translate(20.878125 199.823061)scale(0.08 -0.08)">
       <use xlink:href="#DejaVuSans-48"/>
       <use x="63.623047" xlink:href="#DejaVuSans-46"/>
       <use x="95.410156" xlink:href="#DejaVuSans-48"/>
       <use x="159.033203" xlink:href="#DejaVuSans-52"/>
      </g>
     </g>
    </g>
    <g id="ytick_4">
     <g id="line2d_4">
      <path clip-path="url(#pcf77459c9d)" d="M 45.690625 158.180499
L 985.405625 158.180499
" style="fill:none;stroke:#dedede;stroke-linecap:square;"/>
     </g>
     <g id="text_11">
      <!-- 0.06 -->
      <g transform="translate(20.878125 161.219874)scale(0.08 -0.08)">
       <use xlink:href="#DejaVuSans-48"/>
       <use x="63.623047" xlink:href="#DejaVuSans-46"/>
       <use x="95.410156" xlink:href="#DejaVuSans-48"/>
       <use x="159.033203" xlink:href="#DejaVuSans-54"/>
      </g>
     </g>
    </g>
    <g id="ytick_5">
     <g id="line2d_5">
      <path clip-path="url(#pcf77459c9d)" d="M 45.690625 119.577312
L 985.405625 119.577312
" style="fill:none;stroke:#dedede;stroke-linecap:square;"/>
     </g>
     <g id="text_12">
      <!-- 0.08 -->
      <g transform="translate(20.878125 122.616687)scale(0.08 -0.08)">
       <use xlink:href="#DejaVuSans-48"/>
       <use x="63.623047" xlink:href="#DejaVuSans-46"/>
       <use x="95.410156" xlink:href="#DejaVuSans-48"/>
       <use x="159.033203" xlink:href="#DejaVuSans-56"/>
      </g>
     </g>
    </g>
    <g id="ytick_6">
     <g id="line2d_6">
      <path clip-path="url(#pcf77459c9d)" d="M 45.690625 80.974125
L 985.405625 80.974125
" style="fill:none;stroke:#dedede;stroke-linecap:square;"/>
     </g>
     <g id="text_13">
      <!-- 0.10 -->
      <g transform="translate(20.878125 84.0135)scale(0.08 -0.08)">
       <use xlink:href="#DejaVuSans-48"/>
       <use x="63.623047" xlink:href="#DejaVuSans-46"/>
       <use x="95.410156" xlink:href="#DejaVuSans-49"/>
       <use x="159.033203" xlink:href="#DejaVuSans-48"/>
      </g>
     </g>
    </g>
    <g id="ytick_7">
     <g id="line2d_7">
      <path clip-path="url(#pcf77459c9d)" d="M 45.690625 42.370938
L 985.405625 42.370938
" style="fill:none;stroke:#dedede;stroke-linecap:square;"/>
     </g>
     <g id="text_14">
      <!-- 0.12 -->
      <g transform="translate(20.878125 45.410313)scale(0.08 -0.08)">
       <use xlink:href="#DejaVuSans-48"/>
       <use x="63.623047" xlink:href="#DejaVuSans-46"/>
       <use x="95.410156" xlink:href="#DejaVuSans-49"/>
       <use x="159.033203" xlink:href="#DejaVuSans-50"/>
      </g>
     </g>
    </g>
    <g id="text_15">
     <!-- Fraction of reads -->
     <g transform="translate(14.798438 194.555991)rotate(-90)scale(0.1 -0.1)">
      <defs>
       <path d="M 9.8125 72.90625
L 51.703125 72.90625
L 51.703125 64.59375
L 19.671875 64.59375
L 19.671875 43.109375
L 48.578125 43.109375
L 48.578125 34.8125
L 19.671875 34.8125
L 19.671875 0
L 9.8125 0
z
" id="DejaVuSans-70"/>
       <path d="M 41.109375 46.296875
Q 39.59375 47.171875 37.8125 47.578125
Q 36.03125 48 33.890625 48
Q 26.265625 48 22.1875 43.046875
Q 18.109375 38.09375 18.109375 28.8125
L 18.109375 0
L 9.078125 0
L 9.078125 54.6875
L 18.109375 54.6875
L 18.109375 46.1875
Q 20.953125 51.171875 25.484375 53.578125
Q 30.03125 56 36.53125 56
Q 37.453125 56 38.578125 55.875
Q 39.703125 55.765625 41.0625 55.515625
z
" id="DejaVuSans-114"/>
       <path d="M 34.28125 27.484375
Q 23.390625 27.484375 19.1875 25
Q 14.984375 22.515625 14.984375 16.5
Q 14.984375 11.71875 18.140625 8.90625
Q 21.296875 6.109375 26.703125 6.109375
Q 34.1875 6.109375 38.703125 11.40625
Q 43.21875 16.703125 43.21875 25.484375
L 43.21875 27.484375
z
M 52.203125 31.203125
L 52.203125 0
L 43.21875 0
L 43.21875 8.296875
Q 40.140625 3.328125 35.546875 0.953125
Q 30.953125 -1.421875 24.3125 -1.421875
Q 15.921875 -1.421875 10.953125 3.296875
Q 6 8.015625 6 15.921875
Q 6 25.140625 12.171875 29.828125
Q 18.359375 34.515625 30.609375 34.515625
L 43.21875 34.515625
L 43.21875 35.40625
Q 43.21875 41.609375 39.140625 45
Q 35.0625 48.390625 27.6875 48.390625
Q 23 48.390625 18.546875 47.265625
Q 14.109375 46.140625 10.015625 43.890625
L 10.015625 52.203125
Q 14.9375 54.109375 19.578125 55.046875
Q 24.21875 56 28.609375 56
Q 40.484375 56 46.34375 49.84375
Q 52.203125 43.703125 52.203125 31.203125
z
" id="DejaVuSans-97"/>
       <path d="M 9.421875 54.6875
L 18.40625 54.6875
L 18.40625 0
L 9.421875 0
z
M 9.421875 75.984375
L 18.40625 75.984375
L 18.40625 64.59375
L 9.421875 64.59375
z
" id="DejaVuSans-105"/>
       <path d="M 37.109375 75.984375
L 37.109375 68.5
L 28.515625 68.5
Q 23.6875 68.5 21.796875 66.546875
Q 19.921875 64.59375 19.921875 59.515625
L 19.921875 54.6875
L 34.71875 54.6875
L 34.71875 47.703125
L 19.921875 47.703125
L 19.921875 0
L 10.890625 0
L 10.890625 47.703125
L 2.296875 47.703125
L 2.296875 54.6875
L 10.890625 54.6875
L 10.890625 58.5
Q 10.890625 67.625 15.140625 71.796875
Q 19.390625 75.984375 28.609375 75.984375
z
" id="DejaVuSans-102"/>
       <path d="M 45.40625 46.390625
L 45.40625 75.984375
L 54.390625 75.984375
L 54.390625 0
L 45.40625 0
L 45.40625 8.203125
Q 42.578125 3.328125 38.25 0.953125
Q 33.9375 -1.421875 27.875 -1.421875
Q 17.96875 -1.421875 11.734375 6.484375
Q 5.515625 14.40625 5.515625 27.296875
Q 5.515625 40.1875 11.734375 48.09375
Q 17.96875 56 27.875 56
Q 33.9375 56 38.25 53.625
Q 42.578125 51.265625 45.40625 46.390625
z
M 14.796875 27.296875
Q 14.796875 17.390625 18.875 11.75
Q 22.953125 6.109375 30.078125 6.109375
Q 37.203125 6.109375 41.296875 11.75
Q 45.40625 17.390625 45.40625 27.296875
Q 45.40625 37.203125 41.296875 42.84375
Q 37.203125 48.484375 30.078125 48.484375
Q 22.953125 48.484375 18.875 42.84375
Q 14.796875 37.203125 14.796875 27.296875
z
" id="DejaVuSans-100"/>
       <path d="M 44.28125 53.078125
L 44.28125 44.578125
Q 40.484375 46.53125 36.375 47.5
Q 32.28125 48.484375 27.875 48.484375
Q 21.1875 48.484375 17.84375 46.4375
Q 14.5 44.390625 14.5 40.28125
Q 14.5 37.15625 16.890625 35.375
Q 19.28125 33.59375 26.515625 31.984375
L 29.59375 31.296875
Q 39.15625 29.25 43.1875 25.515625
Q 47.21875 21.78125 47.21875 15.09375
Q 47.21875 7.46875 41.1875 3.015625
Q 35.15625 -1.421875 24.609375 -1.421875
Q 20.21875 -1.421875 15.453125 -0.5625
Q 10.6875 0.296875 5.421875 2
L 5.421875 11.28125
Q 10.40625 8.6875 15.234375 7.390625
Q 20.0625 6.109375 24.8125 6.109375
Q 31.15625 6.109375 34.5625 8.28125
Q 37.984375 10.453125 37.984375 14.40625
Q 37.984375 18.0625 35.515625 20.015625
Q 33.0625 21.96875 24.703125 23.78125
L 21.578125 24.515625
Q 13.234375 26.265625 9.515625 29.90625
Q 5.8125 33.546875 5.8125 39.890625
Q 5.8125 47.609375 11.28125 51.796875
Q 16.75 56 26.8125 56
Q 31.78125 56 36.171875 55.265625
Q 40.578125 54.546875 44.28125 53.078125
z
" id="DejaVuSans-115"/>
      </defs>
      <use xlink:href="#DejaVuSans-70"/>
      <use x="50.269531" xlink:href="#DejaVuSans-114"/>
      <use x="91.382812" xlink:href="#DejaVuSans-97"/>
      <use x="152.662109" xlink:href="#DejaVuSans-99"/>
      <use x="207.642578" xlink:href="#DejaVuSans-116"/>
      <use x="246.851562" xlink:href="#DejaVuSans-105"/>
      <use x="274.634766" xlink:href="#DejaVuSans-111"/>
      <use x="335.816406" xlink:href="#DejaVuSans-110"/>
      <use x="399.195312" xlink:href="#DejaVuSans-32"/>
      <use x="430.982422" xlink:href="#DejaVuSans-111"/>
      <use x="492.164062" xlink:href="#DejaVuSans-102"/>
      <use x="527.369141" xlink:href="#DejaVuSans-32"/>
      <use x="559.15625" xlink:href="#DejaVuSans-114"/>
      <use x="598.019531" xlink:href="#DejaVuSans-101"/>
      <use x="659.542969" xlink:href="#DejaVuSans-97"/>
      <use x="720.822266" xlink:href="#DejaVuSans-100"/>
      <use x="784.298828" xlink:href="#DejaVuSans-115"/>
     </g>
    </g>
   </g>
   <g id="line2d_8">
    <path clip-path="url(#pcf77459c9d)" d="M 55.087775 273.99006
L 64.484925 273.99006
L 73.882075 273.99006
L 83.279225 273.99006
L 92.676375 273.99006
L 102.073525 273.99006
L 111.470675 273.99006
L 120.867825 273.99006
L 130.264975 273.99006
L 139.662125 273.99006
L 149.059275 273.99006
L 158.456425 273.99006
L 167.853575 273.99006
L 177.250725 273.99006
L 186.647875 273.99006
L 196.045025 273.99006
L 205.442175 273.805126
L 214.839325 273.99006
L 224.236475 273.805126
L 233.633625 273.99006
L 243.030775 273.99006
L 252.427925 273.620191
L 261.825075 271.955783
L 271.222225 272.325651
L 280.619375 268.996834
L 290.016525 269.736571
L 299.413675 267.517359
L 308.810825 266.777622
L 318.207975 260.489856
L 327.605125 261.229593
L 337.002275 256.236367
L 346.399425 249.208863
L 355.796575 248.099257
L 365.193725 244.585505
L 374.590875 241.256688
L 383.988025 229.605827
L 393.385175 231.270235
L 402.782325 215.735754
L 412.179475 202.605418
L 421.576625 200.016338
L 430.973775 191.324425
L 440.370925 165.618557
L 449.768075 147.125126
L 459.165225 119.754849
L 468.562375 117.535638
L 477.959525 116.7959
L 487.356675 115.131492
L 496.753825 137.508543
L 506.150975 154.337564
L 515.548125 180.968104
L 524.945275 201.125944
L 534.342425 239.407345
L 543.739575 248.838994
L 553.136725 260.859724
L 562.533875 268.072162
L 571.931025 269.181768
L 581.328175 272.140717
L 590.725325 272.325651
L 600.122475 273.065388
L 609.519625 273.99006
L 618.916775 273.99006
L 628.313925 273.805126
L 637.711075 273.99006
L 647.108225 273.99006
L 656.505375 273.99006
L 665.902525 273.99006
L 675.299675 273.99006
L 684.696825 273.99006
L 694.093975 273.99006
L 703.491125 273.805126
L 712.888275 273.99006
L 722.285425 273.99006
L 731.682575 273.99006
L 741.079725 273.99006
L 750.476875 273.99006
L 759.874025 273.99006
L 769.271175 273.99006
L 778.668325 273.99006
L 788.065475 273.99006
L 797.462625 273.805126
L 806.859775 273.99006
L 816.256925 273.99006
L 825.654075 273.99006
L 835.051225 273.99006
L 844.448375 273.99006
L 853.845525 273.99006
L 863.242675 273.99006
L 872.639825 273.99006
L 882.036975 273.99006
L 891.434125 273.99006
L 900.831275 273.99006
L 910.228425 273.99006
L 919.625575 273.99006
L 929.022725 273.99006
L 938.419875 273.99006
L 947.817025 273.99006
L 957.214175 273.99006
L 966.611325 273.99006
L 976.008475 273.99006
L 985.405625 273.99006
" style="fill:none;stroke:#7cb5ec;stroke-linecap:square;"/>
   </g>
   <g id="line2d_9">
    <path clip-path="url(#pcf77459c9d)" d="M 55.087775 273.99006
L 64.484925 273.99006
L 73.882075 273.99006
L 83.279225 273.99006
L 92.676375 273.99006
L 102.073525 273.99006
L 111.470675 273.99006
L 120.867825 273.99006
L 130.264975 273.99006
L 139.662125 273.99006
L 149.059275 273.99006
L 158.456425 273.99006
L 167.853575 273.99006
L 177.250725 273.99006
L 186.647875 273.99006
L 196.045025 273.99006
L 205.442175 273.99006
L 214.839325 273.99006
L 224.236475 273.99006
L 233.633625 273.99006
L 243.030775 273.99006
L 252.427925 273.99006
L 261.825075 273.99006
L 271.222225 273.99006
L 280.619375 273.99006
L 290.016525 273.99006
L 299.413675 273.99006
L 308.810825 273.99006
L 318.207975 273.99006
L 327.605125 260.070642
L 337.002275 260.070642
L 346.399425 269.350254
L 355.796575 269.350254
L 365.193725 255.430836
L 374.590875 264.710448
L 383.988025 241.511417
L 393.385175 250.791029
L 402.782325 213.67258
L 412.179475 209.032774
L 421.576625 181.193938
L 430.973775 144.075489
L 440.370925 88.397815
L 449.768075 125.516264
L 459.165225 46.63956
L 468.562375 83.758009
L 477.959525 69.838591
L 487.356675 144.075489
L 496.753825 167.274519
L 506.150975 199.753162
L 515.548125 222.952193
L 524.945275 218.312387
L 534.342425 260.070642
L 543.739575 255.430836
L 553.136725 255.430836
L 562.533875 255.430836
L 571.931025 269.350254
L 581.328175 269.350254
L 590.725325 269.350254
L 600.122475 273.99006
L 609.519625 273.99006
L 618.916775 273.99006
L 628.313925 273.99006
L 637.711075 273.99006
L 647.108225 273.99006
L 656.505375 273.99006
L 665.902525 273.99006
L 675.299675 273.99006
L 684.696825 273.99006
L 694.093975 273.99006
L 703.491125 273.99006
L 712.888275 269.350254
L 722.285425 273.99006
L 731.682575 273.99006
L 741.079725 273.99006
L 750.476875 273.99006
L 759.874025 273.99006
L 769.271175 273.99006
L 778.668325 273.99006
L 788.065475 273.99006
L 797.462625 273.99006
L 806.859775 273.99006
L 816.256925 273.99006
L 825.654075 273.99006
L 835.051225 273.99006
L 844.448375 273.99006
L 853.845525 273.99006
L 863.242675 273.99006
L 872.639825 273.99006
L 882.036975 273.99006
L 891.434125 273.99006
L 900.831275 273.99006
L 910.228425 273.99006
L 919.625575 273.99006
L 929.022725 273.99006
L 938.419875 273.99006
L 947.817025 273.99006
L 957.214175 273.99006
L 966.611325 273.99006
L 976.008475 273.99006
L 985.405625 273.99006
" style="fill:none;stroke:#434348;stroke-linecap:square;"/>
   </g>
   <g id="line2d_10">
    <path clip-path="url(#pcf77459c9d)" d="M 55.087775 273.99006
L 64.484925 273.99006
L 73.882075 273.99006
L 83.279225 273.99006
L 92.676375 273.99006
L 102.073525 273.99006
L 111.470675 273.99006
L 120.867825 273.99006
L 130.264975 273.99006
L 139.662125 273.99006
L 149.059275 273.99006
L 158.456425 273.947218
L 167.853575 273.947218
L 177.250725 273.99006
L 186.647875 273.904376
L 196.045025 273.861534
L 205.442175 273.733008
L 214.839325 273.604482
L 224.236475 272.919011
L 233.633625 273.133221
L 243.030775 271.676594
L 252.427925 271.076806
L 261.825075 269.063233
L 271.222225 267.563764
L 280.619375 264.521984
L 290.016525 264.007881
L 299.413675 260.409155
L 308.810825 256.681903
L 318.207975 253.55444
L 327.605125 249.87003
L 337.002275 244.172048
L 346.399425 239.673641
L 355.796575 235.603653
L 365.193725 228.14915
L 374.590875 224.164847
L 383.988025 218.938126
L 393.385175 210.455416
L 402.782325 202.529651
L 412.179475 194.389677
L 421.576625 185.307179
L 430.973775 173.225743
L 440.370925 167.356393
L 449.768075 162.043988
L 459.165225 152.618754
L 468.562375 152.318861
L 477.959525 151.633389
L 487.356675 155.446325
L 496.753825 163.757667
L 506.150975 181.237191
L 515.548125 195.717778
L 524.945275 207.49932
L 534.342425 235.003866
L 543.739575 245.243097
L 553.136725 256.853271
L 562.533875 263.236725
L 571.931025 267.820816
L 581.328175 271.033964
L 590.725325 272.190697
L 600.122475 273.133221
L 609.519625 273.690166
L 618.916775 273.818692
L 628.313925 273.818692
L 637.711075 273.904376
L 647.108225 273.99006
L 656.505375 273.947218
L 665.902525 273.947218
L 675.299675 273.947218
L 684.696825 273.99006
L 694.093975 273.99006
L 703.491125 273.99006
L 712.888275 273.99006
L 722.285425 273.99006
L 731.682575 273.99006
L 741.079725 273.99006
L 750.476875 273.99006
L 759.874025 273.99006
L 769.271175 273.99006
L 778.668325 273.99006
L 788.065475 273.99006
L 797.462625 273.99006
L 806.859775 273.99006
L 816.256925 273.99006
L 825.654075 273.99006
L 835.051225 273.99006
L 844.448375 273.99006
L 853.845525 273.99006
L 863.242675 273.99006
L 872.639825 273.99006
L 882.036975 273.99006
L 891.434125 273.99006
L 900.831275 273.99006
L 910.228425 273.99006
L 919.625575 273.99006
L 929.022725 273.99006
L 938.419875 273.99006
L 947.817025 273.99006
L 957.214175 273.99006
L 966.611325 273.99006
L 976.008475 273.99006
L 985.405625 273.99006
" style="fill:none;stroke:#90ed7d;stroke-linecap:square;"/>
   </g>
   <g id="line2d_11">
    <path clip-path="url(#pcf77459c9d)" d="M 55.087775 273.99006
L 64.484925 273.99006
L 73.882075 273.99006
L 83.279225 273.99006
L 92.676375 273.99006
L 102.073525 273.99006
L 111.470675 273.99006
L 120.867825 273.99006
L 130.264975 273.99006
L 139.662125 273.99006
L 149.059275 273.99006
L 158.456425 273.99006
L 167.853575 273.99006
L 177.250725 273.888
L 186.647875 273.99006
L 196.045025 273.99006
L 205.442175 273.888
L 214.839325 273.888
L 224.236475 273.17358
L 233.633625 273.888
L 243.030775 272.76534
L 252.427925 272.66328
L 261.825075 272.050919
L 271.222225 270.417959
L 280.619375 269.601479
L 290.016525 268.887058
L 299.413675 264.804657
L 308.810825 262.865516
L 318.207975 259.497535
L 327.605125 257.456335
L 337.002275 252.149213
L 346.399425 248.168872
L 355.796575 245.413251
L 365.193725 240.616429
L 374.590875 237.554628
L 383.988025 231.226906
L 393.385175 222.960043
L 402.782325 215.305541
L 412.179475 209.590179
L 421.576625 196.322375
L 430.973775 182.54427
L 440.370925 168.562046
L 449.768075 157.539562
L 459.165225 143.455278
L 468.562375 128.044213
L 477.959525 130.595713
L 487.356675 127.227732
L 496.753825 147.333559
L 506.150975 149.170639
L 515.548125 173.767107
L 524.945275 203.160397
L 534.342425 229.798066
L 543.739575 241.73909
L 553.136725 255.108954
L 562.533875 263.988177
L 571.931025 268.376758
L 581.328175 271.438559
L 590.725325 272.050919
L 600.122475 273.68388
L 609.519625 273.58182
L 618.916775 273.78594
L 628.313925 273.888
L 637.711075 273.99006
L 647.108225 273.888
L 656.505375 273.99006
L 665.902525 273.99006
L 675.299675 273.68388
L 684.696825 273.99006
L 694.093975 273.99006
L 703.491125 273.99006
L 712.888275 273.99006
L 722.285425 273.99006
L 731.682575 273.99006
L 741.079725 273.99006
L 750.476875 273.888
L 759.874025 273.99006
L 769.271175 273.99006
L 778.668325 273.99006
L 788.065475 273.99006
L 797.462625 273.99006
L 806.859775 273.99006
L 816.256925 273.99006
L 825.654075 273.99006
L 835.051225 273.99006
L 844.448375 273.99006
L 853.845525 273.99006
L 863.242675 273.99006
L 872.639825 273.99006
L 882.036975 273.99006
L 891.434125 273.99006
L 900.831275 273.99006
L 910.228425 273.99006
L 919.625575 273.99006
L 929.022725 273.99006
L 938.419875 273.99006
L 947.817025 273.99006
L 957.214175 273.99006
L 966.611325 273.99006
L 976.008475 273.99006
L 985.405625 273.99006
" style="fill:none;stroke:#f7a35c;stroke-linecap:square;"/>
   </g>
   <g id="line2d_12">
    <path clip-path="url(#pcf77459c9d)" d="M 55.087775 273.99006
L 64.484925 273.99006
L 73.882075 273.99006
L 83.279225 273.99006
L 92.676375 273.99006
L 102.073525 273.99006
L 111.470675 273.99006
L 120.867825 273.99006
L 130.264975 273.97282
L 139.662125 273.99006
L 149.059275 273.99006
L 158.456425 273.93834
L 167.853575 273.95558
L 177.250725 273.93834
L 186.647875 273.85214
L 196.045025 273.71422
L 205.442175 273.421139
L 214.839325 273.283219
L 224.236475 272.817738
L 233.633625 272.266057
L 243.030775 271.490256
L 252.427925 270.111053
L 261.825075 269.283532
L 271.222225 267.387128
L 280.619375 264.594243
L 290.016525 264.766644
L 299.413675 261.370358
L 308.810825 259.680835
L 318.207975 256.422469
L 327.605125 251.42286
L 337.002275 248.612735
L 346.399425 246.509451
L 355.796575 241.751203
L 365.193725 236.906754
L 374.590875 231.389944
L 383.988025 226.752376
L 393.385175 218.459921
L 402.782325 212.01215
L 412.179475 203.857615
L 421.576625 193.392917
L 430.973775 186.031424
L 440.370925 175.239165
L 449.768075 166.567429
L 459.165225 164.964106
L 468.562375 162.326382
L 477.959525 154.809728
L 487.356675 158.981816
L 496.753825 164.964106
L 506.150975 173.187601
L 515.548125 183.238539
L 524.945275 188.513988
L 534.342425 217.115199
L 543.739575 225.045613
L 553.136725 238.734197
L 562.533875 248.871335
L 571.931025 257.456871
L 581.328175 263.852922
L 590.725325 267.473328
L 600.122475 270.766174
L 609.519625 271.972976
L 618.916775 272.834978
L 628.313925 273.679739
L 637.711075 273.80042
L 647.108225 273.85214
L 656.505375 273.88662
L 665.902525 273.95558
L 675.299675 273.95558
L 684.696825 273.97282
L 694.093975 273.99006
L 703.491125 273.97282
L 712.888275 273.99006
L 722.285425 273.99006
L 731.682575 273.97282
L 741.079725 273.99006
L 750.476875 273.99006
L 759.874025 273.99006
L 769.271175 273.99006
L 778.668325 273.97282
L 788.065475 273.99006
L 797.462625 273.99006
L 806.859775 273.99006
L 816.256925 273.97282
L 825.654075 273.99006
L 835.051225 273.99006
L 844.448375 273.99006
L 853.845525 273.99006
L 863.242675 273.99006
L 872.639825 273.99006
L 882.036975 273.99006
L 891.434125 273.99006
L 900.831275 273.99006
L 910.228425 273.99006
L 919.625575 273.99006
L 929.022725 273.99006
L 938.419875 273.99006
L 947.817025 273.99006
L 957.214175 273.99006
L 966.611325 273.99006
L 976.008475 273.99006
L 985.405625 273.93834
" style="fill:none;stroke:#8085e9;stroke-linecap:square;"/>
   </g>
   <g id="line2d_13">
    <path clip-path="url(#pcf77459c9d)" d="M 55.087775 273.99006
L 64.484925 273.99006
L 73.882075 273.99006
L 83.279225 273.99006
L 92.676375 273.99006
L 102.073525 273.99006
L 111.470675 273.99006
L 120.867825 273.99006
L 130.264975 273.99006
L 139.662125 273.99006
L 149.059275 273.99006
L 158.456425 273.99006
L 167.853575 273.99006
L 177.250725 273.92001
L 186.647875 273.99006
L 196.045025 273.99006
L 205.442175 273.99006
L 214.839325 273.92001
L 224.236475 273.49971
L 233.633625 273.56976
L 243.030775 273.009359
L 252.427925 273.149459
L 261.825075 272.308859
L 271.222225 271.748458
L 280.619375 269.646956
L 290.016525 269.016506
L 299.413675 266.144453
L 308.810825 265.233803
L 318.207975 262.2917
L 327.605125 260.750599
L 337.002275 259.629798
L 346.399425 254.936444
L 355.796575 252.624792
L 365.193725 246.740587
L 374.590875 244.218785
L 383.988025 237.423929
L 393.385175 232.100124
L 402.782325 227.827071
L 412.179475 214.657659
L 421.576625 204.640501
L 430.973775 199.246646
L 440.370925 182.504682
L 449.768075 171.997173
L 459.165225 152.663356
L 468.562375 142.295948
L 477.959525 133.53969
L 487.356675 134.800591
L 496.753825 129.056486
L 506.150975 148.600453
L 515.548125 161.349564
L 524.945275 168.91497
L 534.342425 207.022203
L 543.739575 219.210913
L 553.136725 233.080825
L 562.533875 249.682689
L 571.931025 261.7313
L 581.328175 264.743452
L 590.725325 269.717006
L 600.122475 271.538308
L 609.519625 272.729159
L 618.916775 272.659109
L 628.313925 273.63981
L 637.711075 273.99006
L 647.108225 273.84996
L 656.505375 273.99006
L 665.902525 273.99006
L 675.299675 273.92001
L 684.696825 273.99006
L 694.093975 273.99006
L 703.491125 273.99006
L 712.888275 273.92001
L 722.285425 273.99006
L 731.682575 273.99006
L 741.079725 273.99006
L 750.476875 273.92001
L 759.874025 273.99006
L 769.271175 273.99006
L 778.668325 273.99006
L 788.065475 273.99006
L 797.462625 273.99006
L 806.859775 273.99006
L 816.256925 273.99006
L 825.654075 273.99006
L 835.051225 273.99006
L 844.448375 273.99006
L 853.845525 273.99006
L 863.242675 273.99006
L 872.639825 273.99006
L 882.036975 273.99006
L 891.434125 273.99006
L 900.831275 273.99006
L 910.228425 273.99006
L 919.625575 273.99006
L 929.022725 273.99006
L 938.419875 273.99006
L 947.817025 273.99006
L 957.214175 273.99006
L 966.611325 273.99006
L 976.008475 273.99006
L 985.405625 273.99006
" style="fill:none;stroke:#f15c80;stroke-linecap:square;"/>
   </g>
   <g id="line2d_14">
    <path clip-path="url(#pcf77459c9d)" d="M 55.087775 273.99006
L 64.484925 273.99006
L 73.882075 273.99006
L 83.279225 273.99006
L 92.676375 273.99006
L 102.073525 273.99006
L 111.470675 273.99006
L 120.867825 273.99006
L 130.264975 273.99006
L 139.662125 273.99006
L 149.059275 273.99006
L 158.456425 273.945322
L 167.853575 273.967691
L 177.250725 273.967691
L 186.647875 273.922953
L 196.045025 273.922953
L 205.442175 273.654524
L 214.839325 273.475572
L 224.236475 273.140036
L 233.633625 272.938714
L 243.030775 272.468964
L 252.427925 271.641308
L 261.825075 270.746546
L 271.222225 269.538616
L 280.619375 267.592508
L 290.016525 267.05565
L 299.413675 264.393732
L 308.810825 262.962112
L 318.207975 259.964657
L 327.605125 257.101417
L 337.002275 254.752666
L 346.399425 252.02364
L 355.796575 248.601173
L 365.193725 243.501027
L 374.590875 241.28649
L 383.988025 233.345472
L 393.385175 227.19398
L 402.782325 222.18331
L 412.179475 212.206708
L 421.576625 201.603772
L 430.973775 193.036421
L 440.370925 185.587523
L 449.768075 177.892565
L 459.165225 170.533143
L 468.562375 158.923599
L 477.959525 154.337942
L 487.356675 151.608916
L 496.753825 156.03799
L 506.150975 158.409111
L 515.548125 167.893594
L 524.945275 171.56212
L 534.342425 204.243321
L 543.739575 211.558005
L 553.136725 225.314979
L 562.533875 237.752178
L 571.931025 249.361722
L 581.328175 258.935681
L 590.725325 263.96872
L 600.122475 268.26358
L 609.519625 270.947867
L 618.916775 271.909737
L 628.313925 273.072928
L 637.711075 273.676893
L 647.108225 273.676893
L 656.505375 273.788738
L 665.902525 273.945322
L 675.299675 273.99006
L 684.696825 273.967691
L 694.093975 273.99006
L 703.491125 273.99006
L 712.888275 273.99006
L 722.285425 273.99006
L 731.682575 273.99006
L 741.079725 273.99006
L 750.476875 273.967691
L 759.874025 273.99006
L 769.271175 273.99006
L 778.668325 273.99006
L 788.065475 273.99006
L 797.462625 273.99006
L 806.859775 273.99006
L 816.256925 273.99006
L 825.654075 273.99006
L 835.051225 273.99006
L 844.448375 273.99006
L 853.845525 273.99006
L 863.242675 273.99006
L 872.639825 273.99006
L 882.036975 273.99006
L 891.434125 273.99006
L 900.831275 273.99006
L 910.228425 273.99006
L 919.625575 273.99006
L 929.022725 273.99006
L 938.419875 273.99006
L 947.817025 273.99006
L 957.214175 273.99006
L 966.611325 273.99006
L 976.008475 273.99006
L 985.405625 273.99006
" style="fill:none;stroke:#e4d354;stroke-linecap:square;"/>
   </g>
   <g id="line2d_15">
    <path clip-path="url(#pcf77459c9d)" d="M 55.087775 273.99006
L 64.484925 273.99006
L 73.882075 273.99006
L 83.279225 273.99006
L 92.676375 273.99006
L 102.073525 273.99006
L 111.470675 273.99006
L 120.867825 273.99006
L 130.264975 273.99006
L 139.662125 273.99006
L 149.059275 273.99006
L 158.456425 273.99006
L 167.853575 273.914498
L 177.250725 273.99006
L 186.647875 273.914498
L 196.045025 273.914498
L 205.442175 273.687811
L 214.839325 273.310001
L 224.236475 272.781066
L 233.633625 273.234439
L 243.030775 272.327693
L 252.427925 271.572071
L 261.825075 269.380769
L 271.222225 266.58497
L 280.619375 264.998165
L 290.016525 263.335798
L 299.413675 260.917809
L 308.810825 257.668637
L 318.207975 254.495027
L 327.605125 248.450056
L 337.002275 246.183192
L 346.399425 238.475853
L 355.796575 236.435676
L 365.193725 233.110941
L 374.590875 225.554727
L 383.988025 219.509756
L 393.385175 210.291175
L 402.782325 204.699576
L 412.179475 199.788037
L 421.576625 186.4891
L 430.973775 178.555075
L 440.370925 168.656435
L 449.768075 161.10022
L 459.165225 149.312526
L 468.562375 146.214478
L 477.959525 146.818976
L 487.356675 150.823769
L 496.753825 162.082528
L 506.150975 176.137087
L 515.548125 190.040521
L 524.945275 210.744547
L 534.342425 238.022481
L 543.739575 246.183192
L 553.136725 256.232957
L 562.533875 264.242544
L 571.931025 268.927397
L 581.328175 270.438639
L 590.725325 272.025444
L 600.122475 273.158876
L 609.519625 273.838936
L 618.916775 273.536687
L 628.313925 273.687811
L 637.711075 273.763374
L 647.108225 273.914498
L 656.505375 273.99006
L 665.902525 273.99006
L 675.299675 273.99006
L 684.696825 273.99006
L 694.093975 273.99006
L 703.491125 273.99006
L 712.888275 273.99006
L 722.285425 273.99006
L 731.682575 273.99006
L 741.079725 273.99006
L 750.476875 273.914498
L 759.874025 273.99006
L 769.271175 273.99006
L 778.668325 273.99006
L 788.065475 273.99006
L 797.462625 273.914498
L 806.859775 273.99006
L 816.256925 273.99006
L 825.654075 273.99006
L 835.051225 273.99006
L 844.448375 273.99006
L 853.845525 273.99006
L 863.242675 273.99006
L 872.639825 273.99006
L 882.036975 273.99006
L 891.434125 273.99006
L 900.831275 273.99006
L 910.228425 273.99006
L 919.625575 273.99006
L 929.022725 273.99006
L 938.419875 273.99006
L 947.817025 273.99006
L 957.214175 273.99006
L 966.611325 273.99006
L 976.008475 273.99006
L 985.405625 273.99006
" style="fill:none;stroke:#2b908f;stroke-linecap:square;"/>
   </g>
   <g id="line2d_16">
    <path clip-path="url(#pcf77459c9d)" d="M 55.087775 273.99006
L 64.484925 273.99006
L 73.882075 273.99006
L 83.279225 273.99006
L 92.676375 273.99006
L 102.073525 273.99006
L 111.470675 273.99006
L 120.867825 273.99006
L 130.264975 273.99006
L 139.662125 273.99006
L 149.059275 273.934599
L 158.456425 273.768215
L 167.853575 273.934599
L 177.250725 273.49091
L 186.647875 273.657293
L 196.045025 273.213604
L 205.442175 272.381686
L 214.839325 271.438847
L 224.236475 271.217002
L 233.633625 269.885934
L 243.030775 268.887633
L 252.427925 266.502803
L 261.825075 264.007051
L 271.222225 262.398677
L 280.619375 258.405474
L 290.016525 258.23909
L 299.413675 252.360207
L 308.810825 249.531688
L 318.207975 247.812392
L 327.605125 240.54698
L 337.002275 236.442854
L 346.399425 235.222708
L 355.796575 227.402684
L 365.193725 222.743947
L 374.590875 216.365913
L 383.988025 208.379506
L 393.385175 203.720768
L 402.782325 196.233511
L 412.179475 188.191643
L 421.576625 178.097712
L 430.973775 174.65912
L 440.370925 166.783635
L 449.768075 158.020771
L 459.165225 155.081329
L 468.562375 150.533514
L 477.959525 157.466159
L 487.356675 165.064339
L 496.753825 182.31276
L 506.150975 199.672103
L 515.548125 219.028049
L 524.945275 227.069917
L 534.342425 250.529989
L 543.739575 257.795401
L 553.136725 264.894429
L 562.533875 268.27756
L 571.931025 271.161541
L 581.328175 272.270764
L 590.725325 273.213604
L 600.122475 273.823677
L 609.519625 273.823677
L 618.916775 273.712754
L 628.313925 273.934599
L 637.711075 273.879138
L 647.108225 273.99006
L 656.505375 273.99006
L 665.902525 273.99006
L 675.299675 273.99006
L 684.696825 273.99006
L 694.093975 273.99006
L 703.491125 273.99006
L 712.888275 273.99006
L 722.285425 273.99006
L 731.682575 273.99006
L 741.079725 273.99006
L 750.476875 273.99006
L 759.874025 273.99006
L 769.271175 273.99006
L 778.668325 273.99006
L 788.065475 273.99006
L 797.462625 273.99006
L 806.859775 273.99006
L 816.256925 273.99006
L 825.654075 273.99006
L 835.051225 273.99006
L 844.448375 273.99006
L 853.845525 273.99006
L 863.242675 273.99006
L 872.639825 273.99006
L 882.036975 273.99006
L 891.434125 273.99006
L 900.831275 273.99006
L 910.228425 273.99006
L 919.625575 273.99006
L 929.022725 273.99006
L 938.419875 273.99006
L 947.817025 273.99006
L 957.214175 273.99006
L 966.611325 273.99006
L 976.008475 273.99006
L 985.405625 273.879138
" style="fill:none;stroke:#f45b5b;stroke-linecap:square;"/>
   </g>
   <g id="line2d_17">
    <path clip-path="url(#pcf77459c9d)" d="M 55.087775 273.99006
L 64.484925 273.99006
L 73.882075 273.99006
L 83.279225 273.99006
L 92.676375 273.99006
L 102.073525 273.99006
L 111.470675 273.99006
L 120.867825 273.99006
L 130.264975 273.99006
L 139.662125 273.99006
L 149.059275 273.99006
L 158.456425 273.99006
L 167.853575 273.99006
L 177.250725 273.99006
L 186.647875 273.99006
L 196.045025 273.99006
L 205.442175 273.99006
L 214.839325 273.99006
L 224.236475 273.99006
L 233.633625 273.99006
L 243.030775 273.99006
L 252.427925 271.771486
L 261.825075 273.99006
L 271.222225 273.99006
L 280.619375 273.99006
L 290.016525 271.771486
L 299.413675 273.99006
L 308.810825 269.552912
L 318.207975 269.552912
L 327.605125 262.89719
L 337.002275 260.678616
L 346.399425 269.552912
L 355.796575 245.148598
L 365.193725 234.055729
L 374.590875 236.274303
L 383.988025 216.307137
L 393.385175 194.121397
L 402.782325 180.809954
L 412.179475 189.684249
L 421.576625 160.842788
L 430.973775 125.345605
L 440.370925 69.881255
L 449.768075 114.252735
L 459.165225 109.815587
L 468.562375 109.815587
L 477.959525 143.094196
L 487.356675 143.094196
L 496.753825 198.558545
L 506.150975 222.962859
L 515.548125 242.930025
L 524.945275 245.148598
L 534.342425 256.241468
L 543.739575 258.460042
L 553.136725 265.115764
L 562.533875 265.115764
L 571.931025 267.334338
L 581.328175 273.99006
L 590.725325 273.99006
L 600.122475 273.99006
L 609.519625 273.99006
L 618.916775 273.99006
L 628.313925 273.99006
L 637.711075 271.771486
L 647.108225 273.99006
L 656.505375 273.99006
L 665.902525 271.771486
L 675.299675 273.99006
L 684.696825 273.99006
L 694.093975 273.99006
L 703.491125 273.99006
L 712.888275 273.99006
L 722.285425 273.99006
L 731.682575 273.99006
L 741.079725 273.99006
L 750.476875 273.99006
L 759.874025 273.99006
L 769.271175 273.99006
L 778.668325 271.771486
L 788.065475 273.99006
L 797.462625 273.99006
L 806.859775 273.99006
L 816.256925 273.99006
L 825.654075 273.99006
L 835.051225 273.99006
L 844.448375 273.99006
L 853.845525 273.99006
L 863.242675 273.99006
L 872.639825 273.99006
L 882.036975 273.99006
L 891.434125 273.99006
L 900.831275 273.99006
L 910.228425 273.99006
L 919.625575 273.99006
L 929.022725 273.99006
L 938.419875 273.99006
L 947.817025 273.99006
L 957.214175 273.99006
L 966.611325 273.99006
L 976.008475 273.99006
L 985.405625 273.99006
" style="fill:none;stroke:#91e8e1;stroke-linecap:square;"/>
   </g>
   <g id="line2d_18">
    <path clip-path="url(#pcf77459c9d)" d="M 55.087775 273.99006
L 64.484925 273.99006
L 73.882075 273.99006
L 83.279225 273.99006
L 92.676375 273.99006
L 102.073525 273.99006
L 111.470675 273.99006
L 120.867825 273.99006
L 130.264975 273.99006
L 139.662125 273.99006
L 149.059275 273.99006
L 158.456425 273.99006
L 167.853575 273.99006
L 177.250725 273.99006
L 186.647875 273.99006
L 196.045025 273.99006
L 205.442175 273.667561
L 214.839325 273.667561
L 224.236475 271.732564
L 233.633625 271.410064
L 243.030775 271.087565
L 252.427925 269.475067
L 261.825075 267.217571
L 271.222225 263.670077
L 280.619375 263.992576
L 290.016525 262.702578
L 299.413675 251.415097
L 308.810825 252.705095
L 318.207975 250.125099
L 327.605125 241.740113
L 337.002275 231.09763
L 346.399425 231.42013
L 355.796575 223.035143
L 365.193725 224.002642
L 374.590875 211.425162
L 383.988025 208.522667
L 393.385175 198.202684
L 402.782325 191.752694
L 412.179475 172.725225
L 421.576625 169.82273
L 430.973775 155.955253
L 440.370925 133.38029
L 449.768075 127.2528
L 459.165225 132.090292
L 468.562375 138.540281
L 477.959525 150.795261
L 487.356675 172.402726
L 496.753825 204.330174
L 506.150975 227.872635
L 515.548125 239.805116
L 524.945275 252.382595
L 534.342425 267.217571
L 543.739575 268.507569
L 553.136725 270.765065
L 562.533875 271.732564
L 571.931025 273.022562
L 581.328175 273.667561
L 590.725325 273.345061
L 600.122475 273.667561
L 609.519625 273.022562
L 618.916775 273.99006
L 628.313925 273.667561
L 637.711075 273.99006
L 647.108225 273.667561
L 656.505375 273.99006
L 665.902525 273.99006
L 675.299675 273.99006
L 684.696825 273.99006
L 694.093975 273.99006
L 703.491125 273.99006
L 712.888275 273.99006
L 722.285425 273.99006
L 731.682575 273.99006
L 741.079725 273.99006
L 750.476875 273.667561
L 759.874025 273.99006
L 769.271175 273.99006
L 778.668325 273.99006
L 788.065475 273.99006
L 797.462625 273.99006
L 806.859775 273.99006
L 816.256925 273.99006
L 825.654075 273.99006
L 835.051225 273.99006
L 844.448375 273.99006
L 853.845525 273.99006
L 863.242675 273.99006
L 872.639825 273.99006
L 882.036975 273.99006
L 891.434125 273.99006
L 900.831275 273.99006
L 910.228425 273.99006
L 919.625575 273.99006
L 929.022725 273.99006
L 938.419875 273.99006
L 947.817025 273.99006
L 957.214175 273.99006
L 966.611325 273.99006
L 976.008475 273.99006
L 985.405625 273.99006
" style="fill:none;stroke:#7cb5ec;stroke-linecap:square;"/>
   </g>
   <g id="line2d_19">
    <path clip-path="url(#pcf77459c9d)" d="M 55.087775 273.99006
L 64.484925 273.99006
L 73.882075 273.99006
L 83.279225 273.99006
L 92.676375 273.99006
L 102.073525 273.99006
L 111.470675 273.99006
L 120.867825 273.99006
L 130.264975 273.99006
L 139.662125 273.99006
L 149.059275 273.99006
L 158.456425 273.99006
L 167.853575 273.99006
L 177.250725 273.874913
L 186.647875 273.874913
L 196.045025 273.817339
L 205.442175 273.702191
L 214.839325 273.356749
L 224.236475 272.665864
L 233.633625 272.665864
L 243.030775 272.377996
L 252.427925 271.284095
L 261.825075 269.269014
L 271.222225 266.678196
L 280.619375 264.547968
L 290.016525 263.051051
L 299.413675 259.769348
L 308.810825 256.372498
L 318.207975 253.954401
L 327.605125 248.657618
L 337.002275 243.188114
L 346.399425 238.524641
L 355.796575 238.985231
L 365.193725 229.024976
L 374.590875 224.131209
L 383.988025 219.352589
L 393.385175 211.119545
L 402.782325 200.6987
L 412.179475 193.559557
L 421.576625 188.090053
L 430.973775 175.654127
L 440.370925 167.133214
L 449.768075 158.209286
L 459.165225 155.733616
L 468.562375 148.421752
L 477.959525 151.01257
L 487.356675 155.330599
L 496.753825 162.1243
L 506.150975 181.929663
L 515.548125 194.020147
L 524.945275 210.313513
L 534.342425 234.436906
L 543.739575 247.90916
L 553.136725 257.236104
L 562.533875 264.087378
L 571.931025 268.059966
L 581.328175 271.341668
L 590.725325 271.974979
L 600.122475 272.838585
L 609.519625 273.644618
L 618.916775 273.874913
L 628.313925 273.874913
L 637.711075 273.874913
L 647.108225 273.932486
L 656.505375 273.932486
L 665.902525 273.99006
L 675.299675 273.874913
L 684.696825 273.99006
L 694.093975 273.99006
L 703.491125 273.932486
L 712.888275 273.99006
L 722.285425 273.99006
L 731.682575 273.99006
L 741.079725 273.99006
L 750.476875 273.99006
L 759.874025 273.99006
L 769.271175 273.99006
L 778.668325 273.99006
L 788.065475 273.99006
L 797.462625 273.99006
L 806.859775 273.99006
L 816.256925 273.99006
L 825.654075 273.99006
L 835.051225 273.99006
L 844.448375 273.99006
L 853.845525 273.99006
L 863.242675 273.99006
L 872.639825 273.99006
L 882.036975 273.99006
L 891.434125 273.99006
L 900.831275 273.99006
L 910.228425 273.99006
L 919.625575 273.99006
L 929.022725 273.99006
L 938.419875 273.99006
L 947.817025 273.99006
L 957.214175 273.99006
L 966.611325 273.99006
L 976.008475 273.99006
L 985.405625 273.99006
" style="fill:none;stroke:#434348;stroke-linecap:square;"/>
   </g>
   <g id="line2d_20">
    <path clip-path="url(#pcf77459c9d)" d="M 55.087775 273.99006
L 64.484925 273.99006
L 73.882075 273.99006
L 83.279225 273.99006
L 92.676375 273.99006
L 102.073525 273.99006
L 111.470675 273.99006
L 120.867825 273.99006
L 130.264975 273.99006
L 139.662125 273.99006
L 149.059275 273.99006
L 158.456425 273.99006
L 167.853575 273.99006
L 177.250725 273.99006
L 186.647875 273.99006
L 196.045025 273.99006
L 205.442175 273.99006
L 214.839325 273.99006
L 224.236475 273.822845
L 233.633625 273.655631
L 243.030775 273.488416
L 252.427925 273.488416
L 261.825075 272.819557
L 271.222225 272.986772
L 280.619375 270.645766
L 290.016525 269.475263
L 299.413675 269.308048
L 308.810825 264.458822
L 318.207975 262.61946
L 327.605125 261.114528
L 337.002275 254.760369
L 346.399425 249.743928
L 355.796575 245.396345
L 365.193725 239.209401
L 374.590875 237.202825
L 383.988025 229.678163
L 393.385175 224.661722
L 402.782325 212.120619
L 412.179475 203.25824
L 421.576625 200.582804
L 430.973775 174.49731
L 440.370925 160.451275
L 449.768075 141.221584
L 459.165225 135.870713
L 468.562375 122.995181
L 477.959525 124.667328
L 487.356675 127.008334
L 496.753825 132.693634
L 506.150975 156.605337
L 515.548125 184.362978
L 524.945275 205.097601
L 534.342425 237.370039
L 543.739575 246.734063
L 553.136725 263.121104
L 562.533875 268.137545
L 571.931025 270.478551
L 581.328175 271.816269
L 590.725325 272.819557
L 600.122475 273.655631
L 609.519625 273.822845
L 618.916775 273.99006
L 628.313925 273.99006
L 637.711075 273.655631
L 647.108225 273.99006
L 656.505375 273.99006
L 665.902525 273.99006
L 675.299675 273.99006
L 684.696825 273.99006
L 694.093975 273.99006
L 703.491125 273.99006
L 712.888275 273.99006
L 722.285425 273.99006
L 731.682575 273.99006
L 741.079725 273.99006
L 750.476875 273.822845
L 759.874025 273.99006
L 769.271175 273.99006
L 778.668325 273.99006
L 788.065475 273.99006
L 797.462625 273.99006
L 806.859775 273.99006
L 816.256925 273.99006
L 825.654075 273.99006
L 835.051225 273.99006
L 844.448375 273.99006
L 853.845525 273.99006
L 863.242675 273.99006
L 872.639825 273.99006
L 882.036975 273.99006
L 891.434125 273.99006
L 900.831275 273.99006
L 910.228425 273.99006
L 919.625575 273.99006
L 929.022725 273.99006
L 938.419875 273.99006
L 947.817025 273.99006
L 957.214175 273.99006
L 966.611325 273.99006
L 976.008475 273.99006
L 985.405625 273.99006
" style="fill:none;stroke:#90ed7d;stroke-linecap:square;"/>
   </g>
   <g id="line2d_21">
    <path clip-path="url(#pcf77459c9d)" d="M 55.087775 273.99006
L 64.484925 273.99006
L 73.882075 273.99006
L 83.279225 273.99006
L 92.676375 273.99006
L 102.073525 273.99006
L 111.470675 273.99006
L 120.867825 273.99006
L 130.264975 273.99006
L 139.662125 273.99006
L 149.059275 273.99006
L 158.456425 273.957288
L 167.853575 273.99006
L 177.250725 273.973674
L 186.647875 273.940902
L 196.045025 273.924516
L 205.442175 273.793428
L 214.839325 273.580409
L 224.236475 273.170759
L 233.633625 273.056056
L 243.030775 272.154825
L 252.427925 271.630472
L 261.825075 270.811171
L 271.222225 269.434744
L 280.619375 267.501193
L 290.016525 266.73105
L 299.413675 264.207602
L 308.810825 261.208958
L 318.207975 259.47204
L 327.605125 255.539393
L 337.002275 253.294507
L 346.399425 249.607651
L 355.796575 245.920795
L 365.193725 240.513406
L 374.590875 234.352259
L 383.988025 229.125116
L 393.385175 222.849268
L 402.782325 215.737732
L 412.179475 207.790509
L 421.576625 196.353061
L 430.973775 186.750849
L 440.370925 178.623379
L 449.768075 170.135417
L 459.165225 163.597392
L 468.562375 154.978342
L 477.959525 152.88093
L 487.356675 156.403926
L 496.753825 158.173617
L 506.150975 166.464947
L 515.548125 178.820012
L 524.945275 181.540092
L 534.342425 212.018104
L 543.739575 219.670379
L 553.136725 233.762362
L 562.533875 244.200262
L 571.931025 254.392371
L 581.328175 262.061032
L 590.725325 265.878976
L 600.122475 269.025094
L 609.519625 271.450226
L 618.916775 272.613634
L 628.313925 273.023284
L 637.711075 273.629567
L 647.108225 273.793428
L 656.505375 273.875358
L 665.902525 273.957288
L 675.299675 273.973674
L 684.696825 273.99006
L 694.093975 273.99006
L 703.491125 273.973674
L 712.888275 273.99006
L 722.285425 273.99006
L 731.682575 273.99006
L 741.079725 273.99006
L 750.476875 273.99006
L 759.874025 273.99006
L 769.271175 273.99006
L 778.668325 273.99006
L 788.065475 273.99006
L 797.462625 273.973674
L 806.859775 273.99006
L 816.256925 273.99006
L 825.654075 273.99006
L 835.051225 273.99006
L 844.448375 273.99006
L 853.845525 273.99006
L 863.242675 273.99006
L 872.639825 273.99006
L 882.036975 273.99006
L 891.434125 273.99006
L 900.831275 273.99006
L 910.228425 273.99006
L 919.625575 273.99006
L 929.022725 273.99006
L 938.419875 273.99006
L 947.817025 273.99006
L 957.214175 273.99006
L 966.611325 273.99006
L 976.008475 273.99006
L 985.405625 273.99006
" style="fill:none;stroke:#f7a35c;stroke-linecap:square;"/>
   </g>
   <g id="line2d_22">
    <path clip-path="url(#pcf77459c9d)" d="M 55.087775 273.99006
L 64.484925 273.99006
L 73.882075 273.99006
L 83.279225 273.99006
L 92.676375 273.99006
L 102.073525 273.99006
L 111.470675 273.99006
L 120.867825 273.99006
L 130.264975 273.99006
L 139.662125 273.99006
L 149.059275 273.99006
L 158.456425 273.99006
L 167.853575 273.99006
L 177.250725 273.99006
L 186.647875 273.99006
L 196.045025 273.99006
L 205.442175 273.99006
L 214.839325 273.99006
L 224.236475 273.99006
L 233.633625 269.865788
L 243.030775 273.99006
L 252.427925 273.99006
L 261.825075 273.99006
L 271.222225 269.865788
L 280.619375 269.865788
L 290.016525 273.99006
L 299.413675 273.99006
L 308.810825 273.99006
L 318.207975 269.865788
L 327.605125 273.99006
L 337.002275 273.99006
L 346.399425 273.99006
L 355.796575 273.99006
L 365.193725 253.368699
L 374.590875 261.617244
L 383.988025 261.617244
L 393.385175 261.617244
L 402.782325 253.368699
L 412.179475 236.871611
L 421.576625 170.883257
L 430.973775 166.758985
L 440.370925 96.646359
L 449.768075 121.391992
L 459.165225 92.522087
L 468.562375 43.030822
L 477.959525 47.155094
L 487.356675 84.273543
L 496.753825 175.007529
L 506.150975 175.007529
L 515.548125 195.62889
L 524.945275 208.001706
L 534.342425 257.492972
L 543.739575 257.492972
L 553.136725 261.617244
L 562.533875 265.741516
L 571.931025 261.617244
L 581.328175 265.741516
L 590.725325 269.865788
L 600.122475 273.99006
L 609.519625 273.99006
L 618.916775 273.99006
L 628.313925 273.99006
L 637.711075 273.99006
L 647.108225 273.99006
L 656.505375 273.99006
L 665.902525 269.865788
L 675.299675 273.99006
L 684.696825 269.865788
L 694.093975 273.99006
L 703.491125 273.99006
L 712.888275 273.99006
L 722.285425 273.99006
L 731.682575 273.99006
L 741.079725 273.99006
L 750.476875 273.99006
L 759.874025 273.99006
L 769.271175 273.99006
L 778.668325 273.99006
L 788.065475 273.99006
L 797.462625 273.99006
L 806.859775 273.99006
L 816.256925 273.99006
L 825.654075 273.99006
L 835.051225 273.99006
L 844.448375 273.99006
L 853.845525 273.99006
L 863.242675 273.99006
L 872.639825 273.99006
L 882.036975 273.99006
L 891.434125 273.99006
L 900.831275 273.99006
L 910.228425 273.99006
L 919.625575 273.99006
L 929.022725 273.99006
L 938.419875 273.99006
L 947.817025 273.99006
L 957.214175 273.99006
L 966.611325 273.99006
L 976.008475 273.99006
L 985.405625 273.99006
" style="fill:none;stroke:#8085e9;stroke-linecap:square;"/>
   </g>
   <g id="line2d_23">
    <path clip-path="url(#pcf77459c9d)" d="M 45.690625 273.99006
L 985.405625 273.99006
" style="fill:none;stroke:#dedede;stroke-linecap:square;stroke-width:2;"/>
   </g>
   <g id="text_16">
    <!-- Qualimap BamQC: GC content distribution -->
    <g transform="translate(346.124375 19.3575)scale(0.16 -0.16)">
     <defs>
      <path d="M 39.40625 66.21875
Q 28.65625 66.21875 22.328125 58.203125
Q 16.015625 50.203125 16.015625 36.375
Q 16.015625 22.609375 22.328125 14.59375
Q 28.65625 6.59375 39.40625 6.59375
Q 50.140625 6.59375 56.421875 14.59375
Q 62.703125 22.609375 62.703125 36.375
Q 62.703125 50.203125 56.421875 58.203125
Q 50.140625 66.21875 39.40625 66.21875
z
M 53.21875 1.3125
L 66.21875 -12.890625
L 54.296875 -12.890625
L 43.5 -1.21875
Q 41.890625 -1.3125 41.03125 -1.359375
Q 40.1875 -1.421875 39.40625 -1.421875
Q 24.03125 -1.421875 14.8125 8.859375
Q 5.609375 19.140625 5.609375 36.375
Q 5.609375 53.65625 14.8125 63.9375
Q 24.03125 74.21875 39.40625 74.21875
Q 54.734375 74.21875 63.90625 63.9375
Q 73.09375 53.65625 73.09375 36.375
Q 73.09375 23.6875 67.984375 14.640625
Q 62.890625 5.609375 53.21875 1.3125
z
" id="DejaVuSans-81"/>
      <path d="M 8.5 21.578125
L 8.5 54.6875
L 17.484375 54.6875
L 17.484375 21.921875
Q 17.484375 14.15625 20.5 10.265625
Q 23.53125 6.390625 29.59375 6.390625
Q 36.859375 6.390625 41.078125 11.03125
Q 45.3125 15.671875 45.3125 23.6875
L 45.3125 54.6875
L 54.296875 54.6875
L 54.296875 0
L 45.3125 0
L 45.3125 8.40625
Q 42.046875 3.421875 37.71875 1
Q 33.40625 -1.421875 27.6875 -1.421875
Q 18.265625 -1.421875 13.375 4.4375
Q 8.5 10.296875 8.5 21.578125
z
M 31.109375 56
z
" id="DejaVuSans-117"/>
      <path d="M 9.421875 75.984375
L 18.40625 75.984375
L 18.40625 0
L 9.421875 0
z
" id="DejaVuSans-108"/>
      <path d="M 52 44.1875
Q 55.375 50.25 60.0625 53.125
Q 64.75 56 71.09375 56
Q 79.640625 56 84.28125 50.015625
Q 88.921875 44.046875 88.921875 33.015625
L 88.921875 0
L 79.890625 0
L 79.890625 32.71875
Q 79.890625 40.578125 77.09375 44.375
Q 74.3125 48.1875 68.609375 48.1875
Q 61.625 48.1875 57.5625 43.546875
Q 53.515625 38.921875 53.515625 30.90625
L 53.515625 0
L 44.484375 0
L 44.484375 32.71875
Q 44.484375 40.625 41.703125 44.40625
Q 38.921875 48.1875 33.109375 48.1875
Q 26.21875 48.1875 22.15625 43.53125
Q 18.109375 38.875 18.109375 30.90625
L 18.109375 0
L 9.078125 0
L 9.078125 54.6875
L 18.109375 54.6875
L 18.109375 46.1875
Q 21.1875 51.21875 25.484375 53.609375
Q 29.78125 56 35.6875 56
Q 41.65625 56 45.828125 52.96875
Q 50 49.953125 52 44.1875
z
" id="DejaVuSans-109"/>
      <path d="M 18.109375 8.203125
L 18.109375 -20.796875
L 9.078125 -20.796875
L 9.078125 54.6875
L 18.109375 54.6875
L 18.109375 46.390625
Q 20.953125 51.265625 25.265625 53.625
Q 29.59375 56 35.59375 56
Q 45.5625 56 51.78125 48.09375
Q 58.015625 40.1875 58.015625 27.296875
Q 58.015625 14.40625 51.78125 6.484375
Q 45.5625 -1.421875 35.59375 -1.421875
Q 29.59375 -1.421875 25.265625 0.953125
Q 20.953125 3.328125 18.109375 8.203125
z
M 48.6875 27.296875
Q 48.6875 37.203125 44.609375 42.84375
Q 40.53125 48.484375 33.40625 48.484375
Q 26.265625 48.484375 22.1875 42.84375
Q 18.109375 37.203125 18.109375 27.296875
Q 18.109375 17.390625 22.1875 11.75
Q 26.265625 6.109375 33.40625 6.109375
Q 40.53125 6.109375 44.609375 11.75
Q 48.6875 17.390625 48.6875 27.296875
z
" id="DejaVuSans-112"/>
      <path d="M 19.671875 34.8125
L 19.671875 8.109375
L 35.5 8.109375
Q 43.453125 8.109375 47.28125 11.40625
Q 51.125 14.703125 51.125 21.484375
Q 51.125 28.328125 47.28125 31.5625
Q 43.453125 34.8125 35.5 34.8125
z
M 19.671875 64.796875
L 19.671875 42.828125
L 34.28125 42.828125
Q 41.5 42.828125 45.03125 45.53125
Q 48.578125 48.25 48.578125 53.8125
Q 48.578125 59.328125 45.03125 62.0625
Q 41.5 64.796875 34.28125 64.796875
z
M 9.8125 72.90625
L 35.015625 72.90625
Q 46.296875 72.90625 52.390625 68.21875
Q 58.5 63.53125 58.5 54.890625
Q 58.5 48.1875 55.375 44.234375
Q 52.25 40.28125 46.1875 39.3125
Q 53.46875 37.75 57.5 32.78125
Q 61.53125 27.828125 61.53125 20.40625
Q 61.53125 10.640625 54.890625 5.3125
Q 48.25 0 35.984375 0
L 9.8125 0
z
" id="DejaVuSans-66"/>
      <path d="M 11.71875 12.40625
L 22.015625 12.40625
L 22.015625 0
L 11.71875 0
z
M 11.71875 51.703125
L 22.015625 51.703125
L 22.015625 39.3125
L 11.71875 39.3125
z
" id="DejaVuSans-58"/>
      <path d="M 48.6875 27.296875
Q 48.6875 37.203125 44.609375 42.84375
Q 40.53125 48.484375 33.40625 48.484375
Q 26.265625 48.484375 22.1875 42.84375
Q 18.109375 37.203125 18.109375 27.296875
Q 18.109375 17.390625 22.1875 11.75
Q 26.265625 6.109375 33.40625 6.109375
Q 40.53125 6.109375 44.609375 11.75
Q 48.6875 17.390625 48.6875 27.296875
z
M 18.109375 46.390625
Q 20.953125 51.265625 25.265625 53.625
Q 29.59375 56 35.59375 56
Q 45.5625 56 51.78125 48.09375
Q 58.015625 40.1875 58.015625 27.296875
Q 58.015625 14.40625 51.78125 6.484375
Q 45.5625 -1.421875 35.59375 -1.421875
Q 29.59375 -1.421875 25.265625 0.953125
Q 20.953125 3.328125 18.109375 8.203125
L 18.109375 0
L 9.078125 0
L 9.078125 75.984375
L 18.109375 75.984375
z
" id="DejaVuSans-98"/>
     </defs>
     <use xlink:href="#DejaVuSans-81"/>
     <use x="78.710938" xlink:href="#DejaVuSans-117"/>
     <use x="142.089844" xlink:href="#DejaVuSans-97"/>
     <use x="203.369141" xlink:href="#DejaVuSans-108"/>
     <use x="231.152344" xlink:href="#DejaVuSans-105"/>
     <use x="258.935547" xlink:href="#DejaVuSans-109"/>
     <use x="356.347656" xlink:href="#DejaVuSans-97"/>
     <use x="417.626953" xlink:href="#DejaVuSans-112"/>
     <use x="481.103516" xlink:href="#DejaVuSans-32"/>
     <use x="512.890625" xlink:href="#DejaVuSans-66"/>
     <use x="581.494141" xlink:href="#DejaVuSans-97"/>
     <use x="642.773438" xlink:href="#DejaVuSans-109"/>
     <use x="740.185547" xlink:href="#DejaVuSans-81"/>
     <use x="818.896484" xlink:href="#DejaVuSans-67"/>
     <use x="888.720703" xlink:href="#DejaVuSans-58"/>
     <use x="922.412109" xlink:href="#DejaVuSans-32"/>
     <use x="954.199219" xlink:href="#DejaVuSans-71"/>
     <use x="1031.689453" xlink:href="#DejaVuSans-67"/>
     <use x="1101.513672" xlink:href="#DejaVuSans-32"/>
     <use x="1133.300781" xlink:href="#DejaVuSans-99"/>
     <use x="1188.28125" xlink:href="#DejaVuSans-111"/>
     <use x="1249.462891" xlink:href="#DejaVuSans-110"/>
     <use x="1312.841797" xlink:href="#DejaVuSans-116"/>
     <use x="1352.050781" xlink:href="#DejaVuSans-101"/>
     <use x="1413.574219" xlink:href="#DejaVuSans-110"/>
     <use x="1476.953125" xlink:href="#DejaVuSans-116"/>
     <use x="1516.162109" xlink:href="#DejaVuSans-32"/>
     <use x="1547.949219" xlink:href="#DejaVuSans-100"/>
     <use x="1611.425781" xlink:href="#DejaVuSans-105"/>
     <use x="1639.208984" xlink:href="#DejaVuSans-115"/>
     <use x="1691.308594" xlink:href="#DejaVuSans-116"/>
     <use x="1730.517578" xlink:href="#DejaVuSans-114"/>
     <use x="1771.630859" xlink:href="#DejaVuSans-105"/>
     <use x="1799.414062" xlink:href="#DejaVuSans-98"/>
     <use x="1862.890625" xlink:href="#DejaVuSans-117"/>
     <use x="1926.269531" xlink:href="#DejaVuSans-116"/>
     <use x="1965.478516" xlink:href="#DejaVuSans-105"/>
     <use x="1993.261719" xlink:href="#DejaVuSans-111"/>
     <use x="2054.443359" xlink:href="#DejaVuSans-110"/>
    </g>
   </g>
   <g id="legend_1">
    <g id="line2d_24">
     <path d="M 52.890625 292.192894
L 68.890625 292.192894
" style="fill:none;stroke:#7cb5ec;stroke-linecap:square;"/>
    </g>
    <g id="line2d_25"/>
    <g id="text_17">
     <!-- D24 -->
     <g transform="translate(75.290625 294.992894)scale(0.08 -0.08)">
      <defs>
       <path d="M 19.671875 64.796875
L 19.671875 8.109375
L 31.59375 8.109375
Q 46.6875 8.109375 53.6875 14.9375
Q 60.6875 21.78125 60.6875 36.53125
Q 60.6875 51.171875 53.6875 57.984375
Q 46.6875 64.796875 31.59375 64.796875
z
M 9.8125 72.90625
L 30.078125 72.90625
Q 51.265625 72.90625 61.171875 64.09375
Q 71.09375 55.28125 71.09375 36.53125
Q 71.09375 17.671875 61.125 8.828125
Q 51.171875 0 30.078125 0
L 9.8125 0
z
" id="DejaVuSans-68"/>
      </defs>
      <use xlink:href="#DejaVuSans-68"/>
      <use x="77.001953" xlink:href="#DejaVuSans-50"/>
      <use x="140.625" xlink:href="#DejaVuSans-52"/>
     </g>
    </g>
    <g id="line2d_26">
     <path d="M 52.890625 303.935394
L 68.890625 303.935394
" style="fill:none;stroke:#434348;stroke-linecap:square;"/>
    </g>
    <g id="line2d_27"/>
    <g id="text_18">
     <!-- D25 -->
     <g transform="translate(75.290625 306.735394)scale(0.08 -0.08)">
      <defs>
       <path d="M 10.796875 72.90625
L 49.515625 72.90625
L 49.515625 64.59375
L 19.828125 64.59375
L 19.828125 46.734375
Q 21.96875 47.46875 24.109375 47.828125
Q 26.265625 48.1875 28.421875 48.1875
Q 40.625 48.1875 47.75 41.5
Q 54.890625 34.8125 54.890625 23.390625
Q 54.890625 11.625 47.5625 5.09375
Q 40.234375 -1.421875 26.90625 -1.421875
Q 22.3125 -1.421875 17.546875 -0.640625
Q 12.796875 0.140625 7.71875 1.703125
L 7.71875 11.625
Q 12.109375 9.234375 16.796875 8.0625
Q 21.484375 6.890625 26.703125 6.890625
Q 35.15625 6.890625 40.078125 11.328125
Q 45.015625 15.765625 45.015625 23.390625
Q 45.015625 31 40.078125 35.4375
Q 35.15625 39.890625 26.703125 39.890625
Q 22.75 39.890625 18.8125 39.015625
Q 14.890625 38.140625 10.796875 36.28125
z
" id="DejaVuSans-53"/>
      </defs>
      <use xlink:href="#DejaVuSans-68"/>
      <use x="77.001953" xlink:href="#DejaVuSans-50"/>
      <use x="140.625" xlink:href="#DejaVuSans-53"/>
     </g>
    </g>
    <g id="line2d_28">
     <path d="M 52.890625 315.677894
L 68.890625 315.677894
" style="fill:none;stroke:#90ed7d;stroke-linecap:square;"/>
    </g>
    <g id="line2d_29"/>
    <g id="text_19">
     <!-- D51 -->
     <g transform="translate(75.290625 318.477894)scale(0.08 -0.08)">
      <use xlink:href="#DejaVuSans-68"/>
      <use x="77.001953" xlink:href="#DejaVuSans-53"/>
      <use x="140.625" xlink:href="#DejaVuSans-49"/>
     </g>
    </g>
    <g id="line2d_30">
     <path d="M 272.807813 292.192894
L 288.807813 292.192894
" style="fill:none;stroke:#f7a35c;stroke-linecap:square;"/>
    </g>
    <g id="line2d_31"/>
    <g id="text_20">
     <!-- D62 -->
     <g transform="translate(295.207813 294.992894)scale(0.08 -0.08)">
      <use xlink:href="#DejaVuSans-68"/>
      <use x="77.001953" xlink:href="#DejaVuSans-54"/>
      <use x="140.625" xlink:href="#DejaVuSans-50"/>
     </g>
    </g>
    <g id="line2d_32">
     <path d="M 272.807813 303.935394
L 288.807813 303.935394
" style="fill:none;stroke:#8085e9;stroke-linecap:square;"/>
    </g>
    <g id="line2d_33"/>
    <g id="text_21">
     <!-- D71 -->
     <g transform="translate(295.207813 306.735394)scale(0.08 -0.08)">
      <defs>
       <path d="M 8.203125 72.90625
L 55.078125 72.90625
L 55.078125 68.703125
L 28.609375 0
L 18.3125 0
L 43.21875 64.59375
L 8.203125 64.59375
z
" id="DejaVuSans-55"/>
      </defs>
      <use xlink:href="#DejaVuSans-68"/>
      <use x="77.001953" xlink:href="#DejaVuSans-55"/>
      <use x="140.625" xlink:href="#DejaVuSans-49"/>
     </g>
    </g>
    <g id="line2d_34">
     <path d="M 272.807813 315.677894
L 288.807813 315.677894
" style="fill:none;stroke:#f15c80;stroke-linecap:square;"/>
    </g>
    <g id="line2d_35"/>
    <g id="text_22">
     <!-- D72 -->
     <g transform="translate(295.207813 318.477894)scale(0.08 -0.08)">
      <use xlink:href="#DejaVuSans-68"/>
      <use x="77.001953" xlink:href="#DejaVuSans-55"/>
      <use x="140.625" xlink:href="#DejaVuSans-50"/>
     </g>
    </g>
    <g id="line2d_36">
     <path d="M 492.725 292.192894
L 508.725 292.192894
" style="fill:none;stroke:#e4d354;stroke-linecap:square;"/>
    </g>
    <g id="line2d_37"/>
    <g id="text_23">
     <!-- D75 -->
     <g transform="translate(515.125 294.992894)scale(0.08 -0.08)">
      <use xlink:href="#DejaVuSans-68"/>
      <use x="77.001953" xlink:href="#DejaVuSans-55"/>
      <use x="140.625" xlink:href="#DejaVuSans-53"/>
     </g>
    </g>
    <g id="line2d_38">
     <path d="M 492.725 303.935394
L 508.725 303.935394
" style="fill:none;stroke:#2b908f;stroke-linecap:square;"/>
    </g>
    <g id="line2d_39"/>
    <g id="text_24">
     <!-- P187 -->
     <g transform="translate(515.125 306.735394)scale(0.08 -0.08)">
      <defs>
       <path d="M 19.671875 64.796875
L 19.671875 37.40625
L 32.078125 37.40625
Q 38.96875 37.40625 42.71875 40.96875
Q 46.484375 44.53125 46.484375 51.125
Q 46.484375 57.671875 42.71875 61.234375
Q 38.96875 64.796875 32.078125 64.796875
z
M 9.8125 72.90625
L 32.078125 72.90625
Q 44.34375 72.90625 50.609375 67.359375
Q 56.890625 61.8125 56.890625 51.125
Q 56.890625 40.328125 50.609375 34.8125
Q 44.34375 29.296875 32.078125 29.296875
L 19.671875 29.296875
L 19.671875 0
L 9.8125 0
z
" id="DejaVuSans-80"/>
      </defs>
      <use xlink:href="#DejaVuSans-80"/>
      <use x="60.302734" xlink:href="#DejaVuSans-49"/>
      <use x="123.925781" xlink:href="#DejaVuSans-56"/>
      <use x="187.548828" xlink:href="#DejaVuSans-55"/>
     </g>
    </g>
    <g id="line2d_40">
     <path d="M 492.725 315.677894
L 508.725 315.677894
" style="fill:none;stroke:#f45b5b;stroke-linecap:square;"/>
    </g>
    <g id="line2d_41"/>
    <g id="text_25">
     <!-- P212 -->
     <g transform="translate(515.125 318.477894)scale(0.08 -0.08)">
      <use xlink:href="#DejaVuSans-80"/>
      <use x="60.302734" xlink:href="#DejaVuSans-50"/>
      <use x="123.925781" xlink:href="#DejaVuSans-49"/>
      <use x="187.548828" xlink:href="#DejaVuSans-50"/>
     </g>
    </g>
    <g id="line2d_42">
     <path d="M 716.395938 292.192894
L 732.395938 292.192894
" style="fill:none;stroke:#91e8e1;stroke-linecap:square;"/>
    </g>
    <g id="line2d_43"/>
    <g id="text_26">
     <!-- P246 -->
     <g transform="translate(738.795938 294.992894)scale(0.08 -0.08)">
      <use xlink:href="#DejaVuSans-80"/>
      <use x="60.302734" xlink:href="#DejaVuSans-50"/>
      <use x="123.925781" xlink:href="#DejaVuSans-52"/>
      <use x="187.548828" xlink:href="#DejaVuSans-54"/>
     </g>
    </g>
    <g id="line2d_44">
     <path d="M 716.395938 303.935394
L 732.395938 303.935394
" style="fill:none;stroke:#7cb5ec;stroke-linecap:square;"/>
    </g>
    <g id="line2d_45"/>
    <g id="text_27">
     <!-- P384 -->
     <g transform="translate(738.795938 306.735394)scale(0.08 -0.08)">
      <defs>
       <path d="M 40.578125 39.3125
Q 47.65625 37.796875 51.625 33
Q 55.609375 28.21875 55.609375 21.1875
Q 55.609375 10.40625 48.1875 4.484375
Q 40.765625 -1.421875 27.09375 -1.421875
Q 22.515625 -1.421875 17.65625 -0.515625
Q 12.796875 0.390625 7.625 2.203125
L 7.625 11.71875
Q 11.71875 9.328125 16.59375 8.109375
Q 21.484375 6.890625 26.8125 6.890625
Q 36.078125 6.890625 40.9375 10.546875
Q 45.796875 14.203125 45.796875 21.1875
Q 45.796875 27.640625 41.28125 31.265625
Q 36.765625 34.90625 28.71875 34.90625
L 20.21875 34.90625
L 20.21875 43.015625
L 29.109375 43.015625
Q 36.375 43.015625 40.234375 45.921875
Q 44.09375 48.828125 44.09375 54.296875
Q 44.09375 59.90625 40.109375 62.90625
Q 36.140625 65.921875 28.71875 65.921875
Q 24.65625 65.921875 20.015625 65.03125
Q 15.375 64.15625 9.8125 62.3125
L 9.8125 71.09375
Q 15.4375 72.65625 20.34375 73.4375
Q 25.25 74.21875 29.59375 74.21875
Q 40.828125 74.21875 47.359375 69.109375
Q 53.90625 64.015625 53.90625 55.328125
Q 53.90625 49.265625 50.4375 45.09375
Q 46.96875 40.921875 40.578125 39.3125
z
" id="DejaVuSans-51"/>
      </defs>
      <use xlink:href="#DejaVuSans-80"/>
      <use x="60.302734" xlink:href="#DejaVuSans-51"/>
      <use x="123.925781" xlink:href="#DejaVuSans-56"/>
      <use x="187.548828" xlink:href="#DejaVuSans-52"/>
     </g>
    </g>
    <g id="line2d_46">
     <path d="M 716.395938 315.677894
L 732.395938 315.677894
" style="fill:none;stroke:#434348;stroke-linecap:square;"/>
    </g>
    <g id="line2d_47"/>
    <g id="text_28">
     <!-- P387 -->
     <g transform="translate(738.795938 318.477894)scale(0.08 -0.08)">
      <use xlink:href="#DejaVuSans-80"/>
      <use x="60.302734" xlink:href="#DejaVuSans-51"/>
      <use x="123.925781" xlink:href="#DejaVuSans-56"/>
      <use x="187.548828" xlink:href="#DejaVuSans-55"/>
     </g>
    </g>
    <g id="line2d_48">
     <path d="M 940.066875 292.192894
L 956.066875 292.192894
" style="fill:none;stroke:#90ed7d;stroke-linecap:square;"/>
    </g>
    <g id="line2d_49"/>
    <g id="text_29">
     <!-- R21 -->
     <g transform="translate(962.466875 294.992894)scale(0.08 -0.08)">
      <defs>
       <path d="M 44.390625 34.1875
Q 47.5625 33.109375 50.5625 29.59375
Q 53.5625 26.078125 56.59375 19.921875
L 66.609375 0
L 56 0
L 46.6875 18.703125
Q 43.0625 26.03125 39.671875 28.421875
Q 36.28125 30.8125 30.421875 30.8125
L 19.671875 30.8125
L 19.671875 0
L 9.8125 0
L 9.8125 72.90625
L 32.078125 72.90625
Q 44.578125 72.90625 50.734375 67.671875
Q 56.890625 62.453125 56.890625 51.90625
Q 56.890625 45.015625 53.6875 40.46875
Q 50.484375 35.9375 44.390625 34.1875
z
M 19.671875 64.796875
L 19.671875 38.921875
L 32.078125 38.921875
Q 39.203125 38.921875 42.84375 42.21875
Q 46.484375 45.515625 46.484375 51.90625
Q 46.484375 58.296875 42.84375 61.546875
Q 39.203125 64.796875 32.078125 64.796875
z
" id="DejaVuSans-82"/>
      </defs>
      <use xlink:href="#DejaVuSans-82"/>
      <use x="69.482422" xlink:href="#DejaVuSans-50"/>
      <use x="133.105469" xlink:href="#DejaVuSans-49"/>
     </g>
    </g>
    <g id="line2d_50">
     <path d="M 940.066875 303.935394
L 956.066875 303.935394
" style="fill:none;stroke:#f7a35c;stroke-linecap:square;"/>
    </g>
    <g id="line2d_51"/>
    <g id="text_30">
     <!-- R36 -->
     <g transform="translate(962.466875 306.735394)scale(0.08 -0.08)">
      <use xlink:href="#DejaVuSans-82"/>
      <use x="69.482422" xlink:href="#DejaVuSans-51"/>
      <use x="133.105469" xlink:href="#DejaVuSans-54"/>
     </g>
    </g>
    <g id="line2d_52">
     <path d="M 940.066875 315.677894
L 956.066875 315.677894
" style="fill:none;stroke:#8085e9;stroke-linecap:square;"/>
    </g>
    <g id="line2d_53"/>
    <g id="text_31">
     <!-- R44 -->
     <g transform="translate(962.466875 318.477894)scale(0.08 -0.08)">
      <use xlink:href="#DejaVuSans-82"/>
      <use x="69.482422" xlink:href="#DejaVuSans-52"/>
      <use x="133.105469" xlink:href="#DejaVuSans-52"/>
     </g>
    </g>
   </g>
  </g>
 </g>
 <defs>
  <clipPath id="pcf77459c9d">
   <rect height="242.5072" width="939.715" x="45.690625" y="31.48286"/>
  </clipPath>
 </defs>
</svg>
