<?xml version="1.0" encoding="utf-8" standalone="no"?>
<!DOCTYPE svg PUBLIC "-//W3C//DTD SVG 1.1//EN"
  "http://www.w3.org/Graphics/SVG/1.1/DTD/svg11.dtd">
<!-- Created with matplotlib (https://matplotlib.org/) -->
<svg height="388.844525pt" version="1.1" viewBox="0 0 1000.158125 388.844525" width="1000.158125pt" xmlns="http://www.w3.org/2000/svg" xmlns:xlink="http://www.w3.org/1999/xlink">
 <metadata>
  <rdf:RDF xmlns:cc="http://creativecommons.org/ns#" xmlns:dc="http://purl.org/dc/elements/1.1/" xmlns:rdf="http://www.w3.org/1999/02/22-rdf-syntax-ns#">
   <cc:Work>
    <dc:type rdf:resource="http://purl.org/dc/dcmitype/StillImage"/>
    <dc:date>2021-03-05T10:30:36.531648</dc:date>
    <dc:format>image/svg+xml</dc:format>
    <dc:creator>
     <cc:Agent>
      <dc:title>Matplotlib v3.3.2, https://matplotlib.org/</dc:title>
     </cc:Agent>
    </dc:creator>
   </cc:Work>
  </rdf:RDF>
 </metadata>
 <defs>
  <style type="text/css">*{stroke-linecap:butt;stroke-linejoin:round;}</style>
 </defs>
 <g id="figure_1">
  <g id="axes_1">
   <g id="patch_1">
    <path d="M 58.418125 353.2239
L 992.958125 353.2239
L 992.958125 35.2559
L 58.418125 35.2559
z
" style="fill:#ffffff;"/>
   </g>
   <g id="matplotlib.axis_1">
    <g id="xtick_1">
     <g id="text_1">
      <!-- 0 -->
      <g transform="translate(98.352216 366.30265)scale(0.08 -0.08)">
       <defs>
        <path d="M 31.78125 66.40625
Q 24.171875 66.40625 20.328125 58.90625
Q 16.5 51.421875 16.5 36.375
Q 16.5 21.390625 20.328125 13.890625
Q 24.171875 6.390625 31.78125 6.390625
Q 39.453125 6.390625 43.28125 13.890625
Q 47.125 21.390625 47.125 36.375
Q 47.125 51.421875 43.28125 58.90625
Q 39.453125 66.40625 31.78125 66.40625
z
M 31.78125 74.21875
Q 44.046875 74.21875 50.515625 64.515625
Q 56.984375 54.828125 56.984375 36.375
Q 56.984375 17.96875 50.515625 8.265625
Q 44.046875 -1.421875 31.78125 -1.421875
Q 19.53125 -1.421875 13.0625 8.265625
Q 6.59375 17.96875 6.59375 36.375
Q 6.59375 54.828125 13.0625 64.515625
Q 19.53125 74.21875 31.78125 74.21875
z
" id="DejaVuSans-48"/>
       </defs>
       <use xlink:href="#DejaVuSans-48"/>
      </g>
     </g>
    </g>
    <g id="xtick_2">
     <g id="text_2">
      <!-- 25 -->
      <g transform="translate(220.015084 366.30265)scale(0.08 -0.08)">
       <defs>
        <path d="M 19.1875 8.296875
L 53.609375 8.296875
L 53.609375 0
L 7.328125 0
L 7.328125 8.296875
Q 12.9375 14.109375 22.625 23.890625
Q 32.328125 33.6875 34.8125 36.53125
Q 39.546875 41.84375 41.421875 45.53125
Q 43.3125 49.21875 43.3125 52.78125
Q 43.3125 58.59375 39.234375 62.25
Q 35.15625 65.921875 28.609375 65.921875
Q 23.96875 65.921875 18.8125 64.3125
Q 13.671875 62.703125 7.8125 59.421875
L 7.8125 69.390625
Q 13.765625 71.78125 18.9375 73
Q 24.125 74.21875 28.421875 74.21875
Q 39.75 74.21875 46.484375 68.546875
Q 53.21875 62.890625 53.21875 53.421875
Q 53.21875 48.921875 51.53125 44.890625
Q 49.859375 40.875 45.40625 35.40625
Q 44.1875 33.984375 37.640625 27.21875
Q 31.109375 20.453125 19.1875 8.296875
z
" id="DejaVuSans-50"/>
        <path d="M 10.796875 72.90625
L 49.515625 72.90625
L 49.515625 64.59375
L 19.828125 64.59375
L 19.828125 46.734375
Q 21.96875 47.46875 24.109375 47.828125
Q 26.265625 48.1875 28.421875 48.1875
Q 40.625 48.1875 47.75 41.5
Q 54.890625 34.8125 54.890625 23.390625
Q 54.890625 11.625 47.5625 5.09375
Q 40.234375 -1.421875 26.90625 -1.421875
Q 22.3125 -1.421875 17.546875 -0.640625
Q 12.796875 0.140625 7.71875 1.703125
L 7.71875 11.625
Q 12.109375 9.234375 16.796875 8.0625
Q 21.484375 6.890625 26.703125 6.890625
Q 35.15625 6.890625 40.078125 11.328125
Q 45.015625 15.765625 45.015625 23.390625
Q 45.015625 31 40.078125 35.4375
Q 35.15625 39.890625 26.703125 39.890625
Q 22.75 39.890625 18.8125 39.015625
Q 14.890625 38.140625 10.796875 36.28125
z
" id="DejaVuSans-53"/>
       </defs>
       <use xlink:href="#DejaVuSans-50"/>
       <use x="63.623047" xlink:href="#DejaVuSans-53"/>
      </g>
     </g>
    </g>
    <g id="xtick_3">
     <g id="text_3">
      <!-- 50 -->
      <g transform="translate(344.222952 366.30265)scale(0.08 -0.08)">
       <use xlink:href="#DejaVuSans-53"/>
       <use x="63.623047" xlink:href="#DejaVuSans-48"/>
      </g>
     </g>
    </g>
    <g id="xtick_4">
     <g id="text_4">
      <!-- 75 -->
      <g transform="translate(468.43082 366.30265)scale(0.08 -0.08)">
       <defs>
        <path d="M 8.203125 72.90625
L 55.078125 72.90625
L 55.078125 68.703125
L 28.609375 0
L 18.3125 0
L 43.21875 64.59375
L 8.203125 64.59375
z
" id="DejaVuSans-55"/>
       </defs>
       <use xlink:href="#DejaVuSans-55"/>
       <use x="63.623047" xlink:href="#DejaVuSans-53"/>
      </g>
     </g>
    </g>
    <g id="xtick_5">
     <g id="text_5">
      <!-- 100 -->
      <g transform="translate(590.093689 366.30265)scale(0.08 -0.08)">
       <defs>
        <path d="M 12.40625 8.296875
L 28.515625 8.296875
L 28.515625 63.921875
L 10.984375 60.40625
L 10.984375 69.390625
L 28.421875 72.90625
L 38.28125 72.90625
L 38.28125 8.296875
L 54.390625 8.296875
L 54.390625 0
L 12.40625 0
z
" id="DejaVuSans-49"/>
       </defs>
       <use xlink:href="#DejaVuSans-49"/>
       <use x="63.623047" xlink:href="#DejaVuSans-48"/>
       <use x="127.246094" xlink:href="#DejaVuSans-48"/>
      </g>
     </g>
    </g>
    <g id="xtick_6">
     <g id="text_6">
      <!-- 125 -->
      <g transform="translate(714.301557 366.30265)scale(0.08 -0.08)">
       <use xlink:href="#DejaVuSans-49"/>
       <use x="63.623047" xlink:href="#DejaVuSans-50"/>
       <use x="127.246094" xlink:href="#DejaVuSans-53"/>
      </g>
     </g>
    </g>
    <g id="xtick_7">
     <g id="text_7">
      <!-- 150 -->
      <g transform="translate(838.509425 366.30265)scale(0.08 -0.08)">
       <use xlink:href="#DejaVuSans-49"/>
       <use x="63.623047" xlink:href="#DejaVuSans-53"/>
       <use x="127.246094" xlink:href="#DejaVuSans-48"/>
      </g>
     </g>
    </g>
    <g id="xtick_8">
     <g id="text_8">
      <!-- 175 -->
      <g transform="translate(962.717293 366.30265)scale(0.08 -0.08)">
       <use xlink:href="#DejaVuSans-49"/>
       <use x="63.623047" xlink:href="#DejaVuSans-55"/>
       <use x="127.246094" xlink:href="#DejaVuSans-53"/>
      </g>
     </g>
    </g>
    <g id="text_9">
     <!-- read length -->
     <g transform="translate(496.90375 379.564837)scale(0.1 -0.1)">
      <defs>
       <path d="M 41.109375 46.296875
Q 39.59375 47.171875 37.8125 47.578125
Q 36.03125 48 33.890625 48
Q 26.265625 48 22.1875 43.046875
Q 18.109375 38.09375 18.109375 28.8125
L 18.109375 0
L 9.078125 0
L 9.078125 54.6875
L 18.109375 54.6875
L 18.109375 46.1875
Q 20.953125 51.171875 25.484375 53.578125
Q 30.03125 56 36.53125 56
Q 37.453125 56 38.578125 55.875
Q 39.703125 55.765625 41.0625 55.515625
z
" id="DejaVuSans-114"/>
       <path d="M 56.203125 29.59375
L 56.203125 25.203125
L 14.890625 25.203125
Q 15.484375 15.921875 20.484375 11.0625
Q 25.484375 6.203125 34.421875 6.203125
Q 39.59375 6.203125 44.453125 7.46875
Q 49.3125 8.734375 54.109375 11.28125
L 54.109375 2.78125
Q 49.265625 0.734375 44.1875 -0.34375
Q 39.109375 -1.421875 33.890625 -1.421875
Q 20.796875 -1.421875 13.15625 6.1875
Q 5.515625 13.8125 5.515625 26.8125
Q 5.515625 40.234375 12.765625 48.109375
Q 20.015625 56 32.328125 56
Q 43.359375 56 49.78125 48.890625
Q 56.203125 41.796875 56.203125 29.59375
z
M 47.21875 32.234375
Q 47.125 39.59375 43.09375 43.984375
Q 39.0625 48.390625 32.421875 48.390625
Q 24.90625 48.390625 20.390625 44.140625
Q 15.875 39.890625 15.1875 32.171875
z
" id="DejaVuSans-101"/>
       <path d="M 34.28125 27.484375
Q 23.390625 27.484375 19.1875 25
Q 14.984375 22.515625 14.984375 16.5
Q 14.984375 11.71875 18.140625 8.90625
Q 21.296875 6.109375 26.703125 6.109375
Q 34.1875 6.109375 38.703125 11.40625
Q 43.21875 16.703125 43.21875 25.484375
L 43.21875 27.484375
z
M 52.203125 31.203125
L 52.203125 0
L 43.21875 0
L 43.21875 8.296875
Q 40.140625 3.328125 35.546875 0.953125
Q 30.953125 -1.421875 24.3125 -1.421875
Q 15.921875 -1.421875 10.953125 3.296875
Q 6 8.015625 6 15.921875
Q 6 25.140625 12.171875 29.828125
Q 18.359375 34.515625 30.609375 34.515625
L 43.21875 34.515625
L 43.21875 35.40625
Q 43.21875 41.609375 39.140625 45
Q 35.0625 48.390625 27.6875 48.390625
Q 23 48.390625 18.546875 47.265625
Q 14.109375 46.140625 10.015625 43.890625
L 10.015625 52.203125
Q 14.9375 54.109375 19.578125 55.046875
Q 24.21875 56 28.609375 56
Q 40.484375 56 46.34375 49.84375
Q 52.203125 43.703125 52.203125 31.203125
z
" id="DejaVuSans-97"/>
       <path d="M 45.40625 46.390625
L 45.40625 75.984375
L 54.390625 75.984375
L 54.390625 0
L 45.40625 0
L 45.40625 8.203125
Q 42.578125 3.328125 38.25 0.953125
Q 33.9375 -1.421875 27.875 -1.421875
Q 17.96875 -1.421875 11.734375 6.484375
Q 5.515625 14.40625 5.515625 27.296875
Q 5.515625 40.1875 11.734375 48.09375
Q 17.96875 56 27.875 56
Q 33.9375 56 38.25 53.625
Q 42.578125 51.265625 45.40625 46.390625
z
M 14.796875 27.296875
Q 14.796875 17.390625 18.875 11.75
Q 22.953125 6.109375 30.078125 6.109375
Q 37.203125 6.109375 41.296875 11.75
Q 45.40625 17.390625 45.40625 27.296875
Q 45.40625 37.203125 41.296875 42.84375
Q 37.203125 48.484375 30.078125 48.484375
Q 22.953125 48.484375 18.875 42.84375
Q 14.796875 37.203125 14.796875 27.296875
z
" id="DejaVuSans-100"/>
       <path id="DejaVuSans-32"/>
       <path d="M 9.421875 75.984375
L 18.40625 75.984375
L 18.40625 0
L 9.421875 0
z
" id="DejaVuSans-108"/>
       <path d="M 54.890625 33.015625
L 54.890625 0
L 45.90625 0
L 45.90625 32.71875
Q 45.90625 40.484375 42.875 44.328125
Q 39.84375 48.1875 33.796875 48.1875
Q 26.515625 48.1875 22.3125 43.546875
Q 18.109375 38.921875 18.109375 30.90625
L 18.109375 0
L 9.078125 0
L 9.078125 54.6875
L 18.109375 54.6875
L 18.109375 46.1875
Q 21.34375 51.125 25.703125 53.5625
Q 30.078125 56 35.796875 56
Q 45.21875 56 50.046875 50.171875
Q 54.890625 44.34375 54.890625 33.015625
z
" id="DejaVuSans-110"/>
       <path d="M 45.40625 27.984375
Q 45.40625 37.75 41.375 43.109375
Q 37.359375 48.484375 30.078125 48.484375
Q 22.859375 48.484375 18.828125 43.109375
Q 14.796875 37.75 14.796875 27.984375
Q 14.796875 18.265625 18.828125 12.890625
Q 22.859375 7.515625 30.078125 7.515625
Q 37.359375 7.515625 41.375 12.890625
Q 45.40625 18.265625 45.40625 27.984375
z
M 54.390625 6.78125
Q 54.390625 -7.171875 48.1875 -13.984375
Q 42 -20.796875 29.203125 -20.796875
Q 24.46875 -20.796875 20.265625 -20.09375
Q 16.0625 -19.390625 12.109375 -17.921875
L 12.109375 -9.1875
Q 16.0625 -11.328125 19.921875 -12.34375
Q 23.78125 -13.375 27.78125 -13.375
Q 36.625 -13.375 41.015625 -8.765625
Q 45.40625 -4.15625 45.40625 5.171875
L 45.40625 9.625
Q 42.625 4.78125 38.28125 2.390625
Q 33.9375 0 27.875 0
Q 17.828125 0 11.671875 7.65625
Q 5.515625 15.328125 5.515625 27.984375
Q 5.515625 40.671875 11.671875 48.328125
Q 17.828125 56 27.875 56
Q 33.9375 56 38.28125 53.609375
Q 42.625 51.21875 45.40625 46.390625
L 45.40625 54.6875
L 54.390625 54.6875
z
" id="DejaVuSans-103"/>
       <path d="M 18.3125 70.21875
L 18.3125 54.6875
L 36.8125 54.6875
L 36.8125 47.703125
L 18.3125 47.703125
L 18.3125 18.015625
Q 18.3125 11.328125 20.140625 9.421875
Q 21.96875 7.515625 27.59375 7.515625
L 36.8125 7.515625
L 36.8125 0
L 27.59375 0
Q 17.1875 0 13.234375 3.875
Q 9.28125 7.765625 9.28125 18.015625
L 9.28125 47.703125
L 2.6875 47.703125
L 2.6875 54.6875
L 9.28125 54.6875
L 9.28125 70.21875
z
" id="DejaVuSans-116"/>
       <path d="M 54.890625 33.015625
L 54.890625 0
L 45.90625 0
L 45.90625 32.71875
Q 45.90625 40.484375 42.875 44.328125
Q 39.84375 48.1875 33.796875 48.1875
Q 26.515625 48.1875 22.3125 43.546875
Q 18.109375 38.921875 18.109375 30.90625
L 18.109375 0
L 9.078125 0
L 9.078125 75.984375
L 18.109375 75.984375
L 18.109375 46.1875
Q 21.34375 51.125 25.703125 53.5625
Q 30.078125 56 35.796875 56
Q 45.21875 56 50.046875 50.171875
Q 54.890625 44.34375 54.890625 33.015625
z
" id="DejaVuSans-104"/>
      </defs>
      <use xlink:href="#DejaVuSans-114"/>
      <use x="38.863281" xlink:href="#DejaVuSans-101"/>
      <use x="100.386719" xlink:href="#DejaVuSans-97"/>
      <use x="161.666016" xlink:href="#DejaVuSans-100"/>
      <use x="225.142578" xlink:href="#DejaVuSans-32"/>
      <use x="256.929688" xlink:href="#DejaVuSans-108"/>
      <use x="284.712891" xlink:href="#DejaVuSans-101"/>
      <use x="346.236328" xlink:href="#DejaVuSans-110"/>
      <use x="409.615234" xlink:href="#DejaVuSans-103"/>
      <use x="473.091797" xlink:href="#DejaVuSans-116"/>
      <use x="512.300781" xlink:href="#DejaVuSans-104"/>
     </g>
    </g>
   </g>
   <g id="matplotlib.axis_2">
    <g id="ytick_1">
     <g id="line2d_1">
      <path clip-path="url(#pa922e8c63e)" d="M 58.418125 353.2239
L 992.958125 353.2239
" style="fill:none;stroke:#dedede;stroke-linecap:square;"/>
     </g>
     <g id="text_10">
      <!-- 0 -->
      <g transform="translate(46.328125 356.263275)scale(0.08 -0.08)">
       <use xlink:href="#DejaVuSans-48"/>
      </g>
     </g>
    </g>
    <g id="ytick_2">
     <g id="line2d_2">
      <path clip-path="url(#pa922e8c63e)" d="M 58.418125 285.178621
L 992.958125 285.178621
" style="fill:none;stroke:#dedede;stroke-linecap:square;"/>
     </g>
     <g id="text_11">
      <!-- 100000 -->
      <g transform="translate(20.878125 288.217996)scale(0.08 -0.08)">
       <use xlink:href="#DejaVuSans-49"/>
       <use x="63.623047" xlink:href="#DejaVuSans-48"/>
       <use x="127.246094" xlink:href="#DejaVuSans-48"/>
       <use x="190.869141" xlink:href="#DejaVuSans-48"/>
       <use x="254.492188" xlink:href="#DejaVuSans-48"/>
       <use x="318.115234" xlink:href="#DejaVuSans-48"/>
      </g>
     </g>
    </g>
    <g id="ytick_3">
     <g id="line2d_3">
      <path clip-path="url(#pa922e8c63e)" d="M 58.418125 217.133343
L 992.958125 217.133343
" style="fill:none;stroke:#dedede;stroke-linecap:square;"/>
     </g>
     <g id="text_12">
      <!-- 200000 -->
      <g transform="translate(20.878125 220.172718)scale(0.08 -0.08)">
       <use xlink:href="#DejaVuSans-50"/>
       <use x="63.623047" xlink:href="#DejaVuSans-48"/>
       <use x="127.246094" xlink:href="#DejaVuSans-48"/>
       <use x="190.869141" xlink:href="#DejaVuSans-48"/>
       <use x="254.492188" xlink:href="#DejaVuSans-48"/>
       <use x="318.115234" xlink:href="#DejaVuSans-48"/>
      </g>
     </g>
    </g>
    <g id="ytick_4">
     <g id="line2d_4">
      <path clip-path="url(#pa922e8c63e)" d="M 58.418125 149.088064
L 992.958125 149.088064
" style="fill:none;stroke:#dedede;stroke-linecap:square;"/>
     </g>
     <g id="text_13">
      <!-- 300000 -->
      <g transform="translate(20.878125 152.127439)scale(0.08 -0.08)">
       <defs>
        <path d="M 40.578125 39.3125
Q 47.65625 37.796875 51.625 33
Q 55.609375 28.21875 55.609375 21.1875
Q 55.609375 10.40625 48.1875 4.484375
Q 40.765625 -1.421875 27.09375 -1.421875
Q 22.515625 -1.421875 17.65625 -0.515625
Q 12.796875 0.390625 7.625 2.203125
L 7.625 11.71875
Q 11.71875 9.328125 16.59375 8.109375
Q 21.484375 6.890625 26.8125 6.890625
Q 36.078125 6.890625 40.9375 10.546875
Q 45.796875 14.203125 45.796875 21.1875
Q 45.796875 27.640625 41.28125 31.265625
Q 36.765625 34.90625 28.71875 34.90625
L 20.21875 34.90625
L 20.21875 43.015625
L 29.109375 43.015625
Q 36.375 43.015625 40.234375 45.921875
Q 44.09375 48.828125 44.09375 54.296875
Q 44.09375 59.90625 40.109375 62.90625
Q 36.140625 65.921875 28.71875 65.921875
Q 24.65625 65.921875 20.015625 65.03125
Q 15.375 64.15625 9.8125 62.3125
L 9.8125 71.09375
Q 15.4375 72.65625 20.34375 73.4375
Q 25.25 74.21875 29.59375 74.21875
Q 40.828125 74.21875 47.359375 69.109375
Q 53.90625 64.015625 53.90625 55.328125
Q 53.90625 49.265625 50.4375 45.09375
Q 46.96875 40.921875 40.578125 39.3125
z
" id="DejaVuSans-51"/>
       </defs>
       <use xlink:href="#DejaVuSans-51"/>
       <use x="63.623047" xlink:href="#DejaVuSans-48"/>
       <use x="127.246094" xlink:href="#DejaVuSans-48"/>
       <use x="190.869141" xlink:href="#DejaVuSans-48"/>
       <use x="254.492188" xlink:href="#DejaVuSans-48"/>
       <use x="318.115234" xlink:href="#DejaVuSans-48"/>
      </g>
     </g>
    </g>
    <g id="ytick_5">
     <g id="line2d_5">
      <path clip-path="url(#pa922e8c63e)" d="M 58.418125 81.042785
L 992.958125 81.042785
" style="fill:none;stroke:#dedede;stroke-linecap:square;"/>
     </g>
     <g id="text_14">
      <!-- 400000 -->
      <g transform="translate(20.878125 84.08216)scale(0.08 -0.08)">
       <defs>
        <path d="M 37.796875 64.3125
L 12.890625 25.390625
L 37.796875 25.390625
z
M 35.203125 72.90625
L 47.609375 72.90625
L 47.609375 25.390625
L 58.015625 25.390625
L 58.015625 17.1875
L 47.609375 17.1875
L 47.609375 0
L 37.796875 0
L 37.796875 17.1875
L 4.890625 17.1875
L 4.890625 26.703125
z
" id="DejaVuSans-52"/>
       </defs>
       <use xlink:href="#DejaVuSans-52"/>
       <use x="63.623047" xlink:href="#DejaVuSans-48"/>
       <use x="127.246094" xlink:href="#DejaVuSans-48"/>
       <use x="190.869141" xlink:href="#DejaVuSans-48"/>
       <use x="254.492188" xlink:href="#DejaVuSans-48"/>
       <use x="318.115234" xlink:href="#DejaVuSans-48"/>
      </g>
     </g>
    </g>
    <g id="text_15">
     <!-- Count -->
     <g transform="translate(14.798438 209.088338)rotate(-90)scale(0.1 -0.1)">
      <defs>
       <path d="M 64.40625 67.28125
L 64.40625 56.890625
Q 59.421875 61.53125 53.78125 63.8125
Q 48.140625 66.109375 41.796875 66.109375
Q 29.296875 66.109375 22.65625 58.46875
Q 16.015625 50.828125 16.015625 36.375
Q 16.015625 21.96875 22.65625 14.328125
Q 29.296875 6.6875 41.796875 6.6875
Q 48.140625 6.6875 53.78125 8.984375
Q 59.421875 11.28125 64.40625 15.921875
L 64.40625 5.609375
Q 59.234375 2.09375 53.4375 0.328125
Q 47.65625 -1.421875 41.21875 -1.421875
Q 24.65625 -1.421875 15.125 8.703125
Q 5.609375 18.84375 5.609375 36.375
Q 5.609375 53.953125 15.125 64.078125
Q 24.65625 74.21875 41.21875 74.21875
Q 47.75 74.21875 53.53125 72.484375
Q 59.328125 70.75 64.40625 67.28125
z
" id="DejaVuSans-67"/>
       <path d="M 30.609375 48.390625
Q 23.390625 48.390625 19.1875 42.75
Q 14.984375 37.109375 14.984375 27.296875
Q 14.984375 17.484375 19.15625 11.84375
Q 23.34375 6.203125 30.609375 6.203125
Q 37.796875 6.203125 41.984375 11.859375
Q 46.1875 17.53125 46.1875 27.296875
Q 46.1875 37.015625 41.984375 42.703125
Q 37.796875 48.390625 30.609375 48.390625
z
M 30.609375 56
Q 42.328125 56 49.015625 48.375
Q 55.71875 40.765625 55.71875 27.296875
Q 55.71875 13.875 49.015625 6.21875
Q 42.328125 -1.421875 30.609375 -1.421875
Q 18.84375 -1.421875 12.171875 6.21875
Q 5.515625 13.875 5.515625 27.296875
Q 5.515625 40.765625 12.171875 48.375
Q 18.84375 56 30.609375 56
z
" id="DejaVuSans-111"/>
       <path d="M 8.5 21.578125
L 8.5 54.6875
L 17.484375 54.6875
L 17.484375 21.921875
Q 17.484375 14.15625 20.5 10.265625
Q 23.53125 6.390625 29.59375 6.390625
Q 36.859375 6.390625 41.078125 11.03125
Q 45.3125 15.671875 45.3125 23.6875
L 45.3125 54.6875
L 54.296875 54.6875
L 54.296875 0
L 45.3125 0
L 45.3125 8.40625
Q 42.046875 3.421875 37.71875 1
Q 33.40625 -1.421875 27.6875 -1.421875
Q 18.265625 -1.421875 13.375 4.4375
Q 8.5 10.296875 8.5 21.578125
z
M 31.109375 56
z
" id="DejaVuSans-117"/>
      </defs>
      <use xlink:href="#DejaVuSans-67"/>
      <use x="69.824219" xlink:href="#DejaVuSans-111"/>
      <use x="131.005859" xlink:href="#DejaVuSans-117"/>
      <use x="194.384766" xlink:href="#DejaVuSans-110"/>
      <use x="257.763672" xlink:href="#DejaVuSans-116"/>
     </g>
    </g>
   </g>
   <g id="line2d_6">
    <path clip-path="url(#pa922e8c63e)" d="M 100.897216 353.2239
L 523.203968 353.131358
L 533.140597 352.986422
L 538.108912 352.848971
L 543.077227 352.346796
L 548.045541 346.891606
L 553.013856 194.036734
L 557.982171 353.2239
L 950.479034 353.2239
L 950.479034 353.2239
" style="fill:none;stroke:#7cb5ec;stroke-linecap:square;"/>
   </g>
   <g id="line2d_7">
    <path clip-path="url(#pa922e8c63e)" d="M 100.897216 353.2239
L 523.203968 353.132719
L 533.140597 353.000031
L 538.108912 352.842166
L 543.077227 352.423007
L 548.045541 347.567976
L 553.013856 196.076051
L 557.982171 353.2239
L 950.479034 353.2239
L 950.479034 353.2239
" style="fill:none;stroke:#434348;stroke-linecap:square;"/>
   </g>
   <g id="line2d_8">
    <path clip-path="url(#pa922e8c63e)" d="M 100.897216 353.2239
L 528.172282 353.16334
L 538.108912 352.985061
L 543.077227 352.604008
L 548.045541 348.250471
L 553.013856 256.29272
L 557.982171 353.2239
L 950.479034 353.2239
L 950.479034 353.2239
" style="fill:none;stroke:#90ed7d;stroke-linecap:square;"/>
   </g>
   <g id="line2d_9">
    <path clip-path="url(#pa922e8c63e)" d="M 100.897216 353.2239
L 528.172282 353.161298
L 538.108912 352.988463
L 543.077227 352.62238
L 548.045541 348.732231
L 553.013856 256.74386
L 557.982171 353.2239
L 950.479034 353.2239
L 950.479034 353.2239
" style="fill:none;stroke:#f7a35c;stroke-linecap:square;"/>
   </g>
   <g id="line2d_10">
    <path clip-path="url(#pa922e8c63e)" d="M 100.897216 353.2239
L 528.172282 353.135441
L 538.108912 352.959204
L 543.077227 352.520992
L 548.045541 348.313072
L 553.013856 249.96519
L 557.982171 353.2239
L 950.479034 353.2239
L 950.479034 353.2239
" style="fill:none;stroke:#8085e9;stroke-linecap:square;"/>
   </g>
   <g id="line2d_11">
    <path clip-path="url(#pa922e8c63e)" d="M 100.897216 353.2239
L 528.172282 353.132039
L 538.108912 352.959884
L 543.077227 352.586316
L 548.045541 348.79007
L 553.013856 251.451299
L 557.982171 353.2239
L 950.479034 353.2239
L 950.479034 353.2239
" style="fill:none;stroke:#f15c80;stroke-linecap:square;"/>
   </g>
   <g id="line2d_12">
    <path clip-path="url(#pa922e8c63e)" d="M 100.897216 353.2239
L 513.267338 353.144287
L 533.140597 352.894561
L 538.108912 352.717643
L 543.077227 352.069852
L 548.045541 345.787231
L 553.013856 181.476936
L 557.982171 353.2239
L 950.479034 353.2239
L 950.479034 353.2239
" style="fill:none;stroke:#e4d354;stroke-linecap:square;"/>
   </g>
   <g id="line2d_13">
    <path clip-path="url(#pa922e8c63e)" d="M 100.897216 353.2239
L 518.235653 353.11843
L 533.140597 352.897963
L 538.108912 352.720365
L 543.077227 352.180085
L 548.045541 346.518718
L 553.013856 184.140228
L 557.982171 353.2239
L 950.479034 353.2239
L 950.479034 353.2239
" style="fill:none;stroke:#2b908f;stroke-linecap:square;"/>
   </g>
   <g id="line2d_14">
    <path clip-path="url(#pa922e8c63e)" d="M 100.897216 353.2239
L 508.299023 353.132719
L 533.140597 352.8932
L 538.108912 352.692466
L 543.077227 352.193014
L 548.045541 347.60336
L 553.013856 234.815589
L 557.982171 353.2239
L 950.479034 353.2239
L 950.479034 353.2239
" style="fill:none;stroke:#f45b5b;stroke-linecap:square;"/>
   </g>
   <g id="line2d_15">
    <path clip-path="url(#pa922e8c63e)" d="M 100.897216 353.2239
L 513.267338 353.115028
L 528.172282 352.997309
L 538.108912 352.708117
L 543.077227 352.246089
L 548.045541 348.190591
L 553.013856 236.220043
L 557.982171 353.2239
L 950.479034 353.2239
L 950.479034 353.2239
" style="fill:none;stroke:#91e8e1;stroke-linecap:square;"/>
   </g>
   <g id="line2d_16">
    <path clip-path="url(#pa922e8c63e)" d="M 100.897216 353.2239
L 493.394079 353.146328
L 518.235653 352.853053
L 528.172282 352.541406
L 533.140597 352.316176
L 538.108912 351.910626
L 543.077227 351.272361
L 548.045541 347.501973
L 553.013856 268.595307
L 557.982171 353.2239
L 950.479034 353.2239
L 950.479034 353.2239
" style="fill:none;stroke:#7cb5ec;stroke-linecap:square;"/>
   </g>
   <g id="line2d_17">
    <path clip-path="url(#pa922e8c63e)" d="M 100.897216 353.2239
L 498.362394 353.11911
L 518.235653 352.870745
L 533.140597 352.324341
L 538.108912 352.027664
L 543.077227 351.328159
L 548.045541 347.677529
L 553.013856 269.809234
L 557.982171 353.2239
L 950.479034 353.2239
L 950.479034 353.2239
" style="fill:none;stroke:#434348;stroke-linecap:square;"/>
   </g>
   <g id="line2d_18">
    <path clip-path="url(#pa922e8c63e)" d="M 100.897216 353.2239
L 518.235653 353.120471
L 533.140597 352.955121
L 538.108912 352.766636
L 543.077227 352.440018
L 548.045541 348.726107
L 553.013856 236.093479
L 557.982171 353.2239
L 950.479034 353.2239
L 950.479034 353.2239
" style="fill:none;stroke:#90ed7d;stroke-linecap:square;"/>
   </g>
   <g id="line2d_19">
    <path clip-path="url(#pa922e8c63e)" d="M 100.897216 353.2239
L 518.235653 353.121152
L 533.140597 352.943553
L 538.108912 352.819031
L 543.077227 352.498537
L 548.045541 349.263665
L 553.013856 237.935465
L 557.982171 353.2239
L 950.479034 353.2239
L 950.479034 353.2239
" style="fill:none;stroke:#f7a35c;stroke-linecap:square;"/>
   </g>
   <g id="line2d_20">
    <path clip-path="url(#pa922e8c63e)" d="M 100.897216 353.2239
L 513.267338 353.183073
L 518.235653 353.112306
L 523.203968 352.463834
L 528.172282 344.224231
L 533.140597 353.2239
L 925.63746 353.2239
L 925.63746 353.2239
" style="fill:none;stroke:#8085e9;stroke-linecap:square;"/>
   </g>
   <g id="line2d_21">
    <path clip-path="url(#pa922e8c63e)" d="M 100.897216 353.2239
L 518.235653 353.129998
L 523.203968 352.510105
L 528.172282 344.214705
L 533.140597 353.2239
L 925.63746 353.2239
L 925.63746 353.2239
" style="fill:none;stroke:#f15c80;stroke-linecap:square;"/>
   </g>
   <g id="line2d_22">
    <path clip-path="url(#pa922e8c63e)" d="M 100.897216 353.2239
L 548.045541 353.138843
L 553.013856 350.857285
L 557.982171 353.2239
L 950.479034 353.2239
L 950.479034 353.2239
" style="fill:none;stroke:#e4d354;stroke-linecap:square;"/>
   </g>
   <g id="line2d_23">
    <path clip-path="url(#pa922e8c63e)" d="M 100.897216 353.2239
L 548.045541 353.144967
L 553.013856 350.751815
L 557.982171 353.2239
L 950.479034 353.2239
L 950.479034 353.2239
" style="fill:none;stroke:#2b908f;stroke-linecap:square;"/>
   </g>
   <g id="line2d_24">
    <path clip-path="url(#pa922e8c63e)" d="M 100.897216 353.2239
L 528.172282 353.137482
L 538.108912 353.04358
L 543.077227 352.887756
L 548.045541 352.068491
L 553.013856 324.020908
L 557.982171 353.2239
L 950.479034 353.2239
L 950.479034 353.2239
" style="fill:none;stroke:#f45b5b;stroke-linecap:square;"/>
   </g>
   <g id="line2d_25">
    <path clip-path="url(#pa922e8c63e)" d="M 100.897216 353.2239
L 528.172282 353.143607
L 538.108912 353.045621
L 543.077227 352.866662
L 548.045541 351.941246
L 553.013856 324.368619
L 557.982171 353.2239
L 950.479034 353.2239
L 950.479034 353.2239
" style="fill:none;stroke:#91e8e1;stroke-linecap:square;"/>
   </g>
   <g id="line2d_26">
    <path clip-path="url(#pa922e8c63e)" d="M 100.897216 353.2239
L 538.108912 353.146328
L 543.077227 353.079644
L 548.045541 352.795215
L 553.013856 347.867376
L 557.982171 353.2239
L 950.479034 353.2239
L 950.479034 353.2239
" style="fill:none;stroke:#7cb5ec;stroke-linecap:square;"/>
   </g>
   <g id="line2d_27">
    <path clip-path="url(#pa922e8c63e)" d="M 100.897216 353.2239
L 543.077227 353.115028
L 548.045541 352.865301
L 553.013856 347.736048
L 557.982171 353.2239
L 950.479034 353.2239
L 950.479034 353.2239
" style="fill:none;stroke:#434348;stroke-linecap:square;"/>
   </g>
   <g id="line2d_28">
    <path clip-path="url(#pa922e8c63e)" d="M 100.897216 353.2239
L 528.172282 353.114347
L 538.108912 352.940151
L 543.077227 352.723767
L 548.045541 351.542501
L 553.013856 321.793786
L 557.982171 353.2239
L 950.479034 353.2239
L 950.479034 353.2239
" style="fill:none;stroke:#90ed7d;stroke-linecap:square;"/>
   </g>
   <g id="line2d_29">
    <path clip-path="url(#pa922e8c63e)" d="M 100.897216 353.2239
L 528.172282 353.123873
L 538.108912 352.936068
L 543.077227 352.704715
L 548.045541 351.436351
L 553.013856 321.42498
L 557.982171 353.2239
L 950.479034 353.2239
L 950.479034 353.2239
" style="fill:none;stroke:#f7a35c;stroke-linecap:square;"/>
   </g>
   <g id="line2d_30">
    <path clip-path="url(#pa922e8c63e)" d="M 100.897216 353.2239
L 533.140597 353.113667
L 538.108912 353.039497
L 543.077227 352.774801
L 548.045541 351.840539
L 553.013856 338.317901
L 557.982171 353.2239
L 950.479034 353.2239
L 950.479034 353.2239
" style="fill:none;stroke:#8085e9;stroke-linecap:square;"/>
   </g>
   <g id="line2d_31">
    <path clip-path="url(#pa922e8c63e)" d="M 100.897216 353.2239
L 533.140597 353.159937
L 543.077227 352.905448
L 548.045541 352.059645
L 553.013856 338.161397
L 557.982171 353.2239
L 950.479034 353.2239
L 950.479034 353.2239
" style="fill:none;stroke:#f15c80;stroke-linecap:square;"/>
   </g>
   <g id="line2d_32">
    <path clip-path="url(#pa922e8c63e)" d="M 100.897216 353.2239
L 523.203968 353.11843
L 538.108912 352.932666
L 543.077227 352.733974
L 548.045541 351.633001
L 553.013856 318.182623
L 557.982171 353.2239
L 950.479034 353.2239
L 950.479034 353.2239
" style="fill:none;stroke:#e4d354;stroke-linecap:square;"/>
   </g>
   <g id="line2d_33">
    <path clip-path="url(#pa922e8c63e)" d="M 100.897216 353.2239
L 523.203968 353.129317
L 538.108912 352.946956
L 543.077227 352.727169
L 548.045541 351.538418
L 553.013856 318.357499
L 557.982171 353.2239
L 950.479034 353.2239
L 950.479034 353.2239
" style="fill:none;stroke:#2b908f;stroke-linecap:square;"/>
   </g>
   <g id="line2d_34">
    <path clip-path="url(#pa922e8c63e)" d="M 100.897216 353.2239
L 543.077227 353.113667
L 548.045541 352.889117
L 553.013856 349.438541
L 557.982171 353.2239
L 950.479034 353.2239
L 950.479034 353.2239
" style="fill:none;stroke:#f45b5b;stroke-linecap:square;"/>
   </g>
   <g id="line2d_35">
    <path clip-path="url(#pa922e8c63e)" d="M 100.897216 353.2239
L 543.077227 353.151092
L 548.045541 352.974854
L 553.013856 349.475966
L 557.982171 353.2239
L 950.479034 353.2239
L 950.479034 353.2239
" style="fill:none;stroke:#91e8e1;stroke-linecap:square;"/>
   </g>
   <g id="line2d_36">
    <path clip-path="url(#pa922e8c63e)" d="M 100.897216 353.2239
L 523.203968 353.121832
L 538.108912 352.937429
L 543.077227 352.721726
L 548.045541 351.52549
L 553.013856 311.959202
L 557.982171 353.2239
L 950.479034 353.2239
L 950.479034 353.2239
" style="fill:none;stroke:#7cb5ec;stroke-linecap:square;"/>
   </g>
   <g id="line2d_37">
    <path clip-path="url(#pa922e8c63e)" d="M 100.897216 353.2239
L 523.203968 353.126595
L 538.108912 352.954441
L 543.077227 352.764594
L 548.045541 351.440433
L 553.013856 311.753024
L 557.982171 353.2239
L 950.479034 353.2239
L 950.479034 353.2239
" style="fill:none;stroke:#434348;stroke-linecap:square;"/>
   </g>
   <g id="line2d_38">
    <path clip-path="url(#pa922e8c63e)" d="M 100.897216 353.2239
L 538.108912 353.130678
L 543.077227 353.050385
L 548.045541 352.608771
L 553.013856 340.250387
L 557.982171 353.2239
L 950.479034 353.2239
L 950.479034 353.2239
" style="fill:none;stroke:#90ed7d;stroke-linecap:square;"/>
   </g>
   <g id="line2d_39">
    <path clip-path="url(#pa922e8c63e)" d="M 100.897216 353.2239
L 538.108912 353.131358
L 543.077227 353.063313
L 548.045541 352.565222
L 553.013856 340.455884
L 557.982171 353.2239
L 950.479034 353.2239
L 950.479034 353.2239
" style="fill:none;stroke:#f7a35c;stroke-linecap:square;"/>
   </g>
   <g id="line2d_40">
    <path clip-path="url(#pa922e8c63e)" d="M 100.897216 353.2239
L 105.865531 353.2239
L 110.833845 353.2239
L 115.80216 353.2239
L 120.770475 353.2239
L 125.73879 353.2239
L 130.707104 353.2239
L 135.675419 353.2239
L 140.643734 353.2239
L 145.612048 353.2239
L 150.580363 353.2239
L 155.548678 353.2239
L 160.516993 353.2239
L 165.485307 353.2239
L 170.453622 353.2239
L 175.421937 353.2239
L 180.390252 353.2239
L 185.358566 353.2239
L 190.326881 353.2239
L 195.295196 353.2239
L 200.26351 353.2239
L 205.231825 353.2239
L 210.20014 353.2239
L 215.168455 353.2239
L 220.136769 353.2239
L 225.105084 353.2239
L 230.073399 353.2239
L 235.041714 353.2239
L 240.010028 353.2239
L 244.978343 353.2239
L 249.946658 353.2239
L 254.914972 353.2239
L 259.883287 353.2239
L 264.851602 353.2239
L 269.819917 353.2239
L 274.788231 351.196151
L 279.756546 350.997458
L 284.724861 350.763383
L 289.693176 350.371442
L 294.66149 350.104024
L 299.629805 349.892403
L 304.59812 349.694391
L 309.566434 348.876487
L 314.534749 348.567562
L 319.503064 348.364787
L 324.471379 347.746936
L 329.439693 347.233194
L 334.408008 346.52076
L 339.376323 345.804243
L 344.344637 345.728713
L 349.312952 344.194972
L 354.281267 344.556292
L 359.249582 343.930956
L 364.217896 343.850663
L 369.186211 343.634279
L 374.154526 343.416534
L 379.122841 342.254321
L 384.091155 341.775962
L 389.05947 342.265208
L 394.027785 341.946756
L 398.996099 341.265623
L 403.964414 341.413961
L 408.932729 340.971667
L 413.901044 340.963502
L 418.869358 341.836523
L 423.837673 341.265623
L 428.805988 340.890693
L 433.774303 340.273523
L 438.742617 340.987318
L 443.710932 341.178525
L 448.679247 340.35926
L 453.647561 340.530734
L 458.615876 340.672268
L 463.584191 340.81108
L 468.552506 340.549106
L 473.52082 341.117284
L 478.489135 339.501889
L 483.45745 340.037405
L 488.425765 339.883623
L 493.394079 340.306184
L 498.362394 340.43479
L 503.330709 341.190092
L 508.299023 341.505142
L 513.267338 340.730106
L 518.235653 341.558898
L 523.203968 342.009358
L 528.172282 342.266569
L 533.140597 341.690225
L 538.108912 340.125184
L 543.077227 333.0859
L 548.045541 308.746104
L 553.013856 50.397233
" style="fill:none;stroke:#8085e9;stroke-linecap:square;"/>
   </g>
   <g id="line2d_41">
    <path clip-path="url(#pa922e8c63e)" d="M 100.897216 353.2239
L 538.108912 353.174227
L 543.077227 353.087129
L 548.045541 352.662526
L 553.013856 322.459269
L 557.982171 353.2239
L 950.479034 353.2239
L 950.479034 353.2239
" style="fill:none;stroke:#f15c80;stroke-linecap:square;"/>
   </g>
   <g id="line2d_42">
    <path clip-path="url(#pa922e8c63e)" d="M 100.897216 353.2239
L 538.108912 353.173546
L 543.077227 353.102099
L 548.045541 352.680899
L 553.013856 322.459949
L 557.982171 353.2239
L 950.479034 353.2239
L 950.479034 353.2239
" style="fill:none;stroke:#e4d354;stroke-linecap:square;"/>
   </g>
   <g id="line2d_43">
    <path clip-path="url(#pa922e8c63e)" d="M 100.897216 353.2239
L 105.865531 353.2239
L 110.833845 353.2239
L 115.80216 353.2239
L 120.770475 353.2239
L 125.73879 353.2239
L 130.707104 353.2239
L 135.675419 353.2239
L 140.643734 353.2239
L 145.612048 353.2239
L 150.580363 353.2239
L 155.548678 353.2239
L 160.516993 353.2239
L 165.485307 353.2239
L 170.453622 353.2239
L 175.421937 353.2239
L 180.390252 353.2239
L 185.358566 353.2239
L 190.326881 353.2239
L 195.295196 353.2239
L 200.26351 353.2239
L 205.231825 353.2239
L 210.20014 353.2239
L 215.168455 353.2239
L 220.136769 353.2239
L 225.105084 353.2239
L 230.073399 353.2239
L 235.041714 353.2239
L 240.010028 353.2239
L 244.978343 353.2239
L 249.946658 353.2239
L 254.914972 353.2239
L 259.883287 353.2239
L 264.851602 353.2239
L 269.819917 353.2239
L 274.788231 351.278485
L 279.756546 350.812375
L 284.724861 350.736845
L 289.693176 350.423837
L 294.66149 350.275498
L 299.629805 349.998554
L 304.59812 349.738621
L 309.566434 349.269789
L 314.534749 349.06157
L 319.503064 348.322599
L 324.471379 347.878263
L 329.439693 347.459784
L 334.408008 347.487683
L 339.376323 347.158344
L 344.344637 346.59629
L 349.312952 346.558865
L 354.281267 346.484015
L 359.249582 345.401415
L 364.217896 345.831461
L 369.186211 345.694009
L 374.154526 345.314317
L 379.122841 344.902643
L 384.091155 344.330382
L 389.05947 344.605285
L 394.027785 344.668567
L 398.996099 344.2671
L 403.964414 344.333784
L 408.932729 343.601617
L 413.901044 344.331063
L 418.869358 343.539015
L 423.837673 343.783978
L 428.805988 343.566914
L 433.774303 344.867259
L 438.742617 344.0861
L 443.710932 344.788327
L 448.679247 344.446059
L 453.647561 344.230356
L 458.615876 344.120122
L 463.584191 344.093585
L 468.552506 344.827793
L 473.52082 344.833237
L 478.489135 344.801255
L 483.45745 344.604605
L 488.425765 344.674011
L 493.394079 343.943885
L 498.362394 344.757026
L 503.330709 344.829834
L 508.299023 344.858413
L 513.267338 345.366712
L 518.235653 346.066898
L 523.203968 344.916932
L 528.172282 345.849833
L 533.140597 346.308458
L 538.108912 344.742736
L 543.077227 340.353816
L 548.045541 327.776327
L 553.013856 176.482413
" style="fill:none;stroke:#2b908f;stroke-linecap:square;"/>
   </g>
   <g id="line2d_44">
    <path clip-path="url(#pa922e8c63e)" d="M 100.897216 353.2239
L 543.077227 353.136802
L 548.045541 352.922459
L 553.013856 339.93874
L 557.982171 353.2239
L 950.479034 353.2239
L 950.479034 353.2239
" style="fill:none;stroke:#f45b5b;stroke-linecap:square;"/>
   </g>
   <g id="line2d_45">
    <path clip-path="url(#pa922e8c63e)" d="M 100.897216 353.2239
L 543.077227 353.144287
L 548.045541 352.934027
L 553.013856 339.84892
L 557.982171 353.2239
L 950.479034 353.2239
L 950.479034 353.2239
" style="fill:none;stroke:#91e8e1;stroke-linecap:square;"/>
   </g>
   <g id="line2d_46">
    <path clip-path="url(#pa922e8c63e)" d="M 100.897216 353.2239
L 528.172282 353.132039
L 538.108912 353.014321
L 543.077227 352.89388
L 548.045541 352.174642
L 553.013856 326.60935
L 557.982171 353.2239
L 950.479034 353.2239
L 950.479034 353.2239
" style="fill:none;stroke:#7cb5ec;stroke-linecap:square;"/>
   </g>
   <g id="line2d_47">
    <path clip-path="url(#pa922e8c63e)" d="M 100.897216 353.2239
L 528.172282 353.139524
L 543.077227 352.928583
L 548.045541 352.158311
L 553.013856 326.75905
L 557.982171 353.2239
L 950.479034 353.2239
L 950.479034 353.2239
" style="fill:none;stroke:#434348;stroke-linecap:square;"/>
   </g>
   <g id="line2d_48">
    <path clip-path="url(#pa922e8c63e)" d="M 100.897216 353.2239
L 513.267338 353.113667
L 518.235653 352.982339
L 523.203968 351.784062
L 528.172282 335.682508
L 533.140597 353.2239
L 925.63746 353.2239
L 925.63746 353.2239
" style="fill:none;stroke:#90ed7d;stroke-linecap:square;"/>
   </g>
   <g id="line2d_49">
    <path clip-path="url(#pa922e8c63e)" d="M 100.897216 353.2239
L 513.267338 353.128637
L 518.235653 353.006155
L 523.203968 351.777257
L 528.172282 335.602214
L 533.140597 353.2239
L 925.63746 353.2239
L 925.63746 353.2239
" style="fill:none;stroke:#f7a35c;stroke-linecap:square;"/>
   </g>
   <g id="line2d_50">
    <path clip-path="url(#pa922e8c63e)" d="M 100.897216 353.2239
L 533.140597 353.135441
L 543.077227 352.967369
L 548.045541 352.503981
L 553.013856 338.937113
L 557.982171 353.2239
L 950.479034 353.2239
L 950.479034 353.2239
" style="fill:none;stroke:#8085e9;stroke-linecap:square;"/>
   </g>
   <g id="line2d_51">
    <path clip-path="url(#pa922e8c63e)" d="M 100.897216 353.2239
L 533.140597 353.142246
L 543.077227 352.985061
L 548.045541 352.476082
L 553.013856 339.184798
L 557.982171 353.2239
L 950.479034 353.2239
L 950.479034 353.2239
" style="fill:none;stroke:#f15c80;stroke-linecap:square;"/>
   </g>
   <g id="line2d_52">
    <path clip-path="url(#pa922e8c63e)" d="M 100.897216 353.2239
L 538.108912 353.138843
L 543.077227 353.05787
L 548.045541 352.741459
L 553.013856 347.15222
L 557.982171 353.2239
L 950.479034 353.2239
L 950.479034 353.2239
" style="fill:none;stroke:#e4d354;stroke-linecap:square;"/>
   </g>
   <g id="line2d_53">
    <path clip-path="url(#pa922e8c63e)" d="M 100.897216 353.2239
L 538.108912 353.173546
L 543.077227 353.074881
L 548.045541 352.802019
L 553.013856 347.303961
L 557.982171 353.2239
L 950.479034 353.2239
L 950.479034 353.2239
" style="fill:none;stroke:#2b908f;stroke-linecap:square;"/>
   </g>
   <g id="line2d_54">
    <path clip-path="url(#pa922e8c63e)" d="M 100.897216 353.2239
L 528.172282 353.122513
L 538.108912 352.959884
L 543.077227 352.789091
L 548.045541 352.00725
L 553.013856 329.793189
L 557.982171 353.2239
L 950.479034 353.2239
L 950.479034 353.2239
" style="fill:none;stroke:#f45b5b;stroke-linecap:square;"/>
   </g>
   <g id="line2d_55">
    <path clip-path="url(#pa922e8c63e)" d="M 100.897216 353.2239
L 528.172282 353.124554
L 538.108912 352.992546
L 543.077227 352.825835
L 548.045541 352.031747
L 553.013856 330.112321
L 557.982171 353.2239
L 950.479034 353.2239
L 950.479034 353.2239
" style="fill:none;stroke:#91e8e1;stroke-linecap:square;"/>
   </g>
   <g id="line2d_56">
    <path clip-path="url(#pa922e8c63e)" d="M 100.897216 353.2239
L 538.108912 353.136122
L 543.077227 353.057189
L 548.045541 352.772079
L 553.013856 348.327362
L 557.982171 353.2239
L 950.479034 353.2239
L 950.479034 353.2239
" style="fill:none;stroke:#7cb5ec;stroke-linecap:square;"/>
   </g>
   <g id="line2d_57">
    <path clip-path="url(#pa922e8c63e)" d="M 100.897216 353.2239
L 538.108912 353.153133
L 543.077227 353.0742
L 548.045541 352.87755
L 553.013856 348.089203
L 557.982171 353.2239
L 950.479034 353.2239
L 950.479034 353.2239
" style="fill:none;stroke:#434348;stroke-linecap:square;"/>
   </g>
   <g id="line2d_58">
    <path clip-path="url(#pa922e8c63e)" d="M 100.897216 353.2239
L 523.203968 353.136802
L 538.108912 352.934708
L 543.077227 352.708117
L 548.045541 351.768411
L 553.013856 329.507399
L 557.982171 353.2239
L 950.479034 353.2239
L 950.479034 353.2239
" style="fill:none;stroke:#90ed7d;stroke-linecap:square;"/>
   </g>
   <g id="line2d_59">
    <path clip-path="url(#pa922e8c63e)" d="M 100.897216 353.2239
L 523.203968 353.14837
L 538.108912 352.941512
L 543.077227 352.696549
L 548.045541 351.700366
L 553.013856 330.317818
L 557.982171 353.2239
L 950.479034 353.2239
L 950.479034 353.2239
" style="fill:none;stroke:#f7a35c;stroke-linecap:square;"/>
   </g>
   <g id="line2d_60">
    <path clip-path="url(#pa922e8c63e)" d="M 100.897216 353.2239
L 528.172282 353.173546
L 538.108912 353.026569
L 543.077227 352.822433
L 548.045541 352.174642
L 553.013856 342.517656
L 557.982171 353.2239
L 950.479034 353.2239
L 950.479034 353.2239
" style="fill:none;stroke:#8085e9;stroke-linecap:square;"/>
   </g>
   <g id="line2d_61">
    <path clip-path="url(#pa922e8c63e)" d="M 100.897216 353.2239
L 533.140597 353.155174
L 543.077227 352.904087
L 548.045541 352.256296
L 553.013856 342.05835
L 557.982171 353.2239
L 950.479034 353.2239
L 950.479034 353.2239
" style="fill:none;stroke:#f15c80;stroke-linecap:square;"/>
   </g>
   <g id="line2d_62">
    <path clip-path="url(#pa922e8c63e)" d="M 100.897216 353.2239
L 518.235653 353.132719
L 533.140597 352.99867
L 538.108912 352.876189
L 543.077227 352.632587
L 548.045541 351.560193
L 553.013856 326.191552
L 557.982171 353.2239
L 950.479034 353.2239
L 950.479034 353.2239
" style="fill:none;stroke:#e4d354;stroke-linecap:square;"/>
   </g>
   <g id="line2d_63">
    <path clip-path="url(#pa922e8c63e)" d="M 100.897216 353.2239
L 523.203968 353.132719
L 538.108912 352.86258
L 543.077227 352.591079
L 548.045541 351.64525
L 553.013856 326.975434
L 557.982171 353.2239
L 950.479034 353.2239
L 950.479034 353.2239
" style="fill:none;stroke:#2b908f;stroke-linecap:square;"/>
   </g>
   <g id="line2d_64">
    <path clip-path="url(#pa922e8c63e)" d="M 100.897216 353.2239
L 523.203968 353.11843
L 538.108912 352.865982
L 543.077227 352.605368
L 548.045541 351.703768
L 553.013856 338.930989
L 557.982171 353.2239
L 950.479034 353.2239
L 950.479034 353.2239
" style="fill:none;stroke:#f45b5b;stroke-linecap:square;"/>
   </g>
   <g id="line2d_65">
    <path clip-path="url(#pa922e8c63e)" d="M 100.897216 353.2239
L 523.203968 353.125915
L 538.108912 352.852373
L 543.077227 352.595842
L 548.045541 351.709893
L 553.013856 339.121516
L 557.982171 353.2239
L 950.479034 353.2239
L 950.479034 353.2239
" style="fill:none;stroke:#91e8e1;stroke-linecap:square;"/>
   </g>
   <g id="line2d_66">
    <path clip-path="url(#pa922e8c63e)" d="M 100.897216 353.2239
L 538.108912 353.158577
L 543.077227 353.092573
L 548.045541 352.68362
L 553.013856 328.420715
L 557.982171 353.2239
L 950.479034 353.2239
L 950.479034 353.2239
" style="fill:none;stroke:#7cb5ec;stroke-linecap:square;"/>
   </g>
   <g id="line2d_67">
    <path clip-path="url(#pa922e8c63e)" d="M 100.897216 353.2239
L 538.108912 353.169464
L 543.077227 353.099377
L 548.045541 352.767997
L 553.013856 328.283264
L 557.982171 353.2239
L 950.479034 353.2239
L 950.479034 353.2239
" style="fill:none;stroke:#434348;stroke-linecap:square;"/>
   </g>
   <g id="line2d_68">
    <path clip-path="url(#pa922e8c63e)" d="M 100.897216 353.2239
L 945.510719 353.2239
L 945.510719 353.2239
" style="fill:none;stroke:#90ed7d;stroke-linecap:square;"/>
   </g>
   <g id="line2d_69">
    <path clip-path="url(#pa922e8c63e)" d="M 100.897216 353.2239
L 945.510719 353.2239
L 945.510719 353.2239
" style="fill:none;stroke:#f7a35c;stroke-linecap:square;"/>
   </g>
   <g id="line2d_70">
    <path clip-path="url(#pa922e8c63e)" d="M 100.897216 353.2239
L 543.077227 353.11843
L 548.045541 352.791812
L 553.013856 332.165247
L 557.982171 353.2239
L 950.479034 353.2239
L 950.479034 353.2239
" style="fill:none;stroke:#8085e9;stroke-linecap:square;"/>
   </g>
   <g id="line2d_71">
    <path clip-path="url(#pa922e8c63e)" d="M 100.897216 353.2239
L 543.077227 353.131358
L 548.045541 352.815628
L 553.013856 332.069303
L 557.982171 353.2239
L 950.479034 353.2239
L 950.479034 353.2239
" style="fill:none;stroke:#f15c80;stroke-linecap:square;"/>
   </g>
   <g id="line2d_72">
    <path clip-path="url(#pa922e8c63e)" d="M 100.897216 353.2239
L 945.510719 353.2239
L 945.510719 353.2239
" style="fill:none;stroke:#e4d354;stroke-linecap:square;"/>
   </g>
   <g id="line2d_73">
    <path clip-path="url(#pa922e8c63e)" d="M 100.897216 353.2239
L 895.827572 353.2239
L 895.827572 353.2239
" style="fill:none;stroke:#2b908f;stroke-linecap:square;"/>
   </g>
   <g id="line2d_74">
    <path clip-path="url(#pa922e8c63e)" d="M 100.897216 353.2239
L 538.108912 353.125915
L 543.077227 352.990505
L 548.045541 352.297123
L 553.013856 306.821783
L 557.982171 353.2239
L 950.479034 353.2239
L 950.479034 353.2239
" style="fill:none;stroke:#f45b5b;stroke-linecap:square;"/>
   </g>
   <g id="line2d_75">
    <path clip-path="url(#pa922e8c63e)" d="M 100.897216 353.2239
L 538.108912 353.113667
L 543.077227 353.009557
L 548.045541 352.319578
L 553.013856 307.296739
L 557.982171 353.2239
L 950.479034 353.2239
L 950.479034 353.2239
" style="fill:none;stroke:#91e8e1;stroke-linecap:square;"/>
   </g>
   <g id="line2d_76">
    <path clip-path="url(#pa922e8c63e)" d="M 100.897216 353.2239
L 508.299023 353.154494
L 513.267338 353.067396
L 518.235653 352.792493
L 523.203968 349.431737
L 528.172282 308.867905
L 533.140597 353.2239
L 925.63746 353.2239
L 925.63746 353.2239
" style="fill:none;stroke:#7cb5ec;stroke-linecap:square;"/>
   </g>
   <g id="line2d_77">
    <path clip-path="url(#pa922e8c63e)" d="M 100.897216 353.2239
L 508.299023 353.16334
L 513.267338 353.091212
L 518.235653 352.775482
L 523.203968 349.594365
L 528.172282 308.490253
L 533.140597 353.2239
L 925.63746 353.2239
L 925.63746 353.2239
" style="fill:none;stroke:#434348;stroke-linecap:square;"/>
   </g>
   <g id="line2d_78">
    <path clip-path="url(#pa922e8c63e)" d="M 100.897216 353.2239
L 533.140597 353.143607
L 538.108912 353.069437
L 543.077227 352.855775
L 548.045541 351.208399
L 553.013856 294.207549
L 557.982171 353.2239
L 950.479034 353.2239
L 950.479034 353.2239
" style="fill:none;stroke:#90ed7d;stroke-linecap:square;"/>
   </g>
   <g id="line2d_79">
    <path clip-path="url(#pa922e8c63e)" d="M 100.897216 353.2239
L 533.140597 353.150411
L 538.108912 353.070118
L 543.077227 352.813587
L 548.045541 351.145117
L 553.013856 293.593781
L 557.982171 353.2239
L 950.479034 353.2239
L 950.479034 353.2239
" style="fill:none;stroke:#f7a35c;stroke-linecap:square;"/>
   </g>
   <g id="line2d_80">
    <path clip-path="url(#pa922e8c63e)" d="M 100.897216 353.2239
L 543.077227 353.129317
L 548.045541 352.780925
L 553.013856 344.855692
L 557.982171 353.2239
L 950.479034 353.2239
L 950.479034 353.2239
" style="fill:none;stroke:#8085e9;stroke-linecap:square;"/>
   </g>
   <g id="line2d_81">
    <path clip-path="url(#pa922e8c63e)" d="M 100.897216 353.2239
L 543.077227 353.154494
L 548.045541 352.854414
L 553.013856 344.615492
L 557.982171 353.2239
L 950.479034 353.2239
L 950.479034 353.2239
" style="fill:none;stroke:#f15c80;stroke-linecap:square;"/>
   </g>
   <g id="line2d_82">
    <path clip-path="url(#pa922e8c63e)" d="M 100.897216 353.2239
L 533.140597 353.139524
L 543.077227 352.935388
L 548.045541 351.767731
L 553.013856 308.662408
L 557.982171 353.2239
L 950.479034 353.2239
L 950.479034 353.2239
" style="fill:none;stroke:#e4d354;stroke-linecap:square;"/>
   </g>
   <g id="line2d_83">
    <path clip-path="url(#pa922e8c63e)" d="M 100.897216 353.2239
L 533.140597 353.14837
L 538.108912 353.099377
L 543.077227 352.922459
L 548.045541 351.624155
L 553.013856 309.112187
L 557.982171 353.2239
L 950.479034 353.2239
L 950.479034 353.2239
" style="fill:none;stroke:#2b908f;stroke-linecap:square;"/>
   </g>
   <g id="line2d_84">
    <path clip-path="url(#pa922e8c63e)" d="M 100.897216 353.2239
L 543.077227 353.14905
L 548.045541 352.853734
L 553.013856 347.79933
L 557.982171 353.2239
L 950.479034 353.2239
L 950.479034 353.2239
" style="fill:none;stroke:#f45b5b;stroke-linecap:square;"/>
   </g>
   <g id="line2d_85">
    <path clip-path="url(#pa922e8c63e)" d="M 100.897216 353.2239
L 543.077227 353.182392
L 548.045541 352.988463
L 553.013856 347.682293
L 557.982171 353.2239
L 950.479034 353.2239
L 950.479034 353.2239
" style="fill:none;stroke:#91e8e1;stroke-linecap:square;"/>
   </g>
   <g id="line2d_86">
    <path clip-path="url(#pa922e8c63e)" d="M 100.897216 353.2239
L 538.108912 353.142246
L 543.077227 353.014321
L 548.045541 352.4128
L 553.013856 337.367309
L 557.982171 353.2239
L 950.479034 353.2239
L 950.479034 353.2239
" style="fill:none;stroke:#7cb5ec;stroke-linecap:square;"/>
   </g>
   <g id="line2d_87">
    <path clip-path="url(#pa922e8c63e)" d="M 100.897216 353.2239
L 538.108912 353.140204
L 543.077227 353.032012
L 548.045541 352.41212
L 553.013856 337.627242
L 557.982171 353.2239
L 950.479034 353.2239
L 950.479034 353.2239
" style="fill:none;stroke:#434348;stroke-linecap:square;"/>
   </g>
   <g id="line2d_88">
    <path clip-path="url(#pa922e8c63e)" d="M 100.897216 353.2239
L 543.077227 353.113667
L 548.045541 352.750985
L 553.013856 345.190474
L 557.982171 353.2239
L 950.479034 353.2239
L 950.479034 353.2239
" style="fill:none;stroke:#90ed7d;stroke-linecap:square;"/>
   </g>
   <g id="line2d_89">
    <path clip-path="url(#pa922e8c63e)" d="M 100.897216 353.2239
L 543.077227 353.136802
L 548.045541 352.797937
L 553.013856 345.110861
L 557.982171 353.2239
L 950.479034 353.2239
L 950.479034 353.2239
" style="fill:none;stroke:#f7a35c;stroke-linecap:square;"/>
   </g>
   <g id="line2d_90">
    <path clip-path="url(#pa922e8c63e)" d="M 100.897216 353.2239
L 513.267338 353.181031
L 518.235653 353.095294
L 523.203968 352.244048
L 528.172282 342.757856
L 533.140597 353.2239
L 925.63746 353.2239
L 925.63746 353.2239
" style="fill:none;stroke:#8085e9;stroke-linecap:square;"/>
   </g>
   <g id="line2d_91">
    <path clip-path="url(#pa922e8c63e)" d="M 100.897216 353.2239
L 513.267338 353.181712
L 518.235653 353.106182
L 523.203968 352.297123
L 528.172282 342.885781
L 533.140597 353.2239
L 925.63746 353.2239
L 925.63746 353.2239
" style="fill:none;stroke:#f15c80;stroke-linecap:square;"/>
   </g>
   <g id="line2d_92">
    <path clip-path="url(#pa922e8c63e)" d="M 100.897216 353.2239
L 538.108912 353.146328
L 543.077227 353.065355
L 548.045541 352.512827
L 553.013856 334.186872
L 557.982171 353.2239
L 950.479034 353.2239
L 950.479034 353.2239
" style="fill:none;stroke:#e4d354;stroke-linecap:square;"/>
   </g>
   <g id="line2d_93">
    <path clip-path="url(#pa922e8c63e)" d="M 100.897216 353.2239
L 538.108912 353.146328
L 543.077227 353.070118
L 548.045541 352.491052
L 553.013856 334.402576
L 557.982171 353.2239
L 950.479034 353.2239
L 950.479034 353.2239
" style="fill:none;stroke:#2b908f;stroke-linecap:square;"/>
   </g>
   <g id="line2d_94">
    <path clip-path="url(#pa922e8c63e)" d="M 100.897216 353.2239
L 538.108912 353.164701
L 543.077227 353.061272
L 548.045541 352.617617
L 553.013856 346.153315
L 557.982171 353.2239
L 950.479034 353.2239
L 950.479034 353.2239
" style="fill:none;stroke:#f45b5b;stroke-linecap:square;"/>
   </g>
   <g id="line2d_95">
    <path clip-path="url(#pa922e8c63e)" d="M 100.897216 353.2239
L 538.108912 353.17831
L 543.077227 353.100738
L 548.045541 352.738057
L 553.013856 346.001574
L 557.982171 353.2239
L 950.479034 353.2239
L 950.479034 353.2239
" style="fill:none;stroke:#91e8e1;stroke-linecap:square;"/>
   </g>
   <g id="line2d_96">
    <path clip-path="url(#pa922e8c63e)" d="M 100.897216 353.2239
L 533.140597 353.131358
L 543.077227 352.816309
L 548.045541 351.617351
L 553.013856 316.657048
L 557.982171 353.2239
L 950.479034 353.2239
L 950.479034 353.2239
" style="fill:none;stroke:#7cb5ec;stroke-linecap:square;"/>
   </g>
   <g id="line2d_97">
    <path clip-path="url(#pa922e8c63e)" d="M 100.897216 353.2239
L 533.140597 353.11911
L 543.077227 352.813587
L 548.045541 351.563595
L 553.013856 315.739797
L 557.982171 353.2239
L 950.479034 353.2239
L 950.479034 353.2239
" style="fill:none;stroke:#434348;stroke-linecap:square;"/>
   </g>
   <g id="line2d_98">
    <path clip-path="url(#pa922e8c63e)" d="M 100.897216 353.2239
L 533.140597 353.137482
L 543.077227 352.920418
L 548.045541 352.086183
L 553.013856 338.476447
L 557.982171 353.2239
L 950.479034 353.2239
L 950.479034 353.2239
" style="fill:none;stroke:#90ed7d;stroke-linecap:square;"/>
   </g>
   <g id="line2d_99">
    <path clip-path="url(#pa922e8c63e)" d="M 100.897216 353.2239
L 538.108912 353.136802
L 543.077227 353.023166
L 548.045541 352.309371
L 553.013856 337.887855
L 557.982171 353.2239
L 950.479034 353.2239
L 950.479034 353.2239
" style="fill:none;stroke:#f7a35c;stroke-linecap:square;"/>
   </g>
   <g id="line2d_100">
    <path clip-path="url(#pa922e8c63e)" d="M 100.897216 353.2239
L 533.140597 353.116388
L 543.077227 352.886395
L 548.045541 352.026303
L 553.013856 330.868985
L 557.982171 353.2239
L 950.479034 353.2239
L 950.479034 353.2239
" style="fill:none;stroke:#8085e9;stroke-linecap:square;"/>
   </g>
   <g id="line2d_101">
    <path clip-path="url(#pa922e8c63e)" d="M 100.897216 353.2239
L 533.140597 353.125915
L 543.077227 352.874147
L 548.045541 351.956216
L 553.013856 331.111226
L 557.982171 353.2239
L 950.479034 353.2239
L 950.479034 353.2239
" style="fill:none;stroke:#f15c80;stroke-linecap:square;"/>
   </g>
   <g id="line2d_102">
    <path clip-path="url(#pa922e8c63e)" d="M 100.897216 353.2239
L 538.108912 353.149731
L 543.077227 353.102779
L 548.045541 352.7435
L 553.013856 346.722174
L 557.982171 353.2239
L 950.479034 353.2239
L 950.479034 353.2239
" style="fill:none;stroke:#e4d354;stroke-linecap:square;"/>
   </g>
   <g id="line2d_103">
    <path clip-path="url(#pa922e8c63e)" d="M 100.897216 353.2239
L 543.077227 353.143607
L 548.045541 352.870065
L 553.013856 346.628952
L 557.982171 353.2239
L 950.479034 353.2239
L 950.479034 353.2239
" style="fill:none;stroke:#2b908f;stroke-linecap:square;"/>
   </g>
   <g id="line2d_104">
    <path clip-path="url(#pa922e8c63e)" d="M 100.897216 353.2239
L 538.108912 353.159937
L 543.077227 353.047663
L 548.045541 352.410078
L 553.013856 311.855773
L 557.982171 353.2239
L 950.479034 353.2239
L 950.479034 353.2239
" style="fill:none;stroke:#f45b5b;stroke-linecap:square;"/>
   </g>
   <g id="line2d_105">
    <path clip-path="url(#pa922e8c63e)" d="M 100.897216 353.2239
L 538.108912 353.152452
L 543.077227 353.052426
L 548.045541 352.456349
L 553.013856 311.786367
L 557.982171 353.2239
L 950.479034 353.2239
L 950.479034 353.2239
" style="fill:none;stroke:#91e8e1;stroke-linecap:square;"/>
   </g>
   <g id="line2d_106">
    <path clip-path="url(#pa922e8c63e)" d="M 100.897216 353.2239
L 538.108912 353.170825
L 543.077227 353.10346
L 548.045541 352.681579
L 553.013856 326.204481
L 557.982171 353.2239
L 950.479034 353.2239
L 950.479034 353.2239
" style="fill:none;stroke:#7cb5ec;stroke-linecap:square;"/>
   </g>
   <g id="line2d_107">
    <path clip-path="url(#pa922e8c63e)" d="M 100.897216 353.2239
L 543.077227 353.115708
L 548.045541 352.708797
L 553.013856 326.403853
L 557.982171 353.2239
L 950.479034 353.2239
L 950.479034 353.2239
" style="fill:none;stroke:#434348;stroke-linecap:square;"/>
   </g>
   <g id="line2d_108">
    <path clip-path="url(#pa922e8c63e)" d="M 100.897216 353.2239
L 543.077227 353.1334
L 548.045541 352.819711
L 553.013856 330.932267
L 557.982171 353.2239
L 950.479034 353.2239
L 950.479034 353.2239
" style="fill:none;stroke:#90ed7d;stroke-linecap:square;"/>
   </g>
   <g id="line2d_109">
    <path clip-path="url(#pa922e8c63e)" d="M 100.897216 353.2239
L 543.077227 353.124554
L 548.045541 352.840805
L 553.013856 330.960165
L 557.982171 353.2239
L 950.479034 353.2239
L 950.479034 353.2239
" style="fill:none;stroke:#f7a35c;stroke-linecap:square;"/>
   </g>
   <g id="line2d_110">
    <path clip-path="url(#pa922e8c63e)" d="M 100.897216 353.2239
L 508.299023 353.115708
L 513.267338 352.976896
L 518.235653 352.495816
L 523.203968 347.676849
L 528.172282 292.557451
L 533.140597 353.2239
L 925.63746 353.2239
L 925.63746 353.2239
" style="fill:none;stroke:#8085e9;stroke-linecap:square;"/>
   </g>
   <g id="line2d_111">
    <path clip-path="url(#pa922e8c63e)" d="M 100.897216 353.2239
L 508.299023 353.139524
L 513.267338 353.017042
L 518.235653 352.551613
L 523.203968 347.932019
L 528.172282 291.577599
L 533.140597 353.2239
L 925.63746 353.2239
L 925.63746 353.2239
" style="fill:none;stroke:#f15c80;stroke-linecap:square;"/>
   </g>
   <g id="line2d_112">
    <path clip-path="url(#pa922e8c63e)" d="M 100.897216 353.2239
L 533.140597 353.123193
L 543.077227 352.869384
L 548.045541 351.838498
L 553.013856 323.831061
L 557.982171 353.2239
L 950.479034 353.2239
L 950.479034 353.2239
" style="fill:none;stroke:#e4d354;stroke-linecap:square;"/>
   </g>
   <g id="line2d_113">
    <path clip-path="url(#pa922e8c63e)" d="M 100.897216 353.2239
L 533.140597 353.130678
L 543.077227 352.883674
L 548.045541 351.865036
L 553.013856 324.316224
L 557.982171 353.2239
L 950.479034 353.2239
L 950.479034 353.2239
" style="fill:none;stroke:#2b908f;stroke-linecap:square;"/>
   </g>
   <g id="line2d_114">
    <path clip-path="url(#pa922e8c63e)" d="M 100.897216 353.2239
L 543.077227 353.154494
L 548.045541 353.000031
L 553.013856 350.099941
L 557.982171 353.2239
L 950.479034 353.2239
L 950.479034 353.2239
" style="fill:none;stroke:#f45b5b;stroke-linecap:square;"/>
   </g>
   <g id="line2d_115">
    <path clip-path="url(#pa922e8c63e)" d="M 100.897216 353.2239
L 543.077227 353.181712
L 548.045541 353.034734
L 553.013856 350.12784
L 557.982171 353.2239
L 950.479034 353.2239
L 950.479034 353.2239
" style="fill:none;stroke:#91e8e1;stroke-linecap:square;"/>
   </g>
   <g id="line2d_116">
    <path clip-path="url(#pa922e8c63e)" d="M 100.897216 353.2239
L 533.140597 353.129317
L 543.077227 352.87823
L 548.045541 352.024942
L 553.013856 327.955286
L 557.982171 353.2239
L 950.479034 353.2239
L 950.479034 353.2239
" style="fill:none;stroke:#7cb5ec;stroke-linecap:square;"/>
   </g>
   <g id="line2d_117">
    <path clip-path="url(#pa922e8c63e)" d="M 100.897216 353.2239
L 533.140597 353.152452
L 543.077227 352.90817
L 548.045541 352.002487
L 553.013856 328.085252
L 557.982171 353.2239
L 950.479034 353.2239
L 950.479034 353.2239
" style="fill:none;stroke:#434348;stroke-linecap:square;"/>
   </g>
   <g id="line2d_118">
    <path clip-path="url(#pa922e8c63e)" d="M 100.897216 353.2239
L 538.108912 353.141565
L 543.077227 353.05923
L 548.045541 352.634628
L 553.013856 346.186657
L 557.982171 353.2239
L 950.479034 353.2239
L 950.479034 353.2239
" style="fill:none;stroke:#90ed7d;stroke-linecap:square;"/>
   </g>
   <g id="line2d_119">
    <path clip-path="url(#pa922e8c63e)" d="M 100.897216 353.2239
L 543.077227 353.11911
L 548.045541 352.717643
L 553.013856 346.123375
L 557.982171 353.2239
L 950.479034 353.2239
L 950.479034 353.2239
" style="fill:none;stroke:#f7a35c;stroke-linecap:square;"/>
   </g>
   <g id="line2d_120">
    <path clip-path="url(#pa922e8c63e)" d="M 100.897216 353.2239
L 538.108912 353.145648
L 543.077227 353.02861
L 548.045541 352.376736
L 553.013856 333.462871
L 557.982171 353.2239
L 950.479034 353.2239
L 950.479034 353.2239
" style="fill:none;stroke:#8085e9;stroke-linecap:square;"/>
   </g>
   <g id="line2d_121">
    <path clip-path="url(#pa922e8c63e)" d="M 100.897216 353.2239
L 538.108912 353.141565
L 543.077227 353.0429
L 548.045541 352.375375
L 553.013856 333.634345
L 557.982171 353.2239
L 950.479034 353.2239
L 950.479034 353.2239
" style="fill:none;stroke:#f15c80;stroke-linecap:square;"/>
   </g>
   <g id="line2d_122">
    <path clip-path="url(#pa922e8c63e)" d="M 100.897216 353.2239
L 543.077227 353.166062
L 548.045541 352.884354
L 553.013856 348.668269
L 557.982171 353.2239
L 950.479034 353.2239
L 950.479034 353.2239
" style="fill:none;stroke:#e4d354;stroke-linecap:square;"/>
   </g>
   <g id="line2d_123">
    <path clip-path="url(#pa922e8c63e)" d="M 100.897216 353.2239
L 543.077227 353.156535
L 548.045541 352.962606
L 553.013856 348.662145
L 557.982171 353.2239
L 950.479034 353.2239
L 950.479034 353.2239
" style="fill:none;stroke:#2b908f;stroke-linecap:square;"/>
   </g>
   <g id="line2d_124">
    <path clip-path="url(#pa922e8c63e)" d="M 100.897216 353.2239
L 533.140597 353.132719
L 538.108912 353.087129
L 543.077227 352.910211
L 548.045541 352.014735
L 553.013856 328.221343
L 557.982171 353.2239
L 950.479034 353.2239
L 950.479034 353.2239
" style="fill:none;stroke:#f45b5b;stroke-linecap:square;"/>
   </g>
   <g id="line2d_125">
    <path clip-path="url(#pa922e8c63e)" d="M 100.897216 353.2239
L 533.140597 353.147689
L 543.077227 352.921099
L 548.045541 351.924916
L 553.013856 328.758901
L 557.982171 353.2239
L 950.479034 353.2239
L 950.479034 353.2239
" style="fill:none;stroke:#91e8e1;stroke-linecap:square;"/>
   </g>
   <g id="line2d_126">
    <path clip-path="url(#pa922e8c63e)" d="M 100.897216 353.2239
L 533.140597 353.138843
L 543.077227 352.948317
L 548.045541 352.208664
L 553.013856 332.192465
L 557.982171 353.2239
L 950.479034 353.2239
L 950.479034 353.2239
" style="fill:none;stroke:#7cb5ec;stroke-linecap:square;"/>
   </g>
   <g id="line2d_127">
    <path clip-path="url(#pa922e8c63e)" d="M 100.897216 353.2239
L 533.140597 353.137482
L 543.077227 352.942873
L 548.045541 352.15695
L 553.013856 332.408169
L 557.982171 353.2239
L 950.479034 353.2239
L 950.479034 353.2239
" style="fill:none;stroke:#434348;stroke-linecap:square;"/>
   </g>
   <g id="line2d_128">
    <path clip-path="url(#pa922e8c63e)" d="M 100.897216 353.2239
L 543.077227 353.113667
L 548.045541 352.778884
L 553.013856 331.301753
L 557.982171 353.2239
L 950.479034 353.2239
L 950.479034 353.2239
" style="fill:none;stroke:#90ed7d;stroke-linecap:square;"/>
   </g>
   <g id="line2d_129">
    <path clip-path="url(#pa922e8c63e)" d="M 100.897216 353.2239
L 543.077227 353.123873
L 548.045541 352.81835
L 553.013856 331.465061
L 557.982171 353.2239
L 950.479034 353.2239
L 950.479034 353.2239
" style="fill:none;stroke:#f7a35c;stroke-linecap:square;"/>
   </g>
   <g id="line2d_130">
    <path clip-path="url(#pa922e8c63e)" d="M 100.897216 353.2239
L 538.108912 353.165381
L 543.077227 353.104821
L 548.045541 352.580192
L 553.013856 313.821601
L 557.982171 353.2239
L 950.479034 353.2239
L 950.479034 353.2239
" style="fill:none;stroke:#8085e9;stroke-linecap:square;"/>
   </g>
   <g id="line2d_131">
    <path clip-path="url(#pa922e8c63e)" d="M 100.897216 353.2239
L 538.108912 353.168783
L 543.077227 353.108223
L 548.045541 352.545489
L 553.013856 314.137331
L 557.982171 353.2239
L 950.479034 353.2239
L 950.479034 353.2239
" style="fill:none;stroke:#f15c80;stroke-linecap:square;"/>
   </g>
   <g id="line2d_132">
    <path clip-path="url(#pa922e8c63e)" d="M 100.897216 353.2239
L 538.108912 353.155855
L 543.077227 353.067396
L 548.045541 352.456349
L 553.013856 312.336853
L 557.982171 353.2239
L 950.479034 353.2239
L 950.479034 353.2239
" style="fill:none;stroke:#e4d354;stroke-linecap:square;"/>
   </g>
   <g id="line2d_133">
    <path clip-path="url(#pa922e8c63e)" d="M 100.897216 353.2239
L 538.108912 353.155855
L 543.077227 353.064674
L 548.045541 352.505342
L 553.013856 312.560722
L 557.982171 353.2239
L 950.479034 353.2239
L 950.479034 353.2239
" style="fill:none;stroke:#2b908f;stroke-linecap:square;"/>
   </g>
   <g id="line2d_134">
    <path clip-path="url(#pa922e8c63e)" d="M 100.897216 353.2239
L 518.235653 353.134761
L 533.140597 352.947636
L 538.108912 352.751666
L 543.077227 352.21683
L 548.045541 347.644187
L 553.013856 243.651949
L 557.982171 353.2239
L 950.479034 353.2239
L 950.479034 353.2239
" style="fill:none;stroke:#f45b5b;stroke-linecap:square;"/>
   </g>
   <g id="line2d_135">
    <path clip-path="url(#pa922e8c63e)" d="M 100.897216 353.2239
L 518.235653 353.132719
L 533.140597 352.956482
L 538.108912 352.765955
L 543.077227 352.288958
L 548.045541 348.133433
L 553.013856 245.508224
L 557.982171 353.2239
L 950.479034 353.2239
L 950.479034 353.2239
" style="fill:none;stroke:#91e8e1;stroke-linecap:square;"/>
   </g>
   <g id="line2d_136">
    <path clip-path="url(#pa922e8c63e)" d="M 100.897216 353.2239
L 498.362394 353.153133
L 523.203968 352.846249
L 528.172282 352.751666
L 538.108912 352.243368
L 543.077227 351.564276
L 548.045541 347.274021
L 553.013856 256.531559
L 557.982171 353.2239
L 950.479034 353.2239
L 950.479034 353.2239
" style="fill:none;stroke:#7cb5ec;stroke-linecap:square;"/>
   </g>
   <g id="line2d_137">
    <path clip-path="url(#pa922e8c63e)" d="M 100.897216 353.2239
L 503.330709 353.124554
L 523.203968 352.894561
L 533.140597 352.574748
L 538.108912 352.289638
L 543.077227 351.701047
L 548.045541 347.792526
L 553.013856 258.217721
L 557.982171 353.2239
L 950.479034 353.2239
L 950.479034 353.2239
" style="fill:none;stroke:#434348;stroke-linecap:square;"/>
   </g>
   <g id="line2d_138">
    <path clip-path="url(#pa922e8c63e)" d="M 100.897216 353.2239
L 528.172282 353.136122
L 533.140597 353.106862
L 538.108912 352.935388
L 543.077227 352.357684
L 548.045541 344.844124
L 553.013856 106.998657
L 557.982171 353.2239
L 950.479034 353.2239
L 950.479034 353.2239
" style="fill:none;stroke:#90ed7d;stroke-linecap:square;"/>
   </g>
   <g id="line2d_139">
    <path clip-path="url(#pa922e8c63e)" d="M 100.897216 353.2239
L 528.172282 353.157896
L 538.108912 352.93811
L 543.077227 352.440699
L 548.045541 345.855957
L 553.013856 109.185632
L 557.982171 353.2239
L 950.479034 353.2239
L 950.479034 353.2239
" style="fill:none;stroke:#f7a35c;stroke-linecap:square;"/>
   </g>
   <g id="line2d_140">
    <path clip-path="url(#pa922e8c63e)" d="M 58.418125 353.2239
L 992.958125 353.2239
" style="fill:none;stroke:#dedede;stroke-linecap:square;stroke-width:2;"/>
   </g>
   <g id="text_16">
    <!-- Adapter Removal: Length Distribution -->
    <g transform="translate(374.691875 19.3575)scale(0.16 -0.16)">
     <defs>
      <path d="M 34.1875 63.1875
L 20.796875 26.90625
L 47.609375 26.90625
z
M 28.609375 72.90625
L 39.796875 72.90625
L 67.578125 0
L 57.328125 0
L 50.6875 18.703125
L 17.828125 18.703125
L 11.1875 0
L 0.78125 0
z
" id="DejaVuSans-65"/>
      <path d="M 18.109375 8.203125
L 18.109375 -20.796875
L 9.078125 -20.796875
L 9.078125 54.6875
L 18.109375 54.6875
L 18.109375 46.390625
Q 20.953125 51.265625 25.265625 53.625
Q 29.59375 56 35.59375 56
Q 45.5625 56 51.78125 48.09375
Q 58.015625 40.1875 58.015625 27.296875
Q 58.015625 14.40625 51.78125 6.484375
Q 45.5625 -1.421875 35.59375 -1.421875
Q 29.59375 -1.421875 25.265625 0.953125
Q 20.953125 3.328125 18.109375 8.203125
z
M 48.6875 27.296875
Q 48.6875 37.203125 44.609375 42.84375
Q 40.53125 48.484375 33.40625 48.484375
Q 26.265625 48.484375 22.1875 42.84375
Q 18.109375 37.203125 18.109375 27.296875
Q 18.109375 17.390625 22.1875 11.75
Q 26.265625 6.109375 33.40625 6.109375
Q 40.53125 6.109375 44.609375 11.75
Q 48.6875 17.390625 48.6875 27.296875
z
" id="DejaVuSans-112"/>
      <path d="M 44.390625 34.1875
Q 47.5625 33.109375 50.5625 29.59375
Q 53.5625 26.078125 56.59375 19.921875
L 66.609375 0
L 56 0
L 46.6875 18.703125
Q 43.0625 26.03125 39.671875 28.421875
Q 36.28125 30.8125 30.421875 30.8125
L 19.671875 30.8125
L 19.671875 0
L 9.8125 0
L 9.8125 72.90625
L 32.078125 72.90625
Q 44.578125 72.90625 50.734375 67.671875
Q 56.890625 62.453125 56.890625 51.90625
Q 56.890625 45.015625 53.6875 40.46875
Q 50.484375 35.9375 44.390625 34.1875
z
M 19.671875 64.796875
L 19.671875 38.921875
L 32.078125 38.921875
Q 39.203125 38.921875 42.84375 42.21875
Q 46.484375 45.515625 46.484375 51.90625
Q 46.484375 58.296875 42.84375 61.546875
Q 39.203125 64.796875 32.078125 64.796875
z
" id="DejaVuSans-82"/>
      <path d="M 52 44.1875
Q 55.375 50.25 60.0625 53.125
Q 64.75 56 71.09375 56
Q 79.640625 56 84.28125 50.015625
Q 88.921875 44.046875 88.921875 33.015625
L 88.921875 0
L 79.890625 0
L 79.890625 32.71875
Q 79.890625 40.578125 77.09375 44.375
Q 74.3125 48.1875 68.609375 48.1875
Q 61.625 48.1875 57.5625 43.546875
Q 53.515625 38.921875 53.515625 30.90625
L 53.515625 0
L 44.484375 0
L 44.484375 32.71875
Q 44.484375 40.625 41.703125 44.40625
Q 38.921875 48.1875 33.109375 48.1875
Q 26.21875 48.1875 22.15625 43.53125
Q 18.109375 38.875 18.109375 30.90625
L 18.109375 0
L 9.078125 0
L 9.078125 54.6875
L 18.109375 54.6875
L 18.109375 46.1875
Q 21.1875 51.21875 25.484375 53.609375
Q 29.78125 56 35.6875 56
Q 41.65625 56 45.828125 52.96875
Q 50 49.953125 52 44.1875
z
" id="DejaVuSans-109"/>
      <path d="M 2.984375 54.6875
L 12.5 54.6875
L 29.59375 8.796875
L 46.6875 54.6875
L 56.203125 54.6875
L 35.6875 0
L 23.484375 0
z
" id="DejaVuSans-118"/>
      <path d="M 11.71875 12.40625
L 22.015625 12.40625
L 22.015625 0
L 11.71875 0
z
M 11.71875 51.703125
L 22.015625 51.703125
L 22.015625 39.3125
L 11.71875 39.3125
z
" id="DejaVuSans-58"/>
      <path d="M 9.8125 72.90625
L 19.671875 72.90625
L 19.671875 8.296875
L 55.171875 8.296875
L 55.171875 0
L 9.8125 0
z
" id="DejaVuSans-76"/>
      <path d="M 19.671875 64.796875
L 19.671875 8.109375
L 31.59375 8.109375
Q 46.6875 8.109375 53.6875 14.9375
Q 60.6875 21.78125 60.6875 36.53125
Q 60.6875 51.171875 53.6875 57.984375
Q 46.6875 64.796875 31.59375 64.796875
z
M 9.8125 72.90625
L 30.078125 72.90625
Q 51.265625 72.90625 61.171875 64.09375
Q 71.09375 55.28125 71.09375 36.53125
Q 71.09375 17.671875 61.125 8.828125
Q 51.171875 0 30.078125 0
L 9.8125 0
z
" id="DejaVuSans-68"/>
      <path d="M 9.421875 54.6875
L 18.40625 54.6875
L 18.40625 0
L 9.421875 0
z
M 9.421875 75.984375
L 18.40625 75.984375
L 18.40625 64.59375
L 9.421875 64.59375
z
" id="DejaVuSans-105"/>
      <path d="M 44.28125 53.078125
L 44.28125 44.578125
Q 40.484375 46.53125 36.375 47.5
Q 32.28125 48.484375 27.875 48.484375
Q 21.1875 48.484375 17.84375 46.4375
Q 14.5 44.390625 14.5 40.28125
Q 14.5 37.15625 16.890625 35.375
Q 19.28125 33.59375 26.515625 31.984375
L 29.59375 31.296875
Q 39.15625 29.25 43.1875 25.515625
Q 47.21875 21.78125 47.21875 15.09375
Q 47.21875 7.46875 41.1875 3.015625
Q 35.15625 -1.421875 24.609375 -1.421875
Q 20.21875 -1.421875 15.453125 -0.5625
Q 10.6875 0.296875 5.421875 2
L 5.421875 11.28125
Q 10.40625 8.6875 15.234375 7.390625
Q 20.0625 6.109375 24.8125 6.109375
Q 31.15625 6.109375 34.5625 8.28125
Q 37.984375 10.453125 37.984375 14.40625
Q 37.984375 18.0625 35.515625 20.015625
Q 33.0625 21.96875 24.703125 23.78125
L 21.578125 24.515625
Q 13.234375 26.265625 9.515625 29.90625
Q 5.8125 33.546875 5.8125 39.890625
Q 5.8125 47.609375 11.28125 51.796875
Q 16.75 56 26.8125 56
Q 31.78125 56 36.171875 55.265625
Q 40.578125 54.546875 44.28125 53.078125
z
" id="DejaVuSans-115"/>
      <path d="M 48.6875 27.296875
Q 48.6875 37.203125 44.609375 42.84375
Q 40.53125 48.484375 33.40625 48.484375
Q 26.265625 48.484375 22.1875 42.84375
Q 18.109375 37.203125 18.109375 27.296875
Q 18.109375 17.390625 22.1875 11.75
Q 26.265625 6.109375 33.40625 6.109375
Q 40.53125 6.109375 44.609375 11.75
Q 48.6875 17.390625 48.6875 27.296875
z
M 18.109375 46.390625
Q 20.953125 51.265625 25.265625 53.625
Q 29.59375 56 35.59375 56
Q 45.5625 56 51.78125 48.09375
Q 58.015625 40.1875 58.015625 27.296875
Q 58.015625 14.40625 51.78125 6.484375
Q 45.5625 -1.421875 35.59375 -1.421875
Q 29.59375 -1.421875 25.265625 0.953125
Q 20.953125 3.328125 18.109375 8.203125
L 18.109375 0
L 9.078125 0
L 9.078125 75.984375
L 18.109375 75.984375
z
" id="DejaVuSans-98"/>
     </defs>
     <use xlink:href="#DejaVuSans-65"/>
     <use x="66.658203" xlink:href="#DejaVuSans-100"/>
     <use x="130.134766" xlink:href="#DejaVuSans-97"/>
     <use x="191.414062" xlink:href="#DejaVuSans-112"/>
     <use x="254.890625" xlink:href="#DejaVuSans-116"/>
     <use x="294.099609" xlink:href="#DejaVuSans-101"/>
     <use x="355.623047" xlink:href="#DejaVuSans-114"/>
     <use x="396.736328" xlink:href="#DejaVuSans-32"/>
     <use x="428.523438" xlink:href="#DejaVuSans-82"/>
     <use x="493.505859" xlink:href="#DejaVuSans-101"/>
     <use x="555.029297" xlink:href="#DejaVuSans-109"/>
     <use x="652.441406" xlink:href="#DejaVuSans-111"/>
     <use x="713.623047" xlink:href="#DejaVuSans-118"/>
     <use x="772.802734" xlink:href="#DejaVuSans-97"/>
     <use x="834.082031" xlink:href="#DejaVuSans-108"/>
     <use x="861.865234" xlink:href="#DejaVuSans-58"/>
     <use x="895.556641" xlink:href="#DejaVuSans-32"/>
     <use x="927.34375" xlink:href="#DejaVuSans-76"/>
     <use x="981.306641" xlink:href="#DejaVuSans-101"/>
     <use x="1042.830078" xlink:href="#DejaVuSans-110"/>
     <use x="1106.208984" xlink:href="#DejaVuSans-103"/>
     <use x="1169.685547" xlink:href="#DejaVuSans-116"/>
     <use x="1208.894531" xlink:href="#DejaVuSans-104"/>
     <use x="1272.273438" xlink:href="#DejaVuSans-32"/>
     <use x="1304.060547" xlink:href="#DejaVuSans-68"/>
     <use x="1381.0625" xlink:href="#DejaVuSans-105"/>
     <use x="1408.845703" xlink:href="#DejaVuSans-115"/>
     <use x="1460.945312" xlink:href="#DejaVuSans-116"/>
     <use x="1500.154297" xlink:href="#DejaVuSans-114"/>
     <use x="1541.267578" xlink:href="#DejaVuSans-105"/>
     <use x="1569.050781" xlink:href="#DejaVuSans-98"/>
     <use x="1632.527344" xlink:href="#DejaVuSans-117"/>
     <use x="1695.90625" xlink:href="#DejaVuSans-116"/>
     <use x="1735.115234" xlink:href="#DejaVuSans-105"/>
     <use x="1762.898438" xlink:href="#DejaVuSans-111"/>
     <use x="1824.080078" xlink:href="#DejaVuSans-110"/>
    </g>
   </g>
  </g>
 </g>
 <defs>
  <clipPath id="pa922e8c63e">
   <rect height="317.968" width="934.54" x="58.418125" y="35.2559"/>
  </clipPath>
 </defs>
</svg>
