<?xml version="1.0" encoding="utf-8" standalone="no"?>
<!DOCTYPE svg PUBLIC "-//W3C//DTD SVG 1.1//EN"
  "http://www.w3.org/Graphics/SVG/1.1/DTD/svg11.dtd">
<!-- Created with matplotlib (https://matplotlib.org/) -->
<svg height="142.830312pt" version="1.1" viewBox="0 0 210.986875 142.830312" width="210.986875pt" xmlns="http://www.w3.org/2000/svg" xmlns:xlink="http://www.w3.org/1999/xlink">
 <metadata>
  <rdf:RDF xmlns:cc="http://creativecommons.org/ns#" xmlns:dc="http://purl.org/dc/elements/1.1/" xmlns:rdf="http://www.w3.org/1999/02/22-rdf-syntax-ns#">
   <cc:Work>
    <dc:type rdf:resource="http://purl.org/dc/dcmitype/StillImage"/>
    <dc:date>2021-03-02T13:33:31.622890</dc:date>
    <dc:format>image/svg+xml</dc:format>
    <dc:creator>
     <cc:Agent>
      <dc:title>Matplotlib v3.3.2, https://matplotlib.org/</dc:title>
     </cc:Agent>
    </dc:creator>
   </cc:Work>
  </rdf:RDF>
 </metadata>
 <defs>
  <style type="text/css">*{stroke-linecap:butt;stroke-linejoin:round;}</style>
 </defs>
 <g id="figure_1">
  <g id="patch_1">
   <path d="M 0 142.830312
L 210.986875 142.830312
L 210.986875 0
L 0 0
z
" style="fill:none;"/>
  </g>
  <g id="axes_1">
   <g id="patch_2">
    <path d="M 31.615 115.92
L 199.015 115.92
L 199.015 7.2
L 31.615 7.2
z
" style="fill:#ffffff;"/>
   </g>
   <g id="PathCollection_1">
    <defs>
     <path d="M 0 1.581139
C 0.419323 1.581139 0.821528 1.41454 1.118034 1.118034
C 1.41454 0.821528 1.581139 0.419323 1.581139 -0
C 1.581139 -0.419323 1.41454 -0.821528 1.118034 -1.118034
C 0.821528 -1.41454 0.419323 -1.581139 0 -1.581139
C -0.419323 -1.581139 -0.821528 -1.41454 -1.118034 -1.118034
C -1.41454 -0.821528 -1.581139 -0.419323 -1.581139 0
C -1.581139 0.419323 -1.41454 0.821528 -1.118034 1.118034
C -0.821528 1.41454 -0.419323 1.581139 0 1.581139
z
" id="C0_0_1c53523e00"/>
    </defs>
    <g clip-path="url(#pd0b06c7ffe)">
     <use style="fill:#008000;fill-opacity:0.8;stroke:#000000;stroke-opacity:0.8;stroke-width:0.25;" x="52.483123" xlink:href="#C0_0_1c53523e00" y="104.203142"/>
    </g>
    <g clip-path="url(#pd0b06c7ffe)">
     <use style="fill:#008000;fill-opacity:0.8;stroke:#000000;stroke-opacity:0.8;stroke-width:0.25;" x="51.645639" xlink:href="#C0_0_1c53523e00" y="102.786293"/>
    </g>
    <g clip-path="url(#pd0b06c7ffe)">
     <use style="fill:#008000;fill-opacity:0.8;stroke:#000000;stroke-opacity:0.8;stroke-width:0.25;" x="53.182641" xlink:href="#C0_0_1c53523e00" y="103.493461"/>
    </g>
    <g clip-path="url(#pd0b06c7ffe)">
     <use style="fill:#008000;fill-opacity:0.8;stroke:#000000;stroke-opacity:0.8;stroke-width:0.25;" x="56.707923" xlink:href="#C0_0_1c53523e00" y="99.720086"/>
    </g>
    <g clip-path="url(#pd0b06c7ffe)">
     <use style="fill:#008000;fill-opacity:0.8;stroke:#000000;stroke-opacity:0.8;stroke-width:0.25;" x="61.306526" xlink:href="#C0_0_1c53523e00" y="99.23328"/>
    </g>
    <g clip-path="url(#pd0b06c7ffe)">
     <use style="fill:#008000;fill-opacity:0.8;stroke:#000000;stroke-opacity:0.8;stroke-width:0.25;" x="66.785515" xlink:href="#C0_0_1c53523e00" y="94.604435"/>
    </g>
    <g clip-path="url(#pd0b06c7ffe)">
     <use style="fill:#008000;fill-opacity:0.8;stroke:#000000;stroke-opacity:0.8;stroke-width:0.25;" x="45.745444" xlink:href="#C0_0_1c53523e00" y="107.095071"/>
    </g>
    <g clip-path="url(#pd0b06c7ffe)">
     <use style="fill:#008000;fill-opacity:0.8;stroke:#000000;stroke-opacity:0.8;stroke-width:0.25;" x="60.233293" xlink:href="#C0_0_1c53523e00" y="98.699972"/>
    </g>
    <g clip-path="url(#pd0b06c7ffe)">
     <use style="fill:#008000;fill-opacity:0.8;stroke:#000000;stroke-opacity:0.8;stroke-width:0.25;" x="101.85349" xlink:href="#C0_0_1c53523e00" y="74.103285"/>
    </g>
    <g clip-path="url(#pd0b06c7ffe)">
     <use style="fill:#008000;fill-opacity:0.8;stroke:#000000;stroke-opacity:0.8;stroke-width:0.25;" x="85.70622" xlink:href="#C0_0_1c53523e00" y="81.903491"/>
    </g>
    <g clip-path="url(#pd0b06c7ffe)">
     <use style="fill:#008000;fill-opacity:0.8;stroke:#000000;stroke-opacity:0.8;stroke-width:0.25;" x="68.389632" xlink:href="#C0_0_1c53523e00" y="93.888468"/>
    </g>
    <g clip-path="url(#pd0b06c7ffe)">
     <use style="fill:#008000;fill-opacity:0.8;stroke:#000000;stroke-opacity:0.8;stroke-width:0.25;" x="127.520538" xlink:href="#C0_0_1c53523e00" y="55.844289"/>
    </g>
    <g clip-path="url(#pd0b06c7ffe)">
     <use style="fill:#008000;fill-opacity:0.8;stroke:#000000;stroke-opacity:0.8;stroke-width:0.25;" x="71.109374" xlink:href="#C0_0_1c53523e00" y="92.872963"/>
    </g>
    <g clip-path="url(#pd0b06c7ffe)">
     <use style="fill:#008000;fill-opacity:0.8;stroke:#000000;stroke-opacity:0.8;stroke-width:0.25;" x="64.045214" xlink:href="#C0_0_1c53523e00" y="96.055216"/>
    </g>
    <g clip-path="url(#pd0b06c7ffe)">
     <use style="fill:#008000;fill-opacity:0.8;stroke:#000000;stroke-opacity:0.8;stroke-width:0.25;" x="62.519425" xlink:href="#C0_0_1c53523e00" y="95.867532"/>
    </g>
    <g clip-path="url(#pd0b06c7ffe)">
     <use style="fill:#ff0000;fill-opacity:0.8;stroke:#000000;stroke-opacity:0.8;stroke-width:0.25;" x="77.773906" xlink:href="#C0_0_1c53523e00" y="105.159996"/>
    </g>
    <g clip-path="url(#pd0b06c7ffe)">
     <use style="fill:#ff0000;fill-opacity:0.8;stroke:#000000;stroke-opacity:0.8;stroke-width:0.25;" x="59.331923" xlink:href="#C0_0_1c53523e00" y="109.630903"/>
    </g>
    <g clip-path="url(#pd0b06c7ffe)">
     <use style="fill:#008000;fill-opacity:0.8;stroke:#000000;stroke-opacity:0.8;stroke-width:0.25;" x="68.452668" xlink:href="#C0_0_1c53523e00" y="94.959275"/>
    </g>
    <g clip-path="url(#pd0b06c7ffe)">
     <use style="fill:#008000;fill-opacity:0.8;stroke:#000000;stroke-opacity:0.8;stroke-width:0.25;" x="84.718365" xlink:href="#C0_0_1c53523e00" y="84.016196"/>
    </g>
    <g clip-path="url(#pd0b06c7ffe)">
     <use style="fill:#008000;fill-opacity:0.8;stroke:#000000;stroke-opacity:0.8;stroke-width:0.25;" x="59.545329" xlink:href="#C0_0_1c53523e00" y="98.829004"/>
    </g>
    <g clip-path="url(#pd0b06c7ffe)">
     <use style="fill:#008000;fill-opacity:0.8;stroke:#000000;stroke-opacity:0.8;stroke-width:0.25;" x="44.725562" xlink:href="#C0_0_1c53523e00" y="106.047307"/>
    </g>
    <g clip-path="url(#pd0b06c7ffe)">
     <use style="fill:#008000;fill-opacity:0.8;stroke:#000000;stroke-opacity:0.8;stroke-width:0.25;" x="84.153162" xlink:href="#C0_0_1c53523e00" y="85.06731"/>
    </g>
    <g clip-path="url(#pd0b06c7ffe)">
     <use style="fill:#008000;fill-opacity:0.8;stroke:#000000;stroke-opacity:0.8;stroke-width:0.25;" x="93.886176" xlink:href="#C0_0_1c53523e00" y="66.459341"/>
    </g>
    <g clip-path="url(#pd0b06c7ffe)">
     <use style="fill:#008000;fill-opacity:0.8;stroke:#000000;stroke-opacity:0.8;stroke-width:0.25;" x="81.071597" xlink:href="#C0_0_1c53523e00" y="90.064821"/>
    </g>
    <g clip-path="url(#pd0b06c7ffe)">
     <use style="fill:#ff0000;fill-opacity:0.8;stroke:#000000;stroke-opacity:0.8;stroke-width:0.25;" x="64.532174" xlink:href="#C0_0_1c53523e00" y="106.99285"/>
    </g>
    <g clip-path="url(#pd0b06c7ffe)">
     <use style="fill:#ff0000;fill-opacity:0.8;stroke:#000000;stroke-opacity:0.8;stroke-width:0.25;" x="66.940388" xlink:href="#C0_0_1c53523e00" y="107.899013"/>
    </g>
    <g clip-path="url(#pd0b06c7ffe)">
     <use style="fill:#ff0000;fill-opacity:0.8;stroke:#000000;stroke-opacity:0.8;stroke-width:0.25;" x="68.606095" xlink:href="#C0_0_1c53523e00" y="106.710067"/>
    </g>
    <g clip-path="url(#pd0b06c7ffe)">
     <use style="fill:#ff0000;fill-opacity:0.8;stroke:#000000;stroke-opacity:0.8;stroke-width:0.25;" x="88.470647" xlink:href="#C0_0_1c53523e00" y="104.98488"/>
    </g>
    <g clip-path="url(#pd0b06c7ffe)">
     <use style="fill:#ff0000;fill-opacity:0.8;stroke:#000000;stroke-opacity:0.8;stroke-width:0.25;" x="119.047405" xlink:href="#C0_0_1c53523e00" y="99.062354"/>
    </g>
    <g clip-path="url(#pd0b06c7ffe)">
     <use style="fill:#ff0000;fill-opacity:0.8;stroke:#000000;stroke-opacity:0.8;stroke-width:0.25;" x="65.396503" xlink:href="#C0_0_1c53523e00" y="108.856705"/>
    </g>
    <g clip-path="url(#pd0b06c7ffe)">
     <use style="fill:#008000;fill-opacity:0.8;stroke:#000000;stroke-opacity:0.8;stroke-width:0.25;" x="192.392692" xlink:href="#C0_0_1c53523e00" y="36.514906"/>
    </g>
    <g clip-path="url(#pd0b06c7ffe)">
     <use style="fill:#ff0000;fill-opacity:0.8;stroke:#000000;stroke-opacity:0.8;stroke-width:0.25;" x="55.910879" xlink:href="#C0_0_1c53523e00" y="110.213226"/>
    </g>
    <g clip-path="url(#pd0b06c7ffe)">
     <use style="fill:#ff0000;fill-opacity:0.8;stroke:#000000;stroke-opacity:0.8;stroke-width:0.25;" x="75.32177" xlink:href="#C0_0_1c53523e00" y="104.561753"/>
    </g>
    <g clip-path="url(#pd0b06c7ffe)">
     <use style="fill:#ff0000;fill-opacity:0.8;stroke:#000000;stroke-opacity:0.8;stroke-width:0.25;" x="88.775384" xlink:href="#C0_0_1c53523e00" y="99.560052"/>
    </g>
    <g clip-path="url(#pd0b06c7ffe)">
     <use style="fill:#ff0000;fill-opacity:0.8;stroke:#000000;stroke-opacity:0.8;stroke-width:0.25;" x="78.035313" xlink:href="#C0_0_1c53523e00" y="106.735622"/>
    </g>
    <g clip-path="url(#pd0b06c7ffe)">
     <use style="fill:#ff0000;fill-opacity:0.8;stroke:#000000;stroke-opacity:0.8;stroke-width:0.25;" x="67.381557" xlink:href="#C0_0_1c53523e00" y="108.969818"/>
    </g>
    <g clip-path="url(#pd0b06c7ffe)">
     <use style="fill:#ff0000;fill-opacity:0.8;stroke:#000000;stroke-opacity:0.8;stroke-width:0.25;" x="73.710181" xlink:href="#C0_0_1c53523e00" y="108.023018"/>
    </g>
    <g clip-path="url(#pd0b06c7ffe)">
     <use style="fill:#ff0000;fill-opacity:0.8;stroke:#000000;stroke-opacity:0.8;stroke-width:0.25;" x="62.46327" xlink:href="#C0_0_1c53523e00" y="108.987414"/>
    </g>
    <g clip-path="url(#pd0b06c7ffe)">
     <use style="fill:#ff0000;fill-opacity:0.8;stroke:#000000;stroke-opacity:0.8;stroke-width:0.25;" x="56.288417" xlink:href="#C0_0_1c53523e00" y="110.292406"/>
    </g>
    <g clip-path="url(#pd0b06c7ffe)">
     <use style="fill:#ff0000;fill-opacity:0.8;stroke:#000000;stroke-opacity:0.8;stroke-width:0.25;" x="56.324098" xlink:href="#C0_0_1c53523e00" y="110.203172"/>
    </g>
    <g clip-path="url(#pd0b06c7ffe)">
     <use style="fill:#ff0000;fill-opacity:0.8;stroke:#000000;stroke-opacity:0.8;stroke-width:0.25;" x="73.609761" xlink:href="#C0_0_1c53523e00" y="108.146605"/>
    </g>
    <g clip-path="url(#pd0b06c7ffe)">
     <use style="fill:#ff0000;fill-opacity:0.8;stroke:#000000;stroke-opacity:0.8;stroke-width:0.25;" x="57.949708" xlink:href="#C0_0_1c53523e00" y="110.125668"/>
    </g>
    <g clip-path="url(#pd0b06c7ffe)">
     <use style="fill:#ff0000;fill-opacity:0.8;stroke:#000000;stroke-opacity:0.8;stroke-width:0.25;" x="132.865723" xlink:href="#C0_0_1c53523e00" y="92.479999"/>
    </g>
    <g clip-path="url(#pd0b06c7ffe)">
     <use style="fill:#ff0000;fill-opacity:0.8;stroke:#000000;stroke-opacity:0.8;stroke-width:0.25;" x="92.318165" xlink:href="#C0_0_1c53523e00" y="103.830706"/>
    </g>
    <g clip-path="url(#pd0b06c7ffe)">
     <use style="fill:#ff0000;fill-opacity:0.8;stroke:#000000;stroke-opacity:0.8;stroke-width:0.25;" x="69.292871" xlink:href="#C0_0_1c53523e00" y="107.895242"/>
    </g>
    <g clip-path="url(#pd0b06c7ffe)">
     <use style="fill:#ff0000;fill-opacity:0.8;stroke:#000000;stroke-opacity:0.8;stroke-width:0.25;" x="66.756546" xlink:href="#C0_0_1c53523e00" y="109.452435"/>
    </g>
    <g clip-path="url(#pd0b06c7ffe)">
     <use style="fill:#ff0000;fill-opacity:0.8;stroke:#000000;stroke-opacity:0.8;stroke-width:0.25;" x="156.876412" xlink:href="#C0_0_1c53523e00" y="86.975573"/>
    </g>
    <g clip-path="url(#pd0b06c7ffe)">
     <use style="fill:#008000;fill-opacity:0.8;stroke:#000000;stroke-opacity:0.8;stroke-width:0.25;" x="120.136948" xlink:href="#C0_0_1c53523e00" y="58.581629"/>
    </g>
    <g clip-path="url(#pd0b06c7ffe)">
     <use style="fill:#008000;fill-opacity:0.8;stroke:#000000;stroke-opacity:0.8;stroke-width:0.25;" x="57.384418" xlink:href="#C0_0_1c53523e00" y="103.176324"/>
    </g>
    <g clip-path="url(#pd0b06c7ffe)">
     <use style="fill:#008000;fill-opacity:0.8;stroke:#000000;stroke-opacity:0.8;stroke-width:0.25;" x="72.946012" xlink:href="#C0_0_1c53523e00" y="86.611517"/>
    </g>
    <g clip-path="url(#pd0b06c7ffe)">
     <use style="fill:#008000;fill-opacity:0.8;stroke:#000000;stroke-opacity:0.8;stroke-width:0.25;" x="159.285722" xlink:href="#C0_0_1c53523e00" y="24.9828"/>
    </g>
    <g clip-path="url(#pd0b06c7ffe)">
     <use style="fill:#008000;fill-opacity:0.8;stroke:#000000;stroke-opacity:0.8;stroke-width:0.25;" x="127.501424" xlink:href="#C0_0_1c53523e00" y="56.374667"/>
    </g>
    <g clip-path="url(#pd0b06c7ffe)">
     <use style="fill:#008000;fill-opacity:0.8;stroke:#000000;stroke-opacity:0.8;stroke-width:0.25;" x="151.34126" xlink:href="#C0_0_1c53523e00" y="29.149142"/>
    </g>
    <g clip-path="url(#pd0b06c7ffe)">
     <use style="fill:#008000;fill-opacity:0.8;stroke:#000000;stroke-opacity:0.8;stroke-width:0.25;" x="132.549267" xlink:href="#C0_0_1c53523e00" y="48.228834"/>
    </g>
    <g clip-path="url(#pd0b06c7ffe)">
     <use style="fill:#008000;fill-opacity:0.8;stroke:#000000;stroke-opacity:0.8;stroke-width:0.25;" x="118.38416" xlink:href="#C0_0_1c53523e00" y="55.85937"/>
    </g>
    <g clip-path="url(#pd0b06c7ffe)">
     <use style="fill:#008000;fill-opacity:0.8;stroke:#000000;stroke-opacity:0.8;stroke-width:0.25;" x="113.019774" xlink:href="#C0_0_1c53523e00" y="59.8242"/>
    </g>
   </g>
   <g id="matplotlib.axis_1">
    <g id="xtick_1">
     <g id="line2d_1">
      <defs>
       <path d="M 0 0
L 0 3.5
" id="mcb27c47f83" style="stroke:#000000;stroke-width:0.8;"/>
      </defs>
      <g>
       <use style="stroke:#000000;stroke-width:0.8;" x="35.697927" xlink:href="#mcb27c47f83" y="115.92"/>
      </g>
     </g>
     <g id="text_1">
      <!-- 0 -->
      <g transform="translate(34.107302 126.719219)scale(0.05 -0.05)">
       <defs>
        <path d="M 31.78125 66.40625
Q 24.171875 66.40625 20.328125 58.90625
Q 16.5 51.421875 16.5 36.375
Q 16.5 21.390625 20.328125 13.890625
Q 24.171875 6.390625 31.78125 6.390625
Q 39.453125 6.390625 43.28125 13.890625
Q 47.125 21.390625 47.125 36.375
Q 47.125 51.421875 43.28125 58.90625
Q 39.453125 66.40625 31.78125 66.40625
z
M 31.78125 74.21875
Q 44.046875 74.21875 50.515625 64.515625
Q 56.984375 54.828125 56.984375 36.375
Q 56.984375 17.96875 50.515625 8.265625
Q 44.046875 -1.421875 31.78125 -1.421875
Q 19.53125 -1.421875 13.0625 8.265625
Q 6.59375 17.96875 6.59375 36.375
Q 6.59375 54.828125 13.0625 64.515625
Q 19.53125 74.21875 31.78125 74.21875
z
" id="DejaVuSans-48"/>
       </defs>
       <use xlink:href="#DejaVuSans-48"/>
      </g>
     </g>
    </g>
    <g id="xtick_2">
     <g id="line2d_2">
      <g>
       <use style="stroke:#000000;stroke-width:0.8;" x="56.112561" xlink:href="#mcb27c47f83" y="115.92"/>
      </g>
     </g>
     <g id="text_2">
      <!-- 25 -->
      <g transform="translate(52.931311 126.719219)scale(0.05 -0.05)">
       <defs>
        <path d="M 19.1875 8.296875
L 53.609375 8.296875
L 53.609375 0
L 7.328125 0
L 7.328125 8.296875
Q 12.9375 14.109375 22.625 23.890625
Q 32.328125 33.6875 34.8125 36.53125
Q 39.546875 41.84375 41.421875 45.53125
Q 43.3125 49.21875 43.3125 52.78125
Q 43.3125 58.59375 39.234375 62.25
Q 35.15625 65.921875 28.609375 65.921875
Q 23.96875 65.921875 18.8125 64.3125
Q 13.671875 62.703125 7.8125 59.421875
L 7.8125 69.390625
Q 13.765625 71.78125 18.9375 73
Q 24.125 74.21875 28.421875 74.21875
Q 39.75 74.21875 46.484375 68.546875
Q 53.21875 62.890625 53.21875 53.421875
Q 53.21875 48.921875 51.53125 44.890625
Q 49.859375 40.875 45.40625 35.40625
Q 44.1875 33.984375 37.640625 27.21875
Q 31.109375 20.453125 19.1875 8.296875
z
" id="DejaVuSans-50"/>
        <path d="M 10.796875 72.90625
L 49.515625 72.90625
L 49.515625 64.59375
L 19.828125 64.59375
L 19.828125 46.734375
Q 21.96875 47.46875 24.109375 47.828125
Q 26.265625 48.1875 28.421875 48.1875
Q 40.625 48.1875 47.75 41.5
Q 54.890625 34.8125 54.890625 23.390625
Q 54.890625 11.625 47.5625 5.09375
Q 40.234375 -1.421875 26.90625 -1.421875
Q 22.3125 -1.421875 17.546875 -0.640625
Q 12.796875 0.140625 7.71875 1.703125
L 7.71875 11.625
Q 12.109375 9.234375 16.796875 8.0625
Q 21.484375 6.890625 26.703125 6.890625
Q 35.15625 6.890625 40.078125 11.328125
Q 45.015625 15.765625 45.015625 23.390625
Q 45.015625 31 40.078125 35.4375
Q 35.15625 39.890625 26.703125 39.890625
Q 22.75 39.890625 18.8125 39.015625
Q 14.890625 38.140625 10.796875 36.28125
z
" id="DejaVuSans-53"/>
       </defs>
       <use xlink:href="#DejaVuSans-50"/>
       <use x="63.623047" xlink:href="#DejaVuSans-53"/>
      </g>
     </g>
    </g>
    <g id="xtick_3">
     <g id="line2d_3">
      <g>
       <use style="stroke:#000000;stroke-width:0.8;" x="76.527195" xlink:href="#mcb27c47f83" y="115.92"/>
      </g>
     </g>
     <g id="text_3">
      <!-- 50 -->
      <g transform="translate(73.345945 126.719219)scale(0.05 -0.05)">
       <use xlink:href="#DejaVuSans-53"/>
       <use x="63.623047" xlink:href="#DejaVuSans-48"/>
      </g>
     </g>
    </g>
    <g id="xtick_4">
     <g id="line2d_4">
      <g>
       <use style="stroke:#000000;stroke-width:0.8;" x="96.941829" xlink:href="#mcb27c47f83" y="115.92"/>
      </g>
     </g>
     <g id="text_4">
      <!-- 75 -->
      <g transform="translate(93.760579 126.719219)scale(0.05 -0.05)">
       <defs>
        <path d="M 8.203125 72.90625
L 55.078125 72.90625
L 55.078125 68.703125
L 28.609375 0
L 18.3125 0
L 43.21875 64.59375
L 8.203125 64.59375
z
" id="DejaVuSans-55"/>
       </defs>
       <use xlink:href="#DejaVuSans-55"/>
       <use x="63.623047" xlink:href="#DejaVuSans-53"/>
      </g>
     </g>
    </g>
    <g id="xtick_5">
     <g id="line2d_5">
      <g>
       <use style="stroke:#000000;stroke-width:0.8;" x="117.356463" xlink:href="#mcb27c47f83" y="115.92"/>
      </g>
     </g>
     <g id="text_5">
      <!-- 100 -->
      <g transform="translate(112.584588 126.719219)scale(0.05 -0.05)">
       <defs>
        <path d="M 12.40625 8.296875
L 28.515625 8.296875
L 28.515625 63.921875
L 10.984375 60.40625
L 10.984375 69.390625
L 28.421875 72.90625
L 38.28125 72.90625
L 38.28125 8.296875
L 54.390625 8.296875
L 54.390625 0
L 12.40625 0
z
" id="DejaVuSans-49"/>
       </defs>
       <use xlink:href="#DejaVuSans-49"/>
       <use x="63.623047" xlink:href="#DejaVuSans-48"/>
       <use x="127.246094" xlink:href="#DejaVuSans-48"/>
      </g>
     </g>
    </g>
    <g id="xtick_6">
     <g id="line2d_6">
      <g>
       <use style="stroke:#000000;stroke-width:0.8;" x="137.771098" xlink:href="#mcb27c47f83" y="115.92"/>
      </g>
     </g>
     <g id="text_6">
      <!-- 125 -->
      <g transform="translate(132.999223 126.719219)scale(0.05 -0.05)">
       <use xlink:href="#DejaVuSans-49"/>
       <use x="63.623047" xlink:href="#DejaVuSans-50"/>
       <use x="127.246094" xlink:href="#DejaVuSans-53"/>
      </g>
     </g>
    </g>
    <g id="xtick_7">
     <g id="line2d_7">
      <g>
       <use style="stroke:#000000;stroke-width:0.8;" x="158.185732" xlink:href="#mcb27c47f83" y="115.92"/>
      </g>
     </g>
     <g id="text_7">
      <!-- 150 -->
      <g transform="translate(153.413857 126.719219)scale(0.05 -0.05)">
       <use xlink:href="#DejaVuSans-49"/>
       <use x="63.623047" xlink:href="#DejaVuSans-53"/>
       <use x="127.246094" xlink:href="#DejaVuSans-48"/>
      </g>
     </g>
    </g>
    <g id="xtick_8">
     <g id="line2d_8">
      <g>
       <use style="stroke:#000000;stroke-width:0.8;" x="178.600366" xlink:href="#mcb27c47f83" y="115.92"/>
      </g>
     </g>
     <g id="text_8">
      <!-- 175 -->
      <g transform="translate(173.828491 126.719219)scale(0.05 -0.05)">
       <use xlink:href="#DejaVuSans-49"/>
       <use x="63.623047" xlink:href="#DejaVuSans-55"/>
       <use x="127.246094" xlink:href="#DejaVuSans-53"/>
      </g>
     </g>
    </g>
    <g id="xtick_9">
     <g id="line2d_9">
      <g>
       <use style="stroke:#000000;stroke-width:0.8;" x="199.015" xlink:href="#mcb27c47f83" y="115.92"/>
      </g>
     </g>
     <g id="text_9">
      <!-- 200 -->
      <g transform="translate(194.243125 126.719219)scale(0.05 -0.05)">
       <use xlink:href="#DejaVuSans-50"/>
       <use x="63.623047" xlink:href="#DejaVuSans-48"/>
       <use x="127.246094" xlink:href="#DejaVuSans-48"/>
      </g>
     </g>
    </g>
    <g id="text_10">
     <!-- Plasmid pPCP1 Depth (X) -->
     <g transform="translate(90.2325 134.798437)scale(0.04 -0.04)">
      <defs>
       <path d="M 19.671875 64.796875
L 19.671875 37.40625
L 32.078125 37.40625
Q 38.96875 37.40625 42.71875 40.96875
Q 46.484375 44.53125 46.484375 51.125
Q 46.484375 57.671875 42.71875 61.234375
Q 38.96875 64.796875 32.078125 64.796875
z
M 9.8125 72.90625
L 32.078125 72.90625
Q 44.34375 72.90625 50.609375 67.359375
Q 56.890625 61.8125 56.890625 51.125
Q 56.890625 40.328125 50.609375 34.8125
Q 44.34375 29.296875 32.078125 29.296875
L 19.671875 29.296875
L 19.671875 0
L 9.8125 0
z
" id="DejaVuSans-80"/>
       <path d="M 9.421875 75.984375
L 18.40625 75.984375
L 18.40625 0
L 9.421875 0
z
" id="DejaVuSans-108"/>
       <path d="M 34.28125 27.484375
Q 23.390625 27.484375 19.1875 25
Q 14.984375 22.515625 14.984375 16.5
Q 14.984375 11.71875 18.140625 8.90625
Q 21.296875 6.109375 26.703125 6.109375
Q 34.1875 6.109375 38.703125 11.40625
Q 43.21875 16.703125 43.21875 25.484375
L 43.21875 27.484375
z
M 52.203125 31.203125
L 52.203125 0
L 43.21875 0
L 43.21875 8.296875
Q 40.140625 3.328125 35.546875 0.953125
Q 30.953125 -1.421875 24.3125 -1.421875
Q 15.921875 -1.421875 10.953125 3.296875
Q 6 8.015625 6 15.921875
Q 6 25.140625 12.171875 29.828125
Q 18.359375 34.515625 30.609375 34.515625
L 43.21875 34.515625
L 43.21875 35.40625
Q 43.21875 41.609375 39.140625 45
Q 35.0625 48.390625 27.6875 48.390625
Q 23 48.390625 18.546875 47.265625
Q 14.109375 46.140625 10.015625 43.890625
L 10.015625 52.203125
Q 14.9375 54.109375 19.578125 55.046875
Q 24.21875 56 28.609375 56
Q 40.484375 56 46.34375 49.84375
Q 52.203125 43.703125 52.203125 31.203125
z
" id="DejaVuSans-97"/>
       <path d="M 44.28125 53.078125
L 44.28125 44.578125
Q 40.484375 46.53125 36.375 47.5
Q 32.28125 48.484375 27.875 48.484375
Q 21.1875 48.484375 17.84375 46.4375
Q 14.5 44.390625 14.5 40.28125
Q 14.5 37.15625 16.890625 35.375
Q 19.28125 33.59375 26.515625 31.984375
L 29.59375 31.296875
Q 39.15625 29.25 43.1875 25.515625
Q 47.21875 21.78125 47.21875 15.09375
Q 47.21875 7.46875 41.1875 3.015625
Q 35.15625 -1.421875 24.609375 -1.421875
Q 20.21875 -1.421875 15.453125 -0.5625
Q 10.6875 0.296875 5.421875 2
L 5.421875 11.28125
Q 10.40625 8.6875 15.234375 7.390625
Q 20.0625 6.109375 24.8125 6.109375
Q 31.15625 6.109375 34.5625 8.28125
Q 37.984375 10.453125 37.984375 14.40625
Q 37.984375 18.0625 35.515625 20.015625
Q 33.0625 21.96875 24.703125 23.78125
L 21.578125 24.515625
Q 13.234375 26.265625 9.515625 29.90625
Q 5.8125 33.546875 5.8125 39.890625
Q 5.8125 47.609375 11.28125 51.796875
Q 16.75 56 26.8125 56
Q 31.78125 56 36.171875 55.265625
Q 40.578125 54.546875 44.28125 53.078125
z
" id="DejaVuSans-115"/>
       <path d="M 52 44.1875
Q 55.375 50.25 60.0625 53.125
Q 64.75 56 71.09375 56
Q 79.640625 56 84.28125 50.015625
Q 88.921875 44.046875 88.921875 33.015625
L 88.921875 0
L 79.890625 0
L 79.890625 32.71875
Q 79.890625 40.578125 77.09375 44.375
Q 74.3125 48.1875 68.609375 48.1875
Q 61.625 48.1875 57.5625 43.546875
Q 53.515625 38.921875 53.515625 30.90625
L 53.515625 0
L 44.484375 0
L 44.484375 32.71875
Q 44.484375 40.625 41.703125 44.40625
Q 38.921875 48.1875 33.109375 48.1875
Q 26.21875 48.1875 22.15625 43.53125
Q 18.109375 38.875 18.109375 30.90625
L 18.109375 0
L 9.078125 0
L 9.078125 54.6875
L 18.109375 54.6875
L 18.109375 46.1875
Q 21.1875 51.21875 25.484375 53.609375
Q 29.78125 56 35.6875 56
Q 41.65625 56 45.828125 52.96875
Q 50 49.953125 52 44.1875
z
" id="DejaVuSans-109"/>
       <path d="M 9.421875 54.6875
L 18.40625 54.6875
L 18.40625 0
L 9.421875 0
z
M 9.421875 75.984375
L 18.40625 75.984375
L 18.40625 64.59375
L 9.421875 64.59375
z
" id="DejaVuSans-105"/>
       <path d="M 45.40625 46.390625
L 45.40625 75.984375
L 54.390625 75.984375
L 54.390625 0
L 45.40625 0
L 45.40625 8.203125
Q 42.578125 3.328125 38.25 0.953125
Q 33.9375 -1.421875 27.875 -1.421875
Q 17.96875 -1.421875 11.734375 6.484375
Q 5.515625 14.40625 5.515625 27.296875
Q 5.515625 40.1875 11.734375 48.09375
Q 17.96875 56 27.875 56
Q 33.9375 56 38.25 53.625
Q 42.578125 51.265625 45.40625 46.390625
z
M 14.796875 27.296875
Q 14.796875 17.390625 18.875 11.75
Q 22.953125 6.109375 30.078125 6.109375
Q 37.203125 6.109375 41.296875 11.75
Q 45.40625 17.390625 45.40625 27.296875
Q 45.40625 37.203125 41.296875 42.84375
Q 37.203125 48.484375 30.078125 48.484375
Q 22.953125 48.484375 18.875 42.84375
Q 14.796875 37.203125 14.796875 27.296875
z
" id="DejaVuSans-100"/>
       <path id="DejaVuSans-32"/>
       <path d="M 18.109375 8.203125
L 18.109375 -20.796875
L 9.078125 -20.796875
L 9.078125 54.6875
L 18.109375 54.6875
L 18.109375 46.390625
Q 20.953125 51.265625 25.265625 53.625
Q 29.59375 56 35.59375 56
Q 45.5625 56 51.78125 48.09375
Q 58.015625 40.1875 58.015625 27.296875
Q 58.015625 14.40625 51.78125 6.484375
Q 45.5625 -1.421875 35.59375 -1.421875
Q 29.59375 -1.421875 25.265625 0.953125
Q 20.953125 3.328125 18.109375 8.203125
z
M 48.6875 27.296875
Q 48.6875 37.203125 44.609375 42.84375
Q 40.53125 48.484375 33.40625 48.484375
Q 26.265625 48.484375 22.1875 42.84375
Q 18.109375 37.203125 18.109375 27.296875
Q 18.109375 17.390625 22.1875 11.75
Q 26.265625 6.109375 33.40625 6.109375
Q 40.53125 6.109375 44.609375 11.75
Q 48.6875 17.390625 48.6875 27.296875
z
" id="DejaVuSans-112"/>
       <path d="M 64.40625 67.28125
L 64.40625 56.890625
Q 59.421875 61.53125 53.78125 63.8125
Q 48.140625 66.109375 41.796875 66.109375
Q 29.296875 66.109375 22.65625 58.46875
Q 16.015625 50.828125 16.015625 36.375
Q 16.015625 21.96875 22.65625 14.328125
Q 29.296875 6.6875 41.796875 6.6875
Q 48.140625 6.6875 53.78125 8.984375
Q 59.421875 11.28125 64.40625 15.921875
L 64.40625 5.609375
Q 59.234375 2.09375 53.4375 0.328125
Q 47.65625 -1.421875 41.21875 -1.421875
Q 24.65625 -1.421875 15.125 8.703125
Q 5.609375 18.84375 5.609375 36.375
Q 5.609375 53.953125 15.125 64.078125
Q 24.65625 74.21875 41.21875 74.21875
Q 47.75 74.21875 53.53125 72.484375
Q 59.328125 70.75 64.40625 67.28125
z
" id="DejaVuSans-67"/>
       <path d="M 19.671875 64.796875
L 19.671875 8.109375
L 31.59375 8.109375
Q 46.6875 8.109375 53.6875 14.9375
Q 60.6875 21.78125 60.6875 36.53125
Q 60.6875 51.171875 53.6875 57.984375
Q 46.6875 64.796875 31.59375 64.796875
z
M 9.8125 72.90625
L 30.078125 72.90625
Q 51.265625 72.90625 61.171875 64.09375
Q 71.09375 55.28125 71.09375 36.53125
Q 71.09375 17.671875 61.125 8.828125
Q 51.171875 0 30.078125 0
L 9.8125 0
z
" id="DejaVuSans-68"/>
       <path d="M 56.203125 29.59375
L 56.203125 25.203125
L 14.890625 25.203125
Q 15.484375 15.921875 20.484375 11.0625
Q 25.484375 6.203125 34.421875 6.203125
Q 39.59375 6.203125 44.453125 7.46875
Q 49.3125 8.734375 54.109375 11.28125
L 54.109375 2.78125
Q 49.265625 0.734375 44.1875 -0.34375
Q 39.109375 -1.421875 33.890625 -1.421875
Q 20.796875 -1.421875 13.15625 6.1875
Q 5.515625 13.8125 5.515625 26.8125
Q 5.515625 40.234375 12.765625 48.109375
Q 20.015625 56 32.328125 56
Q 43.359375 56 49.78125 48.890625
Q 56.203125 41.796875 56.203125 29.59375
z
M 47.21875 32.234375
Q 47.125 39.59375 43.09375 43.984375
Q 39.0625 48.390625 32.421875 48.390625
Q 24.90625 48.390625 20.390625 44.140625
Q 15.875 39.890625 15.1875 32.171875
z
" id="DejaVuSans-101"/>
       <path d="M 18.3125 70.21875
L 18.3125 54.6875
L 36.8125 54.6875
L 36.8125 47.703125
L 18.3125 47.703125
L 18.3125 18.015625
Q 18.3125 11.328125 20.140625 9.421875
Q 21.96875 7.515625 27.59375 7.515625
L 36.8125 7.515625
L 36.8125 0
L 27.59375 0
Q 17.1875 0 13.234375 3.875
Q 9.28125 7.765625 9.28125 18.015625
L 9.28125 47.703125
L 2.6875 47.703125
L 2.6875 54.6875
L 9.28125 54.6875
L 9.28125 70.21875
z
" id="DejaVuSans-116"/>
       <path d="M 54.890625 33.015625
L 54.890625 0
L 45.90625 0
L 45.90625 32.71875
Q 45.90625 40.484375 42.875 44.328125
Q 39.84375 48.1875 33.796875 48.1875
Q 26.515625 48.1875 22.3125 43.546875
Q 18.109375 38.921875 18.109375 30.90625
L 18.109375 0
L 9.078125 0
L 9.078125 75.984375
L 18.109375 75.984375
L 18.109375 46.1875
Q 21.34375 51.125 25.703125 53.5625
Q 30.078125 56 35.796875 56
Q 45.21875 56 50.046875 50.171875
Q 54.890625 44.34375 54.890625 33.015625
z
" id="DejaVuSans-104"/>
       <path d="M 31 75.875
Q 24.46875 64.65625 21.28125 53.65625
Q 18.109375 42.671875 18.109375 31.390625
Q 18.109375 20.125 21.3125 9.0625
Q 24.515625 -2 31 -13.1875
L 23.1875 -13.1875
Q 15.875 -1.703125 12.234375 9.375
Q 8.59375 20.453125 8.59375 31.390625
Q 8.59375 42.28125 12.203125 53.3125
Q 15.828125 64.359375 23.1875 75.875
z
" id="DejaVuSans-40"/>
       <path d="M 6.296875 72.90625
L 16.890625 72.90625
L 35.015625 45.796875
L 53.21875 72.90625
L 63.8125 72.90625
L 40.375 37.890625
L 65.375 0
L 54.78125 0
L 34.28125 31
L 13.625 0
L 2.984375 0
L 29 38.921875
z
" id="DejaVuSans-88"/>
       <path d="M 8.015625 75.875
L 15.828125 75.875
Q 23.140625 64.359375 26.78125 53.3125
Q 30.421875 42.28125 30.421875 31.390625
Q 30.421875 20.453125 26.78125 9.375
Q 23.140625 -1.703125 15.828125 -13.1875
L 8.015625 -13.1875
Q 14.5 -2 17.703125 9.0625
Q 20.90625 20.125 20.90625 31.390625
Q 20.90625 42.671875 17.703125 53.65625
Q 14.5 64.65625 8.015625 75.875
z
" id="DejaVuSans-41"/>
      </defs>
      <use xlink:href="#DejaVuSans-80"/>
      <use x="60.302734" xlink:href="#DejaVuSans-108"/>
      <use x="88.085938" xlink:href="#DejaVuSans-97"/>
      <use x="149.365234" xlink:href="#DejaVuSans-115"/>
      <use x="201.464844" xlink:href="#DejaVuSans-109"/>
      <use x="298.876953" xlink:href="#DejaVuSans-105"/>
      <use x="326.660156" xlink:href="#DejaVuSans-100"/>
      <use x="390.136719" xlink:href="#DejaVuSans-32"/>
      <use x="421.923828" xlink:href="#DejaVuSans-112"/>
      <use x="485.400391" xlink:href="#DejaVuSans-80"/>
      <use x="545.703125" xlink:href="#DejaVuSans-67"/>
      <use x="615.527344" xlink:href="#DejaVuSans-80"/>
      <use x="675.830078" xlink:href="#DejaVuSans-49"/>
      <use x="739.453125" xlink:href="#DejaVuSans-32"/>
      <use x="771.240234" xlink:href="#DejaVuSans-68"/>
      <use x="848.242188" xlink:href="#DejaVuSans-101"/>
      <use x="909.765625" xlink:href="#DejaVuSans-112"/>
      <use x="973.242188" xlink:href="#DejaVuSans-116"/>
      <use x="1012.451172" xlink:href="#DejaVuSans-104"/>
      <use x="1075.830078" xlink:href="#DejaVuSans-32"/>
      <use x="1107.617188" xlink:href="#DejaVuSans-40"/>
      <use x="1146.630859" xlink:href="#DejaVuSans-88"/>
      <use x="1215.136719" xlink:href="#DejaVuSans-41"/>
     </g>
    </g>
   </g>
   <g id="matplotlib.axis_2">
    <g id="ytick_1">
     <g id="line2d_10">
      <defs>
       <path d="M 0 0
L -3.5 0
" id="m92075bd345" style="stroke:#000000;stroke-width:0.8;"/>
      </defs>
      <g>
       <use style="stroke:#000000;stroke-width:0.8;" x="31.615" xlink:href="#m92075bd345" y="111.990361"/>
      </g>
     </g>
     <g id="text_11">
      <!-- 0 -->
      <g transform="translate(21.43375 113.889971)scale(0.05 -0.05)">
       <use xlink:href="#DejaVuSans-48"/>
      </g>
     </g>
    </g>
    <g id="ytick_2">
     <g id="line2d_11">
      <g>
       <use style="stroke:#000000;stroke-width:0.8;" x="31.615" xlink:href="#m92075bd345" y="92.342169"/>
      </g>
     </g>
     <g id="text_12">
      <!-- 50 -->
      <g transform="translate(18.2525 94.241778)scale(0.05 -0.05)">
       <use xlink:href="#DejaVuSans-53"/>
       <use x="63.623047" xlink:href="#DejaVuSans-48"/>
      </g>
     </g>
    </g>
    <g id="ytick_3">
     <g id="line2d_12">
      <g>
       <use style="stroke:#000000;stroke-width:0.8;" x="31.615" xlink:href="#m92075bd345" y="72.693976"/>
      </g>
     </g>
     <g id="text_13">
      <!-- 100 -->
      <g transform="translate(15.07125 74.593585)scale(0.05 -0.05)">
       <use xlink:href="#DejaVuSans-49"/>
       <use x="63.623047" xlink:href="#DejaVuSans-48"/>
       <use x="127.246094" xlink:href="#DejaVuSans-48"/>
      </g>
     </g>
    </g>
    <g id="ytick_4">
     <g id="line2d_13">
      <g>
       <use style="stroke:#000000;stroke-width:0.8;" x="31.615" xlink:href="#m92075bd345" y="53.045783"/>
      </g>
     </g>
     <g id="text_14">
      <!-- 150 -->
      <g transform="translate(15.07125 54.945393)scale(0.05 -0.05)">
       <use xlink:href="#DejaVuSans-49"/>
       <use x="63.623047" xlink:href="#DejaVuSans-53"/>
       <use x="127.246094" xlink:href="#DejaVuSans-48"/>
      </g>
     </g>
    </g>
    <g id="ytick_5">
     <g id="line2d_14">
      <g>
       <use style="stroke:#000000;stroke-width:0.8;" x="31.615" xlink:href="#m92075bd345" y="33.39759"/>
      </g>
     </g>
     <g id="text_15">
      <!-- 200 -->
      <g transform="translate(15.07125 35.2972)scale(0.05 -0.05)">
       <use xlink:href="#DejaVuSans-50"/>
       <use x="63.623047" xlink:href="#DejaVuSans-48"/>
       <use x="127.246094" xlink:href="#DejaVuSans-48"/>
      </g>
     </g>
    </g>
    <g id="ytick_6">
     <g id="line2d_15">
      <g>
       <use style="stroke:#000000;stroke-width:0.8;" x="31.615" xlink:href="#m92075bd345" y="13.749398"/>
      </g>
     </g>
     <g id="text_16">
      <!-- 250 -->
      <g transform="translate(15.07125 15.649007)scale(0.05 -0.05)">
       <use xlink:href="#DejaVuSans-50"/>
       <use x="63.623047" xlink:href="#DejaVuSans-53"/>
       <use x="127.246094" xlink:href="#DejaVuSans-48"/>
      </g>
     </g>
    </g>
    <g id="text_17">
     <!-- Gene pla Depth (X) -->
     <g transform="translate(10.239375 80.81875)rotate(-90)scale(0.04 -0.04)">
      <defs>
       <path d="M 59.515625 10.40625
L 59.515625 29.984375
L 43.40625 29.984375
L 43.40625 38.09375
L 69.28125 38.09375
L 69.28125 6.78125
Q 63.578125 2.734375 56.6875 0.65625
Q 49.8125 -1.421875 42 -1.421875
Q 24.90625 -1.421875 15.25 8.5625
Q 5.609375 18.5625 5.609375 36.375
Q 5.609375 54.25 15.25 64.234375
Q 24.90625 74.21875 42 74.21875
Q 49.125 74.21875 55.546875 72.453125
Q 61.96875 70.703125 67.390625 67.28125
L 67.390625 56.78125
Q 61.921875 61.421875 55.765625 63.765625
Q 49.609375 66.109375 42.828125 66.109375
Q 29.4375 66.109375 22.71875 58.640625
Q 16.015625 51.171875 16.015625 36.375
Q 16.015625 21.625 22.71875 14.15625
Q 29.4375 6.6875 42.828125 6.6875
Q 48.046875 6.6875 52.140625 7.59375
Q 56.25 8.5 59.515625 10.40625
z
" id="DejaVuSans-71"/>
       <path d="M 54.890625 33.015625
L 54.890625 0
L 45.90625 0
L 45.90625 32.71875
Q 45.90625 40.484375 42.875 44.328125
Q 39.84375 48.1875 33.796875 48.1875
Q 26.515625 48.1875 22.3125 43.546875
Q 18.109375 38.921875 18.109375 30.90625
L 18.109375 0
L 9.078125 0
L 9.078125 54.6875
L 18.109375 54.6875
L 18.109375 46.1875
Q 21.34375 51.125 25.703125 53.5625
Q 30.078125 56 35.796875 56
Q 45.21875 56 50.046875 50.171875
Q 54.890625 44.34375 54.890625 33.015625
z
" id="DejaVuSans-110"/>
      </defs>
      <use xlink:href="#DejaVuSans-71"/>
      <use x="77.490234" xlink:href="#DejaVuSans-101"/>
      <use x="139.013672" xlink:href="#DejaVuSans-110"/>
      <use x="202.392578" xlink:href="#DejaVuSans-101"/>
      <use x="263.916016" xlink:href="#DejaVuSans-32"/>
      <use x="295.703125" xlink:href="#DejaVuSans-112"/>
      <use x="359.179688" xlink:href="#DejaVuSans-108"/>
      <use x="386.962891" xlink:href="#DejaVuSans-97"/>
      <use x="448.242188" xlink:href="#DejaVuSans-32"/>
      <use x="480.029297" xlink:href="#DejaVuSans-68"/>
      <use x="557.03125" xlink:href="#DejaVuSans-101"/>
      <use x="618.554688" xlink:href="#DejaVuSans-112"/>
      <use x="682.03125" xlink:href="#DejaVuSans-116"/>
      <use x="721.240234" xlink:href="#DejaVuSans-104"/>
      <use x="784.619141" xlink:href="#DejaVuSans-32"/>
      <use x="816.40625" xlink:href="#DejaVuSans-40"/>
      <use x="855.419922" xlink:href="#DejaVuSans-88"/>
      <use x="923.925781" xlink:href="#DejaVuSans-41"/>
     </g>
    </g>
   </g>
   <g id="line2d_16">
    <path clip-path="url(#pd0b06c7ffe)" d="M 35.697927 111.990361
L 199.015 7.2
" style="fill:none;stroke:#008000;stroke-dasharray:1.85,0.8;stroke-dashoffset:0;stroke-width:0.5;"/>
   </g>
   <g id="line2d_17">
    <path clip-path="url(#pd0b06c7ffe)" d="M 35.697927 111.990361
L 199.015 85.792771
" style="fill:none;stroke:#ff0000;stroke-dasharray:1.85,0.8;stroke-dashoffset:0;stroke-width:0.5;"/>
   </g>
   <g id="patch_3">
    <path d="M 31.615 115.92
L 31.615 7.2
" style="fill:none;stroke:#000000;stroke-linecap:square;stroke-linejoin:miter;stroke-width:0.8;"/>
   </g>
   <g id="patch_4">
    <path d="M 199.015 115.92
L 199.015 7.2
" style="fill:none;stroke:#000000;stroke-linecap:square;stroke-linejoin:miter;stroke-width:0.8;"/>
   </g>
   <g id="patch_5">
    <path d="M 31.615 115.92
L 199.015 115.92
" style="fill:none;stroke:#000000;stroke-linecap:square;stroke-linejoin:miter;stroke-width:0.8;"/>
   </g>
   <g id="patch_6">
    <path d="M 31.615 7.2
L 199.015 7.2
" style="fill:none;stroke:#000000;stroke-linecap:square;stroke-linejoin:miter;stroke-width:0.8;"/>
   </g>
  </g>
  <g id="legend_1">
   <g id="patch_7">
    <path d="M 34.510937 30.566875
L 82.719063 30.566875
Q 83.519063 30.566875 83.519063 29.766875
L 83.519063 10.553125
Q 83.519063 9.753125 82.719063 9.753125
L 34.510937 9.753125
Q 33.710938 9.753125 33.710938 10.553125
L 33.710938 29.766875
Q 33.710938 30.566875 34.510937 30.566875
z
" style="fill:#ffffff;opacity:0.8;stroke:#000000;stroke-linejoin:miter;stroke-width:0.5;"/>
   </g>
   <g id="line2d_18"/>
   <g id="line2d_19">
    <defs>
     <path d="M 0 1.5
C 0.397805 1.5 0.77937 1.341951 1.06066 1.06066
C 1.341951 0.77937 1.5 0.397805 1.5 0
C 1.5 -0.397805 1.341951 -0.77937 1.06066 -1.06066
C 0.77937 -1.341951 0.397805 -1.5 0 -1.5
C -0.397805 -1.5 -0.77937 -1.341951 -1.06066 -1.06066
C -1.341951 -0.77937 -1.5 -0.397805 -1.5 0
C -1.5 0.397805 -1.341951 0.77937 -1.06066 1.06066
C -0.77937 1.341951 -0.397805 1.5 0 1.5
z
" id="m1620fbca55" style="stroke:#000000;stroke-width:0.25;"/>
    </defs>
    <g>
     <use style="fill:#008000;stroke:#000000;stroke-width:0.25;" x="39.310938" xlink:href="#m1620fbca55" y="12.9925"/>
    </g>
   </g>
   <g id="text_18">
    <!-- Gene &gt;= Plasmid -->
    <g transform="translate(46.510937 14.3925)scale(0.04 -0.04)">
     <defs>
      <path d="M 10.59375 49.21875
L 10.59375 58.109375
L 73.1875 35.40625
L 73.1875 27.296875
L 10.59375 4.59375
L 10.59375 13.484375
L 60.890625 31.296875
z
" id="DejaVuSans-62"/>
      <path d="M 10.59375 45.40625
L 73.1875 45.40625
L 73.1875 37.203125
L 10.59375 37.203125
z
M 10.59375 25.484375
L 73.1875 25.484375
L 73.1875 17.1875
L 10.59375 17.1875
z
" id="DejaVuSans-61"/>
     </defs>
     <use xlink:href="#DejaVuSans-71"/>
     <use x="77.490234" xlink:href="#DejaVuSans-101"/>
     <use x="139.013672" xlink:href="#DejaVuSans-110"/>
     <use x="202.392578" xlink:href="#DejaVuSans-101"/>
     <use x="263.916016" xlink:href="#DejaVuSans-32"/>
     <use x="295.703125" xlink:href="#DejaVuSans-62"/>
     <use x="379.492188" xlink:href="#DejaVuSans-61"/>
     <use x="463.28125" xlink:href="#DejaVuSans-32"/>
     <use x="495.068359" xlink:href="#DejaVuSans-80"/>
     <use x="555.371094" xlink:href="#DejaVuSans-108"/>
     <use x="583.154297" xlink:href="#DejaVuSans-97"/>
     <use x="644.433594" xlink:href="#DejaVuSans-115"/>
     <use x="696.533203" xlink:href="#DejaVuSans-109"/>
     <use x="793.945312" xlink:href="#DejaVuSans-105"/>
     <use x="821.728516" xlink:href="#DejaVuSans-100"/>
    </g>
   </g>
   <g id="line2d_20"/>
   <g id="line2d_21">
    <defs>
     <path d="M 0 1.5
C 0.397805 1.5 0.77937 1.341951 1.06066 1.06066
C 1.341951 0.77937 1.5 0.397805 1.5 0
C 1.5 -0.397805 1.341951 -0.77937 1.06066 -1.06066
C 0.77937 -1.341951 0.397805 -1.5 0 -1.5
C -0.397805 -1.5 -0.77937 -1.341951 -1.06066 -1.06066
C -1.341951 -0.77937 -1.5 -0.397805 -1.5 0
C -1.5 0.397805 -1.341951 0.77937 -1.06066 1.06066
C -0.77937 1.341951 -0.397805 1.5 0 1.5
z
" id="m087709f2a0" style="stroke:#000000;stroke-width:0.25;"/>
    </defs>
    <g>
     <use style="fill:#ff0000;stroke:#000000;stroke-width:0.25;" x="39.310938" xlink:href="#m087709f2a0" y="19.86375"/>
    </g>
   </g>
   <g id="text_19">
    <!-- Gene &lt; Plasmid -->
    <g transform="translate(46.510937 21.26375)scale(0.04 -0.04)">
     <defs>
      <path d="M 73.1875 49.21875
L 22.796875 31.296875
L 73.1875 13.484375
L 73.1875 4.59375
L 10.59375 27.296875
L 10.59375 35.40625
L 73.1875 58.109375
z
" id="DejaVuSans-60"/>
     </defs>
     <use xlink:href="#DejaVuSans-71"/>
     <use x="77.490234" xlink:href="#DejaVuSans-101"/>
     <use x="139.013672" xlink:href="#DejaVuSans-110"/>
     <use x="202.392578" xlink:href="#DejaVuSans-101"/>
     <use x="263.916016" xlink:href="#DejaVuSans-32"/>
     <use x="295.703125" xlink:href="#DejaVuSans-60"/>
     <use x="379.492188" xlink:href="#DejaVuSans-32"/>
     <use x="411.279297" xlink:href="#DejaVuSans-80"/>
     <use x="471.582031" xlink:href="#DejaVuSans-108"/>
     <use x="499.365234" xlink:href="#DejaVuSans-97"/>
     <use x="560.644531" xlink:href="#DejaVuSans-115"/>
     <use x="612.744141" xlink:href="#DejaVuSans-109"/>
     <use x="710.15625" xlink:href="#DejaVuSans-105"/>
     <use x="737.939453" xlink:href="#DejaVuSans-100"/>
    </g>
   </g>
   <g id="line2d_22"/>
   <g id="line2d_23">
    <defs>
     <path d="M 0 1.5
C 0.397805 1.5 0.77937 1.341951 1.06066 1.06066
C 1.341951 0.77937 1.5 0.397805 1.5 0
C 1.5 -0.397805 1.341951 -0.77937 1.06066 -1.06066
C 0.77937 -1.341951 0.397805 -1.5 0 -1.5
C -0.397805 -1.5 -0.77937 -1.341951 -1.06066 -1.06066
C -1.341951 -0.77937 -1.5 -0.397805 -1.5 0
C -1.5 0.397805 -1.341951 0.77937 -1.06066 1.06066
C -0.77937 1.341951 -0.397805 1.5 0 1.5
z
" id="md7764617bf" style="stroke:#000000;stroke-width:0.25;"/>
    </defs>
    <g>
     <use style="fill:#ffffff;stroke:#000000;stroke-width:0.25;" x="39.310938" xlink:href="#md7764617bf" y="26.735"/>
    </g>
   </g>
   <g id="text_20">
    <!-- Low Coverage -->
    <g transform="translate(46.510937 28.135)scale(0.04 -0.04)">
     <defs>
      <path d="M 9.8125 72.90625
L 19.671875 72.90625
L 19.671875 8.296875
L 55.171875 8.296875
L 55.171875 0
L 9.8125 0
z
" id="DejaVuSans-76"/>
      <path d="M 30.609375 48.390625
Q 23.390625 48.390625 19.1875 42.75
Q 14.984375 37.109375 14.984375 27.296875
Q 14.984375 17.484375 19.15625 11.84375
Q 23.34375 6.203125 30.609375 6.203125
Q 37.796875 6.203125 41.984375 11.859375
Q 46.1875 17.53125 46.1875 27.296875
Q 46.1875 37.015625 41.984375 42.703125
Q 37.796875 48.390625 30.609375 48.390625
z
M 30.609375 56
Q 42.328125 56 49.015625 48.375
Q 55.71875 40.765625 55.71875 27.296875
Q 55.71875 13.875 49.015625 6.21875
Q 42.328125 -1.421875 30.609375 -1.421875
Q 18.84375 -1.421875 12.171875 6.21875
Q 5.515625 13.875 5.515625 27.296875
Q 5.515625 40.765625 12.171875 48.375
Q 18.84375 56 30.609375 56
z
" id="DejaVuSans-111"/>
      <path d="M 4.203125 54.6875
L 13.1875 54.6875
L 24.421875 12.015625
L 35.59375 54.6875
L 46.1875 54.6875
L 57.421875 12.015625
L 68.609375 54.6875
L 77.59375 54.6875
L 63.28125 0
L 52.6875 0
L 40.921875 44.828125
L 29.109375 0
L 18.5 0
z
" id="DejaVuSans-119"/>
      <path d="M 2.984375 54.6875
L 12.5 54.6875
L 29.59375 8.796875
L 46.6875 54.6875
L 56.203125 54.6875
L 35.6875 0
L 23.484375 0
z
" id="DejaVuSans-118"/>
      <path d="M 41.109375 46.296875
Q 39.59375 47.171875 37.8125 47.578125
Q 36.03125 48 33.890625 48
Q 26.265625 48 22.1875 43.046875
Q 18.109375 38.09375 18.109375 28.8125
L 18.109375 0
L 9.078125 0
L 9.078125 54.6875
L 18.109375 54.6875
L 18.109375 46.1875
Q 20.953125 51.171875 25.484375 53.578125
Q 30.03125 56 36.53125 56
Q 37.453125 56 38.578125 55.875
Q 39.703125 55.765625 41.0625 55.515625
z
" id="DejaVuSans-114"/>
      <path d="M 45.40625 27.984375
Q 45.40625 37.75 41.375 43.109375
Q 37.359375 48.484375 30.078125 48.484375
Q 22.859375 48.484375 18.828125 43.109375
Q 14.796875 37.75 14.796875 27.984375
Q 14.796875 18.265625 18.828125 12.890625
Q 22.859375 7.515625 30.078125 7.515625
Q 37.359375 7.515625 41.375 12.890625
Q 45.40625 18.265625 45.40625 27.984375
z
M 54.390625 6.78125
Q 54.390625 -7.171875 48.1875 -13.984375
Q 42 -20.796875 29.203125 -20.796875
Q 24.46875 -20.796875 20.265625 -20.09375
Q 16.0625 -19.390625 12.109375 -17.921875
L 12.109375 -9.1875
Q 16.0625 -11.328125 19.921875 -12.34375
Q 23.78125 -13.375 27.78125 -13.375
Q 36.625 -13.375 41.015625 -8.765625
Q 45.40625 -4.15625 45.40625 5.171875
L 45.40625 9.625
Q 42.625 4.78125 38.28125 2.390625
Q 33.9375 0 27.875 0
Q 17.828125 0 11.671875 7.65625
Q 5.515625 15.328125 5.515625 27.984375
Q 5.515625 40.671875 11.671875 48.328125
Q 17.828125 56 27.875 56
Q 33.9375 56 38.28125 53.609375
Q 42.625 51.21875 45.40625 46.390625
L 45.40625 54.6875
L 54.390625 54.6875
z
" id="DejaVuSans-103"/>
     </defs>
     <use xlink:href="#DejaVuSans-76"/>
     <use x="53.962891" xlink:href="#DejaVuSans-111"/>
     <use x="115.144531" xlink:href="#DejaVuSans-119"/>
     <use x="196.931641" xlink:href="#DejaVuSans-32"/>
     <use x="228.71875" xlink:href="#DejaVuSans-67"/>
     <use x="298.542969" xlink:href="#DejaVuSans-111"/>
     <use x="359.724609" xlink:href="#DejaVuSans-118"/>
     <use x="418.904297" xlink:href="#DejaVuSans-101"/>
     <use x="480.427734" xlink:href="#DejaVuSans-114"/>
     <use x="521.541016" xlink:href="#DejaVuSans-97"/>
     <use x="582.820312" xlink:href="#DejaVuSans-103"/>
     <use x="646.296875" xlink:href="#DejaVuSans-101"/>
    </g>
   </g>
  </g>
 </g>
 <defs>
  <clipPath id="pd0b06c7ffe">
   <rect height="108.72" width="167.4" x="31.615" y="7.2"/>
  </clipPath>
 </defs>
</svg>
