<?xml version="1.0" encoding="utf-8" standalone="no"?>
<!DOCTYPE svg PUBLIC "-//W3C//DTD SVG 1.1//EN"
  "http://www.w3.org/Graphics/SVG/1.1/DTD/svg11.dtd">
<!-- Created with matplotlib (https://matplotlib.org/) -->
<svg height="188.35125pt" version="1.1" viewBox="0 0 262.015 188.35125" width="262.015pt" xmlns="http://www.w3.org/2000/svg" xmlns:xlink="http://www.w3.org/1999/xlink">
 <metadata>
  <rdf:RDF xmlns:cc="http://creativecommons.org/ns#" xmlns:dc="http://purl.org/dc/elements/1.1/" xmlns:rdf="http://www.w3.org/1999/02/22-rdf-syntax-ns#">
   <cc:Work>
    <dc:type rdf:resource="http://purl.org/dc/dcmitype/StillImage"/>
    <dc:date>2021-03-01T12:50:23.944650</dc:date>
    <dc:format>image/svg+xml</dc:format>
    <dc:creator>
     <cc:Agent>
      <dc:title>Matplotlib v3.3.2, https://matplotlib.org/</dc:title>
     </cc:Agent>
    </dc:creator>
   </cc:Work>
  </rdf:RDF>
 </metadata>
 <defs>
  <style type="text/css">*{stroke-linecap:butt;stroke-linejoin:round;}</style>
 </defs>
 <g id="figure_1">
  <g id="patch_1">
   <path d="M 0 188.35125
L 262.015 188.35125
L 262.015 0
L 0 0
z
" style="fill:none;"/>
  </g>
  <g id="axes_1">
   <g id="patch_2">
    <path d="M 31.615 81.327273
L 254.815 81.327273
L 254.815 7.2
L 31.615 7.2
z
" style="fill:#ffffff;"/>
   </g>
   <g id="PolyCollection_1">
    <defs>
     <path d="M 53.164453 -168.677557
L 52.90191 -168.677557
L 52.892797 -168.74717
L 52.885603 -168.816782
L 52.87922 -168.886395
L 52.871815 -168.956007
L 52.860954 -169.02562
L 52.843858 -169.095232
L 52.817758 -169.164844
L 52.780308 -169.234457
L 52.729995 -169.304069
L 52.66648 -169.373682
L 52.590799 -169.443294
L 52.505375 -169.512907
L 52.413826 -169.582519
L 52.32057 -169.652132
L 52.230292 -169.721744
L 52.147355 -169.791357
L 52.075273 -169.860969
L 52.016329 -169.930581
L 51.971411 -170.000194
L 51.940086 -170.069806
L 51.920862 -170.139419
L 51.911556 -170.209031
L 51.909679 -170.278644
L 51.912745 -170.348256
L 51.918445 -170.417869
L 51.924706 -170.487481
L 51.929646 -170.557094
L 51.931508 -170.626706
L 51.92862 -170.696318
L 51.919422 -170.765931
L 51.902571 -170.835543
L 51.877075 -170.905156
L 51.842437 -170.974768
L 51.798725 -171.044381
L 51.74655 -171.113993
L 51.68691 -171.183606
L 51.620944 -171.253218
L 51.549607 -171.32283
L 51.473357 -171.392443
L 51.391904 -171.462055
L 51.304101 -171.531668
L 51.207985 -171.60128
L 51.100979 -171.670893
L 50.98022 -171.740505
L 50.842947 -171.810118
L 50.686898 -171.87973
L 50.51064 -171.949343
L 50.313814 -172.018955
L 50.097238 -172.088567
L 49.862893 -172.15818
L 49.613781 -172.227792
L 49.35374 -172.297405
L 49.087243 -172.367017
L 48.819265 -172.43663
L 48.555222 -172.506242
L 48.300945 -172.575855
L 48.062559 -172.645467
L 47.846152 -172.71508
L 47.657107 -172.784692
L 47.499123 -172.854304
L 47.373065 -172.923917
L 47.275929 -172.993529
L 47.200228 -173.063142
L 47.134072 -173.132754
L 47.062009 -173.202367
L 46.966511 -173.271979
L 46.829839 -173.341592
L 46.63596 -173.411204
L 46.372259 -173.480817
L 46.030965 -173.550429
L 45.610346 -173.620041
L 45.115783 -173.689654
L 44.560794 -173.759266
L 43.967822 -173.828879
L 43.368432 -173.898491
L 42.80238 -173.968104
L 42.315108 -174.037716
L 41.953528 -174.107329
L 41.760455 -174.176941
L 41.76855 -174.246553
L 41.995004 -174.316166
L 42.438177 -174.385778
L 43.077071 -174.455391
L 43.873866 -174.525003
L 44.779021 -174.594616
L 45.73787 -174.664228
L 46.697387 -174.733841
L 47.611888 -174.803453
L 48.446862 -174.873066
L 49.18062 -174.942678
L 49.803987 -175.01229
L 50.318517 -175.081903
L 50.733881 -175.151515
L 51.06496 -175.221128
L 51.329077 -175.29074
L 51.543609 -175.360353
L 51.724126 -175.429965
L 51.883123 -175.499578
L 52.029378 -175.56919
L 54.036986 -175.56919
L 54.036986 -175.56919
L 54.18324 -175.499578
L 54.342238 -175.429965
L 54.522755 -175.360353
L 54.737287 -175.29074
L 55.001404 -175.221128
L 55.332483 -175.151515
L 55.747846 -175.081903
L 56.262377 -175.01229
L 56.885743 -174.942678
L 57.619502 -174.873066
L 58.454475 -174.803453
L 59.368977 -174.733841
L 60.328494 -174.664228
L 61.287343 -174.594616
L 62.192498 -174.525003
L 62.989293 -174.455391
L 63.628187 -174.385778
L 64.07136 -174.316166
L 64.297814 -174.246553
L 64.305909 -174.176941
L 64.112836 -174.107329
L 63.751256 -174.037716
L 63.263984 -173.968104
L 62.697932 -173.898491
L 62.098542 -173.828879
L 61.50557 -173.759266
L 60.950581 -173.689654
L 60.456018 -173.620041
L 60.035398 -173.550429
L 59.694105 -173.480817
L 59.430404 -173.411204
L 59.236524 -173.341592
L 59.099853 -173.271979
L 59.004354 -173.202367
L 58.932291 -173.132754
L 58.866136 -173.063142
L 58.790435 -172.993529
L 58.693298 -172.923917
L 58.567241 -172.854304
L 58.409257 -172.784692
L 58.220212 -172.71508
L 58.003804 -172.645467
L 57.765419 -172.575855
L 57.511141 -172.506242
L 57.247099 -172.43663
L 56.979121 -172.367017
L 56.712623 -172.297405
L 56.452582 -172.227792
L 56.203471 -172.15818
L 55.969125 -172.088567
L 55.75255 -172.018955
L 55.555724 -171.949343
L 55.379466 -171.87973
L 55.223416 -171.810118
L 55.086144 -171.740505
L 54.965385 -171.670893
L 54.858379 -171.60128
L 54.762262 -171.531668
L 54.67446 -171.462055
L 54.593007 -171.392443
L 54.516756 -171.32283
L 54.44542 -171.253218
L 54.379454 -171.183606
L 54.319814 -171.113993
L 54.267638 -171.044381
L 54.223927 -170.974768
L 54.189289 -170.905156
L 54.163793 -170.835543
L 54.146941 -170.765931
L 54.137744 -170.696318
L 54.134855 -170.626706
L 54.136717 -170.557094
L 54.141657 -170.487481
L 54.147919 -170.417869
L 54.153619 -170.348256
L 54.156684 -170.278644
L 54.154808 -170.209031
L 54.145502 -170.139419
L 54.126277 -170.069806
L 54.094953 -170.000194
L 54.050035 -169.930581
L 53.99109 -169.860969
L 53.919008 -169.791357
L 53.836072 -169.721744
L 53.745793 -169.652132
L 53.652538 -169.582519
L 53.560989 -169.512907
L 53.475565 -169.443294
L 53.399883 -169.373682
L 53.336369 -169.304069
L 53.286056 -169.234457
L 53.248606 -169.164844
L 53.222506 -169.095232
L 53.20541 -169.02562
L 53.194549 -168.956007
L 53.187144 -168.886395
L 53.180761 -168.816782
L 53.173566 -168.74717
L 53.164453 -168.677557
z
" id="m4ec19059f8" style="stroke:#000000;stroke-opacity:0.8;stroke-width:0.5;"/>
    </defs>
    <g clip-path="url(#pa6ef610e58)">
     <use style="fill:#1f77b4;fill-opacity:0.8;stroke:#000000;stroke-opacity:0.8;stroke-width:0.5;" x="0" xlink:href="#m4ec19059f8" y="188.35125"/>
    </g>
   </g>
   <g id="PolyCollection_2">
    <defs>
     <path d="M 99.126028 -110.393399
L 97.122153 -110.393399
L 97.107771 -111.049672
L 97.111753 -111.705945
L 97.133655 -112.362219
L 97.172043 -113.018492
L 97.224628 -113.674765
L 97.288475 -114.331038
L 97.360258 -114.987312
L 97.43653 -115.643585
L 97.513975 -116.299858
L 97.589628 -116.956131
L 97.661026 -117.612405
L 97.726305 -118.268678
L 97.784226 -118.924951
L 97.83415 -119.581224
L 97.875964 -120.237498
L 97.909987 -120.893771
L 97.936861 -121.550044
L 97.957444 -122.206317
L 97.972711 -122.862591
L 97.983677 -123.518864
L 97.991331 -124.175137
L 97.996591 -124.83141
L 98.000273 -125.487684
L 98.003071 -126.143957
L 98.005545 -126.80023
L 98.008116 -127.456503
L 98.011066 -128.112777
L 98.014543 -128.76905
L 98.01857 -129.425323
L 98.023059 -130.081596
L 98.027832 -130.73787
L 98.032644 -131.394143
L 98.037211 -132.050416
L 98.041237 -132.706689
L 98.044445 -133.362963
L 98.046602 -134.019236
L 98.047542 -134.675509
L 98.047177 -135.331782
L 98.045504 -135.988056
L 98.042608 -136.644329
L 98.038649 -137.300602
L 98.033849 -137.956875
L 98.028471 -138.613149
L 98.022802 -139.269422
L 98.017124 -139.925695
L 98.011702 -140.581968
L 98.006761 -141.238242
L 98.002479 -141.894515
L 97.998974 -142.550788
L 97.996302 -143.207061
L 97.994459 -143.863335
L 97.993382 -144.519608
L 97.992954 -145.175881
L 97.993008 -145.832154
L 97.993335 -146.488428
L 97.993689 -147.144701
L 97.993793 -147.800974
L 97.993341 -148.457247
L 97.992004 -149.113521
L 97.989433 -149.769794
L 97.98526 -150.426067
L 97.97909 -151.08234
L 97.970501 -151.738614
L 97.959018 -152.394887
L 97.944097 -153.05116
L 97.92508 -153.707433
L 97.901145 -154.363707
L 97.871234 -155.01998
L 97.833975 -155.676253
L 97.787575 -156.332526
L 97.729716 -156.9888
L 97.657442 -157.645073
L 97.567063 -158.301346
L 97.454075 -158.957619
L 97.313135 -159.613893
L 97.138094 -160.270166
L 96.922135 -160.926439
L 96.658014 -161.582712
L 96.338443 -162.238986
L 95.956609 -162.895259
L 95.506839 -163.551532
L 94.985372 -164.207805
L 94.391205 -164.864079
L 93.726932 -165.520352
L 92.999498 -166.176625
L 92.220751 -166.832898
L 91.407686 -167.489172
L 90.582292 -168.145445
L 89.770914 -168.801718
L 89.003119 -169.457991
L 88.310097 -170.114265
L 87.72268 -170.770538
L 87.269163 -171.426811
L 86.973105 -172.083084
L 86.851364 -172.739358
L 86.912577 -173.395631
L 87.156282 -174.051904
L 87.572786 -174.708177
L 88.143838 -175.364451
L 108.104344 -175.364451
L 108.104344 -175.364451
L 108.675395 -174.708177
L 109.0919 -174.051904
L 109.335605 -173.395631
L 109.396818 -172.739358
L 109.275077 -172.083084
L 108.979019 -171.426811
L 108.525501 -170.770538
L 107.938085 -170.114265
L 107.245062 -169.457991
L 106.477268 -168.801718
L 105.66589 -168.145445
L 104.840496 -167.489172
L 104.027431 -166.832898
L 103.248683 -166.176625
L 102.52125 -165.520352
L 101.856977 -164.864079
L 101.26281 -164.207805
L 100.741343 -163.551532
L 100.291573 -162.895259
L 99.909739 -162.238986
L 99.590168 -161.582712
L 99.326047 -160.926439
L 99.110088 -160.270166
L 98.935047 -159.613893
L 98.794106 -158.957619
L 98.681119 -158.301346
L 98.59074 -157.645073
L 98.518466 -156.9888
L 98.460607 -156.332526
L 98.414207 -155.676253
L 98.376947 -155.01998
L 98.347037 -154.363707
L 98.323102 -153.707433
L 98.304084 -153.05116
L 98.289164 -152.394887
L 98.277681 -151.738614
L 98.269092 -151.08234
L 98.262922 -150.426067
L 98.258749 -149.769794
L 98.256178 -149.113521
L 98.254841 -148.457247
L 98.254389 -147.800974
L 98.254492 -147.144701
L 98.254847 -146.488428
L 98.255174 -145.832154
L 98.255228 -145.175881
L 98.2548 -144.519608
L 98.253723 -143.863335
L 98.25188 -143.207061
L 98.249208 -142.550788
L 98.245703 -141.894515
L 98.24142 -141.238242
L 98.23648 -140.581968
L 98.231058 -139.925695
L 98.22538 -139.269422
L 98.21971 -138.613149
L 98.214333 -137.956875
L 98.209532 -137.300602
L 98.205573 -136.644329
L 98.202678 -135.988056
L 98.201005 -135.331782
L 98.200639 -134.675509
L 98.201579 -134.019236
L 98.203737 -133.362963
L 98.206945 -132.706689
L 98.210971 -132.050416
L 98.215537 -131.394143
L 98.22035 -130.73787
L 98.225123 -130.081596
L 98.229612 -129.425323
L 98.233639 -128.76905
L 98.237116 -128.112777
L 98.240066 -127.456503
L 98.242637 -126.80023
L 98.245111 -126.143957
L 98.247909 -125.487684
L 98.251591 -124.83141
L 98.256851 -124.175137
L 98.264505 -123.518864
L 98.275471 -122.862591
L 98.290738 -122.206317
L 98.311321 -121.550044
L 98.338195 -120.893771
L 98.372218 -120.237498
L 98.414032 -119.581224
L 98.463955 -118.924951
L 98.521877 -118.268678
L 98.587156 -117.612405
L 98.658554 -116.956131
L 98.734206 -116.299858
L 98.811652 -115.643585
L 98.887924 -114.987312
L 98.959707 -114.331038
L 99.023554 -113.674765
L 99.076138 -113.018492
L 99.114527 -112.362219
L 99.136429 -111.705945
L 99.140411 -111.049672
L 99.126028 -110.393399
z
" id="mf3263efaf0" style="stroke:#000000;stroke-opacity:0.8;stroke-width:0.5;"/>
    </defs>
    <g clip-path="url(#pa6ef610e58)">
     <use style="fill:#1f77b4;fill-opacity:0.8;stroke:#000000;stroke-opacity:0.8;stroke-width:0.5;" x="0" xlink:href="#mf3263efaf0" y="188.35125"/>
    </g>
   </g>
   <g id="PolyCollection_3">
    <defs>
     <path d="M 143.9223 -110.393399
L 142.5077 -110.393399
L 142.508343 -111.043292
L 142.52421 -111.693186
L 142.553925 -112.343079
L 142.595224 -112.992973
L 142.645206 -113.642866
L 142.700642 -114.29276
L 142.758291 -114.942653
L 142.815182 -115.592547
L 142.868833 -116.24244
L 142.917391 -116.892333
L 142.959685 -117.542227
L 142.995197 -118.19212
L 143.023987 -118.842014
L 143.046563 -119.491907
L 143.063754 -120.141801
L 143.076566 -120.791694
L 143.086065 -121.441588
L 143.093282 -122.091481
L 143.099135 -122.741375
L 143.104387 -123.391268
L 143.109617 -124.041162
L 143.115216 -124.691055
L 143.121398 -125.340949
L 143.128218 -125.990842
L 143.135599 -126.640736
L 143.143367 -127.290629
L 143.151283 -127.940523
L 143.159079 -128.590416
L 143.166483 -129.240309
L 143.173248 -129.890203
L 143.17917 -130.540096
L 143.184104 -131.18999
L 143.187966 -131.839883
L 143.190734 -132.489777
L 143.192445 -133.13967
L 143.193184 -133.789564
L 143.193072 -134.439457
L 143.192247 -135.089351
L 143.190854 -135.739244
L 143.189029 -136.389138
L 143.186887 -137.039031
L 143.184513 -137.688925
L 143.18196 -138.338818
L 143.179248 -138.988712
L 143.176372 -139.638605
L 143.173303 -140.288498
L 143.170002 -140.938392
L 143.16642 -141.588285
L 143.162504 -142.238179
L 143.158196 -142.888072
L 143.153428 -143.537966
L 143.14812 -144.187859
L 143.142171 -144.837753
L 143.135465 -145.487646
L 143.127864 -146.13754
L 143.119222 -146.787433
L 143.109387 -147.437327
L 143.098209 -148.08722
L 143.085546 -148.737114
L 143.071257 -149.387007
L 143.055199 -150.036901
L 143.037215 -150.686794
L 143.017129 -151.336687
L 142.994748 -151.986581
L 142.969872 -152.636474
L 142.942325 -153.286368
L 142.911995 -153.936261
L 142.878867 -154.586155
L 142.843053 -155.236048
L 142.804791 -155.885942
L 142.764386 -156.535835
L 142.722103 -157.185729
L 142.677983 -157.835622
L 142.631588 -158.485516
L 142.581694 -159.135409
L 142.525937 -159.785303
L 142.460459 -160.435196
L 142.37958 -161.08509
L 142.275564 -161.734983
L 142.138536 -162.384877
L 141.956618 -163.03477
L 141.716372 -163.684663
L 141.403611 -164.334557
L 141.004614 -164.98445
L 140.507744 -165.634344
L 139.905385 -166.284237
L 139.196025 -166.934131
L 138.38624 -167.584024
L 137.492236 -168.233918
L 136.540604 -168.883811
L 135.567973 -169.533705
L 134.619345 -170.183598
L 133.745105 -170.833492
L 132.996893 -171.483385
L 132.422777 -172.133279
L 132.062325 -172.783172
L 131.942273 -173.433066
L 132.073445 -174.082959
L 132.44941 -174.732852
L 153.98059 -174.732852
L 153.98059 -174.732852
L 154.356555 -174.082959
L 154.487727 -173.433066
L 154.367675 -172.783172
L 154.007223 -172.133279
L 153.433107 -171.483385
L 152.684895 -170.833492
L 151.810655 -170.183598
L 150.862027 -169.533705
L 149.889396 -168.883811
L 148.937764 -168.233918
L 148.04376 -167.584024
L 147.233975 -166.934131
L 146.524615 -166.284237
L 145.922256 -165.634344
L 145.425386 -164.98445
L 145.026389 -164.334557
L 144.713628 -163.684663
L 144.473382 -163.03477
L 144.291464 -162.384877
L 144.154436 -161.734983
L 144.05042 -161.08509
L 143.969541 -160.435196
L 143.904063 -159.785303
L 143.848306 -159.135409
L 143.798412 -158.485516
L 143.752017 -157.835622
L 143.707897 -157.185729
L 143.665614 -156.535835
L 143.625209 -155.885942
L 143.586947 -155.236048
L 143.551133 -154.586155
L 143.518005 -153.936261
L 143.487675 -153.286368
L 143.460128 -152.636474
L 143.435252 -151.986581
L 143.412871 -151.336687
L 143.392785 -150.686794
L 143.374801 -150.036901
L 143.358743 -149.387007
L 143.344454 -148.737114
L 143.331791 -148.08722
L 143.320613 -147.437327
L 143.310778 -146.787433
L 143.302136 -146.13754
L 143.294535 -145.487646
L 143.287829 -144.837753
L 143.28188 -144.187859
L 143.276572 -143.537966
L 143.271804 -142.888072
L 143.267496 -142.238179
L 143.26358 -141.588285
L 143.259998 -140.938392
L 143.256697 -140.288498
L 143.253628 -139.638605
L 143.250752 -138.988712
L 143.24804 -138.338818
L 143.245487 -137.688925
L 143.243113 -137.039031
L 143.240971 -136.389138
L 143.239146 -135.739244
L 143.237753 -135.089351
L 143.236928 -134.439457
L 143.236816 -133.789564
L 143.237555 -133.13967
L 143.239266 -132.489777
L 143.242034 -131.839883
L 143.245896 -131.18999
L 143.25083 -130.540096
L 143.256752 -129.890203
L 143.263517 -129.240309
L 143.270921 -128.590416
L 143.278717 -127.940523
L 143.286633 -127.290629
L 143.294401 -126.640736
L 143.301782 -125.990842
L 143.308602 -125.340949
L 143.314784 -124.691055
L 143.320383 -124.041162
L 143.325613 -123.391268
L 143.330865 -122.741375
L 143.336718 -122.091481
L 143.343935 -121.441588
L 143.353434 -120.791694
L 143.366246 -120.141801
L 143.383437 -119.491907
L 143.406013 -118.842014
L 143.434803 -118.19212
L 143.470315 -117.542227
L 143.512609 -116.892333
L 143.561167 -116.24244
L 143.614818 -115.592547
L 143.671709 -114.942653
L 143.729358 -114.29276
L 143.784794 -113.642866
L 143.834776 -112.992973
L 143.876075 -112.343079
L 143.90579 -111.693186
L 143.921657 -111.043292
L 143.9223 -110.393399
z
" id="me8c052fc0f" style="stroke:#000000;stroke-opacity:0.8;stroke-width:0.5;"/>
    </defs>
    <g clip-path="url(#pa6ef610e58)">
     <use style="fill:#1f77b4;fill-opacity:0.8;stroke:#000000;stroke-opacity:0.8;stroke-width:0.5;" x="0" xlink:href="#me8c052fc0f" y="188.35125"/>
    </g>
   </g>
   <g id="PolyCollection_4">
    <defs>
     <path d="M 189.904115 -110.393399
L 186.707703 -110.393399
L 186.712714 -110.951364
L 186.737744 -111.50933
L 186.781664 -112.067296
L 186.842628 -112.625261
L 186.918192 -113.183227
L 187.005464 -113.741193
L 187.101273 -114.299158
L 187.202355 -114.857124
L 187.305519 -115.41509
L 187.407804 -115.973055
L 187.5066 -116.531021
L 187.599741 -117.088987
L 187.685554 -117.646952
L 187.762873 -118.204918
L 187.831024 -118.762883
L 187.889777 -119.320849
L 187.939281 -119.878815
L 187.979989 -120.43678
L 188.012575 -120.994746
L 188.037858 -121.552712
L 188.056727 -122.110677
L 188.070081 -122.668643
L 188.078784 -123.226609
L 188.083627 -123.784574
L 188.085311 -124.34254
L 188.084434 -124.900506
L 188.081497 -125.458471
L 188.076907 -126.016437
L 188.070994 -126.574403
L 188.064025 -127.132368
L 188.05622 -127.690334
L 188.04777 -128.248299
L 188.038848 -128.806265
L 188.029615 -129.364231
L 188.020233 -129.922196
L 188.010858 -130.480162
L 188.001648 -131.038128
L 187.992749 -131.596093
L 187.984294 -132.154059
L 187.976397 -132.712025
L 187.969142 -133.26999
L 187.962581 -133.827956
L 187.956725 -134.385922
L 187.951548 -134.943887
L 187.946982 -135.501853
L 187.942925 -136.059819
L 187.939243 -136.617784
L 187.935777 -137.17575
L 187.932356 -137.733715
L 187.928802 -138.291681
L 187.924939 -138.849647
L 187.920606 -139.407612
L 187.915656 -139.965578
L 187.909968 -140.523544
L 187.903442 -141.081509
L 187.896003 -141.639475
L 187.88759 -142.197441
L 187.878151 -142.755406
L 187.867627 -143.313372
L 187.85594 -143.871338
L 187.842963 -144.429303
L 187.828501 -144.987269
L 187.812256 -145.545235
L 187.793791 -146.1032
L 187.77249 -146.661166
L 187.747503 -147.219132
L 187.717701 -147.777097
L 187.681616 -148.335063
L 187.637382 -148.893028
L 187.582679 -149.450994
L 187.514685 -150.00896
L 187.430047 -150.566925
L 187.324863 -151.124891
L 187.194713 -151.682857
L 187.034725 -152.240822
L 186.8397 -152.798788
L 186.604303 -153.356754
L 186.323317 -153.914719
L 185.991979 -154.472685
L 185.606367 -155.030651
L 185.163842 -155.588616
L 184.663516 -156.146582
L 184.106707 -156.704548
L 183.497345 -157.262513
L 182.842282 -157.820479
L 182.151472 -158.378444
L 181.437953 -158.93641
L 180.717634 -159.494376
L 180.008845 -160.052341
L 179.331659 -160.610307
L 178.707026 -161.168273
L 178.155745 -161.726238
L 177.697353 -162.284204
L 177.349008 -162.84217
L 177.12446 -163.400135
L 177.033182 -163.958101
L 177.079753 -164.516067
L 177.263534 -165.074032
L 177.578682 -165.631998
L 199.033136 -165.631998
L 199.033136 -165.631998
L 199.348284 -165.074032
L 199.532066 -164.516067
L 199.578636 -163.958101
L 199.487358 -163.400135
L 199.26281 -162.84217
L 198.914466 -162.284204
L 198.456073 -161.726238
L 197.904792 -161.168273
L 197.280159 -160.610307
L 196.602974 -160.052341
L 195.894184 -159.494376
L 195.173865 -158.93641
L 194.460347 -158.378444
L 193.769536 -157.820479
L 193.114473 -157.262513
L 192.505111 -156.704548
L 191.948302 -156.146582
L 191.447977 -155.588616
L 191.005452 -155.030651
L 190.619839 -154.472685
L 190.288501 -153.914719
L 190.007515 -153.356754
L 189.772118 -152.798788
L 189.577093 -152.240822
L 189.417105 -151.682857
L 189.286955 -151.124891
L 189.181771 -150.566925
L 189.097133 -150.00896
L 189.02914 -149.450994
L 188.974436 -148.893028
L 188.930202 -148.335063
L 188.894117 -147.777097
L 188.864315 -147.219132
L 188.839329 -146.661166
L 188.818027 -146.1032
L 188.799562 -145.545235
L 188.783318 -144.987269
L 188.768856 -144.429303
L 188.755879 -143.871338
L 188.744191 -143.313372
L 188.733668 -142.755406
L 188.724228 -142.197441
L 188.715815 -141.639475
L 188.708376 -141.081509
L 188.701851 -140.523544
L 188.696162 -139.965578
L 188.691213 -139.407612
L 188.686879 -138.849647
L 188.683016 -138.291681
L 188.679462 -137.733715
L 188.676041 -137.17575
L 188.672576 -136.617784
L 188.668893 -136.059819
L 188.664836 -135.501853
L 188.660271 -134.943887
L 188.655093 -134.385922
L 188.649237 -133.827956
L 188.642676 -133.26999
L 188.635421 -132.712025
L 188.627524 -132.154059
L 188.619069 -131.596093
L 188.61017 -131.038128
L 188.60096 -130.480162
L 188.591586 -129.922196
L 188.582203 -129.364231
L 188.57297 -128.806265
L 188.564048 -128.248299
L 188.555598 -127.690334
L 188.547794 -127.132368
L 188.540824 -126.574403
L 188.534911 -126.016437
L 188.530321 -125.458471
L 188.527384 -124.900506
L 188.526508 -124.34254
L 188.528191 -123.784574
L 188.533034 -123.226609
L 188.541737 -122.668643
L 188.555091 -122.110677
L 188.57396 -121.552712
L 188.599243 -120.994746
L 188.63183 -120.43678
L 188.672537 -119.878815
L 188.722041 -119.320849
L 188.780794 -118.762883
L 188.848945 -118.204918
L 188.926264 -117.646952
L 189.012077 -117.088987
L 189.105218 -116.531021
L 189.204014 -115.973055
L 189.306299 -115.41509
L 189.409463 -114.857124
L 189.510545 -114.299158
L 189.606355 -113.741193
L 189.693626 -113.183227
L 189.76919 -112.625261
L 189.830154 -112.067296
L 189.874074 -111.50933
L 189.899104 -110.951364
L 189.904115 -110.393399
z
" id="m1648535b11" style="stroke:#000000;stroke-opacity:0.8;stroke-width:0.5;"/>
    </defs>
    <g clip-path="url(#pa6ef610e58)">
     <use style="fill:#1f77b4;fill-opacity:0.8;stroke:#000000;stroke-opacity:0.8;stroke-width:0.5;" x="0" xlink:href="#m1648535b11" y="188.35125"/>
    </g>
   </g>
   <g id="PolyCollection_5">
    <defs>
     <path d="M 235.06532 -110.393399
L 231.728317 -110.393399
L 231.729328 -111.07409
L 231.749088 -111.754781
L 231.78677 -112.435472
L 231.840945 -113.116164
L 231.909667 -113.796855
L 231.990587 -114.477546
L 232.081078 -115.158237
L 232.178372 -115.838928
L 232.2797 -116.51962
L 232.382414 -117.200311
L 232.484094 -117.881002
L 232.582629 -118.561693
L 232.67628 -119.242384
L 232.763701 -119.923076
L 232.843949 -120.603767
L 232.916463 -121.284458
L 232.981027 -121.965149
L 233.03772 -122.645841
L 233.086862 -123.326532
L 233.128947 -124.007223
L 233.164589 -124.687914
L 233.19447 -125.368605
L 233.219287 -126.049297
L 233.239722 -126.729988
L 233.256408 -127.410679
L 233.269913 -128.09137
L 233.280726 -128.772061
L 233.289261 -129.452753
L 233.295848 -130.133444
L 233.300751 -130.814135
L 233.304167 -131.494826
L 233.306246 -132.175517
L 233.307096 -132.856209
L 233.306795 -133.5369
L 233.305403 -134.217591
L 233.302967 -134.898282
L 233.299531 -135.578974
L 233.295137 -136.259665
L 233.28983 -136.940356
L 233.283662 -137.621047
L 233.276688 -138.301738
L 233.268973 -138.98243
L 233.260586 -139.663121
L 233.251604 -140.343812
L 233.242111 -141.024503
L 233.232196 -141.705194
L 233.221955 -142.385886
L 233.211486 -143.066577
L 233.200895 -143.747268
L 233.190288 -144.427959
L 233.179769 -145.10865
L 233.169443 -145.789342
L 233.159404 -146.470033
L 233.149738 -147.150724
L 233.140513 -147.831415
L 233.131778 -148.512106
L 233.123556 -149.192798
L 233.115838 -149.873489
L 233.108578 -150.55418
L 233.10169 -151.234871
L 233.095036 -151.915563
L 233.088418 -152.596254
L 233.08157 -153.276945
L 233.074137 -153.957636
L 233.065657 -154.638327
L 233.055533 -155.319019
L 233.042997 -155.99971
L 233.027071 -156.680401
L 233.006514 -157.361092
L 232.979771 -158.041783
L 232.944908 -158.722475
L 232.899564 -159.403166
L 232.840893 -160.083857
L 232.765535 -160.764548
L 232.669601 -161.445239
L 232.548701 -162.125931
L 232.398012 -162.806622
L 232.212397 -163.487313
L 231.986594 -164.168004
L 231.715463 -164.848696
L 231.394301 -165.529387
L 231.019208 -166.210078
L 230.587501 -166.890769
L 230.098134 -167.57146
L 229.552121 -168.252152
L 228.952896 -168.932843
L 228.306596 -169.613534
L 227.62222 -170.294225
L 226.911625 -170.974916
L 226.189347 -171.655608
L 225.472221 -172.336299
L 224.778808 -173.01699
L 224.128655 -173.697681
L 223.541416 -174.378372
L 223.03589 -175.059064
L 222.62904 -175.739755
L 222.335067 -176.420446
L 222.164603 -177.101137
L 222.124091 -177.781829
L 244.669545 -177.781829
L 244.669545 -177.781829
L 244.629033 -177.101137
L 244.458569 -176.420446
L 244.164596 -175.739755
L 243.757746 -175.059064
L 243.25222 -174.378372
L 242.664981 -173.697681
L 242.014829 -173.01699
L 241.321416 -172.336299
L 240.604289 -171.655608
L 239.882011 -170.974916
L 239.171417 -170.294225
L 238.48704 -169.613534
L 237.84074 -168.932843
L 237.241515 -168.252152
L 236.695502 -167.57146
L 236.206136 -166.890769
L 235.774428 -166.210078
L 235.399336 -165.529387
L 235.078173 -164.848696
L 234.807042 -164.168004
L 234.581239 -163.487313
L 234.395624 -162.806622
L 234.244935 -162.125931
L 234.124036 -161.445239
L 234.028102 -160.764548
L 233.952743 -160.083857
L 233.894072 -159.403166
L 233.848728 -158.722475
L 233.813866 -158.041783
L 233.787122 -157.361092
L 233.766565 -156.680401
L 233.750639 -155.99971
L 233.738104 -155.319019
L 233.727979 -154.638327
L 233.719499 -153.957636
L 233.712066 -153.276945
L 233.705218 -152.596254
L 233.698601 -151.915563
L 233.691946 -151.234871
L 233.685058 -150.55418
L 233.677799 -149.873489
L 233.67008 -149.192798
L 233.661858 -148.512106
L 233.653123 -147.831415
L 233.643898 -147.150724
L 233.634232 -146.470033
L 233.624193 -145.789342
L 233.613867 -145.10865
L 233.603349 -144.427959
L 233.592741 -143.747268
L 233.58215 -143.066577
L 233.571682 -142.385886
L 233.56144 -141.705194
L 233.551525 -141.024503
L 233.542032 -140.343812
L 233.533051 -139.663121
L 233.524664 -138.98243
L 233.516948 -138.301738
L 233.509975 -137.621047
L 233.503806 -136.940356
L 233.498499 -136.259665
L 233.494105 -135.578974
L 233.490669 -134.898282
L 233.488234 -134.217591
L 233.486842 -133.5369
L 233.486541 -132.856209
L 233.48739 -132.175517
L 233.489469 -131.494826
L 233.492886 -130.814135
L 233.497788 -130.133444
L 233.504376 -129.452753
L 233.51291 -128.772061
L 233.523724 -128.09137
L 233.537228 -127.410679
L 233.553914 -126.729988
L 233.574349 -126.049297
L 233.599167 -125.368605
L 233.629047 -124.687914
L 233.66469 -124.007223
L 233.706774 -123.326532
L 233.755916 -122.645841
L 233.81261 -121.965149
L 233.877174 -121.284458
L 233.949688 -120.603767
L 234.029936 -119.923076
L 234.117356 -119.242384
L 234.211007 -118.561693
L 234.309543 -117.881002
L 234.411222 -117.200311
L 234.513936 -116.51962
L 234.615265 -115.838928
L 234.712559 -115.158237
L 234.803049 -114.477546
L 234.883969 -113.796855
L 234.952692 -113.116164
L 235.006867 -112.435472
L 235.044548 -111.754781
L 235.064308 -111.07409
L 235.06532 -110.393399
z
" id="me13d78a141" style="stroke:#000000;stroke-opacity:0.8;stroke-width:0.5;"/>
    </defs>
    <g clip-path="url(#pa6ef610e58)">
     <use style="fill:#1f77b4;fill-opacity:0.8;stroke:#000000;stroke-opacity:0.8;stroke-width:0.5;" x="0" xlink:href="#me13d78a141" y="188.35125"/>
    </g>
   </g>
   <g id="matplotlib.axis_1">
    <g id="xtick_1">
     <g id="line2d_1">
      <defs>
       <path d="M 0 0
L 0 3.5
" id="m85f1e4d94f" style="stroke:#000000;stroke-width:0.8;"/>
      </defs>
      <g>
       <use style="stroke:#000000;stroke-width:0.8;" x="53.033182" xlink:href="#m85f1e4d94f" y="81.327273"/>
      </g>
     </g>
    </g>
    <g id="xtick_2">
     <g id="line2d_2">
      <g>
       <use style="stroke:#000000;stroke-width:0.8;" x="98.124091" xlink:href="#m85f1e4d94f" y="81.327273"/>
      </g>
     </g>
    </g>
    <g id="xtick_3">
     <g id="line2d_3">
      <g>
       <use style="stroke:#000000;stroke-width:0.8;" x="143.215" xlink:href="#m85f1e4d94f" y="81.327273"/>
      </g>
     </g>
    </g>
    <g id="xtick_4">
     <g id="line2d_4">
      <g>
       <use style="stroke:#000000;stroke-width:0.8;" x="188.305909" xlink:href="#m85f1e4d94f" y="81.327273"/>
      </g>
     </g>
    </g>
    <g id="xtick_5">
     <g id="line2d_5">
      <g>
       <use style="stroke:#000000;stroke-width:0.8;" x="233.396818" xlink:href="#m85f1e4d94f" y="81.327273"/>
      </g>
     </g>
    </g>
   </g>
   <g id="matplotlib.axis_2">
    <g id="ytick_1">
     <g id="line2d_6">
      <defs>
       <path d="M 0 0
L -3.5 0
" id="m7bcffd8447" style="stroke:#000000;stroke-width:0.8;"/>
      </defs>
      <g>
       <use style="stroke:#000000;stroke-width:0.8;" x="31.615" xlink:href="#m7bcffd8447" y="77.957851"/>
      </g>
     </g>
     <g id="text_1">
      <!-- 0 -->
      <g transform="translate(21.43375 79.857461)scale(0.05 -0.05)">
       <defs>
        <path d="M 31.78125 66.40625
Q 24.171875 66.40625 20.328125 58.90625
Q 16.5 51.421875 16.5 36.375
Q 16.5 21.390625 20.328125 13.890625
Q 24.171875 6.390625 31.78125 6.390625
Q 39.453125 6.390625 43.28125 13.890625
Q 47.125 21.390625 47.125 36.375
Q 47.125 51.421875 43.28125 58.90625
Q 39.453125 66.40625 31.78125 66.40625
z
M 31.78125 74.21875
Q 44.046875 74.21875 50.515625 64.515625
Q 56.984375 54.828125 56.984375 36.375
Q 56.984375 17.96875 50.515625 8.265625
Q 44.046875 -1.421875 31.78125 -1.421875
Q 19.53125 -1.421875 13.0625 8.265625
Q 6.59375 17.96875 6.59375 36.375
Q 6.59375 54.828125 13.0625 64.515625
Q 19.53125 74.21875 31.78125 74.21875
z
" id="DejaVuSans-48"/>
       </defs>
       <use xlink:href="#DejaVuSans-48"/>
      </g>
     </g>
    </g>
    <g id="ytick_2">
     <g id="line2d_7">
      <g>
       <use style="stroke:#000000;stroke-width:0.8;" x="31.615" xlink:href="#m7bcffd8447" y="64.480165"/>
      </g>
     </g>
     <g id="text_2">
      <!-- 20 -->
      <g transform="translate(18.2525 66.379775)scale(0.05 -0.05)">
       <defs>
        <path d="M 19.1875 8.296875
L 53.609375 8.296875
L 53.609375 0
L 7.328125 0
L 7.328125 8.296875
Q 12.9375 14.109375 22.625 23.890625
Q 32.328125 33.6875 34.8125 36.53125
Q 39.546875 41.84375 41.421875 45.53125
Q 43.3125 49.21875 43.3125 52.78125
Q 43.3125 58.59375 39.234375 62.25
Q 35.15625 65.921875 28.609375 65.921875
Q 23.96875 65.921875 18.8125 64.3125
Q 13.671875 62.703125 7.8125 59.421875
L 7.8125 69.390625
Q 13.765625 71.78125 18.9375 73
Q 24.125 74.21875 28.421875 74.21875
Q 39.75 74.21875 46.484375 68.546875
Q 53.21875 62.890625 53.21875 53.421875
Q 53.21875 48.921875 51.53125 44.890625
Q 49.859375 40.875 45.40625 35.40625
Q 44.1875 33.984375 37.640625 27.21875
Q 31.109375 20.453125 19.1875 8.296875
z
" id="DejaVuSans-50"/>
       </defs>
       <use xlink:href="#DejaVuSans-50"/>
       <use x="63.623047" xlink:href="#DejaVuSans-48"/>
      </g>
     </g>
    </g>
    <g id="ytick_3">
     <g id="line2d_8">
      <g>
       <use style="stroke:#000000;stroke-width:0.8;" x="31.615" xlink:href="#m7bcffd8447" y="51.002479"/>
      </g>
     </g>
     <g id="text_3">
      <!-- 40 -->
      <g transform="translate(18.2525 52.902089)scale(0.05 -0.05)">
       <defs>
        <path d="M 37.796875 64.3125
L 12.890625 25.390625
L 37.796875 25.390625
z
M 35.203125 72.90625
L 47.609375 72.90625
L 47.609375 25.390625
L 58.015625 25.390625
L 58.015625 17.1875
L 47.609375 17.1875
L 47.609375 0
L 37.796875 0
L 37.796875 17.1875
L 4.890625 17.1875
L 4.890625 26.703125
z
" id="DejaVuSans-52"/>
       </defs>
       <use xlink:href="#DejaVuSans-52"/>
       <use x="63.623047" xlink:href="#DejaVuSans-48"/>
      </g>
     </g>
    </g>
    <g id="ytick_4">
     <g id="line2d_9">
      <g>
       <use style="stroke:#000000;stroke-width:0.8;" x="31.615" xlink:href="#m7bcffd8447" y="37.524793"/>
      </g>
     </g>
     <g id="text_4">
      <!-- 60 -->
      <g transform="translate(18.2525 39.424403)scale(0.05 -0.05)">
       <defs>
        <path d="M 33.015625 40.375
Q 26.375 40.375 22.484375 35.828125
Q 18.609375 31.296875 18.609375 23.390625
Q 18.609375 15.53125 22.484375 10.953125
Q 26.375 6.390625 33.015625 6.390625
Q 39.65625 6.390625 43.53125 10.953125
Q 47.40625 15.53125 47.40625 23.390625
Q 47.40625 31.296875 43.53125 35.828125
Q 39.65625 40.375 33.015625 40.375
z
M 52.59375 71.296875
L 52.59375 62.3125
Q 48.875 64.0625 45.09375 64.984375
Q 41.3125 65.921875 37.59375 65.921875
Q 27.828125 65.921875 22.671875 59.328125
Q 17.53125 52.734375 16.796875 39.40625
Q 19.671875 43.65625 24.015625 45.921875
Q 28.375 48.1875 33.59375 48.1875
Q 44.578125 48.1875 50.953125 41.515625
Q 57.328125 34.859375 57.328125 23.390625
Q 57.328125 12.15625 50.6875 5.359375
Q 44.046875 -1.421875 33.015625 -1.421875
Q 20.359375 -1.421875 13.671875 8.265625
Q 6.984375 17.96875 6.984375 36.375
Q 6.984375 53.65625 15.1875 63.9375
Q 23.390625 74.21875 37.203125 74.21875
Q 40.921875 74.21875 44.703125 73.484375
Q 48.484375 72.75 52.59375 71.296875
z
" id="DejaVuSans-54"/>
       </defs>
       <use xlink:href="#DejaVuSans-54"/>
       <use x="63.623047" xlink:href="#DejaVuSans-48"/>
      </g>
     </g>
    </g>
    <g id="ytick_5">
     <g id="line2d_10">
      <g>
       <use style="stroke:#000000;stroke-width:0.8;" x="31.615" xlink:href="#m7bcffd8447" y="24.047107"/>
      </g>
     </g>
     <g id="text_5">
      <!-- 80 -->
      <g transform="translate(18.2525 25.946717)scale(0.05 -0.05)">
       <defs>
        <path d="M 31.78125 34.625
Q 24.75 34.625 20.71875 30.859375
Q 16.703125 27.09375 16.703125 20.515625
Q 16.703125 13.921875 20.71875 10.15625
Q 24.75 6.390625 31.78125 6.390625
Q 38.8125 6.390625 42.859375 10.171875
Q 46.921875 13.96875 46.921875 20.515625
Q 46.921875 27.09375 42.890625 30.859375
Q 38.875 34.625 31.78125 34.625
z
M 21.921875 38.8125
Q 15.578125 40.375 12.03125 44.71875
Q 8.5 49.078125 8.5 55.328125
Q 8.5 64.0625 14.71875 69.140625
Q 20.953125 74.21875 31.78125 74.21875
Q 42.671875 74.21875 48.875 69.140625
Q 55.078125 64.0625 55.078125 55.328125
Q 55.078125 49.078125 51.53125 44.71875
Q 48 40.375 41.703125 38.8125
Q 48.828125 37.15625 52.796875 32.3125
Q 56.78125 27.484375 56.78125 20.515625
Q 56.78125 9.90625 50.3125 4.234375
Q 43.84375 -1.421875 31.78125 -1.421875
Q 19.734375 -1.421875 13.25 4.234375
Q 6.78125 9.90625 6.78125 20.515625
Q 6.78125 27.484375 10.78125 32.3125
Q 14.796875 37.15625 21.921875 38.8125
z
M 18.3125 54.390625
Q 18.3125 48.734375 21.84375 45.5625
Q 25.390625 42.390625 31.78125 42.390625
Q 38.140625 42.390625 41.71875 45.5625
Q 45.3125 48.734375 45.3125 54.390625
Q 45.3125 60.0625 41.71875 63.234375
Q 38.140625 66.40625 31.78125 66.40625
Q 25.390625 66.40625 21.84375 63.234375
Q 18.3125 60.0625 18.3125 54.390625
z
" id="DejaVuSans-56"/>
       </defs>
       <use xlink:href="#DejaVuSans-56"/>
       <use x="63.623047" xlink:href="#DejaVuSans-48"/>
      </g>
     </g>
    </g>
    <g id="ytick_6">
     <g id="line2d_11">
      <g>
       <use style="stroke:#000000;stroke-width:0.8;" x="31.615" xlink:href="#m7bcffd8447" y="10.569421"/>
      </g>
     </g>
     <g id="text_6">
      <!-- 100 -->
      <g transform="translate(15.07125 12.469031)scale(0.05 -0.05)">
       <defs>
        <path d="M 12.40625 8.296875
L 28.515625 8.296875
L 28.515625 63.921875
L 10.984375 60.40625
L 10.984375 69.390625
L 28.421875 72.90625
L 38.28125 72.90625
L 38.28125 8.296875
L 54.390625 8.296875
L 54.390625 0
L 12.40625 0
z
" id="DejaVuSans-49"/>
       </defs>
       <use xlink:href="#DejaVuSans-49"/>
       <use x="63.623047" xlink:href="#DejaVuSans-48"/>
       <use x="127.246094" xlink:href="#DejaVuSans-48"/>
      </g>
     </g>
    </g>
    <g id="text_7">
     <!-- Genomic Coverage (%) -->
     <g transform="translate(10.239375 67.453636)rotate(-90)scale(0.04 -0.04)">
      <defs>
       <path d="M 59.515625 10.40625
L 59.515625 29.984375
L 43.40625 29.984375
L 43.40625 38.09375
L 69.28125 38.09375
L 69.28125 6.78125
Q 63.578125 2.734375 56.6875 0.65625
Q 49.8125 -1.421875 42 -1.421875
Q 24.90625 -1.421875 15.25 8.5625
Q 5.609375 18.5625 5.609375 36.375
Q 5.609375 54.25 15.25 64.234375
Q 24.90625 74.21875 42 74.21875
Q 49.125 74.21875 55.546875 72.453125
Q 61.96875 70.703125 67.390625 67.28125
L 67.390625 56.78125
Q 61.921875 61.421875 55.765625 63.765625
Q 49.609375 66.109375 42.828125 66.109375
Q 29.4375 66.109375 22.71875 58.640625
Q 16.015625 51.171875 16.015625 36.375
Q 16.015625 21.625 22.71875 14.15625
Q 29.4375 6.6875 42.828125 6.6875
Q 48.046875 6.6875 52.140625 7.59375
Q 56.25 8.5 59.515625 10.40625
z
" id="DejaVuSans-71"/>
       <path d="M 56.203125 29.59375
L 56.203125 25.203125
L 14.890625 25.203125
Q 15.484375 15.921875 20.484375 11.0625
Q 25.484375 6.203125 34.421875 6.203125
Q 39.59375 6.203125 44.453125 7.46875
Q 49.3125 8.734375 54.109375 11.28125
L 54.109375 2.78125
Q 49.265625 0.734375 44.1875 -0.34375
Q 39.109375 -1.421875 33.890625 -1.421875
Q 20.796875 -1.421875 13.15625 6.1875
Q 5.515625 13.8125 5.515625 26.8125
Q 5.515625 40.234375 12.765625 48.109375
Q 20.015625 56 32.328125 56
Q 43.359375 56 49.78125 48.890625
Q 56.203125 41.796875 56.203125 29.59375
z
M 47.21875 32.234375
Q 47.125 39.59375 43.09375 43.984375
Q 39.0625 48.390625 32.421875 48.390625
Q 24.90625 48.390625 20.390625 44.140625
Q 15.875 39.890625 15.1875 32.171875
z
" id="DejaVuSans-101"/>
       <path d="M 54.890625 33.015625
L 54.890625 0
L 45.90625 0
L 45.90625 32.71875
Q 45.90625 40.484375 42.875 44.328125
Q 39.84375 48.1875 33.796875 48.1875
Q 26.515625 48.1875 22.3125 43.546875
Q 18.109375 38.921875 18.109375 30.90625
L 18.109375 0
L 9.078125 0
L 9.078125 54.6875
L 18.109375 54.6875
L 18.109375 46.1875
Q 21.34375 51.125 25.703125 53.5625
Q 30.078125 56 35.796875 56
Q 45.21875 56 50.046875 50.171875
Q 54.890625 44.34375 54.890625 33.015625
z
" id="DejaVuSans-110"/>
       <path d="M 30.609375 48.390625
Q 23.390625 48.390625 19.1875 42.75
Q 14.984375 37.109375 14.984375 27.296875
Q 14.984375 17.484375 19.15625 11.84375
Q 23.34375 6.203125 30.609375 6.203125
Q 37.796875 6.203125 41.984375 11.859375
Q 46.1875 17.53125 46.1875 27.296875
Q 46.1875 37.015625 41.984375 42.703125
Q 37.796875 48.390625 30.609375 48.390625
z
M 30.609375 56
Q 42.328125 56 49.015625 48.375
Q 55.71875 40.765625 55.71875 27.296875
Q 55.71875 13.875 49.015625 6.21875
Q 42.328125 -1.421875 30.609375 -1.421875
Q 18.84375 -1.421875 12.171875 6.21875
Q 5.515625 13.875 5.515625 27.296875
Q 5.515625 40.765625 12.171875 48.375
Q 18.84375 56 30.609375 56
z
" id="DejaVuSans-111"/>
       <path d="M 52 44.1875
Q 55.375 50.25 60.0625 53.125
Q 64.75 56 71.09375 56
Q 79.640625 56 84.28125 50.015625
Q 88.921875 44.046875 88.921875 33.015625
L 88.921875 0
L 79.890625 0
L 79.890625 32.71875
Q 79.890625 40.578125 77.09375 44.375
Q 74.3125 48.1875 68.609375 48.1875
Q 61.625 48.1875 57.5625 43.546875
Q 53.515625 38.921875 53.515625 30.90625
L 53.515625 0
L 44.484375 0
L 44.484375 32.71875
Q 44.484375 40.625 41.703125 44.40625
Q 38.921875 48.1875 33.109375 48.1875
Q 26.21875 48.1875 22.15625 43.53125
Q 18.109375 38.875 18.109375 30.90625
L 18.109375 0
L 9.078125 0
L 9.078125 54.6875
L 18.109375 54.6875
L 18.109375 46.1875
Q 21.1875 51.21875 25.484375 53.609375
Q 29.78125 56 35.6875 56
Q 41.65625 56 45.828125 52.96875
Q 50 49.953125 52 44.1875
z
" id="DejaVuSans-109"/>
       <path d="M 9.421875 54.6875
L 18.40625 54.6875
L 18.40625 0
L 9.421875 0
z
M 9.421875 75.984375
L 18.40625 75.984375
L 18.40625 64.59375
L 9.421875 64.59375
z
" id="DejaVuSans-105"/>
       <path d="M 48.78125 52.59375
L 48.78125 44.1875
Q 44.96875 46.296875 41.140625 47.34375
Q 37.3125 48.390625 33.40625 48.390625
Q 24.65625 48.390625 19.8125 42.84375
Q 14.984375 37.3125 14.984375 27.296875
Q 14.984375 17.28125 19.8125 11.734375
Q 24.65625 6.203125 33.40625 6.203125
Q 37.3125 6.203125 41.140625 7.25
Q 44.96875 8.296875 48.78125 10.40625
L 48.78125 2.09375
Q 45.015625 0.34375 40.984375 -0.53125
Q 36.96875 -1.421875 32.421875 -1.421875
Q 20.0625 -1.421875 12.78125 6.34375
Q 5.515625 14.109375 5.515625 27.296875
Q 5.515625 40.671875 12.859375 48.328125
Q 20.21875 56 33.015625 56
Q 37.15625 56 41.109375 55.140625
Q 45.0625 54.296875 48.78125 52.59375
z
" id="DejaVuSans-99"/>
       <path id="DejaVuSans-32"/>
       <path d="M 64.40625 67.28125
L 64.40625 56.890625
Q 59.421875 61.53125 53.78125 63.8125
Q 48.140625 66.109375 41.796875 66.109375
Q 29.296875 66.109375 22.65625 58.46875
Q 16.015625 50.828125 16.015625 36.375
Q 16.015625 21.96875 22.65625 14.328125
Q 29.296875 6.6875 41.796875 6.6875
Q 48.140625 6.6875 53.78125 8.984375
Q 59.421875 11.28125 64.40625 15.921875
L 64.40625 5.609375
Q 59.234375 2.09375 53.4375 0.328125
Q 47.65625 -1.421875 41.21875 -1.421875
Q 24.65625 -1.421875 15.125 8.703125
Q 5.609375 18.84375 5.609375 36.375
Q 5.609375 53.953125 15.125 64.078125
Q 24.65625 74.21875 41.21875 74.21875
Q 47.75 74.21875 53.53125 72.484375
Q 59.328125 70.75 64.40625 67.28125
z
" id="DejaVuSans-67"/>
       <path d="M 2.984375 54.6875
L 12.5 54.6875
L 29.59375 8.796875
L 46.6875 54.6875
L 56.203125 54.6875
L 35.6875 0
L 23.484375 0
z
" id="DejaVuSans-118"/>
       <path d="M 41.109375 46.296875
Q 39.59375 47.171875 37.8125 47.578125
Q 36.03125 48 33.890625 48
Q 26.265625 48 22.1875 43.046875
Q 18.109375 38.09375 18.109375 28.8125
L 18.109375 0
L 9.078125 0
L 9.078125 54.6875
L 18.109375 54.6875
L 18.109375 46.1875
Q 20.953125 51.171875 25.484375 53.578125
Q 30.03125 56 36.53125 56
Q 37.453125 56 38.578125 55.875
Q 39.703125 55.765625 41.0625 55.515625
z
" id="DejaVuSans-114"/>
       <path d="M 34.28125 27.484375
Q 23.390625 27.484375 19.1875 25
Q 14.984375 22.515625 14.984375 16.5
Q 14.984375 11.71875 18.140625 8.90625
Q 21.296875 6.109375 26.703125 6.109375
Q 34.1875 6.109375 38.703125 11.40625
Q 43.21875 16.703125 43.21875 25.484375
L 43.21875 27.484375
z
M 52.203125 31.203125
L 52.203125 0
L 43.21875 0
L 43.21875 8.296875
Q 40.140625 3.328125 35.546875 0.953125
Q 30.953125 -1.421875 24.3125 -1.421875
Q 15.921875 -1.421875 10.953125 3.296875
Q 6 8.015625 6 15.921875
Q 6 25.140625 12.171875 29.828125
Q 18.359375 34.515625 30.609375 34.515625
L 43.21875 34.515625
L 43.21875 35.40625
Q 43.21875 41.609375 39.140625 45
Q 35.0625 48.390625 27.6875 48.390625
Q 23 48.390625 18.546875 47.265625
Q 14.109375 46.140625 10.015625 43.890625
L 10.015625 52.203125
Q 14.9375 54.109375 19.578125 55.046875
Q 24.21875 56 28.609375 56
Q 40.484375 56 46.34375 49.84375
Q 52.203125 43.703125 52.203125 31.203125
z
" id="DejaVuSans-97"/>
       <path d="M 45.40625 27.984375
Q 45.40625 37.75 41.375 43.109375
Q 37.359375 48.484375 30.078125 48.484375
Q 22.859375 48.484375 18.828125 43.109375
Q 14.796875 37.75 14.796875 27.984375
Q 14.796875 18.265625 18.828125 12.890625
Q 22.859375 7.515625 30.078125 7.515625
Q 37.359375 7.515625 41.375 12.890625
Q 45.40625 18.265625 45.40625 27.984375
z
M 54.390625 6.78125
Q 54.390625 -7.171875 48.1875 -13.984375
Q 42 -20.796875 29.203125 -20.796875
Q 24.46875 -20.796875 20.265625 -20.09375
Q 16.0625 -19.390625 12.109375 -17.921875
L 12.109375 -9.1875
Q 16.0625 -11.328125 19.921875 -12.34375
Q 23.78125 -13.375 27.78125 -13.375
Q 36.625 -13.375 41.015625 -8.765625
Q 45.40625 -4.15625 45.40625 5.171875
L 45.40625 9.625
Q 42.625 4.78125 38.28125 2.390625
Q 33.9375 0 27.875 0
Q 17.828125 0 11.671875 7.65625
Q 5.515625 15.328125 5.515625 27.984375
Q 5.515625 40.671875 11.671875 48.328125
Q 17.828125 56 27.875 56
Q 33.9375 56 38.28125 53.609375
Q 42.625 51.21875 45.40625 46.390625
L 45.40625 54.6875
L 54.390625 54.6875
z
" id="DejaVuSans-103"/>
       <path d="M 31 75.875
Q 24.46875 64.65625 21.28125 53.65625
Q 18.109375 42.671875 18.109375 31.390625
Q 18.109375 20.125 21.3125 9.0625
Q 24.515625 -2 31 -13.1875
L 23.1875 -13.1875
Q 15.875 -1.703125 12.234375 9.375
Q 8.59375 20.453125 8.59375 31.390625
Q 8.59375 42.28125 12.203125 53.3125
Q 15.828125 64.359375 23.1875 75.875
z
" id="DejaVuSans-40"/>
       <path d="M 72.703125 32.078125
Q 68.453125 32.078125 66.03125 28.46875
Q 63.625 24.859375 63.625 18.40625
Q 63.625 12.0625 66.03125 8.421875
Q 68.453125 4.78125 72.703125 4.78125
Q 76.859375 4.78125 79.265625 8.421875
Q 81.6875 12.0625 81.6875 18.40625
Q 81.6875 24.8125 79.265625 28.4375
Q 76.859375 32.078125 72.703125 32.078125
z
M 72.703125 38.28125
Q 80.421875 38.28125 84.953125 32.90625
Q 89.5 27.546875 89.5 18.40625
Q 89.5 9.28125 84.9375 3.921875
Q 80.375 -1.421875 72.703125 -1.421875
Q 64.890625 -1.421875 60.34375 3.921875
Q 55.8125 9.28125 55.8125 18.40625
Q 55.8125 27.59375 60.375 32.9375
Q 64.9375 38.28125 72.703125 38.28125
z
M 22.3125 68.015625
Q 18.109375 68.015625 15.6875 64.375
Q 13.28125 60.75 13.28125 54.390625
Q 13.28125 47.953125 15.671875 44.328125
Q 18.0625 40.71875 22.3125 40.71875
Q 26.5625 40.71875 28.96875 44.328125
Q 31.390625 47.953125 31.390625 54.390625
Q 31.390625 60.6875 28.953125 64.34375
Q 26.515625 68.015625 22.3125 68.015625
z
M 66.40625 74.21875
L 74.21875 74.21875
L 28.609375 -1.421875
L 20.796875 -1.421875
z
M 22.3125 74.21875
Q 30.03125 74.21875 34.609375 68.875
Q 39.203125 63.53125 39.203125 54.390625
Q 39.203125 45.171875 34.640625 39.84375
Q 30.078125 34.515625 22.3125 34.515625
Q 14.546875 34.515625 10.03125 39.859375
Q 5.515625 45.21875 5.515625 54.390625
Q 5.515625 63.484375 10.046875 68.84375
Q 14.59375 74.21875 22.3125 74.21875
z
" id="DejaVuSans-37"/>
       <path d="M 8.015625 75.875
L 15.828125 75.875
Q 23.140625 64.359375 26.78125 53.3125
Q 30.421875 42.28125 30.421875 31.390625
Q 30.421875 20.453125 26.78125 9.375
Q 23.140625 -1.703125 15.828125 -13.1875
L 8.015625 -13.1875
Q 14.5 -2 17.703125 9.0625
Q 20.90625 20.125 20.90625 31.390625
Q 20.90625 42.671875 17.703125 53.65625
Q 14.5 64.65625 8.015625 75.875
z
" id="DejaVuSans-41"/>
      </defs>
      <use xlink:href="#DejaVuSans-71"/>
      <use x="77.490234" xlink:href="#DejaVuSans-101"/>
      <use x="139.013672" xlink:href="#DejaVuSans-110"/>
      <use x="202.392578" xlink:href="#DejaVuSans-111"/>
      <use x="263.574219" xlink:href="#DejaVuSans-109"/>
      <use x="360.986328" xlink:href="#DejaVuSans-105"/>
      <use x="388.769531" xlink:href="#DejaVuSans-99"/>
      <use x="443.75" xlink:href="#DejaVuSans-32"/>
      <use x="475.537109" xlink:href="#DejaVuSans-67"/>
      <use x="545.361328" xlink:href="#DejaVuSans-111"/>
      <use x="606.542969" xlink:href="#DejaVuSans-118"/>
      <use x="665.722656" xlink:href="#DejaVuSans-101"/>
      <use x="727.246094" xlink:href="#DejaVuSans-114"/>
      <use x="768.359375" xlink:href="#DejaVuSans-97"/>
      <use x="829.638672" xlink:href="#DejaVuSans-103"/>
      <use x="893.115234" xlink:href="#DejaVuSans-101"/>
      <use x="954.638672" xlink:href="#DejaVuSans-32"/>
      <use x="986.425781" xlink:href="#DejaVuSans-40"/>
      <use x="1025.439453" xlink:href="#DejaVuSans-37"/>
      <use x="1120.458984" xlink:href="#DejaVuSans-41"/>
     </g>
    </g>
   </g>
   <g id="patch_3">
    <path d="M 31.615 81.327273
L 31.615 7.2
" style="fill:none;stroke:#000000;stroke-linecap:square;stroke-linejoin:miter;stroke-width:0.8;"/>
   </g>
   <g id="patch_4">
    <path d="M 254.815 81.327273
L 254.815 7.2
" style="fill:none;stroke:#000000;stroke-linecap:square;stroke-linejoin:miter;stroke-width:0.8;"/>
   </g>
   <g id="patch_5">
    <path d="M 31.615 81.327273
L 254.815 81.327273
" style="fill:none;stroke:#000000;stroke-linecap:square;stroke-linejoin:miter;stroke-width:0.8;"/>
   </g>
   <g id="patch_6">
    <path d="M 31.615 7.2
L 254.815 7.2
" style="fill:none;stroke:#000000;stroke-linecap:square;stroke-linejoin:miter;stroke-width:0.8;"/>
   </g>
  </g>
  <g id="axes_2">
   <g id="patch_7">
    <path d="M 31.615 170.28
L 254.815 170.28
L 254.815 96.152727
L 31.615 96.152727
z
" style="fill:#ffffff;"/>
   </g>
   <g id="PolyCollection_6">
    <path clip-path="url(#p93132ca8d2)" d="M 53.289565 160.824544
L 52.776799 160.824544
L 52.684708 158.37393
L 52.674324 155.923317
L 52.676958 153.472703
L 52.544465 151.022089
L 51.725706 148.571476
L 48.938136 146.120862
L 44.231854 143.670248
L 41.760455 141.219635
L 44.713415 138.769021
L 49.521392 136.318407
L 52.151165 133.867794
L 52.842985 131.41718
L 52.934333 128.966566
L 52.947516 126.515953
L 52.968988 124.065339
L 52.985107 121.614725
L 52.965767 119.164112
L 52.91729 116.713498
L 52.88481 114.262885
L 52.896556 111.812271
L 52.932476 109.361657
L 52.965811 106.911044
L 52.987068 104.46043
L 52.99516 102.009816
L 52.999032 99.559203
L 53.007274 97.108589
L 53.016661 94.657975
L 53.017287 92.207362
L 53.012278 89.756748
L 53.014695 87.306134
L 53.024047 84.855521
L 53.030715 82.404907
L 53.032818 79.954293
L 53.033153 77.50368
L 53.033181 75.053066
L 53.033182 72.602452
L 53.033182 70.151839
L 53.033179 67.701225
L 53.033128 65.250612
L 53.032594 62.799998
L 53.029696 60.349384
L 53.021918 57.898771
L 53.013336 55.448157
L 53.014119 52.997543
L 53.023198 50.54693
L 53.030331 48.096316
L 53.032738 45.645702
L 53.033144 43.195089
L 53.03318 40.744475
L 53.033182 38.293861
L 53.033182 35.843248
L 53.033182 33.392634
L 53.033182 30.94202
L 53.033182 28.491407
L 53.033182 26.040793
L 53.033182 23.590179
L 53.033182 21.139566
L 53.033182 18.688952
L 53.033182 16.238338
L 53.033182 13.787725
L 53.033182 11.337111
L 53.033182 8.886498
L 53.033182 6.435884
L 53.033182 3.98527
L 53.033182 1.534657
L 53.033182 -0.915957
L 53.033182 -3.366571
L 53.033182 -5.817184
L 53.033182 -8.267798
L 53.033182 -10.718412
L 53.033182 -13.169025
L 53.033182 -15.619639
L 53.033182 -18.070253
L 53.033182 -20.520866
L 53.033182 -22.97148
L 53.033182 -25.422094
L 53.033182 -27.872707
L 53.033182 -30.323321
L 53.033182 -32.773935
L 53.033182 -35.224548
L 53.033182 -37.675162
L 53.033182 -40.125775
L 53.033182 -42.576389
L 53.033182 -45.027003
L 53.033182 -47.477616
L 53.033182 -49.92823
L 53.033182 -52.378844
L 53.033182 -54.829457
L 53.033182 -57.280071
L 53.033182 -59.730685
L 53.033182 -62.181298
L 53.033182 -64.631912
L 53.033181 -67.082526
L 53.033171 -69.533139
L 53.033018 -71.983753
L 53.031811 -74.434367
L 53.026937 -76.88498
L 53.017668 -79.335594
L 53.012171 -81.786208
L 53.054192 -81.786208
L 53.054192 -81.786208
L 53.048695 -79.335594
L 53.039427 -76.88498
L 53.034553 -74.434367
L 53.033346 -71.983753
L 53.033193 -69.533139
L 53.033182 -67.082526
L 53.033182 -64.631912
L 53.033182 -62.181298
L 53.033182 -59.730685
L 53.033182 -57.280071
L 53.033182 -54.829457
L 53.033182 -52.378844
L 53.033182 -49.92823
L 53.033182 -47.477616
L 53.033182 -45.027003
L 53.033182 -42.576389
L 53.033182 -40.125775
L 53.033182 -37.675162
L 53.033182 -35.224548
L 53.033182 -32.773935
L 53.033182 -30.323321
L 53.033182 -27.872707
L 53.033182 -25.422094
L 53.033182 -22.97148
L 53.033182 -20.520866
L 53.033182 -18.070253
L 53.033182 -15.619639
L 53.033182 -13.169025
L 53.033182 -10.718412
L 53.033182 -8.267798
L 53.033182 -5.817184
L 53.033182 -3.366571
L 53.033182 -0.915957
L 53.033182 1.534657
L 53.033182 3.98527
L 53.033182 6.435884
L 53.033182 8.886498
L 53.033182 11.337111
L 53.033182 13.787725
L 53.033182 16.238338
L 53.033182 18.688952
L 53.033182 21.139566
L 53.033182 23.590179
L 53.033182 26.040793
L 53.033182 28.491407
L 53.033182 30.94202
L 53.033182 33.392634
L 53.033182 35.843248
L 53.033182 38.293861
L 53.033184 40.744475
L 53.033219 43.195089
L 53.033626 45.645702
L 53.036032 48.096316
L 53.043165 50.54693
L 53.052245 52.997543
L 53.053027 55.448157
L 53.044446 57.898771
L 53.036667 60.349384
L 53.03377 62.799998
L 53.033236 65.250612
L 53.033185 67.701225
L 53.033182 70.151839
L 53.033182 72.602452
L 53.033183 75.053066
L 53.033211 77.50368
L 53.033545 79.954293
L 53.035649 82.404907
L 53.042316 84.855521
L 53.051668 87.306134
L 53.054085 89.756748
L 53.049077 92.207362
L 53.049703 94.657975
L 53.05909 97.108589
L 53.067331 99.559203
L 53.071203 102.009816
L 53.079295 104.46043
L 53.100552 106.911044
L 53.133888 109.361657
L 53.169807 111.812271
L 53.181554 114.262885
L 53.149074 116.713498
L 53.100597 119.164112
L 53.081256 121.614725
L 53.097376 124.065339
L 53.118848 126.515953
L 53.13203 128.966566
L 53.223378 131.41718
L 53.915198 133.867794
L 56.544972 136.318407
L 61.352948 138.769021
L 64.305909 141.219635
L 61.834509 143.670248
L 57.128228 146.120862
L 54.340658 148.571476
L 53.521899 151.022089
L 53.389406 153.472703
L 53.39204 155.923317
L 53.381656 158.37393
L 53.289565 160.824544
z
" style="fill:#d43f3a;fill-opacity:0.8;stroke:#000000;stroke-opacity:0.8;stroke-width:0.5;"/>
   </g>
   <g id="PolyCollection_7">
    <path clip-path="url(#p93132ca8d2)" d="M 99.414459 167.428951
L 96.833723 167.428951
L 96.869236 164.31001
L 97.089865 161.191069
L 97.129572 158.072127
L 96.513465 154.953186
L 94.753216 151.834245
L 91.737661 148.715304
L 88.449159 145.596363
L 86.851364 142.477421
L 88.175442 139.35848
L 91.498983 136.239539
L 94.759131 133.120598
L 96.757127 130.001657
L 97.606312 126.882715
L 97.86976 123.763774
L 97.927964 120.644833
L 97.933325 117.525892
L 97.930734 114.406951
L 97.926952 111.288009
L 97.921255 108.169068
L 97.917261 105.050127
L 97.920083 101.931186
L 97.931526 98.812245
L 97.950859 95.693303
L 97.977986 92.574362
L 98.012168 89.455421
L 98.04643 86.33648
L 98.069209 83.217539
L 98.0754 80.098597
L 98.071103 76.979656
L 98.065363 73.860715
L 98.062357 70.741774
L 98.063375 67.622833
L 98.069552 64.503891
L 98.077617 61.38495
L 98.078563 58.266009
L 98.067608 55.147068
L 98.053006 52.028127
L 98.048347 48.909185
L 98.057474 45.790244
L 98.073485 42.671303
L 98.089619 39.552362
L 98.103379 36.43342
L 98.113045 33.314479
L 98.116665 30.195538
L 98.113818 27.076597
L 98.106951 23.957656
L 98.101372 20.838714
L 98.101893 17.719773
L 98.108248 14.600832
L 98.115839 11.481891
L 98.120955 8.36295
L 98.123222 5.244008
L 98.123915 2.125067
L 98.124062 -0.993874
L 98.124059 -4.112815
L 98.123898 -7.231756
L 98.123154 -10.350698
L 98.120767 -13.469639
L 98.115487 -16.58858
L 98.107841 -19.707521
L 98.101698 -22.826462
L 98.101576 -25.945404
L 98.107574 -29.064345
L 98.115251 -32.183286
L 98.120639 -35.302227
L 98.123107 -38.421168
L 98.123886 -41.54011
L 98.12406 -44.659051
L 98.124087 -47.777992
L 98.124091 -50.896933
L 98.124091 -54.015874
L 98.124091 -57.134816
L 98.124091 -60.253757
L 98.124091 -63.372698
L 98.124091 -66.491639
L 98.124091 -69.61058
L 98.124091 -72.729522
L 98.124091 -75.848463
L 98.124091 -78.967404
L 98.124091 -82.086345
L 98.124091 -85.205286
L 98.124091 -88.324228
L 98.124091 -91.443169
L 98.124091 -94.56211
L 98.124091 -97.681051
L 98.124091 -100.799992
L 98.124091 -103.918934
L 98.124091 -107.037875
L 98.124091 -110.156816
L 98.124091 -113.275757
L 98.12409 -116.394699
L 98.124081 -119.51364
L 98.124011 -122.632581
L 98.123637 -125.751522
L 98.122215 -128.870463
L 98.118437 -131.989405
L 98.111657 -135.108346
L 98.10414 -138.227287
L 98.100734 -141.346228
L 98.147448 -141.346228
L 98.147448 -141.346228
L 98.144042 -138.227287
L 98.136525 -135.108346
L 98.129745 -131.989405
L 98.125967 -128.870463
L 98.124545 -125.751522
L 98.124171 -122.632581
L 98.124101 -119.51364
L 98.124092 -116.394699
L 98.124091 -113.275757
L 98.124091 -110.156816
L 98.124091 -107.037875
L 98.124091 -103.918934
L 98.124091 -100.799992
L 98.124091 -97.681051
L 98.124091 -94.56211
L 98.124091 -91.443169
L 98.124091 -88.324228
L 98.124091 -85.205286
L 98.124091 -82.086345
L 98.124091 -78.967404
L 98.124091 -75.848463
L 98.124091 -72.729522
L 98.124091 -69.61058
L 98.124091 -66.491639
L 98.124091 -63.372698
L 98.124091 -60.253757
L 98.124091 -57.134816
L 98.124091 -54.015874
L 98.124091 -50.896933
L 98.124094 -47.777992
L 98.124122 -44.659051
L 98.124295 -41.54011
L 98.125075 -38.421168
L 98.127543 -35.302227
L 98.132931 -32.183286
L 98.140607 -29.064345
L 98.146606 -25.945404
L 98.146484 -22.826462
L 98.140341 -19.707521
L 98.132695 -16.58858
L 98.127415 -13.469639
L 98.125028 -10.350698
L 98.124284 -7.231756
L 98.124123 -4.112815
L 98.12412 -0.993874
L 98.124267 2.125067
L 98.12496 5.244008
L 98.127227 8.36295
L 98.132342 11.481891
L 98.139934 14.600832
L 98.146289 17.719773
L 98.14681 20.838714
L 98.141231 23.957656
L 98.134364 27.076597
L 98.131517 30.195538
L 98.135137 33.314479
L 98.144803 36.43342
L 98.158563 39.552362
L 98.174697 42.671303
L 98.190708 45.790244
L 98.199835 48.909185
L 98.195176 52.028127
L 98.180574 55.147068
L 98.169619 58.266009
L 98.170565 61.38495
L 98.17863 64.503891
L 98.184806 67.622833
L 98.185825 70.741774
L 98.182819 73.860715
L 98.177079 76.979656
L 98.172782 80.098597
L 98.178973 83.217539
L 98.201751 86.33648
L 98.236014 89.455421
L 98.270196 92.574362
L 98.297323 95.693303
L 98.316656 98.812245
L 98.328099 101.931186
L 98.330921 105.050127
L 98.326927 108.169068
L 98.32123 111.288009
L 98.317448 114.406951
L 98.314857 117.525892
L 98.320217 120.644833
L 98.378422 123.763774
L 98.641869 126.882715
L 99.491055 130.001657
L 101.489051 133.120598
L 104.749199 136.239539
L 108.07274 139.35848
L 109.396818 142.477421
L 107.799022 145.596363
L 104.510521 148.715304
L 101.494966 151.834245
L 99.734717 154.953186
L 99.11861 158.072127
L 99.158317 161.191069
L 99.378946 164.31001
L 99.414459 167.428951
z
" style="fill:#d43f3a;fill-opacity:0.8;stroke:#000000;stroke-opacity:0.8;stroke-width:0.5;"/>
   </g>
   <g id="PolyCollection_8">
    <path clip-path="url(#p93132ca8d2)" d="M 144.215316 167.428951
L 142.214684 167.428951
L 142.253523 164.64212
L 142.432649 161.855288
L 142.528782 159.068457
L 142.459562 156.281626
L 142.115041 153.494794
L 141.062826 150.707963
L 138.598646 147.921132
L 134.817532 145.1343
L 131.942273 142.347469
L 132.659783 139.560638
L 136.449024 136.773806
L 140.227675 133.986975
L 142.250369 131.200144
L 142.905021 128.413312
L 143.009077 125.626481
L 142.986401 122.83965
L 142.980362 120.052818
L 143.010204 117.265987
L 143.049361 114.479156
L 143.076017 111.692324
L 143.083502 108.905493
L 143.078588 106.118662
L 143.078079 103.33183
L 143.094383 100.544999
L 143.124876 97.758168
L 143.157132 94.971336
L 143.179173 92.184505
L 143.186149 89.397674
L 143.183283 86.610842
L 143.179741 83.824011
L 143.180404 81.03718
L 143.186652 78.250348
L 143.196981 75.463517
L 143.205702 72.676686
L 143.207381 69.889854
L 143.200895 67.103023
L 143.189934 64.316192
L 143.180979 61.52936
L 143.17837 58.742529
L 143.182974 55.955698
L 143.193216 53.168866
L 143.204222 50.382035
L 143.211305 47.595204
L 143.214144 44.808372
L 143.214868 42.021541
L 143.214986 39.23471
L 143.214998 36.447878
L 143.214985 33.661047
L 143.21486 30.874216
L 143.214109 28.087384
L 143.211249 25.300553
L 143.204536 22.513722
L 143.195654 19.72689
L 143.191292 16.940059
L 143.195744 14.153228
L 143.204633 11.366396
L 143.211301 8.579565
L 143.214125 5.792734
L 143.214863 3.005902
L 143.214986 0.219071
L 143.214999 -2.56776
L 143.215 -5.354592
L 143.215 -8.141423
L 143.215 -10.928254
L 143.215 -13.715086
L 143.215 -16.501917
L 143.215 -19.288748
L 143.215 -22.07558
L 143.215 -24.862411
L 143.215 -27.649242
L 143.215 -30.436074
L 143.215 -33.222905
L 143.215 -36.009736
L 143.215 -38.796568
L 143.215 -41.583399
L 143.215 -44.37023
L 143.215 -47.157062
L 143.215 -49.943893
L 143.215 -52.730724
L 143.215 -55.517556
L 143.215 -58.304387
L 143.215 -61.091218
L 143.215 -63.87805
L 143.215 -66.664881
L 143.215 -69.451712
L 143.215 -72.238544
L 143.215 -75.025375
L 143.215 -77.812206
L 143.215 -80.599038
L 143.215 -83.385869
L 143.215 -86.1727
L 143.214999 -88.959532
L 143.214986 -91.746363
L 143.214861 -94.533194
L 143.214117 -97.320026
L 143.211275 -100.106857
L 143.204585 -102.893688
L 143.195699 -105.68052
L 143.191292 -108.467351
L 143.238708 -108.467351
L 143.238708 -108.467351
L 143.234301 -105.68052
L 143.225415 -102.893688
L 143.218725 -100.106857
L 143.215883 -97.320026
L 143.215139 -94.533194
L 143.215014 -91.746363
L 143.215001 -88.959532
L 143.215 -86.1727
L 143.215 -83.385869
L 143.215 -80.599038
L 143.215 -77.812206
L 143.215 -75.025375
L 143.215 -72.238544
L 143.215 -69.451712
L 143.215 -66.664881
L 143.215 -63.87805
L 143.215 -61.091218
L 143.215 -58.304387
L 143.215 -55.517556
L 143.215 -52.730724
L 143.215 -49.943893
L 143.215 -47.157062
L 143.215 -44.37023
L 143.215 -41.583399
L 143.215 -38.796568
L 143.215 -36.009736
L 143.215 -33.222905
L 143.215 -30.436074
L 143.215 -27.649242
L 143.215 -24.862411
L 143.215 -22.07558
L 143.215 -19.288748
L 143.215 -16.501917
L 143.215 -13.715086
L 143.215 -10.928254
L 143.215 -8.141423
L 143.215 -5.354592
L 143.215001 -2.56776
L 143.215014 0.219071
L 143.215137 3.005902
L 143.215875 5.792734
L 143.218699 8.579565
L 143.225367 11.366396
L 143.234256 14.153228
L 143.238708 16.940059
L 143.234346 19.72689
L 143.225464 22.513722
L 143.218751 25.300553
L 143.215891 28.087384
L 143.21514 30.874216
L 143.215015 33.661047
L 143.215002 36.447878
L 143.215014 39.23471
L 143.215132 42.021541
L 143.215856 44.808372
L 143.218695 47.595204
L 143.225778 50.382035
L 143.236784 53.168866
L 143.247026 55.955698
L 143.25163 58.742529
L 143.249021 61.52936
L 143.240066 64.316192
L 143.229105 67.103023
L 143.222619 69.889854
L 143.224298 72.676686
L 143.233019 75.463517
L 143.243348 78.250348
L 143.249596 81.03718
L 143.250259 83.824011
L 143.246717 86.610842
L 143.243851 89.397674
L 143.250827 92.184505
L 143.272868 94.971336
L 143.305124 97.758168
L 143.335617 100.544999
L 143.351921 103.33183
L 143.351412 106.118662
L 143.346498 108.905493
L 143.353983 111.692324
L 143.380639 114.479156
L 143.419796 117.265987
L 143.449638 120.052818
L 143.443599 122.83965
L 143.420923 125.626481
L 143.524979 128.413312
L 144.179631 131.200144
L 146.202325 133.986975
L 149.980976 136.773806
L 153.770217 139.560638
L 154.487727 142.347469
L 151.612468 145.1343
L 147.831354 147.921132
L 145.367174 150.707963
L 144.314959 153.494794
L 143.970438 156.281626
L 143.901218 159.068457
L 143.997351 161.855288
L 144.176477 164.64212
L 144.215316 167.428951
z
" style="fill:#d43f3a;fill-opacity:0.8;stroke:#000000;stroke-opacity:0.8;stroke-width:0.5;"/>
   </g>
   <g id="PolyCollection_9">
    <path clip-path="url(#p93132ca8d2)" d="M 191.076902 167.428951
L 185.534916 167.428951
L 185.138985 164.665878
L 184.682485 161.902805
L 183.904326 159.139732
L 182.583698 156.376659
L 180.74403 153.613585
L 178.77467 150.850512
L 177.334864 148.087439
L 177.033182 145.324366
L 178.072212 142.561293
L 180.122822 139.79822
L 182.526588 137.035147
L 184.659784 134.272074
L 186.191439 131.509001
L 187.10698 128.745927
L 187.570357 125.982854
L 187.772282 123.219781
L 187.850689 120.456708
L 187.881525 117.693635
L 187.899876 114.930562
L 187.920484 112.167489
L 187.948327 109.404416
L 187.982704 106.641342
L 188.019887 103.878269
L 188.055814 101.115196
L 188.087733 98.352123
L 188.114149 95.58905
L 188.134045 92.825977
L 188.146736 90.062904
L 188.152594 87.299831
L 188.153727 84.536757
L 188.153625 81.773684
L 188.155792 79.010611
L 188.16238 76.247538
L 188.173757 73.484465
L 188.189012 70.721392
L 188.206627 67.958319
L 188.224723 65.195246
L 188.241194 62.432173
L 188.254254 59.669099
L 188.2633 56.906026
L 188.269259 54.142953
L 188.273828 51.37988
L 188.278093 48.616807
L 188.281679 45.853734
L 188.283093 43.090661
L 188.280825 40.327588
L 188.27426 37.564514
L 188.263842 34.801441
L 188.250767 32.038368
L 188.236834 29.275295
L 188.224477 26.512222
L 188.216339 23.749149
L 188.213966 20.986076
L 188.216467 18.223003
L 188.220668 15.45993
L 188.223099 12.696856
L 188.222287 9.933783
L 188.219512 7.17071
L 188.217721 4.407637
L 188.219779 1.644564
L 188.22723 -1.118509
L 188.23979 -3.881582
L 188.255475 -6.644655
L 188.271355 -9.407729
L 188.284704 -12.170802
L 188.293928 -14.933875
L 188.298695 -17.696948
L 188.299413 -20.460021
L 188.296661 -23.223094
L 188.291034 -25.986167
L 188.283316 -28.74924
L 188.274546 -31.512313
L 188.265793 -34.275387
L 188.25792 -37.03846
L 188.251702 -39.801533
L 188.248174 -42.564606
L 188.248584 -45.327679
L 188.253685 -48.090752
L 188.262902 -50.853825
L 188.274261 -53.616898
L 188.285262 -56.379972
L 188.294031 -59.143045
L 188.299904 -61.906118
L 188.303248 -64.669191
L 188.304877 -67.432264
L 188.305559 -70.195337
L 188.305805 -72.95841
L 188.305878 -75.721483
L 188.305882 -78.484556
L 188.305825 -81.24763
L 188.305633 -84.010703
L 188.305111 -86.773776
L 188.303907 -89.536849
L 188.301549 -92.299922
L 188.297665 -95.062995
L 188.292379 -97.826068
L 188.286634 -100.589141
L 188.282074 -103.352215
L 188.280326 -106.115288
L 188.331492 -106.115288
L 188.331492 -106.115288
L 188.329744 -103.352215
L 188.325184 -100.589141
L 188.319439 -97.826068
L 188.314153 -95.062995
L 188.310269 -92.299922
L 188.307911 -89.536849
L 188.306707 -86.773776
L 188.306185 -84.010703
L 188.305993 -81.24763
L 188.305937 -78.484556
L 188.305941 -75.721483
L 188.306014 -72.95841
L 188.306259 -70.195337
L 188.306941 -67.432264
L 188.30857 -64.669191
L 188.311914 -61.906118
L 188.317787 -59.143045
L 188.326556 -56.379972
L 188.337557 -53.616898
L 188.348916 -50.853825
L 188.358133 -48.090752
L 188.363234 -45.327679
L 188.363644 -42.564606
L 188.360116 -39.801533
L 188.353899 -37.03846
L 188.346026 -34.275387
L 188.337272 -31.512313
L 188.328502 -28.74924
L 188.320784 -25.986167
L 188.315157 -23.223094
L 188.312405 -20.460021
L 188.313123 -17.696948
L 188.31789 -14.933875
L 188.327114 -12.170802
L 188.340463 -9.407729
L 188.356343 -6.644655
L 188.372028 -3.881582
L 188.384588 -1.118509
L 188.392039 1.644564
L 188.394097 4.407637
L 188.392306 7.17071
L 188.389532 9.933783
L 188.388719 12.696856
L 188.39115 15.45993
L 188.395352 18.223003
L 188.397852 20.986076
L 188.395479 23.749149
L 188.387342 26.512222
L 188.374984 29.275295
L 188.361051 32.038368
L 188.347976 34.801441
L 188.337558 37.564514
L 188.330993 40.327588
L 188.328725 43.090661
L 188.330139 45.853734
L 188.333725 48.616807
L 188.33799 51.37988
L 188.342559 54.142953
L 188.348519 56.906026
L 188.357564 59.669099
L 188.370624 62.432173
L 188.387096 65.195246
L 188.405192 67.958319
L 188.422806 70.721392
L 188.438062 73.484465
L 188.449438 76.247538
L 188.456026 79.010611
L 188.458193 81.773684
L 188.458091 84.536757
L 188.459224 87.299831
L 188.465083 90.062904
L 188.477773 92.825977
L 188.497669 95.58905
L 188.524085 98.352123
L 188.556004 101.115196
L 188.591931 103.878269
L 188.629114 106.641342
L 188.663491 109.404416
L 188.691334 112.167489
L 188.711942 114.930562
L 188.730293 117.693635
L 188.761129 120.456708
L 188.839537 123.219781
L 189.041461 125.982854
L 189.504839 128.745927
L 190.420379 131.509001
L 191.952035 134.272074
L 194.08523 137.035147
L 196.488996 139.79822
L 198.539606 142.561293
L 199.578636 145.324366
L 199.276954 148.087439
L 197.837148 150.850512
L 195.867788 153.613585
L 194.02812 156.376659
L 192.707492 159.139732
L 191.929333 161.902805
L 191.472833 164.665878
L 191.076902 167.428951
z
" style="fill:#d43f3a;fill-opacity:0.8;stroke:#000000;stroke-opacity:0.8;stroke-width:0.5;"/>
   </g>
   <g id="PolyCollection_10">
    <path clip-path="url(#p93132ca8d2)" d="M 236.14353 167.428951
L 230.650107 167.428951
L 230.478453 164.240763
L 230.435745 161.052576
L 230.264971 157.864388
L 229.63733 154.6762
L 228.315431 151.488013
L 226.345677 148.299825
L 224.172696 145.111637
L 222.536709 141.92345
L 222.124091 138.735262
L 223.167696 135.547074
L 225.303036 132.358887
L 227.802502 129.170699
L 229.991569 125.982512
L 231.531899 122.794324
L 232.430634 119.606136
L 232.87496 116.417949
L 233.066167 113.229761
L 233.14237 110.041573
L 233.176232 106.853386
L 233.199378 103.665198
L 233.223059 100.47701
L 233.249031 97.288823
L 233.274692 94.100635
L 233.296094 90.912447
L 233.310023 87.72426
L 233.315267 84.536072
L 233.313077 81.347884
L 233.306799 78.159697
L 233.300691 74.971509
L 233.298339 71.783321
L 233.301513 68.595134
L 233.310034 65.406946
L 233.322488 62.218758
L 233.33705 59.030571
L 233.351913 55.842383
L 233.365359 52.654195
L 233.375836 49.466008
L 233.382213 46.27782
L 233.384104 43.089632
L 233.382116 39.901445
L 233.377879 36.713257
L 233.373701 33.525069
L 233.371736 30.336882
L 233.372988 27.148694
L 233.376789 23.960507
L 233.381186 20.772319
L 233.383996 17.584131
L 233.383861 14.395944
L 233.38084 11.207756
L 233.376373 8.019568
L 233.372617 4.831381
L 233.371317 1.643193
L 233.372727 -1.544995
L 233.375281 -4.733182
L 233.376291 -7.92137
L 233.373254 -11.109558
L 233.365 -14.297745
L 233.352103 -17.485933
L 233.336484 -20.674121
L 233.32066 -23.862308
L 233.307249 -27.050496
L 233.298914 -30.238684
L 233.298125 -33.426871
L 233.306149 -36.615059
L 233.321759 -39.803247
L 233.341048 -42.991434
L 233.358944 -46.179622
L 233.371455 -49.36781
L 233.377138 -52.555997
L 233.377161 -55.744185
L 233.374367 -58.932373
L 233.371943 -62.12056
L 233.372122 -65.308748
L 233.375415 -68.496936
L 233.380745 -71.685123
L 233.386369 -74.873311
L 233.390892 -78.061499
L 233.39372 -81.249686
L 233.394852 -84.437874
L 233.394403 -87.626061
L 233.392319 -90.814249
L 233.388494 -94.002437
L 233.383217 -97.190624
L 233.377554 -100.378812
L 233.373214 -103.567
L 233.371751 -106.755187
L 233.373559 -109.943375
L 233.377471 -113.131563
L 233.381298 -116.31975
L 233.38296 -119.507938
L 233.381483 -122.696126
L 233.377371 -125.884313
L 233.37223 -129.072501
L 233.367818 -132.260689
L 233.365091 -135.448876
L 233.36394 -138.637064
L 233.363834 -141.825252
L 233.364702 -145.013439
L 233.367083 -148.201627
L 233.426554 -148.201627
L 233.426554 -148.201627
L 233.428934 -145.013439
L 233.429802 -141.825252
L 233.429697 -138.637064
L 233.428545 -135.448876
L 233.425818 -132.260689
L 233.421406 -129.072501
L 233.416265 -125.884313
L 233.412154 -122.696126
L 233.410676 -119.507938
L 233.412338 -116.31975
L 233.416166 -113.131563
L 233.420078 -109.943375
L 233.421886 -106.755187
L 233.420422 -103.567
L 233.416083 -100.378812
L 233.410419 -97.190624
L 233.405142 -94.002437
L 233.401317 -90.814249
L 233.399233 -87.626061
L 233.398784 -84.437874
L 233.399916 -81.249686
L 233.402744 -78.061499
L 233.407267 -74.873311
L 233.412891 -71.685123
L 233.418221 -68.496936
L 233.421515 -65.308748
L 233.421694 -62.12056
L 233.419269 -58.932373
L 233.416476 -55.744185
L 233.416498 -52.555997
L 233.422181 -49.36781
L 233.434693 -46.179622
L 233.452588 -42.991434
L 233.471877 -39.803247
L 233.487488 -36.615059
L 233.495511 -33.426871
L 233.494723 -30.238684
L 233.486387 -27.050496
L 233.472976 -23.862308
L 233.457152 -20.674121
L 233.441534 -17.485933
L 233.428636 -14.297745
L 233.420382 -11.109558
L 233.417345 -7.92137
L 233.418355 -4.733182
L 233.420909 -1.544995
L 233.42232 1.643193
L 233.421019 4.831381
L 233.417263 8.019568
L 233.412796 11.207756
L 233.409775 14.395944
L 233.40964 17.584131
L 233.41245 20.772319
L 233.416848 23.960507
L 233.420648 27.148694
L 233.4219 30.336882
L 233.419935 33.525069
L 233.415757 36.713257
L 233.411521 39.901445
L 233.409532 43.089632
L 233.411423 46.27782
L 233.4178 49.466008
L 233.428278 52.654195
L 233.441724 55.842383
L 233.456586 59.030571
L 233.471148 62.218758
L 233.483602 65.406946
L 233.492123 68.595134
L 233.495297 71.783321
L 233.492946 74.971509
L 233.486837 78.159697
L 233.48056 81.347884
L 233.47837 84.536072
L 233.483614 87.72426
L 233.497543 90.912447
L 233.518944 94.100635
L 233.544605 97.288823
L 233.570577 100.47701
L 233.594258 103.665198
L 233.617404 106.853386
L 233.651266 110.041573
L 233.727469 113.229761
L 233.918676 116.417949
L 234.363003 119.606136
L 235.261738 122.794324
L 236.802067 125.982512
L 238.991134 129.170699
L 241.490601 132.358887
L 243.62594 135.547074
L 244.669545 138.735262
L 244.256927 141.92345
L 242.62094 145.111637
L 240.44796 148.299825
L 238.478205 151.488013
L 237.156306 154.6762
L 236.528666 157.864388
L 236.357891 161.052576
L 236.315184 164.240763
L 236.14353 167.428951
z
" style="fill:#d43f3a;fill-opacity:0.8;stroke:#000000;stroke-opacity:0.8;stroke-width:0.5;"/>
   </g>
   <g id="matplotlib.axis_3">
    <g id="xtick_6">
     <g id="line2d_12">
      <g>
       <use style="stroke:#000000;stroke-width:0.8;" x="53.033182" xlink:href="#m85f1e4d94f" y="170.28"/>
      </g>
     </g>
     <g id="text_8">
      <!-- Chrom -->
      <g transform="translate(46.420057 180.319375)scale(0.04 -0.04)">
       <defs>
        <path d="M 54.890625 33.015625
L 54.890625 0
L 45.90625 0
L 45.90625 32.71875
Q 45.90625 40.484375 42.875 44.328125
Q 39.84375 48.1875 33.796875 48.1875
Q 26.515625 48.1875 22.3125 43.546875
Q 18.109375 38.921875 18.109375 30.90625
L 18.109375 0
L 9.078125 0
L 9.078125 75.984375
L 18.109375 75.984375
L 18.109375 46.1875
Q 21.34375 51.125 25.703125 53.5625
Q 30.078125 56 35.796875 56
Q 45.21875 56 50.046875 50.171875
Q 54.890625 44.34375 54.890625 33.015625
z
" id="DejaVuSans-104"/>
       </defs>
       <use xlink:href="#DejaVuSans-67"/>
       <use x="69.824219" xlink:href="#DejaVuSans-104"/>
       <use x="133.203125" xlink:href="#DejaVuSans-114"/>
       <use x="172.066406" xlink:href="#DejaVuSans-111"/>
       <use x="233.248047" xlink:href="#DejaVuSans-109"/>
      </g>
     </g>
    </g>
    <g id="xtick_7">
     <g id="line2d_13">
      <g>
       <use style="stroke:#000000;stroke-width:0.8;" x="98.124091" xlink:href="#m85f1e4d94f" y="170.28"/>
      </g>
     </g>
     <g id="text_9">
      <!-- pCD1 -->
      <g transform="translate(92.645341 180.319375)scale(0.04 -0.04)">
       <defs>
        <path d="M 18.109375 8.203125
L 18.109375 -20.796875
L 9.078125 -20.796875
L 9.078125 54.6875
L 18.109375 54.6875
L 18.109375 46.390625
Q 20.953125 51.265625 25.265625 53.625
Q 29.59375 56 35.59375 56
Q 45.5625 56 51.78125 48.09375
Q 58.015625 40.1875 58.015625 27.296875
Q 58.015625 14.40625 51.78125 6.484375
Q 45.5625 -1.421875 35.59375 -1.421875
Q 29.59375 -1.421875 25.265625 0.953125
Q 20.953125 3.328125 18.109375 8.203125
z
M 48.6875 27.296875
Q 48.6875 37.203125 44.609375 42.84375
Q 40.53125 48.484375 33.40625 48.484375
Q 26.265625 48.484375 22.1875 42.84375
Q 18.109375 37.203125 18.109375 27.296875
Q 18.109375 17.390625 22.1875 11.75
Q 26.265625 6.109375 33.40625 6.109375
Q 40.53125 6.109375 44.609375 11.75
Q 48.6875 17.390625 48.6875 27.296875
z
" id="DejaVuSans-112"/>
        <path d="M 19.671875 64.796875
L 19.671875 8.109375
L 31.59375 8.109375
Q 46.6875 8.109375 53.6875 14.9375
Q 60.6875 21.78125 60.6875 36.53125
Q 60.6875 51.171875 53.6875 57.984375
Q 46.6875 64.796875 31.59375 64.796875
z
M 9.8125 72.90625
L 30.078125 72.90625
Q 51.265625 72.90625 61.171875 64.09375
Q 71.09375 55.28125 71.09375 36.53125
Q 71.09375 17.671875 61.125 8.828125
Q 51.171875 0 30.078125 0
L 9.8125 0
z
" id="DejaVuSans-68"/>
       </defs>
       <use xlink:href="#DejaVuSans-112"/>
       <use x="63.476562" xlink:href="#DejaVuSans-67"/>
       <use x="133.300781" xlink:href="#DejaVuSans-68"/>
       <use x="210.302734" xlink:href="#DejaVuSans-49"/>
      </g>
     </g>
    </g>
    <g id="xtick_8">
     <g id="line2d_14">
      <g>
       <use style="stroke:#000000;stroke-width:0.8;" x="143.215" xlink:href="#m85f1e4d94f" y="170.28"/>
      </g>
     </g>
     <g id="text_10">
      <!-- pMT1 -->
      <g transform="translate(137.725625 180.319375)scale(0.04 -0.04)">
       <defs>
        <path d="M 9.8125 72.90625
L 24.515625 72.90625
L 43.109375 23.296875
L 61.8125 72.90625
L 76.515625 72.90625
L 76.515625 0
L 66.890625 0
L 66.890625 64.015625
L 48.09375 14.015625
L 38.1875 14.015625
L 19.390625 64.015625
L 19.390625 0
L 9.8125 0
z
" id="DejaVuSans-77"/>
        <path d="M -0.296875 72.90625
L 61.375 72.90625
L 61.375 64.59375
L 35.5 64.59375
L 35.5 0
L 25.59375 0
L 25.59375 64.59375
L -0.296875 64.59375
z
" id="DejaVuSans-84"/>
       </defs>
       <use xlink:href="#DejaVuSans-112"/>
       <use x="63.476562" xlink:href="#DejaVuSans-77"/>
       <use x="149.755859" xlink:href="#DejaVuSans-84"/>
       <use x="210.839844" xlink:href="#DejaVuSans-49"/>
      </g>
     </g>
    </g>
    <g id="xtick_9">
     <g id="line2d_15">
      <g>
       <use style="stroke:#000000;stroke-width:0.8;" x="188.305909" xlink:href="#m85f1e4d94f" y="170.28"/>
      </g>
     </g>
     <g id="text_11">
      <!-- pPCP1 -->
      <g transform="translate(181.955284 180.319375)scale(0.04 -0.04)">
       <defs>
        <path d="M 19.671875 64.796875
L 19.671875 37.40625
L 32.078125 37.40625
Q 38.96875 37.40625 42.71875 40.96875
Q 46.484375 44.53125 46.484375 51.125
Q 46.484375 57.671875 42.71875 61.234375
Q 38.96875 64.796875 32.078125 64.796875
z
M 9.8125 72.90625
L 32.078125 72.90625
Q 44.34375 72.90625 50.609375 67.359375
Q 56.890625 61.8125 56.890625 51.125
Q 56.890625 40.328125 50.609375 34.8125
Q 44.34375 29.296875 32.078125 29.296875
L 19.671875 29.296875
L 19.671875 0
L 9.8125 0
z
" id="DejaVuSans-80"/>
       </defs>
       <use xlink:href="#DejaVuSans-112"/>
       <use x="63.476562" xlink:href="#DejaVuSans-80"/>
       <use x="123.779297" xlink:href="#DejaVuSans-67"/>
       <use x="193.603516" xlink:href="#DejaVuSans-80"/>
       <use x="253.90625" xlink:href="#DejaVuSans-49"/>
      </g>
     </g>
    </g>
    <g id="xtick_10">
     <g id="line2d_16">
      <g>
       <use style="stroke:#000000;stroke-width:0.8;" x="233.396818" xlink:href="#m85f1e4d94f" y="170.28"/>
      </g>
     </g>
     <g id="text_12">
      <!-- pla -->
      <g transform="translate(230.345881 180.319375)scale(0.04 -0.04)">
       <defs>
        <path d="M 9.421875 75.984375
L 18.40625 75.984375
L 18.40625 0
L 9.421875 0
z
" id="DejaVuSans-108"/>
       </defs>
       <use xlink:href="#DejaVuSans-112"/>
       <use x="63.476562" xlink:href="#DejaVuSans-108"/>
       <use x="91.259766" xlink:href="#DejaVuSans-97"/>
      </g>
     </g>
    </g>
   </g>
   <g id="matplotlib.axis_4">
    <g id="ytick_7">
     <g id="line2d_17">
      <g>
       <use style="stroke:#000000;stroke-width:0.8;" x="31.615" xlink:href="#m7bcffd8447" y="167.428951"/>
      </g>
     </g>
     <g id="text_13">
      <!-- 0 -->
      <g transform="translate(21.43375 169.32856)scale(0.05 -0.05)">
       <use xlink:href="#DejaVuSans-48"/>
      </g>
     </g>
    </g>
    <g id="ytick_8">
     <g id="line2d_18">
      <g>
       <use style="stroke:#000000;stroke-width:0.8;" x="31.615" xlink:href="#m7bcffd8447" y="153.173706"/>
      </g>
     </g>
     <g id="text_14">
      <!-- 10 -->
      <g transform="translate(18.2525 155.073316)scale(0.05 -0.05)">
       <use xlink:href="#DejaVuSans-49"/>
       <use x="63.623047" xlink:href="#DejaVuSans-48"/>
      </g>
     </g>
    </g>
    <g id="ytick_9">
     <g id="line2d_19">
      <g>
       <use style="stroke:#000000;stroke-width:0.8;" x="31.615" xlink:href="#m7bcffd8447" y="138.918462"/>
      </g>
     </g>
     <g id="text_15">
      <!-- 20 -->
      <g transform="translate(18.2525 140.818071)scale(0.05 -0.05)">
       <use xlink:href="#DejaVuSans-50"/>
       <use x="63.623047" xlink:href="#DejaVuSans-48"/>
      </g>
     </g>
    </g>
    <g id="ytick_10">
     <g id="line2d_20">
      <g>
       <use style="stroke:#000000;stroke-width:0.8;" x="31.615" xlink:href="#m7bcffd8447" y="124.663217"/>
      </g>
     </g>
     <g id="text_16">
      <!-- 30 -->
      <g transform="translate(18.2525 126.562826)scale(0.05 -0.05)">
       <defs>
        <path d="M 40.578125 39.3125
Q 47.65625 37.796875 51.625 33
Q 55.609375 28.21875 55.609375 21.1875
Q 55.609375 10.40625 48.1875 4.484375
Q 40.765625 -1.421875 27.09375 -1.421875
Q 22.515625 -1.421875 17.65625 -0.515625
Q 12.796875 0.390625 7.625 2.203125
L 7.625 11.71875
Q 11.71875 9.328125 16.59375 8.109375
Q 21.484375 6.890625 26.8125 6.890625
Q 36.078125 6.890625 40.9375 10.546875
Q 45.796875 14.203125 45.796875 21.1875
Q 45.796875 27.640625 41.28125 31.265625
Q 36.765625 34.90625 28.71875 34.90625
L 20.21875 34.90625
L 20.21875 43.015625
L 29.109375 43.015625
Q 36.375 43.015625 40.234375 45.921875
Q 44.09375 48.828125 44.09375 54.296875
Q 44.09375 59.90625 40.109375 62.90625
Q 36.140625 65.921875 28.71875 65.921875
Q 24.65625 65.921875 20.015625 65.03125
Q 15.375 64.15625 9.8125 62.3125
L 9.8125 71.09375
Q 15.4375 72.65625 20.34375 73.4375
Q 25.25 74.21875 29.59375 74.21875
Q 40.828125 74.21875 47.359375 69.109375
Q 53.90625 64.015625 53.90625 55.328125
Q 53.90625 49.265625 50.4375 45.09375
Q 46.96875 40.921875 40.578125 39.3125
z
" id="DejaVuSans-51"/>
       </defs>
       <use xlink:href="#DejaVuSans-51"/>
       <use x="63.623047" xlink:href="#DejaVuSans-48"/>
      </g>
     </g>
    </g>
    <g id="ytick_11">
     <g id="line2d_21">
      <g>
       <use style="stroke:#000000;stroke-width:0.8;" x="31.615" xlink:href="#m7bcffd8447" y="110.407972"/>
      </g>
     </g>
     <g id="text_17">
      <!-- 40 -->
      <g transform="translate(18.2525 112.307581)scale(0.05 -0.05)">
       <use xlink:href="#DejaVuSans-52"/>
       <use x="63.623047" xlink:href="#DejaVuSans-48"/>
      </g>
     </g>
    </g>
    <g id="ytick_12">
     <g id="line2d_22">
      <g>
       <use style="stroke:#000000;stroke-width:0.8;" x="31.615" xlink:href="#m7bcffd8447" y="96.152727"/>
      </g>
     </g>
     <g id="text_18">
      <!-- 50 -->
      <g transform="translate(18.2525 98.052337)scale(0.05 -0.05)">
       <defs>
        <path d="M 10.796875 72.90625
L 49.515625 72.90625
L 49.515625 64.59375
L 19.828125 64.59375
L 19.828125 46.734375
Q 21.96875 47.46875 24.109375 47.828125
Q 26.265625 48.1875 28.421875 48.1875
Q 40.625 48.1875 47.75 41.5
Q 54.890625 34.8125 54.890625 23.390625
Q 54.890625 11.625 47.5625 5.09375
Q 40.234375 -1.421875 26.90625 -1.421875
Q 22.3125 -1.421875 17.546875 -0.640625
Q 12.796875 0.140625 7.71875 1.703125
L 7.71875 11.625
Q 12.109375 9.234375 16.796875 8.0625
Q 21.484375 6.890625 26.703125 6.890625
Q 35.15625 6.890625 40.078125 11.328125
Q 45.015625 15.765625 45.015625 23.390625
Q 45.015625 31 40.078125 35.4375
Q 35.15625 39.890625 26.703125 39.890625
Q 22.75 39.890625 18.8125 39.015625
Q 14.890625 38.140625 10.796875 36.28125
z
" id="DejaVuSans-53"/>
       </defs>
       <use xlink:href="#DejaVuSans-53"/>
       <use x="63.623047" xlink:href="#DejaVuSans-48"/>
      </g>
     </g>
    </g>
    <g id="text_19">
     <!-- Genomic Depth (X) -->
     <g transform="translate(13.420625 152.385114)rotate(-90)scale(0.04 -0.04)">
      <defs>
       <path d="M 18.3125 70.21875
L 18.3125 54.6875
L 36.8125 54.6875
L 36.8125 47.703125
L 18.3125 47.703125
L 18.3125 18.015625
Q 18.3125 11.328125 20.140625 9.421875
Q 21.96875 7.515625 27.59375 7.515625
L 36.8125 7.515625
L 36.8125 0
L 27.59375 0
Q 17.1875 0 13.234375 3.875
Q 9.28125 7.765625 9.28125 18.015625
L 9.28125 47.703125
L 2.6875 47.703125
L 2.6875 54.6875
L 9.28125 54.6875
L 9.28125 70.21875
z
" id="DejaVuSans-116"/>
       <path d="M 6.296875 72.90625
L 16.890625 72.90625
L 35.015625 45.796875
L 53.21875 72.90625
L 63.8125 72.90625
L 40.375 37.890625
L 65.375 0
L 54.78125 0
L 34.28125 31
L 13.625 0
L 2.984375 0
L 29 38.921875
z
" id="DejaVuSans-88"/>
      </defs>
      <use xlink:href="#DejaVuSans-71"/>
      <use x="77.490234" xlink:href="#DejaVuSans-101"/>
      <use x="139.013672" xlink:href="#DejaVuSans-110"/>
      <use x="202.392578" xlink:href="#DejaVuSans-111"/>
      <use x="263.574219" xlink:href="#DejaVuSans-109"/>
      <use x="360.986328" xlink:href="#DejaVuSans-105"/>
      <use x="388.769531" xlink:href="#DejaVuSans-99"/>
      <use x="443.75" xlink:href="#DejaVuSans-32"/>
      <use x="475.537109" xlink:href="#DejaVuSans-68"/>
      <use x="552.539062" xlink:href="#DejaVuSans-101"/>
      <use x="614.0625" xlink:href="#DejaVuSans-112"/>
      <use x="677.539062" xlink:href="#DejaVuSans-116"/>
      <use x="716.748047" xlink:href="#DejaVuSans-104"/>
      <use x="780.126953" xlink:href="#DejaVuSans-32"/>
      <use x="811.914062" xlink:href="#DejaVuSans-40"/>
      <use x="850.927734" xlink:href="#DejaVuSans-88"/>
      <use x="919.433594" xlink:href="#DejaVuSans-41"/>
     </g>
    </g>
   </g>
   <g id="patch_8">
    <path d="M 31.615 170.28
L 31.615 96.152727
" style="fill:none;stroke:#000000;stroke-linecap:square;stroke-linejoin:miter;stroke-width:0.8;"/>
   </g>
   <g id="patch_9">
    <path d="M 254.815 170.28
L 254.815 96.152727
" style="fill:none;stroke:#000000;stroke-linecap:square;stroke-linejoin:miter;stroke-width:0.8;"/>
   </g>
   <g id="patch_10">
    <path d="M 31.615 170.28
L 254.815 170.28
" style="fill:none;stroke:#000000;stroke-linecap:square;stroke-linejoin:miter;stroke-width:0.8;"/>
   </g>
   <g id="patch_11">
    <path d="M 31.615 96.152727
L 254.815 96.152727
" style="fill:none;stroke:#000000;stroke-linecap:square;stroke-linejoin:miter;stroke-width:0.8;"/>
   </g>
  </g>
 </g>
 <defs>
  <clipPath id="pa6ef610e58">
   <rect height="74.127273" width="223.2" x="31.615" y="7.2"/>
  </clipPath>
  <clipPath id="p93132ca8d2">
   <rect height="74.127273" width="223.2" x="31.615" y="96.152727"/>
  </clipPath>
 </defs>
</svg>
