<?xml version="1.0" encoding="utf-8" standalone="no"?>
<!DOCTYPE svg PUBLIC "-//W3C//DTD SVG 1.1//EN"
  "http://www.w3.org/Graphics/SVG/1.1/DTD/svg11.dtd">
<!-- Created with matplotlib (https://matplotlib.org/) -->
<svg height="353.99952pt" version="1.1" viewBox="0 0 469.19952 353.99952" width="469.19952pt" xmlns="http://www.w3.org/2000/svg" xmlns:xlink="http://www.w3.org/1999/xlink">
 <metadata>
  <rdf:RDF xmlns:cc="http://creativecommons.org/ns#" xmlns:dc="http://purl.org/dc/elements/1.1/" xmlns:rdf="http://www.w3.org/1999/02/22-rdf-syntax-ns#">
   <cc:Work>
    <dc:type rdf:resource="http://purl.org/dc/dcmitype/StillImage"/>
    <dc:date>2021-01-29T15:10:58.091587</dc:date>
    <dc:format>image/svg+xml</dc:format>
    <dc:creator>
     <cc:Agent>
      <dc:title>Matplotlib v3.3.2, https://matplotlib.org/</dc:title>
     </cc:Agent>
    </dc:creator>
   </cc:Work>
  </rdf:RDF>
 </metadata>
 <defs>
  <style type="text/css">*{stroke-linecap:butt;stroke-linejoin:round;}</style>
 </defs>
 <g id="figure_1">
  <g id="patch_1">
   <path d="M 0 353.99952
L 469.19952 353.99952
L 469.19952 0
L 0 0
z
" style="fill:none;"/>
  </g>
  <g id="axes_1">
   <g id="patch_2">
    <path d="M 35.48625 161.14075
L 461.99952 161.14075
L 461.99952 42.477522
L 35.48625 42.477522
z
" style="fill:#ffffff;"/>
   </g>
   <g id="patch_3">
    <path clip-path="url(#p48779ce3e3)" d="M 61.077046 161.14075
L 95.198108 161.14075
L 95.198108 48.128152
L 61.077046 48.128152
z
" style="fill:#3274a1;stroke:#000000;stroke-linejoin:miter;"/>
   </g>
   <g id="patch_4">
    <path clip-path="url(#p48779ce3e3)" d="M 103.728373 161.14075
L 137.849435 161.14075
L 137.849435 92.611834
L 103.728373 92.611834
z
" style="fill:#e1812c;stroke:#000000;stroke-linejoin:miter;"/>
   </g>
   <g id="patch_5">
    <path clip-path="url(#p48779ce3e3)" d="M 146.3797 161.14075
L 180.500762 161.14075
L 180.500762 107.038975
L 146.3797 107.038975
z
" style="fill:#3a923a;stroke:#000000;stroke-linejoin:miter;"/>
   </g>
   <g id="patch_6">
    <path clip-path="url(#p48779ce3e3)" d="M 189.031027 161.14075
L 223.152089 161.14075
L 223.152089 116.055937
L 189.031027 116.055937
z
" style="fill:#c03d3e;stroke:#000000;stroke-linejoin:miter;"/>
   </g>
   <g id="patch_7">
    <path clip-path="url(#p48779ce3e3)" d="M 231.682354 161.14075
L 265.803416 161.14075
L 265.803416 141.904563
L 231.682354 141.904563
z
" style="fill:#9372b2;stroke:#000000;stroke-linejoin:miter;"/>
   </g>
   <g id="patch_8">
    <path clip-path="url(#p48779ce3e3)" d="M 274.333681 161.14075
L 308.454743 161.14075
L 308.454743 153.92718
L 274.333681 153.92718
z
" style="fill:#845b53;stroke:#000000;stroke-linejoin:miter;"/>
   </g>
   <g id="patch_9">
    <path clip-path="url(#p48779ce3e3)" d="M 316.985008 161.14075
L 351.10607 161.14075
L 351.10607 156.932834
L 316.985008 156.932834
z
" style="fill:#d684bd;stroke:#000000;stroke-linejoin:miter;"/>
   </g>
   <g id="patch_10">
    <path clip-path="url(#p48779ce3e3)" d="M 359.636335 161.14075
L 393.757397 161.14075
L 393.757397 159.938488
L 359.636335 159.938488
z
" style="fill:#7f7f7f;stroke:#000000;stroke-linejoin:miter;"/>
   </g>
   <g id="patch_11">
    <path clip-path="url(#p48779ce3e3)" d="M 0 0
z
" style="fill:#a9aa35;stroke:#000000;stroke-linejoin:miter;"/>
   </g>
   <g id="matplotlib.axis_1">
    <g id="xtick_1">
     <g id="line2d_1">
      <defs>
       <path d="M 0 0
L 0 3.5
" id="m5c90c3ac3d" style="stroke:#000000;stroke-width:0.8;"/>
      </defs>
      <g>
       <use style="stroke:#000000;stroke-width:0.8;" x="78.137577" xlink:href="#m5c90c3ac3d" y="161.14075"/>
      </g>
     </g>
    </g>
    <g id="xtick_2">
     <g id="line2d_2">
      <g>
       <use style="stroke:#000000;stroke-width:0.8;" x="120.788904" xlink:href="#m5c90c3ac3d" y="161.14075"/>
      </g>
     </g>
    </g>
    <g id="xtick_3">
     <g id="line2d_3">
      <g>
       <use style="stroke:#000000;stroke-width:0.8;" x="163.440231" xlink:href="#m5c90c3ac3d" y="161.14075"/>
      </g>
     </g>
    </g>
    <g id="xtick_4">
     <g id="line2d_4">
      <g>
       <use style="stroke:#000000;stroke-width:0.8;" x="206.091558" xlink:href="#m5c90c3ac3d" y="161.14075"/>
      </g>
     </g>
    </g>
    <g id="xtick_5">
     <g id="line2d_5">
      <g>
       <use style="stroke:#000000;stroke-width:0.8;" x="248.742885" xlink:href="#m5c90c3ac3d" y="161.14075"/>
      </g>
     </g>
    </g>
    <g id="xtick_6">
     <g id="line2d_6">
      <g>
       <use style="stroke:#000000;stroke-width:0.8;" x="291.394212" xlink:href="#m5c90c3ac3d" y="161.14075"/>
      </g>
     </g>
    </g>
    <g id="xtick_7">
     <g id="line2d_7">
      <g>
       <use style="stroke:#000000;stroke-width:0.8;" x="334.045539" xlink:href="#m5c90c3ac3d" y="161.14075"/>
      </g>
     </g>
    </g>
    <g id="xtick_8">
     <g id="line2d_8">
      <g>
       <use style="stroke:#000000;stroke-width:0.8;" x="376.696866" xlink:href="#m5c90c3ac3d" y="161.14075"/>
      </g>
     </g>
    </g>
    <g id="xtick_9">
     <g id="line2d_9">
      <g>
       <use style="stroke:#000000;stroke-width:0.8;" x="419.348193" xlink:href="#m5c90c3ac3d" y="161.14075"/>
      </g>
     </g>
    </g>
   </g>
   <g id="matplotlib.axis_2">
    <g id="ytick_1">
     <g id="line2d_10">
      <defs>
       <path d="M 0 0
L -3.5 0
" id="mb91bdbd2ff" style="stroke:#000000;stroke-width:0.8;"/>
      </defs>
      <g>
       <use style="stroke:#000000;stroke-width:0.8;" x="35.48625" xlink:href="#mb91bdbd2ff" y="161.14075"/>
      </g>
     </g>
     <g id="text_1">
      <!-- 0 -->
      <g transform="translate(25.305 163.040359)scale(0.05 -0.05)">
       <defs>
        <path d="M 31.78125 66.40625
Q 24.171875 66.40625 20.328125 58.90625
Q 16.5 51.421875 16.5 36.375
Q 16.5 21.390625 20.328125 13.890625
Q 24.171875 6.390625 31.78125 6.390625
Q 39.453125 6.390625 43.28125 13.890625
Q 47.125 21.390625 47.125 36.375
Q 47.125 51.421875 43.28125 58.90625
Q 39.453125 66.40625 31.78125 66.40625
z
M 31.78125 74.21875
Q 44.046875 74.21875 50.515625 64.515625
Q 56.984375 54.828125 56.984375 36.375
Q 56.984375 17.96875 50.515625 8.265625
Q 44.046875 -1.421875 31.78125 -1.421875
Q 19.53125 -1.421875 13.0625 8.265625
Q 6.59375 17.96875 6.59375 36.375
Q 6.59375 54.828125 13.0625 64.515625
Q 19.53125 74.21875 31.78125 74.21875
z
" id="DejaVuSans-48"/>
       </defs>
       <use xlink:href="#DejaVuSans-48"/>
      </g>
     </g>
    </g>
    <g id="ytick_2">
     <g id="line2d_11">
      <g>
       <use style="stroke:#000000;stroke-width:0.8;" x="35.48625" xlink:href="#mb91bdbd2ff" y="146.112479"/>
      </g>
     </g>
     <g id="text_2">
      <!-- 25 -->
      <g transform="translate(22.12375 148.012088)scale(0.05 -0.05)">
       <defs>
        <path d="M 19.1875 8.296875
L 53.609375 8.296875
L 53.609375 0
L 7.328125 0
L 7.328125 8.296875
Q 12.9375 14.109375 22.625 23.890625
Q 32.328125 33.6875 34.8125 36.53125
Q 39.546875 41.84375 41.421875 45.53125
Q 43.3125 49.21875 43.3125 52.78125
Q 43.3125 58.59375 39.234375 62.25
Q 35.15625 65.921875 28.609375 65.921875
Q 23.96875 65.921875 18.8125 64.3125
Q 13.671875 62.703125 7.8125 59.421875
L 7.8125 69.390625
Q 13.765625 71.78125 18.9375 73
Q 24.125 74.21875 28.421875 74.21875
Q 39.75 74.21875 46.484375 68.546875
Q 53.21875 62.890625 53.21875 53.421875
Q 53.21875 48.921875 51.53125 44.890625
Q 49.859375 40.875 45.40625 35.40625
Q 44.1875 33.984375 37.640625 27.21875
Q 31.109375 20.453125 19.1875 8.296875
z
" id="DejaVuSans-50"/>
        <path d="M 10.796875 72.90625
L 49.515625 72.90625
L 49.515625 64.59375
L 19.828125 64.59375
L 19.828125 46.734375
Q 21.96875 47.46875 24.109375 47.828125
Q 26.265625 48.1875 28.421875 48.1875
Q 40.625 48.1875 47.75 41.5
Q 54.890625 34.8125 54.890625 23.390625
Q 54.890625 11.625 47.5625 5.09375
Q 40.234375 -1.421875 26.90625 -1.421875
Q 22.3125 -1.421875 17.546875 -0.640625
Q 12.796875 0.140625 7.71875 1.703125
L 7.71875 11.625
Q 12.109375 9.234375 16.796875 8.0625
Q 21.484375 6.890625 26.703125 6.890625
Q 35.15625 6.890625 40.078125 11.328125
Q 45.015625 15.765625 45.015625 23.390625
Q 45.015625 31 40.078125 35.4375
Q 35.15625 39.890625 26.703125 39.890625
Q 22.75 39.890625 18.8125 39.015625
Q 14.890625 38.140625 10.796875 36.28125
z
" id="DejaVuSans-53"/>
       </defs>
       <use xlink:href="#DejaVuSans-50"/>
       <use x="63.623047" xlink:href="#DejaVuSans-53"/>
      </g>
     </g>
    </g>
    <g id="ytick_3">
     <g id="line2d_12">
      <g>
       <use style="stroke:#000000;stroke-width:0.8;" x="35.48625" xlink:href="#mb91bdbd2ff" y="131.084208"/>
      </g>
     </g>
     <g id="text_3">
      <!-- 50 -->
      <g transform="translate(22.12375 132.983817)scale(0.05 -0.05)">
       <use xlink:href="#DejaVuSans-53"/>
       <use x="63.623047" xlink:href="#DejaVuSans-48"/>
      </g>
     </g>
    </g>
    <g id="ytick_4">
     <g id="line2d_13">
      <g>
       <use style="stroke:#000000;stroke-width:0.8;" x="35.48625" xlink:href="#mb91bdbd2ff" y="116.055937"/>
      </g>
     </g>
     <g id="text_4">
      <!-- 75 -->
      <g transform="translate(22.12375 117.955546)scale(0.05 -0.05)">
       <defs>
        <path d="M 8.203125 72.90625
L 55.078125 72.90625
L 55.078125 68.703125
L 28.609375 0
L 18.3125 0
L 43.21875 64.59375
L 8.203125 64.59375
z
" id="DejaVuSans-55"/>
       </defs>
       <use xlink:href="#DejaVuSans-55"/>
       <use x="63.623047" xlink:href="#DejaVuSans-53"/>
      </g>
     </g>
    </g>
    <g id="ytick_5">
     <g id="line2d_14">
      <g>
       <use style="stroke:#000000;stroke-width:0.8;" x="35.48625" xlink:href="#mb91bdbd2ff" y="101.027666"/>
      </g>
     </g>
     <g id="text_5">
      <!-- 100 -->
      <g transform="translate(18.9425 102.927276)scale(0.05 -0.05)">
       <defs>
        <path d="M 12.40625 8.296875
L 28.515625 8.296875
L 28.515625 63.921875
L 10.984375 60.40625
L 10.984375 69.390625
L 28.421875 72.90625
L 38.28125 72.90625
L 38.28125 8.296875
L 54.390625 8.296875
L 54.390625 0
L 12.40625 0
z
" id="DejaVuSans-49"/>
       </defs>
       <use xlink:href="#DejaVuSans-49"/>
       <use x="63.623047" xlink:href="#DejaVuSans-48"/>
       <use x="127.246094" xlink:href="#DejaVuSans-48"/>
      </g>
     </g>
    </g>
    <g id="ytick_6">
     <g id="line2d_15">
      <g>
       <use style="stroke:#000000;stroke-width:0.8;" x="35.48625" xlink:href="#mb91bdbd2ff" y="85.999395"/>
      </g>
     </g>
     <g id="text_6">
      <!-- 125 -->
      <g transform="translate(18.9425 87.899005)scale(0.05 -0.05)">
       <use xlink:href="#DejaVuSans-49"/>
       <use x="63.623047" xlink:href="#DejaVuSans-50"/>
       <use x="127.246094" xlink:href="#DejaVuSans-53"/>
      </g>
     </g>
    </g>
    <g id="ytick_7">
     <g id="line2d_16">
      <g>
       <use style="stroke:#000000;stroke-width:0.8;" x="35.48625" xlink:href="#mb91bdbd2ff" y="70.971124"/>
      </g>
     </g>
     <g id="text_7">
      <!-- 150 -->
      <g transform="translate(18.9425 72.870734)scale(0.05 -0.05)">
       <use xlink:href="#DejaVuSans-49"/>
       <use x="63.623047" xlink:href="#DejaVuSans-53"/>
       <use x="127.246094" xlink:href="#DejaVuSans-48"/>
      </g>
     </g>
    </g>
    <g id="ytick_8">
     <g id="line2d_17">
      <g>
       <use style="stroke:#000000;stroke-width:0.8;" x="35.48625" xlink:href="#mb91bdbd2ff" y="55.942853"/>
      </g>
     </g>
     <g id="text_8">
      <!-- 175 -->
      <g transform="translate(18.9425 57.842463)scale(0.05 -0.05)">
       <use xlink:href="#DejaVuSans-49"/>
       <use x="63.623047" xlink:href="#DejaVuSans-55"/>
       <use x="127.246094" xlink:href="#DejaVuSans-53"/>
      </g>
     </g>
    </g>
    <g id="text_9">
     <!-- Number of Samples (Tips) -->
     <g transform="translate(13.27875 153.803511)rotate(-90)scale(0.08 -0.08)">
      <defs>
       <path d="M 9.8125 72.90625
L 23.09375 72.90625
L 55.421875 11.921875
L 55.421875 72.90625
L 64.984375 72.90625
L 64.984375 0
L 51.703125 0
L 19.390625 60.984375
L 19.390625 0
L 9.8125 0
z
" id="DejaVuSans-78"/>
       <path d="M 8.5 21.578125
L 8.5 54.6875
L 17.484375 54.6875
L 17.484375 21.921875
Q 17.484375 14.15625 20.5 10.265625
Q 23.53125 6.390625 29.59375 6.390625
Q 36.859375 6.390625 41.078125 11.03125
Q 45.3125 15.671875 45.3125 23.6875
L 45.3125 54.6875
L 54.296875 54.6875
L 54.296875 0
L 45.3125 0
L 45.3125 8.40625
Q 42.046875 3.421875 37.71875 1
Q 33.40625 -1.421875 27.6875 -1.421875
Q 18.265625 -1.421875 13.375 4.4375
Q 8.5 10.296875 8.5 21.578125
z
M 31.109375 56
z
" id="DejaVuSans-117"/>
       <path d="M 52 44.1875
Q 55.375 50.25 60.0625 53.125
Q 64.75 56 71.09375 56
Q 79.640625 56 84.28125 50.015625
Q 88.921875 44.046875 88.921875 33.015625
L 88.921875 0
L 79.890625 0
L 79.890625 32.71875
Q 79.890625 40.578125 77.09375 44.375
Q 74.3125 48.1875 68.609375 48.1875
Q 61.625 48.1875 57.5625 43.546875
Q 53.515625 38.921875 53.515625 30.90625
L 53.515625 0
L 44.484375 0
L 44.484375 32.71875
Q 44.484375 40.625 41.703125 44.40625
Q 38.921875 48.1875 33.109375 48.1875
Q 26.21875 48.1875 22.15625 43.53125
Q 18.109375 38.875 18.109375 30.90625
L 18.109375 0
L 9.078125 0
L 9.078125 54.6875
L 18.109375 54.6875
L 18.109375 46.1875
Q 21.1875 51.21875 25.484375 53.609375
Q 29.78125 56 35.6875 56
Q 41.65625 56 45.828125 52.96875
Q 50 49.953125 52 44.1875
z
" id="DejaVuSans-109"/>
       <path d="M 48.6875 27.296875
Q 48.6875 37.203125 44.609375 42.84375
Q 40.53125 48.484375 33.40625 48.484375
Q 26.265625 48.484375 22.1875 42.84375
Q 18.109375 37.203125 18.109375 27.296875
Q 18.109375 17.390625 22.1875 11.75
Q 26.265625 6.109375 33.40625 6.109375
Q 40.53125 6.109375 44.609375 11.75
Q 48.6875 17.390625 48.6875 27.296875
z
M 18.109375 46.390625
Q 20.953125 51.265625 25.265625 53.625
Q 29.59375 56 35.59375 56
Q 45.5625 56 51.78125 48.09375
Q 58.015625 40.1875 58.015625 27.296875
Q 58.015625 14.40625 51.78125 6.484375
Q 45.5625 -1.421875 35.59375 -1.421875
Q 29.59375 -1.421875 25.265625 0.953125
Q 20.953125 3.328125 18.109375 8.203125
L 18.109375 0
L 9.078125 0
L 9.078125 75.984375
L 18.109375 75.984375
z
" id="DejaVuSans-98"/>
       <path d="M 56.203125 29.59375
L 56.203125 25.203125
L 14.890625 25.203125
Q 15.484375 15.921875 20.484375 11.0625
Q 25.484375 6.203125 34.421875 6.203125
Q 39.59375 6.203125 44.453125 7.46875
Q 49.3125 8.734375 54.109375 11.28125
L 54.109375 2.78125
Q 49.265625 0.734375 44.1875 -0.34375
Q 39.109375 -1.421875 33.890625 -1.421875
Q 20.796875 -1.421875 13.15625 6.1875
Q 5.515625 13.8125 5.515625 26.8125
Q 5.515625 40.234375 12.765625 48.109375
Q 20.015625 56 32.328125 56
Q 43.359375 56 49.78125 48.890625
Q 56.203125 41.796875 56.203125 29.59375
z
M 47.21875 32.234375
Q 47.125 39.59375 43.09375 43.984375
Q 39.0625 48.390625 32.421875 48.390625
Q 24.90625 48.390625 20.390625 44.140625
Q 15.875 39.890625 15.1875 32.171875
z
" id="DejaVuSans-101"/>
       <path d="M 41.109375 46.296875
Q 39.59375 47.171875 37.8125 47.578125
Q 36.03125 48 33.890625 48
Q 26.265625 48 22.1875 43.046875
Q 18.109375 38.09375 18.109375 28.8125
L 18.109375 0
L 9.078125 0
L 9.078125 54.6875
L 18.109375 54.6875
L 18.109375 46.1875
Q 20.953125 51.171875 25.484375 53.578125
Q 30.03125 56 36.53125 56
Q 37.453125 56 38.578125 55.875
Q 39.703125 55.765625 41.0625 55.515625
z
" id="DejaVuSans-114"/>
       <path id="DejaVuSans-32"/>
       <path d="M 30.609375 48.390625
Q 23.390625 48.390625 19.1875 42.75
Q 14.984375 37.109375 14.984375 27.296875
Q 14.984375 17.484375 19.15625 11.84375
Q 23.34375 6.203125 30.609375 6.203125
Q 37.796875 6.203125 41.984375 11.859375
Q 46.1875 17.53125 46.1875 27.296875
Q 46.1875 37.015625 41.984375 42.703125
Q 37.796875 48.390625 30.609375 48.390625
z
M 30.609375 56
Q 42.328125 56 49.015625 48.375
Q 55.71875 40.765625 55.71875 27.296875
Q 55.71875 13.875 49.015625 6.21875
Q 42.328125 -1.421875 30.609375 -1.421875
Q 18.84375 -1.421875 12.171875 6.21875
Q 5.515625 13.875 5.515625 27.296875
Q 5.515625 40.765625 12.171875 48.375
Q 18.84375 56 30.609375 56
z
" id="DejaVuSans-111"/>
       <path d="M 37.109375 75.984375
L 37.109375 68.5
L 28.515625 68.5
Q 23.6875 68.5 21.796875 66.546875
Q 19.921875 64.59375 19.921875 59.515625
L 19.921875 54.6875
L 34.71875 54.6875
L 34.71875 47.703125
L 19.921875 47.703125
L 19.921875 0
L 10.890625 0
L 10.890625 47.703125
L 2.296875 47.703125
L 2.296875 54.6875
L 10.890625 54.6875
L 10.890625 58.5
Q 10.890625 67.625 15.140625 71.796875
Q 19.390625 75.984375 28.609375 75.984375
z
" id="DejaVuSans-102"/>
       <path d="M 53.515625 70.515625
L 53.515625 60.890625
Q 47.90625 63.578125 42.921875 64.890625
Q 37.9375 66.21875 33.296875 66.21875
Q 25.25 66.21875 20.875 63.09375
Q 16.5 59.96875 16.5 54.203125
Q 16.5 49.359375 19.40625 46.890625
Q 22.3125 44.4375 30.421875 42.921875
L 36.375 41.703125
Q 47.40625 39.59375 52.65625 34.296875
Q 57.90625 29 57.90625 20.125
Q 57.90625 9.515625 50.796875 4.046875
Q 43.703125 -1.421875 29.984375 -1.421875
Q 24.8125 -1.421875 18.96875 -0.25
Q 13.140625 0.921875 6.890625 3.21875
L 6.890625 13.375
Q 12.890625 10.015625 18.65625 8.296875
Q 24.421875 6.59375 29.984375 6.59375
Q 38.421875 6.59375 43.015625 9.90625
Q 47.609375 13.234375 47.609375 19.390625
Q 47.609375 24.75 44.3125 27.78125
Q 41.015625 30.8125 33.5 32.328125
L 27.484375 33.5
Q 16.453125 35.6875 11.515625 40.375
Q 6.59375 45.0625 6.59375 53.421875
Q 6.59375 63.09375 13.40625 68.65625
Q 20.21875 74.21875 32.171875 74.21875
Q 37.3125 74.21875 42.625 73.28125
Q 47.953125 72.359375 53.515625 70.515625
z
" id="DejaVuSans-83"/>
       <path d="M 34.28125 27.484375
Q 23.390625 27.484375 19.1875 25
Q 14.984375 22.515625 14.984375 16.5
Q 14.984375 11.71875 18.140625 8.90625
Q 21.296875 6.109375 26.703125 6.109375
Q 34.1875 6.109375 38.703125 11.40625
Q 43.21875 16.703125 43.21875 25.484375
L 43.21875 27.484375
z
M 52.203125 31.203125
L 52.203125 0
L 43.21875 0
L 43.21875 8.296875
Q 40.140625 3.328125 35.546875 0.953125
Q 30.953125 -1.421875 24.3125 -1.421875
Q 15.921875 -1.421875 10.953125 3.296875
Q 6 8.015625 6 15.921875
Q 6 25.140625 12.171875 29.828125
Q 18.359375 34.515625 30.609375 34.515625
L 43.21875 34.515625
L 43.21875 35.40625
Q 43.21875 41.609375 39.140625 45
Q 35.0625 48.390625 27.6875 48.390625
Q 23 48.390625 18.546875 47.265625
Q 14.109375 46.140625 10.015625 43.890625
L 10.015625 52.203125
Q 14.9375 54.109375 19.578125 55.046875
Q 24.21875 56 28.609375 56
Q 40.484375 56 46.34375 49.84375
Q 52.203125 43.703125 52.203125 31.203125
z
" id="DejaVuSans-97"/>
       <path d="M 18.109375 8.203125
L 18.109375 -20.796875
L 9.078125 -20.796875
L 9.078125 54.6875
L 18.109375 54.6875
L 18.109375 46.390625
Q 20.953125 51.265625 25.265625 53.625
Q 29.59375 56 35.59375 56
Q 45.5625 56 51.78125 48.09375
Q 58.015625 40.1875 58.015625 27.296875
Q 58.015625 14.40625 51.78125 6.484375
Q 45.5625 -1.421875 35.59375 -1.421875
Q 29.59375 -1.421875 25.265625 0.953125
Q 20.953125 3.328125 18.109375 8.203125
z
M 48.6875 27.296875
Q 48.6875 37.203125 44.609375 42.84375
Q 40.53125 48.484375 33.40625 48.484375
Q 26.265625 48.484375 22.1875 42.84375
Q 18.109375 37.203125 18.109375 27.296875
Q 18.109375 17.390625 22.1875 11.75
Q 26.265625 6.109375 33.40625 6.109375
Q 40.53125 6.109375 44.609375 11.75
Q 48.6875 17.390625 48.6875 27.296875
z
" id="DejaVuSans-112"/>
       <path d="M 9.421875 75.984375
L 18.40625 75.984375
L 18.40625 0
L 9.421875 0
z
" id="DejaVuSans-108"/>
       <path d="M 44.28125 53.078125
L 44.28125 44.578125
Q 40.484375 46.53125 36.375 47.5
Q 32.28125 48.484375 27.875 48.484375
Q 21.1875 48.484375 17.84375 46.4375
Q 14.5 44.390625 14.5 40.28125
Q 14.5 37.15625 16.890625 35.375
Q 19.28125 33.59375 26.515625 31.984375
L 29.59375 31.296875
Q 39.15625 29.25 43.1875 25.515625
Q 47.21875 21.78125 47.21875 15.09375
Q 47.21875 7.46875 41.1875 3.015625
Q 35.15625 -1.421875 24.609375 -1.421875
Q 20.21875 -1.421875 15.453125 -0.5625
Q 10.6875 0.296875 5.421875 2
L 5.421875 11.28125
Q 10.40625 8.6875 15.234375 7.390625
Q 20.0625 6.109375 24.8125 6.109375
Q 31.15625 6.109375 34.5625 8.28125
Q 37.984375 10.453125 37.984375 14.40625
Q 37.984375 18.0625 35.515625 20.015625
Q 33.0625 21.96875 24.703125 23.78125
L 21.578125 24.515625
Q 13.234375 26.265625 9.515625 29.90625
Q 5.8125 33.546875 5.8125 39.890625
Q 5.8125 47.609375 11.28125 51.796875
Q 16.75 56 26.8125 56
Q 31.78125 56 36.171875 55.265625
Q 40.578125 54.546875 44.28125 53.078125
z
" id="DejaVuSans-115"/>
       <path d="M 31 75.875
Q 24.46875 64.65625 21.28125 53.65625
Q 18.109375 42.671875 18.109375 31.390625
Q 18.109375 20.125 21.3125 9.0625
Q 24.515625 -2 31 -13.1875
L 23.1875 -13.1875
Q 15.875 -1.703125 12.234375 9.375
Q 8.59375 20.453125 8.59375 31.390625
Q 8.59375 42.28125 12.203125 53.3125
Q 15.828125 64.359375 23.1875 75.875
z
" id="DejaVuSans-40"/>
       <path d="M -0.296875 72.90625
L 61.375 72.90625
L 61.375 64.59375
L 35.5 64.59375
L 35.5 0
L 25.59375 0
L 25.59375 64.59375
L -0.296875 64.59375
z
" id="DejaVuSans-84"/>
       <path d="M 9.421875 54.6875
L 18.40625 54.6875
L 18.40625 0
L 9.421875 0
z
M 9.421875 75.984375
L 18.40625 75.984375
L 18.40625 64.59375
L 9.421875 64.59375
z
" id="DejaVuSans-105"/>
       <path d="M 8.015625 75.875
L 15.828125 75.875
Q 23.140625 64.359375 26.78125 53.3125
Q 30.421875 42.28125 30.421875 31.390625
Q 30.421875 20.453125 26.78125 9.375
Q 23.140625 -1.703125 15.828125 -13.1875
L 8.015625 -13.1875
Q 14.5 -2 17.703125 9.0625
Q 20.90625 20.125 20.90625 31.390625
Q 20.90625 42.671875 17.703125 53.65625
Q 14.5 64.65625 8.015625 75.875
z
" id="DejaVuSans-41"/>
      </defs>
      <use xlink:href="#DejaVuSans-78"/>
      <use x="74.804688" xlink:href="#DejaVuSans-117"/>
      <use x="138.183594" xlink:href="#DejaVuSans-109"/>
      <use x="235.595703" xlink:href="#DejaVuSans-98"/>
      <use x="299.072266" xlink:href="#DejaVuSans-101"/>
      <use x="360.595703" xlink:href="#DejaVuSans-114"/>
      <use x="401.708984" xlink:href="#DejaVuSans-32"/>
      <use x="433.496094" xlink:href="#DejaVuSans-111"/>
      <use x="494.677734" xlink:href="#DejaVuSans-102"/>
      <use x="529.882812" xlink:href="#DejaVuSans-32"/>
      <use x="561.669922" xlink:href="#DejaVuSans-83"/>
      <use x="625.146484" xlink:href="#DejaVuSans-97"/>
      <use x="686.425781" xlink:href="#DejaVuSans-109"/>
      <use x="783.837891" xlink:href="#DejaVuSans-112"/>
      <use x="847.314453" xlink:href="#DejaVuSans-108"/>
      <use x="875.097656" xlink:href="#DejaVuSans-101"/>
      <use x="936.621094" xlink:href="#DejaVuSans-115"/>
      <use x="988.720703" xlink:href="#DejaVuSans-32"/>
      <use x="1020.507812" xlink:href="#DejaVuSans-40"/>
      <use x="1059.521484" xlink:href="#DejaVuSans-84"/>
      <use x="1117.480469" xlink:href="#DejaVuSans-105"/>
      <use x="1145.263672" xlink:href="#DejaVuSans-112"/>
      <use x="1208.740234" xlink:href="#DejaVuSans-115"/>
      <use x="1260.839844" xlink:href="#DejaVuSans-41"/>
     </g>
    </g>
   </g>
   <g id="patch_12">
    <path d="M 35.48625 161.14075
L 35.48625 42.477522
" style="fill:none;stroke:#000000;stroke-linecap:square;stroke-linejoin:miter;stroke-width:0.8;"/>
   </g>
   <g id="patch_13">
    <path d="M 461.99952 161.14075
L 461.99952 42.477522
" style="fill:none;stroke:#000000;stroke-linecap:square;stroke-linejoin:miter;stroke-width:0.8;"/>
   </g>
   <g id="patch_14">
    <path d="M 35.48625 161.14075
L 461.99952 161.14075
" style="fill:none;stroke:#000000;stroke-linecap:square;stroke-linejoin:miter;stroke-width:0.8;"/>
   </g>
   <g id="patch_15">
    <path d="M 35.48625 42.477522
L 461.99952 42.477522
" style="fill:none;stroke:#000000;stroke-linecap:square;stroke-linejoin:miter;stroke-width:0.8;"/>
   </g>
   <g id="text_10">
    <!-- Biovar -->
    <g transform="translate(232.785073 36.477522)scale(0.1 -0.1)">
     <defs>
      <path d="M 19.671875 34.8125
L 19.671875 8.109375
L 35.5 8.109375
Q 43.453125 8.109375 47.28125 11.40625
Q 51.125 14.703125 51.125 21.484375
Q 51.125 28.328125 47.28125 31.5625
Q 43.453125 34.8125 35.5 34.8125
z
M 19.671875 64.796875
L 19.671875 42.828125
L 34.28125 42.828125
Q 41.5 42.828125 45.03125 45.53125
Q 48.578125 48.25 48.578125 53.8125
Q 48.578125 59.328125 45.03125 62.0625
Q 41.5 64.796875 34.28125 64.796875
z
M 9.8125 72.90625
L 35.015625 72.90625
Q 46.296875 72.90625 52.390625 68.21875
Q 58.5 63.53125 58.5 54.890625
Q 58.5 48.1875 55.375 44.234375
Q 52.25 40.28125 46.1875 39.3125
Q 53.46875 37.75 57.5 32.78125
Q 61.53125 27.828125 61.53125 20.40625
Q 61.53125 10.640625 54.890625 5.3125
Q 48.25 0 35.984375 0
L 9.8125 0
z
" id="DejaVuSans-66"/>
      <path d="M 2.984375 54.6875
L 12.5 54.6875
L 29.59375 8.796875
L 46.6875 54.6875
L 56.203125 54.6875
L 35.6875 0
L 23.484375 0
z
" id="DejaVuSans-118"/>
     </defs>
     <use xlink:href="#DejaVuSans-66"/>
     <use x="68.603516" xlink:href="#DejaVuSans-105"/>
     <use x="96.386719" xlink:href="#DejaVuSans-111"/>
     <use x="157.568359" xlink:href="#DejaVuSans-118"/>
     <use x="216.748047" xlink:href="#DejaVuSans-97"/>
     <use x="278.027344" xlink:href="#DejaVuSans-114"/>
    </g>
   </g>
  </g>
  <g id="axes_2">
   <g id="patch_16">
    <path d="M 35.48625 292.760457
L 461.99952 292.760457
L 461.99952 174.09723
L 35.48625 174.09723
z
" style="fill:#ffffff;"/>
   </g>
   <g id="patch_17">
    <path clip-path="url(#pabe42d6d1f)" d="M 61.077046 179.491021
L 95.198108 179.491021
L 95.198108 179.491021
L 61.077046 179.491021
L 61.077046 179.491021
z
" style="fill:#3274a1;stroke:#3d3d3d;stroke-linejoin:miter;stroke-width:0.5;"/>
   </g>
   <g id="patch_18">
    <path clip-path="url(#pabe42d6d1f)" d="M 103.728373 179.491013
L 137.849435 179.491013
L 137.849435 179.491013
L 103.728373 179.491013
L 103.728373 179.491013
z
" style="fill:#e1812c;stroke:#3d3d3d;stroke-linejoin:miter;stroke-width:0.5;"/>
   </g>
   <g id="patch_19">
    <path clip-path="url(#pabe42d6d1f)" d="M 146.3797 179.491016
L 180.500762 179.491016
L 180.500762 179.491016
L 146.3797 179.491016
L 146.3797 179.491016
z
" style="fill:#3a923a;stroke:#3d3d3d;stroke-linejoin:miter;stroke-width:0.5;"/>
   </g>
   <g id="patch_20">
    <path clip-path="url(#pabe42d6d1f)" d="M 189.031027 179.491013
L 223.152089 179.491013
L 223.152089 179.491013
L 189.031027 179.491013
L 189.031027 179.491013
z
" style="fill:#c03d3e;stroke:#3d3d3d;stroke-linejoin:miter;stroke-width:0.5;"/>
   </g>
   <g id="patch_21">
    <path clip-path="url(#pabe42d6d1f)" d="M 231.682354 179.491014
L 265.803416 179.491014
L 265.803416 179.491014
L 231.682354 179.491014
L 231.682354 179.491014
z
" style="fill:#9372b2;stroke:#3d3d3d;stroke-linejoin:miter;stroke-width:0.5;"/>
   </g>
   <g id="patch_22">
    <path clip-path="url(#pabe42d6d1f)" d="M 274.333681 179.491122
L 308.454743 179.491122
L 308.454743 179.491013
L 274.333681 179.491013
L 274.333681 179.491122
z
" style="fill:#845b53;stroke:#3d3d3d;stroke-linejoin:miter;stroke-width:0.5;"/>
   </g>
   <g id="patch_23">
    <path clip-path="url(#pabe42d6d1f)" d="M 316.985008 179.493285
L 351.10607 179.493285
L 351.10607 179.491015
L 316.985008 179.491015
L 316.985008 179.493285
z
" style="fill:#d684bd;stroke:#3d3d3d;stroke-linejoin:miter;stroke-width:0.5;"/>
   </g>
   <g id="patch_24">
    <path clip-path="url(#pabe42d6d1f)" d="M 359.636335 179.784016
L 393.757397 179.784016
L 393.757397 179.784016
L 359.636335 179.784016
L 359.636335 179.784016
z
" style="fill:#7f7f7f;stroke:#3d3d3d;stroke-linejoin:miter;stroke-width:0.5;"/>
   </g>
   <g id="matplotlib.axis_3">
    <g id="xtick_10">
     <g id="line2d_18">
      <g>
       <use style="stroke:#000000;stroke-width:0.8;" x="78.137577" xlink:href="#m5c90c3ac3d" y="292.760457"/>
      </g>
     </g>
     <g id="text_11">
      <!-- Antiqua -->
      <g transform="translate(79.517265 319.10577)rotate(-90)scale(0.05 -0.05)">
       <defs>
        <path d="M 34.1875 63.1875
L 20.796875 26.90625
L 47.609375 26.90625
z
M 28.609375 72.90625
L 39.796875 72.90625
L 67.578125 0
L 57.328125 0
L 50.6875 18.703125
L 17.828125 18.703125
L 11.1875 0
L 0.78125 0
z
" id="DejaVuSans-65"/>
        <path d="M 54.890625 33.015625
L 54.890625 0
L 45.90625 0
L 45.90625 32.71875
Q 45.90625 40.484375 42.875 44.328125
Q 39.84375 48.1875 33.796875 48.1875
Q 26.515625 48.1875 22.3125 43.546875
Q 18.109375 38.921875 18.109375 30.90625
L 18.109375 0
L 9.078125 0
L 9.078125 54.6875
L 18.109375 54.6875
L 18.109375 46.1875
Q 21.34375 51.125 25.703125 53.5625
Q 30.078125 56 35.796875 56
Q 45.21875 56 50.046875 50.171875
Q 54.890625 44.34375 54.890625 33.015625
z
" id="DejaVuSans-110"/>
        <path d="M 18.3125 70.21875
L 18.3125 54.6875
L 36.8125 54.6875
L 36.8125 47.703125
L 18.3125 47.703125
L 18.3125 18.015625
Q 18.3125 11.328125 20.140625 9.421875
Q 21.96875 7.515625 27.59375 7.515625
L 36.8125 7.515625
L 36.8125 0
L 27.59375 0
Q 17.1875 0 13.234375 3.875
Q 9.28125 7.765625 9.28125 18.015625
L 9.28125 47.703125
L 2.6875 47.703125
L 2.6875 54.6875
L 9.28125 54.6875
L 9.28125 70.21875
z
" id="DejaVuSans-116"/>
        <path d="M 14.796875 27.296875
Q 14.796875 17.390625 18.875 11.75
Q 22.953125 6.109375 30.078125 6.109375
Q 37.203125 6.109375 41.296875 11.75
Q 45.40625 17.390625 45.40625 27.296875
Q 45.40625 37.203125 41.296875 42.84375
Q 37.203125 48.484375 30.078125 48.484375
Q 22.953125 48.484375 18.875 42.84375
Q 14.796875 37.203125 14.796875 27.296875
z
M 45.40625 8.203125
Q 42.578125 3.328125 38.25 0.953125
Q 33.9375 -1.421875 27.875 -1.421875
Q 17.96875 -1.421875 11.734375 6.484375
Q 5.515625 14.40625 5.515625 27.296875
Q 5.515625 40.1875 11.734375 48.09375
Q 17.96875 56 27.875 56
Q 33.9375 56 38.25 53.625
Q 42.578125 51.265625 45.40625 46.390625
L 45.40625 54.6875
L 54.390625 54.6875
L 54.390625 -20.796875
L 45.40625 -20.796875
z
" id="DejaVuSans-113"/>
       </defs>
       <use xlink:href="#DejaVuSans-65"/>
       <use x="68.408203" xlink:href="#DejaVuSans-110"/>
       <use x="131.787109" xlink:href="#DejaVuSans-116"/>
       <use x="170.996094" xlink:href="#DejaVuSans-105"/>
       <use x="198.779297" xlink:href="#DejaVuSans-113"/>
       <use x="262.255859" xlink:href="#DejaVuSans-117"/>
       <use x="325.634766" xlink:href="#DejaVuSans-97"/>
      </g>
     </g>
    </g>
    <g id="xtick_11">
     <g id="line2d_19">
      <g>
       <use style="stroke:#000000;stroke-width:0.8;" x="120.788904" xlink:href="#m5c90c3ac3d" y="292.760457"/>
      </g>
     </g>
     <g id="text_12">
      <!-- Orientalis -->
      <g transform="translate(122.168592 323.79327)rotate(-90)scale(0.05 -0.05)">
       <defs>
        <path d="M 39.40625 66.21875
Q 28.65625 66.21875 22.328125 58.203125
Q 16.015625 50.203125 16.015625 36.375
Q 16.015625 22.609375 22.328125 14.59375
Q 28.65625 6.59375 39.40625 6.59375
Q 50.140625 6.59375 56.421875 14.59375
Q 62.703125 22.609375 62.703125 36.375
Q 62.703125 50.203125 56.421875 58.203125
Q 50.140625 66.21875 39.40625 66.21875
z
M 39.40625 74.21875
Q 54.734375 74.21875 63.90625 63.9375
Q 73.09375 53.65625 73.09375 36.375
Q 73.09375 19.140625 63.90625 8.859375
Q 54.734375 -1.421875 39.40625 -1.421875
Q 24.03125 -1.421875 14.8125 8.828125
Q 5.609375 19.09375 5.609375 36.375
Q 5.609375 53.65625 14.8125 63.9375
Q 24.03125 74.21875 39.40625 74.21875
z
" id="DejaVuSans-79"/>
       </defs>
       <use xlink:href="#DejaVuSans-79"/>
       <use x="78.710938" xlink:href="#DejaVuSans-114"/>
       <use x="119.824219" xlink:href="#DejaVuSans-105"/>
       <use x="147.607422" xlink:href="#DejaVuSans-101"/>
       <use x="209.130859" xlink:href="#DejaVuSans-110"/>
       <use x="272.509766" xlink:href="#DejaVuSans-116"/>
       <use x="311.71875" xlink:href="#DejaVuSans-97"/>
       <use x="372.998047" xlink:href="#DejaVuSans-108"/>
       <use x="400.78125" xlink:href="#DejaVuSans-105"/>
       <use x="428.564453" xlink:href="#DejaVuSans-115"/>
      </g>
     </g>
    </g>
    <g id="xtick_12">
     <g id="line2d_20">
      <g>
       <use style="stroke:#000000;stroke-width:0.8;" x="163.440231" xlink:href="#m5c90c3ac3d" y="292.760457"/>
      </g>
     </g>
     <g id="text_13">
      <!-- Microtus -->
      <g transform="translate(164.819919 320.948739)rotate(-90)scale(0.05 -0.05)">
       <defs>
        <path d="M 9.8125 72.90625
L 24.515625 72.90625
L 43.109375 23.296875
L 61.8125 72.90625
L 76.515625 72.90625
L 76.515625 0
L 66.890625 0
L 66.890625 64.015625
L 48.09375 14.015625
L 38.1875 14.015625
L 19.390625 64.015625
L 19.390625 0
L 9.8125 0
z
" id="DejaVuSans-77"/>
        <path d="M 48.78125 52.59375
L 48.78125 44.1875
Q 44.96875 46.296875 41.140625 47.34375
Q 37.3125 48.390625 33.40625 48.390625
Q 24.65625 48.390625 19.8125 42.84375
Q 14.984375 37.3125 14.984375 27.296875
Q 14.984375 17.28125 19.8125 11.734375
Q 24.65625 6.203125 33.40625 6.203125
Q 37.3125 6.203125 41.140625 7.25
Q 44.96875 8.296875 48.78125 10.40625
L 48.78125 2.09375
Q 45.015625 0.34375 40.984375 -0.53125
Q 36.96875 -1.421875 32.421875 -1.421875
Q 20.0625 -1.421875 12.78125 6.34375
Q 5.515625 14.109375 5.515625 27.296875
Q 5.515625 40.671875 12.859375 48.328125
Q 20.21875 56 33.015625 56
Q 37.15625 56 41.109375 55.140625
Q 45.0625 54.296875 48.78125 52.59375
z
" id="DejaVuSans-99"/>
       </defs>
       <use xlink:href="#DejaVuSans-77"/>
       <use x="86.279297" xlink:href="#DejaVuSans-105"/>
       <use x="114.0625" xlink:href="#DejaVuSans-99"/>
       <use x="169.042969" xlink:href="#DejaVuSans-114"/>
       <use x="207.90625" xlink:href="#DejaVuSans-111"/>
       <use x="269.087891" xlink:href="#DejaVuSans-116"/>
       <use x="308.296875" xlink:href="#DejaVuSans-117"/>
       <use x="371.675781" xlink:href="#DejaVuSans-115"/>
      </g>
     </g>
    </g>
    <g id="xtick_13">
     <g id="line2d_21">
      <g>
       <use style="stroke:#000000;stroke-width:0.8;" x="206.091558" xlink:href="#m5c90c3ac3d" y="292.760457"/>
      </g>
     </g>
     <g id="text_14">
      <!-- Medievalis -->
      <g transform="translate(207.471246 326.197176)rotate(-90)scale(0.05 -0.05)">
       <defs>
        <path d="M 45.40625 46.390625
L 45.40625 75.984375
L 54.390625 75.984375
L 54.390625 0
L 45.40625 0
L 45.40625 8.203125
Q 42.578125 3.328125 38.25 0.953125
Q 33.9375 -1.421875 27.875 -1.421875
Q 17.96875 -1.421875 11.734375 6.484375
Q 5.515625 14.40625 5.515625 27.296875
Q 5.515625 40.1875 11.734375 48.09375
Q 17.96875 56 27.875 56
Q 33.9375 56 38.25 53.625
Q 42.578125 51.265625 45.40625 46.390625
z
M 14.796875 27.296875
Q 14.796875 17.390625 18.875 11.75
Q 22.953125 6.109375 30.078125 6.109375
Q 37.203125 6.109375 41.296875 11.75
Q 45.40625 17.390625 45.40625 27.296875
Q 45.40625 37.203125 41.296875 42.84375
Q 37.203125 48.484375 30.078125 48.484375
Q 22.953125 48.484375 18.875 42.84375
Q 14.796875 37.203125 14.796875 27.296875
z
" id="DejaVuSans-100"/>
       </defs>
       <use xlink:href="#DejaVuSans-77"/>
       <use x="86.279297" xlink:href="#DejaVuSans-101"/>
       <use x="147.802734" xlink:href="#DejaVuSans-100"/>
       <use x="211.279297" xlink:href="#DejaVuSans-105"/>
       <use x="239.0625" xlink:href="#DejaVuSans-101"/>
       <use x="300.585938" xlink:href="#DejaVuSans-118"/>
       <use x="359.765625" xlink:href="#DejaVuSans-97"/>
       <use x="421.044922" xlink:href="#DejaVuSans-108"/>
       <use x="448.828125" xlink:href="#DejaVuSans-105"/>
       <use x="476.611328" xlink:href="#DejaVuSans-115"/>
      </g>
     </g>
    </g>
    <g id="xtick_14">
     <g id="line2d_22">
      <g>
       <use style="stroke:#000000;stroke-width:0.8;" x="248.742885" xlink:href="#m5c90c3ac3d" y="292.760457"/>
      </g>
     </g>
     <g id="text_15">
      <!-- Second Pandemic -->
      <g transform="translate(250.122573 344.033895)rotate(-90)scale(0.05 -0.05)">
       <defs>
        <path d="M 19.671875 64.796875
L 19.671875 37.40625
L 32.078125 37.40625
Q 38.96875 37.40625 42.71875 40.96875
Q 46.484375 44.53125 46.484375 51.125
Q 46.484375 57.671875 42.71875 61.234375
Q 38.96875 64.796875 32.078125 64.796875
z
M 9.8125 72.90625
L 32.078125 72.90625
Q 44.34375 72.90625 50.609375 67.359375
Q 56.890625 61.8125 56.890625 51.125
Q 56.890625 40.328125 50.609375 34.8125
Q 44.34375 29.296875 32.078125 29.296875
L 19.671875 29.296875
L 19.671875 0
L 9.8125 0
z
" id="DejaVuSans-80"/>
       </defs>
       <use xlink:href="#DejaVuSans-83"/>
       <use x="63.476562" xlink:href="#DejaVuSans-101"/>
       <use x="125" xlink:href="#DejaVuSans-99"/>
       <use x="179.980469" xlink:href="#DejaVuSans-111"/>
       <use x="241.162109" xlink:href="#DejaVuSans-110"/>
       <use x="304.541016" xlink:href="#DejaVuSans-100"/>
       <use x="368.017578" xlink:href="#DejaVuSans-32"/>
       <use x="399.804688" xlink:href="#DejaVuSans-80"/>
       <use x="455.607422" xlink:href="#DejaVuSans-97"/>
       <use x="516.886719" xlink:href="#DejaVuSans-110"/>
       <use x="580.265625" xlink:href="#DejaVuSans-100"/>
       <use x="643.742188" xlink:href="#DejaVuSans-101"/>
       <use x="705.265625" xlink:href="#DejaVuSans-109"/>
       <use x="802.677734" xlink:href="#DejaVuSans-105"/>
       <use x="830.460938" xlink:href="#DejaVuSans-99"/>
      </g>
     </g>
    </g>
    <g id="xtick_15">
     <g id="line2d_23">
      <g>
       <use style="stroke:#000000;stroke-width:0.8;" x="291.394212" xlink:href="#m5c90c3ac3d" y="292.760457"/>
      </g>
     </g>
     <g id="text_16">
      <!-- First Pandemic -->
      <g transform="translate(292.7739 336.154207)rotate(-90)scale(0.05 -0.05)">
       <defs>
        <path d="M 9.8125 72.90625
L 51.703125 72.90625
L 51.703125 64.59375
L 19.671875 64.59375
L 19.671875 43.109375
L 48.578125 43.109375
L 48.578125 34.8125
L 19.671875 34.8125
L 19.671875 0
L 9.8125 0
z
" id="DejaVuSans-70"/>
       </defs>
       <use xlink:href="#DejaVuSans-70"/>
       <use x="50.269531" xlink:href="#DejaVuSans-105"/>
       <use x="78.052734" xlink:href="#DejaVuSans-114"/>
       <use x="119.166016" xlink:href="#DejaVuSans-115"/>
       <use x="171.265625" xlink:href="#DejaVuSans-116"/>
       <use x="210.474609" xlink:href="#DejaVuSans-32"/>
       <use x="242.261719" xlink:href="#DejaVuSans-80"/>
       <use x="298.064453" xlink:href="#DejaVuSans-97"/>
       <use x="359.34375" xlink:href="#DejaVuSans-110"/>
       <use x="422.722656" xlink:href="#DejaVuSans-100"/>
       <use x="486.199219" xlink:href="#DejaVuSans-101"/>
       <use x="547.722656" xlink:href="#DejaVuSans-109"/>
       <use x="645.134766" xlink:href="#DejaVuSans-105"/>
       <use x="672.917969" xlink:href="#DejaVuSans-99"/>
      </g>
     </g>
    </g>
    <g id="xtick_16">
     <g id="line2d_24">
      <g>
       <use style="stroke:#000000;stroke-width:0.8;" x="334.045539" xlink:href="#m5c90c3ac3d" y="292.760457"/>
      </g>
     </g>
     <g id="text_17">
      <!-- Bronze Age Plague -->
      <g transform="translate(335.425227 346.79952)rotate(-90)scale(0.05 -0.05)">
       <defs>
        <path d="M 5.515625 54.6875
L 48.1875 54.6875
L 48.1875 46.484375
L 14.40625 7.171875
L 48.1875 7.171875
L 48.1875 0
L 4.296875 0
L 4.296875 8.203125
L 38.09375 47.515625
L 5.515625 47.515625
z
" id="DejaVuSans-122"/>
        <path d="M 45.40625 27.984375
Q 45.40625 37.75 41.375 43.109375
Q 37.359375 48.484375 30.078125 48.484375
Q 22.859375 48.484375 18.828125 43.109375
Q 14.796875 37.75 14.796875 27.984375
Q 14.796875 18.265625 18.828125 12.890625
Q 22.859375 7.515625 30.078125 7.515625
Q 37.359375 7.515625 41.375 12.890625
Q 45.40625 18.265625 45.40625 27.984375
z
M 54.390625 6.78125
Q 54.390625 -7.171875 48.1875 -13.984375
Q 42 -20.796875 29.203125 -20.796875
Q 24.46875 -20.796875 20.265625 -20.09375
Q 16.0625 -19.390625 12.109375 -17.921875
L 12.109375 -9.1875
Q 16.0625 -11.328125 19.921875 -12.34375
Q 23.78125 -13.375 27.78125 -13.375
Q 36.625 -13.375 41.015625 -8.765625
Q 45.40625 -4.15625 45.40625 5.171875
L 45.40625 9.625
Q 42.625 4.78125 38.28125 2.390625
Q 33.9375 0 27.875 0
Q 17.828125 0 11.671875 7.65625
Q 5.515625 15.328125 5.515625 27.984375
Q 5.515625 40.671875 11.671875 48.328125
Q 17.828125 56 27.875 56
Q 33.9375 56 38.28125 53.609375
Q 42.625 51.21875 45.40625 46.390625
L 45.40625 54.6875
L 54.390625 54.6875
z
" id="DejaVuSans-103"/>
       </defs>
       <use xlink:href="#DejaVuSans-66"/>
       <use x="68.603516" xlink:href="#DejaVuSans-114"/>
       <use x="107.466797" xlink:href="#DejaVuSans-111"/>
       <use x="168.648438" xlink:href="#DejaVuSans-110"/>
       <use x="232.027344" xlink:href="#DejaVuSans-122"/>
       <use x="284.517578" xlink:href="#DejaVuSans-101"/>
       <use x="346.041016" xlink:href="#DejaVuSans-32"/>
       <use x="377.828125" xlink:href="#DejaVuSans-65"/>
       <use x="446.236328" xlink:href="#DejaVuSans-103"/>
       <use x="509.712891" xlink:href="#DejaVuSans-101"/>
       <use x="571.236328" xlink:href="#DejaVuSans-32"/>
       <use x="603.023438" xlink:href="#DejaVuSans-80"/>
       <use x="663.326172" xlink:href="#DejaVuSans-108"/>
       <use x="691.109375" xlink:href="#DejaVuSans-97"/>
       <use x="752.388672" xlink:href="#DejaVuSans-103"/>
       <use x="815.865234" xlink:href="#DejaVuSans-117"/>
       <use x="879.244141" xlink:href="#DejaVuSans-101"/>
      </g>
     </g>
    </g>
    <g id="xtick_17">
     <g id="line2d_25">
      <g>
       <use style="stroke:#000000;stroke-width:0.8;" x="376.696866" xlink:href="#m5c90c3ac3d" y="292.760457"/>
      </g>
     </g>
     <g id="text_18">
      <!-- Qinghaica -->
      <g transform="translate(378.076554 324.863582)rotate(-90)scale(0.05 -0.05)">
       <defs>
        <path d="M 39.40625 66.21875
Q 28.65625 66.21875 22.328125 58.203125
Q 16.015625 50.203125 16.015625 36.375
Q 16.015625 22.609375 22.328125 14.59375
Q 28.65625 6.59375 39.40625 6.59375
Q 50.140625 6.59375 56.421875 14.59375
Q 62.703125 22.609375 62.703125 36.375
Q 62.703125 50.203125 56.421875 58.203125
Q 50.140625 66.21875 39.40625 66.21875
z
M 53.21875 1.3125
L 66.21875 -12.890625
L 54.296875 -12.890625
L 43.5 -1.21875
Q 41.890625 -1.3125 41.03125 -1.359375
Q 40.1875 -1.421875 39.40625 -1.421875
Q 24.03125 -1.421875 14.8125 8.859375
Q 5.609375 19.140625 5.609375 36.375
Q 5.609375 53.65625 14.8125 63.9375
Q 24.03125 74.21875 39.40625 74.21875
Q 54.734375 74.21875 63.90625 63.9375
Q 73.09375 53.65625 73.09375 36.375
Q 73.09375 23.6875 67.984375 14.640625
Q 62.890625 5.609375 53.21875 1.3125
z
" id="DejaVuSans-81"/>
        <path d="M 54.890625 33.015625
L 54.890625 0
L 45.90625 0
L 45.90625 32.71875
Q 45.90625 40.484375 42.875 44.328125
Q 39.84375 48.1875 33.796875 48.1875
Q 26.515625 48.1875 22.3125 43.546875
Q 18.109375 38.921875 18.109375 30.90625
L 18.109375 0
L 9.078125 0
L 9.078125 75.984375
L 18.109375 75.984375
L 18.109375 46.1875
Q 21.34375 51.125 25.703125 53.5625
Q 30.078125 56 35.796875 56
Q 45.21875 56 50.046875 50.171875
Q 54.890625 44.34375 54.890625 33.015625
z
" id="DejaVuSans-104"/>
       </defs>
       <use xlink:href="#DejaVuSans-81"/>
       <use x="78.710938" xlink:href="#DejaVuSans-105"/>
       <use x="106.494141" xlink:href="#DejaVuSans-110"/>
       <use x="169.873047" xlink:href="#DejaVuSans-103"/>
       <use x="233.349609" xlink:href="#DejaVuSans-104"/>
       <use x="296.728516" xlink:href="#DejaVuSans-97"/>
       <use x="358.007812" xlink:href="#DejaVuSans-105"/>
       <use x="385.791016" xlink:href="#DejaVuSans-99"/>
       <use x="440.771484" xlink:href="#DejaVuSans-97"/>
      </g>
     </g>
    </g>
    <g id="xtick_18">
     <g id="line2d_26">
      <g>
       <use style="stroke:#000000;stroke-width:0.8;" x="419.348193" xlink:href="#m5c90c3ac3d" y="292.760457"/>
      </g>
     </g>
     <g id="text_19">
      <!-- nan -->
      <g transform="translate(420.727881 309.16202)rotate(-90)scale(0.05 -0.05)">
       <use xlink:href="#DejaVuSans-110"/>
       <use x="63.378906" xlink:href="#DejaVuSans-97"/>
       <use x="124.658203" xlink:href="#DejaVuSans-110"/>
      </g>
     </g>
    </g>
   </g>
   <g id="matplotlib.axis_4">
    <g id="ytick_9">
     <g id="line2d_27">
      <g>
       <use style="stroke:#000000;stroke-width:0.8;" x="35.48625" xlink:href="#mb91bdbd2ff" y="290.271084"/>
      </g>
     </g>
     <g id="text_20">
      <!-- 0.4 -->
      <g transform="translate(20.534688 292.170693)scale(0.05 -0.05)">
       <defs>
        <path d="M 10.6875 12.40625
L 21 12.40625
L 21 0
L 10.6875 0
z
" id="DejaVuSans-46"/>
        <path d="M 37.796875 64.3125
L 12.890625 25.390625
L 37.796875 25.390625
z
M 35.203125 72.90625
L 47.609375 72.90625
L 47.609375 25.390625
L 58.015625 25.390625
L 58.015625 17.1875
L 47.609375 17.1875
L 47.609375 0
L 37.796875 0
L 37.796875 17.1875
L 4.890625 17.1875
L 4.890625 26.703125
z
" id="DejaVuSans-52"/>
       </defs>
       <use xlink:href="#DejaVuSans-48"/>
       <use x="63.623047" xlink:href="#DejaVuSans-46"/>
       <use x="95.410156" xlink:href="#DejaVuSans-52"/>
      </g>
     </g>
    </g>
    <g id="ytick_10">
     <g id="line2d_28">
      <g>
       <use style="stroke:#000000;stroke-width:0.8;" x="35.48625" xlink:href="#mb91bdbd2ff" y="271.807738"/>
      </g>
     </g>
     <g id="text_21">
      <!-- 0.5 -->
      <g transform="translate(20.534688 273.707348)scale(0.05 -0.05)">
       <use xlink:href="#DejaVuSans-48"/>
       <use x="63.623047" xlink:href="#DejaVuSans-46"/>
       <use x="95.410156" xlink:href="#DejaVuSans-53"/>
      </g>
     </g>
    </g>
    <g id="ytick_11">
     <g id="line2d_29">
      <g>
       <use style="stroke:#000000;stroke-width:0.8;" x="35.48625" xlink:href="#mb91bdbd2ff" y="253.344393"/>
      </g>
     </g>
     <g id="text_22">
      <!-- 0.6 -->
      <g transform="translate(20.534688 255.244002)scale(0.05 -0.05)">
       <defs>
        <path d="M 33.015625 40.375
Q 26.375 40.375 22.484375 35.828125
Q 18.609375 31.296875 18.609375 23.390625
Q 18.609375 15.53125 22.484375 10.953125
Q 26.375 6.390625 33.015625 6.390625
Q 39.65625 6.390625 43.53125 10.953125
Q 47.40625 15.53125 47.40625 23.390625
Q 47.40625 31.296875 43.53125 35.828125
Q 39.65625 40.375 33.015625 40.375
z
M 52.59375 71.296875
L 52.59375 62.3125
Q 48.875 64.0625 45.09375 64.984375
Q 41.3125 65.921875 37.59375 65.921875
Q 27.828125 65.921875 22.671875 59.328125
Q 17.53125 52.734375 16.796875 39.40625
Q 19.671875 43.65625 24.015625 45.921875
Q 28.375 48.1875 33.59375 48.1875
Q 44.578125 48.1875 50.953125 41.515625
Q 57.328125 34.859375 57.328125 23.390625
Q 57.328125 12.15625 50.6875 5.359375
Q 44.046875 -1.421875 33.015625 -1.421875
Q 20.359375 -1.421875 13.671875 8.265625
Q 6.984375 17.96875 6.984375 36.375
Q 6.984375 53.65625 15.1875 63.9375
Q 23.390625 74.21875 37.203125 74.21875
Q 40.921875 74.21875 44.703125 73.484375
Q 48.484375 72.75 52.59375 71.296875
z
" id="DejaVuSans-54"/>
       </defs>
       <use xlink:href="#DejaVuSans-48"/>
       <use x="63.623047" xlink:href="#DejaVuSans-46"/>
       <use x="95.410156" xlink:href="#DejaVuSans-54"/>
      </g>
     </g>
    </g>
    <g id="ytick_12">
     <g id="line2d_30">
      <g>
       <use style="stroke:#000000;stroke-width:0.8;" x="35.48625" xlink:href="#mb91bdbd2ff" y="234.881047"/>
      </g>
     </g>
     <g id="text_23">
      <!-- 0.7 -->
      <g transform="translate(20.534688 236.780657)scale(0.05 -0.05)">
       <use xlink:href="#DejaVuSans-48"/>
       <use x="63.623047" xlink:href="#DejaVuSans-46"/>
       <use x="95.410156" xlink:href="#DejaVuSans-55"/>
      </g>
     </g>
    </g>
    <g id="ytick_13">
     <g id="line2d_31">
      <g>
       <use style="stroke:#000000;stroke-width:0.8;" x="35.48625" xlink:href="#mb91bdbd2ff" y="216.417702"/>
      </g>
     </g>
     <g id="text_24">
      <!-- 0.8 -->
      <g transform="translate(20.534688 218.317311)scale(0.05 -0.05)">
       <defs>
        <path d="M 31.78125 34.625
Q 24.75 34.625 20.71875 30.859375
Q 16.703125 27.09375 16.703125 20.515625
Q 16.703125 13.921875 20.71875 10.15625
Q 24.75 6.390625 31.78125 6.390625
Q 38.8125 6.390625 42.859375 10.171875
Q 46.921875 13.96875 46.921875 20.515625
Q 46.921875 27.09375 42.890625 30.859375
Q 38.875 34.625 31.78125 34.625
z
M 21.921875 38.8125
Q 15.578125 40.375 12.03125 44.71875
Q 8.5 49.078125 8.5 55.328125
Q 8.5 64.0625 14.71875 69.140625
Q 20.953125 74.21875 31.78125 74.21875
Q 42.671875 74.21875 48.875 69.140625
Q 55.078125 64.0625 55.078125 55.328125
Q 55.078125 49.078125 51.53125 44.71875
Q 48 40.375 41.703125 38.8125
Q 48.828125 37.15625 52.796875 32.3125
Q 56.78125 27.484375 56.78125 20.515625
Q 56.78125 9.90625 50.3125 4.234375
Q 43.84375 -1.421875 31.78125 -1.421875
Q 19.734375 -1.421875 13.25 4.234375
Q 6.78125 9.90625 6.78125 20.515625
Q 6.78125 27.484375 10.78125 32.3125
Q 14.796875 37.15625 21.921875 38.8125
z
M 18.3125 54.390625
Q 18.3125 48.734375 21.84375 45.5625
Q 25.390625 42.390625 31.78125 42.390625
Q 38.140625 42.390625 41.71875 45.5625
Q 45.3125 48.734375 45.3125 54.390625
Q 45.3125 60.0625 41.71875 63.234375
Q 38.140625 66.40625 31.78125 66.40625
Q 25.390625 66.40625 21.84375 63.234375
Q 18.3125 60.0625 18.3125 54.390625
z
" id="DejaVuSans-56"/>
       </defs>
       <use xlink:href="#DejaVuSans-48"/>
       <use x="63.623047" xlink:href="#DejaVuSans-46"/>
       <use x="95.410156" xlink:href="#DejaVuSans-56"/>
      </g>
     </g>
    </g>
    <g id="ytick_14">
     <g id="line2d_32">
      <g>
       <use style="stroke:#000000;stroke-width:0.8;" x="35.48625" xlink:href="#mb91bdbd2ff" y="197.954356"/>
      </g>
     </g>
     <g id="text_25">
      <!-- 0.9 -->
      <g transform="translate(20.534688 199.853966)scale(0.05 -0.05)">
       <defs>
        <path d="M 10.984375 1.515625
L 10.984375 10.5
Q 14.703125 8.734375 18.5 7.8125
Q 22.3125 6.890625 25.984375 6.890625
Q 35.75 6.890625 40.890625 13.453125
Q 46.046875 20.015625 46.78125 33.40625
Q 43.953125 29.203125 39.59375 26.953125
Q 35.25 24.703125 29.984375 24.703125
Q 19.046875 24.703125 12.671875 31.3125
Q 6.296875 37.9375 6.296875 49.421875
Q 6.296875 60.640625 12.9375 67.421875
Q 19.578125 74.21875 30.609375 74.21875
Q 43.265625 74.21875 49.921875 64.515625
Q 56.59375 54.828125 56.59375 36.375
Q 56.59375 19.140625 48.40625 8.859375
Q 40.234375 -1.421875 26.421875 -1.421875
Q 22.703125 -1.421875 18.890625 -0.6875
Q 15.09375 0.046875 10.984375 1.515625
z
M 30.609375 32.421875
Q 37.25 32.421875 41.125 36.953125
Q 45.015625 41.5 45.015625 49.421875
Q 45.015625 57.28125 41.125 61.84375
Q 37.25 66.40625 30.609375 66.40625
Q 23.96875 66.40625 20.09375 61.84375
Q 16.21875 57.28125 16.21875 49.421875
Q 16.21875 41.5 20.09375 36.953125
Q 23.96875 32.421875 30.609375 32.421875
z
" id="DejaVuSans-57"/>
       </defs>
       <use xlink:href="#DejaVuSans-48"/>
       <use x="63.623047" xlink:href="#DejaVuSans-46"/>
       <use x="95.410156" xlink:href="#DejaVuSans-57"/>
      </g>
     </g>
    </g>
    <g id="ytick_15">
     <g id="line2d_33">
      <g>
       <use style="stroke:#000000;stroke-width:0.8;" x="35.48625" xlink:href="#mb91bdbd2ff" y="179.491011"/>
      </g>
     </g>
     <g id="text_26">
      <!-- 1.0 -->
      <g transform="translate(20.534688 181.39062)scale(0.05 -0.05)">
       <use xlink:href="#DejaVuSans-49"/>
       <use x="63.623047" xlink:href="#DejaVuSans-46"/>
       <use x="95.410156" xlink:href="#DejaVuSans-48"/>
      </g>
     </g>
    </g>
    <g id="text_27">
     <!-- Mugration Confidence (Internal Nodes) -->
     <g transform="translate(14.870938 311.078844)rotate(-90)scale(0.08 -0.08)">
      <defs>
       <path d="M 64.40625 67.28125
L 64.40625 56.890625
Q 59.421875 61.53125 53.78125 63.8125
Q 48.140625 66.109375 41.796875 66.109375
Q 29.296875 66.109375 22.65625 58.46875
Q 16.015625 50.828125 16.015625 36.375
Q 16.015625 21.96875 22.65625 14.328125
Q 29.296875 6.6875 41.796875 6.6875
Q 48.140625 6.6875 53.78125 8.984375
Q 59.421875 11.28125 64.40625 15.921875
L 64.40625 5.609375
Q 59.234375 2.09375 53.4375 0.328125
Q 47.65625 -1.421875 41.21875 -1.421875
Q 24.65625 -1.421875 15.125 8.703125
Q 5.609375 18.84375 5.609375 36.375
Q 5.609375 53.953125 15.125 64.078125
Q 24.65625 74.21875 41.21875 74.21875
Q 47.75 74.21875 53.53125 72.484375
Q 59.328125 70.75 64.40625 67.28125
z
" id="DejaVuSans-67"/>
       <path d="M 9.8125 72.90625
L 19.671875 72.90625
L 19.671875 0
L 9.8125 0
z
" id="DejaVuSans-73"/>
      </defs>
      <use xlink:href="#DejaVuSans-77"/>
      <use x="86.279297" xlink:href="#DejaVuSans-117"/>
      <use x="149.658203" xlink:href="#DejaVuSans-103"/>
      <use x="213.134766" xlink:href="#DejaVuSans-114"/>
      <use x="254.248047" xlink:href="#DejaVuSans-97"/>
      <use x="315.527344" xlink:href="#DejaVuSans-116"/>
      <use x="354.736328" xlink:href="#DejaVuSans-105"/>
      <use x="382.519531" xlink:href="#DejaVuSans-111"/>
      <use x="443.701172" xlink:href="#DejaVuSans-110"/>
      <use x="507.080078" xlink:href="#DejaVuSans-32"/>
      <use x="538.867188" xlink:href="#DejaVuSans-67"/>
      <use x="608.691406" xlink:href="#DejaVuSans-111"/>
      <use x="669.873047" xlink:href="#DejaVuSans-110"/>
      <use x="733.251953" xlink:href="#DejaVuSans-102"/>
      <use x="768.457031" xlink:href="#DejaVuSans-105"/>
      <use x="796.240234" xlink:href="#DejaVuSans-100"/>
      <use x="859.716797" xlink:href="#DejaVuSans-101"/>
      <use x="921.240234" xlink:href="#DejaVuSans-110"/>
      <use x="984.619141" xlink:href="#DejaVuSans-99"/>
      <use x="1039.599609" xlink:href="#DejaVuSans-101"/>
      <use x="1101.123047" xlink:href="#DejaVuSans-32"/>
      <use x="1132.910156" xlink:href="#DejaVuSans-40"/>
      <use x="1171.923828" xlink:href="#DejaVuSans-73"/>
      <use x="1201.416016" xlink:href="#DejaVuSans-110"/>
      <use x="1264.794922" xlink:href="#DejaVuSans-116"/>
      <use x="1304.003906" xlink:href="#DejaVuSans-101"/>
      <use x="1365.527344" xlink:href="#DejaVuSans-114"/>
      <use x="1404.890625" xlink:href="#DejaVuSans-110"/>
      <use x="1468.269531" xlink:href="#DejaVuSans-97"/>
      <use x="1529.548828" xlink:href="#DejaVuSans-108"/>
      <use x="1557.332031" xlink:href="#DejaVuSans-32"/>
      <use x="1589.119141" xlink:href="#DejaVuSans-78"/>
      <use x="1663.923828" xlink:href="#DejaVuSans-111"/>
      <use x="1725.105469" xlink:href="#DejaVuSans-100"/>
      <use x="1788.582031" xlink:href="#DejaVuSans-101"/>
      <use x="1850.105469" xlink:href="#DejaVuSans-115"/>
      <use x="1902.205078" xlink:href="#DejaVuSans-41"/>
     </g>
    </g>
   </g>
   <g id="line2d_34">
    <path clip-path="url(#pabe42d6d1f)" d="M 78.137577 179.491021
L 78.137577 179.491021
" style="fill:none;stroke:#3d3d3d;stroke-linecap:square;stroke-width:0.5;"/>
   </g>
   <g id="line2d_35">
    <path clip-path="url(#pabe42d6d1f)" d="M 78.137577 179.491021
L 78.137577 179.491021
" style="fill:none;stroke:#3d3d3d;stroke-linecap:square;stroke-width:0.5;"/>
   </g>
   <g id="line2d_36">
    <path clip-path="url(#pabe42d6d1f)" d="M 69.607312 179.491021
L 86.667842 179.491021
" style="fill:none;stroke:#3d3d3d;stroke-linecap:square;stroke-width:0.5;"/>
   </g>
   <g id="line2d_37">
    <path clip-path="url(#pabe42d6d1f)" d="M 69.607312 179.491021
L 86.667842 179.491021
" style="fill:none;stroke:#3d3d3d;stroke-linecap:square;stroke-width:0.5;"/>
   </g>
   <g id="line2d_38">
    <defs>
     <path d="M 0 1
C 0.265203 1 0.51958 0.894634 0.707107 0.707107
C 0.894634 0.51958 1 0.265203 1 0
C 1 -0.265203 0.894634 -0.51958 0.707107 -0.707107
C 0.51958 -0.894634 0.265203 -1 0 -1
C -0.265203 -1 -0.51958 -0.894634 -0.707107 -0.707107
C -0.894634 -0.51958 -1 -0.265203 -1 0
C -1 0.265203 -0.894634 0.51958 -0.707107 0.707107
C -0.51958 0.894634 -0.265203 1 0 1
z
" id="m1a0083b511" style="stroke:#000000;"/>
    </defs>
    <g clip-path="url(#pabe42d6d1f)">
     <use style="fill:#ffffff;stroke:#000000;" x="78.137577" xlink:href="#m1a0083b511" y="179.780564"/>
     <use style="fill:#ffffff;stroke:#000000;" x="78.137577" xlink:href="#m1a0083b511" y="180.723469"/>
     <use style="fill:#ffffff;stroke:#000000;" x="78.137577" xlink:href="#m1a0083b511" y="179.49402"/>
     <use style="fill:#ffffff;stroke:#000000;" x="78.137577" xlink:href="#m1a0083b511" y="179.491028"/>
     <use style="fill:#ffffff;stroke:#000000;" x="78.137577" xlink:href="#m1a0083b511" y="179.491028"/>
     <use style="fill:#ffffff;stroke:#000000;" x="78.137577" xlink:href="#m1a0083b511" y="180.64369"/>
     <use style="fill:#ffffff;stroke:#000000;" x="78.137577" xlink:href="#m1a0083b511" y="179.49354"/>
     <use style="fill:#ffffff;stroke:#000000;" x="78.137577" xlink:href="#m1a0083b511" y="179.491026"/>
     <use style="fill:#ffffff;stroke:#000000;" x="78.137577" xlink:href="#m1a0083b511" y="179.491035"/>
     <use style="fill:#ffffff;stroke:#000000;" x="78.137577" xlink:href="#m1a0083b511" y="179.491021"/>
     <use style="fill:#ffffff;stroke:#000000;" x="78.137577" xlink:href="#m1a0083b511" y="179.49442"/>
     <use style="fill:#ffffff;stroke:#000000;" x="78.137577" xlink:href="#m1a0083b511" y="179.49103"/>
     <use style="fill:#ffffff;stroke:#000000;" x="78.137577" xlink:href="#m1a0083b511" y="180.780638"/>
     <use style="fill:#ffffff;stroke:#000000;" x="78.137577" xlink:href="#m1a0083b511" y="180.653426"/>
     <use style="fill:#ffffff;stroke:#000000;" x="78.137577" xlink:href="#m1a0083b511" y="179.493635"/>
     <use style="fill:#ffffff;stroke:#000000;" x="78.137577" xlink:href="#m1a0083b511" y="179.491027"/>
     <use style="fill:#ffffff;stroke:#000000;" x="78.137577" xlink:href="#m1a0083b511" y="179.491027"/>
     <use style="fill:#ffffff;stroke:#000000;" x="78.137577" xlink:href="#m1a0083b511" y="179.995959"/>
     <use style="fill:#ffffff;stroke:#000000;" x="78.137577" xlink:href="#m1a0083b511" y="179.492403"/>
     <use style="fill:#ffffff;stroke:#000000;" x="78.137577" xlink:href="#m1a0083b511" y="179.491024"/>
     <use style="fill:#ffffff;stroke:#000000;" x="78.137577" xlink:href="#m1a0083b511" y="179.491024"/>
     <use style="fill:#ffffff;stroke:#000000;" x="78.137577" xlink:href="#m1a0083b511" y="179.492403"/>
     <use style="fill:#ffffff;stroke:#000000;" x="78.137577" xlink:href="#m1a0083b511" y="179.491024"/>
     <use style="fill:#ffffff;stroke:#000000;" x="78.137577" xlink:href="#m1a0083b511" y="179.491024"/>
     <use style="fill:#ffffff;stroke:#000000;" x="78.137577" xlink:href="#m1a0083b511" y="179.491022"/>
     <use style="fill:#ffffff;stroke:#000000;" x="78.137577" xlink:href="#m1a0083b511" y="179.49178"/>
     <use style="fill:#ffffff;stroke:#000000;" x="78.137577" xlink:href="#m1a0083b511" y="179.865342"/>
     <use style="fill:#ffffff;stroke:#000000;" x="78.137577" xlink:href="#m1a0083b511" y="179.491781"/>
     <use style="fill:#ffffff;stroke:#000000;" x="78.137577" xlink:href="#m1a0083b511" y="179.491022"/>
     <use style="fill:#ffffff;stroke:#000000;" x="78.137577" xlink:href="#m1a0083b511" y="179.491022"/>
    </g>
   </g>
   <g id="line2d_39">
    <path clip-path="url(#pabe42d6d1f)" d="M 120.788904 179.491013
L 120.788904 179.491013
" style="fill:none;stroke:#3d3d3d;stroke-linecap:square;stroke-width:0.5;"/>
   </g>
   <g id="line2d_40">
    <path clip-path="url(#pabe42d6d1f)" d="M 120.788904 179.491013
L 120.788904 179.491013
" style="fill:none;stroke:#3d3d3d;stroke-linecap:square;stroke-width:0.5;"/>
   </g>
   <g id="line2d_41">
    <path clip-path="url(#pabe42d6d1f)" d="M 112.258639 179.491013
L 129.319169 179.491013
" style="fill:none;stroke:#3d3d3d;stroke-linecap:square;stroke-width:0.5;"/>
   </g>
   <g id="line2d_42">
    <path clip-path="url(#pabe42d6d1f)" d="M 112.258639 179.491013
L 129.319169 179.491013
" style="fill:none;stroke:#3d3d3d;stroke-linecap:square;stroke-width:0.5;"/>
   </g>
   <g id="line2d_43">
    <g clip-path="url(#pabe42d6d1f)">
     <use style="fill:#ffffff;stroke:#000000;" x="120.788904" xlink:href="#m1a0083b511" y="179.798985"/>
     <use style="fill:#ffffff;stroke:#000000;" x="120.788904" xlink:href="#m1a0083b511" y="179.491528"/>
     <use style="fill:#ffffff;stroke:#000000;" x="120.788904" xlink:href="#m1a0083b511" y="179.491014"/>
     <use style="fill:#ffffff;stroke:#000000;" x="120.788904" xlink:href="#m1a0083b511" y="179.491014"/>
     <use style="fill:#ffffff;stroke:#000000;" x="120.788904" xlink:href="#m1a0083b511" y="179.491016"/>
     <use style="fill:#ffffff;stroke:#000000;" x="120.788904" xlink:href="#m1a0083b511" y="179.49295"/>
    </g>
   </g>
   <g id="line2d_44">
    <path clip-path="url(#pabe42d6d1f)" d="M 163.440231 179.491016
L 163.440231 179.491016
" style="fill:none;stroke:#3d3d3d;stroke-linecap:square;stroke-width:0.5;"/>
   </g>
   <g id="line2d_45">
    <path clip-path="url(#pabe42d6d1f)" d="M 163.440231 179.491016
L 163.440231 179.491016
" style="fill:none;stroke:#3d3d3d;stroke-linecap:square;stroke-width:0.5;"/>
   </g>
   <g id="line2d_46">
    <path clip-path="url(#pabe42d6d1f)" d="M 154.909966 179.491016
L 171.970496 179.491016
" style="fill:none;stroke:#3d3d3d;stroke-linecap:square;stroke-width:0.5;"/>
   </g>
   <g id="line2d_47">
    <path clip-path="url(#pabe42d6d1f)" d="M 154.909966 179.491016
L 171.970496 179.491016
" style="fill:none;stroke:#3d3d3d;stroke-linecap:square;stroke-width:0.5;"/>
   </g>
   <g id="line2d_48">
    <g clip-path="url(#pabe42d6d1f)">
     <use style="fill:#ffffff;stroke:#000000;" x="163.440231" xlink:href="#m1a0083b511" y="287.366674"/>
     <use style="fill:#ffffff;stroke:#000000;" x="163.440231" xlink:href="#m1a0083b511" y="180.559106"/>
     <use style="fill:#ffffff;stroke:#000000;" x="163.440231" xlink:href="#m1a0083b511" y="179.493084"/>
     <use style="fill:#ffffff;stroke:#000000;" x="163.440231" xlink:href="#m1a0083b511" y="179.49102"/>
     <use style="fill:#ffffff;stroke:#000000;" x="163.440231" xlink:href="#m1a0083b511" y="179.49102"/>
     <use style="fill:#ffffff;stroke:#000000;" x="163.440231" xlink:href="#m1a0083b511" y="180.360033"/>
     <use style="fill:#ffffff;stroke:#000000;" x="163.440231" xlink:href="#m1a0083b511" y="181.236321"/>
     <use style="fill:#ffffff;stroke:#000000;" x="163.440231" xlink:href="#m1a0083b511" y="180.822889"/>
     <use style="fill:#ffffff;stroke:#000000;" x="163.440231" xlink:href="#m1a0083b511" y="179.493302"/>
     <use style="fill:#ffffff;stroke:#000000;" x="163.440231" xlink:href="#m1a0083b511" y="179.49102"/>
     <use style="fill:#ffffff;stroke:#000000;" x="163.440231" xlink:href="#m1a0083b511" y="179.49102"/>
     <use style="fill:#ffffff;stroke:#000000;" x="163.440231" xlink:href="#m1a0083b511" y="180.482193"/>
     <use style="fill:#ffffff;stroke:#000000;" x="163.440231" xlink:href="#m1a0083b511" y="179.49291"/>
     <use style="fill:#ffffff;stroke:#000000;" x="163.440231" xlink:href="#m1a0083b511" y="179.491019"/>
     <use style="fill:#ffffff;stroke:#000000;" x="163.440231" xlink:href="#m1a0083b511" y="179.491019"/>
    </g>
   </g>
   <g id="line2d_49">
    <path clip-path="url(#pabe42d6d1f)" d="M 206.091558 179.491013
L 206.091558 179.491013
" style="fill:none;stroke:#3d3d3d;stroke-linecap:square;stroke-width:0.5;"/>
   </g>
   <g id="line2d_50">
    <path clip-path="url(#pabe42d6d1f)" d="M 206.091558 179.491013
L 206.091558 179.491013
" style="fill:none;stroke:#3d3d3d;stroke-linecap:square;stroke-width:0.5;"/>
   </g>
   <g id="line2d_51">
    <path clip-path="url(#pabe42d6d1f)" d="M 197.561293 179.491013
L 214.621823 179.491013
" style="fill:none;stroke:#3d3d3d;stroke-linecap:square;stroke-width:0.5;"/>
   </g>
   <g id="line2d_52">
    <path clip-path="url(#pabe42d6d1f)" d="M 197.561293 179.491013
L 214.621823 179.491013
" style="fill:none;stroke:#3d3d3d;stroke-linecap:square;stroke-width:0.5;"/>
   </g>
   <g id="line2d_53">
    <g clip-path="url(#pabe42d6d1f)">
     <use style="fill:#ffffff;stroke:#000000;" x="206.091558" xlink:href="#m1a0083b511" y="179.787406"/>
     <use style="fill:#ffffff;stroke:#000000;" x="206.091558" xlink:href="#m1a0083b511" y="179.49149"/>
     <use style="fill:#ffffff;stroke:#000000;" x="206.091558" xlink:href="#m1a0083b511" y="179.491014"/>
     <use style="fill:#ffffff;stroke:#000000;" x="206.091558" xlink:href="#m1a0083b511" y="179.491491"/>
     <use style="fill:#ffffff;stroke:#000000;" x="206.091558" xlink:href="#m1a0083b511" y="179.491014"/>
     <use style="fill:#ffffff;stroke:#000000;" x="206.091558" xlink:href="#m1a0083b511" y="179.491014"/>
    </g>
   </g>
   <g id="line2d_54">
    <path clip-path="url(#pabe42d6d1f)" d="M 248.742885 179.491014
L 248.742885 179.491014
" style="fill:none;stroke:#3d3d3d;stroke-linecap:square;stroke-width:0.5;"/>
   </g>
   <g id="line2d_55">
    <path clip-path="url(#pabe42d6d1f)" d="M 248.742885 179.491014
L 248.742885 179.491014
" style="fill:none;stroke:#3d3d3d;stroke-linecap:square;stroke-width:0.5;"/>
   </g>
   <g id="line2d_56">
    <path clip-path="url(#pabe42d6d1f)" d="M 240.21262 179.491014
L 257.27315 179.491014
" style="fill:none;stroke:#3d3d3d;stroke-linecap:square;stroke-width:0.5;"/>
   </g>
   <g id="line2d_57">
    <path clip-path="url(#pabe42d6d1f)" d="M 240.21262 179.491014
L 257.27315 179.491014
" style="fill:none;stroke:#3d3d3d;stroke-linecap:square;stroke-width:0.5;"/>
   </g>
   <g id="line2d_58">
    <g clip-path="url(#pabe42d6d1f)">
     <use style="fill:#ffffff;stroke:#000000;" x="248.742885" xlink:href="#m1a0083b511" y="179.839377"/>
     <use style="fill:#ffffff;stroke:#000000;" x="248.742885" xlink:href="#m1a0083b511" y="179.491676"/>
     <use style="fill:#ffffff;stroke:#000000;" x="248.742885" xlink:href="#m1a0083b511" y="179.491015"/>
     <use style="fill:#ffffff;stroke:#000000;" x="248.742885" xlink:href="#m1a0083b511" y="179.491015"/>
     <use style="fill:#ffffff;stroke:#000000;" x="248.742885" xlink:href="#m1a0083b511" y="179.491015"/>
     <use style="fill:#ffffff;stroke:#000000;" x="248.742885" xlink:href="#m1a0083b511" y="179.491677"/>
     <use style="fill:#ffffff;stroke:#000000;" x="248.742885" xlink:href="#m1a0083b511" y="179.840679"/>
    </g>
   </g>
   <g id="line2d_59">
    <path clip-path="url(#pabe42d6d1f)" d="M 291.394212 179.491122
L 291.394212 179.491122
" style="fill:none;stroke:#3d3d3d;stroke-linecap:square;stroke-width:0.5;"/>
   </g>
   <g id="line2d_60">
    <path clip-path="url(#pabe42d6d1f)" d="M 291.394212 179.491013
L 291.394212 179.491013
" style="fill:none;stroke:#3d3d3d;stroke-linecap:square;stroke-width:0.5;"/>
   </g>
   <g id="line2d_61">
    <path clip-path="url(#pabe42d6d1f)" d="M 282.863947 179.491122
L 299.924477 179.491122
" style="fill:none;stroke:#3d3d3d;stroke-linecap:square;stroke-width:0.5;"/>
   </g>
   <g id="line2d_62">
    <path clip-path="url(#pabe42d6d1f)" d="M 282.863947 179.491013
L 299.924477 179.491013
" style="fill:none;stroke:#3d3d3d;stroke-linecap:square;stroke-width:0.5;"/>
   </g>
   <g id="line2d_63">
    <g clip-path="url(#pabe42d6d1f)">
     <use style="fill:#ffffff;stroke:#000000;" x="291.394212" xlink:href="#m1a0083b511" y="179.771234"/>
     <use style="fill:#ffffff;stroke:#000000;" x="291.394212" xlink:href="#m1a0083b511" y="179.49144"/>
     <use style="fill:#ffffff;stroke:#000000;" x="291.394212" xlink:href="#m1a0083b511" y="179.492818"/>
    </g>
   </g>
   <g id="line2d_64">
    <path clip-path="url(#pabe42d6d1f)" d="M 334.045539 179.493285
L 334.045539 179.493751
" style="fill:none;stroke:#3d3d3d;stroke-linecap:square;stroke-width:0.5;"/>
   </g>
   <g id="line2d_65">
    <path clip-path="url(#pabe42d6d1f)" d="M 334.045539 179.491015
L 334.045539 179.491014
" style="fill:none;stroke:#3d3d3d;stroke-linecap:square;stroke-width:0.5;"/>
   </g>
   <g id="line2d_66">
    <path clip-path="url(#pabe42d6d1f)" d="M 325.515274 179.493751
L 342.575804 179.493751
" style="fill:none;stroke:#3d3d3d;stroke-linecap:square;stroke-width:0.5;"/>
   </g>
   <g id="line2d_67">
    <path clip-path="url(#pabe42d6d1f)" d="M 325.515274 179.491014
L 342.575804 179.491014
" style="fill:none;stroke:#3d3d3d;stroke-linecap:square;stroke-width:0.5;"/>
   </g>
   <g id="line2d_68">
    <g clip-path="url(#pabe42d6d1f)">
     <use style="fill:#ffffff;stroke:#000000;" x="334.045539" xlink:href="#m1a0083b511" y="179.725407"/>
    </g>
   </g>
   <g id="line2d_69">
    <path clip-path="url(#pabe42d6d1f)" d="M 376.696866 179.784016
L 376.696866 179.784016
" style="fill:none;stroke:#3d3d3d;stroke-linecap:square;stroke-width:0.5;"/>
   </g>
   <g id="line2d_70">
    <path clip-path="url(#pabe42d6d1f)" d="M 376.696866 179.784016
L 376.696866 179.784016
" style="fill:none;stroke:#3d3d3d;stroke-linecap:square;stroke-width:0.5;"/>
   </g>
   <g id="line2d_71">
    <path clip-path="url(#pabe42d6d1f)" d="M 368.166601 179.784016
L 385.227131 179.784016
" style="fill:none;stroke:#3d3d3d;stroke-linecap:square;stroke-width:0.5;"/>
   </g>
   <g id="line2d_72">
    <path clip-path="url(#pabe42d6d1f)" d="M 368.166601 179.784016
L 385.227131 179.784016
" style="fill:none;stroke:#3d3d3d;stroke-linecap:square;stroke-width:0.5;"/>
   </g>
   <g id="line2d_73"/>
   <g id="line2d_74">
    <path clip-path="url(#pabe42d6d1f)" d="M 61.077046 179.491021
L 95.198108 179.491021
" style="fill:none;stroke:#3d3d3d;stroke-linecap:square;stroke-width:0.5;"/>
   </g>
   <g id="line2d_75">
    <path clip-path="url(#pabe42d6d1f)" d="M 103.728373 179.491013
L 137.849435 179.491013
" style="fill:none;stroke:#3d3d3d;stroke-linecap:square;stroke-width:0.5;"/>
   </g>
   <g id="line2d_76">
    <path clip-path="url(#pabe42d6d1f)" d="M 146.3797 179.491016
L 180.500762 179.491016
" style="fill:none;stroke:#3d3d3d;stroke-linecap:square;stroke-width:0.5;"/>
   </g>
   <g id="line2d_77">
    <path clip-path="url(#pabe42d6d1f)" d="M 189.031027 179.491013
L 223.152089 179.491013
" style="fill:none;stroke:#3d3d3d;stroke-linecap:square;stroke-width:0.5;"/>
   </g>
   <g id="line2d_78">
    <path clip-path="url(#pabe42d6d1f)" d="M 231.682354 179.491014
L 265.803416 179.491014
" style="fill:none;stroke:#3d3d3d;stroke-linecap:square;stroke-width:0.5;"/>
   </g>
   <g id="line2d_79">
    <path clip-path="url(#pabe42d6d1f)" d="M 274.333681 179.491013
L 308.454743 179.491013
" style="fill:none;stroke:#3d3d3d;stroke-linecap:square;stroke-width:0.5;"/>
   </g>
   <g id="line2d_80">
    <path clip-path="url(#pabe42d6d1f)" d="M 316.985008 179.491453
L 351.10607 179.491453
" style="fill:none;stroke:#3d3d3d;stroke-linecap:square;stroke-width:0.5;"/>
   </g>
   <g id="line2d_81">
    <path clip-path="url(#pabe42d6d1f)" d="M 359.636335 179.784016
L 393.757397 179.784016
" style="fill:none;stroke:#3d3d3d;stroke-linecap:square;stroke-width:0.5;"/>
   </g>
   <g id="patch_25">
    <path d="M 35.48625 292.760457
L 35.48625 174.09723
" style="fill:none;stroke:#000000;stroke-linecap:square;stroke-linejoin:miter;stroke-width:0.8;"/>
   </g>
   <g id="patch_26">
    <path d="M 461.99952 292.760457
L 461.99952 174.09723
" style="fill:none;stroke:#000000;stroke-linecap:square;stroke-linejoin:miter;stroke-width:0.8;"/>
   </g>
   <g id="patch_27">
    <path d="M 35.48625 292.760457
L 461.99952 292.760457
" style="fill:none;stroke:#000000;stroke-linecap:square;stroke-linejoin:miter;stroke-width:0.8;"/>
   </g>
   <g id="patch_28">
    <path d="M 35.48625 174.09723
L 461.99952 174.09723
" style="fill:none;stroke:#000000;stroke-linecap:square;stroke-linejoin:miter;stroke-width:0.8;"/>
   </g>
  </g>
  <g id="text_28">
   <!-- Sampling Distribution and Mugration Analysis Confidence -->
   <g transform="translate(90.606791 14.727249)scale(0.1 -0.1)">
    <defs>
     <path d="M 19.671875 64.796875
L 19.671875 8.109375
L 31.59375 8.109375
Q 46.6875 8.109375 53.6875 14.9375
Q 60.6875 21.78125 60.6875 36.53125
Q 60.6875 51.171875 53.6875 57.984375
Q 46.6875 64.796875 31.59375 64.796875
z
M 9.8125 72.90625
L 30.078125 72.90625
Q 51.265625 72.90625 61.171875 64.09375
Q 71.09375 55.28125 71.09375 36.53125
Q 71.09375 17.671875 61.125 8.828125
Q 51.171875 0 30.078125 0
L 9.8125 0
z
" id="DejaVuSans-68"/>
     <path d="M 32.171875 -5.078125
Q 28.375 -14.84375 24.75 -17.8125
Q 21.140625 -20.796875 15.09375 -20.796875
L 7.90625 -20.796875
L 7.90625 -13.28125
L 13.1875 -13.28125
Q 16.890625 -13.28125 18.9375 -11.515625
Q 21 -9.765625 23.484375 -3.21875
L 25.09375 0.875
L 2.984375 54.6875
L 12.5 54.6875
L 29.59375 11.921875
L 46.6875 54.6875
L 56.203125 54.6875
z
" id="DejaVuSans-121"/>
    </defs>
    <use xlink:href="#DejaVuSans-83"/>
    <use x="63.476562" xlink:href="#DejaVuSans-97"/>
    <use x="124.755859" xlink:href="#DejaVuSans-109"/>
    <use x="222.167969" xlink:href="#DejaVuSans-112"/>
    <use x="285.644531" xlink:href="#DejaVuSans-108"/>
    <use x="313.427734" xlink:href="#DejaVuSans-105"/>
    <use x="341.210938" xlink:href="#DejaVuSans-110"/>
    <use x="404.589844" xlink:href="#DejaVuSans-103"/>
    <use x="468.066406" xlink:href="#DejaVuSans-32"/>
    <use x="499.853516" xlink:href="#DejaVuSans-68"/>
    <use x="576.855469" xlink:href="#DejaVuSans-105"/>
    <use x="604.638672" xlink:href="#DejaVuSans-115"/>
    <use x="656.738281" xlink:href="#DejaVuSans-116"/>
    <use x="695.947266" xlink:href="#DejaVuSans-114"/>
    <use x="737.060547" xlink:href="#DejaVuSans-105"/>
    <use x="764.84375" xlink:href="#DejaVuSans-98"/>
    <use x="828.320312" xlink:href="#DejaVuSans-117"/>
    <use x="891.699219" xlink:href="#DejaVuSans-116"/>
    <use x="930.908203" xlink:href="#DejaVuSans-105"/>
    <use x="958.691406" xlink:href="#DejaVuSans-111"/>
    <use x="1019.873047" xlink:href="#DejaVuSans-110"/>
    <use x="1083.251953" xlink:href="#DejaVuSans-32"/>
    <use x="1115.039062" xlink:href="#DejaVuSans-97"/>
    <use x="1176.318359" xlink:href="#DejaVuSans-110"/>
    <use x="1239.697266" xlink:href="#DejaVuSans-100"/>
    <use x="1303.173828" xlink:href="#DejaVuSans-32"/>
    <use x="1334.960938" xlink:href="#DejaVuSans-77"/>
    <use x="1421.240234" xlink:href="#DejaVuSans-117"/>
    <use x="1484.619141" xlink:href="#DejaVuSans-103"/>
    <use x="1548.095703" xlink:href="#DejaVuSans-114"/>
    <use x="1589.208984" xlink:href="#DejaVuSans-97"/>
    <use x="1650.488281" xlink:href="#DejaVuSans-116"/>
    <use x="1689.697266" xlink:href="#DejaVuSans-105"/>
    <use x="1717.480469" xlink:href="#DejaVuSans-111"/>
    <use x="1778.662109" xlink:href="#DejaVuSans-110"/>
    <use x="1842.041016" xlink:href="#DejaVuSans-32"/>
    <use x="1873.828125" xlink:href="#DejaVuSans-65"/>
    <use x="1942.236328" xlink:href="#DejaVuSans-110"/>
    <use x="2005.615234" xlink:href="#DejaVuSans-97"/>
    <use x="2066.894531" xlink:href="#DejaVuSans-108"/>
    <use x="2094.677734" xlink:href="#DejaVuSans-121"/>
    <use x="2153.857422" xlink:href="#DejaVuSans-115"/>
    <use x="2205.957031" xlink:href="#DejaVuSans-105"/>
    <use x="2233.740234" xlink:href="#DejaVuSans-115"/>
    <use x="2285.839844" xlink:href="#DejaVuSans-32"/>
    <use x="2317.626953" xlink:href="#DejaVuSans-67"/>
    <use x="2387.451172" xlink:href="#DejaVuSans-111"/>
    <use x="2448.632812" xlink:href="#DejaVuSans-110"/>
    <use x="2512.011719" xlink:href="#DejaVuSans-102"/>
    <use x="2547.216797" xlink:href="#DejaVuSans-105"/>
    <use x="2575" xlink:href="#DejaVuSans-100"/>
    <use x="2638.476562" xlink:href="#DejaVuSans-101"/>
    <use x="2700" xlink:href="#DejaVuSans-110"/>
    <use x="2763.378906" xlink:href="#DejaVuSans-99"/>
    <use x="2818.359375" xlink:href="#DejaVuSans-101"/>
   </g>
  </g>
 </g>
 <defs>
  <clipPath id="p48779ce3e3">
   <rect height="118.663228" width="426.51327" x="35.48625" y="42.477522"/>
  </clipPath>
  <clipPath id="pabe42d6d1f">
   <rect height="118.663227" width="426.51327" x="35.48625" y="174.09723"/>
  </clipPath>
 </defs>
</svg>
