<?xml version="1.0" encoding="utf-8" standalone="no"?>
<!DOCTYPE svg PUBLIC "-//W3C//DTD SVG 1.1//EN"
  "http://www.w3.org/Graphics/SVG/1.1/DTD/svg11.dtd">
<!-- Created with matplotlib (https://matplotlib.org/) -->
<svg height="330.541644pt" version="1.1" viewBox="0 0 1000.340625 330.541644" width="1000.340625pt" xmlns="http://www.w3.org/2000/svg" xmlns:xlink="http://www.w3.org/1999/xlink">
 <metadata>
  <rdf:RDF xmlns:cc="http://creativecommons.org/ns#" xmlns:dc="http://purl.org/dc/elements/1.1/" xmlns:rdf="http://www.w3.org/1999/02/22-rdf-syntax-ns#">
   <cc:Work>
    <dc:type rdf:resource="http://purl.org/dc/dcmitype/StillImage"/>
    <dc:date>2021-02-12T15:20:37.460031</dc:date>
    <dc:format>image/svg+xml</dc:format>
    <dc:creator>
     <cc:Agent>
      <dc:title>Matplotlib v3.3.2, https://matplotlib.org/</dc:title>
     </cc:Agent>
    </dc:creator>
   </cc:Work>
  </rdf:RDF>
 </metadata>
 <defs>
  <style type="text/css">*{stroke-linecap:butt;stroke-linejoin:round;}</style>
 </defs>
 <g id="figure_1">
  <g id="axes_1">
   <g id="patch_1">
    <path d="M 40.600625 273.99006
L 993.140625 273.99006
L 993.140625 31.48286
L 40.600625 31.48286
z
" style="fill:#ffffff;"/>
   </g>
   <g id="matplotlib.axis_1">
    <g id="xtick_1">
     <g id="text_1">
      <!-- 0.0 -->
      <g transform="translate(34.239375 287.06881)scale(0.08 -0.08)">
       <defs>
        <path d="M 31.78125 66.40625
Q 24.171875 66.40625 20.328125 58.90625
Q 16.5 51.421875 16.5 36.375
Q 16.5 21.390625 20.328125 13.890625
Q 24.171875 6.390625 31.78125 6.390625
Q 39.453125 6.390625 43.28125 13.890625
Q 47.125 21.390625 47.125 36.375
Q 47.125 51.421875 43.28125 58.90625
Q 39.453125 66.40625 31.78125 66.40625
z
M 31.78125 74.21875
Q 44.046875 74.21875 50.515625 64.515625
Q 56.984375 54.828125 56.984375 36.375
Q 56.984375 17.96875 50.515625 8.265625
Q 44.046875 -1.421875 31.78125 -1.421875
Q 19.53125 -1.421875 13.0625 8.265625
Q 6.59375 17.96875 6.59375 36.375
Q 6.59375 54.828125 13.0625 64.515625
Q 19.53125 74.21875 31.78125 74.21875
z
" id="DejaVuSans-48"/>
        <path d="M 10.6875 12.40625
L 21 12.40625
L 21 0
L 10.6875 0
z
" id="DejaVuSans-46"/>
       </defs>
       <use xlink:href="#DejaVuSans-48"/>
       <use x="63.623047" xlink:href="#DejaVuSans-46"/>
       <use x="95.410156" xlink:href="#DejaVuSans-48"/>
      </g>
     </g>
    </g>
    <g id="xtick_2">
     <g id="text_2">
      <!-- 0.5 -->
      <g transform="translate(162.441259 287.06881)scale(0.08 -0.08)">
       <defs>
        <path d="M 10.796875 72.90625
L 49.515625 72.90625
L 49.515625 64.59375
L 19.828125 64.59375
L 19.828125 46.734375
Q 21.96875 47.46875 24.109375 47.828125
Q 26.265625 48.1875 28.421875 48.1875
Q 40.625 48.1875 47.75 41.5
Q 54.890625 34.8125 54.890625 23.390625
Q 54.890625 11.625 47.5625 5.09375
Q 40.234375 -1.421875 26.90625 -1.421875
Q 22.3125 -1.421875 17.546875 -0.640625
Q 12.796875 0.140625 7.71875 1.703125
L 7.71875 11.625
Q 12.109375 9.234375 16.796875 8.0625
Q 21.484375 6.890625 26.703125 6.890625
Q 35.15625 6.890625 40.078125 11.328125
Q 45.015625 15.765625 45.015625 23.390625
Q 45.015625 31 40.078125 35.4375
Q 35.15625 39.890625 26.703125 39.890625
Q 22.75 39.890625 18.8125 39.015625
Q 14.890625 38.140625 10.796875 36.28125
z
" id="DejaVuSans-53"/>
       </defs>
       <use xlink:href="#DejaVuSans-48"/>
       <use x="63.623047" xlink:href="#DejaVuSans-46"/>
       <use x="95.410156" xlink:href="#DejaVuSans-53"/>
      </g>
     </g>
    </g>
    <g id="xtick_3">
     <g id="text_3">
      <!-- 1.0 -->
      <g transform="translate(290.643144 287.06881)scale(0.08 -0.08)">
       <defs>
        <path d="M 12.40625 8.296875
L 28.515625 8.296875
L 28.515625 63.921875
L 10.984375 60.40625
L 10.984375 69.390625
L 28.421875 72.90625
L 38.28125 72.90625
L 38.28125 8.296875
L 54.390625 8.296875
L 54.390625 0
L 12.40625 0
z
" id="DejaVuSans-49"/>
       </defs>
       <use xlink:href="#DejaVuSans-49"/>
       <use x="63.623047" xlink:href="#DejaVuSans-46"/>
       <use x="95.410156" xlink:href="#DejaVuSans-48"/>
      </g>
     </g>
    </g>
    <g id="xtick_4">
     <g id="text_4">
      <!-- 1.5 -->
      <g transform="translate(418.845028 287.06881)scale(0.08 -0.08)">
       <use xlink:href="#DejaVuSans-49"/>
       <use x="63.623047" xlink:href="#DejaVuSans-46"/>
       <use x="95.410156" xlink:href="#DejaVuSans-53"/>
      </g>
     </g>
    </g>
    <g id="xtick_5">
     <g id="text_5">
      <!-- 2.0 -->
      <g transform="translate(547.046912 287.06881)scale(0.08 -0.08)">
       <defs>
        <path d="M 19.1875 8.296875
L 53.609375 8.296875
L 53.609375 0
L 7.328125 0
L 7.328125 8.296875
Q 12.9375 14.109375 22.625 23.890625
Q 32.328125 33.6875 34.8125 36.53125
Q 39.546875 41.84375 41.421875 45.53125
Q 43.3125 49.21875 43.3125 52.78125
Q 43.3125 58.59375 39.234375 62.25
Q 35.15625 65.921875 28.609375 65.921875
Q 23.96875 65.921875 18.8125 64.3125
Q 13.671875 62.703125 7.8125 59.421875
L 7.8125 69.390625
Q 13.765625 71.78125 18.9375 73
Q 24.125 74.21875 28.421875 74.21875
Q 39.75 74.21875 46.484375 68.546875
Q 53.21875 62.890625 53.21875 53.421875
Q 53.21875 48.921875 51.53125 44.890625
Q 49.859375 40.875 45.40625 35.40625
Q 44.1875 33.984375 37.640625 27.21875
Q 31.109375 20.453125 19.1875 8.296875
z
" id="DejaVuSans-50"/>
       </defs>
       <use xlink:href="#DejaVuSans-50"/>
       <use x="63.623047" xlink:href="#DejaVuSans-46"/>
       <use x="95.410156" xlink:href="#DejaVuSans-48"/>
      </g>
     </g>
    </g>
    <g id="xtick_6">
     <g id="text_6">
      <!-- 2.5 -->
      <g transform="translate(675.248796 287.06881)scale(0.08 -0.08)">
       <use xlink:href="#DejaVuSans-50"/>
       <use x="63.623047" xlink:href="#DejaVuSans-46"/>
       <use x="95.410156" xlink:href="#DejaVuSans-53"/>
      </g>
     </g>
    </g>
    <g id="xtick_7">
     <g id="text_7">
      <!-- 3.0 -->
      <g transform="translate(803.450681 287.06881)scale(0.08 -0.08)">
       <defs>
        <path d="M 40.578125 39.3125
Q 47.65625 37.796875 51.625 33
Q 55.609375 28.21875 55.609375 21.1875
Q 55.609375 10.40625 48.1875 4.484375
Q 40.765625 -1.421875 27.09375 -1.421875
Q 22.515625 -1.421875 17.65625 -0.515625
Q 12.796875 0.390625 7.625 2.203125
L 7.625 11.71875
Q 11.71875 9.328125 16.59375 8.109375
Q 21.484375 6.890625 26.8125 6.890625
Q 36.078125 6.890625 40.9375 10.546875
Q 45.796875 14.203125 45.796875 21.1875
Q 45.796875 27.640625 41.28125 31.265625
Q 36.765625 34.90625 28.71875 34.90625
L 20.21875 34.90625
L 20.21875 43.015625
L 29.109375 43.015625
Q 36.375 43.015625 40.234375 45.921875
Q 44.09375 48.828125 44.09375 54.296875
Q 44.09375 59.90625 40.109375 62.90625
Q 36.140625 65.921875 28.71875 65.921875
Q 24.65625 65.921875 20.015625 65.03125
Q 15.375 64.15625 9.8125 62.3125
L 9.8125 71.09375
Q 15.4375 72.65625 20.34375 73.4375
Q 25.25 74.21875 29.59375 74.21875
Q 40.828125 74.21875 47.359375 69.109375
Q 53.90625 64.015625 53.90625 55.328125
Q 53.90625 49.265625 50.4375 45.09375
Q 46.96875 40.921875 40.578125 39.3125
z
" id="DejaVuSans-51"/>
       </defs>
       <use xlink:href="#DejaVuSans-51"/>
       <use x="63.623047" xlink:href="#DejaVuSans-46"/>
       <use x="95.410156" xlink:href="#DejaVuSans-48"/>
      </g>
     </g>
    </g>
    <g id="xtick_8">
     <g id="text_8">
      <!-- 3.5 -->
      <g transform="translate(931.652565 287.06881)scale(0.08 -0.08)">
       <use xlink:href="#DejaVuSans-51"/>
       <use x="63.623047" xlink:href="#DejaVuSans-46"/>
       <use x="95.410156" xlink:href="#DejaVuSans-53"/>
      </g>
     </g>
    </g>
    <g id="text_9">
     <!-- Total molecules (including duplicates) -->
     <g transform="translate(422.620625 300.330997)scale(0.1 -0.1)">
      <defs>
       <path d="M -0.296875 72.90625
L 61.375 72.90625
L 61.375 64.59375
L 35.5 64.59375
L 35.5 0
L 25.59375 0
L 25.59375 64.59375
L -0.296875 64.59375
z
" id="DejaVuSans-84"/>
       <path d="M 30.609375 48.390625
Q 23.390625 48.390625 19.1875 42.75
Q 14.984375 37.109375 14.984375 27.296875
Q 14.984375 17.484375 19.15625 11.84375
Q 23.34375 6.203125 30.609375 6.203125
Q 37.796875 6.203125 41.984375 11.859375
Q 46.1875 17.53125 46.1875 27.296875
Q 46.1875 37.015625 41.984375 42.703125
Q 37.796875 48.390625 30.609375 48.390625
z
M 30.609375 56
Q 42.328125 56 49.015625 48.375
Q 55.71875 40.765625 55.71875 27.296875
Q 55.71875 13.875 49.015625 6.21875
Q 42.328125 -1.421875 30.609375 -1.421875
Q 18.84375 -1.421875 12.171875 6.21875
Q 5.515625 13.875 5.515625 27.296875
Q 5.515625 40.765625 12.171875 48.375
Q 18.84375 56 30.609375 56
z
" id="DejaVuSans-111"/>
       <path d="M 18.3125 70.21875
L 18.3125 54.6875
L 36.8125 54.6875
L 36.8125 47.703125
L 18.3125 47.703125
L 18.3125 18.015625
Q 18.3125 11.328125 20.140625 9.421875
Q 21.96875 7.515625 27.59375 7.515625
L 36.8125 7.515625
L 36.8125 0
L 27.59375 0
Q 17.1875 0 13.234375 3.875
Q 9.28125 7.765625 9.28125 18.015625
L 9.28125 47.703125
L 2.6875 47.703125
L 2.6875 54.6875
L 9.28125 54.6875
L 9.28125 70.21875
z
" id="DejaVuSans-116"/>
       <path d="M 34.28125 27.484375
Q 23.390625 27.484375 19.1875 25
Q 14.984375 22.515625 14.984375 16.5
Q 14.984375 11.71875 18.140625 8.90625
Q 21.296875 6.109375 26.703125 6.109375
Q 34.1875 6.109375 38.703125 11.40625
Q 43.21875 16.703125 43.21875 25.484375
L 43.21875 27.484375
z
M 52.203125 31.203125
L 52.203125 0
L 43.21875 0
L 43.21875 8.296875
Q 40.140625 3.328125 35.546875 0.953125
Q 30.953125 -1.421875 24.3125 -1.421875
Q 15.921875 -1.421875 10.953125 3.296875
Q 6 8.015625 6 15.921875
Q 6 25.140625 12.171875 29.828125
Q 18.359375 34.515625 30.609375 34.515625
L 43.21875 34.515625
L 43.21875 35.40625
Q 43.21875 41.609375 39.140625 45
Q 35.0625 48.390625 27.6875 48.390625
Q 23 48.390625 18.546875 47.265625
Q 14.109375 46.140625 10.015625 43.890625
L 10.015625 52.203125
Q 14.9375 54.109375 19.578125 55.046875
Q 24.21875 56 28.609375 56
Q 40.484375 56 46.34375 49.84375
Q 52.203125 43.703125 52.203125 31.203125
z
" id="DejaVuSans-97"/>
       <path d="M 9.421875 75.984375
L 18.40625 75.984375
L 18.40625 0
L 9.421875 0
z
" id="DejaVuSans-108"/>
       <path id="DejaVuSans-32"/>
       <path d="M 52 44.1875
Q 55.375 50.25 60.0625 53.125
Q 64.75 56 71.09375 56
Q 79.640625 56 84.28125 50.015625
Q 88.921875 44.046875 88.921875 33.015625
L 88.921875 0
L 79.890625 0
L 79.890625 32.71875
Q 79.890625 40.578125 77.09375 44.375
Q 74.3125 48.1875 68.609375 48.1875
Q 61.625 48.1875 57.5625 43.546875
Q 53.515625 38.921875 53.515625 30.90625
L 53.515625 0
L 44.484375 0
L 44.484375 32.71875
Q 44.484375 40.625 41.703125 44.40625
Q 38.921875 48.1875 33.109375 48.1875
Q 26.21875 48.1875 22.15625 43.53125
Q 18.109375 38.875 18.109375 30.90625
L 18.109375 0
L 9.078125 0
L 9.078125 54.6875
L 18.109375 54.6875
L 18.109375 46.1875
Q 21.1875 51.21875 25.484375 53.609375
Q 29.78125 56 35.6875 56
Q 41.65625 56 45.828125 52.96875
Q 50 49.953125 52 44.1875
z
" id="DejaVuSans-109"/>
       <path d="M 56.203125 29.59375
L 56.203125 25.203125
L 14.890625 25.203125
Q 15.484375 15.921875 20.484375 11.0625
Q 25.484375 6.203125 34.421875 6.203125
Q 39.59375 6.203125 44.453125 7.46875
Q 49.3125 8.734375 54.109375 11.28125
L 54.109375 2.78125
Q 49.265625 0.734375 44.1875 -0.34375
Q 39.109375 -1.421875 33.890625 -1.421875
Q 20.796875 -1.421875 13.15625 6.1875
Q 5.515625 13.8125 5.515625 26.8125
Q 5.515625 40.234375 12.765625 48.109375
Q 20.015625 56 32.328125 56
Q 43.359375 56 49.78125 48.890625
Q 56.203125 41.796875 56.203125 29.59375
z
M 47.21875 32.234375
Q 47.125 39.59375 43.09375 43.984375
Q 39.0625 48.390625 32.421875 48.390625
Q 24.90625 48.390625 20.390625 44.140625
Q 15.875 39.890625 15.1875 32.171875
z
" id="DejaVuSans-101"/>
       <path d="M 48.78125 52.59375
L 48.78125 44.1875
Q 44.96875 46.296875 41.140625 47.34375
Q 37.3125 48.390625 33.40625 48.390625
Q 24.65625 48.390625 19.8125 42.84375
Q 14.984375 37.3125 14.984375 27.296875
Q 14.984375 17.28125 19.8125 11.734375
Q 24.65625 6.203125 33.40625 6.203125
Q 37.3125 6.203125 41.140625 7.25
Q 44.96875 8.296875 48.78125 10.40625
L 48.78125 2.09375
Q 45.015625 0.34375 40.984375 -0.53125
Q 36.96875 -1.421875 32.421875 -1.421875
Q 20.0625 -1.421875 12.78125 6.34375
Q 5.515625 14.109375 5.515625 27.296875
Q 5.515625 40.671875 12.859375 48.328125
Q 20.21875 56 33.015625 56
Q 37.15625 56 41.109375 55.140625
Q 45.0625 54.296875 48.78125 52.59375
z
" id="DejaVuSans-99"/>
       <path d="M 8.5 21.578125
L 8.5 54.6875
L 17.484375 54.6875
L 17.484375 21.921875
Q 17.484375 14.15625 20.5 10.265625
Q 23.53125 6.390625 29.59375 6.390625
Q 36.859375 6.390625 41.078125 11.03125
Q 45.3125 15.671875 45.3125 23.6875
L 45.3125 54.6875
L 54.296875 54.6875
L 54.296875 0
L 45.3125 0
L 45.3125 8.40625
Q 42.046875 3.421875 37.71875 1
Q 33.40625 -1.421875 27.6875 -1.421875
Q 18.265625 -1.421875 13.375 4.4375
Q 8.5 10.296875 8.5 21.578125
z
M 31.109375 56
z
" id="DejaVuSans-117"/>
       <path d="M 44.28125 53.078125
L 44.28125 44.578125
Q 40.484375 46.53125 36.375 47.5
Q 32.28125 48.484375 27.875 48.484375
Q 21.1875 48.484375 17.84375 46.4375
Q 14.5 44.390625 14.5 40.28125
Q 14.5 37.15625 16.890625 35.375
Q 19.28125 33.59375 26.515625 31.984375
L 29.59375 31.296875
Q 39.15625 29.25 43.1875 25.515625
Q 47.21875 21.78125 47.21875 15.09375
Q 47.21875 7.46875 41.1875 3.015625
Q 35.15625 -1.421875 24.609375 -1.421875
Q 20.21875 -1.421875 15.453125 -0.5625
Q 10.6875 0.296875 5.421875 2
L 5.421875 11.28125
Q 10.40625 8.6875 15.234375 7.390625
Q 20.0625 6.109375 24.8125 6.109375
Q 31.15625 6.109375 34.5625 8.28125
Q 37.984375 10.453125 37.984375 14.40625
Q 37.984375 18.0625 35.515625 20.015625
Q 33.0625 21.96875 24.703125 23.78125
L 21.578125 24.515625
Q 13.234375 26.265625 9.515625 29.90625
Q 5.8125 33.546875 5.8125 39.890625
Q 5.8125 47.609375 11.28125 51.796875
Q 16.75 56 26.8125 56
Q 31.78125 56 36.171875 55.265625
Q 40.578125 54.546875 44.28125 53.078125
z
" id="DejaVuSans-115"/>
       <path d="M 31 75.875
Q 24.46875 64.65625 21.28125 53.65625
Q 18.109375 42.671875 18.109375 31.390625
Q 18.109375 20.125 21.3125 9.0625
Q 24.515625 -2 31 -13.1875
L 23.1875 -13.1875
Q 15.875 -1.703125 12.234375 9.375
Q 8.59375 20.453125 8.59375 31.390625
Q 8.59375 42.28125 12.203125 53.3125
Q 15.828125 64.359375 23.1875 75.875
z
" id="DejaVuSans-40"/>
       <path d="M 9.421875 54.6875
L 18.40625 54.6875
L 18.40625 0
L 9.421875 0
z
M 9.421875 75.984375
L 18.40625 75.984375
L 18.40625 64.59375
L 9.421875 64.59375
z
" id="DejaVuSans-105"/>
       <path d="M 54.890625 33.015625
L 54.890625 0
L 45.90625 0
L 45.90625 32.71875
Q 45.90625 40.484375 42.875 44.328125
Q 39.84375 48.1875 33.796875 48.1875
Q 26.515625 48.1875 22.3125 43.546875
Q 18.109375 38.921875 18.109375 30.90625
L 18.109375 0
L 9.078125 0
L 9.078125 54.6875
L 18.109375 54.6875
L 18.109375 46.1875
Q 21.34375 51.125 25.703125 53.5625
Q 30.078125 56 35.796875 56
Q 45.21875 56 50.046875 50.171875
Q 54.890625 44.34375 54.890625 33.015625
z
" id="DejaVuSans-110"/>
       <path d="M 45.40625 46.390625
L 45.40625 75.984375
L 54.390625 75.984375
L 54.390625 0
L 45.40625 0
L 45.40625 8.203125
Q 42.578125 3.328125 38.25 0.953125
Q 33.9375 -1.421875 27.875 -1.421875
Q 17.96875 -1.421875 11.734375 6.484375
Q 5.515625 14.40625 5.515625 27.296875
Q 5.515625 40.1875 11.734375 48.09375
Q 17.96875 56 27.875 56
Q 33.9375 56 38.25 53.625
Q 42.578125 51.265625 45.40625 46.390625
z
M 14.796875 27.296875
Q 14.796875 17.390625 18.875 11.75
Q 22.953125 6.109375 30.078125 6.109375
Q 37.203125 6.109375 41.296875 11.75
Q 45.40625 17.390625 45.40625 27.296875
Q 45.40625 37.203125 41.296875 42.84375
Q 37.203125 48.484375 30.078125 48.484375
Q 22.953125 48.484375 18.875 42.84375
Q 14.796875 37.203125 14.796875 27.296875
z
" id="DejaVuSans-100"/>
       <path d="M 45.40625 27.984375
Q 45.40625 37.75 41.375 43.109375
Q 37.359375 48.484375 30.078125 48.484375
Q 22.859375 48.484375 18.828125 43.109375
Q 14.796875 37.75 14.796875 27.984375
Q 14.796875 18.265625 18.828125 12.890625
Q 22.859375 7.515625 30.078125 7.515625
Q 37.359375 7.515625 41.375 12.890625
Q 45.40625 18.265625 45.40625 27.984375
z
M 54.390625 6.78125
Q 54.390625 -7.171875 48.1875 -13.984375
Q 42 -20.796875 29.203125 -20.796875
Q 24.46875 -20.796875 20.265625 -20.09375
Q 16.0625 -19.390625 12.109375 -17.921875
L 12.109375 -9.1875
Q 16.0625 -11.328125 19.921875 -12.34375
Q 23.78125 -13.375 27.78125 -13.375
Q 36.625 -13.375 41.015625 -8.765625
Q 45.40625 -4.15625 45.40625 5.171875
L 45.40625 9.625
Q 42.625 4.78125 38.28125 2.390625
Q 33.9375 0 27.875 0
Q 17.828125 0 11.671875 7.65625
Q 5.515625 15.328125 5.515625 27.984375
Q 5.515625 40.671875 11.671875 48.328125
Q 17.828125 56 27.875 56
Q 33.9375 56 38.28125 53.609375
Q 42.625 51.21875 45.40625 46.390625
L 45.40625 54.6875
L 54.390625 54.6875
z
" id="DejaVuSans-103"/>
       <path d="M 18.109375 8.203125
L 18.109375 -20.796875
L 9.078125 -20.796875
L 9.078125 54.6875
L 18.109375 54.6875
L 18.109375 46.390625
Q 20.953125 51.265625 25.265625 53.625
Q 29.59375 56 35.59375 56
Q 45.5625 56 51.78125 48.09375
Q 58.015625 40.1875 58.015625 27.296875
Q 58.015625 14.40625 51.78125 6.484375
Q 45.5625 -1.421875 35.59375 -1.421875
Q 29.59375 -1.421875 25.265625 0.953125
Q 20.953125 3.328125 18.109375 8.203125
z
M 48.6875 27.296875
Q 48.6875 37.203125 44.609375 42.84375
Q 40.53125 48.484375 33.40625 48.484375
Q 26.265625 48.484375 22.1875 42.84375
Q 18.109375 37.203125 18.109375 27.296875
Q 18.109375 17.390625 22.1875 11.75
Q 26.265625 6.109375 33.40625 6.109375
Q 40.53125 6.109375 44.609375 11.75
Q 48.6875 17.390625 48.6875 27.296875
z
" id="DejaVuSans-112"/>
       <path d="M 8.015625 75.875
L 15.828125 75.875
Q 23.140625 64.359375 26.78125 53.3125
Q 30.421875 42.28125 30.421875 31.390625
Q 30.421875 20.453125 26.78125 9.375
Q 23.140625 -1.703125 15.828125 -13.1875
L 8.015625 -13.1875
Q 14.5 -2 17.703125 9.0625
Q 20.90625 20.125 20.90625 31.390625
Q 20.90625 42.671875 17.703125 53.65625
Q 14.5 64.65625 8.015625 75.875
z
" id="DejaVuSans-41"/>
      </defs>
      <use xlink:href="#DejaVuSans-84"/>
      <use x="44.083984" xlink:href="#DejaVuSans-111"/>
      <use x="105.265625" xlink:href="#DejaVuSans-116"/>
      <use x="144.474609" xlink:href="#DejaVuSans-97"/>
      <use x="205.753906" xlink:href="#DejaVuSans-108"/>
      <use x="233.537109" xlink:href="#DejaVuSans-32"/>
      <use x="265.324219" xlink:href="#DejaVuSans-109"/>
      <use x="362.736328" xlink:href="#DejaVuSans-111"/>
      <use x="423.917969" xlink:href="#DejaVuSans-108"/>
      <use x="451.701172" xlink:href="#DejaVuSans-101"/>
      <use x="513.224609" xlink:href="#DejaVuSans-99"/>
      <use x="568.205078" xlink:href="#DejaVuSans-117"/>
      <use x="631.583984" xlink:href="#DejaVuSans-108"/>
      <use x="659.367188" xlink:href="#DejaVuSans-101"/>
      <use x="720.890625" xlink:href="#DejaVuSans-115"/>
      <use x="772.990234" xlink:href="#DejaVuSans-32"/>
      <use x="804.777344" xlink:href="#DejaVuSans-40"/>
      <use x="843.791016" xlink:href="#DejaVuSans-105"/>
      <use x="871.574219" xlink:href="#DejaVuSans-110"/>
      <use x="934.953125" xlink:href="#DejaVuSans-99"/>
      <use x="989.933594" xlink:href="#DejaVuSans-108"/>
      <use x="1017.716797" xlink:href="#DejaVuSans-117"/>
      <use x="1081.095703" xlink:href="#DejaVuSans-100"/>
      <use x="1144.572266" xlink:href="#DejaVuSans-105"/>
      <use x="1172.355469" xlink:href="#DejaVuSans-110"/>
      <use x="1235.734375" xlink:href="#DejaVuSans-103"/>
      <use x="1299.210938" xlink:href="#DejaVuSans-32"/>
      <use x="1330.998047" xlink:href="#DejaVuSans-100"/>
      <use x="1394.474609" xlink:href="#DejaVuSans-117"/>
      <use x="1457.853516" xlink:href="#DejaVuSans-112"/>
      <use x="1521.330078" xlink:href="#DejaVuSans-108"/>
      <use x="1549.113281" xlink:href="#DejaVuSans-105"/>
      <use x="1576.896484" xlink:href="#DejaVuSans-99"/>
      <use x="1631.876953" xlink:href="#DejaVuSans-97"/>
      <use x="1693.15625" xlink:href="#DejaVuSans-116"/>
      <use x="1732.365234" xlink:href="#DejaVuSans-101"/>
      <use x="1793.888672" xlink:href="#DejaVuSans-115"/>
      <use x="1845.988281" xlink:href="#DejaVuSans-41"/>
     </g>
    </g>
   </g>
   <g id="matplotlib.axis_2">
    <g id="ytick_1">
     <g id="line2d_1">
      <path clip-path="url(#p7c19146008)" d="M 40.600625 273.99006
L 993.140625 273.99006
" style="fill:none;stroke:#dedede;stroke-linecap:square;"/>
     </g>
     <g id="text_10">
      <!-- 0.0 -->
      <g transform="translate(20.878125 277.029435)scale(0.08 -0.08)">
       <use xlink:href="#DejaVuSans-48"/>
       <use x="63.623047" xlink:href="#DejaVuSans-46"/>
       <use x="95.410156" xlink:href="#DejaVuSans-48"/>
      </g>
     </g>
    </g>
    <g id="ytick_2">
     <g id="line2d_2">
      <path clip-path="url(#p7c19146008)" d="M 40.600625 246.394715
L 993.140625 246.394715
" style="fill:none;stroke:#dedede;stroke-linecap:square;"/>
     </g>
     <g id="text_11">
      <!-- 0.2 -->
      <g transform="translate(20.878125 249.43409)scale(0.08 -0.08)">
       <use xlink:href="#DejaVuSans-48"/>
       <use x="63.623047" xlink:href="#DejaVuSans-46"/>
       <use x="95.410156" xlink:href="#DejaVuSans-50"/>
      </g>
     </g>
    </g>
    <g id="ytick_3">
     <g id="line2d_3">
      <path clip-path="url(#p7c19146008)" d="M 40.600625 218.79937
L 993.140625 218.79937
" style="fill:none;stroke:#dedede;stroke-linecap:square;"/>
     </g>
     <g id="text_12">
      <!-- 0.4 -->
      <g transform="translate(20.878125 221.838745)scale(0.08 -0.08)">
       <defs>
        <path d="M 37.796875 64.3125
L 12.890625 25.390625
L 37.796875 25.390625
z
M 35.203125 72.90625
L 47.609375 72.90625
L 47.609375 25.390625
L 58.015625 25.390625
L 58.015625 17.1875
L 47.609375 17.1875
L 47.609375 0
L 37.796875 0
L 37.796875 17.1875
L 4.890625 17.1875
L 4.890625 26.703125
z
" id="DejaVuSans-52"/>
       </defs>
       <use xlink:href="#DejaVuSans-48"/>
       <use x="63.623047" xlink:href="#DejaVuSans-46"/>
       <use x="95.410156" xlink:href="#DejaVuSans-52"/>
      </g>
     </g>
    </g>
    <g id="ytick_4">
     <g id="line2d_4">
      <path clip-path="url(#p7c19146008)" d="M 40.600625 191.204026
L 993.140625 191.204026
" style="fill:none;stroke:#dedede;stroke-linecap:square;"/>
     </g>
     <g id="text_13">
      <!-- 0.6 -->
      <g transform="translate(20.878125 194.243401)scale(0.08 -0.08)">
       <defs>
        <path d="M 33.015625 40.375
Q 26.375 40.375 22.484375 35.828125
Q 18.609375 31.296875 18.609375 23.390625
Q 18.609375 15.53125 22.484375 10.953125
Q 26.375 6.390625 33.015625 6.390625
Q 39.65625 6.390625 43.53125 10.953125
Q 47.40625 15.53125 47.40625 23.390625
Q 47.40625 31.296875 43.53125 35.828125
Q 39.65625 40.375 33.015625 40.375
z
M 52.59375 71.296875
L 52.59375 62.3125
Q 48.875 64.0625 45.09375 64.984375
Q 41.3125 65.921875 37.59375 65.921875
Q 27.828125 65.921875 22.671875 59.328125
Q 17.53125 52.734375 16.796875 39.40625
Q 19.671875 43.65625 24.015625 45.921875
Q 28.375 48.1875 33.59375 48.1875
Q 44.578125 48.1875 50.953125 41.515625
Q 57.328125 34.859375 57.328125 23.390625
Q 57.328125 12.15625 50.6875 5.359375
Q 44.046875 -1.421875 33.015625 -1.421875
Q 20.359375 -1.421875 13.671875 8.265625
Q 6.984375 17.96875 6.984375 36.375
Q 6.984375 53.65625 15.1875 63.9375
Q 23.390625 74.21875 37.203125 74.21875
Q 40.921875 74.21875 44.703125 73.484375
Q 48.484375 72.75 52.59375 71.296875
z
" id="DejaVuSans-54"/>
       </defs>
       <use xlink:href="#DejaVuSans-48"/>
       <use x="63.623047" xlink:href="#DejaVuSans-46"/>
       <use x="95.410156" xlink:href="#DejaVuSans-54"/>
      </g>
     </g>
    </g>
    <g id="ytick_5">
     <g id="line2d_5">
      <path clip-path="url(#p7c19146008)" d="M 40.600625 163.608681
L 993.140625 163.608681
" style="fill:none;stroke:#dedede;stroke-linecap:square;"/>
     </g>
     <g id="text_14">
      <!-- 0.8 -->
      <g transform="translate(20.878125 166.648056)scale(0.08 -0.08)">
       <defs>
        <path d="M 31.78125 34.625
Q 24.75 34.625 20.71875 30.859375
Q 16.703125 27.09375 16.703125 20.515625
Q 16.703125 13.921875 20.71875 10.15625
Q 24.75 6.390625 31.78125 6.390625
Q 38.8125 6.390625 42.859375 10.171875
Q 46.921875 13.96875 46.921875 20.515625
Q 46.921875 27.09375 42.890625 30.859375
Q 38.875 34.625 31.78125 34.625
z
M 21.921875 38.8125
Q 15.578125 40.375 12.03125 44.71875
Q 8.5 49.078125 8.5 55.328125
Q 8.5 64.0625 14.71875 69.140625
Q 20.953125 74.21875 31.78125 74.21875
Q 42.671875 74.21875 48.875 69.140625
Q 55.078125 64.0625 55.078125 55.328125
Q 55.078125 49.078125 51.53125 44.71875
Q 48 40.375 41.703125 38.8125
Q 48.828125 37.15625 52.796875 32.3125
Q 56.78125 27.484375 56.78125 20.515625
Q 56.78125 9.90625 50.3125 4.234375
Q 43.84375 -1.421875 31.78125 -1.421875
Q 19.734375 -1.421875 13.25 4.234375
Q 6.78125 9.90625 6.78125 20.515625
Q 6.78125 27.484375 10.78125 32.3125
Q 14.796875 37.15625 21.921875 38.8125
z
M 18.3125 54.390625
Q 18.3125 48.734375 21.84375 45.5625
Q 25.390625 42.390625 31.78125 42.390625
Q 38.140625 42.390625 41.71875 45.5625
Q 45.3125 48.734375 45.3125 54.390625
Q 45.3125 60.0625 41.71875 63.234375
Q 38.140625 66.40625 31.78125 66.40625
Q 25.390625 66.40625 21.84375 63.234375
Q 18.3125 60.0625 18.3125 54.390625
z
" id="DejaVuSans-56"/>
       </defs>
       <use xlink:href="#DejaVuSans-48"/>
       <use x="63.623047" xlink:href="#DejaVuSans-46"/>
       <use x="95.410156" xlink:href="#DejaVuSans-56"/>
      </g>
     </g>
    </g>
    <g id="ytick_6">
     <g id="line2d_6">
      <path clip-path="url(#p7c19146008)" d="M 40.600625 136.013336
L 993.140625 136.013336
" style="fill:none;stroke:#dedede;stroke-linecap:square;"/>
     </g>
     <g id="text_15">
      <!-- 1.0 -->
      <g transform="translate(20.878125 139.052711)scale(0.08 -0.08)">
       <use xlink:href="#DejaVuSans-49"/>
       <use x="63.623047" xlink:href="#DejaVuSans-46"/>
       <use x="95.410156" xlink:href="#DejaVuSans-48"/>
      </g>
     </g>
    </g>
    <g id="ytick_7">
     <g id="line2d_7">
      <path clip-path="url(#p7c19146008)" d="M 40.600625 108.417991
L 993.140625 108.417991
" style="fill:none;stroke:#dedede;stroke-linecap:square;"/>
     </g>
     <g id="text_16">
      <!-- 1.2 -->
      <g transform="translate(20.878125 111.457366)scale(0.08 -0.08)">
       <use xlink:href="#DejaVuSans-49"/>
       <use x="63.623047" xlink:href="#DejaVuSans-46"/>
       <use x="95.410156" xlink:href="#DejaVuSans-50"/>
      </g>
     </g>
    </g>
    <g id="ytick_8">
     <g id="line2d_8">
      <path clip-path="url(#p7c19146008)" d="M 40.600625 80.822647
L 993.140625 80.822647
" style="fill:none;stroke:#dedede;stroke-linecap:square;"/>
     </g>
     <g id="text_17">
      <!-- 1.4 -->
      <g transform="translate(20.878125 83.862022)scale(0.08 -0.08)">
       <use xlink:href="#DejaVuSans-49"/>
       <use x="63.623047" xlink:href="#DejaVuSans-46"/>
       <use x="95.410156" xlink:href="#DejaVuSans-52"/>
      </g>
     </g>
    </g>
    <g id="ytick_9">
     <g id="line2d_9">
      <path clip-path="url(#p7c19146008)" d="M 40.600625 53.227302
L 993.140625 53.227302
" style="fill:none;stroke:#dedede;stroke-linecap:square;"/>
     </g>
     <g id="text_18">
      <!-- 1.6 -->
      <g transform="translate(20.878125 56.266677)scale(0.08 -0.08)">
       <use xlink:href="#DejaVuSans-49"/>
       <use x="63.623047" xlink:href="#DejaVuSans-46"/>
       <use x="95.410156" xlink:href="#DejaVuSans-54"/>
      </g>
     </g>
    </g>
    <g id="text_19">
     <!-- Unique molecules -->
     <g transform="translate(14.798438 197.345835)rotate(-90)scale(0.1 -0.1)">
      <defs>
       <path d="M 8.6875 72.90625
L 18.609375 72.90625
L 18.609375 28.609375
Q 18.609375 16.890625 22.84375 11.734375
Q 27.09375 6.59375 36.625 6.59375
Q 46.09375 6.59375 50.34375 11.734375
Q 54.59375 16.890625 54.59375 28.609375
L 54.59375 72.90625
L 64.5 72.90625
L 64.5 27.390625
Q 64.5 13.140625 57.4375 5.859375
Q 50.390625 -1.421875 36.625 -1.421875
Q 22.796875 -1.421875 15.734375 5.859375
Q 8.6875 13.140625 8.6875 27.390625
z
" id="DejaVuSans-85"/>
       <path d="M 14.796875 27.296875
Q 14.796875 17.390625 18.875 11.75
Q 22.953125 6.109375 30.078125 6.109375
Q 37.203125 6.109375 41.296875 11.75
Q 45.40625 17.390625 45.40625 27.296875
Q 45.40625 37.203125 41.296875 42.84375
Q 37.203125 48.484375 30.078125 48.484375
Q 22.953125 48.484375 18.875 42.84375
Q 14.796875 37.203125 14.796875 27.296875
z
M 45.40625 8.203125
Q 42.578125 3.328125 38.25 0.953125
Q 33.9375 -1.421875 27.875 -1.421875
Q 17.96875 -1.421875 11.734375 6.484375
Q 5.515625 14.40625 5.515625 27.296875
Q 5.515625 40.1875 11.734375 48.09375
Q 17.96875 56 27.875 56
Q 33.9375 56 38.25 53.625
Q 42.578125 51.265625 45.40625 46.390625
L 45.40625 54.6875
L 54.390625 54.6875
L 54.390625 -20.796875
L 45.40625 -20.796875
z
" id="DejaVuSans-113"/>
      </defs>
      <use xlink:href="#DejaVuSans-85"/>
      <use x="73.193359" xlink:href="#DejaVuSans-110"/>
      <use x="136.572266" xlink:href="#DejaVuSans-105"/>
      <use x="164.355469" xlink:href="#DejaVuSans-113"/>
      <use x="227.832031" xlink:href="#DejaVuSans-117"/>
      <use x="291.210938" xlink:href="#DejaVuSans-101"/>
      <use x="352.734375" xlink:href="#DejaVuSans-32"/>
      <use x="384.521484" xlink:href="#DejaVuSans-109"/>
      <use x="481.933594" xlink:href="#DejaVuSans-111"/>
      <use x="543.115234" xlink:href="#DejaVuSans-108"/>
      <use x="570.898438" xlink:href="#DejaVuSans-101"/>
      <use x="632.421875" xlink:href="#DejaVuSans-99"/>
      <use x="687.402344" xlink:href="#DejaVuSans-117"/>
      <use x="750.78125" xlink:href="#DejaVuSans-108"/>
      <use x="778.564453" xlink:href="#DejaVuSans-101"/>
      <use x="840.087891" xlink:href="#DejaVuSans-115"/>
     </g>
    </g>
   </g>
   <g id="line2d_10">
    <path clip-path="url(#p7c19146008)" d="M 40.600625 273.99006
L 42.139048 273.14854
L 53.16441 267.38539
L 64.446175 261.710821
L 77.00996 255.625634
L 91.368571 248.940938
L 105.214375 242.742747
L 120.085793 236.332625
L 134.700808 230.263718
L 152.136264 223.298791
L 171.879354 215.74498
L 189.827618 209.158937
L 205.981056 203.442561
L 225.467742 196.795394
L 244.954428 190.399345
L 264.953922 184.079046
L 284.697013 178.064088
L 305.722122 171.887974
L 327.260038 165.789541
L 345.977513 160.665223
L 369.053852 154.558512
L 393.925018 148.220827
L 417.770568 142.366198
L 445.205772 135.880878
L 472.897379 129.58638
L 508.793906 121.779657
L 528.536996 117.641735
L 568.279581 109.626667
L 613.406644 100.996223
L 663.148975 92.00704
L 688.02014 87.700786
L 749.813449 77.502927
L 814.427198 67.531349
L 844.939247 63.045725
L 881.604986 57.830205
L 921.34757 52.381504
L 964.423403 46.698243
L 993.140625 43.030822
L 993.140625 43.030822
" style="fill:none;stroke:#7cb5ec;stroke-linecap:square;"/>
   </g>
   <g id="line2d_11">
    <path clip-path="url(#p7c19146008)" d="M 40.600625 273.99006
L 41.62624 273.414559
L 52.395198 267.823742
L 62.651349 262.724674
L 73.933115 257.327577
L 88.804533 250.509319
L 105.214375 243.332736
L 119.316582 237.425952
L 133.931597 231.535174
L 149.315823 225.569198
L 164.443645 219.916292
L 180.340679 214.189292
L 198.545346 207.879341
L 216.750014 201.81416
L 234.954682 195.974433
L 257.261809 189.104296
L 280.338149 182.301905
L 305.978525 175.076202
L 331.106095 168.30734
L 351.361992 163.058292
L 372.899909 157.666161
L 395.976248 152.09204
L 422.385836 145.952627
L 452.641481 139.211361
L 476.487031 134.102358
L 507.255484 127.756809
L 549.049298 119.548574
L 592.894342 111.402428
L 616.227085 107.245189
L 641.098251 102.940315
L 667.251435 98.547137
L 730.070359 88.517608
L 794.684108 78.893732
L 825.965368 74.46054
L 917.757917 62.223384
L 949.551984 58.228958
L 993.140625 52.93893
L 993.140625 52.93893
" style="fill:none;stroke:#434348;stroke-linecap:square;"/>
   </g>
   <g id="line2d_12">
    <path clip-path="url(#p7c19146008)" d="M 40.600625 273.99006
L 42.139048 273.149368
L 53.16441 267.414641
L 64.702579 261.671774
L 78.804787 254.953687
L 91.624975 249.101681
L 106.496394 242.58573
L 119.316582 237.183665
L 134.444404 231.043701
L 149.572227 225.138297
L 165.982068 218.976809
L 181.366294 213.413587
L 198.032539 207.603111
L 214.955188 201.916952
L 232.647048 196.186503
L 251.620926 190.267164
L 273.928054 183.586055
L 295.209567 177.470374
L 312.132216 172.775027
L 334.952151 166.662934
L 356.490068 161.110198
L 384.950886 154.071316
L 412.642493 147.524044
L 444.949368 140.230595
L 469.051322 135.013005
L 489.30722 130.766081
L 508.537503 126.843403
L 546.48526 119.400939
L 568.279581 115.291992
L 614.175855 107.00511
L 665.969416 98.198055
L 723.403861 89.037781
L 751.351871 84.788098
L 826.990983 73.910013
L 856.73382 69.860396
L 894.937982 64.831144
L 929.55249 60.435206
L 950.321196 57.864699
L 993.140625 52.722307
L 993.140625 52.722307
" style="fill:none;stroke:#90ed7d;stroke-linecap:square;"/>
   </g>
   <g id="line2d_13">
    <path clip-path="url(#p7c19146008)" d="M 40.600625 273.99006
L 44.959489 271.656598
L 56.497659 265.652954
L 69.574251 259.111064
L 81.368824 253.429596
L 93.419801 247.822636
L 107.522009 241.498611
L 122.649831 234.976313
L 138.290461 228.496789
L 153.161879 222.564065
L 168.546105 216.64583
L 187.263581 209.722296
L 203.160614 204.06387
L 222.647301 197.385107
L 244.441621 190.227702
L 263.671904 184.163763
L 283.671398 178.089752
L 303.158084 172.384414
L 324.952404 166.235206
L 346.233917 160.450118
L 375.976754 152.704518
L 396.489056 147.574958
L 421.103817 141.633542
L 451.87227 134.512149
L 479.051069 128.482567
L 515.204001 120.81244
L 554.177373 112.956046
L 575.458886 108.831922
L 620.073142 100.53952
L 670.584684 91.680035
L 726.993513 82.381784
L 789.812437 72.688919
L 861.861896 62.332386
L 893.655963 57.995777
L 933.654951 52.726446
L 977.756399 47.142528
L 993.140625 45.248108
L 993.140625 45.248108
" style="fill:none;stroke:#f7a35c;stroke-linecap:square;"/>
   </g>
   <g id="line2d_14">
    <path clip-path="url(#p7c19146008)" d="M 40.600625 273.99006
L 44.446682 271.928688
L 56.497659 265.655438
L 69.574251 259.119205
L 81.368824 253.444912
L 93.676205 247.730882
L 107.778412 241.423414
L 121.624216 235.46213
L 135.726423 229.607777
L 150.341438 223.755632
L 168.546105 216.751106
L 183.930332 211.05791
L 202.90421 204.302018
L 221.365282 197.989031
L 240.082757 191.830854
L 259.825847 185.580784
L 279.568937 179.565689
L 296.235182 174.657857
L 318.285906 168.388747
L 340.080227 162.426358
L 364.951392 155.886952
L 390.591769 149.418741
L 418.283376 142.721213
L 446.744194 136.126615
L 475.71782 129.691243
L 511.614348 122.076307
L 550.587721 114.219913
L 593.40715 106.037893
L 615.970682 101.899971
L 666.738628 92.994953
L 722.634649 83.782247
L 749.813449 79.506349
L 780.838305 74.776507
L 814.170795 69.865915
L 850.067322 64.762156
L 888.527887 59.492825
L 929.296087 54.120011
L 973.397535 48.536093
L 993.140625 46.109083
L 993.140625 46.109083
" style="fill:none;stroke:#8085e9;stroke-linecap:square;"/>
   </g>
   <g id="line2d_15">
    <path clip-path="url(#p7c19146008)" d="M 40.600625 273.99006
L 43.67747 272.336133
L 55.21564 266.322418
L 68.035828 259.910501
L 79.830402 254.23745
L 92.906994 248.178478
L 106.752797 242.004296
L 122.393427 235.30387
L 140.085287 228.045467
L 154.956706 222.184905
L 169.571721 216.623064
L 185.981562 210.59555
L 206.493863 203.361983
L 223.929319 197.454923
L 242.133987 191.507574
L 259.825847 185.929038
L 278.030515 180.381545
L 299.312027 174.128992
L 319.055118 168.536934
L 340.33663 162.719421
L 365.4642 156.113095
L 387.25852 150.596372
L 413.411704 144.221295
L 437.257255 138.625373
L 465.718073 132.19828
L 494.691699 125.918959
L 514.434789 121.781037
L 552.895354 114.029505
L 574.176867 109.904001
L 619.560334 101.466724
L 670.32828 92.563086
L 695.45585 88.346517
L 758.787581 78.234203
L 786.479188 74.024533
L 864.938741 62.736658
L 943.398294 52.293199
L 979.551225 47.735828
L 993.140625 46.060791
L 993.140625 46.060791
" style="fill:none;stroke:#f15c80;stroke-linecap:square;"/>
   </g>
   <g id="line2d_16">
    <path clip-path="url(#p7c19146008)" d="M 40.600625 273.99006
L 451.330745 52.966802
" style="fill:none;stroke:#000000;stroke-dasharray:3.7,1.6;stroke-dashoffset:0;"/>
   </g>
   <g id="line2d_17">
    <path clip-path="url(#p7c19146008)" d="M 40.600625 273.99006
L 993.140625 273.99006
" style="fill:none;stroke:#dedede;stroke-linecap:square;stroke-width:2;"/>
   </g>
   <g id="text_20">
    <!-- Preseq: Complexity curve -->
    <g transform="translate(414.605625 19.3575)scale(0.16 -0.16)">
     <defs>
      <path d="M 19.671875 64.796875
L 19.671875 37.40625
L 32.078125 37.40625
Q 38.96875 37.40625 42.71875 40.96875
Q 46.484375 44.53125 46.484375 51.125
Q 46.484375 57.671875 42.71875 61.234375
Q 38.96875 64.796875 32.078125 64.796875
z
M 9.8125 72.90625
L 32.078125 72.90625
Q 44.34375 72.90625 50.609375 67.359375
Q 56.890625 61.8125 56.890625 51.125
Q 56.890625 40.328125 50.609375 34.8125
Q 44.34375 29.296875 32.078125 29.296875
L 19.671875 29.296875
L 19.671875 0
L 9.8125 0
z
" id="DejaVuSans-80"/>
      <path d="M 41.109375 46.296875
Q 39.59375 47.171875 37.8125 47.578125
Q 36.03125 48 33.890625 48
Q 26.265625 48 22.1875 43.046875
Q 18.109375 38.09375 18.109375 28.8125
L 18.109375 0
L 9.078125 0
L 9.078125 54.6875
L 18.109375 54.6875
L 18.109375 46.1875
Q 20.953125 51.171875 25.484375 53.578125
Q 30.03125 56 36.53125 56
Q 37.453125 56 38.578125 55.875
Q 39.703125 55.765625 41.0625 55.515625
z
" id="DejaVuSans-114"/>
      <path d="M 11.71875 12.40625
L 22.015625 12.40625
L 22.015625 0
L 11.71875 0
z
M 11.71875 51.703125
L 22.015625 51.703125
L 22.015625 39.3125
L 11.71875 39.3125
z
" id="DejaVuSans-58"/>
      <path d="M 64.40625 67.28125
L 64.40625 56.890625
Q 59.421875 61.53125 53.78125 63.8125
Q 48.140625 66.109375 41.796875 66.109375
Q 29.296875 66.109375 22.65625 58.46875
Q 16.015625 50.828125 16.015625 36.375
Q 16.015625 21.96875 22.65625 14.328125
Q 29.296875 6.6875 41.796875 6.6875
Q 48.140625 6.6875 53.78125 8.984375
Q 59.421875 11.28125 64.40625 15.921875
L 64.40625 5.609375
Q 59.234375 2.09375 53.4375 0.328125
Q 47.65625 -1.421875 41.21875 -1.421875
Q 24.65625 -1.421875 15.125 8.703125
Q 5.609375 18.84375 5.609375 36.375
Q 5.609375 53.953125 15.125 64.078125
Q 24.65625 74.21875 41.21875 74.21875
Q 47.75 74.21875 53.53125 72.484375
Q 59.328125 70.75 64.40625 67.28125
z
" id="DejaVuSans-67"/>
      <path d="M 54.890625 54.6875
L 35.109375 28.078125
L 55.90625 0
L 45.3125 0
L 29.390625 21.484375
L 13.484375 0
L 2.875 0
L 24.125 28.609375
L 4.6875 54.6875
L 15.28125 54.6875
L 29.78125 35.203125
L 44.28125 54.6875
z
" id="DejaVuSans-120"/>
      <path d="M 32.171875 -5.078125
Q 28.375 -14.84375 24.75 -17.8125
Q 21.140625 -20.796875 15.09375 -20.796875
L 7.90625 -20.796875
L 7.90625 -13.28125
L 13.1875 -13.28125
Q 16.890625 -13.28125 18.9375 -11.515625
Q 21 -9.765625 23.484375 -3.21875
L 25.09375 0.875
L 2.984375 54.6875
L 12.5 54.6875
L 29.59375 11.921875
L 46.6875 54.6875
L 56.203125 54.6875
z
" id="DejaVuSans-121"/>
      <path d="M 2.984375 54.6875
L 12.5 54.6875
L 29.59375 8.796875
L 46.6875 54.6875
L 56.203125 54.6875
L 35.6875 0
L 23.484375 0
z
" id="DejaVuSans-118"/>
     </defs>
     <use xlink:href="#DejaVuSans-80"/>
     <use x="58.552734" xlink:href="#DejaVuSans-114"/>
     <use x="97.416016" xlink:href="#DejaVuSans-101"/>
     <use x="158.939453" xlink:href="#DejaVuSans-115"/>
     <use x="211.039062" xlink:href="#DejaVuSans-101"/>
     <use x="272.5625" xlink:href="#DejaVuSans-113"/>
     <use x="336.039062" xlink:href="#DejaVuSans-58"/>
     <use x="369.730469" xlink:href="#DejaVuSans-32"/>
     <use x="401.517578" xlink:href="#DejaVuSans-67"/>
     <use x="471.341797" xlink:href="#DejaVuSans-111"/>
     <use x="532.523438" xlink:href="#DejaVuSans-109"/>
     <use x="629.935547" xlink:href="#DejaVuSans-112"/>
     <use x="693.412109" xlink:href="#DejaVuSans-108"/>
     <use x="721.195312" xlink:href="#DejaVuSans-101"/>
     <use x="780.96875" xlink:href="#DejaVuSans-120"/>
     <use x="840.148438" xlink:href="#DejaVuSans-105"/>
     <use x="867.931641" xlink:href="#DejaVuSans-116"/>
     <use x="907.140625" xlink:href="#DejaVuSans-121"/>
     <use x="966.320312" xlink:href="#DejaVuSans-32"/>
     <use x="998.107422" xlink:href="#DejaVuSans-99"/>
     <use x="1053.087891" xlink:href="#DejaVuSans-117"/>
     <use x="1116.466797" xlink:href="#DejaVuSans-114"/>
     <use x="1157.580078" xlink:href="#DejaVuSans-118"/>
     <use x="1216.759766" xlink:href="#DejaVuSans-101"/>
    </g>
   </g>
   <g id="legend_1">
    <g id="line2d_18">
     <path d="M 47.800625 303.935394
L 63.800625 303.935394
" style="fill:none;stroke:#7cb5ec;stroke-linecap:square;"/>
    </g>
    <g id="line2d_19"/>
    <g id="text_21">
     <!-- IP283.filtered.ccurve -->
     <g transform="translate(70.200625 306.735394)scale(0.08 -0.08)">
      <defs>
       <path d="M 9.8125 72.90625
L 19.671875 72.90625
L 19.671875 0
L 9.8125 0
z
" id="DejaVuSans-73"/>
       <path d="M 37.109375 75.984375
L 37.109375 68.5
L 28.515625 68.5
Q 23.6875 68.5 21.796875 66.546875
Q 19.921875 64.59375 19.921875 59.515625
L 19.921875 54.6875
L 34.71875 54.6875
L 34.71875 47.703125
L 19.921875 47.703125
L 19.921875 0
L 10.890625 0
L 10.890625 47.703125
L 2.296875 47.703125
L 2.296875 54.6875
L 10.890625 54.6875
L 10.890625 58.5
Q 10.890625 67.625 15.140625 71.796875
Q 19.390625 75.984375 28.609375 75.984375
z
" id="DejaVuSans-102"/>
      </defs>
      <use xlink:href="#DejaVuSans-73"/>
      <use x="29.492188" xlink:href="#DejaVuSans-80"/>
      <use x="89.794922" xlink:href="#DejaVuSans-50"/>
      <use x="153.417969" xlink:href="#DejaVuSans-56"/>
      <use x="217.041016" xlink:href="#DejaVuSans-51"/>
      <use x="280.664062" xlink:href="#DejaVuSans-46"/>
      <use x="312.451172" xlink:href="#DejaVuSans-102"/>
      <use x="347.65625" xlink:href="#DejaVuSans-105"/>
      <use x="375.439453" xlink:href="#DejaVuSans-108"/>
      <use x="403.222656" xlink:href="#DejaVuSans-116"/>
      <use x="442.431641" xlink:href="#DejaVuSans-101"/>
      <use x="503.955078" xlink:href="#DejaVuSans-114"/>
      <use x="542.818359" xlink:href="#DejaVuSans-101"/>
      <use x="604.341797" xlink:href="#DejaVuSans-100"/>
      <use x="667.818359" xlink:href="#DejaVuSans-46"/>
      <use x="699.605469" xlink:href="#DejaVuSans-99"/>
      <use x="754.585938" xlink:href="#DejaVuSans-99"/>
      <use x="809.566406" xlink:href="#DejaVuSans-117"/>
      <use x="872.945312" xlink:href="#DejaVuSans-114"/>
      <use x="914.058594" xlink:href="#DejaVuSans-118"/>
      <use x="973.238281" xlink:href="#DejaVuSans-101"/>
     </g>
    </g>
    <g id="line2d_20">
     <path d="M 47.800625 315.677894
L 63.800625 315.677894
" style="fill:none;stroke:#434348;stroke-linecap:square;"/>
    </g>
    <g id="line2d_21"/>
    <g id="text_22">
     <!-- IP542.filtered.ccurve -->
     <g transform="translate(70.200625 318.477894)scale(0.08 -0.08)">
      <use xlink:href="#DejaVuSans-73"/>
      <use x="29.492188" xlink:href="#DejaVuSans-80"/>
      <use x="89.794922" xlink:href="#DejaVuSans-53"/>
      <use x="153.417969" xlink:href="#DejaVuSans-52"/>
      <use x="217.041016" xlink:href="#DejaVuSans-50"/>
      <use x="280.664062" xlink:href="#DejaVuSans-46"/>
      <use x="312.451172" xlink:href="#DejaVuSans-102"/>
      <use x="347.65625" xlink:href="#DejaVuSans-105"/>
      <use x="375.439453" xlink:href="#DejaVuSans-108"/>
      <use x="403.222656" xlink:href="#DejaVuSans-116"/>
      <use x="442.431641" xlink:href="#DejaVuSans-101"/>
      <use x="503.955078" xlink:href="#DejaVuSans-114"/>
      <use x="542.818359" xlink:href="#DejaVuSans-101"/>
      <use x="604.341797" xlink:href="#DejaVuSans-100"/>
      <use x="667.818359" xlink:href="#DejaVuSans-46"/>
      <use x="699.605469" xlink:href="#DejaVuSans-99"/>
      <use x="754.585938" xlink:href="#DejaVuSans-99"/>
      <use x="809.566406" xlink:href="#DejaVuSans-117"/>
      <use x="872.945312" xlink:href="#DejaVuSans-114"/>
      <use x="914.058594" xlink:href="#DejaVuSans-118"/>
      <use x="973.238281" xlink:href="#DejaVuSans-101"/>
     </g>
    </g>
    <g id="line2d_22">
     <path d="M 233.560938 303.935394
L 249.560938 303.935394
" style="fill:none;stroke:#90ed7d;stroke-linecap:square;"/>
    </g>
    <g id="line2d_23"/>
    <g id="text_23">
     <!-- IP543.filtered.ccurve -->
     <g transform="translate(255.960938 306.735394)scale(0.08 -0.08)">
      <use xlink:href="#DejaVuSans-73"/>
      <use x="29.492188" xlink:href="#DejaVuSans-80"/>
      <use x="89.794922" xlink:href="#DejaVuSans-53"/>
      <use x="153.417969" xlink:href="#DejaVuSans-52"/>
      <use x="217.041016" xlink:href="#DejaVuSans-51"/>
      <use x="280.664062" xlink:href="#DejaVuSans-46"/>
      <use x="312.451172" xlink:href="#DejaVuSans-102"/>
      <use x="347.65625" xlink:href="#DejaVuSans-105"/>
      <use x="375.439453" xlink:href="#DejaVuSans-108"/>
      <use x="403.222656" xlink:href="#DejaVuSans-116"/>
      <use x="442.431641" xlink:href="#DejaVuSans-101"/>
      <use x="503.955078" xlink:href="#DejaVuSans-114"/>
      <use x="542.818359" xlink:href="#DejaVuSans-101"/>
      <use x="604.341797" xlink:href="#DejaVuSans-100"/>
      <use x="667.818359" xlink:href="#DejaVuSans-46"/>
      <use x="699.605469" xlink:href="#DejaVuSans-99"/>
      <use x="754.585938" xlink:href="#DejaVuSans-99"/>
      <use x="809.566406" xlink:href="#DejaVuSans-117"/>
      <use x="872.945312" xlink:href="#DejaVuSans-114"/>
      <use x="914.058594" xlink:href="#DejaVuSans-118"/>
      <use x="973.238281" xlink:href="#DejaVuSans-101"/>
     </g>
    </g>
    <g id="line2d_24">
     <path d="M 233.560938 315.677894
L 249.560938 315.677894
" style="fill:none;stroke:#f7a35c;stroke-linecap:square;"/>
    </g>
    <g id="line2d_25"/>
    <g id="text_24">
     <!-- IP557.filtered.ccurve -->
     <g transform="translate(255.960938 318.477894)scale(0.08 -0.08)">
      <defs>
       <path d="M 8.203125 72.90625
L 55.078125 72.90625
L 55.078125 68.703125
L 28.609375 0
L 18.3125 0
L 43.21875 64.59375
L 8.203125 64.59375
z
" id="DejaVuSans-55"/>
      </defs>
      <use xlink:href="#DejaVuSans-73"/>
      <use x="29.492188" xlink:href="#DejaVuSans-80"/>
      <use x="89.794922" xlink:href="#DejaVuSans-53"/>
      <use x="153.417969" xlink:href="#DejaVuSans-53"/>
      <use x="217.041016" xlink:href="#DejaVuSans-55"/>
      <use x="280.664062" xlink:href="#DejaVuSans-46"/>
      <use x="312.451172" xlink:href="#DejaVuSans-102"/>
      <use x="347.65625" xlink:href="#DejaVuSans-105"/>
      <use x="375.439453" xlink:href="#DejaVuSans-108"/>
      <use x="403.222656" xlink:href="#DejaVuSans-116"/>
      <use x="442.431641" xlink:href="#DejaVuSans-101"/>
      <use x="503.955078" xlink:href="#DejaVuSans-114"/>
      <use x="542.818359" xlink:href="#DejaVuSans-101"/>
      <use x="604.341797" xlink:href="#DejaVuSans-100"/>
      <use x="667.818359" xlink:href="#DejaVuSans-46"/>
      <use x="699.605469" xlink:href="#DejaVuSans-99"/>
      <use x="754.585938" xlink:href="#DejaVuSans-99"/>
      <use x="809.566406" xlink:href="#DejaVuSans-117"/>
      <use x="872.945312" xlink:href="#DejaVuSans-114"/>
      <use x="914.058594" xlink:href="#DejaVuSans-118"/>
      <use x="973.238281" xlink:href="#DejaVuSans-101"/>
     </g>
    </g>
    <g id="line2d_26">
     <path d="M 419.32125 303.935394
L 435.32125 303.935394
" style="fill:none;stroke:#8085e9;stroke-linecap:square;"/>
    </g>
    <g id="line2d_27"/>
    <g id="text_25">
     <!-- IP562.filtered.ccurve -->
     <g transform="translate(441.72125 306.735394)scale(0.08 -0.08)">
      <use xlink:href="#DejaVuSans-73"/>
      <use x="29.492188" xlink:href="#DejaVuSans-80"/>
      <use x="89.794922" xlink:href="#DejaVuSans-53"/>
      <use x="153.417969" xlink:href="#DejaVuSans-54"/>
      <use x="217.041016" xlink:href="#DejaVuSans-50"/>
      <use x="280.664062" xlink:href="#DejaVuSans-46"/>
      <use x="312.451172" xlink:href="#DejaVuSans-102"/>
      <use x="347.65625" xlink:href="#DejaVuSans-105"/>
      <use x="375.439453" xlink:href="#DejaVuSans-108"/>
      <use x="403.222656" xlink:href="#DejaVuSans-116"/>
      <use x="442.431641" xlink:href="#DejaVuSans-101"/>
      <use x="503.955078" xlink:href="#DejaVuSans-114"/>
      <use x="542.818359" xlink:href="#DejaVuSans-101"/>
      <use x="604.341797" xlink:href="#DejaVuSans-100"/>
      <use x="667.818359" xlink:href="#DejaVuSans-46"/>
      <use x="699.605469" xlink:href="#DejaVuSans-99"/>
      <use x="754.585938" xlink:href="#DejaVuSans-99"/>
      <use x="809.566406" xlink:href="#DejaVuSans-117"/>
      <use x="872.945312" xlink:href="#DejaVuSans-114"/>
      <use x="914.058594" xlink:href="#DejaVuSans-118"/>
      <use x="973.238281" xlink:href="#DejaVuSans-101"/>
     </g>
    </g>
    <g id="line2d_28">
     <path d="M 605.081562 303.935394
L 621.081562 303.935394
" style="fill:none;stroke:#f15c80;stroke-linecap:square;"/>
    </g>
    <g id="line2d_29"/>
    <g id="text_26">
     <!-- IP579.filtered.ccurve -->
     <g transform="translate(627.481562 306.735394)scale(0.08 -0.08)">
      <defs>
       <path d="M 10.984375 1.515625
L 10.984375 10.5
Q 14.703125 8.734375 18.5 7.8125
Q 22.3125 6.890625 25.984375 6.890625
Q 35.75 6.890625 40.890625 13.453125
Q 46.046875 20.015625 46.78125 33.40625
Q 43.953125 29.203125 39.59375 26.953125
Q 35.25 24.703125 29.984375 24.703125
Q 19.046875 24.703125 12.671875 31.3125
Q 6.296875 37.9375 6.296875 49.421875
Q 6.296875 60.640625 12.9375 67.421875
Q 19.578125 74.21875 30.609375 74.21875
Q 43.265625 74.21875 49.921875 64.515625
Q 56.59375 54.828125 56.59375 36.375
Q 56.59375 19.140625 48.40625 8.859375
Q 40.234375 -1.421875 26.421875 -1.421875
Q 22.703125 -1.421875 18.890625 -0.6875
Q 15.09375 0.046875 10.984375 1.515625
z
M 30.609375 32.421875
Q 37.25 32.421875 41.125 36.953125
Q 45.015625 41.5 45.015625 49.421875
Q 45.015625 57.28125 41.125 61.84375
Q 37.25 66.40625 30.609375 66.40625
Q 23.96875 66.40625 20.09375 61.84375
Q 16.21875 57.28125 16.21875 49.421875
Q 16.21875 41.5 20.09375 36.953125
Q 23.96875 32.421875 30.609375 32.421875
z
" id="DejaVuSans-57"/>
      </defs>
      <use xlink:href="#DejaVuSans-73"/>
      <use x="29.492188" xlink:href="#DejaVuSans-80"/>
      <use x="89.794922" xlink:href="#DejaVuSans-53"/>
      <use x="153.417969" xlink:href="#DejaVuSans-55"/>
      <use x="217.041016" xlink:href="#DejaVuSans-57"/>
      <use x="280.664062" xlink:href="#DejaVuSans-46"/>
      <use x="312.451172" xlink:href="#DejaVuSans-102"/>
      <use x="347.65625" xlink:href="#DejaVuSans-105"/>
      <use x="375.439453" xlink:href="#DejaVuSans-108"/>
      <use x="403.222656" xlink:href="#DejaVuSans-116"/>
      <use x="442.431641" xlink:href="#DejaVuSans-101"/>
      <use x="503.955078" xlink:href="#DejaVuSans-114"/>
      <use x="542.818359" xlink:href="#DejaVuSans-101"/>
      <use x="604.341797" xlink:href="#DejaVuSans-100"/>
      <use x="667.818359" xlink:href="#DejaVuSans-46"/>
      <use x="699.605469" xlink:href="#DejaVuSans-99"/>
      <use x="754.585938" xlink:href="#DejaVuSans-99"/>
      <use x="809.566406" xlink:href="#DejaVuSans-117"/>
      <use x="872.945312" xlink:href="#DejaVuSans-114"/>
      <use x="914.058594" xlink:href="#DejaVuSans-118"/>
      <use x="973.238281" xlink:href="#DejaVuSans-101"/>
     </g>
    </g>
    <g id="line2d_30">
     <path d="M 790.841875 303.935394
L 806.841875 303.935394
" style="fill:none;stroke:#000000;stroke-dasharray:3.7,1.6;stroke-dashoffset:0;"/>
    </g>
    <g id="line2d_31"/>
    <g id="text_27">
     <!-- a perfect library where each read is unique -->
     <g transform="translate(813.241875 306.735394)scale(0.08 -0.08)">
      <defs>
       <path d="M 48.6875 27.296875
Q 48.6875 37.203125 44.609375 42.84375
Q 40.53125 48.484375 33.40625 48.484375
Q 26.265625 48.484375 22.1875 42.84375
Q 18.109375 37.203125 18.109375 27.296875
Q 18.109375 17.390625 22.1875 11.75
Q 26.265625 6.109375 33.40625 6.109375
Q 40.53125 6.109375 44.609375 11.75
Q 48.6875 17.390625 48.6875 27.296875
z
M 18.109375 46.390625
Q 20.953125 51.265625 25.265625 53.625
Q 29.59375 56 35.59375 56
Q 45.5625 56 51.78125 48.09375
Q 58.015625 40.1875 58.015625 27.296875
Q 58.015625 14.40625 51.78125 6.484375
Q 45.5625 -1.421875 35.59375 -1.421875
Q 29.59375 -1.421875 25.265625 0.953125
Q 20.953125 3.328125 18.109375 8.203125
L 18.109375 0
L 9.078125 0
L 9.078125 75.984375
L 18.109375 75.984375
z
" id="DejaVuSans-98"/>
       <path d="M 4.203125 54.6875
L 13.1875 54.6875
L 24.421875 12.015625
L 35.59375 54.6875
L 46.1875 54.6875
L 57.421875 12.015625
L 68.609375 54.6875
L 77.59375 54.6875
L 63.28125 0
L 52.6875 0
L 40.921875 44.828125
L 29.109375 0
L 18.5 0
z
" id="DejaVuSans-119"/>
       <path d="M 54.890625 33.015625
L 54.890625 0
L 45.90625 0
L 45.90625 32.71875
Q 45.90625 40.484375 42.875 44.328125
Q 39.84375 48.1875 33.796875 48.1875
Q 26.515625 48.1875 22.3125 43.546875
Q 18.109375 38.921875 18.109375 30.90625
L 18.109375 0
L 9.078125 0
L 9.078125 75.984375
L 18.109375 75.984375
L 18.109375 46.1875
Q 21.34375 51.125 25.703125 53.5625
Q 30.078125 56 35.796875 56
Q 45.21875 56 50.046875 50.171875
Q 54.890625 44.34375 54.890625 33.015625
z
" id="DejaVuSans-104"/>
      </defs>
      <use xlink:href="#DejaVuSans-97"/>
      <use x="61.279297" xlink:href="#DejaVuSans-32"/>
      <use x="93.066406" xlink:href="#DejaVuSans-112"/>
      <use x="156.542969" xlink:href="#DejaVuSans-101"/>
      <use x="218.066406" xlink:href="#DejaVuSans-114"/>
      <use x="259.179688" xlink:href="#DejaVuSans-102"/>
      <use x="294.384766" xlink:href="#DejaVuSans-101"/>
      <use x="355.908203" xlink:href="#DejaVuSans-99"/>
      <use x="410.888672" xlink:href="#DejaVuSans-116"/>
      <use x="450.097656" xlink:href="#DejaVuSans-32"/>
      <use x="481.884766" xlink:href="#DejaVuSans-108"/>
      <use x="509.667969" xlink:href="#DejaVuSans-105"/>
      <use x="537.451172" xlink:href="#DejaVuSans-98"/>
      <use x="600.927734" xlink:href="#DejaVuSans-114"/>
      <use x="642.041016" xlink:href="#DejaVuSans-97"/>
      <use x="703.320312" xlink:href="#DejaVuSans-114"/>
      <use x="744.433594" xlink:href="#DejaVuSans-121"/>
      <use x="803.613281" xlink:href="#DejaVuSans-32"/>
      <use x="835.400391" xlink:href="#DejaVuSans-119"/>
      <use x="917.1875" xlink:href="#DejaVuSans-104"/>
      <use x="980.566406" xlink:href="#DejaVuSans-101"/>
      <use x="1042.089844" xlink:href="#DejaVuSans-114"/>
      <use x="1080.953125" xlink:href="#DejaVuSans-101"/>
      <use x="1142.476562" xlink:href="#DejaVuSans-32"/>
      <use x="1174.263672" xlink:href="#DejaVuSans-101"/>
      <use x="1235.787109" xlink:href="#DejaVuSans-97"/>
      <use x="1297.066406" xlink:href="#DejaVuSans-99"/>
      <use x="1352.046875" xlink:href="#DejaVuSans-104"/>
      <use x="1415.425781" xlink:href="#DejaVuSans-32"/>
      <use x="1447.212891" xlink:href="#DejaVuSans-114"/>
      <use x="1486.076172" xlink:href="#DejaVuSans-101"/>
      <use x="1547.599609" xlink:href="#DejaVuSans-97"/>
      <use x="1608.878906" xlink:href="#DejaVuSans-100"/>
      <use x="1672.355469" xlink:href="#DejaVuSans-32"/>
      <use x="1704.142578" xlink:href="#DejaVuSans-105"/>
      <use x="1731.925781" xlink:href="#DejaVuSans-115"/>
      <use x="1784.025391" xlink:href="#DejaVuSans-32"/>
      <use x="1815.8125" xlink:href="#DejaVuSans-117"/>
      <use x="1879.191406" xlink:href="#DejaVuSans-110"/>
      <use x="1942.570312" xlink:href="#DejaVuSans-105"/>
      <use x="1970.353516" xlink:href="#DejaVuSans-113"/>
      <use x="2033.830078" xlink:href="#DejaVuSans-117"/>
      <use x="2097.208984" xlink:href="#DejaVuSans-101"/>
     </g>
    </g>
   </g>
  </g>
 </g>
 <defs>
  <clipPath id="p7c19146008">
   <rect height="242.5072" width="952.54" x="40.600625" y="31.48286"/>
  </clipPath>
 </defs>
</svg>
