<?xml version="1.0" encoding="utf-8" standalone="no"?>
<!DOCTYPE svg PUBLIC "-//W3C//DTD SVG 1.1//EN"
  "http://www.w3.org/Graphics/SVG/1.1/DTD/svg11.dtd">
<!-- Created with matplotlib (https://matplotlib.org/) -->
<svg height="330.541644pt" version="1.1" viewBox="0 0 1000.358125 330.541644" width="1000.358125pt" xmlns="http://www.w3.org/2000/svg" xmlns:xlink="http://www.w3.org/1999/xlink">
 <metadata>
  <rdf:RDF xmlns:cc="http://creativecommons.org/ns#" xmlns:dc="http://purl.org/dc/elements/1.1/" xmlns:rdf="http://www.w3.org/1999/02/22-rdf-syntax-ns#">
   <cc:Work>
    <dc:type rdf:resource="http://purl.org/dc/dcmitype/StillImage"/>
    <dc:date>2021-02-12T15:21:16.779337</dc:date>
    <dc:format>image/svg+xml</dc:format>
    <dc:creator>
     <cc:Agent>
      <dc:title>Matplotlib v3.3.2, https://matplotlib.org/</dc:title>
     </cc:Agent>
    </dc:creator>
   </cc:Work>
  </rdf:RDF>
 </metadata>
 <defs>
  <style type="text/css">*{stroke-linecap:butt;stroke-linejoin:round;}</style>
 </defs>
 <g id="figure_1">
  <g id="axes_1">
   <g id="patch_1">
    <path d="M 32.968125 273.99006
L 993.158125 273.99006
L 993.158125 31.48286
L 32.968125 31.48286
z
" style="fill:#ffffff;"/>
   </g>
   <g id="patch_2">
    <path clip-path="url(#p78a60b3419)" d="M 32.968125 -696.03874
L 960.849489 -696.03874
L 960.849489 -4576.15394
L 32.968125 -4576.15394
z
" style="fill:#e6c3c3;"/>
   </g>
   <g id="patch_3">
    <path clip-path="url(#p78a60b3419)" d="M 32.968125 31.48286
L 960.849489 31.48286
L 960.849489 -696.03874
L 32.968125 -696.03874
z
" style="fill:#e6dcc3;"/>
   </g>
   <g id="patch_4">
    <path clip-path="url(#p78a60b3419)" d="M 32.968125 273.99006
L 960.849489 273.99006
L 960.849489 31.48286
L 32.968125 31.48286
z
" style="fill:#c3e6c3;"/>
   </g>
   <g id="matplotlib.axis_1">
    <g id="xtick_1">
     <g id="text_1">
      <!-- 0 -->
      <g transform="translate(62.731761 287.06881)scale(0.08 -0.08)">
       <defs>
        <path d="M 31.78125 66.40625
Q 24.171875 66.40625 20.328125 58.90625
Q 16.5 51.421875 16.5 36.375
Q 16.5 21.390625 20.328125 13.890625
Q 24.171875 6.390625 31.78125 6.390625
Q 39.453125 6.390625 43.28125 13.890625
Q 47.125 21.390625 47.125 36.375
Q 47.125 51.421875 43.28125 58.90625
Q 39.453125 66.40625 31.78125 66.40625
z
M 31.78125 74.21875
Q 44.046875 74.21875 50.515625 64.515625
Q 56.984375 54.828125 56.984375 36.375
Q 56.984375 17.96875 50.515625 8.265625
Q 44.046875 -1.421875 31.78125 -1.421875
Q 19.53125 -1.421875 13.0625 8.265625
Q 6.59375 17.96875 6.59375 36.375
Q 6.59375 54.828125 13.0625 64.515625
Q 19.53125 74.21875 31.78125 74.21875
z
" id="DejaVuSans-48"/>
       </defs>
       <use xlink:href="#DejaVuSans-48"/>
      </g>
     </g>
    </g>
    <g id="xtick_2">
     <g id="text_2">
      <!-- 10 -->
      <g transform="translate(173.550398 287.06881)scale(0.08 -0.08)">
       <defs>
        <path d="M 12.40625 8.296875
L 28.515625 8.296875
L 28.515625 63.921875
L 10.984375 60.40625
L 10.984375 69.390625
L 28.421875 72.90625
L 38.28125 72.90625
L 38.28125 8.296875
L 54.390625 8.296875
L 54.390625 0
L 12.40625 0
z
" id="DejaVuSans-49"/>
       </defs>
       <use xlink:href="#DejaVuSans-49"/>
       <use x="63.623047" xlink:href="#DejaVuSans-48"/>
      </g>
     </g>
    </g>
    <g id="xtick_3">
     <g id="text_3">
      <!-- 20 -->
      <g transform="translate(286.914034 287.06881)scale(0.08 -0.08)">
       <defs>
        <path d="M 19.1875 8.296875
L 53.609375 8.296875
L 53.609375 0
L 7.328125 0
L 7.328125 8.296875
Q 12.9375 14.109375 22.625 23.890625
Q 32.328125 33.6875 34.8125 36.53125
Q 39.546875 41.84375 41.421875 45.53125
Q 43.3125 49.21875 43.3125 52.78125
Q 43.3125 58.59375 39.234375 62.25
Q 35.15625 65.921875 28.609375 65.921875
Q 23.96875 65.921875 18.8125 64.3125
Q 13.671875 62.703125 7.8125 59.421875
L 7.8125 69.390625
Q 13.765625 71.78125 18.9375 73
Q 24.125 74.21875 28.421875 74.21875
Q 39.75 74.21875 46.484375 68.546875
Q 53.21875 62.890625 53.21875 53.421875
Q 53.21875 48.921875 51.53125 44.890625
Q 49.859375 40.875 45.40625 35.40625
Q 44.1875 33.984375 37.640625 27.21875
Q 31.109375 20.453125 19.1875 8.296875
z
" id="DejaVuSans-50"/>
       </defs>
       <use xlink:href="#DejaVuSans-50"/>
       <use x="63.623047" xlink:href="#DejaVuSans-48"/>
      </g>
     </g>
    </g>
    <g id="xtick_4">
     <g id="text_4">
      <!-- 30 -->
      <g transform="translate(400.27767 287.06881)scale(0.08 -0.08)">
       <defs>
        <path d="M 40.578125 39.3125
Q 47.65625 37.796875 51.625 33
Q 55.609375 28.21875 55.609375 21.1875
Q 55.609375 10.40625 48.1875 4.484375
Q 40.765625 -1.421875 27.09375 -1.421875
Q 22.515625 -1.421875 17.65625 -0.515625
Q 12.796875 0.390625 7.625 2.203125
L 7.625 11.71875
Q 11.71875 9.328125 16.59375 8.109375
Q 21.484375 6.890625 26.8125 6.890625
Q 36.078125 6.890625 40.9375 10.546875
Q 45.796875 14.203125 45.796875 21.1875
Q 45.796875 27.640625 41.28125 31.265625
Q 36.765625 34.90625 28.71875 34.90625
L 20.21875 34.90625
L 20.21875 43.015625
L 29.109375 43.015625
Q 36.375 43.015625 40.234375 45.921875
Q 44.09375 48.828125 44.09375 54.296875
Q 44.09375 59.90625 40.109375 62.90625
Q 36.140625 65.921875 28.71875 65.921875
Q 24.65625 65.921875 20.015625 65.03125
Q 15.375 64.15625 9.8125 62.3125
L 9.8125 71.09375
Q 15.4375 72.65625 20.34375 73.4375
Q 25.25 74.21875 29.59375 74.21875
Q 40.828125 74.21875 47.359375 69.109375
Q 53.90625 64.015625 53.90625 55.328125
Q 53.90625 49.265625 50.4375 45.09375
Q 46.96875 40.921875 40.578125 39.3125
z
" id="DejaVuSans-51"/>
       </defs>
       <use xlink:href="#DejaVuSans-51"/>
       <use x="63.623047" xlink:href="#DejaVuSans-48"/>
      </g>
     </g>
    </g>
    <g id="xtick_5">
     <g id="text_5">
      <!-- 40 -->
      <g transform="translate(513.641307 287.06881)scale(0.08 -0.08)">
       <defs>
        <path d="M 37.796875 64.3125
L 12.890625 25.390625
L 37.796875 25.390625
z
M 35.203125 72.90625
L 47.609375 72.90625
L 47.609375 25.390625
L 58.015625 25.390625
L 58.015625 17.1875
L 47.609375 17.1875
L 47.609375 0
L 37.796875 0
L 37.796875 17.1875
L 4.890625 17.1875
L 4.890625 26.703125
z
" id="DejaVuSans-52"/>
       </defs>
       <use xlink:href="#DejaVuSans-52"/>
       <use x="63.623047" xlink:href="#DejaVuSans-48"/>
      </g>
     </g>
    </g>
    <g id="xtick_6">
     <g id="text_6">
      <!-- 50 -->
      <g transform="translate(627.004943 287.06881)scale(0.08 -0.08)">
       <defs>
        <path d="M 10.796875 72.90625
L 49.515625 72.90625
L 49.515625 64.59375
L 19.828125 64.59375
L 19.828125 46.734375
Q 21.96875 47.46875 24.109375 47.828125
Q 26.265625 48.1875 28.421875 48.1875
Q 40.625 48.1875 47.75 41.5
Q 54.890625 34.8125 54.890625 23.390625
Q 54.890625 11.625 47.5625 5.09375
Q 40.234375 -1.421875 26.90625 -1.421875
Q 22.3125 -1.421875 17.546875 -0.640625
Q 12.796875 0.140625 7.71875 1.703125
L 7.71875 11.625
Q 12.109375 9.234375 16.796875 8.0625
Q 21.484375 6.890625 26.703125 6.890625
Q 35.15625 6.890625 40.078125 11.328125
Q 45.015625 15.765625 45.015625 23.390625
Q 45.015625 31 40.078125 35.4375
Q 35.15625 39.890625 26.703125 39.890625
Q 22.75 39.890625 18.8125 39.015625
Q 14.890625 38.140625 10.796875 36.28125
z
" id="DejaVuSans-53"/>
       </defs>
       <use xlink:href="#DejaVuSans-53"/>
       <use x="63.623047" xlink:href="#DejaVuSans-48"/>
      </g>
     </g>
    </g>
    <g id="xtick_7">
     <g id="text_7">
      <!-- 60 -->
      <g transform="translate(740.36858 287.06881)scale(0.08 -0.08)">
       <defs>
        <path d="M 33.015625 40.375
Q 26.375 40.375 22.484375 35.828125
Q 18.609375 31.296875 18.609375 23.390625
Q 18.609375 15.53125 22.484375 10.953125
Q 26.375 6.390625 33.015625 6.390625
Q 39.65625 6.390625 43.53125 10.953125
Q 47.40625 15.53125 47.40625 23.390625
Q 47.40625 31.296875 43.53125 35.828125
Q 39.65625 40.375 33.015625 40.375
z
M 52.59375 71.296875
L 52.59375 62.3125
Q 48.875 64.0625 45.09375 64.984375
Q 41.3125 65.921875 37.59375 65.921875
Q 27.828125 65.921875 22.671875 59.328125
Q 17.53125 52.734375 16.796875 39.40625
Q 19.671875 43.65625 24.015625 45.921875
Q 28.375 48.1875 33.59375 48.1875
Q 44.578125 48.1875 50.953125 41.515625
Q 57.328125 34.859375 57.328125 23.390625
Q 57.328125 12.15625 50.6875 5.359375
Q 44.046875 -1.421875 33.015625 -1.421875
Q 20.359375 -1.421875 13.671875 8.265625
Q 6.984375 17.96875 6.984375 36.375
Q 6.984375 53.65625 15.1875 63.9375
Q 23.390625 74.21875 37.203125 74.21875
Q 40.921875 74.21875 44.703125 73.484375
Q 48.484375 72.75 52.59375 71.296875
z
" id="DejaVuSans-54"/>
       </defs>
       <use xlink:href="#DejaVuSans-54"/>
       <use x="63.623047" xlink:href="#DejaVuSans-48"/>
      </g>
     </g>
    </g>
    <g id="xtick_8">
     <g id="text_8">
      <!-- 70 -->
      <g transform="translate(853.732216 287.06881)scale(0.08 -0.08)">
       <defs>
        <path d="M 8.203125 72.90625
L 55.078125 72.90625
L 55.078125 68.703125
L 28.609375 0
L 18.3125 0
L 43.21875 64.59375
L 8.203125 64.59375
z
" id="DejaVuSans-55"/>
       </defs>
       <use xlink:href="#DejaVuSans-55"/>
       <use x="63.623047" xlink:href="#DejaVuSans-48"/>
      </g>
     </g>
    </g>
    <g id="xtick_9">
     <g id="text_9">
      <!-- 80 -->
      <g transform="translate(967.095852 287.06881)scale(0.08 -0.08)">
       <defs>
        <path d="M 31.78125 34.625
Q 24.75 34.625 20.71875 30.859375
Q 16.703125 27.09375 16.703125 20.515625
Q 16.703125 13.921875 20.71875 10.15625
Q 24.75 6.390625 31.78125 6.390625
Q 38.8125 6.390625 42.859375 10.171875
Q 46.921875 13.96875 46.921875 20.515625
Q 46.921875 27.09375 42.890625 30.859375
Q 38.875 34.625 31.78125 34.625
z
M 21.921875 38.8125
Q 15.578125 40.375 12.03125 44.71875
Q 8.5 49.078125 8.5 55.328125
Q 8.5 64.0625 14.71875 69.140625
Q 20.953125 74.21875 31.78125 74.21875
Q 42.671875 74.21875 48.875 69.140625
Q 55.078125 64.0625 55.078125 55.328125
Q 55.078125 49.078125 51.53125 44.71875
Q 48 40.375 41.703125 38.8125
Q 48.828125 37.15625 52.796875 32.3125
Q 56.78125 27.484375 56.78125 20.515625
Q 56.78125 9.90625 50.3125 4.234375
Q 43.84375 -1.421875 31.78125 -1.421875
Q 19.734375 -1.421875 13.25 4.234375
Q 6.78125 9.90625 6.78125 20.515625
Q 6.78125 27.484375 10.78125 32.3125
Q 14.796875 37.15625 21.921875 38.8125
z
M 18.3125 54.390625
Q 18.3125 48.734375 21.84375 45.5625
Q 25.390625 42.390625 31.78125 42.390625
Q 38.140625 42.390625 41.71875 45.5625
Q 45.3125 48.734375 45.3125 54.390625
Q 45.3125 60.0625 41.71875 63.234375
Q 38.140625 66.40625 31.78125 66.40625
Q 25.390625 66.40625 21.84375 63.234375
Q 18.3125 60.0625 18.3125 54.390625
z
" id="DejaVuSans-56"/>
       </defs>
       <use xlink:href="#DejaVuSans-56"/>
       <use x="63.623047" xlink:href="#DejaVuSans-48"/>
      </g>
     </g>
    </g>
    <g id="text_10">
     <!-- Position (bp) -->
     <g transform="translate(481.76 300.330997)scale(0.1 -0.1)">
      <defs>
       <path d="M 19.671875 64.796875
L 19.671875 37.40625
L 32.078125 37.40625
Q 38.96875 37.40625 42.71875 40.96875
Q 46.484375 44.53125 46.484375 51.125
Q 46.484375 57.671875 42.71875 61.234375
Q 38.96875 64.796875 32.078125 64.796875
z
M 9.8125 72.90625
L 32.078125 72.90625
Q 44.34375 72.90625 50.609375 67.359375
Q 56.890625 61.8125 56.890625 51.125
Q 56.890625 40.328125 50.609375 34.8125
Q 44.34375 29.296875 32.078125 29.296875
L 19.671875 29.296875
L 19.671875 0
L 9.8125 0
z
" id="DejaVuSans-80"/>
       <path d="M 30.609375 48.390625
Q 23.390625 48.390625 19.1875 42.75
Q 14.984375 37.109375 14.984375 27.296875
Q 14.984375 17.484375 19.15625 11.84375
Q 23.34375 6.203125 30.609375 6.203125
Q 37.796875 6.203125 41.984375 11.859375
Q 46.1875 17.53125 46.1875 27.296875
Q 46.1875 37.015625 41.984375 42.703125
Q 37.796875 48.390625 30.609375 48.390625
z
M 30.609375 56
Q 42.328125 56 49.015625 48.375
Q 55.71875 40.765625 55.71875 27.296875
Q 55.71875 13.875 49.015625 6.21875
Q 42.328125 -1.421875 30.609375 -1.421875
Q 18.84375 -1.421875 12.171875 6.21875
Q 5.515625 13.875 5.515625 27.296875
Q 5.515625 40.765625 12.171875 48.375
Q 18.84375 56 30.609375 56
z
" id="DejaVuSans-111"/>
       <path d="M 44.28125 53.078125
L 44.28125 44.578125
Q 40.484375 46.53125 36.375 47.5
Q 32.28125 48.484375 27.875 48.484375
Q 21.1875 48.484375 17.84375 46.4375
Q 14.5 44.390625 14.5 40.28125
Q 14.5 37.15625 16.890625 35.375
Q 19.28125 33.59375 26.515625 31.984375
L 29.59375 31.296875
Q 39.15625 29.25 43.1875 25.515625
Q 47.21875 21.78125 47.21875 15.09375
Q 47.21875 7.46875 41.1875 3.015625
Q 35.15625 -1.421875 24.609375 -1.421875
Q 20.21875 -1.421875 15.453125 -0.5625
Q 10.6875 0.296875 5.421875 2
L 5.421875 11.28125
Q 10.40625 8.6875 15.234375 7.390625
Q 20.0625 6.109375 24.8125 6.109375
Q 31.15625 6.109375 34.5625 8.28125
Q 37.984375 10.453125 37.984375 14.40625
Q 37.984375 18.0625 35.515625 20.015625
Q 33.0625 21.96875 24.703125 23.78125
L 21.578125 24.515625
Q 13.234375 26.265625 9.515625 29.90625
Q 5.8125 33.546875 5.8125 39.890625
Q 5.8125 47.609375 11.28125 51.796875
Q 16.75 56 26.8125 56
Q 31.78125 56 36.171875 55.265625
Q 40.578125 54.546875 44.28125 53.078125
z
" id="DejaVuSans-115"/>
       <path d="M 9.421875 54.6875
L 18.40625 54.6875
L 18.40625 0
L 9.421875 0
z
M 9.421875 75.984375
L 18.40625 75.984375
L 18.40625 64.59375
L 9.421875 64.59375
z
" id="DejaVuSans-105"/>
       <path d="M 18.3125 70.21875
L 18.3125 54.6875
L 36.8125 54.6875
L 36.8125 47.703125
L 18.3125 47.703125
L 18.3125 18.015625
Q 18.3125 11.328125 20.140625 9.421875
Q 21.96875 7.515625 27.59375 7.515625
L 36.8125 7.515625
L 36.8125 0
L 27.59375 0
Q 17.1875 0 13.234375 3.875
Q 9.28125 7.765625 9.28125 18.015625
L 9.28125 47.703125
L 2.6875 47.703125
L 2.6875 54.6875
L 9.28125 54.6875
L 9.28125 70.21875
z
" id="DejaVuSans-116"/>
       <path d="M 54.890625 33.015625
L 54.890625 0
L 45.90625 0
L 45.90625 32.71875
Q 45.90625 40.484375 42.875 44.328125
Q 39.84375 48.1875 33.796875 48.1875
Q 26.515625 48.1875 22.3125 43.546875
Q 18.109375 38.921875 18.109375 30.90625
L 18.109375 0
L 9.078125 0
L 9.078125 54.6875
L 18.109375 54.6875
L 18.109375 46.1875
Q 21.34375 51.125 25.703125 53.5625
Q 30.078125 56 35.796875 56
Q 45.21875 56 50.046875 50.171875
Q 54.890625 44.34375 54.890625 33.015625
z
" id="DejaVuSans-110"/>
       <path id="DejaVuSans-32"/>
       <path d="M 31 75.875
Q 24.46875 64.65625 21.28125 53.65625
Q 18.109375 42.671875 18.109375 31.390625
Q 18.109375 20.125 21.3125 9.0625
Q 24.515625 -2 31 -13.1875
L 23.1875 -13.1875
Q 15.875 -1.703125 12.234375 9.375
Q 8.59375 20.453125 8.59375 31.390625
Q 8.59375 42.28125 12.203125 53.3125
Q 15.828125 64.359375 23.1875 75.875
z
" id="DejaVuSans-40"/>
       <path d="M 48.6875 27.296875
Q 48.6875 37.203125 44.609375 42.84375
Q 40.53125 48.484375 33.40625 48.484375
Q 26.265625 48.484375 22.1875 42.84375
Q 18.109375 37.203125 18.109375 27.296875
Q 18.109375 17.390625 22.1875 11.75
Q 26.265625 6.109375 33.40625 6.109375
Q 40.53125 6.109375 44.609375 11.75
Q 48.6875 17.390625 48.6875 27.296875
z
M 18.109375 46.390625
Q 20.953125 51.265625 25.265625 53.625
Q 29.59375 56 35.59375 56
Q 45.5625 56 51.78125 48.09375
Q 58.015625 40.1875 58.015625 27.296875
Q 58.015625 14.40625 51.78125 6.484375
Q 45.5625 -1.421875 35.59375 -1.421875
Q 29.59375 -1.421875 25.265625 0.953125
Q 20.953125 3.328125 18.109375 8.203125
L 18.109375 0
L 9.078125 0
L 9.078125 75.984375
L 18.109375 75.984375
z
" id="DejaVuSans-98"/>
       <path d="M 18.109375 8.203125
L 18.109375 -20.796875
L 9.078125 -20.796875
L 9.078125 54.6875
L 18.109375 54.6875
L 18.109375 46.390625
Q 20.953125 51.265625 25.265625 53.625
Q 29.59375 56 35.59375 56
Q 45.5625 56 51.78125 48.09375
Q 58.015625 40.1875 58.015625 27.296875
Q 58.015625 14.40625 51.78125 6.484375
Q 45.5625 -1.421875 35.59375 -1.421875
Q 29.59375 -1.421875 25.265625 0.953125
Q 20.953125 3.328125 18.109375 8.203125
z
M 48.6875 27.296875
Q 48.6875 37.203125 44.609375 42.84375
Q 40.53125 48.484375 33.40625 48.484375
Q 26.265625 48.484375 22.1875 42.84375
Q 18.109375 37.203125 18.109375 27.296875
Q 18.109375 17.390625 22.1875 11.75
Q 26.265625 6.109375 33.40625 6.109375
Q 40.53125 6.109375 44.609375 11.75
Q 48.6875 17.390625 48.6875 27.296875
z
" id="DejaVuSans-112"/>
       <path d="M 8.015625 75.875
L 15.828125 75.875
Q 23.140625 64.359375 26.78125 53.3125
Q 30.421875 42.28125 30.421875 31.390625
Q 30.421875 20.453125 26.78125 9.375
Q 23.140625 -1.703125 15.828125 -13.1875
L 8.015625 -13.1875
Q 14.5 -2 17.703125 9.0625
Q 20.90625 20.125 20.90625 31.390625
Q 20.90625 42.671875 17.703125 53.65625
Q 14.5 64.65625 8.015625 75.875
z
" id="DejaVuSans-41"/>
      </defs>
      <use xlink:href="#DejaVuSans-80"/>
      <use x="56.677734" xlink:href="#DejaVuSans-111"/>
      <use x="117.859375" xlink:href="#DejaVuSans-115"/>
      <use x="169.958984" xlink:href="#DejaVuSans-105"/>
      <use x="197.742188" xlink:href="#DejaVuSans-116"/>
      <use x="236.951172" xlink:href="#DejaVuSans-105"/>
      <use x="264.734375" xlink:href="#DejaVuSans-111"/>
      <use x="325.916016" xlink:href="#DejaVuSans-110"/>
      <use x="389.294922" xlink:href="#DejaVuSans-32"/>
      <use x="421.082031" xlink:href="#DejaVuSans-40"/>
      <use x="460.095703" xlink:href="#DejaVuSans-98"/>
      <use x="523.572266" xlink:href="#DejaVuSans-112"/>
      <use x="587.048828" xlink:href="#DejaVuSans-41"/>
     </g>
    </g>
   </g>
   <g id="matplotlib.axis_2">
    <g id="ytick_1">
     <g id="line2d_1">
      <path clip-path="url(#p78a60b3419)" d="M 32.968125 273.99006
L 993.158125 273.99006
" style="fill:none;stroke:#dedede;stroke-linecap:square;"/>
     </g>
     <g id="text_11">
      <!-- 0 -->
      <g transform="translate(20.878125 277.029435)scale(0.08 -0.08)">
       <use xlink:href="#DejaVuSans-48"/>
      </g>
     </g>
    </g>
    <g id="ytick_2">
     <g id="line2d_2">
      <path clip-path="url(#p78a60b3419)" d="M 32.968125 225.48862
L 993.158125 225.48862
" style="fill:none;stroke:#dedede;stroke-linecap:square;"/>
     </g>
     <g id="text_12">
      <!-- 1 -->
      <g transform="translate(20.878125 228.527995)scale(0.08 -0.08)">
       <use xlink:href="#DejaVuSans-49"/>
      </g>
     </g>
    </g>
    <g id="ytick_3">
     <g id="line2d_3">
      <path clip-path="url(#p78a60b3419)" d="M 32.968125 176.98718
L 993.158125 176.98718
" style="fill:none;stroke:#dedede;stroke-linecap:square;"/>
     </g>
     <g id="text_13">
      <!-- 2 -->
      <g transform="translate(20.878125 180.026555)scale(0.08 -0.08)">
       <use xlink:href="#DejaVuSans-50"/>
      </g>
     </g>
    </g>
    <g id="ytick_4">
     <g id="line2d_4">
      <path clip-path="url(#p78a60b3419)" d="M 32.968125 128.48574
L 993.158125 128.48574
" style="fill:none;stroke:#dedede;stroke-linecap:square;"/>
     </g>
     <g id="text_14">
      <!-- 3 -->
      <g transform="translate(20.878125 131.525115)scale(0.08 -0.08)">
       <use xlink:href="#DejaVuSans-51"/>
      </g>
     </g>
    </g>
    <g id="ytick_5">
     <g id="line2d_5">
      <path clip-path="url(#p78a60b3419)" d="M 32.968125 79.9843
L 993.158125 79.9843
" style="fill:none;stroke:#dedede;stroke-linecap:square;"/>
     </g>
     <g id="text_15">
      <!-- 4 -->
      <g transform="translate(20.878125 83.023675)scale(0.08 -0.08)">
       <use xlink:href="#DejaVuSans-52"/>
      </g>
     </g>
    </g>
    <g id="ytick_6">
     <g id="line2d_6">
      <path clip-path="url(#p78a60b3419)" d="M 32.968125 31.48286
L 993.158125 31.48286
" style="fill:none;stroke:#dedede;stroke-linecap:square;"/>
     </g>
     <g id="text_16">
      <!-- 5 -->
      <g transform="translate(20.878125 34.522235)scale(0.08 -0.08)">
       <use xlink:href="#DejaVuSans-53"/>
      </g>
     </g>
    </g>
    <g id="text_17">
     <!-- % of Sequences -->
     <g transform="translate(14.798437 192.754429)rotate(-90)scale(0.1 -0.1)">
      <defs>
       <path d="M 72.703125 32.078125
Q 68.453125 32.078125 66.03125 28.46875
Q 63.625 24.859375 63.625 18.40625
Q 63.625 12.0625 66.03125 8.421875
Q 68.453125 4.78125 72.703125 4.78125
Q 76.859375 4.78125 79.265625 8.421875
Q 81.6875 12.0625 81.6875 18.40625
Q 81.6875 24.8125 79.265625 28.4375
Q 76.859375 32.078125 72.703125 32.078125
z
M 72.703125 38.28125
Q 80.421875 38.28125 84.953125 32.90625
Q 89.5 27.546875 89.5 18.40625
Q 89.5 9.28125 84.9375 3.921875
Q 80.375 -1.421875 72.703125 -1.421875
Q 64.890625 -1.421875 60.34375 3.921875
Q 55.8125 9.28125 55.8125 18.40625
Q 55.8125 27.59375 60.375 32.9375
Q 64.9375 38.28125 72.703125 38.28125
z
M 22.3125 68.015625
Q 18.109375 68.015625 15.6875 64.375
Q 13.28125 60.75 13.28125 54.390625
Q 13.28125 47.953125 15.671875 44.328125
Q 18.0625 40.71875 22.3125 40.71875
Q 26.5625 40.71875 28.96875 44.328125
Q 31.390625 47.953125 31.390625 54.390625
Q 31.390625 60.6875 28.953125 64.34375
Q 26.515625 68.015625 22.3125 68.015625
z
M 66.40625 74.21875
L 74.21875 74.21875
L 28.609375 -1.421875
L 20.796875 -1.421875
z
M 22.3125 74.21875
Q 30.03125 74.21875 34.609375 68.875
Q 39.203125 63.53125 39.203125 54.390625
Q 39.203125 45.171875 34.640625 39.84375
Q 30.078125 34.515625 22.3125 34.515625
Q 14.546875 34.515625 10.03125 39.859375
Q 5.515625 45.21875 5.515625 54.390625
Q 5.515625 63.484375 10.046875 68.84375
Q 14.59375 74.21875 22.3125 74.21875
z
" id="DejaVuSans-37"/>
       <path d="M 37.109375 75.984375
L 37.109375 68.5
L 28.515625 68.5
Q 23.6875 68.5 21.796875 66.546875
Q 19.921875 64.59375 19.921875 59.515625
L 19.921875 54.6875
L 34.71875 54.6875
L 34.71875 47.703125
L 19.921875 47.703125
L 19.921875 0
L 10.890625 0
L 10.890625 47.703125
L 2.296875 47.703125
L 2.296875 54.6875
L 10.890625 54.6875
L 10.890625 58.5
Q 10.890625 67.625 15.140625 71.796875
Q 19.390625 75.984375 28.609375 75.984375
z
" id="DejaVuSans-102"/>
       <path d="M 53.515625 70.515625
L 53.515625 60.890625
Q 47.90625 63.578125 42.921875 64.890625
Q 37.9375 66.21875 33.296875 66.21875
Q 25.25 66.21875 20.875 63.09375
Q 16.5 59.96875 16.5 54.203125
Q 16.5 49.359375 19.40625 46.890625
Q 22.3125 44.4375 30.421875 42.921875
L 36.375 41.703125
Q 47.40625 39.59375 52.65625 34.296875
Q 57.90625 29 57.90625 20.125
Q 57.90625 9.515625 50.796875 4.046875
Q 43.703125 -1.421875 29.984375 -1.421875
Q 24.8125 -1.421875 18.96875 -0.25
Q 13.140625 0.921875 6.890625 3.21875
L 6.890625 13.375
Q 12.890625 10.015625 18.65625 8.296875
Q 24.421875 6.59375 29.984375 6.59375
Q 38.421875 6.59375 43.015625 9.90625
Q 47.609375 13.234375 47.609375 19.390625
Q 47.609375 24.75 44.3125 27.78125
Q 41.015625 30.8125 33.5 32.328125
L 27.484375 33.5
Q 16.453125 35.6875 11.515625 40.375
Q 6.59375 45.0625 6.59375 53.421875
Q 6.59375 63.09375 13.40625 68.65625
Q 20.21875 74.21875 32.171875 74.21875
Q 37.3125 74.21875 42.625 73.28125
Q 47.953125 72.359375 53.515625 70.515625
z
" id="DejaVuSans-83"/>
       <path d="M 56.203125 29.59375
L 56.203125 25.203125
L 14.890625 25.203125
Q 15.484375 15.921875 20.484375 11.0625
Q 25.484375 6.203125 34.421875 6.203125
Q 39.59375 6.203125 44.453125 7.46875
Q 49.3125 8.734375 54.109375 11.28125
L 54.109375 2.78125
Q 49.265625 0.734375 44.1875 -0.34375
Q 39.109375 -1.421875 33.890625 -1.421875
Q 20.796875 -1.421875 13.15625 6.1875
Q 5.515625 13.8125 5.515625 26.8125
Q 5.515625 40.234375 12.765625 48.109375
Q 20.015625 56 32.328125 56
Q 43.359375 56 49.78125 48.890625
Q 56.203125 41.796875 56.203125 29.59375
z
M 47.21875 32.234375
Q 47.125 39.59375 43.09375 43.984375
Q 39.0625 48.390625 32.421875 48.390625
Q 24.90625 48.390625 20.390625 44.140625
Q 15.875 39.890625 15.1875 32.171875
z
" id="DejaVuSans-101"/>
       <path d="M 14.796875 27.296875
Q 14.796875 17.390625 18.875 11.75
Q 22.953125 6.109375 30.078125 6.109375
Q 37.203125 6.109375 41.296875 11.75
Q 45.40625 17.390625 45.40625 27.296875
Q 45.40625 37.203125 41.296875 42.84375
Q 37.203125 48.484375 30.078125 48.484375
Q 22.953125 48.484375 18.875 42.84375
Q 14.796875 37.203125 14.796875 27.296875
z
M 45.40625 8.203125
Q 42.578125 3.328125 38.25 0.953125
Q 33.9375 -1.421875 27.875 -1.421875
Q 17.96875 -1.421875 11.734375 6.484375
Q 5.515625 14.40625 5.515625 27.296875
Q 5.515625 40.1875 11.734375 48.09375
Q 17.96875 56 27.875 56
Q 33.9375 56 38.25 53.625
Q 42.578125 51.265625 45.40625 46.390625
L 45.40625 54.6875
L 54.390625 54.6875
L 54.390625 -20.796875
L 45.40625 -20.796875
z
" id="DejaVuSans-113"/>
       <path d="M 8.5 21.578125
L 8.5 54.6875
L 17.484375 54.6875
L 17.484375 21.921875
Q 17.484375 14.15625 20.5 10.265625
Q 23.53125 6.390625 29.59375 6.390625
Q 36.859375 6.390625 41.078125 11.03125
Q 45.3125 15.671875 45.3125 23.6875
L 45.3125 54.6875
L 54.296875 54.6875
L 54.296875 0
L 45.3125 0
L 45.3125 8.40625
Q 42.046875 3.421875 37.71875 1
Q 33.40625 -1.421875 27.6875 -1.421875
Q 18.265625 -1.421875 13.375 4.4375
Q 8.5 10.296875 8.5 21.578125
z
M 31.109375 56
z
" id="DejaVuSans-117"/>
       <path d="M 48.78125 52.59375
L 48.78125 44.1875
Q 44.96875 46.296875 41.140625 47.34375
Q 37.3125 48.390625 33.40625 48.390625
Q 24.65625 48.390625 19.8125 42.84375
Q 14.984375 37.3125 14.984375 27.296875
Q 14.984375 17.28125 19.8125 11.734375
Q 24.65625 6.203125 33.40625 6.203125
Q 37.3125 6.203125 41.140625 7.25
Q 44.96875 8.296875 48.78125 10.40625
L 48.78125 2.09375
Q 45.015625 0.34375 40.984375 -0.53125
Q 36.96875 -1.421875 32.421875 -1.421875
Q 20.0625 -1.421875 12.78125 6.34375
Q 5.515625 14.109375 5.515625 27.296875
Q 5.515625 40.671875 12.859375 48.328125
Q 20.21875 56 33.015625 56
Q 37.15625 56 41.109375 55.140625
Q 45.0625 54.296875 48.78125 52.59375
z
" id="DejaVuSans-99"/>
      </defs>
      <use xlink:href="#DejaVuSans-37"/>
      <use x="95.019531" xlink:href="#DejaVuSans-32"/>
      <use x="126.806641" xlink:href="#DejaVuSans-111"/>
      <use x="187.988281" xlink:href="#DejaVuSans-102"/>
      <use x="223.193359" xlink:href="#DejaVuSans-32"/>
      <use x="254.980469" xlink:href="#DejaVuSans-83"/>
      <use x="318.457031" xlink:href="#DejaVuSans-101"/>
      <use x="379.980469" xlink:href="#DejaVuSans-113"/>
      <use x="443.457031" xlink:href="#DejaVuSans-117"/>
      <use x="506.835938" xlink:href="#DejaVuSans-101"/>
      <use x="568.359375" xlink:href="#DejaVuSans-110"/>
      <use x="631.738281" xlink:href="#DejaVuSans-99"/>
      <use x="686.71875" xlink:href="#DejaVuSans-101"/>
      <use x="748.242188" xlink:href="#DejaVuSans-115"/>
     </g>
    </g>
   </g>
   <g id="line2d_7">
    <path clip-path="url(#p78a60b3419)" d="M 76.613125 273.99006
L 87.949489 273.99006
L 99.285852 273.99006
L 110.622216 273.99006
L 121.95858 273.99006
L 133.294943 273.99006
L 144.631307 273.99006
L 155.96767 273.99006
L 167.304034 273.99006
L 178.640398 273.99006
L 201.313125 273.99006
L 223.985852 273.99006
L 246.65858 273.99006
L 269.331307 273.99006
L 292.004034 273.99006
L 314.676761 273.99006
L 337.349489 273.985833
L 360.022216 273.981607
L 382.694943 273.922433
L 405.36767 273.71955
L 428.040398 273.241086
L 450.713125 272.642584
L 473.385852 271.675511
L 496.05858 270.1801
L 518.731307 268.502095
L 541.404034 266.7404
L 564.076761 264.898399
L 586.749489 262.673456
L 609.422216 260.465421
L 632.094943 258.275983
L 654.76767 256.140647
L 677.440398 253.911479
L 700.113125 251.59693
L 722.785852 249.215599
L 745.45858 246.76326
L 768.131307 244.477453
L 790.804034 242.150225
L 813.476761 239.713101
L 836.149489 237.159321
L 858.822216 234.389978
L 881.494943 231.704324
L 904.16767 229.197037
L 926.840398 226.630577
L 949.513125 223.940696
" style="fill:none;stroke:#7cb5ec;stroke-linecap:square;"/>
   </g>
   <g id="line2d_8">
    <path clip-path="url(#p78a60b3419)" d="M 76.613125 273.99006
L 87.949489 273.99006
L 99.285852 273.99006
L 110.622216 273.99006
L 121.95858 273.99006
L 133.294943 273.99006
L 144.631307 273.99006
L 155.96767 273.99006
L 167.304034 273.99006
L 178.640398 273.99006
L 201.313125 273.99006
L 223.985852 273.99006
L 246.65858 273.99006
L 269.331307 273.99006
L 292.004034 273.99006
L 314.676761 273.99006
L 337.349489 273.985833
L 360.022216 273.981607
L 382.694943 273.925814
L 405.36767 273.731385
L 428.040398 273.261375
L 450.713125 272.676397
L 473.385852 271.719469
L 496.05858 270.262098
L 518.731307 268.601
L 541.404034 266.884109
L 564.076761 265.065776
L 586.749489 262.864504
L 609.422216 260.682674
L 632.094943 258.511834
L 654.76767 256.401858
L 677.440398 254.202276
L 700.113125 251.914779
L 722.785852 249.570643
L 745.45858 247.154654
L 768.131307 244.896743
L 790.804034 242.599947
L 813.476761 240.193256
L 836.149489 237.680052
L 858.822216 234.95044
L 881.494943 232.293528
L 904.16767 229.834426
L 926.840398 227.300933
L 949.513125 224.647403
" style="fill:none;stroke:#434348;stroke-linecap:square;"/>
   </g>
   <g id="line2d_9">
    <path clip-path="url(#p78a60b3419)" d="M 76.613125 273.99006
L 87.949489 273.99006
L 99.285852 273.99006
L 110.622216 273.99006
L 121.95858 273.99006
L 133.294943 273.99006
L 144.631307 273.99006
L 155.96767 273.99006
L 167.304034 273.99006
L 178.640398 273.99006
L 201.313125 273.99006
L 223.985852 273.99006
L 246.65858 273.99006
L 269.331307 273.99006
L 292.004034 273.989399
L 314.676761 273.987415
L 337.349489 273.986093
L 360.022216 273.986093
L 382.694943 273.934525
L 405.36767 273.642306
L 428.040398 272.88333
L 450.713125 271.943205
L 473.385852 270.56409
L 496.05858 268.387653
L 518.731307 265.858174
L 541.404034 263.320761
L 564.076761 260.504351
L 586.749489 257.225812
L 609.422216 254.002148
L 632.094943 250.734848
L 654.76767 247.577957
L 677.440398 244.220744
L 700.113125 240.65792
L 722.785852 236.923864
L 745.45858 233.228814
L 768.131307 229.512608
L 790.804034 225.791113
L 813.476761 221.916236
L 836.149489 217.80203
L 858.822216 213.596589
L 881.494943 209.397098
L 904.16767 205.351649
L 926.840398 201.250666
L 949.513125 196.856803
" style="fill:none;stroke:#90ed7d;stroke-linecap:square;"/>
   </g>
   <g id="line2d_10">
    <path clip-path="url(#p78a60b3419)" d="M 76.613125 273.99006
L 87.949489 273.99006
L 99.285852 273.99006
L 110.622216 273.99006
L 121.95858 273.99006
L 133.294943 273.99006
L 144.631307 273.99006
L 155.96767 273.99006
L 167.304034 273.99006
L 178.640398 273.99006
L 201.313125 273.99006
L 223.985852 273.99006
L 246.65858 273.99006
L 269.331307 273.99006
L 292.004034 273.989399
L 314.676761 273.987415
L 337.349489 273.986093
L 360.022216 273.986093
L 382.694943 273.934525
L 405.36767 273.644951
L 428.040398 272.892586
L 450.713125 271.961055
L 473.385852 270.598468
L 496.05858 268.449138
L 518.731307 265.946765
L 541.404034 263.446375
L 564.076761 260.668972
L 586.749489 257.43539
L 609.422216 254.244782
L 632.094943 251.021778
L 654.76767 247.89001
L 677.440398 244.564531
L 700.113125 241.051953
L 722.785852 237.36087
L 745.45858 233.718049
L 768.131307 230.063328
L 790.804034 226.384146
L 813.476761 222.555548
L 836.149489 218.5101
L 858.822216 214.348293
L 881.494943 210.185825
L 904.16767 206.164838
L 926.840398 202.088978
L 949.513125 197.746022
" style="fill:none;stroke:#f7a35c;stroke-linecap:square;"/>
   </g>
   <g id="line2d_11">
    <path clip-path="url(#p78a60b3419)" d="M 76.613125 273.99006
L 87.949489 273.99006
L 99.285852 273.99006
L 110.622216 273.99006
L 121.95858 273.99006
L 133.294943 273.99006
L 144.631307 273.99006
L 155.96767 273.99006
L 167.304034 273.99006
L 178.640398 273.99006
L 201.313125 273.99006
L 223.985852 273.99006
L 246.65858 273.99006
L 269.331307 273.99006
L 292.004034 273.99006
L 314.676761 273.99006
L 337.349489 273.988234
L 360.022216 273.987322
L 382.694943 273.969066
L 405.36767 273.84858
L 428.040398 273.477994
L 450.713125 273.027997
L 473.385852 272.320597
L 496.05858 271.14312
L 518.731307 269.825075
L 541.404034 268.42488
L 564.076761 266.883206
L 586.749489 265.086868
L 609.422216 263.20838
L 632.094943 261.316201
L 654.76767 259.599274
L 677.440398 257.70892
L 700.113125 255.506398
L 722.785852 253.388763
L 745.45858 251.325895
L 768.131307 249.186354
L 790.804034 247.014866
L 813.476761 244.598755
L 836.149489 241.9937
L 858.822216 239.527386
L 881.494943 236.918679
L 904.16767 234.426808
L 926.840398 231.724086
L 949.513125 228.91822
" style="fill:none;stroke:#8085e9;stroke-linecap:square;"/>
   </g>
   <g id="line2d_12">
    <path clip-path="url(#p78a60b3419)" d="M 76.613125 273.99006
L 87.949489 273.99006
L 99.285852 273.99006
L 110.622216 273.99006
L 121.95858 273.99006
L 133.294943 273.99006
L 144.631307 273.99006
L 155.96767 273.99006
L 167.304034 273.99006
L 178.640398 273.99006
L 201.313125 273.99006
L 223.985852 273.99006
L 246.65858 273.99006
L 269.331307 273.99006
L 292.004034 273.99006
L 314.676761 273.99006
L 337.349489 273.988234
L 360.022216 273.987322
L 382.694943 273.969066
L 405.36767 273.846755
L 428.040398 273.47982
L 450.713125 273.033473
L 473.385852 272.330638
L 496.05858 271.179631
L 518.731307 269.88258
L 541.404034 268.506117
L 564.076761 266.986349
L 586.749489 265.225609
L 609.422216 263.379982
L 632.094943 261.504232
L 654.76767 259.807386
L 677.440398 257.944416
L 700.113125 255.782968
L 722.785852 253.688153
L 745.45858 251.644453
L 768.131307 249.536859
L 790.804034 247.388191
L 813.476761 245.022282
L 836.149489 242.479295
L 858.822216 240.043103
L 881.494943 237.474558
L 904.16767 235.018285
L 926.840398 232.342033
L 949.513125 229.56994
" style="fill:none;stroke:#f15c80;stroke-linecap:square;"/>
   </g>
   <g id="line2d_13">
    <path clip-path="url(#p78a60b3419)" d="M 76.613125 273.99006
L 87.949489 273.99006
L 99.285852 273.99006
L 110.622216 273.99006
L 121.95858 273.99006
L 133.294943 273.99006
L 144.631307 273.99006
L 155.96767 273.99006
L 167.304034 273.99006
L 178.640398 273.99006
L 201.313125 273.99006
L 223.985852 273.99006
L 246.65858 273.99006
L 269.331307 273.99006
L 292.004034 273.99006
L 314.676761 273.99006
L 337.349489 273.99006
L 360.022216 273.988233
L 382.694943 273.966314
L 405.36767 273.873155
L 428.040398 273.602813
L 450.713125 273.21648
L 473.385852 272.602731
L 496.05858 271.614522
L 518.731307 270.461915
L 541.404034 269.27643
L 564.076761 267.904627
L 586.749489 266.443319
L 609.422216 264.875154
L 632.094943 263.302421
L 654.76767 261.752522
L 677.440398 260.13595
L 700.113125 258.4591
L 722.785852 256.593193
L 745.45858 254.793957
L 768.131307 252.894258
L 790.804034 251.106896
L 813.476761 249.141437
L 836.149489 246.925729
L 858.822216 244.80866
L 881.494943 242.544546
L 904.16767 240.263993
L 926.840398 237.807169
L 949.513125 235.113797
" style="fill:none;stroke:#e4d354;stroke-linecap:square;"/>
   </g>
   <g id="line2d_14">
    <path clip-path="url(#p78a60b3419)" d="M 76.613125 273.99006
L 87.949489 273.99006
L 99.285852 273.99006
L 110.622216 273.99006
L 121.95858 273.99006
L 133.294943 273.99006
L 144.631307 273.99006
L 155.96767 273.99006
L 167.304034 273.99006
L 178.640398 273.99006
L 201.313125 273.99006
L 223.985852 273.99006
L 246.65858 273.99006
L 269.331307 273.99006
L 292.004034 273.99006
L 314.676761 273.99006
L 337.349489 273.99006
L 360.022216 273.988233
L 382.694943 273.966314
L 405.36767 273.874982
L 428.040398 273.609207
L 450.713125 273.2247
L 473.385852 272.620084
L 496.05858 271.645575
L 518.731307 270.509408
L 541.404034 269.339448
L 564.076761 267.976779
L 586.749489 266.534651
L 609.422216 264.980185
L 632.094943 263.422979
L 654.76767 261.894999
L 677.440398 260.296694
L 700.113125 258.62989
L 722.785852 256.784989
L 745.45858 255.003107
L 768.131307 253.13172
L 790.804034 251.357145
L 813.476761 249.414519
L 836.149489 247.246303
L 858.822216 245.173073
L 881.494943 242.908046
L 904.16767 240.639366
L 926.840398 238.204462
L 949.513125 235.520223
" style="fill:none;stroke:#2b908f;stroke-linecap:square;"/>
   </g>
   <g id="line2d_15">
    <path clip-path="url(#p78a60b3419)" d="M 76.613125 273.99006
L 87.949489 273.99006
L 99.285852 273.99006
L 110.622216 273.99006
L 121.95858 273.99006
L 133.294943 273.99006
L 144.631307 273.99006
L 155.96767 273.99006
L 167.304034 273.99006
L 178.640398 273.99006
L 201.313125 273.99006
L 223.985852 273.99006
L 246.65858 273.99006
L 269.331307 273.99006
L 292.004034 273.99006
L 314.676761 273.99006
L 337.349489 273.989265
L 360.022216 273.984498
L 382.694943 273.93921
L 405.36767 273.754086
L 428.040398 273.292466
L 450.713125 272.698956
L 473.385852 271.747908
L 496.05858 270.237515
L 518.731307 268.594436
L 541.404034 266.933877
L 564.076761 265.018276
L 586.749489 262.795193
L 609.422216 260.599918
L 632.094943 258.452315
L 654.76767 256.318219
L 677.440398 254.107849
L 700.113125 251.659121
L 722.785852 248.994281
L 745.45858 246.439087
L 768.131307 243.910112
L 790.804034 241.348561
L 813.476761 238.524022
L 836.149489 235.5954
L 858.822216 232.555545
L 881.494943 229.519662
L 904.16767 226.563232
L 926.840398 223.395458
L 949.513125 220.123601
" style="fill:none;stroke:#f45b5b;stroke-linecap:square;"/>
   </g>
   <g id="line2d_16">
    <path clip-path="url(#p78a60b3419)" d="M 76.613125 273.99006
L 87.949489 273.99006
L 99.285852 273.99006
L 110.622216 273.99006
L 121.95858 273.99006
L 133.294943 273.99006
L 144.631307 273.99006
L 155.96767 273.99006
L 167.304034 273.99006
L 178.640398 273.99006
L 201.313125 273.99006
L 223.985852 273.99006
L 246.65858 273.99006
L 269.331307 273.99006
L 292.004034 273.99006
L 314.676761 273.99006
L 337.349489 273.989265
L 360.022216 273.985293
L 382.694943 273.940005
L 405.36767 273.758853
L 428.040398 273.300412
L 450.713125 272.70849
L 473.385852 271.769361
L 496.05858 270.28757
L 518.731307 268.682628
L 541.404034 267.050673
L 564.076761 265.157318
L 586.749489 262.956482
L 609.422216 260.789015
L 632.094943 258.676372
L 654.76767 256.565317
L 677.440398 254.3907
L 700.113125 251.970575
L 722.785852 249.346256
L 745.45858 246.819665
L 768.131307 244.31532
L 790.804034 241.791111
L 813.476761 238.994381
L 836.149489 236.09039
L 858.822216 233.091055
L 881.494943 230.098871
L 904.16767 227.171839
L 926.840398 224.023133
L 949.513125 220.793386
" style="fill:none;stroke:#91e8e1;stroke-linecap:square;"/>
   </g>
   <g id="line2d_17">
    <path clip-path="url(#p78a60b3419)" d="M 76.613125 273.99006
L 87.949489 273.99006
L 99.285852 273.99006
L 110.622216 273.99006
L 121.95858 273.99006
L 133.294943 273.99006
L 144.631307 273.99006
L 155.96767 273.99006
L 167.304034 273.99006
L 178.640398 273.99006
L 201.313125 273.99006
L 223.985852 273.99006
L 246.65858 273.99006
L 269.331307 273.99006
L 292.004034 273.99006
L 314.676761 273.99006
L 337.349489 273.985023
L 360.022216 273.955431
L 382.694943 273.745137
L 405.36767 273.187923
L 428.040398 272.040124
L 450.713125 270.729883
L 473.385852 268.742799
L 496.05858 265.483881
L 518.731307 261.587157
L 541.404034 257.958651
L 564.076761 254.291739
L 586.749489 250.094685
L 609.422216 245.793115
L 632.094943 241.208215
L 654.76767 236.877682
L 677.440398 232.839923
L 700.113125 228.464687
L 722.785852 223.921342
L 745.45858 219.268443
L 768.131307 214.682284
L 790.804034 210.395195
L 813.476761 205.939997
L 836.149489 201.139138
L 858.822216 196.173947
L 881.494943 191.170349
L 904.16767 186.596782
L 926.840398 182.028253
L 949.513125 177.344502
" style="fill:none;stroke:#7cb5ec;stroke-linecap:square;"/>
   </g>
   <g id="line2d_18">
    <path clip-path="url(#p78a60b3419)" d="M 76.613125 273.99006
L 87.949489 273.99006
L 99.285852 273.99006
L 110.622216 273.99006
L 121.95858 273.99006
L 133.294943 273.99006
L 144.631307 273.99006
L 155.96767 273.99006
L 167.304034 273.99006
L 178.640398 273.99006
L 201.313125 273.99006
L 223.985852 273.99006
L 246.65858 273.99006
L 269.331307 273.99006
L 292.004034 273.99006
L 314.676761 273.99006
L 337.349489 273.984393
L 360.022216 273.954172
L 382.694943 273.745137
L 405.36767 273.196738
L 428.040398 272.064679
L 450.713125 270.759475
L 473.385852 268.792539
L 496.05858 265.571398
L 518.731307 261.712451
L 541.404034 258.106612
L 564.076761 254.471181
L 586.749489 250.313164
L 609.422216 246.027334
L 632.094943 241.476434
L 654.76767 237.178641
L 677.440398 233.174882
L 700.113125 228.831127
L 722.785852 224.309818
L 745.45858 219.68966
L 768.131307 215.144426
L 790.804034 210.886929
L 813.476761 206.458175
L 836.149489 201.709574
L 858.822216 196.792235
L 881.494943 191.81634
L 904.16767 187.284329
L 926.840398 182.717688
L 949.513125 178.044011
" style="fill:none;stroke:#434348;stroke-linecap:square;"/>
   </g>
   <g id="line2d_19">
    <path clip-path="url(#p78a60b3419)" d="M 32.968125 273.99006
L 993.158125 273.99006
" style="fill:none;stroke:#dedede;stroke-linecap:square;stroke-width:2;"/>
   </g>
   <g id="text_18">
    <!-- FastQC: Adapter Content -->
    <g transform="translate(413.765625 19.3575)scale(0.16 -0.16)">
     <defs>
      <path d="M 9.8125 72.90625
L 51.703125 72.90625
L 51.703125 64.59375
L 19.671875 64.59375
L 19.671875 43.109375
L 48.578125 43.109375
L 48.578125 34.8125
L 19.671875 34.8125
L 19.671875 0
L 9.8125 0
z
" id="DejaVuSans-70"/>
      <path d="M 34.28125 27.484375
Q 23.390625 27.484375 19.1875 25
Q 14.984375 22.515625 14.984375 16.5
Q 14.984375 11.71875 18.140625 8.90625
Q 21.296875 6.109375 26.703125 6.109375
Q 34.1875 6.109375 38.703125 11.40625
Q 43.21875 16.703125 43.21875 25.484375
L 43.21875 27.484375
z
M 52.203125 31.203125
L 52.203125 0
L 43.21875 0
L 43.21875 8.296875
Q 40.140625 3.328125 35.546875 0.953125
Q 30.953125 -1.421875 24.3125 -1.421875
Q 15.921875 -1.421875 10.953125 3.296875
Q 6 8.015625 6 15.921875
Q 6 25.140625 12.171875 29.828125
Q 18.359375 34.515625 30.609375 34.515625
L 43.21875 34.515625
L 43.21875 35.40625
Q 43.21875 41.609375 39.140625 45
Q 35.0625 48.390625 27.6875 48.390625
Q 23 48.390625 18.546875 47.265625
Q 14.109375 46.140625 10.015625 43.890625
L 10.015625 52.203125
Q 14.9375 54.109375 19.578125 55.046875
Q 24.21875 56 28.609375 56
Q 40.484375 56 46.34375 49.84375
Q 52.203125 43.703125 52.203125 31.203125
z
" id="DejaVuSans-97"/>
      <path d="M 39.40625 66.21875
Q 28.65625 66.21875 22.328125 58.203125
Q 16.015625 50.203125 16.015625 36.375
Q 16.015625 22.609375 22.328125 14.59375
Q 28.65625 6.59375 39.40625 6.59375
Q 50.140625 6.59375 56.421875 14.59375
Q 62.703125 22.609375 62.703125 36.375
Q 62.703125 50.203125 56.421875 58.203125
Q 50.140625 66.21875 39.40625 66.21875
z
M 53.21875 1.3125
L 66.21875 -12.890625
L 54.296875 -12.890625
L 43.5 -1.21875
Q 41.890625 -1.3125 41.03125 -1.359375
Q 40.1875 -1.421875 39.40625 -1.421875
Q 24.03125 -1.421875 14.8125 8.859375
Q 5.609375 19.140625 5.609375 36.375
Q 5.609375 53.65625 14.8125 63.9375
Q 24.03125 74.21875 39.40625 74.21875
Q 54.734375 74.21875 63.90625 63.9375
Q 73.09375 53.65625 73.09375 36.375
Q 73.09375 23.6875 67.984375 14.640625
Q 62.890625 5.609375 53.21875 1.3125
z
" id="DejaVuSans-81"/>
      <path d="M 64.40625 67.28125
L 64.40625 56.890625
Q 59.421875 61.53125 53.78125 63.8125
Q 48.140625 66.109375 41.796875 66.109375
Q 29.296875 66.109375 22.65625 58.46875
Q 16.015625 50.828125 16.015625 36.375
Q 16.015625 21.96875 22.65625 14.328125
Q 29.296875 6.6875 41.796875 6.6875
Q 48.140625 6.6875 53.78125 8.984375
Q 59.421875 11.28125 64.40625 15.921875
L 64.40625 5.609375
Q 59.234375 2.09375 53.4375 0.328125
Q 47.65625 -1.421875 41.21875 -1.421875
Q 24.65625 -1.421875 15.125 8.703125
Q 5.609375 18.84375 5.609375 36.375
Q 5.609375 53.953125 15.125 64.078125
Q 24.65625 74.21875 41.21875 74.21875
Q 47.75 74.21875 53.53125 72.484375
Q 59.328125 70.75 64.40625 67.28125
z
" id="DejaVuSans-67"/>
      <path d="M 11.71875 12.40625
L 22.015625 12.40625
L 22.015625 0
L 11.71875 0
z
M 11.71875 51.703125
L 22.015625 51.703125
L 22.015625 39.3125
L 11.71875 39.3125
z
" id="DejaVuSans-58"/>
      <path d="M 34.1875 63.1875
L 20.796875 26.90625
L 47.609375 26.90625
z
M 28.609375 72.90625
L 39.796875 72.90625
L 67.578125 0
L 57.328125 0
L 50.6875 18.703125
L 17.828125 18.703125
L 11.1875 0
L 0.78125 0
z
" id="DejaVuSans-65"/>
      <path d="M 45.40625 46.390625
L 45.40625 75.984375
L 54.390625 75.984375
L 54.390625 0
L 45.40625 0
L 45.40625 8.203125
Q 42.578125 3.328125 38.25 0.953125
Q 33.9375 -1.421875 27.875 -1.421875
Q 17.96875 -1.421875 11.734375 6.484375
Q 5.515625 14.40625 5.515625 27.296875
Q 5.515625 40.1875 11.734375 48.09375
Q 17.96875 56 27.875 56
Q 33.9375 56 38.25 53.625
Q 42.578125 51.265625 45.40625 46.390625
z
M 14.796875 27.296875
Q 14.796875 17.390625 18.875 11.75
Q 22.953125 6.109375 30.078125 6.109375
Q 37.203125 6.109375 41.296875 11.75
Q 45.40625 17.390625 45.40625 27.296875
Q 45.40625 37.203125 41.296875 42.84375
Q 37.203125 48.484375 30.078125 48.484375
Q 22.953125 48.484375 18.875 42.84375
Q 14.796875 37.203125 14.796875 27.296875
z
" id="DejaVuSans-100"/>
      <path d="M 41.109375 46.296875
Q 39.59375 47.171875 37.8125 47.578125
Q 36.03125 48 33.890625 48
Q 26.265625 48 22.1875 43.046875
Q 18.109375 38.09375 18.109375 28.8125
L 18.109375 0
L 9.078125 0
L 9.078125 54.6875
L 18.109375 54.6875
L 18.109375 46.1875
Q 20.953125 51.171875 25.484375 53.578125
Q 30.03125 56 36.53125 56
Q 37.453125 56 38.578125 55.875
Q 39.703125 55.765625 41.0625 55.515625
z
" id="DejaVuSans-114"/>
     </defs>
     <use xlink:href="#DejaVuSans-70"/>
     <use x="48.394531" xlink:href="#DejaVuSans-97"/>
     <use x="109.673828" xlink:href="#DejaVuSans-115"/>
     <use x="161.773438" xlink:href="#DejaVuSans-116"/>
     <use x="200.982422" xlink:href="#DejaVuSans-81"/>
     <use x="279.693359" xlink:href="#DejaVuSans-67"/>
     <use x="349.517578" xlink:href="#DejaVuSans-58"/>
     <use x="383.208984" xlink:href="#DejaVuSans-32"/>
     <use x="414.996094" xlink:href="#DejaVuSans-65"/>
     <use x="481.654297" xlink:href="#DejaVuSans-100"/>
     <use x="545.130859" xlink:href="#DejaVuSans-97"/>
     <use x="606.410156" xlink:href="#DejaVuSans-112"/>
     <use x="669.886719" xlink:href="#DejaVuSans-116"/>
     <use x="709.095703" xlink:href="#DejaVuSans-101"/>
     <use x="770.619141" xlink:href="#DejaVuSans-114"/>
     <use x="811.732422" xlink:href="#DejaVuSans-32"/>
     <use x="843.519531" xlink:href="#DejaVuSans-67"/>
     <use x="913.34375" xlink:href="#DejaVuSans-111"/>
     <use x="974.525391" xlink:href="#DejaVuSans-110"/>
     <use x="1037.904297" xlink:href="#DejaVuSans-116"/>
     <use x="1077.113281" xlink:href="#DejaVuSans-101"/>
     <use x="1138.636719" xlink:href="#DejaVuSans-110"/>
     <use x="1202.015625" xlink:href="#DejaVuSans-116"/>
    </g>
   </g>
   <g id="legend_1">
    <g id="line2d_20">
     <path d="M 40.168125 291.525394
L 56.168125 291.525394
" style="fill:none;stroke:#7cb5ec;stroke-linecap:square;"/>
    </g>
    <g id="line2d_21"/>
    <g id="text_19">
     <!-- IP283_1 - nextera_transposase_sequence -->
     <g transform="translate(62.568125 294.325394)scale(0.08 -0.08)">
      <defs>
       <path d="M 9.8125 72.90625
L 19.671875 72.90625
L 19.671875 0
L 9.8125 0
z
" id="DejaVuSans-73"/>
       <path d="M 50.984375 -16.609375
L 50.984375 -23.578125
L -0.984375 -23.578125
L -0.984375 -16.609375
z
" id="DejaVuSans-95"/>
       <path d="M 4.890625 31.390625
L 31.203125 31.390625
L 31.203125 23.390625
L 4.890625 23.390625
z
" id="DejaVuSans-45"/>
       <path d="M 54.890625 54.6875
L 35.109375 28.078125
L 55.90625 0
L 45.3125 0
L 29.390625 21.484375
L 13.484375 0
L 2.875 0
L 24.125 28.609375
L 4.6875 54.6875
L 15.28125 54.6875
L 29.78125 35.203125
L 44.28125 54.6875
z
" id="DejaVuSans-120"/>
      </defs>
      <use xlink:href="#DejaVuSans-73"/>
      <use x="29.492188" xlink:href="#DejaVuSans-80"/>
      <use x="89.794922" xlink:href="#DejaVuSans-50"/>
      <use x="153.417969" xlink:href="#DejaVuSans-56"/>
      <use x="217.041016" xlink:href="#DejaVuSans-51"/>
      <use x="280.664062" xlink:href="#DejaVuSans-95"/>
      <use x="330.664062" xlink:href="#DejaVuSans-49"/>
      <use x="394.287109" xlink:href="#DejaVuSans-32"/>
      <use x="426.074219" xlink:href="#DejaVuSans-45"/>
      <use x="462.158203" xlink:href="#DejaVuSans-32"/>
      <use x="493.945312" xlink:href="#DejaVuSans-110"/>
      <use x="557.324219" xlink:href="#DejaVuSans-101"/>
      <use x="617.097656" xlink:href="#DejaVuSans-120"/>
      <use x="676.277344" xlink:href="#DejaVuSans-116"/>
      <use x="715.486328" xlink:href="#DejaVuSans-101"/>
      <use x="777.009766" xlink:href="#DejaVuSans-114"/>
      <use x="818.123047" xlink:href="#DejaVuSans-97"/>
      <use x="879.402344" xlink:href="#DejaVuSans-95"/>
      <use x="929.402344" xlink:href="#DejaVuSans-116"/>
      <use x="968.611328" xlink:href="#DejaVuSans-114"/>
      <use x="1009.724609" xlink:href="#DejaVuSans-97"/>
      <use x="1071.003906" xlink:href="#DejaVuSans-110"/>
      <use x="1134.382812" xlink:href="#DejaVuSans-115"/>
      <use x="1186.482422" xlink:href="#DejaVuSans-112"/>
      <use x="1249.958984" xlink:href="#DejaVuSans-111"/>
      <use x="1311.140625" xlink:href="#DejaVuSans-115"/>
      <use x="1363.240234" xlink:href="#DejaVuSans-97"/>
      <use x="1424.519531" xlink:href="#DejaVuSans-115"/>
      <use x="1476.619141" xlink:href="#DejaVuSans-101"/>
      <use x="1538.142578" xlink:href="#DejaVuSans-95"/>
      <use x="1588.142578" xlink:href="#DejaVuSans-115"/>
      <use x="1640.242188" xlink:href="#DejaVuSans-101"/>
      <use x="1701.765625" xlink:href="#DejaVuSans-113"/>
      <use x="1765.242188" xlink:href="#DejaVuSans-117"/>
      <use x="1828.621094" xlink:href="#DejaVuSans-101"/>
      <use x="1890.144531" xlink:href="#DejaVuSans-110"/>
      <use x="1953.523438" xlink:href="#DejaVuSans-99"/>
      <use x="2008.503906" xlink:href="#DejaVuSans-101"/>
     </g>
    </g>
    <g id="line2d_22">
     <path d="M 40.168125 303.490394
L 56.168125 303.490394
" style="fill:none;stroke:#434348;stroke-linecap:square;"/>
    </g>
    <g id="line2d_23"/>
    <g id="text_20">
     <!-- IP283_2 - nextera_transposase_sequence -->
     <g transform="translate(62.568125 306.290394)scale(0.08 -0.08)">
      <use xlink:href="#DejaVuSans-73"/>
      <use x="29.492188" xlink:href="#DejaVuSans-80"/>
      <use x="89.794922" xlink:href="#DejaVuSans-50"/>
      <use x="153.417969" xlink:href="#DejaVuSans-56"/>
      <use x="217.041016" xlink:href="#DejaVuSans-51"/>
      <use x="280.664062" xlink:href="#DejaVuSans-95"/>
      <use x="330.664062" xlink:href="#DejaVuSans-50"/>
      <use x="394.287109" xlink:href="#DejaVuSans-32"/>
      <use x="426.074219" xlink:href="#DejaVuSans-45"/>
      <use x="462.158203" xlink:href="#DejaVuSans-32"/>
      <use x="493.945312" xlink:href="#DejaVuSans-110"/>
      <use x="557.324219" xlink:href="#DejaVuSans-101"/>
      <use x="617.097656" xlink:href="#DejaVuSans-120"/>
      <use x="676.277344" xlink:href="#DejaVuSans-116"/>
      <use x="715.486328" xlink:href="#DejaVuSans-101"/>
      <use x="777.009766" xlink:href="#DejaVuSans-114"/>
      <use x="818.123047" xlink:href="#DejaVuSans-97"/>
      <use x="879.402344" xlink:href="#DejaVuSans-95"/>
      <use x="929.402344" xlink:href="#DejaVuSans-116"/>
      <use x="968.611328" xlink:href="#DejaVuSans-114"/>
      <use x="1009.724609" xlink:href="#DejaVuSans-97"/>
      <use x="1071.003906" xlink:href="#DejaVuSans-110"/>
      <use x="1134.382812" xlink:href="#DejaVuSans-115"/>
      <use x="1186.482422" xlink:href="#DejaVuSans-112"/>
      <use x="1249.958984" xlink:href="#DejaVuSans-111"/>
      <use x="1311.140625" xlink:href="#DejaVuSans-115"/>
      <use x="1363.240234" xlink:href="#DejaVuSans-97"/>
      <use x="1424.519531" xlink:href="#DejaVuSans-115"/>
      <use x="1476.619141" xlink:href="#DejaVuSans-101"/>
      <use x="1538.142578" xlink:href="#DejaVuSans-95"/>
      <use x="1588.142578" xlink:href="#DejaVuSans-115"/>
      <use x="1640.242188" xlink:href="#DejaVuSans-101"/>
      <use x="1701.765625" xlink:href="#DejaVuSans-113"/>
      <use x="1765.242188" xlink:href="#DejaVuSans-117"/>
      <use x="1828.621094" xlink:href="#DejaVuSans-101"/>
      <use x="1890.144531" xlink:href="#DejaVuSans-110"/>
      <use x="1953.523438" xlink:href="#DejaVuSans-99"/>
      <use x="2008.503906" xlink:href="#DejaVuSans-101"/>
     </g>
    </g>
    <g id="line2d_24">
     <path d="M 40.168125 315.455394
L 56.168125 315.455394
" style="fill:none;stroke:#90ed7d;stroke-linecap:square;"/>
    </g>
    <g id="line2d_25"/>
    <g id="text_21">
     <!-- IP542_1 - nextera_transposase_sequence -->
     <g transform="translate(62.568125 318.255394)scale(0.08 -0.08)">
      <use xlink:href="#DejaVuSans-73"/>
      <use x="29.492188" xlink:href="#DejaVuSans-80"/>
      <use x="89.794922" xlink:href="#DejaVuSans-53"/>
      <use x="153.417969" xlink:href="#DejaVuSans-52"/>
      <use x="217.041016" xlink:href="#DejaVuSans-50"/>
      <use x="280.664062" xlink:href="#DejaVuSans-95"/>
      <use x="330.664062" xlink:href="#DejaVuSans-49"/>
      <use x="394.287109" xlink:href="#DejaVuSans-32"/>
      <use x="426.074219" xlink:href="#DejaVuSans-45"/>
      <use x="462.158203" xlink:href="#DejaVuSans-32"/>
      <use x="493.945312" xlink:href="#DejaVuSans-110"/>
      <use x="557.324219" xlink:href="#DejaVuSans-101"/>
      <use x="617.097656" xlink:href="#DejaVuSans-120"/>
      <use x="676.277344" xlink:href="#DejaVuSans-116"/>
      <use x="715.486328" xlink:href="#DejaVuSans-101"/>
      <use x="777.009766" xlink:href="#DejaVuSans-114"/>
      <use x="818.123047" xlink:href="#DejaVuSans-97"/>
      <use x="879.402344" xlink:href="#DejaVuSans-95"/>
      <use x="929.402344" xlink:href="#DejaVuSans-116"/>
      <use x="968.611328" xlink:href="#DejaVuSans-114"/>
      <use x="1009.724609" xlink:href="#DejaVuSans-97"/>
      <use x="1071.003906" xlink:href="#DejaVuSans-110"/>
      <use x="1134.382812" xlink:href="#DejaVuSans-115"/>
      <use x="1186.482422" xlink:href="#DejaVuSans-112"/>
      <use x="1249.958984" xlink:href="#DejaVuSans-111"/>
      <use x="1311.140625" xlink:href="#DejaVuSans-115"/>
      <use x="1363.240234" xlink:href="#DejaVuSans-97"/>
      <use x="1424.519531" xlink:href="#DejaVuSans-115"/>
      <use x="1476.619141" xlink:href="#DejaVuSans-101"/>
      <use x="1538.142578" xlink:href="#DejaVuSans-95"/>
      <use x="1588.142578" xlink:href="#DejaVuSans-115"/>
      <use x="1640.242188" xlink:href="#DejaVuSans-101"/>
      <use x="1701.765625" xlink:href="#DejaVuSans-113"/>
      <use x="1765.242188" xlink:href="#DejaVuSans-117"/>
      <use x="1828.621094" xlink:href="#DejaVuSans-101"/>
      <use x="1890.144531" xlink:href="#DejaVuSans-110"/>
      <use x="1953.523438" xlink:href="#DejaVuSans-99"/>
      <use x="2008.503906" xlink:href="#DejaVuSans-101"/>
     </g>
    </g>
    <g id="line2d_26">
     <path d="M 229.614688 291.525394
L 245.614688 291.525394
" style="fill:none;stroke:#f7a35c;stroke-linecap:square;"/>
    </g>
    <g id="line2d_27"/>
    <g id="text_22">
     <!-- IP542_2 - nextera_transposase_sequence -->
     <g transform="translate(252.014688 294.325394)scale(0.08 -0.08)">
      <use xlink:href="#DejaVuSans-73"/>
      <use x="29.492188" xlink:href="#DejaVuSans-80"/>
      <use x="89.794922" xlink:href="#DejaVuSans-53"/>
      <use x="153.417969" xlink:href="#DejaVuSans-52"/>
      <use x="217.041016" xlink:href="#DejaVuSans-50"/>
      <use x="280.664062" xlink:href="#DejaVuSans-95"/>
      <use x="330.664062" xlink:href="#DejaVuSans-50"/>
      <use x="394.287109" xlink:href="#DejaVuSans-32"/>
      <use x="426.074219" xlink:href="#DejaVuSans-45"/>
      <use x="462.158203" xlink:href="#DejaVuSans-32"/>
      <use x="493.945312" xlink:href="#DejaVuSans-110"/>
      <use x="557.324219" xlink:href="#DejaVuSans-101"/>
      <use x="617.097656" xlink:href="#DejaVuSans-120"/>
      <use x="676.277344" xlink:href="#DejaVuSans-116"/>
      <use x="715.486328" xlink:href="#DejaVuSans-101"/>
      <use x="777.009766" xlink:href="#DejaVuSans-114"/>
      <use x="818.123047" xlink:href="#DejaVuSans-97"/>
      <use x="879.402344" xlink:href="#DejaVuSans-95"/>
      <use x="929.402344" xlink:href="#DejaVuSans-116"/>
      <use x="968.611328" xlink:href="#DejaVuSans-114"/>
      <use x="1009.724609" xlink:href="#DejaVuSans-97"/>
      <use x="1071.003906" xlink:href="#DejaVuSans-110"/>
      <use x="1134.382812" xlink:href="#DejaVuSans-115"/>
      <use x="1186.482422" xlink:href="#DejaVuSans-112"/>
      <use x="1249.958984" xlink:href="#DejaVuSans-111"/>
      <use x="1311.140625" xlink:href="#DejaVuSans-115"/>
      <use x="1363.240234" xlink:href="#DejaVuSans-97"/>
      <use x="1424.519531" xlink:href="#DejaVuSans-115"/>
      <use x="1476.619141" xlink:href="#DejaVuSans-101"/>
      <use x="1538.142578" xlink:href="#DejaVuSans-95"/>
      <use x="1588.142578" xlink:href="#DejaVuSans-115"/>
      <use x="1640.242188" xlink:href="#DejaVuSans-101"/>
      <use x="1701.765625" xlink:href="#DejaVuSans-113"/>
      <use x="1765.242188" xlink:href="#DejaVuSans-117"/>
      <use x="1828.621094" xlink:href="#DejaVuSans-101"/>
      <use x="1890.144531" xlink:href="#DejaVuSans-110"/>
      <use x="1953.523438" xlink:href="#DejaVuSans-99"/>
      <use x="2008.503906" xlink:href="#DejaVuSans-101"/>
     </g>
    </g>
    <g id="line2d_28">
     <path d="M 229.614688 303.490394
L 245.614688 303.490394
" style="fill:none;stroke:#8085e9;stroke-linecap:square;"/>
    </g>
    <g id="line2d_29"/>
    <g id="text_23">
     <!-- IP543_1 - nextera_transposase_sequence -->
     <g transform="translate(252.014688 306.290394)scale(0.08 -0.08)">
      <use xlink:href="#DejaVuSans-73"/>
      <use x="29.492188" xlink:href="#DejaVuSans-80"/>
      <use x="89.794922" xlink:href="#DejaVuSans-53"/>
      <use x="153.417969" xlink:href="#DejaVuSans-52"/>
      <use x="217.041016" xlink:href="#DejaVuSans-51"/>
      <use x="280.664062" xlink:href="#DejaVuSans-95"/>
      <use x="330.664062" xlink:href="#DejaVuSans-49"/>
      <use x="394.287109" xlink:href="#DejaVuSans-32"/>
      <use x="426.074219" xlink:href="#DejaVuSans-45"/>
      <use x="462.158203" xlink:href="#DejaVuSans-32"/>
      <use x="493.945312" xlink:href="#DejaVuSans-110"/>
      <use x="557.324219" xlink:href="#DejaVuSans-101"/>
      <use x="617.097656" xlink:href="#DejaVuSans-120"/>
      <use x="676.277344" xlink:href="#DejaVuSans-116"/>
      <use x="715.486328" xlink:href="#DejaVuSans-101"/>
      <use x="777.009766" xlink:href="#DejaVuSans-114"/>
      <use x="818.123047" xlink:href="#DejaVuSans-97"/>
      <use x="879.402344" xlink:href="#DejaVuSans-95"/>
      <use x="929.402344" xlink:href="#DejaVuSans-116"/>
      <use x="968.611328" xlink:href="#DejaVuSans-114"/>
      <use x="1009.724609" xlink:href="#DejaVuSans-97"/>
      <use x="1071.003906" xlink:href="#DejaVuSans-110"/>
      <use x="1134.382812" xlink:href="#DejaVuSans-115"/>
      <use x="1186.482422" xlink:href="#DejaVuSans-112"/>
      <use x="1249.958984" xlink:href="#DejaVuSans-111"/>
      <use x="1311.140625" xlink:href="#DejaVuSans-115"/>
      <use x="1363.240234" xlink:href="#DejaVuSans-97"/>
      <use x="1424.519531" xlink:href="#DejaVuSans-115"/>
      <use x="1476.619141" xlink:href="#DejaVuSans-101"/>
      <use x="1538.142578" xlink:href="#DejaVuSans-95"/>
      <use x="1588.142578" xlink:href="#DejaVuSans-115"/>
      <use x="1640.242188" xlink:href="#DejaVuSans-101"/>
      <use x="1701.765625" xlink:href="#DejaVuSans-113"/>
      <use x="1765.242188" xlink:href="#DejaVuSans-117"/>
      <use x="1828.621094" xlink:href="#DejaVuSans-101"/>
      <use x="1890.144531" xlink:href="#DejaVuSans-110"/>
      <use x="1953.523438" xlink:href="#DejaVuSans-99"/>
      <use x="2008.503906" xlink:href="#DejaVuSans-101"/>
     </g>
    </g>
    <g id="line2d_30">
     <path d="M 229.614688 315.455394
L 245.614688 315.455394
" style="fill:none;stroke:#f15c80;stroke-linecap:square;"/>
    </g>
    <g id="line2d_31"/>
    <g id="text_24">
     <!-- IP543_2 - nextera_transposase_sequence -->
     <g transform="translate(252.014688 318.255394)scale(0.08 -0.08)">
      <use xlink:href="#DejaVuSans-73"/>
      <use x="29.492188" xlink:href="#DejaVuSans-80"/>
      <use x="89.794922" xlink:href="#DejaVuSans-53"/>
      <use x="153.417969" xlink:href="#DejaVuSans-52"/>
      <use x="217.041016" xlink:href="#DejaVuSans-51"/>
      <use x="280.664062" xlink:href="#DejaVuSans-95"/>
      <use x="330.664062" xlink:href="#DejaVuSans-50"/>
      <use x="394.287109" xlink:href="#DejaVuSans-32"/>
      <use x="426.074219" xlink:href="#DejaVuSans-45"/>
      <use x="462.158203" xlink:href="#DejaVuSans-32"/>
      <use x="493.945312" xlink:href="#DejaVuSans-110"/>
      <use x="557.324219" xlink:href="#DejaVuSans-101"/>
      <use x="617.097656" xlink:href="#DejaVuSans-120"/>
      <use x="676.277344" xlink:href="#DejaVuSans-116"/>
      <use x="715.486328" xlink:href="#DejaVuSans-101"/>
      <use x="777.009766" xlink:href="#DejaVuSans-114"/>
      <use x="818.123047" xlink:href="#DejaVuSans-97"/>
      <use x="879.402344" xlink:href="#DejaVuSans-95"/>
      <use x="929.402344" xlink:href="#DejaVuSans-116"/>
      <use x="968.611328" xlink:href="#DejaVuSans-114"/>
      <use x="1009.724609" xlink:href="#DejaVuSans-97"/>
      <use x="1071.003906" xlink:href="#DejaVuSans-110"/>
      <use x="1134.382812" xlink:href="#DejaVuSans-115"/>
      <use x="1186.482422" xlink:href="#DejaVuSans-112"/>
      <use x="1249.958984" xlink:href="#DejaVuSans-111"/>
      <use x="1311.140625" xlink:href="#DejaVuSans-115"/>
      <use x="1363.240234" xlink:href="#DejaVuSans-97"/>
      <use x="1424.519531" xlink:href="#DejaVuSans-115"/>
      <use x="1476.619141" xlink:href="#DejaVuSans-101"/>
      <use x="1538.142578" xlink:href="#DejaVuSans-95"/>
      <use x="1588.142578" xlink:href="#DejaVuSans-115"/>
      <use x="1640.242188" xlink:href="#DejaVuSans-101"/>
      <use x="1701.765625" xlink:href="#DejaVuSans-113"/>
      <use x="1765.242188" xlink:href="#DejaVuSans-117"/>
      <use x="1828.621094" xlink:href="#DejaVuSans-101"/>
      <use x="1890.144531" xlink:href="#DejaVuSans-110"/>
      <use x="1953.523438" xlink:href="#DejaVuSans-99"/>
      <use x="2008.503906" xlink:href="#DejaVuSans-101"/>
     </g>
    </g>
    <g id="line2d_32">
     <path d="M 419.06125 291.525394
L 435.06125 291.525394
" style="fill:none;stroke:#e4d354;stroke-linecap:square;"/>
    </g>
    <g id="line2d_33"/>
    <g id="text_25">
     <!-- IP557_1 - nextera_transposase_sequence -->
     <g transform="translate(441.46125 294.325394)scale(0.08 -0.08)">
      <use xlink:href="#DejaVuSans-73"/>
      <use x="29.492188" xlink:href="#DejaVuSans-80"/>
      <use x="89.794922" xlink:href="#DejaVuSans-53"/>
      <use x="153.417969" xlink:href="#DejaVuSans-53"/>
      <use x="217.041016" xlink:href="#DejaVuSans-55"/>
      <use x="280.664062" xlink:href="#DejaVuSans-95"/>
      <use x="330.664062" xlink:href="#DejaVuSans-49"/>
      <use x="394.287109" xlink:href="#DejaVuSans-32"/>
      <use x="426.074219" xlink:href="#DejaVuSans-45"/>
      <use x="462.158203" xlink:href="#DejaVuSans-32"/>
      <use x="493.945312" xlink:href="#DejaVuSans-110"/>
      <use x="557.324219" xlink:href="#DejaVuSans-101"/>
      <use x="617.097656" xlink:href="#DejaVuSans-120"/>
      <use x="676.277344" xlink:href="#DejaVuSans-116"/>
      <use x="715.486328" xlink:href="#DejaVuSans-101"/>
      <use x="777.009766" xlink:href="#DejaVuSans-114"/>
      <use x="818.123047" xlink:href="#DejaVuSans-97"/>
      <use x="879.402344" xlink:href="#DejaVuSans-95"/>
      <use x="929.402344" xlink:href="#DejaVuSans-116"/>
      <use x="968.611328" xlink:href="#DejaVuSans-114"/>
      <use x="1009.724609" xlink:href="#DejaVuSans-97"/>
      <use x="1071.003906" xlink:href="#DejaVuSans-110"/>
      <use x="1134.382812" xlink:href="#DejaVuSans-115"/>
      <use x="1186.482422" xlink:href="#DejaVuSans-112"/>
      <use x="1249.958984" xlink:href="#DejaVuSans-111"/>
      <use x="1311.140625" xlink:href="#DejaVuSans-115"/>
      <use x="1363.240234" xlink:href="#DejaVuSans-97"/>
      <use x="1424.519531" xlink:href="#DejaVuSans-115"/>
      <use x="1476.619141" xlink:href="#DejaVuSans-101"/>
      <use x="1538.142578" xlink:href="#DejaVuSans-95"/>
      <use x="1588.142578" xlink:href="#DejaVuSans-115"/>
      <use x="1640.242188" xlink:href="#DejaVuSans-101"/>
      <use x="1701.765625" xlink:href="#DejaVuSans-113"/>
      <use x="1765.242188" xlink:href="#DejaVuSans-117"/>
      <use x="1828.621094" xlink:href="#DejaVuSans-101"/>
      <use x="1890.144531" xlink:href="#DejaVuSans-110"/>
      <use x="1953.523438" xlink:href="#DejaVuSans-99"/>
      <use x="2008.503906" xlink:href="#DejaVuSans-101"/>
     </g>
    </g>
    <g id="line2d_34">
     <path d="M 419.06125 303.490394
L 435.06125 303.490394
" style="fill:none;stroke:#2b908f;stroke-linecap:square;"/>
    </g>
    <g id="line2d_35"/>
    <g id="text_26">
     <!-- IP557_2 - nextera_transposase_sequence -->
     <g transform="translate(441.46125 306.290394)scale(0.08 -0.08)">
      <use xlink:href="#DejaVuSans-73"/>
      <use x="29.492188" xlink:href="#DejaVuSans-80"/>
      <use x="89.794922" xlink:href="#DejaVuSans-53"/>
      <use x="153.417969" xlink:href="#DejaVuSans-53"/>
      <use x="217.041016" xlink:href="#DejaVuSans-55"/>
      <use x="280.664062" xlink:href="#DejaVuSans-95"/>
      <use x="330.664062" xlink:href="#DejaVuSans-50"/>
      <use x="394.287109" xlink:href="#DejaVuSans-32"/>
      <use x="426.074219" xlink:href="#DejaVuSans-45"/>
      <use x="462.158203" xlink:href="#DejaVuSans-32"/>
      <use x="493.945312" xlink:href="#DejaVuSans-110"/>
      <use x="557.324219" xlink:href="#DejaVuSans-101"/>
      <use x="617.097656" xlink:href="#DejaVuSans-120"/>
      <use x="676.277344" xlink:href="#DejaVuSans-116"/>
      <use x="715.486328" xlink:href="#DejaVuSans-101"/>
      <use x="777.009766" xlink:href="#DejaVuSans-114"/>
      <use x="818.123047" xlink:href="#DejaVuSans-97"/>
      <use x="879.402344" xlink:href="#DejaVuSans-95"/>
      <use x="929.402344" xlink:href="#DejaVuSans-116"/>
      <use x="968.611328" xlink:href="#DejaVuSans-114"/>
      <use x="1009.724609" xlink:href="#DejaVuSans-97"/>
      <use x="1071.003906" xlink:href="#DejaVuSans-110"/>
      <use x="1134.382812" xlink:href="#DejaVuSans-115"/>
      <use x="1186.482422" xlink:href="#DejaVuSans-112"/>
      <use x="1249.958984" xlink:href="#DejaVuSans-111"/>
      <use x="1311.140625" xlink:href="#DejaVuSans-115"/>
      <use x="1363.240234" xlink:href="#DejaVuSans-97"/>
      <use x="1424.519531" xlink:href="#DejaVuSans-115"/>
      <use x="1476.619141" xlink:href="#DejaVuSans-101"/>
      <use x="1538.142578" xlink:href="#DejaVuSans-95"/>
      <use x="1588.142578" xlink:href="#DejaVuSans-115"/>
      <use x="1640.242188" xlink:href="#DejaVuSans-101"/>
      <use x="1701.765625" xlink:href="#DejaVuSans-113"/>
      <use x="1765.242188" xlink:href="#DejaVuSans-117"/>
      <use x="1828.621094" xlink:href="#DejaVuSans-101"/>
      <use x="1890.144531" xlink:href="#DejaVuSans-110"/>
      <use x="1953.523438" xlink:href="#DejaVuSans-99"/>
      <use x="2008.503906" xlink:href="#DejaVuSans-101"/>
     </g>
    </g>
    <g id="line2d_36">
     <path d="M 608.507813 291.525394
L 624.507813 291.525394
" style="fill:none;stroke:#f45b5b;stroke-linecap:square;"/>
    </g>
    <g id="line2d_37"/>
    <g id="text_27">
     <!-- IP562_1 - nextera_transposase_sequence -->
     <g transform="translate(630.907813 294.325394)scale(0.08 -0.08)">
      <use xlink:href="#DejaVuSans-73"/>
      <use x="29.492188" xlink:href="#DejaVuSans-80"/>
      <use x="89.794922" xlink:href="#DejaVuSans-53"/>
      <use x="153.417969" xlink:href="#DejaVuSans-54"/>
      <use x="217.041016" xlink:href="#DejaVuSans-50"/>
      <use x="280.664062" xlink:href="#DejaVuSans-95"/>
      <use x="330.664062" xlink:href="#DejaVuSans-49"/>
      <use x="394.287109" xlink:href="#DejaVuSans-32"/>
      <use x="426.074219" xlink:href="#DejaVuSans-45"/>
      <use x="462.158203" xlink:href="#DejaVuSans-32"/>
      <use x="493.945312" xlink:href="#DejaVuSans-110"/>
      <use x="557.324219" xlink:href="#DejaVuSans-101"/>
      <use x="617.097656" xlink:href="#DejaVuSans-120"/>
      <use x="676.277344" xlink:href="#DejaVuSans-116"/>
      <use x="715.486328" xlink:href="#DejaVuSans-101"/>
      <use x="777.009766" xlink:href="#DejaVuSans-114"/>
      <use x="818.123047" xlink:href="#DejaVuSans-97"/>
      <use x="879.402344" xlink:href="#DejaVuSans-95"/>
      <use x="929.402344" xlink:href="#DejaVuSans-116"/>
      <use x="968.611328" xlink:href="#DejaVuSans-114"/>
      <use x="1009.724609" xlink:href="#DejaVuSans-97"/>
      <use x="1071.003906" xlink:href="#DejaVuSans-110"/>
      <use x="1134.382812" xlink:href="#DejaVuSans-115"/>
      <use x="1186.482422" xlink:href="#DejaVuSans-112"/>
      <use x="1249.958984" xlink:href="#DejaVuSans-111"/>
      <use x="1311.140625" xlink:href="#DejaVuSans-115"/>
      <use x="1363.240234" xlink:href="#DejaVuSans-97"/>
      <use x="1424.519531" xlink:href="#DejaVuSans-115"/>
      <use x="1476.619141" xlink:href="#DejaVuSans-101"/>
      <use x="1538.142578" xlink:href="#DejaVuSans-95"/>
      <use x="1588.142578" xlink:href="#DejaVuSans-115"/>
      <use x="1640.242188" xlink:href="#DejaVuSans-101"/>
      <use x="1701.765625" xlink:href="#DejaVuSans-113"/>
      <use x="1765.242188" xlink:href="#DejaVuSans-117"/>
      <use x="1828.621094" xlink:href="#DejaVuSans-101"/>
      <use x="1890.144531" xlink:href="#DejaVuSans-110"/>
      <use x="1953.523438" xlink:href="#DejaVuSans-99"/>
      <use x="2008.503906" xlink:href="#DejaVuSans-101"/>
     </g>
    </g>
    <g id="line2d_38">
     <path d="M 608.507813 303.490394
L 624.507813 303.490394
" style="fill:none;stroke:#91e8e1;stroke-linecap:square;"/>
    </g>
    <g id="line2d_39"/>
    <g id="text_28">
     <!-- IP562_2 - nextera_transposase_sequence -->
     <g transform="translate(630.907813 306.290394)scale(0.08 -0.08)">
      <use xlink:href="#DejaVuSans-73"/>
      <use x="29.492188" xlink:href="#DejaVuSans-80"/>
      <use x="89.794922" xlink:href="#DejaVuSans-53"/>
      <use x="153.417969" xlink:href="#DejaVuSans-54"/>
      <use x="217.041016" xlink:href="#DejaVuSans-50"/>
      <use x="280.664062" xlink:href="#DejaVuSans-95"/>
      <use x="330.664062" xlink:href="#DejaVuSans-50"/>
      <use x="394.287109" xlink:href="#DejaVuSans-32"/>
      <use x="426.074219" xlink:href="#DejaVuSans-45"/>
      <use x="462.158203" xlink:href="#DejaVuSans-32"/>
      <use x="493.945312" xlink:href="#DejaVuSans-110"/>
      <use x="557.324219" xlink:href="#DejaVuSans-101"/>
      <use x="617.097656" xlink:href="#DejaVuSans-120"/>
      <use x="676.277344" xlink:href="#DejaVuSans-116"/>
      <use x="715.486328" xlink:href="#DejaVuSans-101"/>
      <use x="777.009766" xlink:href="#DejaVuSans-114"/>
      <use x="818.123047" xlink:href="#DejaVuSans-97"/>
      <use x="879.402344" xlink:href="#DejaVuSans-95"/>
      <use x="929.402344" xlink:href="#DejaVuSans-116"/>
      <use x="968.611328" xlink:href="#DejaVuSans-114"/>
      <use x="1009.724609" xlink:href="#DejaVuSans-97"/>
      <use x="1071.003906" xlink:href="#DejaVuSans-110"/>
      <use x="1134.382812" xlink:href="#DejaVuSans-115"/>
      <use x="1186.482422" xlink:href="#DejaVuSans-112"/>
      <use x="1249.958984" xlink:href="#DejaVuSans-111"/>
      <use x="1311.140625" xlink:href="#DejaVuSans-115"/>
      <use x="1363.240234" xlink:href="#DejaVuSans-97"/>
      <use x="1424.519531" xlink:href="#DejaVuSans-115"/>
      <use x="1476.619141" xlink:href="#DejaVuSans-101"/>
      <use x="1538.142578" xlink:href="#DejaVuSans-95"/>
      <use x="1588.142578" xlink:href="#DejaVuSans-115"/>
      <use x="1640.242188" xlink:href="#DejaVuSans-101"/>
      <use x="1701.765625" xlink:href="#DejaVuSans-113"/>
      <use x="1765.242188" xlink:href="#DejaVuSans-117"/>
      <use x="1828.621094" xlink:href="#DejaVuSans-101"/>
      <use x="1890.144531" xlink:href="#DejaVuSans-110"/>
      <use x="1953.523438" xlink:href="#DejaVuSans-99"/>
      <use x="2008.503906" xlink:href="#DejaVuSans-101"/>
     </g>
    </g>
    <g id="line2d_40">
     <path d="M 797.954375 291.525394
L 813.954375 291.525394
" style="fill:none;stroke:#7cb5ec;stroke-linecap:square;"/>
    </g>
    <g id="line2d_41"/>
    <g id="text_29">
     <!-- IP579_1 - nextera_transposase_sequence -->
     <g transform="translate(820.354375 294.325394)scale(0.08 -0.08)">
      <defs>
       <path d="M 10.984375 1.515625
L 10.984375 10.5
Q 14.703125 8.734375 18.5 7.8125
Q 22.3125 6.890625 25.984375 6.890625
Q 35.75 6.890625 40.890625 13.453125
Q 46.046875 20.015625 46.78125 33.40625
Q 43.953125 29.203125 39.59375 26.953125
Q 35.25 24.703125 29.984375 24.703125
Q 19.046875 24.703125 12.671875 31.3125
Q 6.296875 37.9375 6.296875 49.421875
Q 6.296875 60.640625 12.9375 67.421875
Q 19.578125 74.21875 30.609375 74.21875
Q 43.265625 74.21875 49.921875 64.515625
Q 56.59375 54.828125 56.59375 36.375
Q 56.59375 19.140625 48.40625 8.859375
Q 40.234375 -1.421875 26.421875 -1.421875
Q 22.703125 -1.421875 18.890625 -0.6875
Q 15.09375 0.046875 10.984375 1.515625
z
M 30.609375 32.421875
Q 37.25 32.421875 41.125 36.953125
Q 45.015625 41.5 45.015625 49.421875
Q 45.015625 57.28125 41.125 61.84375
Q 37.25 66.40625 30.609375 66.40625
Q 23.96875 66.40625 20.09375 61.84375
Q 16.21875 57.28125 16.21875 49.421875
Q 16.21875 41.5 20.09375 36.953125
Q 23.96875 32.421875 30.609375 32.421875
z
" id="DejaVuSans-57"/>
      </defs>
      <use xlink:href="#DejaVuSans-73"/>
      <use x="29.492188" xlink:href="#DejaVuSans-80"/>
      <use x="89.794922" xlink:href="#DejaVuSans-53"/>
      <use x="153.417969" xlink:href="#DejaVuSans-55"/>
      <use x="217.041016" xlink:href="#DejaVuSans-57"/>
      <use x="280.664062" xlink:href="#DejaVuSans-95"/>
      <use x="330.664062" xlink:href="#DejaVuSans-49"/>
      <use x="394.287109" xlink:href="#DejaVuSans-32"/>
      <use x="426.074219" xlink:href="#DejaVuSans-45"/>
      <use x="462.158203" xlink:href="#DejaVuSans-32"/>
      <use x="493.945312" xlink:href="#DejaVuSans-110"/>
      <use x="557.324219" xlink:href="#DejaVuSans-101"/>
      <use x="617.097656" xlink:href="#DejaVuSans-120"/>
      <use x="676.277344" xlink:href="#DejaVuSans-116"/>
      <use x="715.486328" xlink:href="#DejaVuSans-101"/>
      <use x="777.009766" xlink:href="#DejaVuSans-114"/>
      <use x="818.123047" xlink:href="#DejaVuSans-97"/>
      <use x="879.402344" xlink:href="#DejaVuSans-95"/>
      <use x="929.402344" xlink:href="#DejaVuSans-116"/>
      <use x="968.611328" xlink:href="#DejaVuSans-114"/>
      <use x="1009.724609" xlink:href="#DejaVuSans-97"/>
      <use x="1071.003906" xlink:href="#DejaVuSans-110"/>
      <use x="1134.382812" xlink:href="#DejaVuSans-115"/>
      <use x="1186.482422" xlink:href="#DejaVuSans-112"/>
      <use x="1249.958984" xlink:href="#DejaVuSans-111"/>
      <use x="1311.140625" xlink:href="#DejaVuSans-115"/>
      <use x="1363.240234" xlink:href="#DejaVuSans-97"/>
      <use x="1424.519531" xlink:href="#DejaVuSans-115"/>
      <use x="1476.619141" xlink:href="#DejaVuSans-101"/>
      <use x="1538.142578" xlink:href="#DejaVuSans-95"/>
      <use x="1588.142578" xlink:href="#DejaVuSans-115"/>
      <use x="1640.242188" xlink:href="#DejaVuSans-101"/>
      <use x="1701.765625" xlink:href="#DejaVuSans-113"/>
      <use x="1765.242188" xlink:href="#DejaVuSans-117"/>
      <use x="1828.621094" xlink:href="#DejaVuSans-101"/>
      <use x="1890.144531" xlink:href="#DejaVuSans-110"/>
      <use x="1953.523438" xlink:href="#DejaVuSans-99"/>
      <use x="2008.503906" xlink:href="#DejaVuSans-101"/>
     </g>
    </g>
    <g id="line2d_42">
     <path d="M 797.954375 303.490394
L 813.954375 303.490394
" style="fill:none;stroke:#434348;stroke-linecap:square;"/>
    </g>
    <g id="line2d_43"/>
    <g id="text_30">
     <!-- IP579_2 - nextera_transposase_sequence -->
     <g transform="translate(820.354375 306.290394)scale(0.08 -0.08)">
      <use xlink:href="#DejaVuSans-73"/>
      <use x="29.492188" xlink:href="#DejaVuSans-80"/>
      <use x="89.794922" xlink:href="#DejaVuSans-53"/>
      <use x="153.417969" xlink:href="#DejaVuSans-55"/>
      <use x="217.041016" xlink:href="#DejaVuSans-57"/>
      <use x="280.664062" xlink:href="#DejaVuSans-95"/>
      <use x="330.664062" xlink:href="#DejaVuSans-50"/>
      <use x="394.287109" xlink:href="#DejaVuSans-32"/>
      <use x="426.074219" xlink:href="#DejaVuSans-45"/>
      <use x="462.158203" xlink:href="#DejaVuSans-32"/>
      <use x="493.945312" xlink:href="#DejaVuSans-110"/>
      <use x="557.324219" xlink:href="#DejaVuSans-101"/>
      <use x="617.097656" xlink:href="#DejaVuSans-120"/>
      <use x="676.277344" xlink:href="#DejaVuSans-116"/>
      <use x="715.486328" xlink:href="#DejaVuSans-101"/>
      <use x="777.009766" xlink:href="#DejaVuSans-114"/>
      <use x="818.123047" xlink:href="#DejaVuSans-97"/>
      <use x="879.402344" xlink:href="#DejaVuSans-95"/>
      <use x="929.402344" xlink:href="#DejaVuSans-116"/>
      <use x="968.611328" xlink:href="#DejaVuSans-114"/>
      <use x="1009.724609" xlink:href="#DejaVuSans-97"/>
      <use x="1071.003906" xlink:href="#DejaVuSans-110"/>
      <use x="1134.382812" xlink:href="#DejaVuSans-115"/>
      <use x="1186.482422" xlink:href="#DejaVuSans-112"/>
      <use x="1249.958984" xlink:href="#DejaVuSans-111"/>
      <use x="1311.140625" xlink:href="#DejaVuSans-115"/>
      <use x="1363.240234" xlink:href="#DejaVuSans-97"/>
      <use x="1424.519531" xlink:href="#DejaVuSans-115"/>
      <use x="1476.619141" xlink:href="#DejaVuSans-101"/>
      <use x="1538.142578" xlink:href="#DejaVuSans-95"/>
      <use x="1588.142578" xlink:href="#DejaVuSans-115"/>
      <use x="1640.242188" xlink:href="#DejaVuSans-101"/>
      <use x="1701.765625" xlink:href="#DejaVuSans-113"/>
      <use x="1765.242188" xlink:href="#DejaVuSans-117"/>
      <use x="1828.621094" xlink:href="#DejaVuSans-101"/>
      <use x="1890.144531" xlink:href="#DejaVuSans-110"/>
      <use x="1953.523438" xlink:href="#DejaVuSans-99"/>
      <use x="2008.503906" xlink:href="#DejaVuSans-101"/>
     </g>
    </g>
   </g>
  </g>
 </g>
 <defs>
  <clipPath id="p78a60b3419">
   <rect height="242.5072" width="960.19" x="32.968125" y="31.48286"/>
  </clipPath>
 </defs>
</svg>
