<?xml version="1.0" encoding="utf-8" standalone="no"?>
<!DOCTYPE svg PUBLIC "-//W3C//DTD SVG 1.1//EN"
  "http://www.w3.org/Graphics/SVG/1.1/DTD/svg11.dtd">
<!-- Created with matplotlib (https://matplotlib.org/) -->
<svg height="330.541644pt" version="1.1" viewBox="0 0 1000.298125 330.541644" width="1000.298125pt" xmlns="http://www.w3.org/2000/svg" xmlns:xlink="http://www.w3.org/1999/xlink">
 <metadata>
  <rdf:RDF xmlns:cc="http://creativecommons.org/ns#" xmlns:dc="http://purl.org/dc/elements/1.1/" xmlns:rdf="http://www.w3.org/1999/02/22-rdf-syntax-ns#">
   <cc:Work>
    <dc:type rdf:resource="http://purl.org/dc/dcmitype/StillImage"/>
    <dc:date>2021-02-12T15:21:10.097336</dc:date>
    <dc:format>image/svg+xml</dc:format>
    <dc:creator>
     <cc:Agent>
      <dc:title>Matplotlib v3.3.2, https://matplotlib.org/</dc:title>
     </cc:Agent>
    </dc:creator>
   </cc:Work>
  </rdf:RDF>
 </metadata>
 <defs>
  <style type="text/css">*{stroke-linecap:butt;stroke-linejoin:round;}</style>
 </defs>
 <g id="figure_1">
  <g id="axes_1">
   <g id="patch_1">
    <path d="M 32.968125 273.99006
L 985.463125 273.99006
L 985.463125 31.48286
L 32.968125 31.48286
z
" style="fill:#ffffff;"/>
   </g>
   <g id="matplotlib.axis_1">
    <g id="xtick_1">
     <g id="text_1">
      <!-- 0 -->
      <g transform="translate(30.423125 287.06881)scale(0.08 -0.08)">
       <defs>
        <path d="M 31.78125 66.40625
Q 24.171875 66.40625 20.328125 58.90625
Q 16.5 51.421875 16.5 36.375
Q 16.5 21.390625 20.328125 13.890625
Q 24.171875 6.390625 31.78125 6.390625
Q 39.453125 6.390625 43.28125 13.890625
Q 47.125 21.390625 47.125 36.375
Q 47.125 51.421875 43.28125 58.90625
Q 39.453125 66.40625 31.78125 66.40625
z
M 31.78125 74.21875
Q 44.046875 74.21875 50.515625 64.515625
Q 56.984375 54.828125 56.984375 36.375
Q 56.984375 17.96875 50.515625 8.265625
Q 44.046875 -1.421875 31.78125 -1.421875
Q 19.53125 -1.421875 13.0625 8.265625
Q 6.59375 17.96875 6.59375 36.375
Q 6.59375 54.828125 13.0625 64.515625
Q 19.53125 74.21875 31.78125 74.21875
z
" id="DejaVuSans-48"/>
       </defs>
       <use xlink:href="#DejaVuSans-48"/>
      </g>
     </g>
    </g>
    <g id="xtick_2">
     <g id="text_2">
      <!-- 20 -->
      <g transform="translate(218.377125 287.06881)scale(0.08 -0.08)">
       <defs>
        <path d="M 19.1875 8.296875
L 53.609375 8.296875
L 53.609375 0
L 7.328125 0
L 7.328125 8.296875
Q 12.9375 14.109375 22.625 23.890625
Q 32.328125 33.6875 34.8125 36.53125
Q 39.546875 41.84375 41.421875 45.53125
Q 43.3125 49.21875 43.3125 52.78125
Q 43.3125 58.59375 39.234375 62.25
Q 35.15625 65.921875 28.609375 65.921875
Q 23.96875 65.921875 18.8125 64.3125
Q 13.671875 62.703125 7.8125 59.421875
L 7.8125 69.390625
Q 13.765625 71.78125 18.9375 73
Q 24.125 74.21875 28.421875 74.21875
Q 39.75 74.21875 46.484375 68.546875
Q 53.21875 62.890625 53.21875 53.421875
Q 53.21875 48.921875 51.53125 44.890625
Q 49.859375 40.875 45.40625 35.40625
Q 44.1875 33.984375 37.640625 27.21875
Q 31.109375 20.453125 19.1875 8.296875
z
" id="DejaVuSans-50"/>
       </defs>
       <use xlink:href="#DejaVuSans-50"/>
       <use x="63.623047" xlink:href="#DejaVuSans-48"/>
      </g>
     </g>
    </g>
    <g id="xtick_3">
     <g id="text_3">
      <!-- 40 -->
      <g transform="translate(408.876125 287.06881)scale(0.08 -0.08)">
       <defs>
        <path d="M 37.796875 64.3125
L 12.890625 25.390625
L 37.796875 25.390625
z
M 35.203125 72.90625
L 47.609375 72.90625
L 47.609375 25.390625
L 58.015625 25.390625
L 58.015625 17.1875
L 47.609375 17.1875
L 47.609375 0
L 37.796875 0
L 37.796875 17.1875
L 4.890625 17.1875
L 4.890625 26.703125
z
" id="DejaVuSans-52"/>
       </defs>
       <use xlink:href="#DejaVuSans-52"/>
       <use x="63.623047" xlink:href="#DejaVuSans-48"/>
      </g>
     </g>
    </g>
    <g id="xtick_4">
     <g id="text_4">
      <!-- 60 -->
      <g transform="translate(599.375125 287.06881)scale(0.08 -0.08)">
       <defs>
        <path d="M 33.015625 40.375
Q 26.375 40.375 22.484375 35.828125
Q 18.609375 31.296875 18.609375 23.390625
Q 18.609375 15.53125 22.484375 10.953125
Q 26.375 6.390625 33.015625 6.390625
Q 39.65625 6.390625 43.53125 10.953125
Q 47.40625 15.53125 47.40625 23.390625
Q 47.40625 31.296875 43.53125 35.828125
Q 39.65625 40.375 33.015625 40.375
z
M 52.59375 71.296875
L 52.59375 62.3125
Q 48.875 64.0625 45.09375 64.984375
Q 41.3125 65.921875 37.59375 65.921875
Q 27.828125 65.921875 22.671875 59.328125
Q 17.53125 52.734375 16.796875 39.40625
Q 19.671875 43.65625 24.015625 45.921875
Q 28.375 48.1875 33.59375 48.1875
Q 44.578125 48.1875 50.953125 41.515625
Q 57.328125 34.859375 57.328125 23.390625
Q 57.328125 12.15625 50.6875 5.359375
Q 44.046875 -1.421875 33.015625 -1.421875
Q 20.359375 -1.421875 13.671875 8.265625
Q 6.984375 17.96875 6.984375 36.375
Q 6.984375 53.65625 15.1875 63.9375
Q 23.390625 74.21875 37.203125 74.21875
Q 40.921875 74.21875 44.703125 73.484375
Q 48.484375 72.75 52.59375 71.296875
z
" id="DejaVuSans-54"/>
       </defs>
       <use xlink:href="#DejaVuSans-54"/>
       <use x="63.623047" xlink:href="#DejaVuSans-48"/>
      </g>
     </g>
    </g>
    <g id="xtick_5">
     <g id="text_5">
      <!-- 80 -->
      <g transform="translate(789.874125 287.06881)scale(0.08 -0.08)">
       <defs>
        <path d="M 31.78125 34.625
Q 24.75 34.625 20.71875 30.859375
Q 16.703125 27.09375 16.703125 20.515625
Q 16.703125 13.921875 20.71875 10.15625
Q 24.75 6.390625 31.78125 6.390625
Q 38.8125 6.390625 42.859375 10.171875
Q 46.921875 13.96875 46.921875 20.515625
Q 46.921875 27.09375 42.890625 30.859375
Q 38.875 34.625 31.78125 34.625
z
M 21.921875 38.8125
Q 15.578125 40.375 12.03125 44.71875
Q 8.5 49.078125 8.5 55.328125
Q 8.5 64.0625 14.71875 69.140625
Q 20.953125 74.21875 31.78125 74.21875
Q 42.671875 74.21875 48.875 69.140625
Q 55.078125 64.0625 55.078125 55.328125
Q 55.078125 49.078125 51.53125 44.71875
Q 48 40.375 41.703125 38.8125
Q 48.828125 37.15625 52.796875 32.3125
Q 56.78125 27.484375 56.78125 20.515625
Q 56.78125 9.90625 50.3125 4.234375
Q 43.84375 -1.421875 31.78125 -1.421875
Q 19.734375 -1.421875 13.25 4.234375
Q 6.78125 9.90625 6.78125 20.515625
Q 6.78125 27.484375 10.78125 32.3125
Q 14.796875 37.15625 21.921875 38.8125
z
M 18.3125 54.390625
Q 18.3125 48.734375 21.84375 45.5625
Q 25.390625 42.390625 31.78125 42.390625
Q 38.140625 42.390625 41.71875 45.5625
Q 45.3125 48.734375 45.3125 54.390625
Q 45.3125 60.0625 41.71875 63.234375
Q 38.140625 66.40625 31.78125 66.40625
Q 25.390625 66.40625 21.84375 63.234375
Q 18.3125 60.0625 18.3125 54.390625
z
" id="DejaVuSans-56"/>
       </defs>
       <use xlink:href="#DejaVuSans-56"/>
       <use x="63.623047" xlink:href="#DejaVuSans-48"/>
      </g>
     </g>
    </g>
    <g id="xtick_6">
     <g id="text_6">
      <!-- 100 -->
      <g transform="translate(977.828125 287.06881)scale(0.08 -0.08)">
       <defs>
        <path d="M 12.40625 8.296875
L 28.515625 8.296875
L 28.515625 63.921875
L 10.984375 60.40625
L 10.984375 69.390625
L 28.421875 72.90625
L 38.28125 72.90625
L 38.28125 8.296875
L 54.390625 8.296875
L 54.390625 0
L 12.40625 0
z
" id="DejaVuSans-49"/>
       </defs>
       <use xlink:href="#DejaVuSans-49"/>
       <use x="63.623047" xlink:href="#DejaVuSans-48"/>
       <use x="127.246094" xlink:href="#DejaVuSans-48"/>
      </g>
     </g>
    </g>
    <g id="text_7">
     <!-- % GC -->
     <g transform="translate(495.510156 300.330997)scale(0.1 -0.1)">
      <defs>
       <path d="M 72.703125 32.078125
Q 68.453125 32.078125 66.03125 28.46875
Q 63.625 24.859375 63.625 18.40625
Q 63.625 12.0625 66.03125 8.421875
Q 68.453125 4.78125 72.703125 4.78125
Q 76.859375 4.78125 79.265625 8.421875
Q 81.6875 12.0625 81.6875 18.40625
Q 81.6875 24.8125 79.265625 28.4375
Q 76.859375 32.078125 72.703125 32.078125
z
M 72.703125 38.28125
Q 80.421875 38.28125 84.953125 32.90625
Q 89.5 27.546875 89.5 18.40625
Q 89.5 9.28125 84.9375 3.921875
Q 80.375 -1.421875 72.703125 -1.421875
Q 64.890625 -1.421875 60.34375 3.921875
Q 55.8125 9.28125 55.8125 18.40625
Q 55.8125 27.59375 60.375 32.9375
Q 64.9375 38.28125 72.703125 38.28125
z
M 22.3125 68.015625
Q 18.109375 68.015625 15.6875 64.375
Q 13.28125 60.75 13.28125 54.390625
Q 13.28125 47.953125 15.671875 44.328125
Q 18.0625 40.71875 22.3125 40.71875
Q 26.5625 40.71875 28.96875 44.328125
Q 31.390625 47.953125 31.390625 54.390625
Q 31.390625 60.6875 28.953125 64.34375
Q 26.515625 68.015625 22.3125 68.015625
z
M 66.40625 74.21875
L 74.21875 74.21875
L 28.609375 -1.421875
L 20.796875 -1.421875
z
M 22.3125 74.21875
Q 30.03125 74.21875 34.609375 68.875
Q 39.203125 63.53125 39.203125 54.390625
Q 39.203125 45.171875 34.640625 39.84375
Q 30.078125 34.515625 22.3125 34.515625
Q 14.546875 34.515625 10.03125 39.859375
Q 5.515625 45.21875 5.515625 54.390625
Q 5.515625 63.484375 10.046875 68.84375
Q 14.59375 74.21875 22.3125 74.21875
z
" id="DejaVuSans-37"/>
       <path id="DejaVuSans-32"/>
       <path d="M 59.515625 10.40625
L 59.515625 29.984375
L 43.40625 29.984375
L 43.40625 38.09375
L 69.28125 38.09375
L 69.28125 6.78125
Q 63.578125 2.734375 56.6875 0.65625
Q 49.8125 -1.421875 42 -1.421875
Q 24.90625 -1.421875 15.25 8.5625
Q 5.609375 18.5625 5.609375 36.375
Q 5.609375 54.25 15.25 64.234375
Q 24.90625 74.21875 42 74.21875
Q 49.125 74.21875 55.546875 72.453125
Q 61.96875 70.703125 67.390625 67.28125
L 67.390625 56.78125
Q 61.921875 61.421875 55.765625 63.765625
Q 49.609375 66.109375 42.828125 66.109375
Q 29.4375 66.109375 22.71875 58.640625
Q 16.015625 51.171875 16.015625 36.375
Q 16.015625 21.625 22.71875 14.15625
Q 29.4375 6.6875 42.828125 6.6875
Q 48.046875 6.6875 52.140625 7.59375
Q 56.25 8.5 59.515625 10.40625
z
" id="DejaVuSans-71"/>
       <path d="M 64.40625 67.28125
L 64.40625 56.890625
Q 59.421875 61.53125 53.78125 63.8125
Q 48.140625 66.109375 41.796875 66.109375
Q 29.296875 66.109375 22.65625 58.46875
Q 16.015625 50.828125 16.015625 36.375
Q 16.015625 21.96875 22.65625 14.328125
Q 29.296875 6.6875 41.796875 6.6875
Q 48.140625 6.6875 53.78125 8.984375
Q 59.421875 11.28125 64.40625 15.921875
L 64.40625 5.609375
Q 59.234375 2.09375 53.4375 0.328125
Q 47.65625 -1.421875 41.21875 -1.421875
Q 24.65625 -1.421875 15.125 8.703125
Q 5.609375 18.84375 5.609375 36.375
Q 5.609375 53.953125 15.125 64.078125
Q 24.65625 74.21875 41.21875 74.21875
Q 47.75 74.21875 53.53125 72.484375
Q 59.328125 70.75 64.40625 67.28125
z
" id="DejaVuSans-67"/>
      </defs>
      <use xlink:href="#DejaVuSans-37"/>
      <use x="95.019531" xlink:href="#DejaVuSans-32"/>
      <use x="126.806641" xlink:href="#DejaVuSans-71"/>
      <use x="204.296875" xlink:href="#DejaVuSans-67"/>
     </g>
    </g>
   </g>
   <g id="matplotlib.axis_2">
    <g id="ytick_1">
     <g id="line2d_1">
      <path clip-path="url(#pf08f2bce27)" d="M 32.968125 273.99006
L 985.463125 273.99006
" style="fill:none;stroke:#dedede;stroke-linecap:square;"/>
     </g>
     <g id="text_8">
      <!-- 0 -->
      <g transform="translate(20.878125 277.029435)scale(0.08 -0.08)">
       <use xlink:href="#DejaVuSans-48"/>
      </g>
     </g>
    </g>
    <g id="ytick_2">
     <g id="line2d_2">
      <path clip-path="url(#pf08f2bce27)" d="M 32.968125 238.467116
L 985.463125 238.467116
" style="fill:none;stroke:#dedede;stroke-linecap:square;"/>
     </g>
     <g id="text_9">
      <!-- 1 -->
      <g transform="translate(20.878125 241.506491)scale(0.08 -0.08)">
       <use xlink:href="#DejaVuSans-49"/>
      </g>
     </g>
    </g>
    <g id="ytick_3">
     <g id="line2d_3">
      <path clip-path="url(#pf08f2bce27)" d="M 32.968125 202.944173
L 985.463125 202.944173
" style="fill:none;stroke:#dedede;stroke-linecap:square;"/>
     </g>
     <g id="text_10">
      <!-- 2 -->
      <g transform="translate(20.878125 205.983548)scale(0.08 -0.08)">
       <use xlink:href="#DejaVuSans-50"/>
      </g>
     </g>
    </g>
    <g id="ytick_4">
     <g id="line2d_4">
      <path clip-path="url(#pf08f2bce27)" d="M 32.968125 167.421229
L 985.463125 167.421229
" style="fill:none;stroke:#dedede;stroke-linecap:square;"/>
     </g>
     <g id="text_11">
      <!-- 3 -->
      <g transform="translate(20.878125 170.460604)scale(0.08 -0.08)">
       <defs>
        <path d="M 40.578125 39.3125
Q 47.65625 37.796875 51.625 33
Q 55.609375 28.21875 55.609375 21.1875
Q 55.609375 10.40625 48.1875 4.484375
Q 40.765625 -1.421875 27.09375 -1.421875
Q 22.515625 -1.421875 17.65625 -0.515625
Q 12.796875 0.390625 7.625 2.203125
L 7.625 11.71875
Q 11.71875 9.328125 16.59375 8.109375
Q 21.484375 6.890625 26.8125 6.890625
Q 36.078125 6.890625 40.9375 10.546875
Q 45.796875 14.203125 45.796875 21.1875
Q 45.796875 27.640625 41.28125 31.265625
Q 36.765625 34.90625 28.71875 34.90625
L 20.21875 34.90625
L 20.21875 43.015625
L 29.109375 43.015625
Q 36.375 43.015625 40.234375 45.921875
Q 44.09375 48.828125 44.09375 54.296875
Q 44.09375 59.90625 40.109375 62.90625
Q 36.140625 65.921875 28.71875 65.921875
Q 24.65625 65.921875 20.015625 65.03125
Q 15.375 64.15625 9.8125 62.3125
L 9.8125 71.09375
Q 15.4375 72.65625 20.34375 73.4375
Q 25.25 74.21875 29.59375 74.21875
Q 40.828125 74.21875 47.359375 69.109375
Q 53.90625 64.015625 53.90625 55.328125
Q 53.90625 49.265625 50.4375 45.09375
Q 46.96875 40.921875 40.578125 39.3125
z
" id="DejaVuSans-51"/>
       </defs>
       <use xlink:href="#DejaVuSans-51"/>
      </g>
     </g>
    </g>
    <g id="ytick_5">
     <g id="line2d_5">
      <path clip-path="url(#pf08f2bce27)" d="M 32.968125 131.898285
L 985.463125 131.898285
" style="fill:none;stroke:#dedede;stroke-linecap:square;"/>
     </g>
     <g id="text_12">
      <!-- 4 -->
      <g transform="translate(20.878125 134.93766)scale(0.08 -0.08)">
       <use xlink:href="#DejaVuSans-52"/>
      </g>
     </g>
    </g>
    <g id="ytick_6">
     <g id="line2d_6">
      <path clip-path="url(#pf08f2bce27)" d="M 32.968125 96.375342
L 985.463125 96.375342
" style="fill:none;stroke:#dedede;stroke-linecap:square;"/>
     </g>
     <g id="text_13">
      <!-- 5 -->
      <g transform="translate(20.878125 99.414717)scale(0.08 -0.08)">
       <defs>
        <path d="M 10.796875 72.90625
L 49.515625 72.90625
L 49.515625 64.59375
L 19.828125 64.59375
L 19.828125 46.734375
Q 21.96875 47.46875 24.109375 47.828125
Q 26.265625 48.1875 28.421875 48.1875
Q 40.625 48.1875 47.75 41.5
Q 54.890625 34.8125 54.890625 23.390625
Q 54.890625 11.625 47.5625 5.09375
Q 40.234375 -1.421875 26.90625 -1.421875
Q 22.3125 -1.421875 17.546875 -0.640625
Q 12.796875 0.140625 7.71875 1.703125
L 7.71875 11.625
Q 12.109375 9.234375 16.796875 8.0625
Q 21.484375 6.890625 26.703125 6.890625
Q 35.15625 6.890625 40.078125 11.328125
Q 45.015625 15.765625 45.015625 23.390625
Q 45.015625 31 40.078125 35.4375
Q 35.15625 39.890625 26.703125 39.890625
Q 22.75 39.890625 18.8125 39.015625
Q 14.890625 38.140625 10.796875 36.28125
z
" id="DejaVuSans-53"/>
       </defs>
       <use xlink:href="#DejaVuSans-53"/>
      </g>
     </g>
    </g>
    <g id="ytick_7">
     <g id="line2d_7">
      <path clip-path="url(#pf08f2bce27)" d="M 32.968125 60.852398
L 985.463125 60.852398
" style="fill:none;stroke:#dedede;stroke-linecap:square;"/>
     </g>
     <g id="text_14">
      <!-- 6 -->
      <g transform="translate(20.878125 63.891773)scale(0.08 -0.08)">
       <use xlink:href="#DejaVuSans-54"/>
      </g>
     </g>
    </g>
    <g id="text_15">
     <!-- Percentage -->
     <g transform="translate(14.798437 180.859116)rotate(-90)scale(0.1 -0.1)">
      <defs>
       <path d="M 19.671875 64.796875
L 19.671875 37.40625
L 32.078125 37.40625
Q 38.96875 37.40625 42.71875 40.96875
Q 46.484375 44.53125 46.484375 51.125
Q 46.484375 57.671875 42.71875 61.234375
Q 38.96875 64.796875 32.078125 64.796875
z
M 9.8125 72.90625
L 32.078125 72.90625
Q 44.34375 72.90625 50.609375 67.359375
Q 56.890625 61.8125 56.890625 51.125
Q 56.890625 40.328125 50.609375 34.8125
Q 44.34375 29.296875 32.078125 29.296875
L 19.671875 29.296875
L 19.671875 0
L 9.8125 0
z
" id="DejaVuSans-80"/>
       <path d="M 56.203125 29.59375
L 56.203125 25.203125
L 14.890625 25.203125
Q 15.484375 15.921875 20.484375 11.0625
Q 25.484375 6.203125 34.421875 6.203125
Q 39.59375 6.203125 44.453125 7.46875
Q 49.3125 8.734375 54.109375 11.28125
L 54.109375 2.78125
Q 49.265625 0.734375 44.1875 -0.34375
Q 39.109375 -1.421875 33.890625 -1.421875
Q 20.796875 -1.421875 13.15625 6.1875
Q 5.515625 13.8125 5.515625 26.8125
Q 5.515625 40.234375 12.765625 48.109375
Q 20.015625 56 32.328125 56
Q 43.359375 56 49.78125 48.890625
Q 56.203125 41.796875 56.203125 29.59375
z
M 47.21875 32.234375
Q 47.125 39.59375 43.09375 43.984375
Q 39.0625 48.390625 32.421875 48.390625
Q 24.90625 48.390625 20.390625 44.140625
Q 15.875 39.890625 15.1875 32.171875
z
" id="DejaVuSans-101"/>
       <path d="M 41.109375 46.296875
Q 39.59375 47.171875 37.8125 47.578125
Q 36.03125 48 33.890625 48
Q 26.265625 48 22.1875 43.046875
Q 18.109375 38.09375 18.109375 28.8125
L 18.109375 0
L 9.078125 0
L 9.078125 54.6875
L 18.109375 54.6875
L 18.109375 46.1875
Q 20.953125 51.171875 25.484375 53.578125
Q 30.03125 56 36.53125 56
Q 37.453125 56 38.578125 55.875
Q 39.703125 55.765625 41.0625 55.515625
z
" id="DejaVuSans-114"/>
       <path d="M 48.78125 52.59375
L 48.78125 44.1875
Q 44.96875 46.296875 41.140625 47.34375
Q 37.3125 48.390625 33.40625 48.390625
Q 24.65625 48.390625 19.8125 42.84375
Q 14.984375 37.3125 14.984375 27.296875
Q 14.984375 17.28125 19.8125 11.734375
Q 24.65625 6.203125 33.40625 6.203125
Q 37.3125 6.203125 41.140625 7.25
Q 44.96875 8.296875 48.78125 10.40625
L 48.78125 2.09375
Q 45.015625 0.34375 40.984375 -0.53125
Q 36.96875 -1.421875 32.421875 -1.421875
Q 20.0625 -1.421875 12.78125 6.34375
Q 5.515625 14.109375 5.515625 27.296875
Q 5.515625 40.671875 12.859375 48.328125
Q 20.21875 56 33.015625 56
Q 37.15625 56 41.109375 55.140625
Q 45.0625 54.296875 48.78125 52.59375
z
" id="DejaVuSans-99"/>
       <path d="M 54.890625 33.015625
L 54.890625 0
L 45.90625 0
L 45.90625 32.71875
Q 45.90625 40.484375 42.875 44.328125
Q 39.84375 48.1875 33.796875 48.1875
Q 26.515625 48.1875 22.3125 43.546875
Q 18.109375 38.921875 18.109375 30.90625
L 18.109375 0
L 9.078125 0
L 9.078125 54.6875
L 18.109375 54.6875
L 18.109375 46.1875
Q 21.34375 51.125 25.703125 53.5625
Q 30.078125 56 35.796875 56
Q 45.21875 56 50.046875 50.171875
Q 54.890625 44.34375 54.890625 33.015625
z
" id="DejaVuSans-110"/>
       <path d="M 18.3125 70.21875
L 18.3125 54.6875
L 36.8125 54.6875
L 36.8125 47.703125
L 18.3125 47.703125
L 18.3125 18.015625
Q 18.3125 11.328125 20.140625 9.421875
Q 21.96875 7.515625 27.59375 7.515625
L 36.8125 7.515625
L 36.8125 0
L 27.59375 0
Q 17.1875 0 13.234375 3.875
Q 9.28125 7.765625 9.28125 18.015625
L 9.28125 47.703125
L 2.6875 47.703125
L 2.6875 54.6875
L 9.28125 54.6875
L 9.28125 70.21875
z
" id="DejaVuSans-116"/>
       <path d="M 34.28125 27.484375
Q 23.390625 27.484375 19.1875 25
Q 14.984375 22.515625 14.984375 16.5
Q 14.984375 11.71875 18.140625 8.90625
Q 21.296875 6.109375 26.703125 6.109375
Q 34.1875 6.109375 38.703125 11.40625
Q 43.21875 16.703125 43.21875 25.484375
L 43.21875 27.484375
z
M 52.203125 31.203125
L 52.203125 0
L 43.21875 0
L 43.21875 8.296875
Q 40.140625 3.328125 35.546875 0.953125
Q 30.953125 -1.421875 24.3125 -1.421875
Q 15.921875 -1.421875 10.953125 3.296875
Q 6 8.015625 6 15.921875
Q 6 25.140625 12.171875 29.828125
Q 18.359375 34.515625 30.609375 34.515625
L 43.21875 34.515625
L 43.21875 35.40625
Q 43.21875 41.609375 39.140625 45
Q 35.0625 48.390625 27.6875 48.390625
Q 23 48.390625 18.546875 47.265625
Q 14.109375 46.140625 10.015625 43.890625
L 10.015625 52.203125
Q 14.9375 54.109375 19.578125 55.046875
Q 24.21875 56 28.609375 56
Q 40.484375 56 46.34375 49.84375
Q 52.203125 43.703125 52.203125 31.203125
z
" id="DejaVuSans-97"/>
       <path d="M 45.40625 27.984375
Q 45.40625 37.75 41.375 43.109375
Q 37.359375 48.484375 30.078125 48.484375
Q 22.859375 48.484375 18.828125 43.109375
Q 14.796875 37.75 14.796875 27.984375
Q 14.796875 18.265625 18.828125 12.890625
Q 22.859375 7.515625 30.078125 7.515625
Q 37.359375 7.515625 41.375 12.890625
Q 45.40625 18.265625 45.40625 27.984375
z
M 54.390625 6.78125
Q 54.390625 -7.171875 48.1875 -13.984375
Q 42 -20.796875 29.203125 -20.796875
Q 24.46875 -20.796875 20.265625 -20.09375
Q 16.0625 -19.390625 12.109375 -17.921875
L 12.109375 -9.1875
Q 16.0625 -11.328125 19.921875 -12.34375
Q 23.78125 -13.375 27.78125 -13.375
Q 36.625 -13.375 41.015625 -8.765625
Q 45.40625 -4.15625 45.40625 5.171875
L 45.40625 9.625
Q 42.625 4.78125 38.28125 2.390625
Q 33.9375 0 27.875 0
Q 17.828125 0 11.671875 7.65625
Q 5.515625 15.328125 5.515625 27.984375
Q 5.515625 40.671875 11.671875 48.328125
Q 17.828125 56 27.875 56
Q 33.9375 56 38.28125 53.609375
Q 42.625 51.21875 45.40625 46.390625
L 45.40625 54.6875
L 54.390625 54.6875
z
" id="DejaVuSans-103"/>
      </defs>
      <use xlink:href="#DejaVuSans-80"/>
      <use x="56.677734" xlink:href="#DejaVuSans-101"/>
      <use x="118.201172" xlink:href="#DejaVuSans-114"/>
      <use x="157.064453" xlink:href="#DejaVuSans-99"/>
      <use x="212.044922" xlink:href="#DejaVuSans-101"/>
      <use x="273.568359" xlink:href="#DejaVuSans-110"/>
      <use x="336.947266" xlink:href="#DejaVuSans-116"/>
      <use x="376.15625" xlink:href="#DejaVuSans-97"/>
      <use x="437.435547" xlink:href="#DejaVuSans-103"/>
      <use x="500.912109" xlink:href="#DejaVuSans-101"/>
     </g>
    </g>
   </g>
   <g id="line2d_8">
    <path clip-path="url(#pf08f2bce27)" d="M 32.968125 273.99006
L 42.493075 273.99006
L 52.018025 273.99006
L 61.542975 273.99006
L 71.067925 273.99006
L 80.592875 273.99006
L 90.117825 273.99006
L 99.642775 273.989503
L 109.167725 273.989503
L 118.692675 273.99006
L 128.217625 273.99006
L 137.742575 273.988945
L 147.267525 273.987831
L 156.792475 273.985601
L 166.317425 273.981143
L 175.842375 273.978913
L 185.367325 273.971668
L 194.892275 273.954948
L 204.417225 273.922622
L 213.942175 273.87302
L 223.467125 273.846268
L 232.992075 273.793321
L 242.517025 273.699131
L 252.041975 273.573731
L 261.566925 273.277786
L 271.091875 272.84418
L 280.616825 272.241144
L 290.141775 271.322656
L 299.666725 269.939351
L 309.191675 267.823709
L 318.716625 266.5541
L 328.241575 265.259969
L 337.766525 262.012379
L 347.291475 257.671857
L 356.816425 252.175422
L 366.341375 245.356431
L 375.866325 236.646961
L 385.391275 225.510856
L 394.916225 212.954105
L 404.441175 198.398194
L 413.966125 190.262779
L 423.491075 181.03666
L 433.016025 161.144826
L 442.540975 138.173161
L 452.065925 115.592187
L 461.590875 94.618567
L 471.115825 74.681589
L 480.640775 58.455903
L 490.165725 48.517511
L 499.690675 47.735013
L 509.215625 49.903602
L 518.740575 53.996111
L 528.265525 64.367553
L 537.790475 83.170912
L 547.315425 109.720666
L 556.840375 135.817864
L 566.365325 160.362328
L 575.890275 184.586325
L 585.415225 207.466587
L 594.940175 226.795513
L 604.465125 234.995579
L 613.990075 241.510822
L 623.515025 252.962936
L 633.039975 260.886006
L 642.564925 266.082038
L 652.089875 269.426046
L 661.614825 271.259677
L 671.139775 272.506435
L 680.664725 273.339093
L 690.189675 273.707491
L 699.714625 273.790534
L 709.239575 273.849612
L 718.764525 273.925967
L 728.289475 273.955505
L 737.814425 273.967767
L 747.339375 273.975569
L 756.864325 273.985044
L 766.389275 273.987273
L 775.914225 273.986159
L 785.439175 273.984487
L 794.964125 273.984487
L 804.489075 273.986159
L 814.014025 273.987831
L 823.538975 273.988945
L 833.063925 273.99006
L 842.588875 273.99006
L 852.113825 273.99006
L 861.638775 273.99006
L 871.163725 273.99006
L 880.688675 273.99006
L 890.213625 273.99006
L 899.738575 273.99006
L 909.263525 273.99006
L 918.788475 273.99006
L 928.313425 273.99006
L 937.838375 273.99006
L 947.363325 273.99006
L 956.888275 273.99006
L 966.413225 273.988945
L 975.938175 273.988945
L 985.463125 273.99006
" style="fill:none;stroke:#5cb85c;stroke-linecap:square;"/>
   </g>
   <g id="line2d_9">
    <path clip-path="url(#pf08f2bce27)" d="M 32.968125 273.944345
L 42.493075 273.959397
L 52.018025 273.973892
L 61.542975 273.972777
L 71.067925 273.972777
L 80.592875 273.975565
L 90.117825 273.97668
L 99.642775 273.97668
L 109.167725 273.980025
L 118.692675 273.98114
L 128.217625 273.980025
L 137.742575 273.981697
L 147.267525 273.979467
L 156.792475 273.966645
L 166.317425 273.946575
L 175.842375 273.930964
L 185.367325 273.913124
L 194.892275 273.884134
L 204.417225 273.806641
L 213.942175 273.71298
L 223.467125 273.681202
L 232.992075 273.590328
L 242.517025 273.430881
L 252.041975 273.194499
L 261.566925 272.78306
L 271.091875 272.190431
L 280.616825 271.43055
L 290.141775 270.264805
L 299.666725 268.451238
L 309.191675 266.179401
L 318.716625 264.966268
L 328.241575 263.370128
L 337.766525 259.671076
L 347.291475 254.862587
L 356.816425 248.859363
L 366.341375 241.532061
L 375.866325 232.292515
L 385.391275 221.070476
L 394.916225 208.324217
L 404.441175 193.821256
L 413.966125 186.05241
L 423.491075 176.578711
L 433.016025 157.117849
L 442.540975 135.323268
L 452.065925 113.761166
L 461.590875 94.190476
L 471.115825 75.47054
L 480.640775 60.971481
L 490.165725 52.93336
L 499.690675 53.590102
L 509.215625 56.689835
L 518.740575 60.663738
L 528.265525 71.713507
L 537.790475 90.701046
L 547.315425 115.597591
L 556.840375 140.954636
L 566.365325 164.739514
L 575.890275 187.84981
L 585.415225 209.384593
L 594.940175 227.319561
L 604.465125 235.417336
L 613.990075 241.66642
L 623.515025 252.660996
L 633.039975 260.323358
L 642.564925 265.455758
L 652.089875 268.876058
L 661.614825 270.850186
L 671.139775 272.160883
L 680.664725 273.022787
L 690.189675 273.457084
L 699.714625 273.570815
L 709.239575 273.682874
L 718.764525 273.824481
L 728.289475 273.881904
L 737.814425 273.924832
L 747.339375 273.949362
L 756.864325 273.964972
L 766.389275 273.972777
L 775.914225 273.977237
L 785.439175 273.981697
L 794.964125 273.98337
L 804.489075 273.98337
L 814.014025 273.982812
L 823.538975 273.984485
L 833.063925 273.986715
L 842.588875 273.986157
L 852.113825 273.987272
L 861.638775 273.9856
L 871.163725 273.983927
L 880.688675 273.986157
L 890.213625 273.986715
L 899.738575 273.986157
L 909.263525 273.986715
L 918.788475 273.9856
L 928.313425 273.984485
L 937.838375 273.987272
L 947.363325 273.988387
L 956.888275 273.988945
L 966.413225 273.98783
L 975.938175 273.982812
L 985.463125 273.980025
" style="fill:none;stroke:#f0ad4e;stroke-linecap:square;"/>
   </g>
   <g id="line2d_10">
    <path clip-path="url(#pf08f2bce27)" d="M 32.968125 273.99006
L 42.493075 273.989624
L 52.018025 273.989624
L 61.542975 273.99006
L 71.067925 273.99006
L 80.592875 273.99006
L 90.117825 273.989624
L 99.642775 273.989624
L 109.167725 273.99006
L 118.692675 273.989188
L 128.217625 273.988316
L 137.742575 273.987008
L 147.267525 273.985264
L 156.792475 273.983956
L 166.317425 273.976979
L 175.842375 273.958666
L 185.367325 273.944713
L 194.892275 273.93076
L 204.417225 273.877564
L 213.942175 273.760708
L 223.467125 273.684838
L 232.992075 273.584987
L 242.517025 273.427144
L 252.041975 273.222645
L 261.566925 272.788358
L 271.091875 272.097248
L 280.616825 271.295386
L 290.141775 270.152112
L 299.666725 268.486908
L 309.191675 266.117514
L 318.716625 264.668581
L 328.241575 263.340866
L 337.766525 259.942437
L 347.291475 255.435617
L 356.816425 249.857468
L 366.341375 242.618475
L 375.866325 233.804101
L 385.391275 222.45464
L 394.916225 209.533287
L 404.441175 195.733766
L 413.966125 188.223562
L 423.491075 178.72113
L 433.016025 159.380087
L 442.540975 136.297458
L 452.065925 113.231399
L 461.590875 92.377327
L 471.115825 72.24227
L 480.640775 56.681183
L 490.165725 48.25008
L 499.690675 49.7025
L 509.215625 53.127963
L 518.740575 58.393042
L 528.265525 69.245426
L 537.790475 88.811898
L 547.315425 116.346407
L 556.840375 141.705119
L 566.365325 164.788184
L 575.890275 187.343651
L 585.415225 209.315707
L 594.940175 228.477542
L 604.465125 236.943091
L 613.990075 242.880966
L 623.515025 253.903403
L 633.039975 261.6979
L 642.564925 266.737114
L 652.089875 270.023919
L 661.614825 271.509914
L 671.139775 272.535023
L 680.664725 273.328164
L 690.189675 273.709692
L 699.714625 273.794718
L 709.239575 273.853582
L 718.764525 273.932068
L 728.289475 273.961718
L 737.814425 273.974363
L 747.339375 273.980467
L 756.864325 273.984828
L 766.389275 273.987444
L 775.914225 273.988316
L 785.439175 273.98788
L 794.964125 273.988316
L 804.489075 273.989188
L 814.014025 273.989624
L 823.538975 273.989624
L 833.063925 273.99006
L 842.588875 273.989624
L 852.113825 273.989624
L 861.638775 273.99006
L 871.163725 273.99006
L 880.688675 273.99006
L 890.213625 273.99006
L 899.738575 273.99006
L 909.263525 273.99006
L 918.788475 273.99006
L 928.313425 273.99006
L 937.838375 273.99006
L 947.363325 273.99006
L 956.888275 273.99006
L 966.413225 273.99006
L 975.938175 273.99006
L 985.463125 273.99006
" style="fill:none;stroke:#f0ad4e;stroke-linecap:square;"/>
   </g>
   <g id="line2d_11">
    <path clip-path="url(#pf08f2bce27)" d="M 32.968125 273.928151
L 42.493075 273.94559
L 52.018025 273.966517
L 61.542975 273.973929
L 71.067925 273.980469
L 80.592875 273.981776
L 90.117825 273.978725
L 99.642775 273.978289
L 109.167725 273.976981
L 118.692675 273.975673
L 128.217625 273.976981
L 137.742575 273.977417
L 147.267525 273.970877
L 156.792475 273.955182
L 166.317425 273.946898
L 175.842375 273.928587
L 185.367325 273.893709
L 194.892275 273.845752
L 204.417225 273.757248
L 213.942175 273.615992
L 223.467125 273.531413
L 232.992075 273.438114
L 242.517025 273.236256
L 252.041975 272.889655
L 261.566925 272.31591
L 271.091875 271.525484
L 280.616825 270.53015
L 290.141775 269.124997
L 299.666725 267.252041
L 309.191675 264.644465
L 318.716625 263.045303
L 328.241575 261.401235
L 337.766525 257.677995
L 347.291475 252.693038
L 356.816425 246.372249
L 366.341375 238.743966
L 375.866325 229.164252
L 385.391275 217.570761
L 394.916225 204.552935
L 404.441175 190.076767
L 413.966125 182.391371
L 423.491075 173.240658
L 433.016025 154.096489
L 442.540975 132.153349
L 452.065925 111.040309
L 461.590875 91.590956
L 471.115825 72.857041
L 480.640775 59.739812
L 490.165725 54.046393
L 499.690675 56.244151
L 509.215625 59.466019
L 518.740575 65.11584
L 528.265525 77.068575
L 537.790475 96.67488
L 547.315425 123.03359
L 556.840375 147.674117
L 566.365325 169.323408
L 575.890275 190.720269
L 585.415225 211.797123
L 594.940175 229.785518
L 604.465125 238.029836
L 613.990075 243.530553
L 623.515025 253.766412
L 633.039975 261.191966
L 642.564925 266.082316
L 652.089875 269.334702
L 661.614825 271.067709
L 671.139775 272.23133
L 680.664725 273.042247
L 690.189675 273.504382
L 699.714625 273.638663
L 709.239575 273.718883
L 718.764525 273.822645
L 728.289475 273.877142
L 737.814425 273.929459
L 747.339375 273.957362
L 756.864325 273.963465
L 766.389275 273.971749
L 775.914225 273.980904
L 785.439175 273.982212
L 794.964125 273.983084
L 804.489075 273.982212
L 814.014025 273.983956
L 823.538975 273.986136
L 833.063925 273.986572
L 842.588875 273.98788
L 852.113825 273.986572
L 861.638775 273.984392
L 871.163725 273.986136
L 880.688675 273.986136
L 890.213625 273.983956
L 899.738575 273.984828
L 909.263525 273.986136
L 918.788475 273.986136
L 928.313425 273.983956
L 937.838375 273.9857
L 947.363325 273.987008
L 956.888275 273.9857
L 966.413225 273.9857
L 975.938175 273.979597
L 985.463125 273.974365
" style="fill:none;stroke:#5cb85c;stroke-linecap:square;"/>
   </g>
   <g id="line2d_12">
    <path clip-path="url(#pf08f2bce27)" d="M 32.968125 273.99006
L 42.493075 273.99006
L 52.018025 273.99006
L 61.542975 273.99006
L 71.067925 273.99006
L 80.592875 273.99006
L 90.117825 273.99006
L 99.642775 273.99006
L 109.167725 273.99006
L 118.692675 273.989458
L 128.217625 273.988856
L 137.742575 273.989458
L 147.267525 273.988856
L 156.792475 273.986448
L 166.317425 273.981632
L 175.842375 273.973205
L 185.367325 273.957553
L 194.892275 273.930464
L 204.417225 273.902774
L 213.942175 273.835954
L 223.467125 273.780572
L 232.992075 273.720375
L 242.517025 273.594562
L 252.041975 273.43865
L 261.566925 273.167761
L 271.091875 272.68919
L 280.616825 272.042066
L 290.141775 271.181241
L 299.666725 269.844252
L 309.191675 267.790913
L 318.716625 266.562882
L 328.241575 265.326424
L 337.766525 262.26959
L 347.291475 257.924529
L 356.816425 252.397187
L 366.341375 245.717061
L 375.866325 237.350198
L 385.391275 226.481524
L 394.916225 213.832808
L 404.441175 199.591264
L 413.966125 191.819153
L 423.491075 182.527054
L 433.016025 163.05735
L 442.540975 139.902951
L 452.065925 116.610098
L 461.590875 94.845661
L 471.115825 73.076409
L 480.640775 55.870133
L 490.165725 46.224072
L 499.690675 46.460047
L 509.215625 49.456682
L 518.740575 54.392884
L 528.265525 64.365818
L 537.790475 83.172145
L 547.315425 110.353763
L 556.840375 136.335642
L 566.365325 160.005934
L 575.890275 183.163945
L 585.415225 206.111264
L 594.940175 225.991516
L 604.465125 234.982025
L 613.990075 241.24137
L 623.515025 252.708408
L 633.039975 260.842306
L 642.564925 265.969334
L 652.089875 269.374109
L 661.614825 271.241438
L 671.139775 272.442982
L 680.664725 273.277923
L 690.189675 273.650546
L 699.714625 273.726395
L 709.239575 273.806457
L 718.764525 273.919027
L 728.289475 273.954543
L 737.814425 273.967787
L 747.339375 273.982836
L 756.864325 273.985846
L 766.389275 273.985244
L 775.914225 273.98705
L 785.439175 273.988254
L 794.964125 273.988856
L 804.489075 273.989458
L 814.014025 273.99006
L 823.538975 273.989458
L 833.063925 273.989458
L 842.588875 273.99006
L 852.113825 273.99006
L 861.638775 273.99006
L 871.163725 273.99006
L 880.688675 273.99006
L 890.213625 273.99006
L 899.738575 273.99006
L 909.263525 273.99006
L 918.788475 273.99006
L 928.313425 273.99006
L 937.838375 273.99006
L 947.363325 273.989458
L 956.888275 273.989458
L 966.413225 273.99006
L 975.938175 273.99006
L 985.463125 273.99006
" style="fill:none;stroke:#5cb85c;stroke-linecap:square;"/>
   </g>
   <g id="line2d_13">
    <path clip-path="url(#pf08f2bce27)" d="M 32.968125 273.916621
L 42.493075 273.941904
L 52.018025 273.967788
L 61.542975 273.970195
L 71.067925 273.978021
L 80.592875 273.976215
L 90.117825 273.972001
L 99.642775 273.976817
L 109.167725 273.977419
L 118.692675 273.979225
L 128.217625 273.981633
L 137.742575 273.98404
L 147.267525 273.975613
L 156.792475 273.95936
L 166.317425 273.957554
L 175.842375 273.952739
L 185.367325 273.926253
L 194.892275 273.897961
L 204.417225 273.830542
L 213.942175 273.726403
L 223.467125 273.679451
L 232.992075 273.577118
L 242.517025 273.416998
L 252.041975 273.213537
L 261.566925 272.833703
L 271.091875 272.30037
L 280.616825 271.554547
L 290.141775 270.490289
L 299.666725 268.898718
L 309.191675 266.513168
L 318.716625 265.101581
L 328.241575 263.715277
L 337.766525 260.190224
L 347.291475 255.416715
L 356.816425 249.376691
L 366.341375 242.150213
L 375.866325 233.191305
L 385.391275 221.813138
L 394.916225 208.868079
L 404.441175 194.549358
L 413.966125 186.93522
L 423.491075 177.377968
L 433.016025 157.92938
L 442.540975 135.76537
L 452.065925 113.651923
L 461.590875 93.701304
L 471.115825 74.185899
L 480.640775 58.704801
L 490.165725 51.191791
L 499.690675 52.611805
L 509.215625 55.469288
L 518.740575 60.812248
L 528.265525 71.605314
L 537.790475 90.216582
L 547.315425 116.584652
L 556.840375 141.706071
L 566.365325 164.362481
L 575.890275 186.649893
L 585.415225 208.392534
L 594.940175 227.050755
L 604.465125 235.511845
L 613.990075 241.545247
L 623.515025 252.55261
L 633.039975 260.509863
L 642.564925 265.511513
L 652.089875 268.81625
L 661.614825 270.793675
L 671.139775 272.066811
L 680.664725 272.965531
L 690.189675 273.434455
L 699.714625 273.58675
L 709.239575 273.667412
L 718.764525 273.80526
L 728.289475 273.886524
L 737.814425 273.925049
L 747.339375 273.947321
L 756.864325 273.964176
L 766.389275 273.973807
L 775.914225 273.971399
L 785.439175 273.975011
L 794.964125 273.981633
L 804.489075 273.981633
L 814.014025 273.983438
L 823.538975 273.983438
L 833.063925 273.984642
L 842.588875 273.987652
L 852.113825 273.98705
L 861.638775 273.987652
L 871.163725 273.988254
L 880.688675 273.986448
L 890.213625 273.985244
L 899.738575 273.986448
L 909.263525 273.987652
L 918.788475 273.987652
L 928.313425 273.988254
L 937.838375 273.987652
L 947.363325 273.98705
L 956.888275 273.985846
L 966.413225 273.98404
L 975.938175 273.979827
L 985.463125 273.975613
" style="fill:none;stroke:#5cb85c;stroke-linecap:square;"/>
   </g>
   <g id="line2d_14">
    <path clip-path="url(#pf08f2bce27)" d="M 32.968125 273.99006
L 42.493075 273.99006
L 52.018025 273.99006
L 61.542975 273.99006
L 71.067925 273.99006
L 80.592875 273.99006
L 90.117825 273.989458
L 99.642775 273.988855
L 109.167725 273.989458
L 118.692675 273.99006
L 128.217625 273.99006
L 137.742575 273.988253
L 147.267525 273.987048
L 156.792475 273.984035
L 166.317425 273.977408
L 175.842375 273.972589
L 185.367325 273.959335
L 194.892275 273.937044
L 204.417225 273.908729
L 213.942175 273.849085
L 223.467125 273.806914
L 232.992075 273.771369
L 242.517025 273.660517
L 252.041975 273.461104
L 261.566925 273.18036
L 271.091875 272.691166
L 280.616825 272.053166
L 290.141775 271.108516
L 299.666725 269.555988
L 309.191675 267.323289
L 318.716625 266.003912
L 328.241575 264.677907
L 337.766525 261.164388
L 347.291475 256.524276
L 356.816425 250.845532
L 366.341375 244.170929
L 375.866325 236.107064
L 385.391275 225.406251
L 394.916225 212.583591
L 404.441175 198.625303
L 413.966125 191.404273
L 423.491075 180.966733
L 433.016025 159.921762
L 442.540975 137.74538
L 452.065925 115.605747
L 461.590875 95.264444
L 471.115825 75.790074
L 480.640775 58.927951
L 490.165725 48.292204
L 499.690675 47.312611
L 509.215625 49.810391
L 518.740575 53.876965
L 528.265525 64.114489
L 537.790475 82.847237
L 547.315425 109.205262
L 556.840375 135.574131
L 566.365325 161.039919
L 575.890275 186.260509
L 585.415225 209.124292
L 594.940175 227.941384
L 604.465125 236.222133
L 613.990075 242.494898
L 623.515025 253.590921
L 633.039975 261.30476
L 642.564925 266.316586
L 652.089875 269.556591
L 661.614825 271.447096
L 671.139775 272.647789
L 680.664725 273.326154
L 690.189675 273.652083
L 699.714625 273.728594
L 709.239575 273.797877
L 718.764525 273.89186
L 728.289475 273.931622
L 737.814425 273.95572
L 747.339375 273.970179
L 756.864325 273.974999
L 766.389275 273.974396
L 775.914225 273.976806
L 785.439175 273.980421
L 794.964125 273.981626
L 804.489075 273.981626
L 814.014025 273.983433
L 823.538975 273.987048
L 833.063925 273.988855
L 842.588875 273.989458
L 852.113825 273.99006
L 861.638775 273.99006
L 871.163725 273.99006
L 880.688675 273.99006
L 890.213625 273.99006
L 899.738575 273.99006
L 909.263525 273.99006
L 918.788475 273.99006
L 928.313425 273.99006
L 937.838375 273.99006
L 947.363325 273.99006
L 956.888275 273.99006
L 966.413225 273.99006
L 975.938175 273.989458
L 985.463125 273.988855
" style="fill:none;stroke:#5cb85c;stroke-linecap:square;"/>
   </g>
   <g id="line2d_15">
    <path clip-path="url(#pf08f2bce27)" d="M 32.968125 273.931049
L 42.493075 273.94249
L 52.018025 273.962963
L 61.542975 273.975608
L 71.067925 273.978619
L 80.592875 273.9732
L 90.117825 273.974404
L 99.642775 273.98163
L 109.167725 273.981028
L 118.692675 273.978619
L 128.217625 273.978017
L 137.742575 273.976211
L 147.267525 273.9732
L 156.792475 273.968383
L 166.317425 273.961157
L 175.842375 273.945501
L 185.367325 273.915995
L 194.892275 273.879866
L 204.417225 273.852167
L 213.942175 273.801587
L 223.467125 273.760038
L 232.992075 273.711866
L 242.517025 273.554705
L 252.041975 273.30963
L 261.566925 272.991092
L 271.091875 272.460597
L 280.616825 271.685027
L 290.141775 270.555392
L 299.666725 268.863348
L 309.191675 266.471605
L 318.716625 265.069797
L 328.241575 263.540936
L 337.766525 259.79616
L 347.291475 254.640545
L 356.816425 248.516069
L 366.341375 241.47813
L 375.866325 232.686727
L 385.391275 221.844399
L 394.916225 209.270285
L 404.441175 194.566364
L 413.966125 186.532467
L 423.491075 176.733666
L 433.016025 156.847635
L 442.540975 134.881774
L 452.065925 112.528128
L 461.590875 92.887774
L 471.115825 75.16226
L 480.640775 60.31322
L 490.165725 51.475452
L 499.690675 51.308657
L 509.215625 53.690765
L 518.740575 58.120187
L 528.265525 70.573268
L 537.790475 89.996848
L 547.315425 115.121592
L 556.840375 141.015283
L 566.365325 165.292198
L 575.890275 189.235522
L 585.415225 211.15863
L 594.940175 229.006983
L 604.465125 236.767503
L 613.990075 242.893184
L 623.515025 253.55848
L 633.039975 260.910742
L 642.564925 265.757454
L 652.089875 269.082531
L 661.614825 271.067822
L 671.139775 272.272124
L 680.664725 273.059135
L 690.189675 273.466189
L 699.714625 273.596253
L 709.239575 273.668511
L 718.764525 273.794361
L 728.289475 273.875049
L 737.814425 273.912985
L 747.339375 273.935866
L 756.864325 273.943092
L 766.389275 273.947307
L 775.914225 273.96477
L 785.439175 273.975608
L 794.964125 273.978017
L 804.489075 273.980426
L 814.014025 273.982232
L 823.538975 273.98163
L 833.063925 273.984038
L 842.588875 273.984641
L 852.113825 273.983436
L 861.638775 273.984641
L 871.163725 273.985243
L 880.688675 273.984641
L 890.213625 273.984038
L 899.738575 273.985845
L 909.263525 273.987049
L 918.788475 273.985845
L 928.313425 273.987049
L 937.838375 273.988254
L 947.363325 273.987049
L 956.888275 273.987651
L 966.413225 273.987651
L 975.938175 273.981028
L 985.463125 273.975608
" style="fill:none;stroke:#f0ad4e;stroke-linecap:square;"/>
   </g>
   <g id="line2d_16">
    <path clip-path="url(#pf08f2bce27)" d="M 32.968125 273.99006
L 42.493075 273.99006
L 52.018025 273.99006
L 61.542975 273.989536
L 71.067925 273.989536
L 80.592875 273.989536
L 90.117825 273.989536
L 99.642775 273.99006
L 109.167725 273.99006
L 118.692675 273.989013
L 128.217625 273.987965
L 137.742575 273.988489
L 147.267525 273.989536
L 156.792475 273.986918
L 166.317425 273.979586
L 175.842375 273.97016
L 185.367325 273.96178
L 194.892275 273.951307
L 204.417225 273.928264
L 213.942175 273.880084
L 223.467125 273.847615
L 232.992075 273.810433
L 242.517025 273.750732
L 252.041975 273.632377
L 261.566925 273.387288
L 271.091875 272.984043
L 280.616825 272.473964
L 290.141775 271.711465
L 299.666725 270.470309
L 309.191675 268.681369
L 318.716625 267.627171
L 328.241575 266.394395
L 337.766525 263.142251
L 347.291475 258.767831
L 356.816425 253.384775
L 366.341375 247.0266
L 375.866325 239.210459
L 385.391275 228.762229
L 394.916225 216.459597
L 404.441175 202.103036
L 413.966125 194.086843
L 423.491075 184.142408
L 433.016025 163.225001
L 442.540975 140.743318
L 452.065925 117.71228
L 461.590875 95.685688
L 471.115825 74.540474
L 480.640775 56.893016
L 490.165725 46.033163
L 499.690675 43.030822
L 509.215625 43.881826
L 518.740575 48.729142
L 528.265525 60.187578
L 537.790475 79.057863
L 547.315425 105.401269
L 556.840375 132.454281
L 566.365325 158.934372
L 575.890275 184.317322
L 585.415225 207.154593
L 594.940175 226.724534
L 604.465125 235.328835
L 613.990075 241.790178
L 623.515025 253.037566
L 633.039975 260.901886
L 642.564925 266.081225
L 652.089875 269.40302
L 661.614825 271.429717
L 671.139775 272.625836
L 680.664725 273.288309
L 690.189675 273.654372
L 699.714625 273.748113
L 709.239575 273.823525
L 718.764525 273.916743
L 728.289475 273.949212
L 737.814425 273.961257
L 747.339375 273.967017
L 756.864325 273.978539
L 766.389275 273.982205
L 775.914225 273.984823
L 785.439175 273.986394
L 794.964125 273.98587
L 804.489075 273.985347
L 814.014025 273.986918
L 823.538975 273.989536
L 833.063925 273.989536
L 842.588875 273.989536
L 852.113825 273.99006
L 861.638775 273.99006
L 871.163725 273.99006
L 880.688675 273.99006
L 890.213625 273.99006
L 899.738575 273.99006
L 909.263525 273.99006
L 918.788475 273.99006
L 928.313425 273.99006
L 937.838375 273.99006
L 947.363325 273.99006
L 956.888275 273.99006
L 966.413225 273.99006
L 975.938175 273.99006
L 985.463125 273.99006
" style="fill:none;stroke:#5cb85c;stroke-linecap:square;"/>
   </g>
   <g id="line2d_17">
    <path clip-path="url(#pf08f2bce27)" d="M 32.968125 273.952351
L 42.493075 273.957064
L 52.018025 273.967539
L 61.542975 273.972253
L 71.067925 273.972253
L 80.592875 273.976443
L 90.117825 273.979061
L 99.642775 273.982728
L 109.167725 273.986918
L 118.692675 273.984823
L 128.217625 273.982728
L 137.742575 273.980633
L 147.267525 273.98168
L 156.792475 273.972777
L 166.317425 273.962825
L 175.842375 273.951303
L 185.367325 273.926164
L 194.892275 273.895263
L 204.417225 273.85284
L 213.942175 273.791562
L 223.467125 273.753329
L 232.992075 273.696765
L 242.517025 273.56164
L 252.041975 273.381997
L 261.566925 273.059896
L 271.091875 272.554486
L 280.616825 271.947993
L 290.141775 270.968598
L 299.666725 269.374854
L 309.191675 267.130099
L 318.716625 265.821794
L 328.241575 264.430214
L 337.766525 260.900723
L 347.291475 256.312227
L 356.816425 250.682534
L 366.341375 243.902182
L 375.866325 235.764817
L 385.391275 224.862622
L 394.916225 211.888508
L 404.441175 197.456298
L 413.966125 189.63213
L 423.491075 179.812509
L 433.016025 159.657904
L 442.540975 137.437141
L 452.065925 115.192285
L 461.590875 95.124622
L 471.115825 75.687019
L 480.640775 59.84228
L 490.165725 50.364137
L 499.690675 48.797104
L 509.215625 50.592488
L 518.740575 54.975677
L 528.265525 66.830033
L 537.790475 85.838169
L 547.315425 111.482627
L 556.840375 137.624116
L 566.365325 162.567286
L 575.890275 186.918628
L 585.415225 208.677451
L 594.940175 227.221552
L 604.465125 235.449001
L 613.990075 241.552679
L 623.515025 252.541815
L 633.039975 260.402121
L 642.564925 265.428464
L 652.089875 268.756839
L 661.614825 270.852327
L 671.139775 272.163775
L 680.664725 272.967194
L 690.189675 273.434371
L 699.714625 273.590969
L 709.239575 273.672673
L 718.764525 273.802037
L 728.289475 273.874313
L 737.814425 273.915689
L 747.339375 273.944495
L 756.864325 273.959683
L 766.389275 273.969634
L 775.914225 273.97749
L 785.439175 273.981156
L 794.964125 273.983775
L 804.489075 273.98587
L 814.014025 273.986394
L 823.538975 273.98587
L 833.063925 273.986394
L 842.588875 273.986918
L 852.113825 273.988489
L 861.638775 273.987965
L 871.163725 273.986394
L 880.688675 273.986394
L 890.213625 273.986918
L 899.738575 273.987441
L 909.263525 273.986394
L 918.788475 273.984823
L 928.313425 273.987441
L 937.838375 273.988489
L 947.363325 273.987441
L 956.888275 273.986918
L 966.413225 273.986918
L 975.938175 273.983251
L 985.463125 273.978538
" style="fill:none;stroke:#5cb85c;stroke-linecap:square;"/>
   </g>
   <g id="line2d_18">
    <path clip-path="url(#pf08f2bce27)" d="M 32.968125 273.99006
L 42.493075 273.99006
L 52.018025 273.99006
L 61.542975 273.99006
L 71.067925 273.99006
L 80.592875 273.99006
L 90.117825 273.989645
L 99.642775 273.988814
L 109.167725 273.988398
L 118.692675 273.988814
L 128.217625 273.989229
L 137.742575 273.987983
L 147.267525 273.987568
L 156.792475 273.986737
L 166.317425 273.980091
L 175.842375 273.972198
L 185.367325 273.958906
L 194.892275 273.932321
L 204.417225 273.882474
L 213.942175 273.799811
L 223.467125 273.750795
L 232.992075 273.706348
L 242.517025 273.513191
L 252.041975 273.176724
L 261.566925 272.603069
L 271.091875 271.659715
L 280.616825 270.351648
L 290.141775 268.255584
L 299.666725 264.879285
L 309.191675 260.200733
L 318.716625 257.55303
L 328.241575 254.548921
L 337.766525 247.248835
L 347.291475 237.700238
L 356.816425 226.03813
L 366.341375 213.082908
L 375.866325 199.147364
L 385.391275 182.887291
L 394.916225 165.734957
L 404.441175 149.111831
L 413.966125 140.770776
L 423.491075 131.433612
L 433.016025 113.898288
L 442.540975 98.464012
L 452.065925 86.865043
L 461.590875 80.628775
L 471.115825 77.25746
L 480.640775 76.023333
L 490.165725 79.436602
L 499.690675 89.579209
L 509.215625 96.57232
L 518.740575 103.466984
L 528.265525 117.806288
L 537.790475 136.196903
L 547.315425 158.147006
L 556.840375 178.75124
L 566.365325 197.575939
L 575.890275 215.090494
L 585.415225 230.567971
L 594.940175 243.401897
L 604.465125 249.04831
L 613.990075 253.202638
L 623.515025 260.482369
L 633.039975 265.55928
L 642.564925 268.852917
L 652.089875 271.039536
L 661.614825 272.346772
L 671.139775 273.0978
L 680.664725 273.545176
L 690.189675 273.765333
L 699.714625 273.826396
L 709.239575 273.877074
L 718.764525 273.945613
L 728.289475 273.96929
L 737.814425 273.976767
L 747.339375 273.982168
L 756.864325 273.985491
L 766.389275 273.985491
L 775.914225 273.986737
L 785.439175 273.987983
L 794.964125 273.988398
L 804.489075 273.987983
L 814.014025 273.988398
L 823.538975 273.987983
L 833.063925 273.988398
L 842.588875 273.989645
L 852.113825 273.989645
L 861.638775 273.989645
L 871.163725 273.989645
L 880.688675 273.99006
L 890.213625 273.99006
L 899.738575 273.99006
L 909.263525 273.99006
L 918.788475 273.99006
L 928.313425 273.99006
L 937.838375 273.99006
L 947.363325 273.99006
L 956.888275 273.99006
L 966.413225 273.99006
L 975.938175 273.99006
L 985.463125 273.99006
" style="fill:none;stroke:#5cb85c;stroke-linecap:square;"/>
   </g>
   <g id="line2d_19">
    <path clip-path="url(#pf08f2bce27)" d="M 32.968125 273.942714
L 42.493075 273.948528
L 52.018025 273.960157
L 61.542975 273.971371
L 71.067925 273.9776
L 80.592875 273.979677
L 90.117825 273.978846
L 99.642775 273.978016
L 109.167725 273.980508
L 118.692675 273.9776
L 128.217625 273.973447
L 137.742575 273.973032
L 147.267525 273.970955
L 156.792475 273.97054
L 166.317425 273.960988
L 175.842375 273.929424
L 185.367325 273.904089
L 194.892275 273.872525
L 204.417225 273.804828
L 213.942175 273.674419
L 223.467125 273.58471
L 232.992075 273.507461
L 242.517025 273.262008
L 252.041975 272.858735
L 261.566925 272.190074
L 271.091875 271.016802
L 280.616825 269.367991
L 290.141775 267.042628
L 299.666725 263.53901
L 309.191675 258.715512
L 318.716625 255.9794
L 328.241575 252.768995
L 337.766525 245.101403
L 347.291475 235.48431
L 356.816425 223.854588
L 366.341375 210.883391
L 375.866325 196.366382
L 385.391275 179.902364
L 394.916225 162.962392
L 404.441175 146.452274
L 413.966125 138.433739
L 423.491075 129.430485
L 433.016025 112.493421
L 442.540975 97.364649
L 452.065925 86.744564
L 461.590875 80.817983
L 471.115825 77.769137
L 480.640775 78.123818
L 490.165725 83.037855
L 499.690675 93.450696
L 509.215625 99.85157
L 518.740575 107.213489
L 528.265525 122.533307
L 537.790475 141.056469
L 547.315425 162.355198
L 556.840375 182.236033
L 566.365325 199.770324
L 575.890275 216.55912
L 585.415225 231.785077
L 594.940175 244.010364
L 604.465125 249.411568
L 613.990075 253.209647
L 623.515025 260.181167
L 633.039975 265.250118
L 642.564925 268.494994
L 652.089875 270.720265
L 661.614825 272.064648
L 671.139775 272.867872
L 680.664725 273.381204
L 690.189675 273.651161
L 699.714625 273.742531
L 709.239575 273.795276
L 718.764525 273.874602
L 728.289475 273.918625
L 737.814425 273.943544
L 747.339375 273.959327
L 756.864325 273.968879
L 766.389275 273.973032
L 775.914225 273.978016
L 785.439175 273.981338
L 794.964125 273.982584
L 804.489075 273.985076
L 814.014025 273.985492
L 823.538975 273.985076
L 833.063925 273.985492
L 842.588875 273.985492
L 852.113825 273.987568
L 861.638775 273.987983
L 871.163725 273.987983
L 880.688675 273.988814
L 890.213625 273.989229
L 899.738575 273.988814
L 909.263525 273.988399
L 918.788475 273.988399
L 928.313425 273.989229
L 937.838375 273.99006
L 947.363325 273.987153
L 956.888275 273.986737
L 966.413225 273.988399
L 975.938175 273.985492
L 985.463125 273.983415
" style="fill:none;stroke:#5cb85c;stroke-linecap:square;"/>
   </g>
   <g id="line2d_20">
    <path clip-path="url(#pf08f2bce27)" d="M 32.968125 273.99006
L 985.463125 273.99006
" style="fill:none;stroke:#dedede;stroke-linecap:square;stroke-width:2;"/>
   </g>
   <g id="text_16">
    <!-- FastQC: Per Sequence GC Content -->
    <g transform="translate(372.579375 19.3575)scale(0.16 -0.16)">
     <defs>
      <path d="M 9.8125 72.90625
L 51.703125 72.90625
L 51.703125 64.59375
L 19.671875 64.59375
L 19.671875 43.109375
L 48.578125 43.109375
L 48.578125 34.8125
L 19.671875 34.8125
L 19.671875 0
L 9.8125 0
z
" id="DejaVuSans-70"/>
      <path d="M 44.28125 53.078125
L 44.28125 44.578125
Q 40.484375 46.53125 36.375 47.5
Q 32.28125 48.484375 27.875 48.484375
Q 21.1875 48.484375 17.84375 46.4375
Q 14.5 44.390625 14.5 40.28125
Q 14.5 37.15625 16.890625 35.375
Q 19.28125 33.59375 26.515625 31.984375
L 29.59375 31.296875
Q 39.15625 29.25 43.1875 25.515625
Q 47.21875 21.78125 47.21875 15.09375
Q 47.21875 7.46875 41.1875 3.015625
Q 35.15625 -1.421875 24.609375 -1.421875
Q 20.21875 -1.421875 15.453125 -0.5625
Q 10.6875 0.296875 5.421875 2
L 5.421875 11.28125
Q 10.40625 8.6875 15.234375 7.390625
Q 20.0625 6.109375 24.8125 6.109375
Q 31.15625 6.109375 34.5625 8.28125
Q 37.984375 10.453125 37.984375 14.40625
Q 37.984375 18.0625 35.515625 20.015625
Q 33.0625 21.96875 24.703125 23.78125
L 21.578125 24.515625
Q 13.234375 26.265625 9.515625 29.90625
Q 5.8125 33.546875 5.8125 39.890625
Q 5.8125 47.609375 11.28125 51.796875
Q 16.75 56 26.8125 56
Q 31.78125 56 36.171875 55.265625
Q 40.578125 54.546875 44.28125 53.078125
z
" id="DejaVuSans-115"/>
      <path d="M 39.40625 66.21875
Q 28.65625 66.21875 22.328125 58.203125
Q 16.015625 50.203125 16.015625 36.375
Q 16.015625 22.609375 22.328125 14.59375
Q 28.65625 6.59375 39.40625 6.59375
Q 50.140625 6.59375 56.421875 14.59375
Q 62.703125 22.609375 62.703125 36.375
Q 62.703125 50.203125 56.421875 58.203125
Q 50.140625 66.21875 39.40625 66.21875
z
M 53.21875 1.3125
L 66.21875 -12.890625
L 54.296875 -12.890625
L 43.5 -1.21875
Q 41.890625 -1.3125 41.03125 -1.359375
Q 40.1875 -1.421875 39.40625 -1.421875
Q 24.03125 -1.421875 14.8125 8.859375
Q 5.609375 19.140625 5.609375 36.375
Q 5.609375 53.65625 14.8125 63.9375
Q 24.03125 74.21875 39.40625 74.21875
Q 54.734375 74.21875 63.90625 63.9375
Q 73.09375 53.65625 73.09375 36.375
Q 73.09375 23.6875 67.984375 14.640625
Q 62.890625 5.609375 53.21875 1.3125
z
" id="DejaVuSans-81"/>
      <path d="M 11.71875 12.40625
L 22.015625 12.40625
L 22.015625 0
L 11.71875 0
z
M 11.71875 51.703125
L 22.015625 51.703125
L 22.015625 39.3125
L 11.71875 39.3125
z
" id="DejaVuSans-58"/>
      <path d="M 53.515625 70.515625
L 53.515625 60.890625
Q 47.90625 63.578125 42.921875 64.890625
Q 37.9375 66.21875 33.296875 66.21875
Q 25.25 66.21875 20.875 63.09375
Q 16.5 59.96875 16.5 54.203125
Q 16.5 49.359375 19.40625 46.890625
Q 22.3125 44.4375 30.421875 42.921875
L 36.375 41.703125
Q 47.40625 39.59375 52.65625 34.296875
Q 57.90625 29 57.90625 20.125
Q 57.90625 9.515625 50.796875 4.046875
Q 43.703125 -1.421875 29.984375 -1.421875
Q 24.8125 -1.421875 18.96875 -0.25
Q 13.140625 0.921875 6.890625 3.21875
L 6.890625 13.375
Q 12.890625 10.015625 18.65625 8.296875
Q 24.421875 6.59375 29.984375 6.59375
Q 38.421875 6.59375 43.015625 9.90625
Q 47.609375 13.234375 47.609375 19.390625
Q 47.609375 24.75 44.3125 27.78125
Q 41.015625 30.8125 33.5 32.328125
L 27.484375 33.5
Q 16.453125 35.6875 11.515625 40.375
Q 6.59375 45.0625 6.59375 53.421875
Q 6.59375 63.09375 13.40625 68.65625
Q 20.21875 74.21875 32.171875 74.21875
Q 37.3125 74.21875 42.625 73.28125
Q 47.953125 72.359375 53.515625 70.515625
z
" id="DejaVuSans-83"/>
      <path d="M 14.796875 27.296875
Q 14.796875 17.390625 18.875 11.75
Q 22.953125 6.109375 30.078125 6.109375
Q 37.203125 6.109375 41.296875 11.75
Q 45.40625 17.390625 45.40625 27.296875
Q 45.40625 37.203125 41.296875 42.84375
Q 37.203125 48.484375 30.078125 48.484375
Q 22.953125 48.484375 18.875 42.84375
Q 14.796875 37.203125 14.796875 27.296875
z
M 45.40625 8.203125
Q 42.578125 3.328125 38.25 0.953125
Q 33.9375 -1.421875 27.875 -1.421875
Q 17.96875 -1.421875 11.734375 6.484375
Q 5.515625 14.40625 5.515625 27.296875
Q 5.515625 40.1875 11.734375 48.09375
Q 17.96875 56 27.875 56
Q 33.9375 56 38.25 53.625
Q 42.578125 51.265625 45.40625 46.390625
L 45.40625 54.6875
L 54.390625 54.6875
L 54.390625 -20.796875
L 45.40625 -20.796875
z
" id="DejaVuSans-113"/>
      <path d="M 8.5 21.578125
L 8.5 54.6875
L 17.484375 54.6875
L 17.484375 21.921875
Q 17.484375 14.15625 20.5 10.265625
Q 23.53125 6.390625 29.59375 6.390625
Q 36.859375 6.390625 41.078125 11.03125
Q 45.3125 15.671875 45.3125 23.6875
L 45.3125 54.6875
L 54.296875 54.6875
L 54.296875 0
L 45.3125 0
L 45.3125 8.40625
Q 42.046875 3.421875 37.71875 1
Q 33.40625 -1.421875 27.6875 -1.421875
Q 18.265625 -1.421875 13.375 4.4375
Q 8.5 10.296875 8.5 21.578125
z
M 31.109375 56
z
" id="DejaVuSans-117"/>
      <path d="M 30.609375 48.390625
Q 23.390625 48.390625 19.1875 42.75
Q 14.984375 37.109375 14.984375 27.296875
Q 14.984375 17.484375 19.15625 11.84375
Q 23.34375 6.203125 30.609375 6.203125
Q 37.796875 6.203125 41.984375 11.859375
Q 46.1875 17.53125 46.1875 27.296875
Q 46.1875 37.015625 41.984375 42.703125
Q 37.796875 48.390625 30.609375 48.390625
z
M 30.609375 56
Q 42.328125 56 49.015625 48.375
Q 55.71875 40.765625 55.71875 27.296875
Q 55.71875 13.875 49.015625 6.21875
Q 42.328125 -1.421875 30.609375 -1.421875
Q 18.84375 -1.421875 12.171875 6.21875
Q 5.515625 13.875 5.515625 27.296875
Q 5.515625 40.765625 12.171875 48.375
Q 18.84375 56 30.609375 56
z
" id="DejaVuSans-111"/>
     </defs>
     <use xlink:href="#DejaVuSans-70"/>
     <use x="48.394531" xlink:href="#DejaVuSans-97"/>
     <use x="109.673828" xlink:href="#DejaVuSans-115"/>
     <use x="161.773438" xlink:href="#DejaVuSans-116"/>
     <use x="200.982422" xlink:href="#DejaVuSans-81"/>
     <use x="279.693359" xlink:href="#DejaVuSans-67"/>
     <use x="349.517578" xlink:href="#DejaVuSans-58"/>
     <use x="383.208984" xlink:href="#DejaVuSans-32"/>
     <use x="414.996094" xlink:href="#DejaVuSans-80"/>
     <use x="471.673828" xlink:href="#DejaVuSans-101"/>
     <use x="533.197266" xlink:href="#DejaVuSans-114"/>
     <use x="574.310547" xlink:href="#DejaVuSans-32"/>
     <use x="606.097656" xlink:href="#DejaVuSans-83"/>
     <use x="669.574219" xlink:href="#DejaVuSans-101"/>
     <use x="731.097656" xlink:href="#DejaVuSans-113"/>
     <use x="794.574219" xlink:href="#DejaVuSans-117"/>
     <use x="857.953125" xlink:href="#DejaVuSans-101"/>
     <use x="919.476562" xlink:href="#DejaVuSans-110"/>
     <use x="982.855469" xlink:href="#DejaVuSans-99"/>
     <use x="1037.835938" xlink:href="#DejaVuSans-101"/>
     <use x="1099.359375" xlink:href="#DejaVuSans-32"/>
     <use x="1131.146484" xlink:href="#DejaVuSans-71"/>
     <use x="1208.636719" xlink:href="#DejaVuSans-67"/>
     <use x="1278.460938" xlink:href="#DejaVuSans-32"/>
     <use x="1310.248047" xlink:href="#DejaVuSans-67"/>
     <use x="1380.072266" xlink:href="#DejaVuSans-111"/>
     <use x="1441.253906" xlink:href="#DejaVuSans-110"/>
     <use x="1504.632812" xlink:href="#DejaVuSans-116"/>
     <use x="1543.841797" xlink:href="#DejaVuSans-101"/>
     <use x="1605.365234" xlink:href="#DejaVuSans-110"/>
     <use x="1668.744141" xlink:href="#DejaVuSans-116"/>
    </g>
   </g>
   <g id="legend_1">
    <g id="line2d_21">
     <path d="M 40.168125 291.525394
L 56.168125 291.525394
" style="fill:none;stroke:#5cb85c;stroke-linecap:square;"/>
    </g>
    <g id="line2d_22"/>
    <g id="text_17">
     <!-- IP283_1 -->
     <g transform="translate(62.568125 294.325394)scale(0.08 -0.08)">
      <defs>
       <path d="M 9.8125 72.90625
L 19.671875 72.90625
L 19.671875 0
L 9.8125 0
z
" id="DejaVuSans-73"/>
       <path d="M 50.984375 -16.609375
L 50.984375 -23.578125
L -0.984375 -23.578125
L -0.984375 -16.609375
z
" id="DejaVuSans-95"/>
      </defs>
      <use xlink:href="#DejaVuSans-73"/>
      <use x="29.492188" xlink:href="#DejaVuSans-80"/>
      <use x="89.794922" xlink:href="#DejaVuSans-50"/>
      <use x="153.417969" xlink:href="#DejaVuSans-56"/>
      <use x="217.041016" xlink:href="#DejaVuSans-51"/>
      <use x="280.664062" xlink:href="#DejaVuSans-95"/>
      <use x="330.664062" xlink:href="#DejaVuSans-49"/>
     </g>
    </g>
    <g id="line2d_23">
     <path d="M 40.168125 303.490394
L 56.168125 303.490394
" style="fill:none;stroke:#f0ad4e;stroke-linecap:square;"/>
    </g>
    <g id="line2d_24"/>
    <g id="text_18">
     <!-- IP283_2 -->
     <g transform="translate(62.568125 306.290394)scale(0.08 -0.08)">
      <use xlink:href="#DejaVuSans-73"/>
      <use x="29.492188" xlink:href="#DejaVuSans-80"/>
      <use x="89.794922" xlink:href="#DejaVuSans-50"/>
      <use x="153.417969" xlink:href="#DejaVuSans-56"/>
      <use x="217.041016" xlink:href="#DejaVuSans-51"/>
      <use x="280.664062" xlink:href="#DejaVuSans-95"/>
      <use x="330.664062" xlink:href="#DejaVuSans-50"/>
     </g>
    </g>
    <g id="line2d_25">
     <path d="M 40.168125 315.455394
L 56.168125 315.455394
" style="fill:none;stroke:#f0ad4e;stroke-linecap:square;"/>
    </g>
    <g id="line2d_26"/>
    <g id="text_19">
     <!-- IP542_1 -->
     <g transform="translate(62.568125 318.255394)scale(0.08 -0.08)">
      <use xlink:href="#DejaVuSans-73"/>
      <use x="29.492188" xlink:href="#DejaVuSans-80"/>
      <use x="89.794922" xlink:href="#DejaVuSans-53"/>
      <use x="153.417969" xlink:href="#DejaVuSans-52"/>
      <use x="217.041016" xlink:href="#DejaVuSans-50"/>
      <use x="280.664062" xlink:href="#DejaVuSans-95"/>
      <use x="330.664062" xlink:href="#DejaVuSans-49"/>
     </g>
    </g>
    <g id="line2d_27">
     <path d="M 261.205938 291.525394
L 277.205938 291.525394
" style="fill:none;stroke:#5cb85c;stroke-linecap:square;"/>
    </g>
    <g id="line2d_28"/>
    <g id="text_20">
     <!-- IP542_2 -->
     <g transform="translate(283.605937 294.325394)scale(0.08 -0.08)">
      <use xlink:href="#DejaVuSans-73"/>
      <use x="29.492188" xlink:href="#DejaVuSans-80"/>
      <use x="89.794922" xlink:href="#DejaVuSans-53"/>
      <use x="153.417969" xlink:href="#DejaVuSans-52"/>
      <use x="217.041016" xlink:href="#DejaVuSans-50"/>
      <use x="280.664062" xlink:href="#DejaVuSans-95"/>
      <use x="330.664062" xlink:href="#DejaVuSans-50"/>
     </g>
    </g>
    <g id="line2d_29">
     <path d="M 261.205938 303.490394
L 277.205938 303.490394
" style="fill:none;stroke:#5cb85c;stroke-linecap:square;"/>
    </g>
    <g id="line2d_30"/>
    <g id="text_21">
     <!-- IP543_1 -->
     <g transform="translate(283.605937 306.290394)scale(0.08 -0.08)">
      <use xlink:href="#DejaVuSans-73"/>
      <use x="29.492188" xlink:href="#DejaVuSans-80"/>
      <use x="89.794922" xlink:href="#DejaVuSans-53"/>
      <use x="153.417969" xlink:href="#DejaVuSans-52"/>
      <use x="217.041016" xlink:href="#DejaVuSans-51"/>
      <use x="280.664062" xlink:href="#DejaVuSans-95"/>
      <use x="330.664062" xlink:href="#DejaVuSans-49"/>
     </g>
    </g>
    <g id="line2d_31">
     <path d="M 261.205938 315.455394
L 277.205938 315.455394
" style="fill:none;stroke:#5cb85c;stroke-linecap:square;"/>
    </g>
    <g id="line2d_32"/>
    <g id="text_22">
     <!-- IP543_2 -->
     <g transform="translate(283.605937 318.255394)scale(0.08 -0.08)">
      <use xlink:href="#DejaVuSans-73"/>
      <use x="29.492188" xlink:href="#DejaVuSans-80"/>
      <use x="89.794922" xlink:href="#DejaVuSans-53"/>
      <use x="153.417969" xlink:href="#DejaVuSans-52"/>
      <use x="217.041016" xlink:href="#DejaVuSans-51"/>
      <use x="280.664062" xlink:href="#DejaVuSans-95"/>
      <use x="330.664062" xlink:href="#DejaVuSans-50"/>
     </g>
    </g>
    <g id="line2d_33">
     <path d="M 482.24375 291.525394
L 498.24375 291.525394
" style="fill:none;stroke:#5cb85c;stroke-linecap:square;"/>
    </g>
    <g id="line2d_34"/>
    <g id="text_23">
     <!-- IP557_1 -->
     <g transform="translate(504.64375 294.325394)scale(0.08 -0.08)">
      <defs>
       <path d="M 8.203125 72.90625
L 55.078125 72.90625
L 55.078125 68.703125
L 28.609375 0
L 18.3125 0
L 43.21875 64.59375
L 8.203125 64.59375
z
" id="DejaVuSans-55"/>
      </defs>
      <use xlink:href="#DejaVuSans-73"/>
      <use x="29.492188" xlink:href="#DejaVuSans-80"/>
      <use x="89.794922" xlink:href="#DejaVuSans-53"/>
      <use x="153.417969" xlink:href="#DejaVuSans-53"/>
      <use x="217.041016" xlink:href="#DejaVuSans-55"/>
      <use x="280.664062" xlink:href="#DejaVuSans-95"/>
      <use x="330.664062" xlink:href="#DejaVuSans-49"/>
     </g>
    </g>
    <g id="line2d_35">
     <path d="M 482.24375 303.490394
L 498.24375 303.490394
" style="fill:none;stroke:#f0ad4e;stroke-linecap:square;"/>
    </g>
    <g id="line2d_36"/>
    <g id="text_24">
     <!-- IP557_2 -->
     <g transform="translate(504.64375 306.290394)scale(0.08 -0.08)">
      <use xlink:href="#DejaVuSans-73"/>
      <use x="29.492188" xlink:href="#DejaVuSans-80"/>
      <use x="89.794922" xlink:href="#DejaVuSans-53"/>
      <use x="153.417969" xlink:href="#DejaVuSans-53"/>
      <use x="217.041016" xlink:href="#DejaVuSans-55"/>
      <use x="280.664062" xlink:href="#DejaVuSans-95"/>
      <use x="330.664062" xlink:href="#DejaVuSans-50"/>
     </g>
    </g>
    <g id="line2d_37">
     <path d="M 703.281563 291.525394
L 719.281563 291.525394
" style="fill:none;stroke:#5cb85c;stroke-linecap:square;"/>
    </g>
    <g id="line2d_38"/>
    <g id="text_25">
     <!-- IP562_1 -->
     <g transform="translate(725.681563 294.325394)scale(0.08 -0.08)">
      <use xlink:href="#DejaVuSans-73"/>
      <use x="29.492188" xlink:href="#DejaVuSans-80"/>
      <use x="89.794922" xlink:href="#DejaVuSans-53"/>
      <use x="153.417969" xlink:href="#DejaVuSans-54"/>
      <use x="217.041016" xlink:href="#DejaVuSans-50"/>
      <use x="280.664062" xlink:href="#DejaVuSans-95"/>
      <use x="330.664062" xlink:href="#DejaVuSans-49"/>
     </g>
    </g>
    <g id="line2d_39">
     <path d="M 703.281563 303.490394
L 719.281563 303.490394
" style="fill:none;stroke:#5cb85c;stroke-linecap:square;"/>
    </g>
    <g id="line2d_40"/>
    <g id="text_26">
     <!-- IP562_2 -->
     <g transform="translate(725.681563 306.290394)scale(0.08 -0.08)">
      <use xlink:href="#DejaVuSans-73"/>
      <use x="29.492188" xlink:href="#DejaVuSans-80"/>
      <use x="89.794922" xlink:href="#DejaVuSans-53"/>
      <use x="153.417969" xlink:href="#DejaVuSans-54"/>
      <use x="217.041016" xlink:href="#DejaVuSans-50"/>
      <use x="280.664062" xlink:href="#DejaVuSans-95"/>
      <use x="330.664062" xlink:href="#DejaVuSans-50"/>
     </g>
    </g>
    <g id="line2d_41">
     <path d="M 924.319375 291.525394
L 940.319375 291.525394
" style="fill:none;stroke:#5cb85c;stroke-linecap:square;"/>
    </g>
    <g id="line2d_42"/>
    <g id="text_27">
     <!-- IP579_1 -->
     <g transform="translate(946.719375 294.325394)scale(0.08 -0.08)">
      <defs>
       <path d="M 10.984375 1.515625
L 10.984375 10.5
Q 14.703125 8.734375 18.5 7.8125
Q 22.3125 6.890625 25.984375 6.890625
Q 35.75 6.890625 40.890625 13.453125
Q 46.046875 20.015625 46.78125 33.40625
Q 43.953125 29.203125 39.59375 26.953125
Q 35.25 24.703125 29.984375 24.703125
Q 19.046875 24.703125 12.671875 31.3125
Q 6.296875 37.9375 6.296875 49.421875
Q 6.296875 60.640625 12.9375 67.421875
Q 19.578125 74.21875 30.609375 74.21875
Q 43.265625 74.21875 49.921875 64.515625
Q 56.59375 54.828125 56.59375 36.375
Q 56.59375 19.140625 48.40625 8.859375
Q 40.234375 -1.421875 26.421875 -1.421875
Q 22.703125 -1.421875 18.890625 -0.6875
Q 15.09375 0.046875 10.984375 1.515625
z
M 30.609375 32.421875
Q 37.25 32.421875 41.125 36.953125
Q 45.015625 41.5 45.015625 49.421875
Q 45.015625 57.28125 41.125 61.84375
Q 37.25 66.40625 30.609375 66.40625
Q 23.96875 66.40625 20.09375 61.84375
Q 16.21875 57.28125 16.21875 49.421875
Q 16.21875 41.5 20.09375 36.953125
Q 23.96875 32.421875 30.609375 32.421875
z
" id="DejaVuSans-57"/>
      </defs>
      <use xlink:href="#DejaVuSans-73"/>
      <use x="29.492188" xlink:href="#DejaVuSans-80"/>
      <use x="89.794922" xlink:href="#DejaVuSans-53"/>
      <use x="153.417969" xlink:href="#DejaVuSans-55"/>
      <use x="217.041016" xlink:href="#DejaVuSans-57"/>
      <use x="280.664062" xlink:href="#DejaVuSans-95"/>
      <use x="330.664062" xlink:href="#DejaVuSans-49"/>
     </g>
    </g>
    <g id="line2d_43">
     <path d="M 924.319375 303.490394
L 940.319375 303.490394
" style="fill:none;stroke:#5cb85c;stroke-linecap:square;"/>
    </g>
    <g id="line2d_44"/>
    <g id="text_28">
     <!-- IP579_2 -->
     <g transform="translate(946.719375 306.290394)scale(0.08 -0.08)">
      <use xlink:href="#DejaVuSans-73"/>
      <use x="29.492188" xlink:href="#DejaVuSans-80"/>
      <use x="89.794922" xlink:href="#DejaVuSans-53"/>
      <use x="153.417969" xlink:href="#DejaVuSans-55"/>
      <use x="217.041016" xlink:href="#DejaVuSans-57"/>
      <use x="280.664062" xlink:href="#DejaVuSans-95"/>
      <use x="330.664062" xlink:href="#DejaVuSans-50"/>
     </g>
    </g>
   </g>
  </g>
 </g>
 <defs>
  <clipPath id="pf08f2bce27">
   <rect height="242.5072" width="952.495" x="32.968125" y="31.48286"/>
  </clipPath>
 </defs>
</svg>
