<?xml version="1.0" encoding="utf-8" standalone="no"?>
<!DOCTYPE svg PUBLIC "-//W3C//DTD SVG 1.1//EN"
  "http://www.w3.org/Graphics/SVG/1.1/DTD/svg11.dtd">
<!-- Created with matplotlib (https://matplotlib.org/) -->
<svg height="330.541644pt" version="1.1" viewBox="0 0 1000.098125 330.541644" width="1000.098125pt" xmlns="http://www.w3.org/2000/svg" xmlns:xlink="http://www.w3.org/1999/xlink">
 <metadata>
  <rdf:RDF xmlns:cc="http://creativecommons.org/ns#" xmlns:dc="http://purl.org/dc/elements/1.1/" xmlns:rdf="http://www.w3.org/1999/02/22-rdf-syntax-ns#">
   <cc:Work>
    <dc:type rdf:resource="http://purl.org/dc/dcmitype/StillImage"/>
    <dc:date>2021-02-12T15:21:11.632749</dc:date>
    <dc:format>image/svg+xml</dc:format>
    <dc:creator>
     <cc:Agent>
      <dc:title>Matplotlib v3.3.2, https://matplotlib.org/</dc:title>
     </cc:Agent>
    </dc:creator>
   </cc:Work>
  </rdf:RDF>
 </metadata>
 <defs>
  <style type="text/css">*{stroke-linecap:butt;stroke-linejoin:round;}</style>
 </defs>
 <g id="figure_1">
  <g id="axes_1">
   <g id="patch_1">
    <path d="M 58.418125 273.99006
L 985.263125 273.99006
L 985.263125 31.48286
L 58.418125 31.48286
z
" style="fill:#ffffff;"/>
   </g>
   <g id="matplotlib.axis_1">
    <g id="xtick_1">
     <g id="text_1">
      <!-- 0 -->
      <g transform="translate(55.873125 287.06881)scale(0.08 -0.08)">
       <defs>
        <path d="M 31.78125 66.40625
Q 24.171875 66.40625 20.328125 58.90625
Q 16.5 51.421875 16.5 36.375
Q 16.5 21.390625 20.328125 13.890625
Q 24.171875 6.390625 31.78125 6.390625
Q 39.453125 6.390625 43.28125 13.890625
Q 47.125 21.390625 47.125 36.375
Q 47.125 51.421875 43.28125 58.90625
Q 39.453125 66.40625 31.78125 66.40625
z
M 31.78125 74.21875
Q 44.046875 74.21875 50.515625 64.515625
Q 56.984375 54.828125 56.984375 36.375
Q 56.984375 17.96875 50.515625 8.265625
Q 44.046875 -1.421875 31.78125 -1.421875
Q 19.53125 -1.421875 13.0625 8.265625
Q 6.59375 17.96875 6.59375 36.375
Q 6.59375 54.828125 13.0625 64.515625
Q 19.53125 74.21875 31.78125 74.21875
z
" id="DejaVuSans-48"/>
       </defs>
       <use xlink:href="#DejaVuSans-48"/>
      </g>
     </g>
    </g>
    <g id="xtick_2">
     <g id="text_2">
      <!-- 20 -->
      <g transform="translate(238.697125 287.06881)scale(0.08 -0.08)">
       <defs>
        <path d="M 19.1875 8.296875
L 53.609375 8.296875
L 53.609375 0
L 7.328125 0
L 7.328125 8.296875
Q 12.9375 14.109375 22.625 23.890625
Q 32.328125 33.6875 34.8125 36.53125
Q 39.546875 41.84375 41.421875 45.53125
Q 43.3125 49.21875 43.3125 52.78125
Q 43.3125 58.59375 39.234375 62.25
Q 35.15625 65.921875 28.609375 65.921875
Q 23.96875 65.921875 18.8125 64.3125
Q 13.671875 62.703125 7.8125 59.421875
L 7.8125 69.390625
Q 13.765625 71.78125 18.9375 73
Q 24.125 74.21875 28.421875 74.21875
Q 39.75 74.21875 46.484375 68.546875
Q 53.21875 62.890625 53.21875 53.421875
Q 53.21875 48.921875 51.53125 44.890625
Q 49.859375 40.875 45.40625 35.40625
Q 44.1875 33.984375 37.640625 27.21875
Q 31.109375 20.453125 19.1875 8.296875
z
" id="DejaVuSans-50"/>
       </defs>
       <use xlink:href="#DejaVuSans-50"/>
       <use x="63.623047" xlink:href="#DejaVuSans-48"/>
      </g>
     </g>
    </g>
    <g id="xtick_3">
     <g id="text_3">
      <!-- 40 -->
      <g transform="translate(424.066125 287.06881)scale(0.08 -0.08)">
       <defs>
        <path d="M 37.796875 64.3125
L 12.890625 25.390625
L 37.796875 25.390625
z
M 35.203125 72.90625
L 47.609375 72.90625
L 47.609375 25.390625
L 58.015625 25.390625
L 58.015625 17.1875
L 47.609375 17.1875
L 47.609375 0
L 37.796875 0
L 37.796875 17.1875
L 4.890625 17.1875
L 4.890625 26.703125
z
" id="DejaVuSans-52"/>
       </defs>
       <use xlink:href="#DejaVuSans-52"/>
       <use x="63.623047" xlink:href="#DejaVuSans-48"/>
      </g>
     </g>
    </g>
    <g id="xtick_4">
     <g id="text_4">
      <!-- 60 -->
      <g transform="translate(609.435125 287.06881)scale(0.08 -0.08)">
       <defs>
        <path d="M 33.015625 40.375
Q 26.375 40.375 22.484375 35.828125
Q 18.609375 31.296875 18.609375 23.390625
Q 18.609375 15.53125 22.484375 10.953125
Q 26.375 6.390625 33.015625 6.390625
Q 39.65625 6.390625 43.53125 10.953125
Q 47.40625 15.53125 47.40625 23.390625
Q 47.40625 31.296875 43.53125 35.828125
Q 39.65625 40.375 33.015625 40.375
z
M 52.59375 71.296875
L 52.59375 62.3125
Q 48.875 64.0625 45.09375 64.984375
Q 41.3125 65.921875 37.59375 65.921875
Q 27.828125 65.921875 22.671875 59.328125
Q 17.53125 52.734375 16.796875 39.40625
Q 19.671875 43.65625 24.015625 45.921875
Q 28.375 48.1875 33.59375 48.1875
Q 44.578125 48.1875 50.953125 41.515625
Q 57.328125 34.859375 57.328125 23.390625
Q 57.328125 12.15625 50.6875 5.359375
Q 44.046875 -1.421875 33.015625 -1.421875
Q 20.359375 -1.421875 13.671875 8.265625
Q 6.984375 17.96875 6.984375 36.375
Q 6.984375 53.65625 15.1875 63.9375
Q 23.390625 74.21875 37.203125 74.21875
Q 40.921875 74.21875 44.703125 73.484375
Q 48.484375 72.75 52.59375 71.296875
z
" id="DejaVuSans-54"/>
       </defs>
       <use xlink:href="#DejaVuSans-54"/>
       <use x="63.623047" xlink:href="#DejaVuSans-48"/>
      </g>
     </g>
    </g>
    <g id="xtick_5">
     <g id="text_5">
      <!-- 80 -->
      <g transform="translate(794.804125 287.06881)scale(0.08 -0.08)">
       <defs>
        <path d="M 31.78125 34.625
Q 24.75 34.625 20.71875 30.859375
Q 16.703125 27.09375 16.703125 20.515625
Q 16.703125 13.921875 20.71875 10.15625
Q 24.75 6.390625 31.78125 6.390625
Q 38.8125 6.390625 42.859375 10.171875
Q 46.921875 13.96875 46.921875 20.515625
Q 46.921875 27.09375 42.890625 30.859375
Q 38.875 34.625 31.78125 34.625
z
M 21.921875 38.8125
Q 15.578125 40.375 12.03125 44.71875
Q 8.5 49.078125 8.5 55.328125
Q 8.5 64.0625 14.71875 69.140625
Q 20.953125 74.21875 31.78125 74.21875
Q 42.671875 74.21875 48.875 69.140625
Q 55.078125 64.0625 55.078125 55.328125
Q 55.078125 49.078125 51.53125 44.71875
Q 48 40.375 41.703125 38.8125
Q 48.828125 37.15625 52.796875 32.3125
Q 56.78125 27.484375 56.78125 20.515625
Q 56.78125 9.90625 50.3125 4.234375
Q 43.84375 -1.421875 31.78125 -1.421875
Q 19.734375 -1.421875 13.25 4.234375
Q 6.78125 9.90625 6.78125 20.515625
Q 6.78125 27.484375 10.78125 32.3125
Q 14.796875 37.15625 21.921875 38.8125
z
M 18.3125 54.390625
Q 18.3125 48.734375 21.84375 45.5625
Q 25.390625 42.390625 31.78125 42.390625
Q 38.140625 42.390625 41.71875 45.5625
Q 45.3125 48.734375 45.3125 54.390625
Q 45.3125 60.0625 41.71875 63.234375
Q 38.140625 66.40625 31.78125 66.40625
Q 25.390625 66.40625 21.84375 63.234375
Q 18.3125 60.0625 18.3125 54.390625
z
" id="DejaVuSans-56"/>
       </defs>
       <use xlink:href="#DejaVuSans-56"/>
       <use x="63.623047" xlink:href="#DejaVuSans-48"/>
      </g>
     </g>
    </g>
    <g id="xtick_6">
     <g id="text_6">
      <!-- 100 -->
      <g transform="translate(977.628125 287.06881)scale(0.08 -0.08)">
       <defs>
        <path d="M 12.40625 8.296875
L 28.515625 8.296875
L 28.515625 63.921875
L 10.984375 60.40625
L 10.984375 69.390625
L 28.421875 72.90625
L 38.28125 72.90625
L 38.28125 8.296875
L 54.390625 8.296875
L 54.390625 0
L 12.40625 0
z
" id="DejaVuSans-49"/>
       </defs>
       <use xlink:href="#DejaVuSans-49"/>
       <use x="63.623047" xlink:href="#DejaVuSans-48"/>
       <use x="127.246094" xlink:href="#DejaVuSans-48"/>
      </g>
     </g>
    </g>
    <g id="text_7">
     <!-- % GC -->
     <g transform="translate(508.135156 300.330997)scale(0.1 -0.1)">
      <defs>
       <path d="M 72.703125 32.078125
Q 68.453125 32.078125 66.03125 28.46875
Q 63.625 24.859375 63.625 18.40625
Q 63.625 12.0625 66.03125 8.421875
Q 68.453125 4.78125 72.703125 4.78125
Q 76.859375 4.78125 79.265625 8.421875
Q 81.6875 12.0625 81.6875 18.40625
Q 81.6875 24.8125 79.265625 28.4375
Q 76.859375 32.078125 72.703125 32.078125
z
M 72.703125 38.28125
Q 80.421875 38.28125 84.953125 32.90625
Q 89.5 27.546875 89.5 18.40625
Q 89.5 9.28125 84.9375 3.921875
Q 80.375 -1.421875 72.703125 -1.421875
Q 64.890625 -1.421875 60.34375 3.921875
Q 55.8125 9.28125 55.8125 18.40625
Q 55.8125 27.59375 60.375 32.9375
Q 64.9375 38.28125 72.703125 38.28125
z
M 22.3125 68.015625
Q 18.109375 68.015625 15.6875 64.375
Q 13.28125 60.75 13.28125 54.390625
Q 13.28125 47.953125 15.671875 44.328125
Q 18.0625 40.71875 22.3125 40.71875
Q 26.5625 40.71875 28.96875 44.328125
Q 31.390625 47.953125 31.390625 54.390625
Q 31.390625 60.6875 28.953125 64.34375
Q 26.515625 68.015625 22.3125 68.015625
z
M 66.40625 74.21875
L 74.21875 74.21875
L 28.609375 -1.421875
L 20.796875 -1.421875
z
M 22.3125 74.21875
Q 30.03125 74.21875 34.609375 68.875
Q 39.203125 63.53125 39.203125 54.390625
Q 39.203125 45.171875 34.640625 39.84375
Q 30.078125 34.515625 22.3125 34.515625
Q 14.546875 34.515625 10.03125 39.859375
Q 5.515625 45.21875 5.515625 54.390625
Q 5.515625 63.484375 10.046875 68.84375
Q 14.59375 74.21875 22.3125 74.21875
z
" id="DejaVuSans-37"/>
       <path id="DejaVuSans-32"/>
       <path d="M 59.515625 10.40625
L 59.515625 29.984375
L 43.40625 29.984375
L 43.40625 38.09375
L 69.28125 38.09375
L 69.28125 6.78125
Q 63.578125 2.734375 56.6875 0.65625
Q 49.8125 -1.421875 42 -1.421875
Q 24.90625 -1.421875 15.25 8.5625
Q 5.609375 18.5625 5.609375 36.375
Q 5.609375 54.25 15.25 64.234375
Q 24.90625 74.21875 42 74.21875
Q 49.125 74.21875 55.546875 72.453125
Q 61.96875 70.703125 67.390625 67.28125
L 67.390625 56.78125
Q 61.921875 61.421875 55.765625 63.765625
Q 49.609375 66.109375 42.828125 66.109375
Q 29.4375 66.109375 22.71875 58.640625
Q 16.015625 51.171875 16.015625 36.375
Q 16.015625 21.625 22.71875 14.15625
Q 29.4375 6.6875 42.828125 6.6875
Q 48.046875 6.6875 52.140625 7.59375
Q 56.25 8.5 59.515625 10.40625
z
" id="DejaVuSans-71"/>
       <path d="M 64.40625 67.28125
L 64.40625 56.890625
Q 59.421875 61.53125 53.78125 63.8125
Q 48.140625 66.109375 41.796875 66.109375
Q 29.296875 66.109375 22.65625 58.46875
Q 16.015625 50.828125 16.015625 36.375
Q 16.015625 21.96875 22.65625 14.328125
Q 29.296875 6.6875 41.796875 6.6875
Q 48.140625 6.6875 53.78125 8.984375
Q 59.421875 11.28125 64.40625 15.921875
L 64.40625 5.609375
Q 59.234375 2.09375 53.4375 0.328125
Q 47.65625 -1.421875 41.21875 -1.421875
Q 24.65625 -1.421875 15.125 8.703125
Q 5.609375 18.84375 5.609375 36.375
Q 5.609375 53.953125 15.125 64.078125
Q 24.65625 74.21875 41.21875 74.21875
Q 47.75 74.21875 53.53125 72.484375
Q 59.328125 70.75 64.40625 67.28125
z
" id="DejaVuSans-67"/>
      </defs>
      <use xlink:href="#DejaVuSans-37"/>
      <use x="95.019531" xlink:href="#DejaVuSans-32"/>
      <use x="126.806641" xlink:href="#DejaVuSans-71"/>
      <use x="204.296875" xlink:href="#DejaVuSans-67"/>
     </g>
    </g>
   </g>
   <g id="matplotlib.axis_2">
    <g id="ytick_1">
     <g id="line2d_1">
      <path clip-path="url(#p7ad95c9ec7)" d="M 58.418125 273.99006
L 985.263125 273.99006
" style="fill:none;stroke:#dedede;stroke-linecap:square;"/>
     </g>
     <g id="text_8">
      <!-- 0 -->
      <g transform="translate(46.328125 277.029435)scale(0.08 -0.08)">
       <use xlink:href="#DejaVuSans-48"/>
      </g>
     </g>
    </g>
    <g id="ytick_2">
     <g id="line2d_2">
      <path clip-path="url(#p7ad95c9ec7)" d="M 58.418125 229.37879
L 985.263125 229.37879
" style="fill:none;stroke:#dedede;stroke-linecap:square;"/>
     </g>
     <g id="text_9">
      <!-- 50000 -->
      <g transform="translate(25.968125 232.418165)scale(0.08 -0.08)">
       <defs>
        <path d="M 10.796875 72.90625
L 49.515625 72.90625
L 49.515625 64.59375
L 19.828125 64.59375
L 19.828125 46.734375
Q 21.96875 47.46875 24.109375 47.828125
Q 26.265625 48.1875 28.421875 48.1875
Q 40.625 48.1875 47.75 41.5
Q 54.890625 34.8125 54.890625 23.390625
Q 54.890625 11.625 47.5625 5.09375
Q 40.234375 -1.421875 26.90625 -1.421875
Q 22.3125 -1.421875 17.546875 -0.640625
Q 12.796875 0.140625 7.71875 1.703125
L 7.71875 11.625
Q 12.109375 9.234375 16.796875 8.0625
Q 21.484375 6.890625 26.703125 6.890625
Q 35.15625 6.890625 40.078125 11.328125
Q 45.015625 15.765625 45.015625 23.390625
Q 45.015625 31 40.078125 35.4375
Q 35.15625 39.890625 26.703125 39.890625
Q 22.75 39.890625 18.8125 39.015625
Q 14.890625 38.140625 10.796875 36.28125
z
" id="DejaVuSans-53"/>
       </defs>
       <use xlink:href="#DejaVuSans-53"/>
       <use x="63.623047" xlink:href="#DejaVuSans-48"/>
       <use x="127.246094" xlink:href="#DejaVuSans-48"/>
       <use x="190.869141" xlink:href="#DejaVuSans-48"/>
       <use x="254.492188" xlink:href="#DejaVuSans-48"/>
      </g>
     </g>
    </g>
    <g id="ytick_3">
     <g id="line2d_3">
      <path clip-path="url(#p7ad95c9ec7)" d="M 58.418125 184.767519
L 985.263125 184.767519
" style="fill:none;stroke:#dedede;stroke-linecap:square;"/>
     </g>
     <g id="text_10">
      <!-- 100000 -->
      <g transform="translate(20.878125 187.806894)scale(0.08 -0.08)">
       <use xlink:href="#DejaVuSans-49"/>
       <use x="63.623047" xlink:href="#DejaVuSans-48"/>
       <use x="127.246094" xlink:href="#DejaVuSans-48"/>
       <use x="190.869141" xlink:href="#DejaVuSans-48"/>
       <use x="254.492188" xlink:href="#DejaVuSans-48"/>
       <use x="318.115234" xlink:href="#DejaVuSans-48"/>
      </g>
     </g>
    </g>
    <g id="ytick_4">
     <g id="line2d_4">
      <path clip-path="url(#p7ad95c9ec7)" d="M 58.418125 140.156249
L 985.263125 140.156249
" style="fill:none;stroke:#dedede;stroke-linecap:square;"/>
     </g>
     <g id="text_11">
      <!-- 150000 -->
      <g transform="translate(20.878125 143.195624)scale(0.08 -0.08)">
       <use xlink:href="#DejaVuSans-49"/>
       <use x="63.623047" xlink:href="#DejaVuSans-53"/>
       <use x="127.246094" xlink:href="#DejaVuSans-48"/>
       <use x="190.869141" xlink:href="#DejaVuSans-48"/>
       <use x="254.492188" xlink:href="#DejaVuSans-48"/>
       <use x="318.115234" xlink:href="#DejaVuSans-48"/>
      </g>
     </g>
    </g>
    <g id="ytick_5">
     <g id="line2d_5">
      <path clip-path="url(#p7ad95c9ec7)" d="M 58.418125 95.544979
L 985.263125 95.544979
" style="fill:none;stroke:#dedede;stroke-linecap:square;"/>
     </g>
     <g id="text_12">
      <!-- 200000 -->
      <g transform="translate(20.878125 98.584354)scale(0.08 -0.08)">
       <use xlink:href="#DejaVuSans-50"/>
       <use x="63.623047" xlink:href="#DejaVuSans-48"/>
       <use x="127.246094" xlink:href="#DejaVuSans-48"/>
       <use x="190.869141" xlink:href="#DejaVuSans-48"/>
       <use x="254.492188" xlink:href="#DejaVuSans-48"/>
       <use x="318.115234" xlink:href="#DejaVuSans-48"/>
      </g>
     </g>
    </g>
    <g id="ytick_6">
     <g id="line2d_6">
      <path clip-path="url(#p7ad95c9ec7)" d="M 58.418125 50.933708
L 985.263125 50.933708
" style="fill:none;stroke:#dedede;stroke-linecap:square;"/>
     </g>
     <g id="text_13">
      <!-- 250000 -->
      <g transform="translate(20.878125 53.973083)scale(0.08 -0.08)">
       <use xlink:href="#DejaVuSans-50"/>
       <use x="63.623047" xlink:href="#DejaVuSans-53"/>
       <use x="127.246094" xlink:href="#DejaVuSans-48"/>
       <use x="190.869141" xlink:href="#DejaVuSans-48"/>
       <use x="254.492188" xlink:href="#DejaVuSans-48"/>
       <use x="318.115234" xlink:href="#DejaVuSans-48"/>
      </g>
     </g>
    </g>
    <g id="text_14">
     <!-- Count -->
     <g transform="translate(14.798438 167.584897)rotate(-90)scale(0.1 -0.1)">
      <defs>
       <path d="M 30.609375 48.390625
Q 23.390625 48.390625 19.1875 42.75
Q 14.984375 37.109375 14.984375 27.296875
Q 14.984375 17.484375 19.15625 11.84375
Q 23.34375 6.203125 30.609375 6.203125
Q 37.796875 6.203125 41.984375 11.859375
Q 46.1875 17.53125 46.1875 27.296875
Q 46.1875 37.015625 41.984375 42.703125
Q 37.796875 48.390625 30.609375 48.390625
z
M 30.609375 56
Q 42.328125 56 49.015625 48.375
Q 55.71875 40.765625 55.71875 27.296875
Q 55.71875 13.875 49.015625 6.21875
Q 42.328125 -1.421875 30.609375 -1.421875
Q 18.84375 -1.421875 12.171875 6.21875
Q 5.515625 13.875 5.515625 27.296875
Q 5.515625 40.765625 12.171875 48.375
Q 18.84375 56 30.609375 56
z
" id="DejaVuSans-111"/>
       <path d="M 8.5 21.578125
L 8.5 54.6875
L 17.484375 54.6875
L 17.484375 21.921875
Q 17.484375 14.15625 20.5 10.265625
Q 23.53125 6.390625 29.59375 6.390625
Q 36.859375 6.390625 41.078125 11.03125
Q 45.3125 15.671875 45.3125 23.6875
L 45.3125 54.6875
L 54.296875 54.6875
L 54.296875 0
L 45.3125 0
L 45.3125 8.40625
Q 42.046875 3.421875 37.71875 1
Q 33.40625 -1.421875 27.6875 -1.421875
Q 18.265625 -1.421875 13.375 4.4375
Q 8.5 10.296875 8.5 21.578125
z
M 31.109375 56
z
" id="DejaVuSans-117"/>
       <path d="M 54.890625 33.015625
L 54.890625 0
L 45.90625 0
L 45.90625 32.71875
Q 45.90625 40.484375 42.875 44.328125
Q 39.84375 48.1875 33.796875 48.1875
Q 26.515625 48.1875 22.3125 43.546875
Q 18.109375 38.921875 18.109375 30.90625
L 18.109375 0
L 9.078125 0
L 9.078125 54.6875
L 18.109375 54.6875
L 18.109375 46.1875
Q 21.34375 51.125 25.703125 53.5625
Q 30.078125 56 35.796875 56
Q 45.21875 56 50.046875 50.171875
Q 54.890625 44.34375 54.890625 33.015625
z
" id="DejaVuSans-110"/>
       <path d="M 18.3125 70.21875
L 18.3125 54.6875
L 36.8125 54.6875
L 36.8125 47.703125
L 18.3125 47.703125
L 18.3125 18.015625
Q 18.3125 11.328125 20.140625 9.421875
Q 21.96875 7.515625 27.59375 7.515625
L 36.8125 7.515625
L 36.8125 0
L 27.59375 0
Q 17.1875 0 13.234375 3.875
Q 9.28125 7.765625 9.28125 18.015625
L 9.28125 47.703125
L 2.6875 47.703125
L 2.6875 54.6875
L 9.28125 54.6875
L 9.28125 70.21875
z
" id="DejaVuSans-116"/>
      </defs>
      <use xlink:href="#DejaVuSans-67"/>
      <use x="69.824219" xlink:href="#DejaVuSans-111"/>
      <use x="131.005859" xlink:href="#DejaVuSans-117"/>
      <use x="194.384766" xlink:href="#DejaVuSans-110"/>
      <use x="257.763672" xlink:href="#DejaVuSans-116"/>
     </g>
    </g>
   </g>
   <g id="line2d_7">
    <path clip-path="url(#p7ad95c9ec7)" d="M 58.418125 273.99006
L 67.686575 273.99006
L 76.955025 273.99006
L 86.223475 273.99006
L 95.491925 273.99006
L 104.760375 273.99006
L 114.028825 273.99006
L 123.297275 273.989614
L 132.565725 273.989614
L 141.834175 273.99006
L 151.102625 273.99006
L 160.371075 273.989168
L 169.639525 273.988276
L 178.907975 273.986491
L 188.176425 273.982922
L 197.444875 273.981138
L 206.713325 273.975338
L 215.981775 273.961955
L 225.250225 273.93608
L 234.518675 273.896376
L 243.787125 273.874963
L 253.055575 273.832582
L 262.324025 273.757189
L 271.592475 273.656814
L 280.860925 273.419928
L 290.129375 273.072852
L 299.397825 272.590158
L 308.666275 271.854965
L 317.934725 270.747713
L 327.203175 269.054269
L 336.471625 268.038024
L 345.740075 267.002151
L 355.008525 264.402652
L 364.276975 260.928326
L 373.545425 256.528763
L 382.813875 251.070574
L 392.082325 244.099171
L 401.350775 235.185393
L 410.619225 225.134473
L 419.887675 213.483348
L 429.156125 206.971441
L 438.424575 199.586491
L 447.693025 183.664283
L 456.961475 165.276855
L 466.229925 147.202153
L 475.498375 130.41404
L 484.766825 114.455696
L 494.035275 101.468017
L 503.303725 93.512935
L 512.572175 92.886593
L 521.840625 94.622418
L 531.109075 97.898223
L 540.377525 106.199935
L 549.645975 121.250885
L 558.914425 142.502356
L 568.182875 163.391583
L 577.451325 183.03794
L 586.719775 202.427783
L 595.988225 220.742048
L 605.256675 236.213682
L 614.525125 242.777339
L 623.793575 247.992396
L 633.062025 257.15912
L 642.330475 263.501058
L 651.598925 267.660167
L 660.867375 270.336843
L 670.135825 271.804554
L 679.404275 272.802508
L 688.672725 273.469
L 697.941175 273.763881
L 707.209625 273.830352
L 716.478075 273.87764
L 725.746525 273.938757
L 735.014975 273.962401
L 744.283425 273.972215
L 753.551875 273.978461
L 762.820325 273.986045
L 772.088775 273.987829
L 781.357225 273.986937
L 790.625675 273.985599
L 799.894125 273.985599
L 809.162575 273.986937
L 818.431025 273.988276
L 827.699475 273.989168
L 836.967925 273.99006
L 846.236375 273.99006
L 855.504825 273.99006
L 864.773275 273.99006
L 874.041725 273.99006
L 883.310175 273.99006
L 892.578625 273.99006
L 901.847075 273.99006
L 911.115525 273.99006
L 920.383975 273.99006
L 929.652425 273.99006
L 938.920875 273.99006
L 948.189325 273.99006
L 957.457775 273.99006
L 966.726225 273.989168
L 975.994675 273.989168
L 985.263125 273.99006
" style="fill:none;stroke:#5cb85c;stroke-linecap:square;"/>
   </g>
   <g id="line2d_8">
    <path clip-path="url(#p7ad95c9ec7)" d="M 58.418125 273.953479
L 67.686575 273.965524
L 76.955025 273.977123
L 86.223475 273.976231
L 95.491925 273.976231
L 104.760375 273.978461
L 114.028825 273.979353
L 123.297275 273.979353
L 132.565725 273.98203
L 141.834175 273.982922
L 151.102625 273.98203
L 160.371075 273.983368
L 169.639525 273.981584
L 178.907975 273.971323
L 188.176425 273.955263
L 197.444875 273.942772
L 206.713325 273.928496
L 215.981775 273.905299
L 225.250225 273.843289
L 234.518675 273.768342
L 243.787125 273.742914
L 253.055575 273.670197
L 262.324025 273.542609
L 271.592475 273.353457
L 280.860925 273.024226
L 290.129375 272.550008
L 299.397825 271.941957
L 308.666275 271.009135
L 317.934725 269.55793
L 327.203175 267.740021
L 336.471625 266.76928
L 345.740075 265.492059
L 355.008525 262.532101
L 364.276975 258.684379
L 373.545425 253.880638
L 382.813875 248.017378
L 392.082325 240.623953
L 401.350775 231.64415
L 410.619225 221.444675
L 419.887675 209.839499
L 429.156125 203.622919
L 438.424575 196.042126
L 447.693025 180.46967
L 456.961475 163.029786
L 466.229925 145.775931
L 475.498375 130.11559
L 484.766825 115.136018
L 494.035275 103.533965
L 503.303725 97.101912
L 512.572175 97.627433
L 521.840625 100.107819
L 531.109075 103.287711
L 540.377525 112.129665
L 549.645975 127.323371
L 558.914425 147.245426
L 568.182875 167.53597
L 577.451325 186.568476
L 586.719775 205.061186
L 595.988225 222.293182
L 605.256675 236.644627
L 614.525125 243.124414
L 623.793575 248.124892
L 633.062025 256.92268
L 642.330475 263.054053
L 651.598925 267.160967
L 660.867375 269.897868
L 670.135825 271.477553
L 679.404275 272.526364
L 688.672725 273.216054
L 697.941175 273.563576
L 707.209625 273.654583
L 716.478075 273.744252
L 725.746525 273.857565
L 735.014975 273.903514
L 744.283425 273.937865
L 753.551875 273.957494
L 762.820325 273.969985
L 772.088775 273.976231
L 781.357225 273.979799
L 790.625675 273.983368
L 799.894125 273.984707
L 809.162575 273.984707
L 818.431025 273.984261
L 827.699475 273.985599
L 836.967925 273.987383
L 846.236375 273.986937
L 855.504825 273.987829
L 864.773275 273.986491
L 874.041725 273.985153
L 883.310175 273.986937
L 892.578625 273.987383
L 901.847075 273.986937
L 911.115525 273.987383
L 920.383975 273.986491
L 929.652425 273.985599
L 938.920875 273.987829
L 948.189325 273.988722
L 957.457775 273.989168
L 966.726225 273.988276
L 975.994675 273.984261
L 985.263125 273.98203
" style="fill:none;stroke:#f0ad4e;stroke-linecap:square;"/>
   </g>
   <g id="line2d_9">
    <path clip-path="url(#p7ad95c9ec7)" d="M 58.418125 273.99006
L 67.686575 273.989614
L 76.955025 273.989614
L 86.223475 273.99006
L 95.491925 273.99006
L 104.760375 273.99006
L 114.028825 273.989614
L 123.297275 273.989614
L 132.565725 273.99006
L 141.834175 273.989168
L 151.102625 273.988276
L 160.371075 273.986937
L 169.639525 273.985153
L 178.907975 273.983814
L 188.176425 273.976677
L 197.444875 273.95794
L 206.713325 273.943664
L 215.981775 273.929389
L 225.250225 273.874963
L 234.518675 273.755405
L 243.787125 273.677781
L 253.055575 273.575621
L 262.324025 273.414129
L 271.592475 273.204902
L 280.860925 272.760573
L 290.129375 272.053485
L 299.397825 271.233083
L 308.666275 270.063376
L 317.934725 268.359672
L 327.203175 265.935495
L 336.471625 264.453063
L 345.740075 263.094649
L 355.008525 259.617647
L 364.276975 255.006626
L 373.545425 249.299506
L 382.813875 241.893143
L 392.082325 232.874975
L 401.350775 221.263107
L 410.619225 208.043004
L 419.887675 193.924429
L 429.156125 186.240584
L 438.424575 176.518449
L 447.693025 156.730228
L 456.961475 133.113914
L 466.229925 109.514552
L 475.498375 88.17832
L 484.766825 67.577727
L 494.035275 51.656857
L 503.303725 43.030822
L 512.572175 44.516823
L 521.840625 48.021485
L 531.109075 53.408296
L 540.377525 64.511595
L 549.645975 84.530456
L 558.914425 112.701581
L 568.182875 138.646604
L 577.451325 162.263364
L 586.719775 185.340328
L 595.988225 207.820393
L 605.256675 227.425262
L 614.525125 236.08654
L 623.793575 242.161703
L 633.062025 253.438986
L 642.330475 261.413697
L 651.598925 266.569421
L 660.867375 269.932219
L 670.135825 271.452571
L 679.404275 272.501382
L 688.672725 273.312861
L 697.941175 273.70321
L 707.209625 273.790202
L 716.478075 273.850427
L 725.746525 273.930727
L 735.014975 273.961063
L 744.283425 273.974
L 753.551875 273.980246
L 762.820325 273.984707
L 772.088775 273.987383
L 781.357225 273.988276
L 790.625675 273.987829
L 799.894125 273.988276
L 809.162575 273.989168
L 818.431025 273.989614
L 827.699475 273.989614
L 836.967925 273.99006
L 846.236375 273.989614
L 855.504825 273.989614
L 864.773275 273.99006
L 874.041725 273.99006
L 883.310175 273.99006
L 892.578625 273.99006
L 901.847075 273.99006
L 911.115525 273.99006
L 920.383975 273.99006
L 929.652425 273.99006
L 938.920875 273.99006
L 948.189325 273.99006
L 957.457775 273.99006
L 966.726225 273.99006
L 975.994675 273.99006
L 985.263125 273.99006
" style="fill:none;stroke:#f0ad4e;stroke-linecap:square;"/>
   </g>
   <g id="line2d_10">
    <path clip-path="url(#p7ad95c9ec7)" d="M 58.418125 273.926712
L 67.686575 273.944557
L 76.955025 273.96597
L 86.223475 273.973554
L 95.491925 273.980246
L 104.760375 273.981584
L 114.028825 273.978461
L 123.297275 273.978015
L 132.565725 273.976677
L 141.834175 273.975338
L 151.102625 273.976677
L 160.371075 273.977123
L 169.639525 273.970431
L 178.907975 273.954371
L 188.176425 273.945895
L 197.444875 273.927158
L 206.713325 273.891469
L 215.981775 273.842397
L 225.250225 273.751836
L 234.518675 273.607295
L 243.787125 273.520749
L 253.055575 273.425281
L 262.324025 273.218731
L 271.592475 272.864072
L 280.860925 272.276987
L 290.129375 271.468185
L 299.397825 270.44971
L 308.666275 269.011888
L 317.934725 267.095388
L 327.203175 264.427188
L 336.471625 262.790847
L 345.740075 261.108556
L 355.008525 257.298753
L 364.276975 252.197901
L 373.545425 245.730159
L 382.813875 237.924525
L 392.082325 228.12209
L 401.350775 216.259061
L 410.619225 202.938582
L 419.887675 188.125856
L 429.156125 180.261781
L 438.424575 170.898322
L 447.693025 151.309067
L 456.961475 128.855768
L 466.229925 107.251868
L 475.498375 87.350335
L 484.766825 68.180872
L 494.035275 54.758679
L 503.303725 48.932893
L 512.572175 51.181747
L 521.840625 54.47852
L 531.109075 60.259694
L 540.377525 72.49032
L 549.645975 92.552455
L 558.914425 119.523983
L 568.182875 144.73738
L 577.451325 166.889999
L 586.719775 188.784318
L 595.988225 210.351191
L 605.256675 228.757801
L 614.525125 237.193792
L 623.793575 242.822396
L 633.062025 253.29623
L 642.330475 260.894422
L 651.598925 265.898468
L 660.867375 269.226469
L 670.135825 270.999767
L 679.404275 272.190441
L 688.672725 273.020211
L 697.941175 273.49309
L 707.209625 273.630493
L 716.478075 273.712578
L 725.746525 273.818753
L 735.014975 273.874517
L 744.283425 273.92805
L 753.551875 273.956602
L 762.820325 273.962847
L 772.088775 273.971323
L 781.357225 273.980692
L 790.625675 273.98203
L 799.894125 273.982922
L 809.162575 273.98203
L 818.431025 273.983814
L 827.699475 273.986045
L 836.967925 273.986491
L 846.236375 273.987829
L 855.504825 273.986491
L 864.773275 273.984261
L 874.041725 273.986045
L 883.310175 273.986045
L 892.578625 273.983814
L 901.847075 273.984707
L 911.115525 273.986045
L 920.383975 273.986045
L 929.652425 273.983814
L 938.920875 273.985599
L 948.189325 273.986937
L 957.457775 273.985599
L 966.726225 273.985599
L 975.994675 273.979353
L 985.263125 273.974
" style="fill:none;stroke:#5cb85c;stroke-linecap:square;"/>
   </g>
   <g id="line2d_11">
    <path clip-path="url(#p7ad95c9ec7)" d="M 58.418125 273.99006
L 67.686575 273.99006
L 76.955025 273.99006
L 86.223475 273.99006
L 95.491925 273.99006
L 104.760375 273.99006
L 114.028825 273.99006
L 123.297275 273.99006
L 132.565725 273.99006
L 141.834175 273.989614
L 151.102625 273.989168
L 160.371075 273.989614
L 169.639525 273.989168
L 178.907975 273.987383
L 188.176425 273.983814
L 197.444875 273.977569
L 206.713325 273.96597
L 215.981775 273.945895
L 225.250225 273.925374
L 234.518675 273.875855
L 243.787125 273.834813
L 253.055575 273.790202
L 262.324025 273.696964
L 271.592475 273.581421
L 280.860925 273.38067
L 290.129375 273.02601
L 299.397825 272.546439
L 308.666275 271.908498
L 317.934725 270.917682
L 327.203175 269.395991
L 336.471625 268.485921
L 345.740075 267.569606
L 355.008525 265.304246
L 364.276975 262.084204
L 373.545425 257.987997
L 382.813875 253.037485
L 392.082325 246.836964
L 401.350775 238.782399
L 410.619225 229.408679
L 419.887675 218.854545
L 429.156125 213.094784
L 438.424575 206.208588
L 447.693025 191.779965
L 456.961475 174.620686
L 466.229925 157.358801
L 475.498375 141.229596
L 484.766825 125.096823
L 494.035275 112.345583
L 503.303725 105.197073
L 512.572175 105.371949
L 521.840625 107.592698
L 531.109075 111.250823
L 540.377525 118.641572
L 549.645975 132.578579
L 558.914425 152.722352
L 568.182875 171.977022
L 577.451325 189.51862
L 586.719775 206.680575
L 595.988225 223.686392
L 605.256675 238.419264
L 614.525125 245.081957
L 623.793575 249.720637
L 633.062025 258.218638
L 642.330475 264.246512
L 651.598925 268.046054
L 660.867375 270.569268
L 670.135825 271.953109
L 679.404275 272.84355
L 688.672725 273.462309
L 697.941175 273.738452
L 707.209625 273.794663
L 716.478075 273.853996
L 725.746525 273.937419
L 735.014975 273.963739
L 744.283425 273.973554
L 753.551875 273.984707
L 762.820325 273.986937
L 772.088775 273.986491
L 781.357225 273.987829
L 790.625675 273.988722
L 799.894125 273.989168
L 809.162575 273.989614
L 818.431025 273.99006
L 827.699475 273.989614
L 836.967925 273.989614
L 846.236375 273.99006
L 855.504825 273.99006
L 864.773275 273.99006
L 874.041725 273.99006
L 883.310175 273.99006
L 892.578625 273.99006
L 901.847075 273.99006
L 911.115525 273.99006
L 920.383975 273.99006
L 929.652425 273.99006
L 938.920875 273.99006
L 948.189325 273.989614
L 957.457775 273.989614
L 966.726225 273.99006
L 975.994675 273.99006
L 985.263125 273.99006
" style="fill:none;stroke:#5cb85c;stroke-linecap:square;"/>
   </g>
   <g id="line2d_12">
    <path clip-path="url(#p7ad95c9ec7)" d="M 58.418125 273.935634
L 67.686575 273.954371
L 76.955025 273.973554
L 86.223475 273.975338
L 95.491925 273.981138
L 104.760375 273.979799
L 114.028825 273.976677
L 123.297275 273.980246
L 132.565725 273.980692
L 141.834175 273.98203
L 151.102625 273.983814
L 160.371075 273.985599
L 169.639525 273.979353
L 178.907975 273.967308
L 188.176425 273.96597
L 197.444875 273.962401
L 206.713325 273.942772
L 215.981775 273.921805
L 225.250225 273.87184
L 234.518675 273.794663
L 243.787125 273.759866
L 253.055575 273.684027
L 262.324025 273.565361
L 271.592475 273.414575
L 280.860925 273.133077
L 290.129375 272.737822
L 299.397825 272.185088
L 308.666275 271.396361
L 317.934725 270.216839
L 327.203175 268.448894
L 336.471625 267.40276
L 345.740075 266.375362
L 355.008525 263.762926
L 364.276975 260.225253
L 373.545425 255.748958
L 382.813875 250.393375
L 392.082325 243.753879
L 401.350775 235.321457
L 410.619225 225.727803
L 419.887675 215.11612
L 429.156125 209.473241
L 438.424575 202.390309
L 447.693025 187.976854
L 456.961475 171.550984
L 466.229925 155.162588
L 475.498375 140.377075
L 484.766825 125.914101
L 494.035275 114.440975
L 503.303725 108.873042
L 512.572175 109.925422
L 521.840625 112.043119
L 531.109075 116.002815
L 540.377525 124.001616
L 549.645975 137.794528
L 558.914425 157.336049
L 568.182875 175.953671
L 577.451325 192.744461
L 586.719775 209.261783
L 595.988225 225.375374
L 605.256675 239.203084
L 614.525125 245.473644
L 623.793575 249.945031
L 633.062025 258.102648
L 642.330475 263.999812
L 651.598925 267.706563
L 660.867375 270.155721
L 670.135825 271.621202
L 679.404275 272.56473
L 688.672725 273.230776
L 697.941175 273.578298
L 707.209625 273.691164
L 716.478075 273.750944
L 725.746525 273.853103
L 735.014975 273.913329
L 744.283425 273.94188
L 753.551875 273.958386
L 762.820325 273.970877
L 772.088775 273.978015
L 781.357225 273.976231
L 790.625675 273.978907
L 799.894125 273.983814
L 809.162575 273.983814
L 818.431025 273.985153
L 827.699475 273.985153
L 836.967925 273.986045
L 846.236375 273.988276
L 855.504825 273.987829
L 864.773275 273.988276
L 874.041725 273.988722
L 883.310175 273.987383
L 892.578625 273.986491
L 901.847075 273.987383
L 911.115525 273.988276
L 920.383975 273.988276
L 929.652425 273.988722
L 938.920875 273.988276
L 948.189325 273.987829
L 957.457775 273.986937
L 966.726225 273.985599
L 975.994675 273.982476
L 985.263125 273.979353
" style="fill:none;stroke:#5cb85c;stroke-linecap:square;"/>
   </g>
   <g id="line2d_13">
    <path clip-path="url(#p7ad95c9ec7)" d="M 58.418125 273.99006
L 67.686575 273.99006
L 76.955025 273.99006
L 86.223475 273.99006
L 95.491925 273.99006
L 104.760375 273.99006
L 114.028825 273.989614
L 123.297275 273.989168
L 132.565725 273.989614
L 141.834175 273.99006
L 151.102625 273.99006
L 160.371075 273.988722
L 169.639525 273.987829
L 178.907975 273.985599
L 188.176425 273.980692
L 197.444875 273.977123
L 206.713325 273.967308
L 215.981775 273.950802
L 225.250225 273.929835
L 234.518675 273.88567
L 243.787125 273.854442
L 253.055575 273.828121
L 262.324025 273.746036
L 271.592475 273.598373
L 280.860925 273.390485
L 290.129375 273.028241
L 299.397825 272.555808
L 308.666275 271.856303
L 317.934725 270.706671
L 327.203175 269.053377
L 336.471625 268.07639
L 345.740075 267.094496
L 355.008525 264.492767
L 364.276975 261.056807
L 373.545425 256.851748
L 382.813875 251.909266
L 392.082325 245.938047
L 401.350775 238.014193
L 410.619225 228.519131
L 419.887675 218.183145
L 429.156125 212.836038
L 438.424575 205.107136
L 447.693025 189.523527
L 456.961475 173.102118
L 466.229925 156.707923
L 475.498375 141.645373
L 484.766825 127.22478
L 494.035275 114.738532
L 503.303725 106.862858
L 512.572175 106.137479
L 521.840625 107.987062
L 531.109075 110.998323
L 540.377525 118.579116
L 549.645975 132.450544
L 558.914425 151.968421
L 568.182875 171.494328
L 577.451325 190.351512
L 586.719775 209.027128
L 595.988225 225.957551
L 605.256675 239.891436
L 614.525125 246.023255
L 623.793575 250.66818
L 633.062025 258.884684
L 642.330475 264.596711
L 651.598925 268.307923
L 660.867375 270.707117
L 670.135825 272.107018
L 679.404275 272.996121
L 688.672725 273.498444
L 697.941175 273.739791
L 707.209625 273.796447
L 716.478075 273.84775
L 725.746525 273.917344
L 735.014975 273.946787
L 744.283425 273.964632
L 753.551875 273.975338
L 762.820325 273.978907
L 772.088775 273.978461
L 781.357225 273.980246
L 790.625675 273.982922
L 799.894125 273.983814
L 809.162575 273.983814
L 818.431025 273.985153
L 827.699475 273.987829
L 836.967925 273.989168
L 846.236375 273.989614
L 855.504825 273.99006
L 864.773275 273.99006
L 874.041725 273.99006
L 883.310175 273.99006
L 892.578625 273.99006
L 901.847075 273.99006
L 911.115525 273.99006
L 920.383975 273.99006
L 929.652425 273.99006
L 938.920875 273.99006
L 948.189325 273.99006
L 957.457775 273.99006
L 966.726225 273.99006
L 975.994675 273.989614
L 985.263125 273.989168
" style="fill:none;stroke:#5cb85c;stroke-linecap:square;"/>
   </g>
   <g id="line2d_14">
    <path clip-path="url(#p7ad95c9ec7)" d="M 58.418125 273.946341
L 67.686575 273.954817
L 76.955025 273.969985
L 86.223475 273.979353
L 95.491925 273.981584
L 104.760375 273.977569
L 114.028825 273.978461
L 123.297275 273.983814
L 132.565725 273.983368
L 141.834175 273.981584
L 151.102625 273.981138
L 160.371075 273.979799
L 169.639525 273.977569
L 178.907975 273.974
L 188.176425 273.968647
L 197.444875 273.957048
L 206.713325 273.935188
L 215.981775 273.908421
L 225.250225 273.8879
L 234.518675 273.850427
L 243.787125 273.819645
L 253.055575 273.783956
L 262.324025 273.667521
L 271.592475 273.485953
L 280.860925 273.249959
L 290.129375 272.856934
L 299.397825 272.282341
L 308.666275 271.445433
L 317.934725 270.191856
L 327.203175 268.419897
L 336.471625 267.381346
L 345.740075 266.248666
L 355.008525 263.474291
L 364.276975 259.654674
L 373.545425 255.117262
L 382.813875 249.903097
L 392.082325 243.389851
L 401.350775 235.357146
L 410.619225 226.041421
L 419.887675 215.147794
L 429.156125 209.195759
L 438.424575 201.936167
L 447.693025 187.203295
L 456.961475 170.929549
L 466.229925 154.368508
L 475.498375 139.81765
L 484.766825 126.68543
L 494.035275 115.684291
L 503.303725 109.136694
L 512.572175 109.013121
L 521.840625 110.777943
L 531.109075 114.059548
L 540.377525 123.285605
L 549.645975 137.675862
L 558.914425 156.289915
L 568.182875 175.473653
L 577.451325 193.459579
L 586.719775 211.198359
L 595.988225 227.44043
L 605.256675 240.663657
L 614.525125 246.413157
L 623.793575 250.951462
L 633.062025 258.85301
L 642.330475 264.300046
L 651.598925 267.890807
L 660.867375 270.354241
L 670.135825 271.825075
L 679.404275 272.7173
L 688.672725 273.30037
L 697.941175 273.601942
L 707.209625 273.698302
L 716.478075 273.751836
L 725.746525 273.845073
L 735.014975 273.904852
L 744.283425 273.932958
L 753.551875 273.94991
L 762.820325 273.955263
L 772.088775 273.958386
L 781.357225 273.971323
L 790.625675 273.979353
L 799.894125 273.981138
L 809.162575 273.982922
L 818.431025 273.984261
L 827.699475 273.983814
L 836.967925 273.985599
L 846.236375 273.986045
L 855.504825 273.985153
L 864.773275 273.986045
L 874.041725 273.986491
L 883.310175 273.986045
L 892.578625 273.985599
L 901.847075 273.986937
L 911.115525 273.987829
L 920.383975 273.986937
L 929.652425 273.987829
L 938.920875 273.988722
L 948.189325 273.987829
L 957.457775 273.988276
L 966.726225 273.988276
L 975.994675 273.983368
L 985.263125 273.979353
" style="fill:none;stroke:#f0ad4e;stroke-linecap:square;"/>
   </g>
   <g id="line2d_15">
    <path clip-path="url(#p7ad95c9ec7)" d="M 58.418125 273.99006
L 67.686575 273.99006
L 76.955025 273.99006
L 86.223475 273.989614
L 95.491925 273.989614
L 104.760375 273.989614
L 114.028825 273.989614
L 123.297275 273.99006
L 132.565725 273.99006
L 141.834175 273.989168
L 151.102625 273.988276
L 160.371075 273.988722
L 169.639525 273.989614
L 178.907975 273.987383
L 188.176425 273.981138
L 197.444875 273.973108
L 206.713325 273.96597
L 215.981775 273.957048
L 225.250225 273.937419
L 234.518675 273.896376
L 243.787125 273.868717
L 253.055575 273.837043
L 262.324025 273.786186
L 271.592475 273.685365
L 280.860925 273.476584
L 290.129375 273.133077
L 299.397825 272.698564
L 308.666275 272.049024
L 317.934725 270.991737
L 327.203175 269.467816
L 336.471625 268.569791
L 345.740075 267.519641
L 355.008525 264.749281
L 364.276975 261.022902
L 373.545425 256.43731
L 382.813875 251.021055
L 392.082325 244.362823
L 401.350775 235.462429
L 410.619225 224.982349
L 419.887675 212.752615
L 429.156125 205.923968
L 438.424575 197.452734
L 447.693025 179.634101
L 456.961475 160.482928
L 466.229925 140.863784
L 475.498375 122.100284
L 484.766825 104.087591
L 494.035275 89.054485
L 503.303725 79.803446
L 512.572175 77.245882
L 521.840625 77.970815
L 531.109075 82.100034
L 540.377525 91.86098
L 549.645975 107.935759
L 558.914425 130.376566
L 568.182875 153.421856
L 577.451325 175.979099
L 586.719775 197.601736
L 595.988225 217.055818
L 605.256675 233.726604
L 614.525125 241.056236
L 623.793575 246.560374
L 633.062025 256.141537
L 642.330475 262.840811
L 651.598925 267.252866
L 660.867375 270.082559
L 670.135825 271.809015
L 679.404275 272.827936
L 688.672725 273.392269
L 697.941175 273.704102
L 707.209625 273.783956
L 716.478075 273.848196
L 725.746525 273.927604
L 735.014975 273.955263
L 744.283425 273.965524
L 753.551875 273.970431
L 762.820325 273.980246
L 772.088775 273.983368
L 781.357225 273.985599
L 790.625675 273.986937
L 799.894125 273.986491
L 809.162575 273.986045
L 818.431025 273.987383
L 827.699475 273.989614
L 836.967925 273.989614
L 846.236375 273.989614
L 855.504825 273.99006
L 864.773275 273.99006
L 874.041725 273.99006
L 883.310175 273.99006
L 892.578625 273.99006
L 901.847075 273.99006
L 911.115525 273.99006
L 920.383975 273.99006
L 929.652425 273.99006
L 938.920875 273.99006
L 948.189325 273.99006
L 957.457775 273.99006
L 966.726225 273.99006
L 975.994675 273.99006
L 985.263125 273.99006
" style="fill:none;stroke:#5cb85c;stroke-linecap:square;"/>
   </g>
   <g id="line2d_16">
    <path clip-path="url(#p7ad95c9ec7)" d="M 58.418125 273.95794
L 67.686575 273.961955
L 76.955025 273.970877
L 86.223475 273.974892
L 95.491925 273.974892
L 104.760375 273.978461
L 114.028825 273.980692
L 123.297275 273.983814
L 132.565725 273.987383
L 141.834175 273.985599
L 151.102625 273.983814
L 160.371075 273.98203
L 169.639525 273.982922
L 178.907975 273.975338
L 188.176425 273.966862
L 197.444875 273.957048
L 206.713325 273.935634
L 215.981775 273.909314
L 225.250225 273.873178
L 234.518675 273.820983
L 243.787125 273.788417
L 253.055575 273.740237
L 262.324025 273.62514
L 271.592475 273.472123
L 280.860925 273.197764
L 290.129375 272.767265
L 299.397825 272.250667
L 308.666275 271.416436
L 317.934725 270.058915
L 327.203175 268.146876
L 336.471625 267.032486
L 345.740075 265.847165
L 355.008525 262.840811
L 364.276975 258.932418
L 373.545425 254.137152
L 382.813875 248.361777
L 392.082325 241.430524
L 401.350775 232.144242
L 410.619225 221.093138
L 419.887675 208.800057
L 429.156125 202.135579
L 438.424575 193.771412
L 447.693025 176.604103
L 456.961475 157.676879
L 466.229925 138.729135
L 475.498375 121.63588
L 484.766825 105.079299
L 494.035275 91.583052
L 503.303725 83.50975
L 512.572175 82.174981
L 521.840625 83.704255
L 531.109075 87.437773
L 540.377525 97.535088
L 549.645975 113.725856
L 558.914425 135.569318
L 568.182875 157.836142
L 577.451325 179.082259
L 586.719775 199.824269
L 595.988225 218.358021
L 605.256675 234.153534
L 614.525125 241.161518
L 623.793575 246.360516
L 633.062025 255.720853
L 642.330475 262.416112
L 651.598925 266.697456
L 660.867375 269.532502
L 670.135825 271.317399
L 679.404275 272.434465
L 688.672725 273.118802
L 697.941175 273.516734
L 707.209625 273.650122
L 716.478075 273.719716
L 725.746525 273.829906
L 735.014975 273.891469
L 744.283425 273.926712
L 753.551875 273.951248
L 762.820325 273.964185
L 772.088775 273.972662
L 781.357225 273.979353
L 790.625675 273.982476
L 799.894125 273.984707
L 809.162575 273.986491
L 818.431025 273.986937
L 827.699475 273.986491
L 836.967925 273.986937
L 846.236375 273.987383
L 855.504825 273.988722
L 864.773275 273.988276
L 874.041725 273.986937
L 883.310175 273.986937
L 892.578625 273.987383
L 901.847075 273.987829
L 911.115525 273.986937
L 920.383975 273.985599
L 929.652425 273.987829
L 938.920875 273.988722
L 948.189325 273.987829
L 957.457775 273.987383
L 966.726225 273.987383
L 975.994675 273.984261
L 985.263125 273.980246
" style="fill:none;stroke:#5cb85c;stroke-linecap:square;"/>
   </g>
   <g id="line2d_17">
    <path clip-path="url(#p7ad95c9ec7)" d="M 58.418125 273.99006
L 67.686575 273.99006
L 76.955025 273.99006
L 86.223475 273.99006
L 95.491925 273.99006
L 104.760375 273.99006
L 114.028825 273.989614
L 123.297275 273.988722
L 132.565725 273.988276
L 141.834175 273.988722
L 151.102625 273.989168
L 160.371075 273.987829
L 169.639525 273.987383
L 178.907975 273.986491
L 188.176425 273.979353
L 197.444875 273.970877
L 206.713325 273.956602
L 215.981775 273.92805
L 225.250225 273.874517
L 234.518675 273.78574
L 243.787125 273.733099
L 253.055575 273.685365
L 262.324025 273.477923
L 271.592475 273.116571
L 280.860925 272.50049
L 290.129375 271.487368
L 299.397825 270.082559
L 308.666275 267.831474
L 317.934725 264.20547
L 327.203175 259.180903
L 336.471625 256.33738
L 345.740075 253.111093
L 355.008525 245.271109
L 364.276975 235.016316
L 373.545425 222.491702
L 382.813875 208.578339
L 392.082325 193.61215
L 401.350775 176.149514
L 410.619225 157.728628
L 419.887675 139.87609
L 429.156125 130.918147
L 438.424575 120.890426
L 447.693025 102.058224
L 456.961475 85.482461
L 466.229925 73.025656
L 475.498375 66.328166
L 484.766825 62.707515
L 494.035275 61.382114
L 503.303725 65.047822
L 512.572175 75.940556
L 521.840625 83.450863
L 531.109075 90.855442
L 540.377525 106.255253
L 549.645975 126.006
L 558.914425 149.579488
L 568.182875 171.70757
L 577.451325 191.924505
L 586.719775 210.734401
L 595.988225 227.356561
L 605.256675 241.139659
L 614.525125 247.203669
L 623.793575 251.665242
L 633.062025 259.483367
L 642.330475 264.935757
L 651.598925 268.472984
L 660.867375 270.821321
L 670.135825 272.225238
L 679.404275 273.03181
L 688.672725 273.512273
L 697.941175 273.748713
L 707.209625 273.814292
L 716.478075 273.868717
L 725.746525 273.942326
L 735.014975 273.967754
L 744.283425 273.975784
L 753.551875 273.981584
L 762.820325 273.985153
L 772.088775 273.985153
L 781.357225 273.986491
L 790.625675 273.987829
L 799.894125 273.988276
L 809.162575 273.987829
L 818.431025 273.988276
L 827.699475 273.987829
L 836.967925 273.988276
L 846.236375 273.989614
L 855.504825 273.989614
L 864.773275 273.989614
L 874.041725 273.989614
L 883.310175 273.99006
L 892.578625 273.99006
L 901.847075 273.99006
L 911.115525 273.99006
L 920.383975 273.99006
L 929.652425 273.99006
L 938.920875 273.99006
L 948.189325 273.99006
L 957.457775 273.99006
L 966.726225 273.99006
L 975.994675 273.99006
L 985.263125 273.99006
" style="fill:none;stroke:#5cb85c;stroke-linecap:square;"/>
   </g>
   <g id="line2d_18">
    <path clip-path="url(#p7ad95c9ec7)" d="M 58.418125 273.939203
L 67.686575 273.945449
L 76.955025 273.95794
L 86.223475 273.969985
L 95.491925 273.976677
L 104.760375 273.978907
L 114.028825 273.978015
L 123.297275 273.977123
L 132.565725 273.979799
L 141.834175 273.976677
L 151.102625 273.972215
L 160.371075 273.971769
L 169.639525 273.969539
L 178.907975 273.969093
L 188.176425 273.958832
L 197.444875 273.924928
L 206.713325 273.897715
L 215.981775 273.86381
L 225.250225 273.791094
L 234.518675 273.651014
L 243.787125 273.554654
L 253.055575 273.471677
L 262.324025 273.208024
L 271.592475 272.774849
L 280.860925 272.056608
L 290.129375 270.796339
L 299.397825 269.025272
L 308.666275 266.527487
L 317.934725 262.76408
L 327.203175 257.582927
L 336.471625 254.643937
L 345.740075 251.195485
L 355.008525 242.959353
L 364.276975 232.629167
L 373.545425 220.137119
L 382.813875 206.204127
L 392.082325 190.610704
L 401.350775 172.925904
L 410.619225 154.729859
L 419.887675 136.995541
L 429.156125 128.382443
L 438.424575 118.711611
L 447.693025 100.518689
L 456.961475 84.268142
L 466.229925 72.860594
L 475.498375 66.494566
L 484.766825 63.219652
L 494.035275 63.600633
L 503.303725 68.879038
L 512.572175 80.063976
L 521.840625 86.939465
L 531.109075 94.847258
L 540.377525 111.303018
L 549.645975 131.199644
L 558.914425 154.077642
L 568.182875 175.432611
L 577.451325 194.267043
L 586.719775 212.300703
L 595.988225 228.655641
L 605.256675 241.787415
L 614.525125 247.58911
L 623.793575 251.668811
L 633.062025 259.157259
L 642.330475 264.602064
L 651.598925 268.087543
L 660.867375 270.477815
L 670.135825 271.921882
L 679.404275 272.784663
L 688.672725 273.336059
L 697.941175 273.626032
L 707.209625 273.724177
L 716.478075 273.780833
L 725.746525 273.866041
L 735.014975 273.913329
L 744.283425 273.940095
L 753.551875 273.957048
L 762.820325 273.967308
L 772.088775 273.971769
L 781.357225 273.977123
L 790.625675 273.980692
L 799.894125 273.98203
L 809.162575 273.984707
L 818.431025 273.985153
L 827.699475 273.984707
L 836.967925 273.985153
L 846.236375 273.985153
L 855.504825 273.987383
L 864.773275 273.987829
L 874.041725 273.987829
L 883.310175 273.988722
L 892.578625 273.989168
L 901.847075 273.988722
L 911.115525 273.988276
L 920.383975 273.988276
L 929.652425 273.989168
L 938.920875 273.99006
L 948.189325 273.986937
L 957.457775 273.986491
L 966.726225 273.988276
L 975.994675 273.985153
L 985.263125 273.982922
" style="fill:none;stroke:#5cb85c;stroke-linecap:square;"/>
   </g>
   <g id="line2d_19">
    <path clip-path="url(#p7ad95c9ec7)" d="M 58.418125 273.99006
L 985.263125 273.99006
" style="fill:none;stroke:#dedede;stroke-linecap:square;stroke-width:2;"/>
   </g>
   <g id="text_15">
    <!-- FastQC: Per Sequence GC Content -->
    <g transform="translate(385.204375 19.3575)scale(0.16 -0.16)">
     <defs>
      <path d="M 9.8125 72.90625
L 51.703125 72.90625
L 51.703125 64.59375
L 19.671875 64.59375
L 19.671875 43.109375
L 48.578125 43.109375
L 48.578125 34.8125
L 19.671875 34.8125
L 19.671875 0
L 9.8125 0
z
" id="DejaVuSans-70"/>
      <path d="M 34.28125 27.484375
Q 23.390625 27.484375 19.1875 25
Q 14.984375 22.515625 14.984375 16.5
Q 14.984375 11.71875 18.140625 8.90625
Q 21.296875 6.109375 26.703125 6.109375
Q 34.1875 6.109375 38.703125 11.40625
Q 43.21875 16.703125 43.21875 25.484375
L 43.21875 27.484375
z
M 52.203125 31.203125
L 52.203125 0
L 43.21875 0
L 43.21875 8.296875
Q 40.140625 3.328125 35.546875 0.953125
Q 30.953125 -1.421875 24.3125 -1.421875
Q 15.921875 -1.421875 10.953125 3.296875
Q 6 8.015625 6 15.921875
Q 6 25.140625 12.171875 29.828125
Q 18.359375 34.515625 30.609375 34.515625
L 43.21875 34.515625
L 43.21875 35.40625
Q 43.21875 41.609375 39.140625 45
Q 35.0625 48.390625 27.6875 48.390625
Q 23 48.390625 18.546875 47.265625
Q 14.109375 46.140625 10.015625 43.890625
L 10.015625 52.203125
Q 14.9375 54.109375 19.578125 55.046875
Q 24.21875 56 28.609375 56
Q 40.484375 56 46.34375 49.84375
Q 52.203125 43.703125 52.203125 31.203125
z
" id="DejaVuSans-97"/>
      <path d="M 44.28125 53.078125
L 44.28125 44.578125
Q 40.484375 46.53125 36.375 47.5
Q 32.28125 48.484375 27.875 48.484375
Q 21.1875 48.484375 17.84375 46.4375
Q 14.5 44.390625 14.5 40.28125
Q 14.5 37.15625 16.890625 35.375
Q 19.28125 33.59375 26.515625 31.984375
L 29.59375 31.296875
Q 39.15625 29.25 43.1875 25.515625
Q 47.21875 21.78125 47.21875 15.09375
Q 47.21875 7.46875 41.1875 3.015625
Q 35.15625 -1.421875 24.609375 -1.421875
Q 20.21875 -1.421875 15.453125 -0.5625
Q 10.6875 0.296875 5.421875 2
L 5.421875 11.28125
Q 10.40625 8.6875 15.234375 7.390625
Q 20.0625 6.109375 24.8125 6.109375
Q 31.15625 6.109375 34.5625 8.28125
Q 37.984375 10.453125 37.984375 14.40625
Q 37.984375 18.0625 35.515625 20.015625
Q 33.0625 21.96875 24.703125 23.78125
L 21.578125 24.515625
Q 13.234375 26.265625 9.515625 29.90625
Q 5.8125 33.546875 5.8125 39.890625
Q 5.8125 47.609375 11.28125 51.796875
Q 16.75 56 26.8125 56
Q 31.78125 56 36.171875 55.265625
Q 40.578125 54.546875 44.28125 53.078125
z
" id="DejaVuSans-115"/>
      <path d="M 39.40625 66.21875
Q 28.65625 66.21875 22.328125 58.203125
Q 16.015625 50.203125 16.015625 36.375
Q 16.015625 22.609375 22.328125 14.59375
Q 28.65625 6.59375 39.40625 6.59375
Q 50.140625 6.59375 56.421875 14.59375
Q 62.703125 22.609375 62.703125 36.375
Q 62.703125 50.203125 56.421875 58.203125
Q 50.140625 66.21875 39.40625 66.21875
z
M 53.21875 1.3125
L 66.21875 -12.890625
L 54.296875 -12.890625
L 43.5 -1.21875
Q 41.890625 -1.3125 41.03125 -1.359375
Q 40.1875 -1.421875 39.40625 -1.421875
Q 24.03125 -1.421875 14.8125 8.859375
Q 5.609375 19.140625 5.609375 36.375
Q 5.609375 53.65625 14.8125 63.9375
Q 24.03125 74.21875 39.40625 74.21875
Q 54.734375 74.21875 63.90625 63.9375
Q 73.09375 53.65625 73.09375 36.375
Q 73.09375 23.6875 67.984375 14.640625
Q 62.890625 5.609375 53.21875 1.3125
z
" id="DejaVuSans-81"/>
      <path d="M 11.71875 12.40625
L 22.015625 12.40625
L 22.015625 0
L 11.71875 0
z
M 11.71875 51.703125
L 22.015625 51.703125
L 22.015625 39.3125
L 11.71875 39.3125
z
" id="DejaVuSans-58"/>
      <path d="M 19.671875 64.796875
L 19.671875 37.40625
L 32.078125 37.40625
Q 38.96875 37.40625 42.71875 40.96875
Q 46.484375 44.53125 46.484375 51.125
Q 46.484375 57.671875 42.71875 61.234375
Q 38.96875 64.796875 32.078125 64.796875
z
M 9.8125 72.90625
L 32.078125 72.90625
Q 44.34375 72.90625 50.609375 67.359375
Q 56.890625 61.8125 56.890625 51.125
Q 56.890625 40.328125 50.609375 34.8125
Q 44.34375 29.296875 32.078125 29.296875
L 19.671875 29.296875
L 19.671875 0
L 9.8125 0
z
" id="DejaVuSans-80"/>
      <path d="M 56.203125 29.59375
L 56.203125 25.203125
L 14.890625 25.203125
Q 15.484375 15.921875 20.484375 11.0625
Q 25.484375 6.203125 34.421875 6.203125
Q 39.59375 6.203125 44.453125 7.46875
Q 49.3125 8.734375 54.109375 11.28125
L 54.109375 2.78125
Q 49.265625 0.734375 44.1875 -0.34375
Q 39.109375 -1.421875 33.890625 -1.421875
Q 20.796875 -1.421875 13.15625 6.1875
Q 5.515625 13.8125 5.515625 26.8125
Q 5.515625 40.234375 12.765625 48.109375
Q 20.015625 56 32.328125 56
Q 43.359375 56 49.78125 48.890625
Q 56.203125 41.796875 56.203125 29.59375
z
M 47.21875 32.234375
Q 47.125 39.59375 43.09375 43.984375
Q 39.0625 48.390625 32.421875 48.390625
Q 24.90625 48.390625 20.390625 44.140625
Q 15.875 39.890625 15.1875 32.171875
z
" id="DejaVuSans-101"/>
      <path d="M 41.109375 46.296875
Q 39.59375 47.171875 37.8125 47.578125
Q 36.03125 48 33.890625 48
Q 26.265625 48 22.1875 43.046875
Q 18.109375 38.09375 18.109375 28.8125
L 18.109375 0
L 9.078125 0
L 9.078125 54.6875
L 18.109375 54.6875
L 18.109375 46.1875
Q 20.953125 51.171875 25.484375 53.578125
Q 30.03125 56 36.53125 56
Q 37.453125 56 38.578125 55.875
Q 39.703125 55.765625 41.0625 55.515625
z
" id="DejaVuSans-114"/>
      <path d="M 53.515625 70.515625
L 53.515625 60.890625
Q 47.90625 63.578125 42.921875 64.890625
Q 37.9375 66.21875 33.296875 66.21875
Q 25.25 66.21875 20.875 63.09375
Q 16.5 59.96875 16.5 54.203125
Q 16.5 49.359375 19.40625 46.890625
Q 22.3125 44.4375 30.421875 42.921875
L 36.375 41.703125
Q 47.40625 39.59375 52.65625 34.296875
Q 57.90625 29 57.90625 20.125
Q 57.90625 9.515625 50.796875 4.046875
Q 43.703125 -1.421875 29.984375 -1.421875
Q 24.8125 -1.421875 18.96875 -0.25
Q 13.140625 0.921875 6.890625 3.21875
L 6.890625 13.375
Q 12.890625 10.015625 18.65625 8.296875
Q 24.421875 6.59375 29.984375 6.59375
Q 38.421875 6.59375 43.015625 9.90625
Q 47.609375 13.234375 47.609375 19.390625
Q 47.609375 24.75 44.3125 27.78125
Q 41.015625 30.8125 33.5 32.328125
L 27.484375 33.5
Q 16.453125 35.6875 11.515625 40.375
Q 6.59375 45.0625 6.59375 53.421875
Q 6.59375 63.09375 13.40625 68.65625
Q 20.21875 74.21875 32.171875 74.21875
Q 37.3125 74.21875 42.625 73.28125
Q 47.953125 72.359375 53.515625 70.515625
z
" id="DejaVuSans-83"/>
      <path d="M 14.796875 27.296875
Q 14.796875 17.390625 18.875 11.75
Q 22.953125 6.109375 30.078125 6.109375
Q 37.203125 6.109375 41.296875 11.75
Q 45.40625 17.390625 45.40625 27.296875
Q 45.40625 37.203125 41.296875 42.84375
Q 37.203125 48.484375 30.078125 48.484375
Q 22.953125 48.484375 18.875 42.84375
Q 14.796875 37.203125 14.796875 27.296875
z
M 45.40625 8.203125
Q 42.578125 3.328125 38.25 0.953125
Q 33.9375 -1.421875 27.875 -1.421875
Q 17.96875 -1.421875 11.734375 6.484375
Q 5.515625 14.40625 5.515625 27.296875
Q 5.515625 40.1875 11.734375 48.09375
Q 17.96875 56 27.875 56
Q 33.9375 56 38.25 53.625
Q 42.578125 51.265625 45.40625 46.390625
L 45.40625 54.6875
L 54.390625 54.6875
L 54.390625 -20.796875
L 45.40625 -20.796875
z
" id="DejaVuSans-113"/>
      <path d="M 48.78125 52.59375
L 48.78125 44.1875
Q 44.96875 46.296875 41.140625 47.34375
Q 37.3125 48.390625 33.40625 48.390625
Q 24.65625 48.390625 19.8125 42.84375
Q 14.984375 37.3125 14.984375 27.296875
Q 14.984375 17.28125 19.8125 11.734375
Q 24.65625 6.203125 33.40625 6.203125
Q 37.3125 6.203125 41.140625 7.25
Q 44.96875 8.296875 48.78125 10.40625
L 48.78125 2.09375
Q 45.015625 0.34375 40.984375 -0.53125
Q 36.96875 -1.421875 32.421875 -1.421875
Q 20.0625 -1.421875 12.78125 6.34375
Q 5.515625 14.109375 5.515625 27.296875
Q 5.515625 40.671875 12.859375 48.328125
Q 20.21875 56 33.015625 56
Q 37.15625 56 41.109375 55.140625
Q 45.0625 54.296875 48.78125 52.59375
z
" id="DejaVuSans-99"/>
     </defs>
     <use xlink:href="#DejaVuSans-70"/>
     <use x="48.394531" xlink:href="#DejaVuSans-97"/>
     <use x="109.673828" xlink:href="#DejaVuSans-115"/>
     <use x="161.773438" xlink:href="#DejaVuSans-116"/>
     <use x="200.982422" xlink:href="#DejaVuSans-81"/>
     <use x="279.693359" xlink:href="#DejaVuSans-67"/>
     <use x="349.517578" xlink:href="#DejaVuSans-58"/>
     <use x="383.208984" xlink:href="#DejaVuSans-32"/>
     <use x="414.996094" xlink:href="#DejaVuSans-80"/>
     <use x="471.673828" xlink:href="#DejaVuSans-101"/>
     <use x="533.197266" xlink:href="#DejaVuSans-114"/>
     <use x="574.310547" xlink:href="#DejaVuSans-32"/>
     <use x="606.097656" xlink:href="#DejaVuSans-83"/>
     <use x="669.574219" xlink:href="#DejaVuSans-101"/>
     <use x="731.097656" xlink:href="#DejaVuSans-113"/>
     <use x="794.574219" xlink:href="#DejaVuSans-117"/>
     <use x="857.953125" xlink:href="#DejaVuSans-101"/>
     <use x="919.476562" xlink:href="#DejaVuSans-110"/>
     <use x="982.855469" xlink:href="#DejaVuSans-99"/>
     <use x="1037.835938" xlink:href="#DejaVuSans-101"/>
     <use x="1099.359375" xlink:href="#DejaVuSans-32"/>
     <use x="1131.146484" xlink:href="#DejaVuSans-71"/>
     <use x="1208.636719" xlink:href="#DejaVuSans-67"/>
     <use x="1278.460938" xlink:href="#DejaVuSans-32"/>
     <use x="1310.248047" xlink:href="#DejaVuSans-67"/>
     <use x="1380.072266" xlink:href="#DejaVuSans-111"/>
     <use x="1441.253906" xlink:href="#DejaVuSans-110"/>
     <use x="1504.632812" xlink:href="#DejaVuSans-116"/>
     <use x="1543.841797" xlink:href="#DejaVuSans-101"/>
     <use x="1605.365234" xlink:href="#DejaVuSans-110"/>
     <use x="1668.744141" xlink:href="#DejaVuSans-116"/>
    </g>
   </g>
   <g id="legend_1">
    <g id="line2d_20">
     <path d="M 65.618125 291.525394
L 81.618125 291.525394
" style="fill:none;stroke:#5cb85c;stroke-linecap:square;"/>
    </g>
    <g id="line2d_21"/>
    <g id="text_16">
     <!-- IP283_1 -->
     <g transform="translate(88.018125 294.325394)scale(0.08 -0.08)">
      <defs>
       <path d="M 9.8125 72.90625
L 19.671875 72.90625
L 19.671875 0
L 9.8125 0
z
" id="DejaVuSans-73"/>
       <path d="M 40.578125 39.3125
Q 47.65625 37.796875 51.625 33
Q 55.609375 28.21875 55.609375 21.1875
Q 55.609375 10.40625 48.1875 4.484375
Q 40.765625 -1.421875 27.09375 -1.421875
Q 22.515625 -1.421875 17.65625 -0.515625
Q 12.796875 0.390625 7.625 2.203125
L 7.625 11.71875
Q 11.71875 9.328125 16.59375 8.109375
Q 21.484375 6.890625 26.8125 6.890625
Q 36.078125 6.890625 40.9375 10.546875
Q 45.796875 14.203125 45.796875 21.1875
Q 45.796875 27.640625 41.28125 31.265625
Q 36.765625 34.90625 28.71875 34.90625
L 20.21875 34.90625
L 20.21875 43.015625
L 29.109375 43.015625
Q 36.375 43.015625 40.234375 45.921875
Q 44.09375 48.828125 44.09375 54.296875
Q 44.09375 59.90625 40.109375 62.90625
Q 36.140625 65.921875 28.71875 65.921875
Q 24.65625 65.921875 20.015625 65.03125
Q 15.375 64.15625 9.8125 62.3125
L 9.8125 71.09375
Q 15.4375 72.65625 20.34375 73.4375
Q 25.25 74.21875 29.59375 74.21875
Q 40.828125 74.21875 47.359375 69.109375
Q 53.90625 64.015625 53.90625 55.328125
Q 53.90625 49.265625 50.4375 45.09375
Q 46.96875 40.921875 40.578125 39.3125
z
" id="DejaVuSans-51"/>
       <path d="M 50.984375 -16.609375
L 50.984375 -23.578125
L -0.984375 -23.578125
L -0.984375 -16.609375
z
" id="DejaVuSans-95"/>
      </defs>
      <use xlink:href="#DejaVuSans-73"/>
      <use x="29.492188" xlink:href="#DejaVuSans-80"/>
      <use x="89.794922" xlink:href="#DejaVuSans-50"/>
      <use x="153.417969" xlink:href="#DejaVuSans-56"/>
      <use x="217.041016" xlink:href="#DejaVuSans-51"/>
      <use x="280.664062" xlink:href="#DejaVuSans-95"/>
      <use x="330.664062" xlink:href="#DejaVuSans-49"/>
     </g>
    </g>
    <g id="line2d_22">
     <path d="M 65.618125 303.490394
L 81.618125 303.490394
" style="fill:none;stroke:#f0ad4e;stroke-linecap:square;"/>
    </g>
    <g id="line2d_23"/>
    <g id="text_17">
     <!-- IP283_2 -->
     <g transform="translate(88.018125 306.290394)scale(0.08 -0.08)">
      <use xlink:href="#DejaVuSans-73"/>
      <use x="29.492188" xlink:href="#DejaVuSans-80"/>
      <use x="89.794922" xlink:href="#DejaVuSans-50"/>
      <use x="153.417969" xlink:href="#DejaVuSans-56"/>
      <use x="217.041016" xlink:href="#DejaVuSans-51"/>
      <use x="280.664062" xlink:href="#DejaVuSans-95"/>
      <use x="330.664062" xlink:href="#DejaVuSans-50"/>
     </g>
    </g>
    <g id="line2d_24">
     <path d="M 65.618125 315.455394
L 81.618125 315.455394
" style="fill:none;stroke:#f0ad4e;stroke-linecap:square;"/>
    </g>
    <g id="line2d_25"/>
    <g id="text_18">
     <!-- IP542_1 -->
     <g transform="translate(88.018125 318.255394)scale(0.08 -0.08)">
      <use xlink:href="#DejaVuSans-73"/>
      <use x="29.492188" xlink:href="#DejaVuSans-80"/>
      <use x="89.794922" xlink:href="#DejaVuSans-53"/>
      <use x="153.417969" xlink:href="#DejaVuSans-52"/>
      <use x="217.041016" xlink:href="#DejaVuSans-50"/>
      <use x="280.664062" xlink:href="#DejaVuSans-95"/>
      <use x="330.664062" xlink:href="#DejaVuSans-49"/>
     </g>
    </g>
    <g id="line2d_26">
     <path d="M 280.243438 291.525394
L 296.243438 291.525394
" style="fill:none;stroke:#5cb85c;stroke-linecap:square;"/>
    </g>
    <g id="line2d_27"/>
    <g id="text_19">
     <!-- IP542_2 -->
     <g transform="translate(302.643438 294.325394)scale(0.08 -0.08)">
      <use xlink:href="#DejaVuSans-73"/>
      <use x="29.492188" xlink:href="#DejaVuSans-80"/>
      <use x="89.794922" xlink:href="#DejaVuSans-53"/>
      <use x="153.417969" xlink:href="#DejaVuSans-52"/>
      <use x="217.041016" xlink:href="#DejaVuSans-50"/>
      <use x="280.664062" xlink:href="#DejaVuSans-95"/>
      <use x="330.664062" xlink:href="#DejaVuSans-50"/>
     </g>
    </g>
    <g id="line2d_28">
     <path d="M 280.243438 303.490394
L 296.243438 303.490394
" style="fill:none;stroke:#5cb85c;stroke-linecap:square;"/>
    </g>
    <g id="line2d_29"/>
    <g id="text_20">
     <!-- IP543_1 -->
     <g transform="translate(302.643438 306.290394)scale(0.08 -0.08)">
      <use xlink:href="#DejaVuSans-73"/>
      <use x="29.492188" xlink:href="#DejaVuSans-80"/>
      <use x="89.794922" xlink:href="#DejaVuSans-53"/>
      <use x="153.417969" xlink:href="#DejaVuSans-52"/>
      <use x="217.041016" xlink:href="#DejaVuSans-51"/>
      <use x="280.664062" xlink:href="#DejaVuSans-95"/>
      <use x="330.664062" xlink:href="#DejaVuSans-49"/>
     </g>
    </g>
    <g id="line2d_30">
     <path d="M 280.243438 315.455394
L 296.243438 315.455394
" style="fill:none;stroke:#5cb85c;stroke-linecap:square;"/>
    </g>
    <g id="line2d_31"/>
    <g id="text_21">
     <!-- IP543_2 -->
     <g transform="translate(302.643438 318.255394)scale(0.08 -0.08)">
      <use xlink:href="#DejaVuSans-73"/>
      <use x="29.492188" xlink:href="#DejaVuSans-80"/>
      <use x="89.794922" xlink:href="#DejaVuSans-53"/>
      <use x="153.417969" xlink:href="#DejaVuSans-52"/>
      <use x="217.041016" xlink:href="#DejaVuSans-51"/>
      <use x="280.664062" xlink:href="#DejaVuSans-95"/>
      <use x="330.664062" xlink:href="#DejaVuSans-50"/>
     </g>
    </g>
    <g id="line2d_32">
     <path d="M 494.86875 291.525394
L 510.86875 291.525394
" style="fill:none;stroke:#5cb85c;stroke-linecap:square;"/>
    </g>
    <g id="line2d_33"/>
    <g id="text_22">
     <!-- IP557_1 -->
     <g transform="translate(517.26875 294.325394)scale(0.08 -0.08)">
      <defs>
       <path d="M 8.203125 72.90625
L 55.078125 72.90625
L 55.078125 68.703125
L 28.609375 0
L 18.3125 0
L 43.21875 64.59375
L 8.203125 64.59375
z
" id="DejaVuSans-55"/>
      </defs>
      <use xlink:href="#DejaVuSans-73"/>
      <use x="29.492188" xlink:href="#DejaVuSans-80"/>
      <use x="89.794922" xlink:href="#DejaVuSans-53"/>
      <use x="153.417969" xlink:href="#DejaVuSans-53"/>
      <use x="217.041016" xlink:href="#DejaVuSans-55"/>
      <use x="280.664062" xlink:href="#DejaVuSans-95"/>
      <use x="330.664062" xlink:href="#DejaVuSans-49"/>
     </g>
    </g>
    <g id="line2d_34">
     <path d="M 494.86875 303.490394
L 510.86875 303.490394
" style="fill:none;stroke:#f0ad4e;stroke-linecap:square;"/>
    </g>
    <g id="line2d_35"/>
    <g id="text_23">
     <!-- IP557_2 -->
     <g transform="translate(517.26875 306.290394)scale(0.08 -0.08)">
      <use xlink:href="#DejaVuSans-73"/>
      <use x="29.492188" xlink:href="#DejaVuSans-80"/>
      <use x="89.794922" xlink:href="#DejaVuSans-53"/>
      <use x="153.417969" xlink:href="#DejaVuSans-53"/>
      <use x="217.041016" xlink:href="#DejaVuSans-55"/>
      <use x="280.664062" xlink:href="#DejaVuSans-95"/>
      <use x="330.664062" xlink:href="#DejaVuSans-50"/>
     </g>
    </g>
    <g id="line2d_36">
     <path d="M 709.494062 291.525394
L 725.494062 291.525394
" style="fill:none;stroke:#5cb85c;stroke-linecap:square;"/>
    </g>
    <g id="line2d_37"/>
    <g id="text_24">
     <!-- IP562_1 -->
     <g transform="translate(731.894062 294.325394)scale(0.08 -0.08)">
      <use xlink:href="#DejaVuSans-73"/>
      <use x="29.492188" xlink:href="#DejaVuSans-80"/>
      <use x="89.794922" xlink:href="#DejaVuSans-53"/>
      <use x="153.417969" xlink:href="#DejaVuSans-54"/>
      <use x="217.041016" xlink:href="#DejaVuSans-50"/>
      <use x="280.664062" xlink:href="#DejaVuSans-95"/>
      <use x="330.664062" xlink:href="#DejaVuSans-49"/>
     </g>
    </g>
    <g id="line2d_38">
     <path d="M 709.494062 303.490394
L 725.494062 303.490394
" style="fill:none;stroke:#5cb85c;stroke-linecap:square;"/>
    </g>
    <g id="line2d_39"/>
    <g id="text_25">
     <!-- IP562_2 -->
     <g transform="translate(731.894062 306.290394)scale(0.08 -0.08)">
      <use xlink:href="#DejaVuSans-73"/>
      <use x="29.492188" xlink:href="#DejaVuSans-80"/>
      <use x="89.794922" xlink:href="#DejaVuSans-53"/>
      <use x="153.417969" xlink:href="#DejaVuSans-54"/>
      <use x="217.041016" xlink:href="#DejaVuSans-50"/>
      <use x="280.664062" xlink:href="#DejaVuSans-95"/>
      <use x="330.664062" xlink:href="#DejaVuSans-50"/>
     </g>
    </g>
    <g id="line2d_40">
     <path d="M 924.119375 291.525394
L 940.119375 291.525394
" style="fill:none;stroke:#5cb85c;stroke-linecap:square;"/>
    </g>
    <g id="line2d_41"/>
    <g id="text_26">
     <!-- IP579_1 -->
     <g transform="translate(946.519375 294.325394)scale(0.08 -0.08)">
      <defs>
       <path d="M 10.984375 1.515625
L 10.984375 10.5
Q 14.703125 8.734375 18.5 7.8125
Q 22.3125 6.890625 25.984375 6.890625
Q 35.75 6.890625 40.890625 13.453125
Q 46.046875 20.015625 46.78125 33.40625
Q 43.953125 29.203125 39.59375 26.953125
Q 35.25 24.703125 29.984375 24.703125
Q 19.046875 24.703125 12.671875 31.3125
Q 6.296875 37.9375 6.296875 49.421875
Q 6.296875 60.640625 12.9375 67.421875
Q 19.578125 74.21875 30.609375 74.21875
Q 43.265625 74.21875 49.921875 64.515625
Q 56.59375 54.828125 56.59375 36.375
Q 56.59375 19.140625 48.40625 8.859375
Q 40.234375 -1.421875 26.421875 -1.421875
Q 22.703125 -1.421875 18.890625 -0.6875
Q 15.09375 0.046875 10.984375 1.515625
z
M 30.609375 32.421875
Q 37.25 32.421875 41.125 36.953125
Q 45.015625 41.5 45.015625 49.421875
Q 45.015625 57.28125 41.125 61.84375
Q 37.25 66.40625 30.609375 66.40625
Q 23.96875 66.40625 20.09375 61.84375
Q 16.21875 57.28125 16.21875 49.421875
Q 16.21875 41.5 20.09375 36.953125
Q 23.96875 32.421875 30.609375 32.421875
z
" id="DejaVuSans-57"/>
      </defs>
      <use xlink:href="#DejaVuSans-73"/>
      <use x="29.492188" xlink:href="#DejaVuSans-80"/>
      <use x="89.794922" xlink:href="#DejaVuSans-53"/>
      <use x="153.417969" xlink:href="#DejaVuSans-55"/>
      <use x="217.041016" xlink:href="#DejaVuSans-57"/>
      <use x="280.664062" xlink:href="#DejaVuSans-95"/>
      <use x="330.664062" xlink:href="#DejaVuSans-49"/>
     </g>
    </g>
    <g id="line2d_42">
     <path d="M 924.119375 303.490394
L 940.119375 303.490394
" style="fill:none;stroke:#5cb85c;stroke-linecap:square;"/>
    </g>
    <g id="line2d_43"/>
    <g id="text_27">
     <!-- IP579_2 -->
     <g transform="translate(946.519375 306.290394)scale(0.08 -0.08)">
      <use xlink:href="#DejaVuSans-73"/>
      <use x="29.492188" xlink:href="#DejaVuSans-80"/>
      <use x="89.794922" xlink:href="#DejaVuSans-53"/>
      <use x="153.417969" xlink:href="#DejaVuSans-55"/>
      <use x="217.041016" xlink:href="#DejaVuSans-57"/>
      <use x="280.664062" xlink:href="#DejaVuSans-95"/>
      <use x="330.664062" xlink:href="#DejaVuSans-50"/>
     </g>
    </g>
   </g>
  </g>
 </g>
 <defs>
  <clipPath id="p7ad95c9ec7">
   <rect height="242.5072" width="926.845" x="58.418125" y="31.48286"/>
  </clipPath>
 </defs>
</svg>
