<?xml version="1.0" encoding="utf-8" standalone="no"?>
<!DOCTYPE svg PUBLIC "-//W3C//DTD SVG 1.1//EN"
  "http://www.w3.org/Graphics/SVG/1.1/DTD/svg11.dtd">
<!-- Created with matplotlib (https://matplotlib.org/) -->
<svg height="310.572375pt" version="1.1" viewBox="0 0 374.924297 310.572375" width="374.924297pt" xmlns="http://www.w3.org/2000/svg" xmlns:xlink="http://www.w3.org/1999/xlink">
 <metadata>
  <rdf:RDF xmlns:cc="http://creativecommons.org/ns#" xmlns:dc="http://purl.org/dc/elements/1.1/" xmlns:rdf="http://www.w3.org/1999/02/22-rdf-syntax-ns#">
   <cc:Work>
    <dc:type rdf:resource="http://purl.org/dc/dcmitype/StillImage"/>
    <dc:date>2021-01-29T22:49:47.289223</dc:date>
    <dc:format>image/svg+xml</dc:format>
    <dc:creator>
     <cc:Agent>
      <dc:title>Matplotlib v3.3.2, https://matplotlib.org/</dc:title>
     </cc:Agent>
    </dc:creator>
   </cc:Work>
  </rdf:RDF>
 </metadata>
 <defs>
  <style type="text/css">*{stroke-linecap:butt;stroke-linejoin:round;}</style>
 </defs>
 <g id="figure_1">
  <g id="patch_1">
   <path d="M 0 310.572375
L 374.924297 310.572375
L 374.924297 0
L 0 0
z
" style="fill:none;"/>
  </g>
  <g id="axes_1">
   <g id="patch_2">
    <path d="M 10.604297 281.726437
L 367.724297 281.726437
L 367.724297 20.798437
L 10.604297 20.798437
z
" style="fill:#ffffff;"/>
   </g>
   <g id="PathCollection_1">
    <defs>
     <path d="M 0 0.707107
C 0.187527 0.707107 0.367398 0.632602 0.5 0.5
C 0.632602 0.367398 0.707107 0.187527 0.707107 0
C 0.707107 -0.187527 0.632602 -0.367398 0.5 -0.5
C 0.367398 -0.632602 0.187527 -0.707107 0 -0.707107
C -0.187527 -0.707107 -0.367398 -0.632602 -0.5 -0.5
C -0.632602 -0.367398 -0.707107 -0.187527 -0.707107 0
C -0.707107 0.187527 -0.632602 0.367398 -0.5 0.5
C -0.367398 0.632602 -0.187527 0.707107 0 0.707107
z
" id="m80242efebf" style="stroke:#0cc1e8;"/>
    </defs>
    <g clip-path="url(#p8c939c562f)">
     <use style="fill:#0cc1e8;stroke:#0cc1e8;" x="129.3535" xlink:href="#m80242efebf" y="55.588837"/>
     <use style="fill:#0cc1e8;stroke:#0cc1e8;" x="190.917606" xlink:href="#m80242efebf" y="72.984037"/>
     <use style="fill:#0cc1e8;stroke:#0cc1e8;" x="194.248735" xlink:href="#m80242efebf" y="90.379237"/>
     <use style="fill:#0cc1e8;stroke:#0cc1e8;" x="194.248735" xlink:href="#m80242efebf" y="107.774437"/>
     <use style="fill:#0cc1e8;stroke:#0cc1e8;" x="186.93567" xlink:href="#m80242efebf" y="125.169637"/>
     <use style="fill:#0cc1e8;stroke:#0cc1e8;" x="196.505796" xlink:href="#m80242efebf" y="142.564837"/>
     <use style="fill:#0cc1e8;stroke:#0cc1e8;" x="273.978769" xlink:href="#m80242efebf" y="159.960037"/>
     <use style="fill:#0cc1e8;stroke:#0cc1e8;" x="285.557089" xlink:href="#m80242efebf" y="177.355237"/>
     <use style="fill:#0cc1e8;stroke:#0cc1e8;" x="351.878303" xlink:href="#m80242efebf" y="194.750437"/>
     <use style="fill:#0cc1e8;stroke:#0cc1e8;" x="193.214346" xlink:href="#m80242efebf" y="212.145637"/>
     <use style="fill:#0cc1e8;stroke:#0cc1e8;" x="193.214346" xlink:href="#m80242efebf" y="229.540837"/>
     <use style="fill:#0cc1e8;stroke:#0cc1e8;" x="193.214346" xlink:href="#m80242efebf" y="246.936037"/>
     <use style="fill:#0cc1e8;stroke:#0cc1e8;" x="200.448451" xlink:href="#m80242efebf" y="264.331237"/>
    </g>
   </g>
   <g id="matplotlib.axis_1">
    <g id="xtick_1">
     <g id="line2d_1">
      <defs>
       <path d="M 0 0
L 0 3.5
" id="m0b890835d4" style="stroke:#000000;stroke-width:0.8;"/>
      </defs>
      <g>
       <use style="stroke:#000000;stroke-width:0.8;" x="10.604297" xlink:href="#m0b890835d4" y="281.726437"/>
      </g>
     </g>
     <g id="text_1">
      <!-- -200 -->
      <g transform="translate(7.2 291.005969)scale(0.03 -0.03)">
       <defs>
        <path d="M 4.890625 31.390625
L 31.203125 31.390625
L 31.203125 23.390625
L 4.890625 23.390625
z
" id="DejaVuSans-45"/>
        <path d="M 19.1875 8.296875
L 53.609375 8.296875
L 53.609375 0
L 7.328125 0
L 7.328125 8.296875
Q 12.9375 14.109375 22.625 23.890625
Q 32.328125 33.6875 34.8125 36.53125
Q 39.546875 41.84375 41.421875 45.53125
Q 43.3125 49.21875 43.3125 52.78125
Q 43.3125 58.59375 39.234375 62.25
Q 35.15625 65.921875 28.609375 65.921875
Q 23.96875 65.921875 18.8125 64.3125
Q 13.671875 62.703125 7.8125 59.421875
L 7.8125 69.390625
Q 13.765625 71.78125 18.9375 73
Q 24.125 74.21875 28.421875 74.21875
Q 39.75 74.21875 46.484375 68.546875
Q 53.21875 62.890625 53.21875 53.421875
Q 53.21875 48.921875 51.53125 44.890625
Q 49.859375 40.875 45.40625 35.40625
Q 44.1875 33.984375 37.640625 27.21875
Q 31.109375 20.453125 19.1875 8.296875
z
" id="DejaVuSans-50"/>
        <path d="M 31.78125 66.40625
Q 24.171875 66.40625 20.328125 58.90625
Q 16.5 51.421875 16.5 36.375
Q 16.5 21.390625 20.328125 13.890625
Q 24.171875 6.390625 31.78125 6.390625
Q 39.453125 6.390625 43.28125 13.890625
Q 47.125 21.390625 47.125 36.375
Q 47.125 51.421875 43.28125 58.90625
Q 39.453125 66.40625 31.78125 66.40625
z
M 31.78125 74.21875
Q 44.046875 74.21875 50.515625 64.515625
Q 56.984375 54.828125 56.984375 36.375
Q 56.984375 17.96875 50.515625 8.265625
Q 44.046875 -1.421875 31.78125 -1.421875
Q 19.53125 -1.421875 13.0625 8.265625
Q 6.59375 17.96875 6.59375 36.375
Q 6.59375 54.828125 13.0625 64.515625
Q 19.53125 74.21875 31.78125 74.21875
z
" id="DejaVuSans-48"/>
       </defs>
       <use xlink:href="#DejaVuSans-45"/>
       <use x="36.083984" xlink:href="#DejaVuSans-50"/>
       <use x="99.707031" xlink:href="#DejaVuSans-48"/>
       <use x="163.330078" xlink:href="#DejaVuSans-48"/>
      </g>
     </g>
    </g>
    <g id="xtick_2">
     <g id="line2d_2">
      <g>
       <use style="stroke:#000000;stroke-width:0.8;" x="36.363337" xlink:href="#m0b890835d4" y="281.726437"/>
      </g>
     </g>
     <g id="text_2">
      <!-- -100 -->
      <g transform="translate(32.95904 291.005969)scale(0.03 -0.03)">
       <defs>
        <path d="M 12.40625 8.296875
L 28.515625 8.296875
L 28.515625 63.921875
L 10.984375 60.40625
L 10.984375 69.390625
L 28.421875 72.90625
L 38.28125 72.90625
L 38.28125 8.296875
L 54.390625 8.296875
L 54.390625 0
L 12.40625 0
z
" id="DejaVuSans-49"/>
       </defs>
       <use xlink:href="#DejaVuSans-45"/>
       <use x="36.083984" xlink:href="#DejaVuSans-49"/>
       <use x="99.707031" xlink:href="#DejaVuSans-48"/>
       <use x="163.330078" xlink:href="#DejaVuSans-48"/>
      </g>
     </g>
    </g>
    <g id="xtick_3">
     <g id="line2d_3">
      <g>
       <use style="stroke:#000000;stroke-width:0.8;" x="62.122377" xlink:href="#m0b890835d4" y="281.726437"/>
      </g>
     </g>
     <g id="text_3">
      <!-- 0 -->
      <g transform="translate(61.168002 291.005969)scale(0.03 -0.03)">
       <use xlink:href="#DejaVuSans-48"/>
      </g>
     </g>
    </g>
    <g id="xtick_4">
     <g id="line2d_4">
      <g>
       <use style="stroke:#000000;stroke-width:0.8;" x="87.881417" xlink:href="#m0b890835d4" y="281.726437"/>
      </g>
     </g>
     <g id="text_4">
      <!-- 100 -->
      <g transform="translate(85.018292 291.005969)scale(0.03 -0.03)">
       <use xlink:href="#DejaVuSans-49"/>
       <use x="63.623047" xlink:href="#DejaVuSans-48"/>
       <use x="127.246094" xlink:href="#DejaVuSans-48"/>
      </g>
     </g>
    </g>
    <g id="xtick_5">
     <g id="line2d_5">
      <g>
       <use style="stroke:#000000;stroke-width:0.8;" x="113.640457" xlink:href="#m0b890835d4" y="281.726437"/>
      </g>
     </g>
     <g id="text_5">
      <!-- 200 -->
      <g transform="translate(110.777332 291.005969)scale(0.03 -0.03)">
       <use xlink:href="#DejaVuSans-50"/>
       <use x="63.623047" xlink:href="#DejaVuSans-48"/>
       <use x="127.246094" xlink:href="#DejaVuSans-48"/>
      </g>
     </g>
    </g>
    <g id="xtick_6">
     <g id="line2d_6">
      <g>
       <use style="stroke:#000000;stroke-width:0.8;" x="139.399497" xlink:href="#m0b890835d4" y="281.726437"/>
      </g>
     </g>
     <g id="text_6">
      <!-- 300 -->
      <g transform="translate(136.536372 291.005969)scale(0.03 -0.03)">
       <defs>
        <path d="M 40.578125 39.3125
Q 47.65625 37.796875 51.625 33
Q 55.609375 28.21875 55.609375 21.1875
Q 55.609375 10.40625 48.1875 4.484375
Q 40.765625 -1.421875 27.09375 -1.421875
Q 22.515625 -1.421875 17.65625 -0.515625
Q 12.796875 0.390625 7.625 2.203125
L 7.625 11.71875
Q 11.71875 9.328125 16.59375 8.109375
Q 21.484375 6.890625 26.8125 6.890625
Q 36.078125 6.890625 40.9375 10.546875
Q 45.796875 14.203125 45.796875 21.1875
Q 45.796875 27.640625 41.28125 31.265625
Q 36.765625 34.90625 28.71875 34.90625
L 20.21875 34.90625
L 20.21875 43.015625
L 29.109375 43.015625
Q 36.375 43.015625 40.234375 45.921875
Q 44.09375 48.828125 44.09375 54.296875
Q 44.09375 59.90625 40.109375 62.90625
Q 36.140625 65.921875 28.71875 65.921875
Q 24.65625 65.921875 20.015625 65.03125
Q 15.375 64.15625 9.8125 62.3125
L 9.8125 71.09375
Q 15.4375 72.65625 20.34375 73.4375
Q 25.25 74.21875 29.59375 74.21875
Q 40.828125 74.21875 47.359375 69.109375
Q 53.90625 64.015625 53.90625 55.328125
Q 53.90625 49.265625 50.4375 45.09375
Q 46.96875 40.921875 40.578125 39.3125
z
" id="DejaVuSans-51"/>
       </defs>
       <use xlink:href="#DejaVuSans-51"/>
       <use x="63.623047" xlink:href="#DejaVuSans-48"/>
       <use x="127.246094" xlink:href="#DejaVuSans-48"/>
      </g>
     </g>
    </g>
    <g id="xtick_7">
     <g id="line2d_7">
      <g>
       <use style="stroke:#000000;stroke-width:0.8;" x="165.158537" xlink:href="#m0b890835d4" y="281.726437"/>
      </g>
     </g>
     <g id="text_7">
      <!-- 400 -->
      <g transform="translate(162.295412 291.005969)scale(0.03 -0.03)">
       <defs>
        <path d="M 37.796875 64.3125
L 12.890625 25.390625
L 37.796875 25.390625
z
M 35.203125 72.90625
L 47.609375 72.90625
L 47.609375 25.390625
L 58.015625 25.390625
L 58.015625 17.1875
L 47.609375 17.1875
L 47.609375 0
L 37.796875 0
L 37.796875 17.1875
L 4.890625 17.1875
L 4.890625 26.703125
z
" id="DejaVuSans-52"/>
       </defs>
       <use xlink:href="#DejaVuSans-52"/>
       <use x="63.623047" xlink:href="#DejaVuSans-48"/>
       <use x="127.246094" xlink:href="#DejaVuSans-48"/>
      </g>
     </g>
    </g>
    <g id="xtick_8">
     <g id="line2d_8">
      <g>
       <use style="stroke:#000000;stroke-width:0.8;" x="190.917577" xlink:href="#m0b890835d4" y="281.726437"/>
      </g>
     </g>
     <g id="text_8">
      <!-- 500 -->
      <g transform="translate(188.054452 291.005969)scale(0.03 -0.03)">
       <defs>
        <path d="M 10.796875 72.90625
L 49.515625 72.90625
L 49.515625 64.59375
L 19.828125 64.59375
L 19.828125 46.734375
Q 21.96875 47.46875 24.109375 47.828125
Q 26.265625 48.1875 28.421875 48.1875
Q 40.625 48.1875 47.75 41.5
Q 54.890625 34.8125 54.890625 23.390625
Q 54.890625 11.625 47.5625 5.09375
Q 40.234375 -1.421875 26.90625 -1.421875
Q 22.3125 -1.421875 17.546875 -0.640625
Q 12.796875 0.140625 7.71875 1.703125
L 7.71875 11.625
Q 12.109375 9.234375 16.796875 8.0625
Q 21.484375 6.890625 26.703125 6.890625
Q 35.15625 6.890625 40.078125 11.328125
Q 45.015625 15.765625 45.015625 23.390625
Q 45.015625 31 40.078125 35.4375
Q 35.15625 39.890625 26.703125 39.890625
Q 22.75 39.890625 18.8125 39.015625
Q 14.890625 38.140625 10.796875 36.28125
z
" id="DejaVuSans-53"/>
       </defs>
       <use xlink:href="#DejaVuSans-53"/>
       <use x="63.623047" xlink:href="#DejaVuSans-48"/>
       <use x="127.246094" xlink:href="#DejaVuSans-48"/>
      </g>
     </g>
    </g>
    <g id="xtick_9">
     <g id="line2d_9">
      <g>
       <use style="stroke:#000000;stroke-width:0.8;" x="216.676617" xlink:href="#m0b890835d4" y="281.726437"/>
      </g>
     </g>
     <g id="text_9">
      <!-- 600 -->
      <g transform="translate(213.813492 291.005969)scale(0.03 -0.03)">
       <defs>
        <path d="M 33.015625 40.375
Q 26.375 40.375 22.484375 35.828125
Q 18.609375 31.296875 18.609375 23.390625
Q 18.609375 15.53125 22.484375 10.953125
Q 26.375 6.390625 33.015625 6.390625
Q 39.65625 6.390625 43.53125 10.953125
Q 47.40625 15.53125 47.40625 23.390625
Q 47.40625 31.296875 43.53125 35.828125
Q 39.65625 40.375 33.015625 40.375
z
M 52.59375 71.296875
L 52.59375 62.3125
Q 48.875 64.0625 45.09375 64.984375
Q 41.3125 65.921875 37.59375 65.921875
Q 27.828125 65.921875 22.671875 59.328125
Q 17.53125 52.734375 16.796875 39.40625
Q 19.671875 43.65625 24.015625 45.921875
Q 28.375 48.1875 33.59375 48.1875
Q 44.578125 48.1875 50.953125 41.515625
Q 57.328125 34.859375 57.328125 23.390625
Q 57.328125 12.15625 50.6875 5.359375
Q 44.046875 -1.421875 33.015625 -1.421875
Q 20.359375 -1.421875 13.671875 8.265625
Q 6.984375 17.96875 6.984375 36.375
Q 6.984375 53.65625 15.1875 63.9375
Q 23.390625 74.21875 37.203125 74.21875
Q 40.921875 74.21875 44.703125 73.484375
Q 48.484375 72.75 52.59375 71.296875
z
" id="DejaVuSans-54"/>
       </defs>
       <use xlink:href="#DejaVuSans-54"/>
       <use x="63.623047" xlink:href="#DejaVuSans-48"/>
       <use x="127.246094" xlink:href="#DejaVuSans-48"/>
      </g>
     </g>
    </g>
    <g id="xtick_10">
     <g id="line2d_10">
      <g>
       <use style="stroke:#000000;stroke-width:0.8;" x="242.435657" xlink:href="#m0b890835d4" y="281.726437"/>
      </g>
     </g>
     <g id="text_10">
      <!-- 700 -->
      <g transform="translate(239.572532 291.005969)scale(0.03 -0.03)">
       <defs>
        <path d="M 8.203125 72.90625
L 55.078125 72.90625
L 55.078125 68.703125
L 28.609375 0
L 18.3125 0
L 43.21875 64.59375
L 8.203125 64.59375
z
" id="DejaVuSans-55"/>
       </defs>
       <use xlink:href="#DejaVuSans-55"/>
       <use x="63.623047" xlink:href="#DejaVuSans-48"/>
       <use x="127.246094" xlink:href="#DejaVuSans-48"/>
      </g>
     </g>
    </g>
    <g id="xtick_11">
     <g id="line2d_11">
      <g>
       <use style="stroke:#000000;stroke-width:0.8;" x="268.194697" xlink:href="#m0b890835d4" y="281.726437"/>
      </g>
     </g>
     <g id="text_11">
      <!-- 800 -->
      <g transform="translate(265.331572 291.005969)scale(0.03 -0.03)">
       <defs>
        <path d="M 31.78125 34.625
Q 24.75 34.625 20.71875 30.859375
Q 16.703125 27.09375 16.703125 20.515625
Q 16.703125 13.921875 20.71875 10.15625
Q 24.75 6.390625 31.78125 6.390625
Q 38.8125 6.390625 42.859375 10.171875
Q 46.921875 13.96875 46.921875 20.515625
Q 46.921875 27.09375 42.890625 30.859375
Q 38.875 34.625 31.78125 34.625
z
M 21.921875 38.8125
Q 15.578125 40.375 12.03125 44.71875
Q 8.5 49.078125 8.5 55.328125
Q 8.5 64.0625 14.71875 69.140625
Q 20.953125 74.21875 31.78125 74.21875
Q 42.671875 74.21875 48.875 69.140625
Q 55.078125 64.0625 55.078125 55.328125
Q 55.078125 49.078125 51.53125 44.71875
Q 48 40.375 41.703125 38.8125
Q 48.828125 37.15625 52.796875 32.3125
Q 56.78125 27.484375 56.78125 20.515625
Q 56.78125 9.90625 50.3125 4.234375
Q 43.84375 -1.421875 31.78125 -1.421875
Q 19.734375 -1.421875 13.25 4.234375
Q 6.78125 9.90625 6.78125 20.515625
Q 6.78125 27.484375 10.78125 32.3125
Q 14.796875 37.15625 21.921875 38.8125
z
M 18.3125 54.390625
Q 18.3125 48.734375 21.84375 45.5625
Q 25.390625 42.390625 31.78125 42.390625
Q 38.140625 42.390625 41.71875 45.5625
Q 45.3125 48.734375 45.3125 54.390625
Q 45.3125 60.0625 41.71875 63.234375
Q 38.140625 66.40625 31.78125 66.40625
Q 25.390625 66.40625 21.84375 63.234375
Q 18.3125 60.0625 18.3125 54.390625
z
" id="DejaVuSans-56"/>
       </defs>
       <use xlink:href="#DejaVuSans-56"/>
       <use x="63.623047" xlink:href="#DejaVuSans-48"/>
       <use x="127.246094" xlink:href="#DejaVuSans-48"/>
      </g>
     </g>
    </g>
    <g id="xtick_12">
     <g id="line2d_12">
      <g>
       <use style="stroke:#000000;stroke-width:0.8;" x="293.953737" xlink:href="#m0b890835d4" y="281.726437"/>
      </g>
     </g>
     <g id="text_12">
      <!-- 900 -->
      <g transform="translate(291.090612 291.005969)scale(0.03 -0.03)">
       <defs>
        <path d="M 10.984375 1.515625
L 10.984375 10.5
Q 14.703125 8.734375 18.5 7.8125
Q 22.3125 6.890625 25.984375 6.890625
Q 35.75 6.890625 40.890625 13.453125
Q 46.046875 20.015625 46.78125 33.40625
Q 43.953125 29.203125 39.59375 26.953125
Q 35.25 24.703125 29.984375 24.703125
Q 19.046875 24.703125 12.671875 31.3125
Q 6.296875 37.9375 6.296875 49.421875
Q 6.296875 60.640625 12.9375 67.421875
Q 19.578125 74.21875 30.609375 74.21875
Q 43.265625 74.21875 49.921875 64.515625
Q 56.59375 54.828125 56.59375 36.375
Q 56.59375 19.140625 48.40625 8.859375
Q 40.234375 -1.421875 26.421875 -1.421875
Q 22.703125 -1.421875 18.890625 -0.6875
Q 15.09375 0.046875 10.984375 1.515625
z
M 30.609375 32.421875
Q 37.25 32.421875 41.125 36.953125
Q 45.015625 41.5 45.015625 49.421875
Q 45.015625 57.28125 41.125 61.84375
Q 37.25 66.40625 30.609375 66.40625
Q 23.96875 66.40625 20.09375 61.84375
Q 16.21875 57.28125 16.21875 49.421875
Q 16.21875 41.5 20.09375 36.953125
Q 23.96875 32.421875 30.609375 32.421875
z
" id="DejaVuSans-57"/>
       </defs>
       <use xlink:href="#DejaVuSans-57"/>
       <use x="63.623047" xlink:href="#DejaVuSans-48"/>
       <use x="127.246094" xlink:href="#DejaVuSans-48"/>
      </g>
     </g>
    </g>
    <g id="xtick_13">
     <g id="line2d_13">
      <g>
       <use style="stroke:#000000;stroke-width:0.8;" x="319.712777" xlink:href="#m0b890835d4" y="281.726437"/>
      </g>
     </g>
     <g id="text_13">
      <!-- 1000 -->
      <g transform="translate(315.895277 291.005969)scale(0.03 -0.03)">
       <use xlink:href="#DejaVuSans-49"/>
       <use x="63.623047" xlink:href="#DejaVuSans-48"/>
       <use x="127.246094" xlink:href="#DejaVuSans-48"/>
       <use x="190.869141" xlink:href="#DejaVuSans-48"/>
      </g>
     </g>
    </g>
    <g id="xtick_14">
     <g id="line2d_14">
      <g>
       <use style="stroke:#000000;stroke-width:0.8;" x="345.471817" xlink:href="#m0b890835d4" y="281.726437"/>
      </g>
     </g>
     <g id="text_14">
      <!-- 1100 -->
      <g transform="translate(341.654317 291.005969)scale(0.03 -0.03)">
       <use xlink:href="#DejaVuSans-49"/>
       <use x="63.623047" xlink:href="#DejaVuSans-49"/>
       <use x="127.246094" xlink:href="#DejaVuSans-48"/>
       <use x="190.869141" xlink:href="#DejaVuSans-48"/>
      </g>
     </g>
    </g>
    <g id="text_15">
     <!-- Year -->
     <g transform="translate(180.694297 301.708625)scale(0.08 -0.08)">
      <defs>
       <path d="M -0.203125 72.90625
L 10.40625 72.90625
L 30.609375 42.921875
L 50.6875 72.90625
L 61.28125 72.90625
L 35.5 34.71875
L 35.5 0
L 25.59375 0
L 25.59375 34.71875
z
" id="DejaVuSans-89"/>
       <path d="M 56.203125 29.59375
L 56.203125 25.203125
L 14.890625 25.203125
Q 15.484375 15.921875 20.484375 11.0625
Q 25.484375 6.203125 34.421875 6.203125
Q 39.59375 6.203125 44.453125 7.46875
Q 49.3125 8.734375 54.109375 11.28125
L 54.109375 2.78125
Q 49.265625 0.734375 44.1875 -0.34375
Q 39.109375 -1.421875 33.890625 -1.421875
Q 20.796875 -1.421875 13.15625 6.1875
Q 5.515625 13.8125 5.515625 26.8125
Q 5.515625 40.234375 12.765625 48.109375
Q 20.015625 56 32.328125 56
Q 43.359375 56 49.78125 48.890625
Q 56.203125 41.796875 56.203125 29.59375
z
M 47.21875 32.234375
Q 47.125 39.59375 43.09375 43.984375
Q 39.0625 48.390625 32.421875 48.390625
Q 24.90625 48.390625 20.390625 44.140625
Q 15.875 39.890625 15.1875 32.171875
z
" id="DejaVuSans-101"/>
       <path d="M 34.28125 27.484375
Q 23.390625 27.484375 19.1875 25
Q 14.984375 22.515625 14.984375 16.5
Q 14.984375 11.71875 18.140625 8.90625
Q 21.296875 6.109375 26.703125 6.109375
Q 34.1875 6.109375 38.703125 11.40625
Q 43.21875 16.703125 43.21875 25.484375
L 43.21875 27.484375
z
M 52.203125 31.203125
L 52.203125 0
L 43.21875 0
L 43.21875 8.296875
Q 40.140625 3.328125 35.546875 0.953125
Q 30.953125 -1.421875 24.3125 -1.421875
Q 15.921875 -1.421875 10.953125 3.296875
Q 6 8.015625 6 15.921875
Q 6 25.140625 12.171875 29.828125
Q 18.359375 34.515625 30.609375 34.515625
L 43.21875 34.515625
L 43.21875 35.40625
Q 43.21875 41.609375 39.140625 45
Q 35.0625 48.390625 27.6875 48.390625
Q 23 48.390625 18.546875 47.265625
Q 14.109375 46.140625 10.015625 43.890625
L 10.015625 52.203125
Q 14.9375 54.109375 19.578125 55.046875
Q 24.21875 56 28.609375 56
Q 40.484375 56 46.34375 49.84375
Q 52.203125 43.703125 52.203125 31.203125
z
" id="DejaVuSans-97"/>
       <path d="M 41.109375 46.296875
Q 39.59375 47.171875 37.8125 47.578125
Q 36.03125 48 33.890625 48
Q 26.265625 48 22.1875 43.046875
Q 18.109375 38.09375 18.109375 28.8125
L 18.109375 0
L 9.078125 0
L 9.078125 54.6875
L 18.109375 54.6875
L 18.109375 46.1875
Q 20.953125 51.171875 25.484375 53.578125
Q 30.03125 56 36.53125 56
Q 37.453125 56 38.578125 55.875
Q 39.703125 55.765625 41.0625 55.515625
z
" id="DejaVuSans-114"/>
      </defs>
      <use xlink:href="#DejaVuSans-89"/>
      <use x="47.833984" xlink:href="#DejaVuSans-101"/>
      <use x="109.357422" xlink:href="#DejaVuSans-97"/>
      <use x="170.636719" xlink:href="#DejaVuSans-114"/>
     </g>
    </g>
   </g>
   <g id="matplotlib.axis_2"/>
   <g id="LineCollection_1">
    <path clip-path="url(#p8c939c562f)" d="M 22.564908 85.486837
L 54.051352 85.486837
" style="fill:none;stroke:#238af5;"/>
   </g>
   <g id="LineCollection_2">
    <path clip-path="url(#p8c939c562f)" d="M 54.051352 85.486837
L 75.938735 85.486837
" style="fill:none;stroke:#0cc1e8;"/>
   </g>
   <g id="LineCollection_3">
    <path clip-path="url(#p8c939c562f)" d="M 75.938735 55.588837
L 129.3535 55.588837
" style="fill:none;stroke:#0cc1e8;"/>
   </g>
   <g id="LineCollection_4">
    <path clip-path="url(#p8c939c562f)" d="M 75.938735 115.384837
L 177.759171 115.384837
" style="fill:none;stroke:#0cc1e8;"/>
   </g>
   <g id="LineCollection_5">
    <path clip-path="url(#p8c939c562f)" d="M 177.759171 72.984037
L 190.917606 72.984037
" style="fill:none;stroke:#0cc1e8;"/>
   </g>
   <g id="LineCollection_6">
    <path clip-path="url(#p8c939c562f)" d="M 177.759171 99.076837
L 194.248735 99.076837
" style="fill:none;stroke:#0cc1e8;"/>
   </g>
   <g id="LineCollection_7">
    <path clip-path="url(#p8c939c562f)" d="M 194.248735 90.379237
L 194.248735 90.379237
" style="fill:none;stroke:#0cc1e8;"/>
   </g>
   <g id="LineCollection_8">
    <path clip-path="url(#p8c939c562f)" d="M 194.248735 107.774437
L 194.248735 107.774437
" style="fill:none;stroke:#0cc1e8;"/>
   </g>
   <g id="LineCollection_9">
    <path clip-path="url(#p8c939c562f)" d="M 177.759171 157.785637
L 186.93567 157.785637
" style="fill:none;stroke:#0cc1e8;"/>
   </g>
   <g id="LineCollection_10">
    <path clip-path="url(#p8c939c562f)" d="M 186.93567 125.169637
L 186.93567 125.169637
" style="fill:none;stroke:#0cc1e8;"/>
   </g>
   <g id="LineCollection_11">
    <path clip-path="url(#p8c939c562f)" d="M 186.93567 190.401637
L 190.479109 190.401637
" style="fill:none;stroke:#0cc1e8;"/>
   </g>
   <g id="LineCollection_12">
    <path clip-path="url(#p8c939c562f)" d="M 190.479109 142.564837
L 196.505796 142.564837
" style="fill:none;stroke:#0cc1e8;"/>
   </g>
   <g id="LineCollection_13">
    <path clip-path="url(#p8c939c562f)" d="M 190.479109 173.006437
L 267.931318 173.006437
" style="fill:none;stroke:#0cc1e8;"/>
   </g>
   <g id="LineCollection_14">
    <path clip-path="url(#p8c939c562f)" d="M 267.931318 159.960037
L 273.978769 159.960037
" style="fill:none;stroke:#0cc1e8;"/>
   </g>
   <g id="LineCollection_15">
    <path clip-path="url(#p8c939c562f)" d="M 267.931318 186.052837
L 285.557089 186.052837
" style="fill:none;stroke:#0cc1e8;"/>
   </g>
   <g id="LineCollection_16">
    <path clip-path="url(#p8c939c562f)" d="M 285.557089 177.355237
L 285.557089 177.355237
" style="fill:none;stroke:#0cc1e8;"/>
   </g>
   <g id="LineCollection_17">
    <path clip-path="url(#p8c939c562f)" d="M 285.557089 194.750437
L 351.878303 194.750437
" style="fill:none;stroke:#0cc1e8;"/>
   </g>
   <g id="LineCollection_18">
    <path clip-path="url(#p8c939c562f)" d="M 190.479109 238.238437
L 193.214346 238.238437
" style="fill:none;stroke:#0cc1e8;"/>
   </g>
   <g id="LineCollection_19">
    <path clip-path="url(#p8c939c562f)" d="M 193.214346 212.145637
L 193.214346 212.145637
" style="fill:none;stroke:#0cc1e8;"/>
   </g>
   <g id="LineCollection_20">
    <path clip-path="url(#p8c939c562f)" d="M 193.214346 229.540837
L 193.214346 229.540837
" style="fill:none;stroke:#0cc1e8;"/>
   </g>
   <g id="LineCollection_21">
    <path clip-path="url(#p8c939c562f)" d="M 193.214346 246.936037
L 193.214346 246.936037
" style="fill:none;stroke:#0cc1e8;"/>
   </g>
   <g id="LineCollection_22">
    <path clip-path="url(#p8c939c562f)" d="M 193.214346 264.331237
L 200.448451 264.331237
" style="fill:none;stroke:#0cc1e8;"/>
   </g>
   <g id="LineCollection_23">
    <path clip-path="url(#p8c939c562f)" d="M 54.051352 85.486837
L 54.051352 85.486837
" style="fill:none;stroke:#238af5;"/>
   </g>
   <g id="LineCollection_24">
    <path clip-path="url(#p8c939c562f)" d="M 75.938735 115.384837
L 75.938735 55.588837
" style="fill:none;stroke:#0cc1e8;"/>
   </g>
   <g id="LineCollection_25">
    <path clip-path="url(#p8c939c562f)" d="M 177.759171 157.785637
L 177.759171 72.984037
" style="fill:none;stroke:#0cc1e8;"/>
   </g>
   <g id="LineCollection_26">
    <path clip-path="url(#p8c939c562f)" d="M 194.248735 107.774437
L 194.248735 90.379237
" style="fill:none;stroke:#0cc1e8;"/>
   </g>
   <g id="LineCollection_27">
    <path clip-path="url(#p8c939c562f)" d="M 186.93567 190.401637
L 186.93567 125.169637
" style="fill:none;stroke:#0cc1e8;"/>
   </g>
   <g id="LineCollection_28">
    <path clip-path="url(#p8c939c562f)" d="M 190.479109 238.238437
L 190.479109 142.564837
" style="fill:none;stroke:#0cc1e8;"/>
   </g>
   <g id="LineCollection_29">
    <path clip-path="url(#p8c939c562f)" d="M 267.931318 186.052837
L 267.931318 159.960037
" style="fill:none;stroke:#0cc1e8;"/>
   </g>
   <g id="LineCollection_30">
    <path clip-path="url(#p8c939c562f)" d="M 285.557089 194.750437
L 285.557089 177.355237
" style="fill:none;stroke:#0cc1e8;"/>
   </g>
   <g id="LineCollection_31">
    <path clip-path="url(#p8c939c562f)" d="M 193.214346 264.331237
L 193.214346 212.145637
" style="fill:none;stroke:#0cc1e8;"/>
   </g>
   <g id="line2d_15">
    <path clip-path="url(#p8c939c562f)" d="M 10.604297 281.726437
L 10.604297 20.798437
" style="fill:none;stroke:#a9a9a9;stroke-linecap:square;stroke-opacity:0.2;stroke-width:0.75;"/>
   </g>
   <g id="line2d_16">
    <path clip-path="url(#p8c939c562f)" d="M 36.363337 281.726437
L 36.363337 20.798437
" style="fill:none;stroke:#a9a9a9;stroke-linecap:square;stroke-opacity:0.2;stroke-width:0.75;"/>
   </g>
   <g id="line2d_17">
    <path clip-path="url(#p8c939c562f)" d="M 62.122377 281.726437
L 62.122377 20.798437
" style="fill:none;stroke:#a9a9a9;stroke-linecap:square;stroke-opacity:0.2;stroke-width:0.75;"/>
   </g>
   <g id="line2d_18">
    <path clip-path="url(#p8c939c562f)" d="M 87.881417 281.726437
L 87.881417 20.798437
" style="fill:none;stroke:#a9a9a9;stroke-linecap:square;stroke-opacity:0.2;stroke-width:0.75;"/>
   </g>
   <g id="line2d_19">
    <path clip-path="url(#p8c939c562f)" d="M 113.640457 281.726437
L 113.640457 20.798437
" style="fill:none;stroke:#a9a9a9;stroke-linecap:square;stroke-opacity:0.2;stroke-width:0.75;"/>
   </g>
   <g id="line2d_20">
    <path clip-path="url(#p8c939c562f)" d="M 139.399497 281.726437
L 139.399497 20.798437
" style="fill:none;stroke:#a9a9a9;stroke-linecap:square;stroke-opacity:0.2;stroke-width:0.75;"/>
   </g>
   <g id="line2d_21">
    <path clip-path="url(#p8c939c562f)" d="M 165.158537 281.726437
L 165.158537 20.798437
" style="fill:none;stroke:#a9a9a9;stroke-linecap:square;stroke-opacity:0.2;stroke-width:0.75;"/>
   </g>
   <g id="line2d_22">
    <path clip-path="url(#p8c939c562f)" d="M 190.917577 281.726437
L 190.917577 20.798437
" style="fill:none;stroke:#a9a9a9;stroke-linecap:square;stroke-opacity:0.2;stroke-width:0.75;"/>
   </g>
   <g id="line2d_23">
    <path clip-path="url(#p8c939c562f)" d="M 216.676617 281.726437
L 216.676617 20.798437
" style="fill:none;stroke:#a9a9a9;stroke-linecap:square;stroke-opacity:0.2;stroke-width:0.75;"/>
   </g>
   <g id="line2d_24">
    <path clip-path="url(#p8c939c562f)" d="M 242.435657 281.726437
L 242.435657 20.798437
" style="fill:none;stroke:#a9a9a9;stroke-linecap:square;stroke-opacity:0.2;stroke-width:0.75;"/>
   </g>
   <g id="line2d_25">
    <path clip-path="url(#p8c939c562f)" d="M 268.194697 281.726437
L 268.194697 20.798437
" style="fill:none;stroke:#a9a9a9;stroke-linecap:square;stroke-opacity:0.2;stroke-width:0.75;"/>
   </g>
   <g id="line2d_26">
    <path clip-path="url(#p8c939c562f)" d="M 293.953737 281.726437
L 293.953737 20.798437
" style="fill:none;stroke:#a9a9a9;stroke-linecap:square;stroke-opacity:0.2;stroke-width:0.75;"/>
   </g>
   <g id="line2d_27">
    <path clip-path="url(#p8c939c562f)" d="M 319.712777 281.726437
L 319.712777 20.798437
" style="fill:none;stroke:#a9a9a9;stroke-linecap:square;stroke-opacity:0.2;stroke-width:0.75;"/>
   </g>
   <g id="line2d_28">
    <path clip-path="url(#p8c939c562f)" d="M 345.471817 281.726437
L 345.471817 20.798437
" style="fill:none;stroke:#a9a9a9;stroke-linecap:square;stroke-opacity:0.2;stroke-width:0.75;"/>
   </g>
   <g id="patch_3">
    <path d="M 10.604297 281.726437
L 367.724297 281.726437
" style="fill:none;stroke:#000000;stroke-linecap:square;stroke-linejoin:miter;stroke-width:0.8;"/>
   </g>
   <g id="text_16">
    <!--   -->
    <g transform="translate(54.051352 86.31465)scale(0.03 -0.03)">
     <defs>
      <path id="DejaVuSans-32"/>
     </defs>
     <use xlink:href="#DejaVuSans-32"/>
    </g>
   </g>
   <g id="text_17">
    <!--   -->
    <g transform="translate(75.938735 86.31465)scale(0.03 -0.03)">
     <use xlink:href="#DejaVuSans-32"/>
    </g>
   </g>
   <g id="text_18">
    <!--     Kyrgyzstan (DA101) -->
    <g transform="translate(129.3535 56.41665)scale(0.03 -0.03)">
     <defs>
      <path d="M 9.8125 72.90625
L 19.671875 72.90625
L 19.671875 42.09375
L 52.390625 72.90625
L 65.09375 72.90625
L 28.90625 38.921875
L 67.671875 0
L 54.6875 0
L 19.671875 35.109375
L 19.671875 0
L 9.8125 0
z
" id="DejaVuSans-75"/>
      <path d="M 32.171875 -5.078125
Q 28.375 -14.84375 24.75 -17.8125
Q 21.140625 -20.796875 15.09375 -20.796875
L 7.90625 -20.796875
L 7.90625 -13.28125
L 13.1875 -13.28125
Q 16.890625 -13.28125 18.9375 -11.515625
Q 21 -9.765625 23.484375 -3.21875
L 25.09375 0.875
L 2.984375 54.6875
L 12.5 54.6875
L 29.59375 11.921875
L 46.6875 54.6875
L 56.203125 54.6875
z
" id="DejaVuSans-121"/>
      <path d="M 45.40625 27.984375
Q 45.40625 37.75 41.375 43.109375
Q 37.359375 48.484375 30.078125 48.484375
Q 22.859375 48.484375 18.828125 43.109375
Q 14.796875 37.75 14.796875 27.984375
Q 14.796875 18.265625 18.828125 12.890625
Q 22.859375 7.515625 30.078125 7.515625
Q 37.359375 7.515625 41.375 12.890625
Q 45.40625 18.265625 45.40625 27.984375
z
M 54.390625 6.78125
Q 54.390625 -7.171875 48.1875 -13.984375
Q 42 -20.796875 29.203125 -20.796875
Q 24.46875 -20.796875 20.265625 -20.09375
Q 16.0625 -19.390625 12.109375 -17.921875
L 12.109375 -9.1875
Q 16.0625 -11.328125 19.921875 -12.34375
Q 23.78125 -13.375 27.78125 -13.375
Q 36.625 -13.375 41.015625 -8.765625
Q 45.40625 -4.15625 45.40625 5.171875
L 45.40625 9.625
Q 42.625 4.78125 38.28125 2.390625
Q 33.9375 0 27.875 0
Q 17.828125 0 11.671875 7.65625
Q 5.515625 15.328125 5.515625 27.984375
Q 5.515625 40.671875 11.671875 48.328125
Q 17.828125 56 27.875 56
Q 33.9375 56 38.28125 53.609375
Q 42.625 51.21875 45.40625 46.390625
L 45.40625 54.6875
L 54.390625 54.6875
z
" id="DejaVuSans-103"/>
      <path d="M 5.515625 54.6875
L 48.1875 54.6875
L 48.1875 46.484375
L 14.40625 7.171875
L 48.1875 7.171875
L 48.1875 0
L 4.296875 0
L 4.296875 8.203125
L 38.09375 47.515625
L 5.515625 47.515625
z
" id="DejaVuSans-122"/>
      <path d="M 44.28125 53.078125
L 44.28125 44.578125
Q 40.484375 46.53125 36.375 47.5
Q 32.28125 48.484375 27.875 48.484375
Q 21.1875 48.484375 17.84375 46.4375
Q 14.5 44.390625 14.5 40.28125
Q 14.5 37.15625 16.890625 35.375
Q 19.28125 33.59375 26.515625 31.984375
L 29.59375 31.296875
Q 39.15625 29.25 43.1875 25.515625
Q 47.21875 21.78125 47.21875 15.09375
Q 47.21875 7.46875 41.1875 3.015625
Q 35.15625 -1.421875 24.609375 -1.421875
Q 20.21875 -1.421875 15.453125 -0.5625
Q 10.6875 0.296875 5.421875 2
L 5.421875 11.28125
Q 10.40625 8.6875 15.234375 7.390625
Q 20.0625 6.109375 24.8125 6.109375
Q 31.15625 6.109375 34.5625 8.28125
Q 37.984375 10.453125 37.984375 14.40625
Q 37.984375 18.0625 35.515625 20.015625
Q 33.0625 21.96875 24.703125 23.78125
L 21.578125 24.515625
Q 13.234375 26.265625 9.515625 29.90625
Q 5.8125 33.546875 5.8125 39.890625
Q 5.8125 47.609375 11.28125 51.796875
Q 16.75 56 26.8125 56
Q 31.78125 56 36.171875 55.265625
Q 40.578125 54.546875 44.28125 53.078125
z
" id="DejaVuSans-115"/>
      <path d="M 18.3125 70.21875
L 18.3125 54.6875
L 36.8125 54.6875
L 36.8125 47.703125
L 18.3125 47.703125
L 18.3125 18.015625
Q 18.3125 11.328125 20.140625 9.421875
Q 21.96875 7.515625 27.59375 7.515625
L 36.8125 7.515625
L 36.8125 0
L 27.59375 0
Q 17.1875 0 13.234375 3.875
Q 9.28125 7.765625 9.28125 18.015625
L 9.28125 47.703125
L 2.6875 47.703125
L 2.6875 54.6875
L 9.28125 54.6875
L 9.28125 70.21875
z
" id="DejaVuSans-116"/>
      <path d="M 54.890625 33.015625
L 54.890625 0
L 45.90625 0
L 45.90625 32.71875
Q 45.90625 40.484375 42.875 44.328125
Q 39.84375 48.1875 33.796875 48.1875
Q 26.515625 48.1875 22.3125 43.546875
Q 18.109375 38.921875 18.109375 30.90625
L 18.109375 0
L 9.078125 0
L 9.078125 54.6875
L 18.109375 54.6875
L 18.109375 46.1875
Q 21.34375 51.125 25.703125 53.5625
Q 30.078125 56 35.796875 56
Q 45.21875 56 50.046875 50.171875
Q 54.890625 44.34375 54.890625 33.015625
z
" id="DejaVuSans-110"/>
      <path d="M 31 75.875
Q 24.46875 64.65625 21.28125 53.65625
Q 18.109375 42.671875 18.109375 31.390625
Q 18.109375 20.125 21.3125 9.0625
Q 24.515625 -2 31 -13.1875
L 23.1875 -13.1875
Q 15.875 -1.703125 12.234375 9.375
Q 8.59375 20.453125 8.59375 31.390625
Q 8.59375 42.28125 12.203125 53.3125
Q 15.828125 64.359375 23.1875 75.875
z
" id="DejaVuSans-40"/>
      <path d="M 19.671875 64.796875
L 19.671875 8.109375
L 31.59375 8.109375
Q 46.6875 8.109375 53.6875 14.9375
Q 60.6875 21.78125 60.6875 36.53125
Q 60.6875 51.171875 53.6875 57.984375
Q 46.6875 64.796875 31.59375 64.796875
z
M 9.8125 72.90625
L 30.078125 72.90625
Q 51.265625 72.90625 61.171875 64.09375
Q 71.09375 55.28125 71.09375 36.53125
Q 71.09375 17.671875 61.125 8.828125
Q 51.171875 0 30.078125 0
L 9.8125 0
z
" id="DejaVuSans-68"/>
      <path d="M 34.1875 63.1875
L 20.796875 26.90625
L 47.609375 26.90625
z
M 28.609375 72.90625
L 39.796875 72.90625
L 67.578125 0
L 57.328125 0
L 50.6875 18.703125
L 17.828125 18.703125
L 11.1875 0
L 0.78125 0
z
" id="DejaVuSans-65"/>
      <path d="M 8.015625 75.875
L 15.828125 75.875
Q 23.140625 64.359375 26.78125 53.3125
Q 30.421875 42.28125 30.421875 31.390625
Q 30.421875 20.453125 26.78125 9.375
Q 23.140625 -1.703125 15.828125 -13.1875
L 8.015625 -13.1875
Q 14.5 -2 17.703125 9.0625
Q 20.90625 20.125 20.90625 31.390625
Q 20.90625 42.671875 17.703125 53.65625
Q 14.5 64.65625 8.015625 75.875
z
" id="DejaVuSans-41"/>
     </defs>
     <use xlink:href="#DejaVuSans-32"/>
     <use x="31.787109" xlink:href="#DejaVuSans-32"/>
     <use x="63.574219" xlink:href="#DejaVuSans-32"/>
     <use x="95.361328" xlink:href="#DejaVuSans-32"/>
     <use x="127.148438" xlink:href="#DejaVuSans-75"/>
     <use x="185.474609" xlink:href="#DejaVuSans-121"/>
     <use x="244.654297" xlink:href="#DejaVuSans-114"/>
     <use x="284.017578" xlink:href="#DejaVuSans-103"/>
     <use x="347.494141" xlink:href="#DejaVuSans-121"/>
     <use x="406.673828" xlink:href="#DejaVuSans-122"/>
     <use x="459.164062" xlink:href="#DejaVuSans-115"/>
     <use x="511.263672" xlink:href="#DejaVuSans-116"/>
     <use x="550.472656" xlink:href="#DejaVuSans-97"/>
     <use x="611.751953" xlink:href="#DejaVuSans-110"/>
     <use x="675.130859" xlink:href="#DejaVuSans-32"/>
     <use x="706.917969" xlink:href="#DejaVuSans-40"/>
     <use x="745.931641" xlink:href="#DejaVuSans-68"/>
     <use x="821.183594" xlink:href="#DejaVuSans-65"/>
     <use x="889.591797" xlink:href="#DejaVuSans-49"/>
     <use x="953.214844" xlink:href="#DejaVuSans-48"/>
     <use x="1016.837891" xlink:href="#DejaVuSans-49"/>
     <use x="1080.460938" xlink:href="#DejaVuSans-41"/>
    </g>
   </g>
   <g id="text_19">
    <!--   -->
    <g transform="translate(177.759171 116.21265)scale(0.03 -0.03)">
     <use xlink:href="#DejaVuSans-32"/>
    </g>
   </g>
   <g id="text_20">
    <!--     England (EDI004) -->
    <g transform="translate(190.917606 73.81185)scale(0.03 -0.03)">
     <defs>
      <path d="M 9.8125 72.90625
L 55.90625 72.90625
L 55.90625 64.59375
L 19.671875 64.59375
L 19.671875 43.015625
L 54.390625 43.015625
L 54.390625 34.71875
L 19.671875 34.71875
L 19.671875 8.296875
L 56.78125 8.296875
L 56.78125 0
L 9.8125 0
z
" id="DejaVuSans-69"/>
      <path d="M 9.421875 75.984375
L 18.40625 75.984375
L 18.40625 0
L 9.421875 0
z
" id="DejaVuSans-108"/>
      <path d="M 45.40625 46.390625
L 45.40625 75.984375
L 54.390625 75.984375
L 54.390625 0
L 45.40625 0
L 45.40625 8.203125
Q 42.578125 3.328125 38.25 0.953125
Q 33.9375 -1.421875 27.875 -1.421875
Q 17.96875 -1.421875 11.734375 6.484375
Q 5.515625 14.40625 5.515625 27.296875
Q 5.515625 40.1875 11.734375 48.09375
Q 17.96875 56 27.875 56
Q 33.9375 56 38.25 53.625
Q 42.578125 51.265625 45.40625 46.390625
z
M 14.796875 27.296875
Q 14.796875 17.390625 18.875 11.75
Q 22.953125 6.109375 30.078125 6.109375
Q 37.203125 6.109375 41.296875 11.75
Q 45.40625 17.390625 45.40625 27.296875
Q 45.40625 37.203125 41.296875 42.84375
Q 37.203125 48.484375 30.078125 48.484375
Q 22.953125 48.484375 18.875 42.84375
Q 14.796875 37.203125 14.796875 27.296875
z
" id="DejaVuSans-100"/>
      <path d="M 9.8125 72.90625
L 19.671875 72.90625
L 19.671875 0
L 9.8125 0
z
" id="DejaVuSans-73"/>
     </defs>
     <use xlink:href="#DejaVuSans-32"/>
     <use x="31.787109" xlink:href="#DejaVuSans-32"/>
     <use x="63.574219" xlink:href="#DejaVuSans-32"/>
     <use x="95.361328" xlink:href="#DejaVuSans-32"/>
     <use x="127.148438" xlink:href="#DejaVuSans-69"/>
     <use x="190.332031" xlink:href="#DejaVuSans-110"/>
     <use x="253.710938" xlink:href="#DejaVuSans-103"/>
     <use x="317.1875" xlink:href="#DejaVuSans-108"/>
     <use x="344.970703" xlink:href="#DejaVuSans-97"/>
     <use x="406.25" xlink:href="#DejaVuSans-110"/>
     <use x="469.628906" xlink:href="#DejaVuSans-100"/>
     <use x="533.105469" xlink:href="#DejaVuSans-32"/>
     <use x="564.892578" xlink:href="#DejaVuSans-40"/>
     <use x="603.90625" xlink:href="#DejaVuSans-69"/>
     <use x="667.089844" xlink:href="#DejaVuSans-68"/>
     <use x="744.091797" xlink:href="#DejaVuSans-73"/>
     <use x="773.583984" xlink:href="#DejaVuSans-48"/>
     <use x="837.207031" xlink:href="#DejaVuSans-48"/>
     <use x="900.830078" xlink:href="#DejaVuSans-52"/>
     <use x="964.453125" xlink:href="#DejaVuSans-41"/>
    </g>
   </g>
   <g id="text_21">
    <!--   -->
    <g transform="translate(194.248735 99.90465)scale(0.03 -0.03)">
     <use xlink:href="#DejaVuSans-32"/>
    </g>
   </g>
   <g id="text_22">
    <!--     England (EDI001) -->
    <g transform="translate(194.248735 91.20705)scale(0.03 -0.03)">
     <use xlink:href="#DejaVuSans-32"/>
     <use x="31.787109" xlink:href="#DejaVuSans-32"/>
     <use x="63.574219" xlink:href="#DejaVuSans-32"/>
     <use x="95.361328" xlink:href="#DejaVuSans-32"/>
     <use x="127.148438" xlink:href="#DejaVuSans-69"/>
     <use x="190.332031" xlink:href="#DejaVuSans-110"/>
     <use x="253.710938" xlink:href="#DejaVuSans-103"/>
     <use x="317.1875" xlink:href="#DejaVuSans-108"/>
     <use x="344.970703" xlink:href="#DejaVuSans-97"/>
     <use x="406.25" xlink:href="#DejaVuSans-110"/>
     <use x="469.628906" xlink:href="#DejaVuSans-100"/>
     <use x="533.105469" xlink:href="#DejaVuSans-32"/>
     <use x="564.892578" xlink:href="#DejaVuSans-40"/>
     <use x="603.90625" xlink:href="#DejaVuSans-69"/>
     <use x="667.089844" xlink:href="#DejaVuSans-68"/>
     <use x="744.091797" xlink:href="#DejaVuSans-73"/>
     <use x="773.583984" xlink:href="#DejaVuSans-48"/>
     <use x="837.207031" xlink:href="#DejaVuSans-48"/>
     <use x="900.830078" xlink:href="#DejaVuSans-49"/>
     <use x="964.453125" xlink:href="#DejaVuSans-41"/>
    </g>
   </g>
   <g id="text_23">
    <!--     England (EDI003) -->
    <g transform="translate(194.248735 108.60225)scale(0.03 -0.03)">
     <use xlink:href="#DejaVuSans-32"/>
     <use x="31.787109" xlink:href="#DejaVuSans-32"/>
     <use x="63.574219" xlink:href="#DejaVuSans-32"/>
     <use x="95.361328" xlink:href="#DejaVuSans-32"/>
     <use x="127.148438" xlink:href="#DejaVuSans-69"/>
     <use x="190.332031" xlink:href="#DejaVuSans-110"/>
     <use x="253.710938" xlink:href="#DejaVuSans-103"/>
     <use x="317.1875" xlink:href="#DejaVuSans-108"/>
     <use x="344.970703" xlink:href="#DejaVuSans-97"/>
     <use x="406.25" xlink:href="#DejaVuSans-110"/>
     <use x="469.628906" xlink:href="#DejaVuSans-100"/>
     <use x="533.105469" xlink:href="#DejaVuSans-32"/>
     <use x="564.892578" xlink:href="#DejaVuSans-40"/>
     <use x="603.90625" xlink:href="#DejaVuSans-69"/>
     <use x="667.089844" xlink:href="#DejaVuSans-68"/>
     <use x="744.091797" xlink:href="#DejaVuSans-73"/>
     <use x="773.583984" xlink:href="#DejaVuSans-48"/>
     <use x="837.207031" xlink:href="#DejaVuSans-48"/>
     <use x="900.830078" xlink:href="#DejaVuSans-51"/>
     <use x="964.453125" xlink:href="#DejaVuSans-41"/>
    </g>
   </g>
   <g id="text_24">
    <!--   -->
    <g transform="translate(186.93567 158.61345)scale(0.03 -0.03)">
     <use xlink:href="#DejaVuSans-32"/>
    </g>
   </g>
   <g id="text_25">
    <!--     Spain (VAL001) -->
    <g transform="translate(186.93567 125.99745)scale(0.03 -0.03)">
     <defs>
      <path d="M 53.515625 70.515625
L 53.515625 60.890625
Q 47.90625 63.578125 42.921875 64.890625
Q 37.9375 66.21875 33.296875 66.21875
Q 25.25 66.21875 20.875 63.09375
Q 16.5 59.96875 16.5 54.203125
Q 16.5 49.359375 19.40625 46.890625
Q 22.3125 44.4375 30.421875 42.921875
L 36.375 41.703125
Q 47.40625 39.59375 52.65625 34.296875
Q 57.90625 29 57.90625 20.125
Q 57.90625 9.515625 50.796875 4.046875
Q 43.703125 -1.421875 29.984375 -1.421875
Q 24.8125 -1.421875 18.96875 -0.25
Q 13.140625 0.921875 6.890625 3.21875
L 6.890625 13.375
Q 12.890625 10.015625 18.65625 8.296875
Q 24.421875 6.59375 29.984375 6.59375
Q 38.421875 6.59375 43.015625 9.90625
Q 47.609375 13.234375 47.609375 19.390625
Q 47.609375 24.75 44.3125 27.78125
Q 41.015625 30.8125 33.5 32.328125
L 27.484375 33.5
Q 16.453125 35.6875 11.515625 40.375
Q 6.59375 45.0625 6.59375 53.421875
Q 6.59375 63.09375 13.40625 68.65625
Q 20.21875 74.21875 32.171875 74.21875
Q 37.3125 74.21875 42.625 73.28125
Q 47.953125 72.359375 53.515625 70.515625
z
" id="DejaVuSans-83"/>
      <path d="M 18.109375 8.203125
L 18.109375 -20.796875
L 9.078125 -20.796875
L 9.078125 54.6875
L 18.109375 54.6875
L 18.109375 46.390625
Q 20.953125 51.265625 25.265625 53.625
Q 29.59375 56 35.59375 56
Q 45.5625 56 51.78125 48.09375
Q 58.015625 40.1875 58.015625 27.296875
Q 58.015625 14.40625 51.78125 6.484375
Q 45.5625 -1.421875 35.59375 -1.421875
Q 29.59375 -1.421875 25.265625 0.953125
Q 20.953125 3.328125 18.109375 8.203125
z
M 48.6875 27.296875
Q 48.6875 37.203125 44.609375 42.84375
Q 40.53125 48.484375 33.40625 48.484375
Q 26.265625 48.484375 22.1875 42.84375
Q 18.109375 37.203125 18.109375 27.296875
Q 18.109375 17.390625 22.1875 11.75
Q 26.265625 6.109375 33.40625 6.109375
Q 40.53125 6.109375 44.609375 11.75
Q 48.6875 17.390625 48.6875 27.296875
z
" id="DejaVuSans-112"/>
      <path d="M 9.421875 54.6875
L 18.40625 54.6875
L 18.40625 0
L 9.421875 0
z
M 9.421875 75.984375
L 18.40625 75.984375
L 18.40625 64.59375
L 9.421875 64.59375
z
" id="DejaVuSans-105"/>
      <path d="M 28.609375 0
L 0.78125 72.90625
L 11.078125 72.90625
L 34.1875 11.53125
L 57.328125 72.90625
L 67.578125 72.90625
L 39.796875 0
z
" id="DejaVuSans-86"/>
      <path d="M 9.8125 72.90625
L 19.671875 72.90625
L 19.671875 8.296875
L 55.171875 8.296875
L 55.171875 0
L 9.8125 0
z
" id="DejaVuSans-76"/>
     </defs>
     <use xlink:href="#DejaVuSans-32"/>
     <use x="31.787109" xlink:href="#DejaVuSans-32"/>
     <use x="63.574219" xlink:href="#DejaVuSans-32"/>
     <use x="95.361328" xlink:href="#DejaVuSans-32"/>
     <use x="127.148438" xlink:href="#DejaVuSans-83"/>
     <use x="190.625" xlink:href="#DejaVuSans-112"/>
     <use x="254.101562" xlink:href="#DejaVuSans-97"/>
     <use x="315.380859" xlink:href="#DejaVuSans-105"/>
     <use x="343.164062" xlink:href="#DejaVuSans-110"/>
     <use x="406.542969" xlink:href="#DejaVuSans-32"/>
     <use x="438.330078" xlink:href="#DejaVuSans-40"/>
     <use x="477.34375" xlink:href="#DejaVuSans-86"/>
     <use x="539.376953" xlink:href="#DejaVuSans-65"/>
     <use x="607.785156" xlink:href="#DejaVuSans-76"/>
     <use x="663.498047" xlink:href="#DejaVuSans-48"/>
     <use x="727.121094" xlink:href="#DejaVuSans-48"/>
     <use x="790.744141" xlink:href="#DejaVuSans-49"/>
     <use x="854.367188" xlink:href="#DejaVuSans-41"/>
    </g>
   </g>
   <g id="text_26">
    <!--   -->
    <g transform="translate(190.479109 191.22945)scale(0.03 -0.03)">
     <use xlink:href="#DejaVuSans-32"/>
    </g>
   </g>
   <g id="text_27">
    <!--     Germany (PET004) -->
    <g transform="translate(196.505796 143.39265)scale(0.03 -0.03)">
     <defs>
      <path d="M 59.515625 10.40625
L 59.515625 29.984375
L 43.40625 29.984375
L 43.40625 38.09375
L 69.28125 38.09375
L 69.28125 6.78125
Q 63.578125 2.734375 56.6875 0.65625
Q 49.8125 -1.421875 42 -1.421875
Q 24.90625 -1.421875 15.25 8.5625
Q 5.609375 18.5625 5.609375 36.375
Q 5.609375 54.25 15.25 64.234375
Q 24.90625 74.21875 42 74.21875
Q 49.125 74.21875 55.546875 72.453125
Q 61.96875 70.703125 67.390625 67.28125
L 67.390625 56.78125
Q 61.921875 61.421875 55.765625 63.765625
Q 49.609375 66.109375 42.828125 66.109375
Q 29.4375 66.109375 22.71875 58.640625
Q 16.015625 51.171875 16.015625 36.375
Q 16.015625 21.625 22.71875 14.15625
Q 29.4375 6.6875 42.828125 6.6875
Q 48.046875 6.6875 52.140625 7.59375
Q 56.25 8.5 59.515625 10.40625
z
" id="DejaVuSans-71"/>
      <path d="M 52 44.1875
Q 55.375 50.25 60.0625 53.125
Q 64.75 56 71.09375 56
Q 79.640625 56 84.28125 50.015625
Q 88.921875 44.046875 88.921875 33.015625
L 88.921875 0
L 79.890625 0
L 79.890625 32.71875
Q 79.890625 40.578125 77.09375 44.375
Q 74.3125 48.1875 68.609375 48.1875
Q 61.625 48.1875 57.5625 43.546875
Q 53.515625 38.921875 53.515625 30.90625
L 53.515625 0
L 44.484375 0
L 44.484375 32.71875
Q 44.484375 40.625 41.703125 44.40625
Q 38.921875 48.1875 33.109375 48.1875
Q 26.21875 48.1875 22.15625 43.53125
Q 18.109375 38.875 18.109375 30.90625
L 18.109375 0
L 9.078125 0
L 9.078125 54.6875
L 18.109375 54.6875
L 18.109375 46.1875
Q 21.1875 51.21875 25.484375 53.609375
Q 29.78125 56 35.6875 56
Q 41.65625 56 45.828125 52.96875
Q 50 49.953125 52 44.1875
z
" id="DejaVuSans-109"/>
      <path d="M 19.671875 64.796875
L 19.671875 37.40625
L 32.078125 37.40625
Q 38.96875 37.40625 42.71875 40.96875
Q 46.484375 44.53125 46.484375 51.125
Q 46.484375 57.671875 42.71875 61.234375
Q 38.96875 64.796875 32.078125 64.796875
z
M 9.8125 72.90625
L 32.078125 72.90625
Q 44.34375 72.90625 50.609375 67.359375
Q 56.890625 61.8125 56.890625 51.125
Q 56.890625 40.328125 50.609375 34.8125
Q 44.34375 29.296875 32.078125 29.296875
L 19.671875 29.296875
L 19.671875 0
L 9.8125 0
z
" id="DejaVuSans-80"/>
      <path d="M -0.296875 72.90625
L 61.375 72.90625
L 61.375 64.59375
L 35.5 64.59375
L 35.5 0
L 25.59375 0
L 25.59375 64.59375
L -0.296875 64.59375
z
" id="DejaVuSans-84"/>
     </defs>
     <use xlink:href="#DejaVuSans-32"/>
     <use x="31.787109" xlink:href="#DejaVuSans-32"/>
     <use x="63.574219" xlink:href="#DejaVuSans-32"/>
     <use x="95.361328" xlink:href="#DejaVuSans-32"/>
     <use x="127.148438" xlink:href="#DejaVuSans-71"/>
     <use x="204.638672" xlink:href="#DejaVuSans-101"/>
     <use x="266.162109" xlink:href="#DejaVuSans-114"/>
     <use x="305.525391" xlink:href="#DejaVuSans-109"/>
     <use x="402.9375" xlink:href="#DejaVuSans-97"/>
     <use x="464.216797" xlink:href="#DejaVuSans-110"/>
     <use x="527.595703" xlink:href="#DejaVuSans-121"/>
     <use x="586.775391" xlink:href="#DejaVuSans-32"/>
     <use x="618.5625" xlink:href="#DejaVuSans-40"/>
     <use x="657.576172" xlink:href="#DejaVuSans-80"/>
     <use x="717.878906" xlink:href="#DejaVuSans-69"/>
     <use x="781.0625" xlink:href="#DejaVuSans-84"/>
     <use x="842.146484" xlink:href="#DejaVuSans-48"/>
     <use x="905.769531" xlink:href="#DejaVuSans-48"/>
     <use x="969.392578" xlink:href="#DejaVuSans-52"/>
     <use x="1033.015625" xlink:href="#DejaVuSans-41"/>
    </g>
   </g>
   <g id="text_28">
    <!--   -->
    <g transform="translate(267.931318 173.83425)scale(0.03 -0.03)">
     <use xlink:href="#DejaVuSans-32"/>
    </g>
   </g>
   <g id="text_29">
    <!--     France (LSD001) -->
    <g transform="translate(273.978769 160.78785)scale(0.03 -0.03)">
     <defs>
      <path d="M 9.8125 72.90625
L 51.703125 72.90625
L 51.703125 64.59375
L 19.671875 64.59375
L 19.671875 43.109375
L 48.578125 43.109375
L 48.578125 34.8125
L 19.671875 34.8125
L 19.671875 0
L 9.8125 0
z
" id="DejaVuSans-70"/>
      <path d="M 48.78125 52.59375
L 48.78125 44.1875
Q 44.96875 46.296875 41.140625 47.34375
Q 37.3125 48.390625 33.40625 48.390625
Q 24.65625 48.390625 19.8125 42.84375
Q 14.984375 37.3125 14.984375 27.296875
Q 14.984375 17.28125 19.8125 11.734375
Q 24.65625 6.203125 33.40625 6.203125
Q 37.3125 6.203125 41.140625 7.25
Q 44.96875 8.296875 48.78125 10.40625
L 48.78125 2.09375
Q 45.015625 0.34375 40.984375 -0.53125
Q 36.96875 -1.421875 32.421875 -1.421875
Q 20.0625 -1.421875 12.78125 6.34375
Q 5.515625 14.109375 5.515625 27.296875
Q 5.515625 40.671875 12.859375 48.328125
Q 20.21875 56 33.015625 56
Q 37.15625 56 41.109375 55.140625
Q 45.0625 54.296875 48.78125 52.59375
z
" id="DejaVuSans-99"/>
     </defs>
     <use xlink:href="#DejaVuSans-32"/>
     <use x="31.787109" xlink:href="#DejaVuSans-32"/>
     <use x="63.574219" xlink:href="#DejaVuSans-32"/>
     <use x="95.361328" xlink:href="#DejaVuSans-32"/>
     <use x="127.148438" xlink:href="#DejaVuSans-70"/>
     <use x="177.417969" xlink:href="#DejaVuSans-114"/>
     <use x="218.53125" xlink:href="#DejaVuSans-97"/>
     <use x="279.810547" xlink:href="#DejaVuSans-110"/>
     <use x="343.189453" xlink:href="#DejaVuSans-99"/>
     <use x="398.169922" xlink:href="#DejaVuSans-101"/>
     <use x="459.693359" xlink:href="#DejaVuSans-32"/>
     <use x="491.480469" xlink:href="#DejaVuSans-40"/>
     <use x="530.494141" xlink:href="#DejaVuSans-76"/>
     <use x="586.207031" xlink:href="#DejaVuSans-83"/>
     <use x="649.683594" xlink:href="#DejaVuSans-68"/>
     <use x="726.685547" xlink:href="#DejaVuSans-48"/>
     <use x="790.308594" xlink:href="#DejaVuSans-48"/>
     <use x="853.931641" xlink:href="#DejaVuSans-49"/>
     <use x="917.554688" xlink:href="#DejaVuSans-41"/>
    </g>
   </g>
   <g id="text_30">
    <!--   -->
    <g transform="translate(285.557089 186.88065)scale(0.03 -0.03)">
     <use xlink:href="#DejaVuSans-32"/>
    </g>
   </g>
   <g id="text_31">
    <!--     France (LSD020) -->
    <g transform="translate(285.557089 178.18305)scale(0.03 -0.03)">
     <use xlink:href="#DejaVuSans-32"/>
     <use x="31.787109" xlink:href="#DejaVuSans-32"/>
     <use x="63.574219" xlink:href="#DejaVuSans-32"/>
     <use x="95.361328" xlink:href="#DejaVuSans-32"/>
     <use x="127.148438" xlink:href="#DejaVuSans-70"/>
     <use x="177.417969" xlink:href="#DejaVuSans-114"/>
     <use x="218.53125" xlink:href="#DejaVuSans-97"/>
     <use x="279.810547" xlink:href="#DejaVuSans-110"/>
     <use x="343.189453" xlink:href="#DejaVuSans-99"/>
     <use x="398.169922" xlink:href="#DejaVuSans-101"/>
     <use x="459.693359" xlink:href="#DejaVuSans-32"/>
     <use x="491.480469" xlink:href="#DejaVuSans-40"/>
     <use x="530.494141" xlink:href="#DejaVuSans-76"/>
     <use x="586.207031" xlink:href="#DejaVuSans-83"/>
     <use x="649.683594" xlink:href="#DejaVuSans-68"/>
     <use x="726.685547" xlink:href="#DejaVuSans-48"/>
     <use x="790.308594" xlink:href="#DejaVuSans-50"/>
     <use x="853.931641" xlink:href="#DejaVuSans-48"/>
     <use x="917.554688" xlink:href="#DejaVuSans-41"/>
    </g>
   </g>
   <g id="text_32">
    <!--   -->
    <g transform="translate(351.878303 195.57825)scale(0.03 -0.03)">
     <use xlink:href="#DejaVuSans-32"/>
    </g>
   </g>
   <g id="text_33">
    <!--   -->
    <g transform="translate(193.214346 239.06625)scale(0.03 -0.03)">
     <use xlink:href="#DejaVuSans-32"/>
    </g>
   </g>
   <g id="text_34">
    <!--     Germany (AE1175) -->
    <g transform="translate(193.214346 212.97345)scale(0.03 -0.03)">
     <use xlink:href="#DejaVuSans-32"/>
     <use x="31.787109" xlink:href="#DejaVuSans-32"/>
     <use x="63.574219" xlink:href="#DejaVuSans-32"/>
     <use x="95.361328" xlink:href="#DejaVuSans-32"/>
     <use x="127.148438" xlink:href="#DejaVuSans-71"/>
     <use x="204.638672" xlink:href="#DejaVuSans-101"/>
     <use x="266.162109" xlink:href="#DejaVuSans-114"/>
     <use x="305.525391" xlink:href="#DejaVuSans-109"/>
     <use x="402.9375" xlink:href="#DejaVuSans-97"/>
     <use x="464.216797" xlink:href="#DejaVuSans-110"/>
     <use x="527.595703" xlink:href="#DejaVuSans-121"/>
     <use x="586.775391" xlink:href="#DejaVuSans-32"/>
     <use x="618.5625" xlink:href="#DejaVuSans-40"/>
     <use x="657.576172" xlink:href="#DejaVuSans-65"/>
     <use x="725.984375" xlink:href="#DejaVuSans-69"/>
     <use x="789.167969" xlink:href="#DejaVuSans-49"/>
     <use x="852.791016" xlink:href="#DejaVuSans-49"/>
     <use x="916.414062" xlink:href="#DejaVuSans-55"/>
     <use x="980.037109" xlink:href="#DejaVuSans-53"/>
     <use x="1043.660156" xlink:href="#DejaVuSans-41"/>
    </g>
   </g>
   <g id="text_35">
    <!--     Germany (UNT003) -->
    <g transform="translate(193.214346 230.36865)scale(0.03 -0.03)">
     <defs>
      <path d="M 8.6875 72.90625
L 18.609375 72.90625
L 18.609375 28.609375
Q 18.609375 16.890625 22.84375 11.734375
Q 27.09375 6.59375 36.625 6.59375
Q 46.09375 6.59375 50.34375 11.734375
Q 54.59375 16.890625 54.59375 28.609375
L 54.59375 72.90625
L 64.5 72.90625
L 64.5 27.390625
Q 64.5 13.140625 57.4375 5.859375
Q 50.390625 -1.421875 36.625 -1.421875
Q 22.796875 -1.421875 15.734375 5.859375
Q 8.6875 13.140625 8.6875 27.390625
z
" id="DejaVuSans-85"/>
      <path d="M 9.8125 72.90625
L 23.09375 72.90625
L 55.421875 11.921875
L 55.421875 72.90625
L 64.984375 72.90625
L 64.984375 0
L 51.703125 0
L 19.390625 60.984375
L 19.390625 0
L 9.8125 0
z
" id="DejaVuSans-78"/>
     </defs>
     <use xlink:href="#DejaVuSans-32"/>
     <use x="31.787109" xlink:href="#DejaVuSans-32"/>
     <use x="63.574219" xlink:href="#DejaVuSans-32"/>
     <use x="95.361328" xlink:href="#DejaVuSans-32"/>
     <use x="127.148438" xlink:href="#DejaVuSans-71"/>
     <use x="204.638672" xlink:href="#DejaVuSans-101"/>
     <use x="266.162109" xlink:href="#DejaVuSans-114"/>
     <use x="305.525391" xlink:href="#DejaVuSans-109"/>
     <use x="402.9375" xlink:href="#DejaVuSans-97"/>
     <use x="464.216797" xlink:href="#DejaVuSans-110"/>
     <use x="527.595703" xlink:href="#DejaVuSans-121"/>
     <use x="586.775391" xlink:href="#DejaVuSans-32"/>
     <use x="618.5625" xlink:href="#DejaVuSans-40"/>
     <use x="657.576172" xlink:href="#DejaVuSans-85"/>
     <use x="730.769531" xlink:href="#DejaVuSans-78"/>
     <use x="805.574219" xlink:href="#DejaVuSans-84"/>
     <use x="866.658203" xlink:href="#DejaVuSans-48"/>
     <use x="930.28125" xlink:href="#DejaVuSans-48"/>
     <use x="993.904297" xlink:href="#DejaVuSans-51"/>
     <use x="1057.527344" xlink:href="#DejaVuSans-41"/>
    </g>
   </g>
   <g id="text_36">
    <!--     Germany (DIT003) -->
    <g transform="translate(193.214346 247.76385)scale(0.03 -0.03)">
     <use xlink:href="#DejaVuSans-32"/>
     <use x="31.787109" xlink:href="#DejaVuSans-32"/>
     <use x="63.574219" xlink:href="#DejaVuSans-32"/>
     <use x="95.361328" xlink:href="#DejaVuSans-32"/>
     <use x="127.148438" xlink:href="#DejaVuSans-71"/>
     <use x="204.638672" xlink:href="#DejaVuSans-101"/>
     <use x="266.162109" xlink:href="#DejaVuSans-114"/>
     <use x="305.525391" xlink:href="#DejaVuSans-109"/>
     <use x="402.9375" xlink:href="#DejaVuSans-97"/>
     <use x="464.216797" xlink:href="#DejaVuSans-110"/>
     <use x="527.595703" xlink:href="#DejaVuSans-121"/>
     <use x="586.775391" xlink:href="#DejaVuSans-32"/>
     <use x="618.5625" xlink:href="#DejaVuSans-40"/>
     <use x="657.576172" xlink:href="#DejaVuSans-68"/>
     <use x="734.578125" xlink:href="#DejaVuSans-73"/>
     <use x="764.070312" xlink:href="#DejaVuSans-84"/>
     <use x="825.154297" xlink:href="#DejaVuSans-48"/>
     <use x="888.777344" xlink:href="#DejaVuSans-48"/>
     <use x="952.400391" xlink:href="#DejaVuSans-51"/>
     <use x="1016.023438" xlink:href="#DejaVuSans-41"/>
    </g>
   </g>
   <g id="text_37">
    <!--     Germany (UNT004) -->
    <g transform="translate(200.448451 265.15905)scale(0.03 -0.03)">
     <use xlink:href="#DejaVuSans-32"/>
     <use x="31.787109" xlink:href="#DejaVuSans-32"/>
     <use x="63.574219" xlink:href="#DejaVuSans-32"/>
     <use x="95.361328" xlink:href="#DejaVuSans-32"/>
     <use x="127.148438" xlink:href="#DejaVuSans-71"/>
     <use x="204.638672" xlink:href="#DejaVuSans-101"/>
     <use x="266.162109" xlink:href="#DejaVuSans-114"/>
     <use x="305.525391" xlink:href="#DejaVuSans-109"/>
     <use x="402.9375" xlink:href="#DejaVuSans-97"/>
     <use x="464.216797" xlink:href="#DejaVuSans-110"/>
     <use x="527.595703" xlink:href="#DejaVuSans-121"/>
     <use x="586.775391" xlink:href="#DejaVuSans-32"/>
     <use x="618.5625" xlink:href="#DejaVuSans-40"/>
     <use x="657.576172" xlink:href="#DejaVuSans-85"/>
     <use x="730.769531" xlink:href="#DejaVuSans-78"/>
     <use x="805.574219" xlink:href="#DejaVuSans-84"/>
     <use x="866.658203" xlink:href="#DejaVuSans-48"/>
     <use x="930.28125" xlink:href="#DejaVuSans-48"/>
     <use x="993.904297" xlink:href="#DejaVuSans-52"/>
     <use x="1057.527344" xlink:href="#DejaVuSans-41"/>
    </g>
   </g>
   <g id="text_38">
    <!-- First Pandemic -->
    <g transform="translate(152.770547 14.798437)scale(0.1 -0.1)">
     <use xlink:href="#DejaVuSans-70"/>
     <use x="50.269531" xlink:href="#DejaVuSans-105"/>
     <use x="78.052734" xlink:href="#DejaVuSans-114"/>
     <use x="119.166016" xlink:href="#DejaVuSans-115"/>
     <use x="171.265625" xlink:href="#DejaVuSans-116"/>
     <use x="210.474609" xlink:href="#DejaVuSans-32"/>
     <use x="242.261719" xlink:href="#DejaVuSans-80"/>
     <use x="298.064453" xlink:href="#DejaVuSans-97"/>
     <use x="359.34375" xlink:href="#DejaVuSans-110"/>
     <use x="422.722656" xlink:href="#DejaVuSans-100"/>
     <use x="486.199219" xlink:href="#DejaVuSans-101"/>
     <use x="547.722656" xlink:href="#DejaVuSans-109"/>
     <use x="645.134766" xlink:href="#DejaVuSans-105"/>
     <use x="672.917969" xlink:href="#DejaVuSans-99"/>
    </g>
   </g>
  </g>
 </g>
 <defs>
  <clipPath id="p8c939c562f">
   <rect height="260.928" width="357.12" x="10.604297" y="20.798437"/>
  </clipPath>
 </defs>
</svg>
