<?xml version="1.0" encoding="utf-8" standalone="no"?>
<!DOCTYPE svg PUBLIC "-//W3C//DTD SVG 1.1//EN"
  "http://www.w3.org/Graphics/SVG/1.1/DTD/svg11.dtd">
<!-- Created with matplotlib (https://matplotlib.org/) -->
<svg height="312.508pt" version="1.1" viewBox="0 0 390.794324 312.508" width="390.794324pt" xmlns="http://www.w3.org/2000/svg" xmlns:xlink="http://www.w3.org/1999/xlink">
 <metadata>
  <rdf:RDF xmlns:cc="http://creativecommons.org/ns#" xmlns:dc="http://purl.org/dc/elements/1.1/" xmlns:rdf="http://www.w3.org/1999/02/22-rdf-syntax-ns#">
   <cc:Work>
    <dc:type rdf:resource="http://purl.org/dc/dcmitype/StillImage"/>
    <dc:date>2021-01-22T18:27:30.856126</dc:date>
    <dc:format>image/svg+xml</dc:format>
    <dc:creator>
     <cc:Agent>
      <dc:title>Matplotlib v3.3.2, https://matplotlib.org/</dc:title>
     </cc:Agent>
    </dc:creator>
   </cc:Work>
  </rdf:RDF>
 </metadata>
 <defs>
  <style type="text/css">*{stroke-linecap:butt;stroke-linejoin:round;}</style>
 </defs>
 <g id="figure_1">
  <g id="patch_1">
   <path d="M 0 312.508
L 390.794324 312.508
L 390.794324 0
L 0 0
z
" style="fill:none;"/>
  </g>
  <g id="axes_1">
   <g id="patch_2">
    <path d="M 11.971875 281.726437
L 369.091875 281.726437
L 369.091875 20.798437
L 11.971875 20.798437
z
" style="fill:#ffffff;"/>
   </g>
   <g id="PathCollection_1">
    <defs>
     <path d="M 0 0.707107
C 0.187527 0.707107 0.367398 0.632602 0.5 0.5
C 0.632602 0.367398 0.707107 0.187527 0.707107 0
C 0.707107 -0.187527 0.632602 -0.367398 0.5 -0.5
C 0.367398 -0.632602 0.187527 -0.707107 0 -0.707107
C -0.187527 -0.707107 -0.367398 -0.632602 -0.5 -0.5
C -0.632602 -0.367398 -0.707107 -0.187527 -0.707107 0
C -0.707107 0.187527 -0.632602 0.367398 -0.5 0.5
C -0.367398 0.632602 -0.187527 0.707107 0 0.707107
z
" id="m89321d1880" style="stroke:#97fca7;"/>
    </defs>
    <g clip-path="url(#p63c28c5d7d)">
     <use style="fill:#97fca7;stroke:#97fca7;" x="159.575137" xlink:href="#m89321d1880" y="36.612256"/>
     <use style="fill:#97fca7;stroke:#97fca7;" x="163.165485" xlink:href="#m89321d1880" y="44.519165"/>
     <use style="fill:#97fca7;stroke:#97fca7;" x="190.691491" xlink:href="#m89321d1880" y="52.426074"/>
     <use style="fill:#97fca7;stroke:#97fca7;" x="171.542965" xlink:href="#m89321d1880" y="60.332983"/>
     <use style="fill:#97fca7;stroke:#97fca7;" x="168.351544" xlink:href="#m89321d1880" y="68.239892"/>
     <use style="fill:#97fca7;stroke:#97fca7;" x="164.761196" xlink:href="#m89321d1880" y="76.146801"/>
     <use style="fill:#97fca7;stroke:#97fca7;" x="219.414279" xlink:href="#m89321d1880" y="84.05371"/>
     <use style="fill:#97fca7;stroke:#97fca7;" x="241.355297" xlink:href="#m89321d1880" y="91.960619"/>
     <use style="fill:#97fca7;stroke:#97fca7;" x="245.344574" xlink:href="#m89321d1880" y="99.867528"/>
     <use style="fill:#97fca7;stroke:#97fca7;" x="283.090297" xlink:href="#m89321d1880" y="107.774437"/>
     <use style="fill:#97fca7;stroke:#97fca7;" x="286.82563" xlink:href="#m89321d1880" y="115.681347"/>
     <use style="fill:#97fca7;stroke:#97fca7;" x="286.82563" xlink:href="#m89321d1880" y="123.588256"/>
     <use style="fill:#97fca7;stroke:#97fca7;" x="286.82563" xlink:href="#m89321d1880" y="131.495165"/>
     <use style="fill:#97fca7;stroke:#97fca7;" x="339.092563" xlink:href="#m89321d1880" y="139.402074"/>
     <use style="fill:#97fca7;stroke:#97fca7;" x="339.890418" xlink:href="#m89321d1880" y="147.308983"/>
     <use style="fill:#97fca7;stroke:#97fca7;" x="339.092563" xlink:href="#m89321d1880" y="155.215892"/>
     <use style="fill:#97fca7;stroke:#97fca7;" x="339.890418" xlink:href="#m89321d1880" y="163.122801"/>
     <use style="fill:#97fca7;stroke:#97fca7;" x="339.890418" xlink:href="#m89321d1880" y="171.02971"/>
     <use style="fill:#97fca7;stroke:#97fca7;" x="269.781102" xlink:href="#m89321d1880" y="178.936619"/>
     <use style="fill:#97fca7;stroke:#97fca7;" x="298.401946" xlink:href="#m89321d1880" y="186.843528"/>
     <use style="fill:#97fca7;stroke:#97fca7;" x="305.061002" xlink:href="#m89321d1880" y="194.750437"/>
     <use style="fill:#97fca7;stroke:#97fca7;" x="297.230038" xlink:href="#m89321d1880" y="202.657347"/>
     <use style="fill:#97fca7;stroke:#97fca7;" x="297.230038" xlink:href="#m89321d1880" y="210.564256"/>
     <use style="fill:#97fca7;stroke:#97fca7;" x="297.230038" xlink:href="#m89321d1880" y="218.471165"/>
     <use style="fill:#97fca7;stroke:#97fca7;" x="301.788338" xlink:href="#m89321d1880" y="226.378074"/>
     <use style="fill:#97fca7;stroke:#97fca7;" x="301.788338" xlink:href="#m89321d1880" y="234.284983"/>
     <use style="fill:#97fca7;stroke:#97fca7;" x="301.788338" xlink:href="#m89321d1880" y="242.191892"/>
     <use style="fill:#97fca7;stroke:#97fca7;" x="301.788338" xlink:href="#m89321d1880" y="250.098801"/>
     <use style="fill:#97fca7;stroke:#97fca7;" x="171.542965" xlink:href="#m89321d1880" y="258.00571"/>
     <use style="fill:#97fca7;stroke:#97fca7;" x="196.276477" xlink:href="#m89321d1880" y="265.912619"/>
     <use style="fill:#97fca7;stroke:#97fca7;" x="171.542965" xlink:href="#m89321d1880" y="273.819528"/>
    </g>
   </g>
   <g id="matplotlib.axis_1">
    <g id="xtick_1">
     <g id="line2d_1">
      <defs>
       <path d="M 0 0
L 0 3.5
" id="m73763c5ac3" style="stroke:#000000;stroke-width:0.8;"/>
      </defs>
      <g>
       <use style="stroke:#000000;stroke-width:0.8;" x="11.971875" xlink:href="#m73763c5ac3" y="281.726437"/>
      </g>
     </g>
     <g id="text_1">
      <!-- 900 -->
      <g transform="translate(7.2 292.525656)scale(0.05 -0.05)">
       <defs>
        <path d="M 10.984375 1.515625
L 10.984375 10.5
Q 14.703125 8.734375 18.5 7.8125
Q 22.3125 6.890625 25.984375 6.890625
Q 35.75 6.890625 40.890625 13.453125
Q 46.046875 20.015625 46.78125 33.40625
Q 43.953125 29.203125 39.59375 26.953125
Q 35.25 24.703125 29.984375 24.703125
Q 19.046875 24.703125 12.671875 31.3125
Q 6.296875 37.9375 6.296875 49.421875
Q 6.296875 60.640625 12.9375 67.421875
Q 19.578125 74.21875 30.609375 74.21875
Q 43.265625 74.21875 49.921875 64.515625
Q 56.59375 54.828125 56.59375 36.375
Q 56.59375 19.140625 48.40625 8.859375
Q 40.234375 -1.421875 26.421875 -1.421875
Q 22.703125 -1.421875 18.890625 -0.6875
Q 15.09375 0.046875 10.984375 1.515625
z
M 30.609375 32.421875
Q 37.25 32.421875 41.125 36.953125
Q 45.015625 41.5 45.015625 49.421875
Q 45.015625 57.28125 41.125 61.84375
Q 37.25 66.40625 30.609375 66.40625
Q 23.96875 66.40625 20.09375 61.84375
Q 16.21875 57.28125 16.21875 49.421875
Q 16.21875 41.5 20.09375 36.953125
Q 23.96875 32.421875 30.609375 32.421875
z
" id="DejaVuSans-57"/>
        <path d="M 31.78125 66.40625
Q 24.171875 66.40625 20.328125 58.90625
Q 16.5 51.421875 16.5 36.375
Q 16.5 21.390625 20.328125 13.890625
Q 24.171875 6.390625 31.78125 6.390625
Q 39.453125 6.390625 43.28125 13.890625
Q 47.125 21.390625 47.125 36.375
Q 47.125 51.421875 43.28125 58.90625
Q 39.453125 66.40625 31.78125 66.40625
z
M 31.78125 74.21875
Q 44.046875 74.21875 50.515625 64.515625
Q 56.984375 54.828125 56.984375 36.375
Q 56.984375 17.96875 50.515625 8.265625
Q 44.046875 -1.421875 31.78125 -1.421875
Q 19.53125 -1.421875 13.0625 8.265625
Q 6.59375 17.96875 6.59375 36.375
Q 6.59375 54.828125 13.0625 64.515625
Q 19.53125 74.21875 31.78125 74.21875
z
" id="DejaVuSans-48"/>
       </defs>
       <use xlink:href="#DejaVuSans-57"/>
       <use x="63.623047" xlink:href="#DejaVuSans-48"/>
       <use x="127.246094" xlink:href="#DejaVuSans-48"/>
      </g>
     </g>
    </g>
    <g id="xtick_2">
     <g id="line2d_2">
      <g>
       <use style="stroke:#000000;stroke-width:0.8;" x="31.918256" xlink:href="#m73763c5ac3" y="281.726437"/>
      </g>
     </g>
     <g id="text_2">
      <!-- 950 -->
      <g transform="translate(27.146381 292.525656)scale(0.05 -0.05)">
       <defs>
        <path d="M 10.796875 72.90625
L 49.515625 72.90625
L 49.515625 64.59375
L 19.828125 64.59375
L 19.828125 46.734375
Q 21.96875 47.46875 24.109375 47.828125
Q 26.265625 48.1875 28.421875 48.1875
Q 40.625 48.1875 47.75 41.5
Q 54.890625 34.8125 54.890625 23.390625
Q 54.890625 11.625 47.5625 5.09375
Q 40.234375 -1.421875 26.90625 -1.421875
Q 22.3125 -1.421875 17.546875 -0.640625
Q 12.796875 0.140625 7.71875 1.703125
L 7.71875 11.625
Q 12.109375 9.234375 16.796875 8.0625
Q 21.484375 6.890625 26.703125 6.890625
Q 35.15625 6.890625 40.078125 11.328125
Q 45.015625 15.765625 45.015625 23.390625
Q 45.015625 31 40.078125 35.4375
Q 35.15625 39.890625 26.703125 39.890625
Q 22.75 39.890625 18.8125 39.015625
Q 14.890625 38.140625 10.796875 36.28125
z
" id="DejaVuSans-53"/>
       </defs>
       <use xlink:href="#DejaVuSans-57"/>
       <use x="63.623047" xlink:href="#DejaVuSans-53"/>
       <use x="127.246094" xlink:href="#DejaVuSans-48"/>
      </g>
     </g>
    </g>
    <g id="xtick_3">
     <g id="line2d_3">
      <g>
       <use style="stroke:#000000;stroke-width:0.8;" x="51.864636" xlink:href="#m73763c5ac3" y="281.726437"/>
      </g>
     </g>
     <g id="text_3">
      <!-- 1000 -->
      <g transform="translate(45.502136 292.525656)scale(0.05 -0.05)">
       <defs>
        <path d="M 12.40625 8.296875
L 28.515625 8.296875
L 28.515625 63.921875
L 10.984375 60.40625
L 10.984375 69.390625
L 28.421875 72.90625
L 38.28125 72.90625
L 38.28125 8.296875
L 54.390625 8.296875
L 54.390625 0
L 12.40625 0
z
" id="DejaVuSans-49"/>
       </defs>
       <use xlink:href="#DejaVuSans-49"/>
       <use x="63.623047" xlink:href="#DejaVuSans-48"/>
       <use x="127.246094" xlink:href="#DejaVuSans-48"/>
       <use x="190.869141" xlink:href="#DejaVuSans-48"/>
      </g>
     </g>
    </g>
    <g id="xtick_4">
     <g id="line2d_4">
      <g>
       <use style="stroke:#000000;stroke-width:0.8;" x="71.811017" xlink:href="#m73763c5ac3" y="281.726437"/>
      </g>
     </g>
     <g id="text_4">
      <!-- 1050 -->
      <g transform="translate(65.448517 292.525656)scale(0.05 -0.05)">
       <use xlink:href="#DejaVuSans-49"/>
       <use x="63.623047" xlink:href="#DejaVuSans-48"/>
       <use x="127.246094" xlink:href="#DejaVuSans-53"/>
       <use x="190.869141" xlink:href="#DejaVuSans-48"/>
      </g>
     </g>
    </g>
    <g id="xtick_5">
     <g id="line2d_5">
      <g>
       <use style="stroke:#000000;stroke-width:0.8;" x="91.757398" xlink:href="#m73763c5ac3" y="281.726437"/>
      </g>
     </g>
     <g id="text_5">
      <!-- 1100 -->
      <g transform="translate(85.394898 292.525656)scale(0.05 -0.05)">
       <use xlink:href="#DejaVuSans-49"/>
       <use x="63.623047" xlink:href="#DejaVuSans-49"/>
       <use x="127.246094" xlink:href="#DejaVuSans-48"/>
       <use x="190.869141" xlink:href="#DejaVuSans-48"/>
      </g>
     </g>
    </g>
    <g id="xtick_6">
     <g id="line2d_6">
      <g>
       <use style="stroke:#000000;stroke-width:0.8;" x="111.703778" xlink:href="#m73763c5ac3" y="281.726437"/>
      </g>
     </g>
     <g id="text_6">
      <!-- 1150 -->
      <g transform="translate(105.341278 292.525656)scale(0.05 -0.05)">
       <use xlink:href="#DejaVuSans-49"/>
       <use x="63.623047" xlink:href="#DejaVuSans-49"/>
       <use x="127.246094" xlink:href="#DejaVuSans-53"/>
       <use x="190.869141" xlink:href="#DejaVuSans-48"/>
      </g>
     </g>
    </g>
    <g id="xtick_7">
     <g id="line2d_7">
      <g>
       <use style="stroke:#000000;stroke-width:0.8;" x="131.650159" xlink:href="#m73763c5ac3" y="281.726437"/>
      </g>
     </g>
     <g id="text_7">
      <!-- 1200 -->
      <g transform="translate(125.287659 292.525656)scale(0.05 -0.05)">
       <defs>
        <path d="M 19.1875 8.296875
L 53.609375 8.296875
L 53.609375 0
L 7.328125 0
L 7.328125 8.296875
Q 12.9375 14.109375 22.625 23.890625
Q 32.328125 33.6875 34.8125 36.53125
Q 39.546875 41.84375 41.421875 45.53125
Q 43.3125 49.21875 43.3125 52.78125
Q 43.3125 58.59375 39.234375 62.25
Q 35.15625 65.921875 28.609375 65.921875
Q 23.96875 65.921875 18.8125 64.3125
Q 13.671875 62.703125 7.8125 59.421875
L 7.8125 69.390625
Q 13.765625 71.78125 18.9375 73
Q 24.125 74.21875 28.421875 74.21875
Q 39.75 74.21875 46.484375 68.546875
Q 53.21875 62.890625 53.21875 53.421875
Q 53.21875 48.921875 51.53125 44.890625
Q 49.859375 40.875 45.40625 35.40625
Q 44.1875 33.984375 37.640625 27.21875
Q 31.109375 20.453125 19.1875 8.296875
z
" id="DejaVuSans-50"/>
       </defs>
       <use xlink:href="#DejaVuSans-49"/>
       <use x="63.623047" xlink:href="#DejaVuSans-50"/>
       <use x="127.246094" xlink:href="#DejaVuSans-48"/>
       <use x="190.869141" xlink:href="#DejaVuSans-48"/>
      </g>
     </g>
    </g>
    <g id="xtick_8">
     <g id="line2d_8">
      <g>
       <use style="stroke:#000000;stroke-width:0.8;" x="151.59654" xlink:href="#m73763c5ac3" y="281.726437"/>
      </g>
     </g>
     <g id="text_8">
      <!-- 1250 -->
      <g transform="translate(145.23404 292.525656)scale(0.05 -0.05)">
       <use xlink:href="#DejaVuSans-49"/>
       <use x="63.623047" xlink:href="#DejaVuSans-50"/>
       <use x="127.246094" xlink:href="#DejaVuSans-53"/>
       <use x="190.869141" xlink:href="#DejaVuSans-48"/>
      </g>
     </g>
    </g>
    <g id="xtick_9">
     <g id="line2d_9">
      <g>
       <use style="stroke:#000000;stroke-width:0.8;" x="171.542921" xlink:href="#m73763c5ac3" y="281.726437"/>
      </g>
     </g>
     <g id="text_9">
      <!-- 1300 -->
      <g transform="translate(165.180421 292.525656)scale(0.05 -0.05)">
       <defs>
        <path d="M 40.578125 39.3125
Q 47.65625 37.796875 51.625 33
Q 55.609375 28.21875 55.609375 21.1875
Q 55.609375 10.40625 48.1875 4.484375
Q 40.765625 -1.421875 27.09375 -1.421875
Q 22.515625 -1.421875 17.65625 -0.515625
Q 12.796875 0.390625 7.625 2.203125
L 7.625 11.71875
Q 11.71875 9.328125 16.59375 8.109375
Q 21.484375 6.890625 26.8125 6.890625
Q 36.078125 6.890625 40.9375 10.546875
Q 45.796875 14.203125 45.796875 21.1875
Q 45.796875 27.640625 41.28125 31.265625
Q 36.765625 34.90625 28.71875 34.90625
L 20.21875 34.90625
L 20.21875 43.015625
L 29.109375 43.015625
Q 36.375 43.015625 40.234375 45.921875
Q 44.09375 48.828125 44.09375 54.296875
Q 44.09375 59.90625 40.109375 62.90625
Q 36.140625 65.921875 28.71875 65.921875
Q 24.65625 65.921875 20.015625 65.03125
Q 15.375 64.15625 9.8125 62.3125
L 9.8125 71.09375
Q 15.4375 72.65625 20.34375 73.4375
Q 25.25 74.21875 29.59375 74.21875
Q 40.828125 74.21875 47.359375 69.109375
Q 53.90625 64.015625 53.90625 55.328125
Q 53.90625 49.265625 50.4375 45.09375
Q 46.96875 40.921875 40.578125 39.3125
z
" id="DejaVuSans-51"/>
       </defs>
       <use xlink:href="#DejaVuSans-49"/>
       <use x="63.623047" xlink:href="#DejaVuSans-51"/>
       <use x="127.246094" xlink:href="#DejaVuSans-48"/>
       <use x="190.869141" xlink:href="#DejaVuSans-48"/>
      </g>
     </g>
    </g>
    <g id="xtick_10">
     <g id="line2d_10">
      <g>
       <use style="stroke:#000000;stroke-width:0.8;" x="191.489301" xlink:href="#m73763c5ac3" y="281.726437"/>
      </g>
     </g>
     <g id="text_10">
      <!-- 1350 -->
      <g transform="translate(185.126801 292.525656)scale(0.05 -0.05)">
       <use xlink:href="#DejaVuSans-49"/>
       <use x="63.623047" xlink:href="#DejaVuSans-51"/>
       <use x="127.246094" xlink:href="#DejaVuSans-53"/>
       <use x="190.869141" xlink:href="#DejaVuSans-48"/>
      </g>
     </g>
    </g>
    <g id="xtick_11">
     <g id="line2d_11">
      <g>
       <use style="stroke:#000000;stroke-width:0.8;" x="211.435682" xlink:href="#m73763c5ac3" y="281.726437"/>
      </g>
     </g>
     <g id="text_11">
      <!-- 1400 -->
      <g transform="translate(205.073182 292.525656)scale(0.05 -0.05)">
       <defs>
        <path d="M 37.796875 64.3125
L 12.890625 25.390625
L 37.796875 25.390625
z
M 35.203125 72.90625
L 47.609375 72.90625
L 47.609375 25.390625
L 58.015625 25.390625
L 58.015625 17.1875
L 47.609375 17.1875
L 47.609375 0
L 37.796875 0
L 37.796875 17.1875
L 4.890625 17.1875
L 4.890625 26.703125
z
" id="DejaVuSans-52"/>
       </defs>
       <use xlink:href="#DejaVuSans-49"/>
       <use x="63.623047" xlink:href="#DejaVuSans-52"/>
       <use x="127.246094" xlink:href="#DejaVuSans-48"/>
       <use x="190.869141" xlink:href="#DejaVuSans-48"/>
      </g>
     </g>
    </g>
    <g id="xtick_12">
     <g id="line2d_12">
      <g>
       <use style="stroke:#000000;stroke-width:0.8;" x="231.382063" xlink:href="#m73763c5ac3" y="281.726437"/>
      </g>
     </g>
     <g id="text_12">
      <!-- 1450 -->
      <g transform="translate(225.019563 292.525656)scale(0.05 -0.05)">
       <use xlink:href="#DejaVuSans-49"/>
       <use x="63.623047" xlink:href="#DejaVuSans-52"/>
       <use x="127.246094" xlink:href="#DejaVuSans-53"/>
       <use x="190.869141" xlink:href="#DejaVuSans-48"/>
      </g>
     </g>
    </g>
    <g id="xtick_13">
     <g id="line2d_13">
      <g>
       <use style="stroke:#000000;stroke-width:0.8;" x="251.328443" xlink:href="#m73763c5ac3" y="281.726437"/>
      </g>
     </g>
     <g id="text_13">
      <!-- 1500 -->
      <g transform="translate(244.965943 292.525656)scale(0.05 -0.05)">
       <use xlink:href="#DejaVuSans-49"/>
       <use x="63.623047" xlink:href="#DejaVuSans-53"/>
       <use x="127.246094" xlink:href="#DejaVuSans-48"/>
       <use x="190.869141" xlink:href="#DejaVuSans-48"/>
      </g>
     </g>
    </g>
    <g id="xtick_14">
     <g id="line2d_14">
      <g>
       <use style="stroke:#000000;stroke-width:0.8;" x="271.274824" xlink:href="#m73763c5ac3" y="281.726437"/>
      </g>
     </g>
     <g id="text_14">
      <!-- 1550 -->
      <g transform="translate(264.912324 292.525656)scale(0.05 -0.05)">
       <use xlink:href="#DejaVuSans-49"/>
       <use x="63.623047" xlink:href="#DejaVuSans-53"/>
       <use x="127.246094" xlink:href="#DejaVuSans-53"/>
       <use x="190.869141" xlink:href="#DejaVuSans-48"/>
      </g>
     </g>
    </g>
    <g id="xtick_15">
     <g id="line2d_15">
      <g>
       <use style="stroke:#000000;stroke-width:0.8;" x="291.221205" xlink:href="#m73763c5ac3" y="281.726437"/>
      </g>
     </g>
     <g id="text_15">
      <!-- 1600 -->
      <g transform="translate(284.858705 292.525656)scale(0.05 -0.05)">
       <defs>
        <path d="M 33.015625 40.375
Q 26.375 40.375 22.484375 35.828125
Q 18.609375 31.296875 18.609375 23.390625
Q 18.609375 15.53125 22.484375 10.953125
Q 26.375 6.390625 33.015625 6.390625
Q 39.65625 6.390625 43.53125 10.953125
Q 47.40625 15.53125 47.40625 23.390625
Q 47.40625 31.296875 43.53125 35.828125
Q 39.65625 40.375 33.015625 40.375
z
M 52.59375 71.296875
L 52.59375 62.3125
Q 48.875 64.0625 45.09375 64.984375
Q 41.3125 65.921875 37.59375 65.921875
Q 27.828125 65.921875 22.671875 59.328125
Q 17.53125 52.734375 16.796875 39.40625
Q 19.671875 43.65625 24.015625 45.921875
Q 28.375 48.1875 33.59375 48.1875
Q 44.578125 48.1875 50.953125 41.515625
Q 57.328125 34.859375 57.328125 23.390625
Q 57.328125 12.15625 50.6875 5.359375
Q 44.046875 -1.421875 33.015625 -1.421875
Q 20.359375 -1.421875 13.671875 8.265625
Q 6.984375 17.96875 6.984375 36.375
Q 6.984375 53.65625 15.1875 63.9375
Q 23.390625 74.21875 37.203125 74.21875
Q 40.921875 74.21875 44.703125 73.484375
Q 48.484375 72.75 52.59375 71.296875
z
" id="DejaVuSans-54"/>
       </defs>
       <use xlink:href="#DejaVuSans-49"/>
       <use x="63.623047" xlink:href="#DejaVuSans-54"/>
       <use x="127.246094" xlink:href="#DejaVuSans-48"/>
       <use x="190.869141" xlink:href="#DejaVuSans-48"/>
      </g>
     </g>
    </g>
    <g id="xtick_16">
     <g id="line2d_16">
      <g>
       <use style="stroke:#000000;stroke-width:0.8;" x="311.167585" xlink:href="#m73763c5ac3" y="281.726437"/>
      </g>
     </g>
     <g id="text_16">
      <!-- 1650 -->
      <g transform="translate(304.805085 292.525656)scale(0.05 -0.05)">
       <use xlink:href="#DejaVuSans-49"/>
       <use x="63.623047" xlink:href="#DejaVuSans-54"/>
       <use x="127.246094" xlink:href="#DejaVuSans-53"/>
       <use x="190.869141" xlink:href="#DejaVuSans-48"/>
      </g>
     </g>
    </g>
    <g id="xtick_17">
     <g id="line2d_17">
      <g>
       <use style="stroke:#000000;stroke-width:0.8;" x="331.113966" xlink:href="#m73763c5ac3" y="281.726437"/>
      </g>
     </g>
     <g id="text_17">
      <!-- 1700 -->
      <g transform="translate(324.751466 292.525656)scale(0.05 -0.05)">
       <defs>
        <path d="M 8.203125 72.90625
L 55.078125 72.90625
L 55.078125 68.703125
L 28.609375 0
L 18.3125 0
L 43.21875 64.59375
L 8.203125 64.59375
z
" id="DejaVuSans-55"/>
       </defs>
       <use xlink:href="#DejaVuSans-49"/>
       <use x="63.623047" xlink:href="#DejaVuSans-55"/>
       <use x="127.246094" xlink:href="#DejaVuSans-48"/>
       <use x="190.869141" xlink:href="#DejaVuSans-48"/>
      </g>
     </g>
    </g>
    <g id="xtick_18">
     <g id="line2d_18">
      <g>
       <use style="stroke:#000000;stroke-width:0.8;" x="351.060347" xlink:href="#m73763c5ac3" y="281.726437"/>
      </g>
     </g>
     <g id="text_18">
      <!-- 1750 -->
      <g transform="translate(344.697847 292.525656)scale(0.05 -0.05)">
       <use xlink:href="#DejaVuSans-49"/>
       <use x="63.623047" xlink:href="#DejaVuSans-55"/>
       <use x="127.246094" xlink:href="#DejaVuSans-53"/>
       <use x="190.869141" xlink:href="#DejaVuSans-48"/>
      </g>
     </g>
    </g>
    <g id="text_19">
     <!-- Year -->
     <g transform="translate(182.061875 303.64425)scale(0.08 -0.08)">
      <defs>
       <path d="M -0.203125 72.90625
L 10.40625 72.90625
L 30.609375 42.921875
L 50.6875 72.90625
L 61.28125 72.90625
L 35.5 34.71875
L 35.5 0
L 25.59375 0
L 25.59375 34.71875
z
" id="DejaVuSans-89"/>
       <path d="M 56.203125 29.59375
L 56.203125 25.203125
L 14.890625 25.203125
Q 15.484375 15.921875 20.484375 11.0625
Q 25.484375 6.203125 34.421875 6.203125
Q 39.59375 6.203125 44.453125 7.46875
Q 49.3125 8.734375 54.109375 11.28125
L 54.109375 2.78125
Q 49.265625 0.734375 44.1875 -0.34375
Q 39.109375 -1.421875 33.890625 -1.421875
Q 20.796875 -1.421875 13.15625 6.1875
Q 5.515625 13.8125 5.515625 26.8125
Q 5.515625 40.234375 12.765625 48.109375
Q 20.015625 56 32.328125 56
Q 43.359375 56 49.78125 48.890625
Q 56.203125 41.796875 56.203125 29.59375
z
M 47.21875 32.234375
Q 47.125 39.59375 43.09375 43.984375
Q 39.0625 48.390625 32.421875 48.390625
Q 24.90625 48.390625 20.390625 44.140625
Q 15.875 39.890625 15.1875 32.171875
z
" id="DejaVuSans-101"/>
       <path d="M 34.28125 27.484375
Q 23.390625 27.484375 19.1875 25
Q 14.984375 22.515625 14.984375 16.5
Q 14.984375 11.71875 18.140625 8.90625
Q 21.296875 6.109375 26.703125 6.109375
Q 34.1875 6.109375 38.703125 11.40625
Q 43.21875 16.703125 43.21875 25.484375
L 43.21875 27.484375
z
M 52.203125 31.203125
L 52.203125 0
L 43.21875 0
L 43.21875 8.296875
Q 40.140625 3.328125 35.546875 0.953125
Q 30.953125 -1.421875 24.3125 -1.421875
Q 15.921875 -1.421875 10.953125 3.296875
Q 6 8.015625 6 15.921875
Q 6 25.140625 12.171875 29.828125
Q 18.359375 34.515625 30.609375 34.515625
L 43.21875 34.515625
L 43.21875 35.40625
Q 43.21875 41.609375 39.140625 45
Q 35.0625 48.390625 27.6875 48.390625
Q 23 48.390625 18.546875 47.265625
Q 14.109375 46.140625 10.015625 43.890625
L 10.015625 52.203125
Q 14.9375 54.109375 19.578125 55.046875
Q 24.21875 56 28.609375 56
Q 40.484375 56 46.34375 49.84375
Q 52.203125 43.703125 52.203125 31.203125
z
" id="DejaVuSans-97"/>
       <path d="M 41.109375 46.296875
Q 39.59375 47.171875 37.8125 47.578125
Q 36.03125 48 33.890625 48
Q 26.265625 48 22.1875 43.046875
Q 18.109375 38.09375 18.109375 28.8125
L 18.109375 0
L 9.078125 0
L 9.078125 54.6875
L 18.109375 54.6875
L 18.109375 46.1875
Q 20.953125 51.171875 25.484375 53.578125
Q 30.03125 56 36.53125 56
Q 37.453125 56 38.578125 55.875
Q 39.703125 55.765625 41.0625 55.515625
z
" id="DejaVuSans-114"/>
      </defs>
      <use xlink:href="#DejaVuSans-89"/>
      <use x="47.833984" xlink:href="#DejaVuSans-101"/>
      <use x="109.357422" xlink:href="#DejaVuSans-97"/>
      <use x="170.636719" xlink:href="#DejaVuSans-114"/>
     </g>
    </g>
   </g>
   <g id="matplotlib.axis_2"/>
   <g id="LineCollection_1">
    <path clip-path="url(#p63c28c5d7d)" d="M 19.397892 151.262437
L 27.671128 151.262437
" style="fill:none;stroke:#97fca7;stroke-width:2;"/>
   </g>
   <g id="LineCollection_2">
    <path clip-path="url(#p63c28c5d7d)" d="M 27.671128 36.612256
L 159.575137 36.612256
" style="fill:none;stroke:#97fca7;stroke-width:2;"/>
   </g>
   <g id="LineCollection_3">
    <path clip-path="url(#p63c28c5d7d)" d="M 27.671128 44.519165
L 163.165485 44.519165
" style="fill:none;stroke:#97fca7;stroke-width:2;"/>
   </g>
   <g id="LineCollection_4">
    <path clip-path="url(#p63c28c5d7d)" d="M 27.671128 52.426074
L 190.691491 52.426074
" style="fill:none;stroke:#97fca7;stroke-width:2;"/>
   </g>
   <g id="LineCollection_5">
    <path clip-path="url(#p63c28c5d7d)" d="M 27.671128 60.332983
L 171.542965 60.332983
" style="fill:none;stroke:#97fca7;stroke-width:2;"/>
   </g>
   <g id="LineCollection_6">
    <path clip-path="url(#p63c28c5d7d)" d="M 27.671128 68.239892
L 168.351544 68.239892
" style="fill:none;stroke:#97fca7;stroke-width:2;"/>
   </g>
   <g id="LineCollection_7">
    <path clip-path="url(#p63c28c5d7d)" d="M 27.671128 88.779324
L 87.530251 88.779324
" style="fill:none;stroke:#97fca7;stroke-width:2;"/>
   </g>
   <g id="LineCollection_8">
    <path clip-path="url(#p63c28c5d7d)" d="M 87.530251 76.146801
L 164.761196 76.146801
" style="fill:none;stroke:#97fca7;stroke-width:2;"/>
   </g>
   <g id="LineCollection_9">
    <path clip-path="url(#p63c28c5d7d)" d="M 87.530251 101.411847
L 136.060348 101.411847
" style="fill:none;stroke:#97fca7;stroke-width:2;"/>
   </g>
   <g id="LineCollection_10">
    <path clip-path="url(#p63c28c5d7d)" d="M 136.060348 84.05371
L 219.414279 84.05371
" style="fill:none;stroke:#97fca7;stroke-width:2;"/>
   </g>
   <g id="LineCollection_11">
    <path clip-path="url(#p63c28c5d7d)" d="M 136.060348 118.769983
L 173.891687 118.769983
" style="fill:none;stroke:#97fca7;stroke-width:2;"/>
   </g>
   <g id="LineCollection_12">
    <path clip-path="url(#p63c28c5d7d)" d="M 173.891687 91.960619
L 241.355297 91.960619
" style="fill:none;stroke:#97fca7;stroke-width:2;"/>
   </g>
   <g id="LineCollection_13">
    <path clip-path="url(#p63c28c5d7d)" d="M 173.891687 145.579347
L 188.187889 145.579347
" style="fill:none;stroke:#97fca7;stroke-width:2;"/>
   </g>
   <g id="LineCollection_14">
    <path clip-path="url(#p63c28c5d7d)" d="M 188.187889 99.867528
L 245.344574 99.867528
" style="fill:none;stroke:#97fca7;stroke-width:2;"/>
   </g>
   <g id="LineCollection_15">
    <path clip-path="url(#p63c28c5d7d)" d="M 188.187889 120.128983
L 283.090297 120.128983
" style="fill:none;stroke:#97fca7;stroke-width:2;"/>
   </g>
   <g id="LineCollection_16">
    <path clip-path="url(#p63c28c5d7d)" d="M 283.090297 107.774437
L 283.090297 107.774437
" style="fill:none;stroke:#97fca7;stroke-width:2;"/>
   </g>
   <g id="LineCollection_17">
    <path clip-path="url(#p63c28c5d7d)" d="M 283.090297 132.483528
L 286.82563 132.483528
" style="fill:none;stroke:#97fca7;stroke-width:2;"/>
   </g>
   <g id="LineCollection_18">
    <path clip-path="url(#p63c28c5d7d)" d="M 286.82563 115.681347
L 286.82563 115.681347
" style="fill:none;stroke:#97fca7;stroke-width:2;"/>
   </g>
   <g id="LineCollection_19">
    <path clip-path="url(#p63c28c5d7d)" d="M 286.82563 123.588256
L 286.82563 123.588256
" style="fill:none;stroke:#97fca7;stroke-width:2;"/>
   </g>
   <g id="LineCollection_20">
    <path clip-path="url(#p63c28c5d7d)" d="M 286.82563 131.495165
L 286.82563 131.495165
" style="fill:none;stroke:#97fca7;stroke-width:2;"/>
   </g>
   <g id="LineCollection_21">
    <path clip-path="url(#p63c28c5d7d)" d="M 286.82563 149.28571
L 327.619263 149.28571
" style="fill:none;stroke:#97fca7;stroke-width:2;"/>
   </g>
   <g id="LineCollection_22">
    <path clip-path="url(#p63c28c5d7d)" d="M 327.619263 139.402074
L 339.092563 139.402074
" style="fill:none;stroke:#97fca7;stroke-width:2;"/>
   </g>
   <g id="LineCollection_23">
    <path clip-path="url(#p63c28c5d7d)" d="M 327.619263 159.169347
L 335.07953 159.169347
" style="fill:none;stroke:#97fca7;stroke-width:2;"/>
   </g>
   <g id="LineCollection_24">
    <path clip-path="url(#p63c28c5d7d)" d="M 335.07953 147.308983
L 339.890418 147.308983
" style="fill:none;stroke:#97fca7;stroke-width:2;"/>
   </g>
   <g id="LineCollection_25">
    <path clip-path="url(#p63c28c5d7d)" d="M 335.07953 155.215892
L 339.092563 155.215892
" style="fill:none;stroke:#97fca7;stroke-width:2;"/>
   </g>
   <g id="LineCollection_26">
    <path clip-path="url(#p63c28c5d7d)" d="M 335.07953 163.122801
L 339.890418 163.122801
" style="fill:none;stroke:#97fca7;stroke-width:2;"/>
   </g>
   <g id="LineCollection_27">
    <path clip-path="url(#p63c28c5d7d)" d="M 335.07953 171.02971
L 339.890418 171.02971
" style="fill:none;stroke:#97fca7;stroke-width:2;"/>
   </g>
   <g id="LineCollection_28">
    <path clip-path="url(#p63c28c5d7d)" d="M 188.187889 191.291165
L 260.910529 191.291165
" style="fill:none;stroke:#97fca7;stroke-width:2;"/>
   </g>
   <g id="LineCollection_29">
    <path clip-path="url(#p63c28c5d7d)" d="M 260.910529 178.936619
L 269.781102 178.936619
" style="fill:none;stroke:#97fca7;stroke-width:2;"/>
   </g>
   <g id="LineCollection_30">
    <path clip-path="url(#p63c28c5d7d)" d="M 260.910529 203.64571
L 291.483919 203.64571
" style="fill:none;stroke:#97fca7;stroke-width:2;"/>
   </g>
   <g id="LineCollection_31">
    <path clip-path="url(#p63c28c5d7d)" d="M 291.483919 186.843528
L 298.401946 186.843528
" style="fill:none;stroke:#97fca7;stroke-width:2;"/>
   </g>
   <g id="LineCollection_32">
    <path clip-path="url(#p63c28c5d7d)" d="M 291.483919 220.447892
L 297.230038 220.447892
" style="fill:none;stroke:#97fca7;stroke-width:2;"/>
   </g>
   <g id="LineCollection_33">
    <path clip-path="url(#p63c28c5d7d)" d="M 297.230038 194.750437
L 305.061002 194.750437
" style="fill:none;stroke:#97fca7;stroke-width:2;"/>
   </g>
   <g id="LineCollection_34">
    <path clip-path="url(#p63c28c5d7d)" d="M 297.230038 202.657347
L 297.230038 202.657347
" style="fill:none;stroke:#97fca7;stroke-width:2;"/>
   </g>
   <g id="LineCollection_35">
    <path clip-path="url(#p63c28c5d7d)" d="M 297.230038 210.564256
L 297.230038 210.564256
" style="fill:none;stroke:#97fca7;stroke-width:2;"/>
   </g>
   <g id="LineCollection_36">
    <path clip-path="url(#p63c28c5d7d)" d="M 297.230038 218.471165
L 297.230038 218.471165
" style="fill:none;stroke:#97fca7;stroke-width:2;"/>
   </g>
   <g id="LineCollection_37">
    <path clip-path="url(#p63c28c5d7d)" d="M 297.230038 230.331528
L 301.788338 230.331528
" style="fill:none;stroke:#97fca7;stroke-width:2;"/>
   </g>
   <g id="LineCollection_38">
    <path clip-path="url(#p63c28c5d7d)" d="M 301.788338 226.378074
L 301.788338 226.378074
" style="fill:none;stroke:#97fca7;stroke-width:2;"/>
   </g>
   <g id="LineCollection_39">
    <path clip-path="url(#p63c28c5d7d)" d="M 301.788338 234.284983
L 301.788338 234.284983
" style="fill:none;stroke:#97fca7;stroke-width:2;"/>
   </g>
   <g id="LineCollection_40">
    <path clip-path="url(#p63c28c5d7d)" d="M 297.230038 246.145347
L 301.788338 246.145347
" style="fill:none;stroke:#97fca7;stroke-width:2;"/>
   </g>
   <g id="LineCollection_41">
    <path clip-path="url(#p63c28c5d7d)" d="M 301.788338 242.191892
L 301.788338 242.191892
" style="fill:none;stroke:#97fca7;stroke-width:2;"/>
   </g>
   <g id="LineCollection_42">
    <path clip-path="url(#p63c28c5d7d)" d="M 301.788338 250.098801
L 301.788338 250.098801
" style="fill:none;stroke:#97fca7;stroke-width:2;"/>
   </g>
   <g id="LineCollection_43">
    <path clip-path="url(#p63c28c5d7d)" d="M 27.671128 265.912619
L 30.76366 265.912619
" style="fill:none;stroke:#97fca7;stroke-width:2;"/>
   </g>
   <g id="LineCollection_44">
    <path clip-path="url(#p63c28c5d7d)" d="M 30.76366 258.00571
L 171.542965 258.00571
" style="fill:none;stroke:#97fca7;stroke-width:2;"/>
   </g>
   <g id="LineCollection_45">
    <path clip-path="url(#p63c28c5d7d)" d="M 30.76366 265.912619
L 196.276477 265.912619
" style="fill:none;stroke:#97fca7;stroke-width:2;"/>
   </g>
   <g id="LineCollection_46">
    <path clip-path="url(#p63c28c5d7d)" d="M 30.76366 273.819528
L 33.530909 273.819528
" style="fill:none;stroke:#97fca7;stroke-width:2;"/>
   </g>
   <g id="LineCollection_47">
    <path clip-path="url(#p63c28c5d7d)" d="M 33.530909 273.819528
L 171.542965 273.819528
" style="fill:none;stroke:#97fca7;stroke-width:2;"/>
   </g>
   <g id="LineCollection_48">
    <path clip-path="url(#p63c28c5d7d)" d="M 27.671128 265.912619
L 27.671128 36.612256
" style="fill:none;stroke:#97fca7;stroke-width:2;"/>
   </g>
   <g id="LineCollection_49">
    <path clip-path="url(#p63c28c5d7d)" d="M 87.530251 101.411847
L 87.530251 76.146801
" style="fill:none;stroke:#97fca7;stroke-width:2;"/>
   </g>
   <g id="LineCollection_50">
    <path clip-path="url(#p63c28c5d7d)" d="M 136.060348 118.769983
L 136.060348 84.05371
" style="fill:none;stroke:#97fca7;stroke-width:2;"/>
   </g>
   <g id="LineCollection_51">
    <path clip-path="url(#p63c28c5d7d)" d="M 173.891687 145.579347
L 173.891687 91.960619
" style="fill:none;stroke:#97fca7;stroke-width:2;"/>
   </g>
   <g id="LineCollection_52">
    <path clip-path="url(#p63c28c5d7d)" d="M 188.187889 191.291165
L 188.187889 99.867528
" style="fill:none;stroke:#97fca7;stroke-width:2;"/>
   </g>
   <g id="LineCollection_53">
    <path clip-path="url(#p63c28c5d7d)" d="M 283.090297 132.483528
L 283.090297 107.774437
" style="fill:none;stroke:#97fca7;stroke-width:2;"/>
   </g>
   <g id="LineCollection_54">
    <path clip-path="url(#p63c28c5d7d)" d="M 286.82563 149.28571
L 286.82563 115.681347
" style="fill:none;stroke:#97fca7;stroke-width:2;"/>
   </g>
   <g id="LineCollection_55">
    <path clip-path="url(#p63c28c5d7d)" d="M 327.619263 159.169347
L 327.619263 139.402074
" style="fill:none;stroke:#97fca7;stroke-width:2;"/>
   </g>
   <g id="LineCollection_56">
    <path clip-path="url(#p63c28c5d7d)" d="M 335.07953 171.02971
L 335.07953 147.308983
" style="fill:none;stroke:#97fca7;stroke-width:2;"/>
   </g>
   <g id="LineCollection_57">
    <path clip-path="url(#p63c28c5d7d)" d="M 260.910529 203.64571
L 260.910529 178.936619
" style="fill:none;stroke:#97fca7;stroke-width:2;"/>
   </g>
   <g id="LineCollection_58">
    <path clip-path="url(#p63c28c5d7d)" d="M 291.483919 220.447892
L 291.483919 186.843528
" style="fill:none;stroke:#97fca7;stroke-width:2;"/>
   </g>
   <g id="LineCollection_59">
    <path clip-path="url(#p63c28c5d7d)" d="M 297.230038 246.145347
L 297.230038 194.750437
" style="fill:none;stroke:#97fca7;stroke-width:2;"/>
   </g>
   <g id="LineCollection_60">
    <path clip-path="url(#p63c28c5d7d)" d="M 301.788338 234.284983
L 301.788338 226.378074
" style="fill:none;stroke:#97fca7;stroke-width:2;"/>
   </g>
   <g id="LineCollection_61">
    <path clip-path="url(#p63c28c5d7d)" d="M 301.788338 250.098801
L 301.788338 242.191892
" style="fill:none;stroke:#97fca7;stroke-width:2;"/>
   </g>
   <g id="LineCollection_62">
    <path clip-path="url(#p63c28c5d7d)" d="M 30.76366 273.819528
L 30.76366 258.00571
" style="fill:none;stroke:#97fca7;stroke-width:2;"/>
   </g>
   <g id="LineCollection_63">
    <path clip-path="url(#p63c28c5d7d)" d="M 33.530909 273.819528
L 33.530909 273.819528
" style="fill:none;stroke:#97fca7;stroke-width:2;"/>
   </g>
   <g id="line2d_19">
    <path clip-path="url(#p63c28c5d7d)" d="M 11.971875 281.726437
L 11.971875 20.798437
" style="fill:none;stroke:#a9a9a9;stroke-linecap:square;stroke-opacity:0.2;stroke-width:0.75;"/>
   </g>
   <g id="line2d_20">
    <path clip-path="url(#p63c28c5d7d)" d="M 31.918256 281.726437
L 31.918256 20.798437
" style="fill:none;stroke:#a9a9a9;stroke-linecap:square;stroke-opacity:0.2;stroke-width:0.75;"/>
   </g>
   <g id="line2d_21">
    <path clip-path="url(#p63c28c5d7d)" d="M 51.864636 281.726437
L 51.864636 20.798437
" style="fill:none;stroke:#a9a9a9;stroke-linecap:square;stroke-opacity:0.2;stroke-width:0.75;"/>
   </g>
   <g id="line2d_22">
    <path clip-path="url(#p63c28c5d7d)" d="M 71.811017 281.726437
L 71.811017 20.798437
" style="fill:none;stroke:#a9a9a9;stroke-linecap:square;stroke-opacity:0.2;stroke-width:0.75;"/>
   </g>
   <g id="line2d_23">
    <path clip-path="url(#p63c28c5d7d)" d="M 91.757398 281.726437
L 91.757398 20.798437
" style="fill:none;stroke:#a9a9a9;stroke-linecap:square;stroke-opacity:0.2;stroke-width:0.75;"/>
   </g>
   <g id="line2d_24">
    <path clip-path="url(#p63c28c5d7d)" d="M 111.703778 281.726437
L 111.703778 20.798437
" style="fill:none;stroke:#a9a9a9;stroke-linecap:square;stroke-opacity:0.2;stroke-width:0.75;"/>
   </g>
   <g id="line2d_25">
    <path clip-path="url(#p63c28c5d7d)" d="M 131.650159 281.726437
L 131.650159 20.798437
" style="fill:none;stroke:#a9a9a9;stroke-linecap:square;stroke-opacity:0.2;stroke-width:0.75;"/>
   </g>
   <g id="line2d_26">
    <path clip-path="url(#p63c28c5d7d)" d="M 151.59654 281.726437
L 151.59654 20.798437
" style="fill:none;stroke:#a9a9a9;stroke-linecap:square;stroke-opacity:0.2;stroke-width:0.75;"/>
   </g>
   <g id="line2d_27">
    <path clip-path="url(#p63c28c5d7d)" d="M 171.542921 281.726437
L 171.542921 20.798437
" style="fill:none;stroke:#a9a9a9;stroke-linecap:square;stroke-opacity:0.2;stroke-width:0.75;"/>
   </g>
   <g id="line2d_28">
    <path clip-path="url(#p63c28c5d7d)" d="M 191.489301 281.726437
L 191.489301 20.798437
" style="fill:none;stroke:#a9a9a9;stroke-linecap:square;stroke-opacity:0.2;stroke-width:0.75;"/>
   </g>
   <g id="line2d_29">
    <path clip-path="url(#p63c28c5d7d)" d="M 211.435682 281.726437
L 211.435682 20.798437
" style="fill:none;stroke:#a9a9a9;stroke-linecap:square;stroke-opacity:0.2;stroke-width:0.75;"/>
   </g>
   <g id="line2d_30">
    <path clip-path="url(#p63c28c5d7d)" d="M 231.382063 281.726437
L 231.382063 20.798437
" style="fill:none;stroke:#a9a9a9;stroke-linecap:square;stroke-opacity:0.2;stroke-width:0.75;"/>
   </g>
   <g id="line2d_31">
    <path clip-path="url(#p63c28c5d7d)" d="M 251.328443 281.726437
L 251.328443 20.798437
" style="fill:none;stroke:#a9a9a9;stroke-linecap:square;stroke-opacity:0.2;stroke-width:0.75;"/>
   </g>
   <g id="line2d_32">
    <path clip-path="url(#p63c28c5d7d)" d="M 271.274824 281.726437
L 271.274824 20.798437
" style="fill:none;stroke:#a9a9a9;stroke-linecap:square;stroke-opacity:0.2;stroke-width:0.75;"/>
   </g>
   <g id="line2d_33">
    <path clip-path="url(#p63c28c5d7d)" d="M 291.221205 281.726437
L 291.221205 20.798437
" style="fill:none;stroke:#a9a9a9;stroke-linecap:square;stroke-opacity:0.2;stroke-width:0.75;"/>
   </g>
   <g id="line2d_34">
    <path clip-path="url(#p63c28c5d7d)" d="M 311.167585 281.726437
L 311.167585 20.798437
" style="fill:none;stroke:#a9a9a9;stroke-linecap:square;stroke-opacity:0.2;stroke-width:0.75;"/>
   </g>
   <g id="line2d_35">
    <path clip-path="url(#p63c28c5d7d)" d="M 331.113966 281.726437
L 331.113966 20.798437
" style="fill:none;stroke:#a9a9a9;stroke-linecap:square;stroke-opacity:0.2;stroke-width:0.75;"/>
   </g>
   <g id="line2d_36">
    <path clip-path="url(#p63c28c5d7d)" d="M 351.060347 281.726437
L 351.060347 20.798437
" style="fill:none;stroke:#a9a9a9;stroke-linecap:square;stroke-opacity:0.2;stroke-width:0.75;"/>
   </g>
   <g id="patch_3">
    <path d="M 11.971875 281.726437
L 369.091875 281.726437
" style="fill:none;stroke:#000000;stroke-linecap:square;stroke-linejoin:miter;stroke-width:0.8;"/>
   </g>
   <g id="text_20">
    <!--   -->
    <g transform="translate(27.671128 152.642125)scale(0.05 -0.05)">
     <defs>
      <path id="DejaVuSans-32"/>
     </defs>
     <use xlink:href="#DejaVuSans-32"/>
    </g>
   </g>
   <g id="text_21">
    <!--  Norway (OSL1) -->
    <g transform="translate(159.575137 37.991943)scale(0.05 -0.05)">
     <defs>
      <path d="M 9.8125 72.90625
L 23.09375 72.90625
L 55.421875 11.921875
L 55.421875 72.90625
L 64.984375 72.90625
L 64.984375 0
L 51.703125 0
L 19.390625 60.984375
L 19.390625 0
L 9.8125 0
z
" id="DejaVuSans-78"/>
      <path d="M 30.609375 48.390625
Q 23.390625 48.390625 19.1875 42.75
Q 14.984375 37.109375 14.984375 27.296875
Q 14.984375 17.484375 19.15625 11.84375
Q 23.34375 6.203125 30.609375 6.203125
Q 37.796875 6.203125 41.984375 11.859375
Q 46.1875 17.53125 46.1875 27.296875
Q 46.1875 37.015625 41.984375 42.703125
Q 37.796875 48.390625 30.609375 48.390625
z
M 30.609375 56
Q 42.328125 56 49.015625 48.375
Q 55.71875 40.765625 55.71875 27.296875
Q 55.71875 13.875 49.015625 6.21875
Q 42.328125 -1.421875 30.609375 -1.421875
Q 18.84375 -1.421875 12.171875 6.21875
Q 5.515625 13.875 5.515625 27.296875
Q 5.515625 40.765625 12.171875 48.375
Q 18.84375 56 30.609375 56
z
" id="DejaVuSans-111"/>
      <path d="M 4.203125 54.6875
L 13.1875 54.6875
L 24.421875 12.015625
L 35.59375 54.6875
L 46.1875 54.6875
L 57.421875 12.015625
L 68.609375 54.6875
L 77.59375 54.6875
L 63.28125 0
L 52.6875 0
L 40.921875 44.828125
L 29.109375 0
L 18.5 0
z
" id="DejaVuSans-119"/>
      <path d="M 32.171875 -5.078125
Q 28.375 -14.84375 24.75 -17.8125
Q 21.140625 -20.796875 15.09375 -20.796875
L 7.90625 -20.796875
L 7.90625 -13.28125
L 13.1875 -13.28125
Q 16.890625 -13.28125 18.9375 -11.515625
Q 21 -9.765625 23.484375 -3.21875
L 25.09375 0.875
L 2.984375 54.6875
L 12.5 54.6875
L 29.59375 11.921875
L 46.6875 54.6875
L 56.203125 54.6875
z
" id="DejaVuSans-121"/>
      <path d="M 31 75.875
Q 24.46875 64.65625 21.28125 53.65625
Q 18.109375 42.671875 18.109375 31.390625
Q 18.109375 20.125 21.3125 9.0625
Q 24.515625 -2 31 -13.1875
L 23.1875 -13.1875
Q 15.875 -1.703125 12.234375 9.375
Q 8.59375 20.453125 8.59375 31.390625
Q 8.59375 42.28125 12.203125 53.3125
Q 15.828125 64.359375 23.1875 75.875
z
" id="DejaVuSans-40"/>
      <path d="M 39.40625 66.21875
Q 28.65625 66.21875 22.328125 58.203125
Q 16.015625 50.203125 16.015625 36.375
Q 16.015625 22.609375 22.328125 14.59375
Q 28.65625 6.59375 39.40625 6.59375
Q 50.140625 6.59375 56.421875 14.59375
Q 62.703125 22.609375 62.703125 36.375
Q 62.703125 50.203125 56.421875 58.203125
Q 50.140625 66.21875 39.40625 66.21875
z
M 39.40625 74.21875
Q 54.734375 74.21875 63.90625 63.9375
Q 73.09375 53.65625 73.09375 36.375
Q 73.09375 19.140625 63.90625 8.859375
Q 54.734375 -1.421875 39.40625 -1.421875
Q 24.03125 -1.421875 14.8125 8.828125
Q 5.609375 19.09375 5.609375 36.375
Q 5.609375 53.65625 14.8125 63.9375
Q 24.03125 74.21875 39.40625 74.21875
z
" id="DejaVuSans-79"/>
      <path d="M 53.515625 70.515625
L 53.515625 60.890625
Q 47.90625 63.578125 42.921875 64.890625
Q 37.9375 66.21875 33.296875 66.21875
Q 25.25 66.21875 20.875 63.09375
Q 16.5 59.96875 16.5 54.203125
Q 16.5 49.359375 19.40625 46.890625
Q 22.3125 44.4375 30.421875 42.921875
L 36.375 41.703125
Q 47.40625 39.59375 52.65625 34.296875
Q 57.90625 29 57.90625 20.125
Q 57.90625 9.515625 50.796875 4.046875
Q 43.703125 -1.421875 29.984375 -1.421875
Q 24.8125 -1.421875 18.96875 -0.25
Q 13.140625 0.921875 6.890625 3.21875
L 6.890625 13.375
Q 12.890625 10.015625 18.65625 8.296875
Q 24.421875 6.59375 29.984375 6.59375
Q 38.421875 6.59375 43.015625 9.90625
Q 47.609375 13.234375 47.609375 19.390625
Q 47.609375 24.75 44.3125 27.78125
Q 41.015625 30.8125 33.5 32.328125
L 27.484375 33.5
Q 16.453125 35.6875 11.515625 40.375
Q 6.59375 45.0625 6.59375 53.421875
Q 6.59375 63.09375 13.40625 68.65625
Q 20.21875 74.21875 32.171875 74.21875
Q 37.3125 74.21875 42.625 73.28125
Q 47.953125 72.359375 53.515625 70.515625
z
" id="DejaVuSans-83"/>
      <path d="M 9.8125 72.90625
L 19.671875 72.90625
L 19.671875 8.296875
L 55.171875 8.296875
L 55.171875 0
L 9.8125 0
z
" id="DejaVuSans-76"/>
      <path d="M 8.015625 75.875
L 15.828125 75.875
Q 23.140625 64.359375 26.78125 53.3125
Q 30.421875 42.28125 30.421875 31.390625
Q 30.421875 20.453125 26.78125 9.375
Q 23.140625 -1.703125 15.828125 -13.1875
L 8.015625 -13.1875
Q 14.5 -2 17.703125 9.0625
Q 20.90625 20.125 20.90625 31.390625
Q 20.90625 42.671875 17.703125 53.65625
Q 14.5 64.65625 8.015625 75.875
z
" id="DejaVuSans-41"/>
     </defs>
     <use xlink:href="#DejaVuSans-32"/>
     <use x="31.787109" xlink:href="#DejaVuSans-78"/>
     <use x="106.591797" xlink:href="#DejaVuSans-111"/>
     <use x="167.773438" xlink:href="#DejaVuSans-114"/>
     <use x="208.886719" xlink:href="#DejaVuSans-119"/>
     <use x="290.673828" xlink:href="#DejaVuSans-97"/>
     <use x="351.953125" xlink:href="#DejaVuSans-121"/>
     <use x="411.132812" xlink:href="#DejaVuSans-32"/>
     <use x="442.919922" xlink:href="#DejaVuSans-40"/>
     <use x="481.933594" xlink:href="#DejaVuSans-79"/>
     <use x="560.644531" xlink:href="#DejaVuSans-83"/>
     <use x="624.121094" xlink:href="#DejaVuSans-76"/>
     <use x="679.833984" xlink:href="#DejaVuSans-49"/>
     <use x="743.457031" xlink:href="#DejaVuSans-41"/>
    </g>
   </g>
   <g id="text_22">
    <!--  France (SLC1006) -->
    <g transform="translate(163.165485 45.898852)scale(0.05 -0.05)">
     <defs>
      <path d="M 9.8125 72.90625
L 51.703125 72.90625
L 51.703125 64.59375
L 19.671875 64.59375
L 19.671875 43.109375
L 48.578125 43.109375
L 48.578125 34.8125
L 19.671875 34.8125
L 19.671875 0
L 9.8125 0
z
" id="DejaVuSans-70"/>
      <path d="M 54.890625 33.015625
L 54.890625 0
L 45.90625 0
L 45.90625 32.71875
Q 45.90625 40.484375 42.875 44.328125
Q 39.84375 48.1875 33.796875 48.1875
Q 26.515625 48.1875 22.3125 43.546875
Q 18.109375 38.921875 18.109375 30.90625
L 18.109375 0
L 9.078125 0
L 9.078125 54.6875
L 18.109375 54.6875
L 18.109375 46.1875
Q 21.34375 51.125 25.703125 53.5625
Q 30.078125 56 35.796875 56
Q 45.21875 56 50.046875 50.171875
Q 54.890625 44.34375 54.890625 33.015625
z
" id="DejaVuSans-110"/>
      <path d="M 48.78125 52.59375
L 48.78125 44.1875
Q 44.96875 46.296875 41.140625 47.34375
Q 37.3125 48.390625 33.40625 48.390625
Q 24.65625 48.390625 19.8125 42.84375
Q 14.984375 37.3125 14.984375 27.296875
Q 14.984375 17.28125 19.8125 11.734375
Q 24.65625 6.203125 33.40625 6.203125
Q 37.3125 6.203125 41.140625 7.25
Q 44.96875 8.296875 48.78125 10.40625
L 48.78125 2.09375
Q 45.015625 0.34375 40.984375 -0.53125
Q 36.96875 -1.421875 32.421875 -1.421875
Q 20.0625 -1.421875 12.78125 6.34375
Q 5.515625 14.109375 5.515625 27.296875
Q 5.515625 40.671875 12.859375 48.328125
Q 20.21875 56 33.015625 56
Q 37.15625 56 41.109375 55.140625
Q 45.0625 54.296875 48.78125 52.59375
z
" id="DejaVuSans-99"/>
      <path d="M 64.40625 67.28125
L 64.40625 56.890625
Q 59.421875 61.53125 53.78125 63.8125
Q 48.140625 66.109375 41.796875 66.109375
Q 29.296875 66.109375 22.65625 58.46875
Q 16.015625 50.828125 16.015625 36.375
Q 16.015625 21.96875 22.65625 14.328125
Q 29.296875 6.6875 41.796875 6.6875
Q 48.140625 6.6875 53.78125 8.984375
Q 59.421875 11.28125 64.40625 15.921875
L 64.40625 5.609375
Q 59.234375 2.09375 53.4375 0.328125
Q 47.65625 -1.421875 41.21875 -1.421875
Q 24.65625 -1.421875 15.125 8.703125
Q 5.609375 18.84375 5.609375 36.375
Q 5.609375 53.953125 15.125 64.078125
Q 24.65625 74.21875 41.21875 74.21875
Q 47.75 74.21875 53.53125 72.484375
Q 59.328125 70.75 64.40625 67.28125
z
" id="DejaVuSans-67"/>
     </defs>
     <use xlink:href="#DejaVuSans-32"/>
     <use x="31.787109" xlink:href="#DejaVuSans-70"/>
     <use x="82.056641" xlink:href="#DejaVuSans-114"/>
     <use x="123.169922" xlink:href="#DejaVuSans-97"/>
     <use x="184.449219" xlink:href="#DejaVuSans-110"/>
     <use x="247.828125" xlink:href="#DejaVuSans-99"/>
     <use x="302.808594" xlink:href="#DejaVuSans-101"/>
     <use x="364.332031" xlink:href="#DejaVuSans-32"/>
     <use x="396.119141" xlink:href="#DejaVuSans-40"/>
     <use x="435.132812" xlink:href="#DejaVuSans-83"/>
     <use x="498.609375" xlink:href="#DejaVuSans-76"/>
     <use x="554.322266" xlink:href="#DejaVuSans-67"/>
     <use x="624.146484" xlink:href="#DejaVuSans-49"/>
     <use x="687.769531" xlink:href="#DejaVuSans-48"/>
     <use x="751.392578" xlink:href="#DejaVuSans-48"/>
     <use x="815.015625" xlink:href="#DejaVuSans-54"/>
     <use x="878.638672" xlink:href="#DejaVuSans-41"/>
    </g>
   </g>
   <g id="text_23">
    <!--  England (8291) -->
    <g transform="translate(190.691491 53.805761)scale(0.05 -0.05)">
     <defs>
      <path d="M 9.8125 72.90625
L 55.90625 72.90625
L 55.90625 64.59375
L 19.671875 64.59375
L 19.671875 43.015625
L 54.390625 43.015625
L 54.390625 34.71875
L 19.671875 34.71875
L 19.671875 8.296875
L 56.78125 8.296875
L 56.78125 0
L 9.8125 0
z
" id="DejaVuSans-69"/>
      <path d="M 45.40625 27.984375
Q 45.40625 37.75 41.375 43.109375
Q 37.359375 48.484375 30.078125 48.484375
Q 22.859375 48.484375 18.828125 43.109375
Q 14.796875 37.75 14.796875 27.984375
Q 14.796875 18.265625 18.828125 12.890625
Q 22.859375 7.515625 30.078125 7.515625
Q 37.359375 7.515625 41.375 12.890625
Q 45.40625 18.265625 45.40625 27.984375
z
M 54.390625 6.78125
Q 54.390625 -7.171875 48.1875 -13.984375
Q 42 -20.796875 29.203125 -20.796875
Q 24.46875 -20.796875 20.265625 -20.09375
Q 16.0625 -19.390625 12.109375 -17.921875
L 12.109375 -9.1875
Q 16.0625 -11.328125 19.921875 -12.34375
Q 23.78125 -13.375 27.78125 -13.375
Q 36.625 -13.375 41.015625 -8.765625
Q 45.40625 -4.15625 45.40625 5.171875
L 45.40625 9.625
Q 42.625 4.78125 38.28125 2.390625
Q 33.9375 0 27.875 0
Q 17.828125 0 11.671875 7.65625
Q 5.515625 15.328125 5.515625 27.984375
Q 5.515625 40.671875 11.671875 48.328125
Q 17.828125 56 27.875 56
Q 33.9375 56 38.28125 53.609375
Q 42.625 51.21875 45.40625 46.390625
L 45.40625 54.6875
L 54.390625 54.6875
z
" id="DejaVuSans-103"/>
      <path d="M 9.421875 75.984375
L 18.40625 75.984375
L 18.40625 0
L 9.421875 0
z
" id="DejaVuSans-108"/>
      <path d="M 45.40625 46.390625
L 45.40625 75.984375
L 54.390625 75.984375
L 54.390625 0
L 45.40625 0
L 45.40625 8.203125
Q 42.578125 3.328125 38.25 0.953125
Q 33.9375 -1.421875 27.875 -1.421875
Q 17.96875 -1.421875 11.734375 6.484375
Q 5.515625 14.40625 5.515625 27.296875
Q 5.515625 40.1875 11.734375 48.09375
Q 17.96875 56 27.875 56
Q 33.9375 56 38.25 53.625
Q 42.578125 51.265625 45.40625 46.390625
z
M 14.796875 27.296875
Q 14.796875 17.390625 18.875 11.75
Q 22.953125 6.109375 30.078125 6.109375
Q 37.203125 6.109375 41.296875 11.75
Q 45.40625 17.390625 45.40625 27.296875
Q 45.40625 37.203125 41.296875 42.84375
Q 37.203125 48.484375 30.078125 48.484375
Q 22.953125 48.484375 18.875 42.84375
Q 14.796875 37.203125 14.796875 27.296875
z
" id="DejaVuSans-100"/>
      <path d="M 31.78125 34.625
Q 24.75 34.625 20.71875 30.859375
Q 16.703125 27.09375 16.703125 20.515625
Q 16.703125 13.921875 20.71875 10.15625
Q 24.75 6.390625 31.78125 6.390625
Q 38.8125 6.390625 42.859375 10.171875
Q 46.921875 13.96875 46.921875 20.515625
Q 46.921875 27.09375 42.890625 30.859375
Q 38.875 34.625 31.78125 34.625
z
M 21.921875 38.8125
Q 15.578125 40.375 12.03125 44.71875
Q 8.5 49.078125 8.5 55.328125
Q 8.5 64.0625 14.71875 69.140625
Q 20.953125 74.21875 31.78125 74.21875
Q 42.671875 74.21875 48.875 69.140625
Q 55.078125 64.0625 55.078125 55.328125
Q 55.078125 49.078125 51.53125 44.71875
Q 48 40.375 41.703125 38.8125
Q 48.828125 37.15625 52.796875 32.3125
Q 56.78125 27.484375 56.78125 20.515625
Q 56.78125 9.90625 50.3125 4.234375
Q 43.84375 -1.421875 31.78125 -1.421875
Q 19.734375 -1.421875 13.25 4.234375
Q 6.78125 9.90625 6.78125 20.515625
Q 6.78125 27.484375 10.78125 32.3125
Q 14.796875 37.15625 21.921875 38.8125
z
M 18.3125 54.390625
Q 18.3125 48.734375 21.84375 45.5625
Q 25.390625 42.390625 31.78125 42.390625
Q 38.140625 42.390625 41.71875 45.5625
Q 45.3125 48.734375 45.3125 54.390625
Q 45.3125 60.0625 41.71875 63.234375
Q 38.140625 66.40625 31.78125 66.40625
Q 25.390625 66.40625 21.84375 63.234375
Q 18.3125 60.0625 18.3125 54.390625
z
" id="DejaVuSans-56"/>
     </defs>
     <use xlink:href="#DejaVuSans-32"/>
     <use x="31.787109" xlink:href="#DejaVuSans-69"/>
     <use x="94.970703" xlink:href="#DejaVuSans-110"/>
     <use x="158.349609" xlink:href="#DejaVuSans-103"/>
     <use x="221.826172" xlink:href="#DejaVuSans-108"/>
     <use x="249.609375" xlink:href="#DejaVuSans-97"/>
     <use x="310.888672" xlink:href="#DejaVuSans-110"/>
     <use x="374.267578" xlink:href="#DejaVuSans-100"/>
     <use x="437.744141" xlink:href="#DejaVuSans-32"/>
     <use x="469.53125" xlink:href="#DejaVuSans-40"/>
     <use x="508.544922" xlink:href="#DejaVuSans-56"/>
     <use x="572.167969" xlink:href="#DejaVuSans-50"/>
     <use x="635.791016" xlink:href="#DejaVuSans-57"/>
     <use x="699.414062" xlink:href="#DejaVuSans-49"/>
     <use x="763.037109" xlink:href="#DejaVuSans-41"/>
    </g>
   </g>
   <g id="text_24">
    <!--  Spain (Barcelona3031) -->
    <g transform="translate(171.542965 61.71267)scale(0.05 -0.05)">
     <defs>
      <path d="M 18.109375 8.203125
L 18.109375 -20.796875
L 9.078125 -20.796875
L 9.078125 54.6875
L 18.109375 54.6875
L 18.109375 46.390625
Q 20.953125 51.265625 25.265625 53.625
Q 29.59375 56 35.59375 56
Q 45.5625 56 51.78125 48.09375
Q 58.015625 40.1875 58.015625 27.296875
Q 58.015625 14.40625 51.78125 6.484375
Q 45.5625 -1.421875 35.59375 -1.421875
Q 29.59375 -1.421875 25.265625 0.953125
Q 20.953125 3.328125 18.109375 8.203125
z
M 48.6875 27.296875
Q 48.6875 37.203125 44.609375 42.84375
Q 40.53125 48.484375 33.40625 48.484375
Q 26.265625 48.484375 22.1875 42.84375
Q 18.109375 37.203125 18.109375 27.296875
Q 18.109375 17.390625 22.1875 11.75
Q 26.265625 6.109375 33.40625 6.109375
Q 40.53125 6.109375 44.609375 11.75
Q 48.6875 17.390625 48.6875 27.296875
z
" id="DejaVuSans-112"/>
      <path d="M 9.421875 54.6875
L 18.40625 54.6875
L 18.40625 0
L 9.421875 0
z
M 9.421875 75.984375
L 18.40625 75.984375
L 18.40625 64.59375
L 9.421875 64.59375
z
" id="DejaVuSans-105"/>
      <path d="M 19.671875 34.8125
L 19.671875 8.109375
L 35.5 8.109375
Q 43.453125 8.109375 47.28125 11.40625
Q 51.125 14.703125 51.125 21.484375
Q 51.125 28.328125 47.28125 31.5625
Q 43.453125 34.8125 35.5 34.8125
z
M 19.671875 64.796875
L 19.671875 42.828125
L 34.28125 42.828125
Q 41.5 42.828125 45.03125 45.53125
Q 48.578125 48.25 48.578125 53.8125
Q 48.578125 59.328125 45.03125 62.0625
Q 41.5 64.796875 34.28125 64.796875
z
M 9.8125 72.90625
L 35.015625 72.90625
Q 46.296875 72.90625 52.390625 68.21875
Q 58.5 63.53125 58.5 54.890625
Q 58.5 48.1875 55.375 44.234375
Q 52.25 40.28125 46.1875 39.3125
Q 53.46875 37.75 57.5 32.78125
Q 61.53125 27.828125 61.53125 20.40625
Q 61.53125 10.640625 54.890625 5.3125
Q 48.25 0 35.984375 0
L 9.8125 0
z
" id="DejaVuSans-66"/>
     </defs>
     <use xlink:href="#DejaVuSans-32"/>
     <use x="31.787109" xlink:href="#DejaVuSans-83"/>
     <use x="95.263672" xlink:href="#DejaVuSans-112"/>
     <use x="158.740234" xlink:href="#DejaVuSans-97"/>
     <use x="220.019531" xlink:href="#DejaVuSans-105"/>
     <use x="247.802734" xlink:href="#DejaVuSans-110"/>
     <use x="311.181641" xlink:href="#DejaVuSans-32"/>
     <use x="342.96875" xlink:href="#DejaVuSans-40"/>
     <use x="381.982422" xlink:href="#DejaVuSans-66"/>
     <use x="450.585938" xlink:href="#DejaVuSans-97"/>
     <use x="511.865234" xlink:href="#DejaVuSans-114"/>
     <use x="550.728516" xlink:href="#DejaVuSans-99"/>
     <use x="605.708984" xlink:href="#DejaVuSans-101"/>
     <use x="667.232422" xlink:href="#DejaVuSans-108"/>
     <use x="695.015625" xlink:href="#DejaVuSans-111"/>
     <use x="756.197266" xlink:href="#DejaVuSans-110"/>
     <use x="819.576172" xlink:href="#DejaVuSans-97"/>
     <use x="880.855469" xlink:href="#DejaVuSans-51"/>
     <use x="944.478516" xlink:href="#DejaVuSans-48"/>
     <use x="1008.101562" xlink:href="#DejaVuSans-51"/>
     <use x="1071.724609" xlink:href="#DejaVuSans-49"/>
     <use x="1135.347656" xlink:href="#DejaVuSans-41"/>
    </g>
   </g>
   <g id="text_25">
    <!--  Germany (NAB003) -->
    <g transform="translate(168.351544 69.61958)scale(0.05 -0.05)">
     <defs>
      <path d="M 59.515625 10.40625
L 59.515625 29.984375
L 43.40625 29.984375
L 43.40625 38.09375
L 69.28125 38.09375
L 69.28125 6.78125
Q 63.578125 2.734375 56.6875 0.65625
Q 49.8125 -1.421875 42 -1.421875
Q 24.90625 -1.421875 15.25 8.5625
Q 5.609375 18.5625 5.609375 36.375
Q 5.609375 54.25 15.25 64.234375
Q 24.90625 74.21875 42 74.21875
Q 49.125 74.21875 55.546875 72.453125
Q 61.96875 70.703125 67.390625 67.28125
L 67.390625 56.78125
Q 61.921875 61.421875 55.765625 63.765625
Q 49.609375 66.109375 42.828125 66.109375
Q 29.4375 66.109375 22.71875 58.640625
Q 16.015625 51.171875 16.015625 36.375
Q 16.015625 21.625 22.71875 14.15625
Q 29.4375 6.6875 42.828125 6.6875
Q 48.046875 6.6875 52.140625 7.59375
Q 56.25 8.5 59.515625 10.40625
z
" id="DejaVuSans-71"/>
      <path d="M 52 44.1875
Q 55.375 50.25 60.0625 53.125
Q 64.75 56 71.09375 56
Q 79.640625 56 84.28125 50.015625
Q 88.921875 44.046875 88.921875 33.015625
L 88.921875 0
L 79.890625 0
L 79.890625 32.71875
Q 79.890625 40.578125 77.09375 44.375
Q 74.3125 48.1875 68.609375 48.1875
Q 61.625 48.1875 57.5625 43.546875
Q 53.515625 38.921875 53.515625 30.90625
L 53.515625 0
L 44.484375 0
L 44.484375 32.71875
Q 44.484375 40.625 41.703125 44.40625
Q 38.921875 48.1875 33.109375 48.1875
Q 26.21875 48.1875 22.15625 43.53125
Q 18.109375 38.875 18.109375 30.90625
L 18.109375 0
L 9.078125 0
L 9.078125 54.6875
L 18.109375 54.6875
L 18.109375 46.1875
Q 21.1875 51.21875 25.484375 53.609375
Q 29.78125 56 35.6875 56
Q 41.65625 56 45.828125 52.96875
Q 50 49.953125 52 44.1875
z
" id="DejaVuSans-109"/>
      <path d="M 34.1875 63.1875
L 20.796875 26.90625
L 47.609375 26.90625
z
M 28.609375 72.90625
L 39.796875 72.90625
L 67.578125 0
L 57.328125 0
L 50.6875 18.703125
L 17.828125 18.703125
L 11.1875 0
L 0.78125 0
z
" id="DejaVuSans-65"/>
     </defs>
     <use xlink:href="#DejaVuSans-32"/>
     <use x="31.787109" xlink:href="#DejaVuSans-71"/>
     <use x="109.277344" xlink:href="#DejaVuSans-101"/>
     <use x="170.800781" xlink:href="#DejaVuSans-114"/>
     <use x="210.164062" xlink:href="#DejaVuSans-109"/>
     <use x="307.576172" xlink:href="#DejaVuSans-97"/>
     <use x="368.855469" xlink:href="#DejaVuSans-110"/>
     <use x="432.234375" xlink:href="#DejaVuSans-121"/>
     <use x="491.414062" xlink:href="#DejaVuSans-32"/>
     <use x="523.201172" xlink:href="#DejaVuSans-40"/>
     <use x="562.214844" xlink:href="#DejaVuSans-78"/>
     <use x="637.019531" xlink:href="#DejaVuSans-65"/>
     <use x="705.427734" xlink:href="#DejaVuSans-66"/>
     <use x="774.03125" xlink:href="#DejaVuSans-48"/>
     <use x="837.654297" xlink:href="#DejaVuSans-48"/>
     <use x="901.277344" xlink:href="#DejaVuSans-51"/>
     <use x="964.900391" xlink:href="#DejaVuSans-41"/>
    </g>
   </g>
   <g id="text_26">
    <!--   -->
    <g transform="translate(87.530251 90.159011)scale(0.05 -0.05)">
     <use xlink:href="#DejaVuSans-32"/>
    </g>
   </g>
   <g id="text_27">
    <!--  Germany (MAN008) -->
    <g transform="translate(164.761196 77.526489)scale(0.05 -0.05)">
     <defs>
      <path d="M 9.8125 72.90625
L 24.515625 72.90625
L 43.109375 23.296875
L 61.8125 72.90625
L 76.515625 72.90625
L 76.515625 0
L 66.890625 0
L 66.890625 64.015625
L 48.09375 14.015625
L 38.1875 14.015625
L 19.390625 64.015625
L 19.390625 0
L 9.8125 0
z
" id="DejaVuSans-77"/>
     </defs>
     <use xlink:href="#DejaVuSans-32"/>
     <use x="31.787109" xlink:href="#DejaVuSans-71"/>
     <use x="109.277344" xlink:href="#DejaVuSans-101"/>
     <use x="170.800781" xlink:href="#DejaVuSans-114"/>
     <use x="210.164062" xlink:href="#DejaVuSans-109"/>
     <use x="307.576172" xlink:href="#DejaVuSans-97"/>
     <use x="368.855469" xlink:href="#DejaVuSans-110"/>
     <use x="432.234375" xlink:href="#DejaVuSans-121"/>
     <use x="491.414062" xlink:href="#DejaVuSans-32"/>
     <use x="523.201172" xlink:href="#DejaVuSans-40"/>
     <use x="562.214844" xlink:href="#DejaVuSans-77"/>
     <use x="648.494141" xlink:href="#DejaVuSans-65"/>
     <use x="716.902344" xlink:href="#DejaVuSans-78"/>
     <use x="791.707031" xlink:href="#DejaVuSans-48"/>
     <use x="855.330078" xlink:href="#DejaVuSans-48"/>
     <use x="918.953125" xlink:href="#DejaVuSans-56"/>
     <use x="982.576172" xlink:href="#DejaVuSans-41"/>
    </g>
   </g>
   <g id="text_28">
    <!--   -->
    <g transform="translate(136.060348 102.791534)scale(0.05 -0.05)">
     <use xlink:href="#DejaVuSans-32"/>
    </g>
   </g>
   <g id="text_29">
    <!--  Germany (STA001) -->
    <g transform="translate(219.414279 85.433398)scale(0.05 -0.05)">
     <defs>
      <path d="M -0.296875 72.90625
L 61.375 72.90625
L 61.375 64.59375
L 35.5 64.59375
L 35.5 0
L 25.59375 0
L 25.59375 64.59375
L -0.296875 64.59375
z
" id="DejaVuSans-84"/>
     </defs>
     <use xlink:href="#DejaVuSans-32"/>
     <use x="31.787109" xlink:href="#DejaVuSans-71"/>
     <use x="109.277344" xlink:href="#DejaVuSans-101"/>
     <use x="170.800781" xlink:href="#DejaVuSans-114"/>
     <use x="210.164062" xlink:href="#DejaVuSans-109"/>
     <use x="307.576172" xlink:href="#DejaVuSans-97"/>
     <use x="368.855469" xlink:href="#DejaVuSans-110"/>
     <use x="432.234375" xlink:href="#DejaVuSans-121"/>
     <use x="491.414062" xlink:href="#DejaVuSans-32"/>
     <use x="523.201172" xlink:href="#DejaVuSans-40"/>
     <use x="562.214844" xlink:href="#DejaVuSans-83"/>
     <use x="625.691406" xlink:href="#DejaVuSans-84"/>
     <use x="679.025391" xlink:href="#DejaVuSans-65"/>
     <use x="747.433594" xlink:href="#DejaVuSans-48"/>
     <use x="811.056641" xlink:href="#DejaVuSans-48"/>
     <use x="874.679688" xlink:href="#DejaVuSans-49"/>
     <use x="938.302734" xlink:href="#DejaVuSans-41"/>
    </g>
   </g>
   <g id="text_30">
    <!--   -->
    <g transform="translate(173.891687 120.14967)scale(0.05 -0.05)">
     <use xlink:href="#DejaVuSans-32"/>
    </g>
   </g>
   <g id="text_31">
    <!--  England (NMS002) -->
    <g transform="translate(241.355297 93.340307)scale(0.05 -0.05)">
     <use xlink:href="#DejaVuSans-32"/>
     <use x="31.787109" xlink:href="#DejaVuSans-69"/>
     <use x="94.970703" xlink:href="#DejaVuSans-110"/>
     <use x="158.349609" xlink:href="#DejaVuSans-103"/>
     <use x="221.826172" xlink:href="#DejaVuSans-108"/>
     <use x="249.609375" xlink:href="#DejaVuSans-97"/>
     <use x="310.888672" xlink:href="#DejaVuSans-110"/>
     <use x="374.267578" xlink:href="#DejaVuSans-100"/>
     <use x="437.744141" xlink:href="#DejaVuSans-32"/>
     <use x="469.53125" xlink:href="#DejaVuSans-40"/>
     <use x="508.544922" xlink:href="#DejaVuSans-78"/>
     <use x="583.349609" xlink:href="#DejaVuSans-77"/>
     <use x="669.628906" xlink:href="#DejaVuSans-83"/>
     <use x="733.105469" xlink:href="#DejaVuSans-48"/>
     <use x="796.728516" xlink:href="#DejaVuSans-48"/>
     <use x="860.351562" xlink:href="#DejaVuSans-50"/>
     <use x="923.974609" xlink:href="#DejaVuSans-41"/>
    </g>
   </g>
   <g id="text_32">
    <!--   -->
    <g transform="translate(188.187889 146.959034)scale(0.05 -0.05)">
     <use xlink:href="#DejaVuSans-32"/>
    </g>
   </g>
   <g id="text_33">
    <!--  Germany (ELW098) -->
    <g transform="translate(245.344574 101.247216)scale(0.05 -0.05)">
     <defs>
      <path d="M 3.328125 72.90625
L 13.28125 72.90625
L 28.609375 11.28125
L 43.890625 72.90625
L 54.984375 72.90625
L 70.3125 11.28125
L 85.59375 72.90625
L 95.609375 72.90625
L 77.296875 0
L 64.890625 0
L 49.515625 63.28125
L 33.984375 0
L 21.578125 0
z
" id="DejaVuSans-87"/>
     </defs>
     <use xlink:href="#DejaVuSans-32"/>
     <use x="31.787109" xlink:href="#DejaVuSans-71"/>
     <use x="109.277344" xlink:href="#DejaVuSans-101"/>
     <use x="170.800781" xlink:href="#DejaVuSans-114"/>
     <use x="210.164062" xlink:href="#DejaVuSans-109"/>
     <use x="307.576172" xlink:href="#DejaVuSans-97"/>
     <use x="368.855469" xlink:href="#DejaVuSans-110"/>
     <use x="432.234375" xlink:href="#DejaVuSans-121"/>
     <use x="491.414062" xlink:href="#DejaVuSans-32"/>
     <use x="523.201172" xlink:href="#DejaVuSans-40"/>
     <use x="562.214844" xlink:href="#DejaVuSans-69"/>
     <use x="625.398438" xlink:href="#DejaVuSans-76"/>
     <use x="671.986328" xlink:href="#DejaVuSans-87"/>
     <use x="770.863281" xlink:href="#DejaVuSans-48"/>
     <use x="834.486328" xlink:href="#DejaVuSans-57"/>
     <use x="898.109375" xlink:href="#DejaVuSans-56"/>
     <use x="961.732422" xlink:href="#DejaVuSans-41"/>
    </g>
   </g>
   <g id="text_34">
    <!--   -->
    <g transform="translate(283.090297 121.50867)scale(0.05 -0.05)">
     <use xlink:href="#DejaVuSans-32"/>
    </g>
   </g>
   <g id="text_35">
    <!--  England (BED030) -->
    <g transform="translate(283.090297 109.154125)scale(0.05 -0.05)">
     <defs>
      <path d="M 19.671875 64.796875
L 19.671875 8.109375
L 31.59375 8.109375
Q 46.6875 8.109375 53.6875 14.9375
Q 60.6875 21.78125 60.6875 36.53125
Q 60.6875 51.171875 53.6875 57.984375
Q 46.6875 64.796875 31.59375 64.796875
z
M 9.8125 72.90625
L 30.078125 72.90625
Q 51.265625 72.90625 61.171875 64.09375
Q 71.09375 55.28125 71.09375 36.53125
Q 71.09375 17.671875 61.125 8.828125
Q 51.171875 0 30.078125 0
L 9.8125 0
z
" id="DejaVuSans-68"/>
     </defs>
     <use xlink:href="#DejaVuSans-32"/>
     <use x="31.787109" xlink:href="#DejaVuSans-69"/>
     <use x="94.970703" xlink:href="#DejaVuSans-110"/>
     <use x="158.349609" xlink:href="#DejaVuSans-103"/>
     <use x="221.826172" xlink:href="#DejaVuSans-108"/>
     <use x="249.609375" xlink:href="#DejaVuSans-97"/>
     <use x="310.888672" xlink:href="#DejaVuSans-110"/>
     <use x="374.267578" xlink:href="#DejaVuSans-100"/>
     <use x="437.744141" xlink:href="#DejaVuSans-32"/>
     <use x="469.53125" xlink:href="#DejaVuSans-40"/>
     <use x="508.544922" xlink:href="#DejaVuSans-66"/>
     <use x="577.148438" xlink:href="#DejaVuSans-69"/>
     <use x="640.332031" xlink:href="#DejaVuSans-68"/>
     <use x="717.333984" xlink:href="#DejaVuSans-48"/>
     <use x="780.957031" xlink:href="#DejaVuSans-51"/>
     <use x="844.580078" xlink:href="#DejaVuSans-48"/>
     <use x="908.203125" xlink:href="#DejaVuSans-41"/>
    </g>
   </g>
   <g id="text_36">
    <!--   -->
    <g transform="translate(286.82563 133.863216)scale(0.05 -0.05)">
     <use xlink:href="#DejaVuSans-32"/>
    </g>
   </g>
   <g id="text_37">
    <!--  England (BED028) -->
    <g transform="translate(286.82563 117.061034)scale(0.05 -0.05)">
     <use xlink:href="#DejaVuSans-32"/>
     <use x="31.787109" xlink:href="#DejaVuSans-69"/>
     <use x="94.970703" xlink:href="#DejaVuSans-110"/>
     <use x="158.349609" xlink:href="#DejaVuSans-103"/>
     <use x="221.826172" xlink:href="#DejaVuSans-108"/>
     <use x="249.609375" xlink:href="#DejaVuSans-97"/>
     <use x="310.888672" xlink:href="#DejaVuSans-110"/>
     <use x="374.267578" xlink:href="#DejaVuSans-100"/>
     <use x="437.744141" xlink:href="#DejaVuSans-32"/>
     <use x="469.53125" xlink:href="#DejaVuSans-40"/>
     <use x="508.544922" xlink:href="#DejaVuSans-66"/>
     <use x="577.148438" xlink:href="#DejaVuSans-69"/>
     <use x="640.332031" xlink:href="#DejaVuSans-68"/>
     <use x="717.333984" xlink:href="#DejaVuSans-48"/>
     <use x="780.957031" xlink:href="#DejaVuSans-50"/>
     <use x="844.580078" xlink:href="#DejaVuSans-56"/>
     <use x="908.203125" xlink:href="#DejaVuSans-41"/>
    </g>
   </g>
   <g id="text_38">
    <!--  England (BED034) -->
    <g transform="translate(286.82563 124.967943)scale(0.05 -0.05)">
     <use xlink:href="#DejaVuSans-32"/>
     <use x="31.787109" xlink:href="#DejaVuSans-69"/>
     <use x="94.970703" xlink:href="#DejaVuSans-110"/>
     <use x="158.349609" xlink:href="#DejaVuSans-103"/>
     <use x="221.826172" xlink:href="#DejaVuSans-108"/>
     <use x="249.609375" xlink:href="#DejaVuSans-97"/>
     <use x="310.888672" xlink:href="#DejaVuSans-110"/>
     <use x="374.267578" xlink:href="#DejaVuSans-100"/>
     <use x="437.744141" xlink:href="#DejaVuSans-32"/>
     <use x="469.53125" xlink:href="#DejaVuSans-40"/>
     <use x="508.544922" xlink:href="#DejaVuSans-66"/>
     <use x="577.148438" xlink:href="#DejaVuSans-69"/>
     <use x="640.332031" xlink:href="#DejaVuSans-68"/>
     <use x="717.333984" xlink:href="#DejaVuSans-48"/>
     <use x="780.957031" xlink:href="#DejaVuSans-51"/>
     <use x="844.580078" xlink:href="#DejaVuSans-52"/>
     <use x="908.203125" xlink:href="#DejaVuSans-41"/>
    </g>
   </g>
   <g id="text_39">
    <!--  England (BED024) -->
    <g transform="translate(286.82563 132.874852)scale(0.05 -0.05)">
     <use xlink:href="#DejaVuSans-32"/>
     <use x="31.787109" xlink:href="#DejaVuSans-69"/>
     <use x="94.970703" xlink:href="#DejaVuSans-110"/>
     <use x="158.349609" xlink:href="#DejaVuSans-103"/>
     <use x="221.826172" xlink:href="#DejaVuSans-108"/>
     <use x="249.609375" xlink:href="#DejaVuSans-97"/>
     <use x="310.888672" xlink:href="#DejaVuSans-110"/>
     <use x="374.267578" xlink:href="#DejaVuSans-100"/>
     <use x="437.744141" xlink:href="#DejaVuSans-32"/>
     <use x="469.53125" xlink:href="#DejaVuSans-40"/>
     <use x="508.544922" xlink:href="#DejaVuSans-66"/>
     <use x="577.148438" xlink:href="#DejaVuSans-69"/>
     <use x="640.332031" xlink:href="#DejaVuSans-68"/>
     <use x="717.333984" xlink:href="#DejaVuSans-48"/>
     <use x="780.957031" xlink:href="#DejaVuSans-50"/>
     <use x="844.580078" xlink:href="#DejaVuSans-52"/>
     <use x="908.203125" xlink:href="#DejaVuSans-41"/>
    </g>
   </g>
   <g id="text_40">
    <!--   -->
    <g transform="translate(327.619263 150.665398)scale(0.05 -0.05)">
     <use xlink:href="#DejaVuSans-32"/>
    </g>
   </g>
   <g id="text_41">
    <!--  France (OBS137) -->
    <g transform="translate(339.092563 140.781761)scale(0.05 -0.05)">
     <use xlink:href="#DejaVuSans-32"/>
     <use x="31.787109" xlink:href="#DejaVuSans-70"/>
     <use x="82.056641" xlink:href="#DejaVuSans-114"/>
     <use x="123.169922" xlink:href="#DejaVuSans-97"/>
     <use x="184.449219" xlink:href="#DejaVuSans-110"/>
     <use x="247.828125" xlink:href="#DejaVuSans-99"/>
     <use x="302.808594" xlink:href="#DejaVuSans-101"/>
     <use x="364.332031" xlink:href="#DejaVuSans-32"/>
     <use x="396.119141" xlink:href="#DejaVuSans-40"/>
     <use x="435.132812" xlink:href="#DejaVuSans-79"/>
     <use x="513.84375" xlink:href="#DejaVuSans-66"/>
     <use x="580.697266" xlink:href="#DejaVuSans-83"/>
     <use x="644.173828" xlink:href="#DejaVuSans-49"/>
     <use x="707.796875" xlink:href="#DejaVuSans-51"/>
     <use x="771.419922" xlink:href="#DejaVuSans-55"/>
     <use x="835.042969" xlink:href="#DejaVuSans-41"/>
    </g>
   </g>
   <g id="text_42">
    <!--   -->
    <g transform="translate(335.07953 160.549034)scale(0.05 -0.05)">
     <use xlink:href="#DejaVuSans-32"/>
    </g>
   </g>
   <g id="text_43">
    <!--  France (OBS107) -->
    <g transform="translate(339.890418 148.68867)scale(0.05 -0.05)">
     <use xlink:href="#DejaVuSans-32"/>
     <use x="31.787109" xlink:href="#DejaVuSans-70"/>
     <use x="82.056641" xlink:href="#DejaVuSans-114"/>
     <use x="123.169922" xlink:href="#DejaVuSans-97"/>
     <use x="184.449219" xlink:href="#DejaVuSans-110"/>
     <use x="247.828125" xlink:href="#DejaVuSans-99"/>
     <use x="302.808594" xlink:href="#DejaVuSans-101"/>
     <use x="364.332031" xlink:href="#DejaVuSans-32"/>
     <use x="396.119141" xlink:href="#DejaVuSans-40"/>
     <use x="435.132812" xlink:href="#DejaVuSans-79"/>
     <use x="513.84375" xlink:href="#DejaVuSans-66"/>
     <use x="580.697266" xlink:href="#DejaVuSans-83"/>
     <use x="644.173828" xlink:href="#DejaVuSans-49"/>
     <use x="707.796875" xlink:href="#DejaVuSans-48"/>
     <use x="771.419922" xlink:href="#DejaVuSans-55"/>
     <use x="835.042969" xlink:href="#DejaVuSans-41"/>
    </g>
   </g>
   <g id="text_44">
    <!--  France (OBS124) -->
    <g transform="translate(339.092563 156.59558)scale(0.05 -0.05)">
     <use xlink:href="#DejaVuSans-32"/>
     <use x="31.787109" xlink:href="#DejaVuSans-70"/>
     <use x="82.056641" xlink:href="#DejaVuSans-114"/>
     <use x="123.169922" xlink:href="#DejaVuSans-97"/>
     <use x="184.449219" xlink:href="#DejaVuSans-110"/>
     <use x="247.828125" xlink:href="#DejaVuSans-99"/>
     <use x="302.808594" xlink:href="#DejaVuSans-101"/>
     <use x="364.332031" xlink:href="#DejaVuSans-32"/>
     <use x="396.119141" xlink:href="#DejaVuSans-40"/>
     <use x="435.132812" xlink:href="#DejaVuSans-79"/>
     <use x="513.84375" xlink:href="#DejaVuSans-66"/>
     <use x="580.697266" xlink:href="#DejaVuSans-83"/>
     <use x="644.173828" xlink:href="#DejaVuSans-49"/>
     <use x="707.796875" xlink:href="#DejaVuSans-50"/>
     <use x="771.419922" xlink:href="#DejaVuSans-52"/>
     <use x="835.042969" xlink:href="#DejaVuSans-41"/>
    </g>
   </g>
   <g id="text_45">
    <!--  France (OBS110) -->
    <g transform="translate(339.890418 164.502489)scale(0.05 -0.05)">
     <use xlink:href="#DejaVuSans-32"/>
     <use x="31.787109" xlink:href="#DejaVuSans-70"/>
     <use x="82.056641" xlink:href="#DejaVuSans-114"/>
     <use x="123.169922" xlink:href="#DejaVuSans-97"/>
     <use x="184.449219" xlink:href="#DejaVuSans-110"/>
     <use x="247.828125" xlink:href="#DejaVuSans-99"/>
     <use x="302.808594" xlink:href="#DejaVuSans-101"/>
     <use x="364.332031" xlink:href="#DejaVuSans-32"/>
     <use x="396.119141" xlink:href="#DejaVuSans-40"/>
     <use x="435.132812" xlink:href="#DejaVuSans-79"/>
     <use x="513.84375" xlink:href="#DejaVuSans-66"/>
     <use x="580.697266" xlink:href="#DejaVuSans-83"/>
     <use x="644.173828" xlink:href="#DejaVuSans-49"/>
     <use x="707.796875" xlink:href="#DejaVuSans-49"/>
     <use x="771.419922" xlink:href="#DejaVuSans-48"/>
     <use x="835.042969" xlink:href="#DejaVuSans-41"/>
    </g>
   </g>
   <g id="text_46">
    <!--  France (OBS116) -->
    <g transform="translate(339.890418 172.409398)scale(0.05 -0.05)">
     <use xlink:href="#DejaVuSans-32"/>
     <use x="31.787109" xlink:href="#DejaVuSans-70"/>
     <use x="82.056641" xlink:href="#DejaVuSans-114"/>
     <use x="123.169922" xlink:href="#DejaVuSans-97"/>
     <use x="184.449219" xlink:href="#DejaVuSans-110"/>
     <use x="247.828125" xlink:href="#DejaVuSans-99"/>
     <use x="302.808594" xlink:href="#DejaVuSans-101"/>
     <use x="364.332031" xlink:href="#DejaVuSans-32"/>
     <use x="396.119141" xlink:href="#DejaVuSans-40"/>
     <use x="435.132812" xlink:href="#DejaVuSans-79"/>
     <use x="513.84375" xlink:href="#DejaVuSans-66"/>
     <use x="580.697266" xlink:href="#DejaVuSans-83"/>
     <use x="644.173828" xlink:href="#DejaVuSans-49"/>
     <use x="707.796875" xlink:href="#DejaVuSans-49"/>
     <use x="771.419922" xlink:href="#DejaVuSans-54"/>
     <use x="835.042969" xlink:href="#DejaVuSans-41"/>
    </g>
   </g>
   <g id="text_47">
    <!--   -->
    <g transform="translate(260.910529 192.670852)scale(0.05 -0.05)">
     <use xlink:href="#DejaVuSans-32"/>
    </g>
   </g>
   <g id="text_48">
    <!--  Germany (LBG002) -->
    <g transform="translate(269.781102 180.316307)scale(0.05 -0.05)">
     <use xlink:href="#DejaVuSans-32"/>
     <use x="31.787109" xlink:href="#DejaVuSans-71"/>
     <use x="109.277344" xlink:href="#DejaVuSans-101"/>
     <use x="170.800781" xlink:href="#DejaVuSans-114"/>
     <use x="210.164062" xlink:href="#DejaVuSans-109"/>
     <use x="307.576172" xlink:href="#DejaVuSans-97"/>
     <use x="368.855469" xlink:href="#DejaVuSans-110"/>
     <use x="432.234375" xlink:href="#DejaVuSans-121"/>
     <use x="491.414062" xlink:href="#DejaVuSans-32"/>
     <use x="523.201172" xlink:href="#DejaVuSans-40"/>
     <use x="562.214844" xlink:href="#DejaVuSans-76"/>
     <use x="617.927734" xlink:href="#DejaVuSans-66"/>
     <use x="684.78125" xlink:href="#DejaVuSans-71"/>
     <use x="762.271484" xlink:href="#DejaVuSans-48"/>
     <use x="825.894531" xlink:href="#DejaVuSans-48"/>
     <use x="889.517578" xlink:href="#DejaVuSans-50"/>
     <use x="953.140625" xlink:href="#DejaVuSans-41"/>
    </g>
   </g>
   <g id="text_49">
    <!--   -->
    <g transform="translate(291.483919 205.025398)scale(0.05 -0.05)">
     <use xlink:href="#DejaVuSans-32"/>
    </g>
   </g>
   <g id="text_50">
    <!--  Germany (BRA001) -->
    <g transform="translate(298.401946 188.223216)scale(0.05 -0.05)">
     <defs>
      <path d="M 44.390625 34.1875
Q 47.5625 33.109375 50.5625 29.59375
Q 53.5625 26.078125 56.59375 19.921875
L 66.609375 0
L 56 0
L 46.6875 18.703125
Q 43.0625 26.03125 39.671875 28.421875
Q 36.28125 30.8125 30.421875 30.8125
L 19.671875 30.8125
L 19.671875 0
L 9.8125 0
L 9.8125 72.90625
L 32.078125 72.90625
Q 44.578125 72.90625 50.734375 67.671875
Q 56.890625 62.453125 56.890625 51.90625
Q 56.890625 45.015625 53.6875 40.46875
Q 50.484375 35.9375 44.390625 34.1875
z
M 19.671875 64.796875
L 19.671875 38.921875
L 32.078125 38.921875
Q 39.203125 38.921875 42.84375 42.21875
Q 46.484375 45.515625 46.484375 51.90625
Q 46.484375 58.296875 42.84375 61.546875
Q 39.203125 64.796875 32.078125 64.796875
z
" id="DejaVuSans-82"/>
     </defs>
     <use xlink:href="#DejaVuSans-32"/>
     <use x="31.787109" xlink:href="#DejaVuSans-71"/>
     <use x="109.277344" xlink:href="#DejaVuSans-101"/>
     <use x="170.800781" xlink:href="#DejaVuSans-114"/>
     <use x="210.164062" xlink:href="#DejaVuSans-109"/>
     <use x="307.576172" xlink:href="#DejaVuSans-97"/>
     <use x="368.855469" xlink:href="#DejaVuSans-110"/>
     <use x="432.234375" xlink:href="#DejaVuSans-121"/>
     <use x="491.414062" xlink:href="#DejaVuSans-32"/>
     <use x="523.201172" xlink:href="#DejaVuSans-40"/>
     <use x="562.214844" xlink:href="#DejaVuSans-66"/>
     <use x="630.818359" xlink:href="#DejaVuSans-82"/>
     <use x="696.300781" xlink:href="#DejaVuSans-65"/>
     <use x="764.708984" xlink:href="#DejaVuSans-48"/>
     <use x="828.332031" xlink:href="#DejaVuSans-48"/>
     <use x="891.955078" xlink:href="#DejaVuSans-49"/>
     <use x="955.578125" xlink:href="#DejaVuSans-41"/>
    </g>
   </g>
   <g id="text_51">
    <!--   -->
    <g transform="translate(297.230038 221.82758)scale(0.05 -0.05)">
     <use xlink:href="#DejaVuSans-32"/>
    </g>
   </g>
   <g id="text_52">
    <!--  Switzerland (STN007) -->
    <g transform="translate(305.061002 196.130125)scale(0.05 -0.05)">
     <defs>
      <path d="M 18.3125 70.21875
L 18.3125 54.6875
L 36.8125 54.6875
L 36.8125 47.703125
L 18.3125 47.703125
L 18.3125 18.015625
Q 18.3125 11.328125 20.140625 9.421875
Q 21.96875 7.515625 27.59375 7.515625
L 36.8125 7.515625
L 36.8125 0
L 27.59375 0
Q 17.1875 0 13.234375 3.875
Q 9.28125 7.765625 9.28125 18.015625
L 9.28125 47.703125
L 2.6875 47.703125
L 2.6875 54.6875
L 9.28125 54.6875
L 9.28125 70.21875
z
" id="DejaVuSans-116"/>
      <path d="M 5.515625 54.6875
L 48.1875 54.6875
L 48.1875 46.484375
L 14.40625 7.171875
L 48.1875 7.171875
L 48.1875 0
L 4.296875 0
L 4.296875 8.203125
L 38.09375 47.515625
L 5.515625 47.515625
z
" id="DejaVuSans-122"/>
     </defs>
     <use xlink:href="#DejaVuSans-32"/>
     <use x="31.787109" xlink:href="#DejaVuSans-83"/>
     <use x="95.263672" xlink:href="#DejaVuSans-119"/>
     <use x="177.050781" xlink:href="#DejaVuSans-105"/>
     <use x="204.833984" xlink:href="#DejaVuSans-116"/>
     <use x="244.042969" xlink:href="#DejaVuSans-122"/>
     <use x="296.533203" xlink:href="#DejaVuSans-101"/>
     <use x="358.056641" xlink:href="#DejaVuSans-114"/>
     <use x="399.169922" xlink:href="#DejaVuSans-108"/>
     <use x="426.953125" xlink:href="#DejaVuSans-97"/>
     <use x="488.232422" xlink:href="#DejaVuSans-110"/>
     <use x="551.611328" xlink:href="#DejaVuSans-100"/>
     <use x="615.087891" xlink:href="#DejaVuSans-32"/>
     <use x="646.875" xlink:href="#DejaVuSans-40"/>
     <use x="685.888672" xlink:href="#DejaVuSans-83"/>
     <use x="749.365234" xlink:href="#DejaVuSans-84"/>
     <use x="810.449219" xlink:href="#DejaVuSans-78"/>
     <use x="885.253906" xlink:href="#DejaVuSans-48"/>
     <use x="948.876953" xlink:href="#DejaVuSans-48"/>
     <use x="1012.5" xlink:href="#DejaVuSans-55"/>
     <use x="1076.123047" xlink:href="#DejaVuSans-41"/>
    </g>
   </g>
   <g id="text_53">
    <!--  Switzerland (STN019) -->
    <g transform="translate(297.230038 204.037034)scale(0.05 -0.05)">
     <use xlink:href="#DejaVuSans-32"/>
     <use x="31.787109" xlink:href="#DejaVuSans-83"/>
     <use x="95.263672" xlink:href="#DejaVuSans-119"/>
     <use x="177.050781" xlink:href="#DejaVuSans-105"/>
     <use x="204.833984" xlink:href="#DejaVuSans-116"/>
     <use x="244.042969" xlink:href="#DejaVuSans-122"/>
     <use x="296.533203" xlink:href="#DejaVuSans-101"/>
     <use x="358.056641" xlink:href="#DejaVuSans-114"/>
     <use x="399.169922" xlink:href="#DejaVuSans-108"/>
     <use x="426.953125" xlink:href="#DejaVuSans-97"/>
     <use x="488.232422" xlink:href="#DejaVuSans-110"/>
     <use x="551.611328" xlink:href="#DejaVuSans-100"/>
     <use x="615.087891" xlink:href="#DejaVuSans-32"/>
     <use x="646.875" xlink:href="#DejaVuSans-40"/>
     <use x="685.888672" xlink:href="#DejaVuSans-83"/>
     <use x="749.365234" xlink:href="#DejaVuSans-84"/>
     <use x="810.449219" xlink:href="#DejaVuSans-78"/>
     <use x="885.253906" xlink:href="#DejaVuSans-48"/>
     <use x="948.876953" xlink:href="#DejaVuSans-49"/>
     <use x="1012.5" xlink:href="#DejaVuSans-57"/>
     <use x="1076.123047" xlink:href="#DejaVuSans-41"/>
    </g>
   </g>
   <g id="text_54">
    <!--  Switzerland (STN014) -->
    <g transform="translate(297.230038 211.943943)scale(0.05 -0.05)">
     <use xlink:href="#DejaVuSans-32"/>
     <use x="31.787109" xlink:href="#DejaVuSans-83"/>
     <use x="95.263672" xlink:href="#DejaVuSans-119"/>
     <use x="177.050781" xlink:href="#DejaVuSans-105"/>
     <use x="204.833984" xlink:href="#DejaVuSans-116"/>
     <use x="244.042969" xlink:href="#DejaVuSans-122"/>
     <use x="296.533203" xlink:href="#DejaVuSans-101"/>
     <use x="358.056641" xlink:href="#DejaVuSans-114"/>
     <use x="399.169922" xlink:href="#DejaVuSans-108"/>
     <use x="426.953125" xlink:href="#DejaVuSans-97"/>
     <use x="488.232422" xlink:href="#DejaVuSans-110"/>
     <use x="551.611328" xlink:href="#DejaVuSans-100"/>
     <use x="615.087891" xlink:href="#DejaVuSans-32"/>
     <use x="646.875" xlink:href="#DejaVuSans-40"/>
     <use x="685.888672" xlink:href="#DejaVuSans-83"/>
     <use x="749.365234" xlink:href="#DejaVuSans-84"/>
     <use x="810.449219" xlink:href="#DejaVuSans-78"/>
     <use x="885.253906" xlink:href="#DejaVuSans-48"/>
     <use x="948.876953" xlink:href="#DejaVuSans-49"/>
     <use x="1012.5" xlink:href="#DejaVuSans-52"/>
     <use x="1076.123047" xlink:href="#DejaVuSans-41"/>
    </g>
   </g>
   <g id="text_55">
    <!--  Switzerland (STN020) -->
    <g transform="translate(297.230038 219.850852)scale(0.05 -0.05)">
     <use xlink:href="#DejaVuSans-32"/>
     <use x="31.787109" xlink:href="#DejaVuSans-83"/>
     <use x="95.263672" xlink:href="#DejaVuSans-119"/>
     <use x="177.050781" xlink:href="#DejaVuSans-105"/>
     <use x="204.833984" xlink:href="#DejaVuSans-116"/>
     <use x="244.042969" xlink:href="#DejaVuSans-122"/>
     <use x="296.533203" xlink:href="#DejaVuSans-101"/>
     <use x="358.056641" xlink:href="#DejaVuSans-114"/>
     <use x="399.169922" xlink:href="#DejaVuSans-108"/>
     <use x="426.953125" xlink:href="#DejaVuSans-97"/>
     <use x="488.232422" xlink:href="#DejaVuSans-110"/>
     <use x="551.611328" xlink:href="#DejaVuSans-100"/>
     <use x="615.087891" xlink:href="#DejaVuSans-32"/>
     <use x="646.875" xlink:href="#DejaVuSans-40"/>
     <use x="685.888672" xlink:href="#DejaVuSans-83"/>
     <use x="749.365234" xlink:href="#DejaVuSans-84"/>
     <use x="810.449219" xlink:href="#DejaVuSans-78"/>
     <use x="885.253906" xlink:href="#DejaVuSans-48"/>
     <use x="948.876953" xlink:href="#DejaVuSans-50"/>
     <use x="1012.5" xlink:href="#DejaVuSans-48"/>
     <use x="1076.123047" xlink:href="#DejaVuSans-41"/>
    </g>
   </g>
   <g id="text_56">
    <!--   -->
    <g transform="translate(301.788338 231.711216)scale(0.05 -0.05)">
     <use xlink:href="#DejaVuSans-32"/>
    </g>
   </g>
   <g id="text_57">
    <!--  Switzerland (STN002) -->
    <g transform="translate(301.788338 227.757761)scale(0.05 -0.05)">
     <use xlink:href="#DejaVuSans-32"/>
     <use x="31.787109" xlink:href="#DejaVuSans-83"/>
     <use x="95.263672" xlink:href="#DejaVuSans-119"/>
     <use x="177.050781" xlink:href="#DejaVuSans-105"/>
     <use x="204.833984" xlink:href="#DejaVuSans-116"/>
     <use x="244.042969" xlink:href="#DejaVuSans-122"/>
     <use x="296.533203" xlink:href="#DejaVuSans-101"/>
     <use x="358.056641" xlink:href="#DejaVuSans-114"/>
     <use x="399.169922" xlink:href="#DejaVuSans-108"/>
     <use x="426.953125" xlink:href="#DejaVuSans-97"/>
     <use x="488.232422" xlink:href="#DejaVuSans-110"/>
     <use x="551.611328" xlink:href="#DejaVuSans-100"/>
     <use x="615.087891" xlink:href="#DejaVuSans-32"/>
     <use x="646.875" xlink:href="#DejaVuSans-40"/>
     <use x="685.888672" xlink:href="#DejaVuSans-83"/>
     <use x="749.365234" xlink:href="#DejaVuSans-84"/>
     <use x="810.449219" xlink:href="#DejaVuSans-78"/>
     <use x="885.253906" xlink:href="#DejaVuSans-48"/>
     <use x="948.876953" xlink:href="#DejaVuSans-48"/>
     <use x="1012.5" xlink:href="#DejaVuSans-50"/>
     <use x="1076.123047" xlink:href="#DejaVuSans-41"/>
    </g>
   </g>
   <g id="text_58">
    <!--  Switzerland (STN008) -->
    <g transform="translate(301.788338 235.66467)scale(0.05 -0.05)">
     <use xlink:href="#DejaVuSans-32"/>
     <use x="31.787109" xlink:href="#DejaVuSans-83"/>
     <use x="95.263672" xlink:href="#DejaVuSans-119"/>
     <use x="177.050781" xlink:href="#DejaVuSans-105"/>
     <use x="204.833984" xlink:href="#DejaVuSans-116"/>
     <use x="244.042969" xlink:href="#DejaVuSans-122"/>
     <use x="296.533203" xlink:href="#DejaVuSans-101"/>
     <use x="358.056641" xlink:href="#DejaVuSans-114"/>
     <use x="399.169922" xlink:href="#DejaVuSans-108"/>
     <use x="426.953125" xlink:href="#DejaVuSans-97"/>
     <use x="488.232422" xlink:href="#DejaVuSans-110"/>
     <use x="551.611328" xlink:href="#DejaVuSans-100"/>
     <use x="615.087891" xlink:href="#DejaVuSans-32"/>
     <use x="646.875" xlink:href="#DejaVuSans-40"/>
     <use x="685.888672" xlink:href="#DejaVuSans-83"/>
     <use x="749.365234" xlink:href="#DejaVuSans-84"/>
     <use x="810.449219" xlink:href="#DejaVuSans-78"/>
     <use x="885.253906" xlink:href="#DejaVuSans-48"/>
     <use x="948.876953" xlink:href="#DejaVuSans-48"/>
     <use x="1012.5" xlink:href="#DejaVuSans-56"/>
     <use x="1076.123047" xlink:href="#DejaVuSans-41"/>
    </g>
   </g>
   <g id="text_59">
    <!--   -->
    <g transform="translate(301.788338 247.525034)scale(0.05 -0.05)">
     <use xlink:href="#DejaVuSans-32"/>
    </g>
   </g>
   <g id="text_60">
    <!--  Switzerland (STN013) -->
    <g transform="translate(301.788338 243.57158)scale(0.05 -0.05)">
     <use xlink:href="#DejaVuSans-32"/>
     <use x="31.787109" xlink:href="#DejaVuSans-83"/>
     <use x="95.263672" xlink:href="#DejaVuSans-119"/>
     <use x="177.050781" xlink:href="#DejaVuSans-105"/>
     <use x="204.833984" xlink:href="#DejaVuSans-116"/>
     <use x="244.042969" xlink:href="#DejaVuSans-122"/>
     <use x="296.533203" xlink:href="#DejaVuSans-101"/>
     <use x="358.056641" xlink:href="#DejaVuSans-114"/>
     <use x="399.169922" xlink:href="#DejaVuSans-108"/>
     <use x="426.953125" xlink:href="#DejaVuSans-97"/>
     <use x="488.232422" xlink:href="#DejaVuSans-110"/>
     <use x="551.611328" xlink:href="#DejaVuSans-100"/>
     <use x="615.087891" xlink:href="#DejaVuSans-32"/>
     <use x="646.875" xlink:href="#DejaVuSans-40"/>
     <use x="685.888672" xlink:href="#DejaVuSans-83"/>
     <use x="749.365234" xlink:href="#DejaVuSans-84"/>
     <use x="810.449219" xlink:href="#DejaVuSans-78"/>
     <use x="885.253906" xlink:href="#DejaVuSans-48"/>
     <use x="948.876953" xlink:href="#DejaVuSans-49"/>
     <use x="1012.5" xlink:href="#DejaVuSans-51"/>
     <use x="1076.123047" xlink:href="#DejaVuSans-41"/>
    </g>
   </g>
   <g id="text_61">
    <!--  Switzerland (STN021) -->
    <g transform="translate(301.788338 251.478489)scale(0.05 -0.05)">
     <use xlink:href="#DejaVuSans-32"/>
     <use x="31.787109" xlink:href="#DejaVuSans-83"/>
     <use x="95.263672" xlink:href="#DejaVuSans-119"/>
     <use x="177.050781" xlink:href="#DejaVuSans-105"/>
     <use x="204.833984" xlink:href="#DejaVuSans-116"/>
     <use x="244.042969" xlink:href="#DejaVuSans-122"/>
     <use x="296.533203" xlink:href="#DejaVuSans-101"/>
     <use x="358.056641" xlink:href="#DejaVuSans-114"/>
     <use x="399.169922" xlink:href="#DejaVuSans-108"/>
     <use x="426.953125" xlink:href="#DejaVuSans-97"/>
     <use x="488.232422" xlink:href="#DejaVuSans-110"/>
     <use x="551.611328" xlink:href="#DejaVuSans-100"/>
     <use x="615.087891" xlink:href="#DejaVuSans-32"/>
     <use x="646.875" xlink:href="#DejaVuSans-40"/>
     <use x="685.888672" xlink:href="#DejaVuSans-83"/>
     <use x="749.365234" xlink:href="#DejaVuSans-84"/>
     <use x="810.449219" xlink:href="#DejaVuSans-78"/>
     <use x="885.253906" xlink:href="#DejaVuSans-48"/>
     <use x="948.876953" xlink:href="#DejaVuSans-50"/>
     <use x="1012.5" xlink:href="#DejaVuSans-49"/>
     <use x="1076.123047" xlink:href="#DejaVuSans-41"/>
    </g>
   </g>
   <g id="text_62">
    <!--   -->
    <g transform="translate(30.76366 267.292307)scale(0.05 -0.05)">
     <use xlink:href="#DejaVuSans-32"/>
    </g>
   </g>
   <g id="text_63">
    <!--  The Netherlands (Ber37) -->
    <g transform="translate(171.542965 259.385398)scale(0.05 -0.05)">
     <defs>
      <path d="M 54.890625 33.015625
L 54.890625 0
L 45.90625 0
L 45.90625 32.71875
Q 45.90625 40.484375 42.875 44.328125
Q 39.84375 48.1875 33.796875 48.1875
Q 26.515625 48.1875 22.3125 43.546875
Q 18.109375 38.921875 18.109375 30.90625
L 18.109375 0
L 9.078125 0
L 9.078125 75.984375
L 18.109375 75.984375
L 18.109375 46.1875
Q 21.34375 51.125 25.703125 53.5625
Q 30.078125 56 35.796875 56
Q 45.21875 56 50.046875 50.171875
Q 54.890625 44.34375 54.890625 33.015625
z
" id="DejaVuSans-104"/>
      <path d="M 44.28125 53.078125
L 44.28125 44.578125
Q 40.484375 46.53125 36.375 47.5
Q 32.28125 48.484375 27.875 48.484375
Q 21.1875 48.484375 17.84375 46.4375
Q 14.5 44.390625 14.5 40.28125
Q 14.5 37.15625 16.890625 35.375
Q 19.28125 33.59375 26.515625 31.984375
L 29.59375 31.296875
Q 39.15625 29.25 43.1875 25.515625
Q 47.21875 21.78125 47.21875 15.09375
Q 47.21875 7.46875 41.1875 3.015625
Q 35.15625 -1.421875 24.609375 -1.421875
Q 20.21875 -1.421875 15.453125 -0.5625
Q 10.6875 0.296875 5.421875 2
L 5.421875 11.28125
Q 10.40625 8.6875 15.234375 7.390625
Q 20.0625 6.109375 24.8125 6.109375
Q 31.15625 6.109375 34.5625 8.28125
Q 37.984375 10.453125 37.984375 14.40625
Q 37.984375 18.0625 35.515625 20.015625
Q 33.0625 21.96875 24.703125 23.78125
L 21.578125 24.515625
Q 13.234375 26.265625 9.515625 29.90625
Q 5.8125 33.546875 5.8125 39.890625
Q 5.8125 47.609375 11.28125 51.796875
Q 16.75 56 26.8125 56
Q 31.78125 56 36.171875 55.265625
Q 40.578125 54.546875 44.28125 53.078125
z
" id="DejaVuSans-115"/>
     </defs>
     <use xlink:href="#DejaVuSans-32"/>
     <use x="31.787109" xlink:href="#DejaVuSans-84"/>
     <use x="92.871094" xlink:href="#DejaVuSans-104"/>
     <use x="156.25" xlink:href="#DejaVuSans-101"/>
     <use x="217.773438" xlink:href="#DejaVuSans-32"/>
     <use x="249.560547" xlink:href="#DejaVuSans-78"/>
     <use x="324.365234" xlink:href="#DejaVuSans-101"/>
     <use x="385.888672" xlink:href="#DejaVuSans-116"/>
     <use x="425.097656" xlink:href="#DejaVuSans-104"/>
     <use x="488.476562" xlink:href="#DejaVuSans-101"/>
     <use x="550" xlink:href="#DejaVuSans-114"/>
     <use x="591.113281" xlink:href="#DejaVuSans-108"/>
     <use x="618.896484" xlink:href="#DejaVuSans-97"/>
     <use x="680.175781" xlink:href="#DejaVuSans-110"/>
     <use x="743.554688" xlink:href="#DejaVuSans-100"/>
     <use x="807.03125" xlink:href="#DejaVuSans-115"/>
     <use x="859.130859" xlink:href="#DejaVuSans-32"/>
     <use x="890.917969" xlink:href="#DejaVuSans-40"/>
     <use x="929.931641" xlink:href="#DejaVuSans-66"/>
     <use x="998.535156" xlink:href="#DejaVuSans-101"/>
     <use x="1060.058594" xlink:href="#DejaVuSans-114"/>
     <use x="1101.171875" xlink:href="#DejaVuSans-51"/>
     <use x="1164.794922" xlink:href="#DejaVuSans-55"/>
     <use x="1228.417969" xlink:href="#DejaVuSans-41"/>
    </g>
   </g>
   <g id="text_64">
    <!--  Russia (BolgarCity2370) -->
    <g transform="translate(196.276477 267.292307)scale(0.05 -0.05)">
     <defs>
      <path d="M 8.5 21.578125
L 8.5 54.6875
L 17.484375 54.6875
L 17.484375 21.921875
Q 17.484375 14.15625 20.5 10.265625
Q 23.53125 6.390625 29.59375 6.390625
Q 36.859375 6.390625 41.078125 11.03125
Q 45.3125 15.671875 45.3125 23.6875
L 45.3125 54.6875
L 54.296875 54.6875
L 54.296875 0
L 45.3125 0
L 45.3125 8.40625
Q 42.046875 3.421875 37.71875 1
Q 33.40625 -1.421875 27.6875 -1.421875
Q 18.265625 -1.421875 13.375 4.4375
Q 8.5 10.296875 8.5 21.578125
z
M 31.109375 56
z
" id="DejaVuSans-117"/>
     </defs>
     <use xlink:href="#DejaVuSans-32"/>
     <use x="31.787109" xlink:href="#DejaVuSans-82"/>
     <use x="96.769531" xlink:href="#DejaVuSans-117"/>
     <use x="160.148438" xlink:href="#DejaVuSans-115"/>
     <use x="212.248047" xlink:href="#DejaVuSans-115"/>
     <use x="264.347656" xlink:href="#DejaVuSans-105"/>
     <use x="292.130859" xlink:href="#DejaVuSans-97"/>
     <use x="353.410156" xlink:href="#DejaVuSans-32"/>
     <use x="385.197266" xlink:href="#DejaVuSans-40"/>
     <use x="424.210938" xlink:href="#DejaVuSans-66"/>
     <use x="492.814453" xlink:href="#DejaVuSans-111"/>
     <use x="553.996094" xlink:href="#DejaVuSans-108"/>
     <use x="581.779297" xlink:href="#DejaVuSans-103"/>
     <use x="645.255859" xlink:href="#DejaVuSans-97"/>
     <use x="706.535156" xlink:href="#DejaVuSans-114"/>
     <use x="747.648438" xlink:href="#DejaVuSans-67"/>
     <use x="817.472656" xlink:href="#DejaVuSans-105"/>
     <use x="845.255859" xlink:href="#DejaVuSans-116"/>
     <use x="884.464844" xlink:href="#DejaVuSans-121"/>
     <use x="943.644531" xlink:href="#DejaVuSans-50"/>
     <use x="1007.267578" xlink:href="#DejaVuSans-51"/>
     <use x="1070.890625" xlink:href="#DejaVuSans-55"/>
     <use x="1134.513672" xlink:href="#DejaVuSans-48"/>
     <use x="1198.136719" xlink:href="#DejaVuSans-41"/>
    </g>
   </g>
   <g id="text_65">
    <!--   -->
    <g transform="translate(33.530909 275.199216)scale(0.05 -0.05)">
     <use xlink:href="#DejaVuSans-32"/>
    </g>
   </g>
   <g id="text_66">
    <!--  The Netherlands (Ber45) -->
    <g transform="translate(171.542965 275.199216)scale(0.05 -0.05)">
     <use xlink:href="#DejaVuSans-32"/>
     <use x="31.787109" xlink:href="#DejaVuSans-84"/>
     <use x="92.871094" xlink:href="#DejaVuSans-104"/>
     <use x="156.25" xlink:href="#DejaVuSans-101"/>
     <use x="217.773438" xlink:href="#DejaVuSans-32"/>
     <use x="249.560547" xlink:href="#DejaVuSans-78"/>
     <use x="324.365234" xlink:href="#DejaVuSans-101"/>
     <use x="385.888672" xlink:href="#DejaVuSans-116"/>
     <use x="425.097656" xlink:href="#DejaVuSans-104"/>
     <use x="488.476562" xlink:href="#DejaVuSans-101"/>
     <use x="550" xlink:href="#DejaVuSans-114"/>
     <use x="591.113281" xlink:href="#DejaVuSans-108"/>
     <use x="618.896484" xlink:href="#DejaVuSans-97"/>
     <use x="680.175781" xlink:href="#DejaVuSans-110"/>
     <use x="743.554688" xlink:href="#DejaVuSans-100"/>
     <use x="807.03125" xlink:href="#DejaVuSans-115"/>
     <use x="859.130859" xlink:href="#DejaVuSans-32"/>
     <use x="890.917969" xlink:href="#DejaVuSans-40"/>
     <use x="929.931641" xlink:href="#DejaVuSans-66"/>
     <use x="998.535156" xlink:href="#DejaVuSans-101"/>
     <use x="1060.058594" xlink:href="#DejaVuSans-114"/>
     <use x="1101.171875" xlink:href="#DejaVuSans-52"/>
     <use x="1164.794922" xlink:href="#DejaVuSans-53"/>
     <use x="1228.417969" xlink:href="#DejaVuSans-41"/>
    </g>
   </g>
   <g id="text_67">
    <!-- Second Pandemic -->
    <g transform="translate(146.258438 14.798437)scale(0.1 -0.1)">
     <defs>
      <path d="M 19.671875 64.796875
L 19.671875 37.40625
L 32.078125 37.40625
Q 38.96875 37.40625 42.71875 40.96875
Q 46.484375 44.53125 46.484375 51.125
Q 46.484375 57.671875 42.71875 61.234375
Q 38.96875 64.796875 32.078125 64.796875
z
M 9.8125 72.90625
L 32.078125 72.90625
Q 44.34375 72.90625 50.609375 67.359375
Q 56.890625 61.8125 56.890625 51.125
Q 56.890625 40.328125 50.609375 34.8125
Q 44.34375 29.296875 32.078125 29.296875
L 19.671875 29.296875
L 19.671875 0
L 9.8125 0
z
" id="DejaVuSans-80"/>
     </defs>
     <use xlink:href="#DejaVuSans-83"/>
     <use x="63.476562" xlink:href="#DejaVuSans-101"/>
     <use x="125" xlink:href="#DejaVuSans-99"/>
     <use x="179.980469" xlink:href="#DejaVuSans-111"/>
     <use x="241.162109" xlink:href="#DejaVuSans-110"/>
     <use x="304.541016" xlink:href="#DejaVuSans-100"/>
     <use x="368.017578" xlink:href="#DejaVuSans-32"/>
     <use x="399.804688" xlink:href="#DejaVuSans-80"/>
     <use x="455.607422" xlink:href="#DejaVuSans-97"/>
     <use x="516.886719" xlink:href="#DejaVuSans-110"/>
     <use x="580.265625" xlink:href="#DejaVuSans-100"/>
     <use x="643.742188" xlink:href="#DejaVuSans-101"/>
     <use x="705.265625" xlink:href="#DejaVuSans-109"/>
     <use x="802.677734" xlink:href="#DejaVuSans-105"/>
     <use x="830.460938" xlink:href="#DejaVuSans-99"/>
    </g>
   </g>
  </g>
 </g>
 <defs>
  <clipPath id="p63c28c5d7d">
   <rect height="260.928" width="357.12" x="11.971875" y="20.798437"/>
  </clipPath>
 </defs>
</svg>
