<?xml version="1.0" encoding="utf-8" standalone="no"?>
<!DOCTYPE svg PUBLIC "-//W3C//DTD SVG 1.1//EN"
  "http://www.w3.org/Graphics/SVG/1.1/DTD/svg11.dtd">
<!-- Created with matplotlib (https://matplotlib.org/) -->
<svg height="255.421562pt" version="1.1" viewBox="0 0 349.2 255.421562" width="349.2pt" xmlns="http://www.w3.org/2000/svg" xmlns:xlink="http://www.w3.org/1999/xlink">
 <metadata>
  <rdf:RDF xmlns:cc="http://creativecommons.org/ns#" xmlns:dc="http://purl.org/dc/elements/1.1/" xmlns:rdf="http://www.w3.org/1999/02/22-rdf-syntax-ns#">
   <cc:Work>
    <dc:type rdf:resource="http://purl.org/dc/dcmitype/StillImage"/>
    <dc:date>2021-03-04T17:07:54.488107</dc:date>
    <dc:format>image/svg+xml</dc:format>
    <dc:creator>
     <cc:Agent>
      <dc:title>Matplotlib v3.3.2, https://matplotlib.org/</dc:title>
     </cc:Agent>
    </dc:creator>
   </cc:Work>
  </rdf:RDF>
 </metadata>
 <defs>
  <style type="text/css">*{stroke-linecap:butt;stroke-linejoin:round;}</style>
 </defs>
 <g id="figure_1">
  <g id="patch_1">
   <path d="M 0 255.421562
L 349.2 255.421562
L 349.2 0
L 0 0
z
" style="fill:none;"/>
  </g>
  <g id="axes_1">
   <g id="patch_2">
    <path d="M 7.2 224.64
L 342 224.64
L 342 7.2
L 7.2 7.2
z
" style="fill:#ffffff;"/>
   </g>
   <g id="matplotlib.axis_1">
    <g id="xtick_1">
     <g id="line2d_1">
      <defs>
       <path d="M 0 0
L 0 3.5
" id="mdd70ccd9e0" style="stroke:#000000;stroke-width:0.8;"/>
      </defs>
      <g>
       <use style="stroke:#000000;stroke-width:0.8;" x="116.491221" xlink:href="#mdd70ccd9e0" y="224.64"/>
      </g>
     </g>
     <g id="text_1">
      <!-- 1500 -->
      <g transform="translate(110.128721 235.439219)scale(0.05 -0.05)">
       <defs>
        <path d="M 12.40625 8.296875
L 28.515625 8.296875
L 28.515625 63.921875
L 10.984375 60.40625
L 10.984375 69.390625
L 28.421875 72.90625
L 38.28125 72.90625
L 38.28125 8.296875
L 54.390625 8.296875
L 54.390625 0
L 12.40625 0
z
" id="DejaVuSans-49"/>
        <path d="M 10.796875 72.90625
L 49.515625 72.90625
L 49.515625 64.59375
L 19.828125 64.59375
L 19.828125 46.734375
Q 21.96875 47.46875 24.109375 47.828125
Q 26.265625 48.1875 28.421875 48.1875
Q 40.625 48.1875 47.75 41.5
Q 54.890625 34.8125 54.890625 23.390625
Q 54.890625 11.625 47.5625 5.09375
Q 40.234375 -1.421875 26.90625 -1.421875
Q 22.3125 -1.421875 17.546875 -0.640625
Q 12.796875 0.140625 7.71875 1.703125
L 7.71875 11.625
Q 12.109375 9.234375 16.796875 8.0625
Q 21.484375 6.890625 26.703125 6.890625
Q 35.15625 6.890625 40.078125 11.328125
Q 45.015625 15.765625 45.015625 23.390625
Q 45.015625 31 40.078125 35.4375
Q 35.15625 39.890625 26.703125 39.890625
Q 22.75 39.890625 18.8125 39.015625
Q 14.890625 38.140625 10.796875 36.28125
z
" id="DejaVuSans-53"/>
        <path d="M 31.78125 66.40625
Q 24.171875 66.40625 20.328125 58.90625
Q 16.5 51.421875 16.5 36.375
Q 16.5 21.390625 20.328125 13.890625
Q 24.171875 6.390625 31.78125 6.390625
Q 39.453125 6.390625 43.28125 13.890625
Q 47.125 21.390625 47.125 36.375
Q 47.125 51.421875 43.28125 58.90625
Q 39.453125 66.40625 31.78125 66.40625
z
M 31.78125 74.21875
Q 44.046875 74.21875 50.515625 64.515625
Q 56.984375 54.828125 56.984375 36.375
Q 56.984375 17.96875 50.515625 8.265625
Q 44.046875 -1.421875 31.78125 -1.421875
Q 19.53125 -1.421875 13.0625 8.265625
Q 6.59375 17.96875 6.59375 36.375
Q 6.59375 54.828125 13.0625 64.515625
Q 19.53125 74.21875 31.78125 74.21875
z
" id="DejaVuSans-48"/>
       </defs>
       <use xlink:href="#DejaVuSans-49"/>
       <use x="63.623047" xlink:href="#DejaVuSans-53"/>
       <use x="127.246094" xlink:href="#DejaVuSans-48"/>
       <use x="190.869141" xlink:href="#DejaVuSans-48"/>
      </g>
     </g>
    </g>
    <g id="xtick_2">
     <g id="line2d_2">
      <g>
       <use style="stroke:#000000;stroke-width:0.8;" x="276.979898" xlink:href="#mdd70ccd9e0" y="224.64"/>
      </g>
     </g>
     <g id="text_2">
      <!-- 2000 -->
      <g transform="translate(270.617398 235.439219)scale(0.05 -0.05)">
       <defs>
        <path d="M 19.1875 8.296875
L 53.609375 8.296875
L 53.609375 0
L 7.328125 0
L 7.328125 8.296875
Q 12.9375 14.109375 22.625 23.890625
Q 32.328125 33.6875 34.8125 36.53125
Q 39.546875 41.84375 41.421875 45.53125
Q 43.3125 49.21875 43.3125 52.78125
Q 43.3125 58.59375 39.234375 62.25
Q 35.15625 65.921875 28.609375 65.921875
Q 23.96875 65.921875 18.8125 64.3125
Q 13.671875 62.703125 7.8125 59.421875
L 7.8125 69.390625
Q 13.765625 71.78125 18.9375 73
Q 24.125 74.21875 28.421875 74.21875
Q 39.75 74.21875 46.484375 68.546875
Q 53.21875 62.890625 53.21875 53.421875
Q 53.21875 48.921875 51.53125 44.890625
Q 49.859375 40.875 45.40625 35.40625
Q 44.1875 33.984375 37.640625 27.21875
Q 31.109375 20.453125 19.1875 8.296875
z
" id="DejaVuSans-50"/>
       </defs>
       <use xlink:href="#DejaVuSans-50"/>
       <use x="63.623047" xlink:href="#DejaVuSans-48"/>
       <use x="127.246094" xlink:href="#DejaVuSans-48"/>
       <use x="190.869141" xlink:href="#DejaVuSans-48"/>
      </g>
     </g>
    </g>
    <g id="text_3">
     <!-- Year -->
     <g transform="translate(166.13 246.557812)scale(0.08 -0.08)">
      <defs>
       <path d="M -0.203125 72.90625
L 10.40625 72.90625
L 30.609375 42.921875
L 50.6875 72.90625
L 61.28125 72.90625
L 35.5 34.71875
L 35.5 0
L 25.59375 0
L 25.59375 34.71875
z
" id="DejaVuSans-89"/>
       <path d="M 56.203125 29.59375
L 56.203125 25.203125
L 14.890625 25.203125
Q 15.484375 15.921875 20.484375 11.0625
Q 25.484375 6.203125 34.421875 6.203125
Q 39.59375 6.203125 44.453125 7.46875
Q 49.3125 8.734375 54.109375 11.28125
L 54.109375 2.78125
Q 49.265625 0.734375 44.1875 -0.34375
Q 39.109375 -1.421875 33.890625 -1.421875
Q 20.796875 -1.421875 13.15625 6.1875
Q 5.515625 13.8125 5.515625 26.8125
Q 5.515625 40.234375 12.765625 48.109375
Q 20.015625 56 32.328125 56
Q 43.359375 56 49.78125 48.890625
Q 56.203125 41.796875 56.203125 29.59375
z
M 47.21875 32.234375
Q 47.125 39.59375 43.09375 43.984375
Q 39.0625 48.390625 32.421875 48.390625
Q 24.90625 48.390625 20.390625 44.140625
Q 15.875 39.890625 15.1875 32.171875
z
" id="DejaVuSans-101"/>
       <path d="M 34.28125 27.484375
Q 23.390625 27.484375 19.1875 25
Q 14.984375 22.515625 14.984375 16.5
Q 14.984375 11.71875 18.140625 8.90625
Q 21.296875 6.109375 26.703125 6.109375
Q 34.1875 6.109375 38.703125 11.40625
Q 43.21875 16.703125 43.21875 25.484375
L 43.21875 27.484375
z
M 52.203125 31.203125
L 52.203125 0
L 43.21875 0
L 43.21875 8.296875
Q 40.140625 3.328125 35.546875 0.953125
Q 30.953125 -1.421875 24.3125 -1.421875
Q 15.921875 -1.421875 10.953125 3.296875
Q 6 8.015625 6 15.921875
Q 6 25.140625 12.171875 29.828125
Q 18.359375 34.515625 30.609375 34.515625
L 43.21875 34.515625
L 43.21875 35.40625
Q 43.21875 41.609375 39.140625 45
Q 35.0625 48.390625 27.6875 48.390625
Q 23 48.390625 18.546875 47.265625
Q 14.109375 46.140625 10.015625 43.890625
L 10.015625 52.203125
Q 14.9375 54.109375 19.578125 55.046875
Q 24.21875 56 28.609375 56
Q 40.484375 56 46.34375 49.84375
Q 52.203125 43.703125 52.203125 31.203125
z
" id="DejaVuSans-97"/>
       <path d="M 41.109375 46.296875
Q 39.59375 47.171875 37.8125 47.578125
Q 36.03125 48 33.890625 48
Q 26.265625 48 22.1875 43.046875
Q 18.109375 38.09375 18.109375 28.8125
L 18.109375 0
L 9.078125 0
L 9.078125 54.6875
L 18.109375 54.6875
L 18.109375 46.1875
Q 20.953125 51.171875 25.484375 53.578125
Q 30.03125 56 36.53125 56
Q 37.453125 56 38.578125 55.875
Q 39.703125 55.765625 41.0625 55.515625
z
" id="DejaVuSans-114"/>
      </defs>
      <use xlink:href="#DejaVuSans-89"/>
      <use x="47.833984" xlink:href="#DejaVuSans-101"/>
      <use x="109.357422" xlink:href="#DejaVuSans-97"/>
      <use x="170.636719" xlink:href="#DejaVuSans-114"/>
     </g>
    </g>
   </g>
   <g id="matplotlib.axis_2"/>
   <g id="LineCollection_1">
    <path clip-path="url(#pd4f65ed88f)" d="M 29.668415 74.998326
L 54.4081 74.998326
" style="fill:none;stroke:#e6ce74;stroke-width:0.5;"/>
   </g>
   <g id="LineCollection_2">
    <path clip-path="url(#pd4f65ed88f)" d="M 54.4081 74.998326
L 109.343895 74.998326
" style="fill:none;stroke:#80ffb4;stroke-width:0.5;"/>
   </g>
   <g id="LineCollection_3">
    <path clip-path="url(#pd4f65ed88f)" d="M 109.343895 74.998326
L 172.509281 74.998326
" style="fill:none;stroke:#80ffb4;stroke-width:0.5;"/>
   </g>
   <g id="LineCollection_4">
    <path clip-path="url(#pd4f65ed88f)" d="M 172.509281 30.254464
L 201.275459 30.254464
" style="fill:none;stroke:#80ffb4;stroke-width:0.5;"/>
   </g>
   <g id="LineCollection_5">
    <path clip-path="url(#pd4f65ed88f)" d="M 201.275459 20.79
L 230.389285 20.79
" style="fill:none;stroke:#80ffb4;stroke-width:0.5;"/>
   </g>
   <g id="LineCollection_6">
    <path clip-path="url(#pd4f65ed88f)" d="M 230.389285 16.907143
L 266.249769 16.907143
" style="fill:none;stroke:#80ffb4;stroke-width:0.5;"/>
   </g>
   <g id="LineCollection_7">
    <path clip-path="url(#pd4f65ed88f)" d="M 266.249769 14.965714
L 267.618097 14.965714
" style="fill:none;stroke:#80ffb4;stroke-width:0.5;"/>
   </g>
   <g id="LineCollection_8">
    <path clip-path="url(#pd4f65ed88f)" d="M 266.249769 18.848571
L 267.296054 18.848571
" style="fill:none;stroke:#80ffb4;stroke-width:0.5;"/>
   </g>
   <g id="LineCollection_9">
    <path clip-path="url(#pd4f65ed88f)" d="M 230.389285 24.672857
L 263.109532 24.672857
" style="fill:none;stroke:#80ffb4;stroke-width:0.5;"/>
   </g>
   <g id="LineCollection_10">
    <path clip-path="url(#pd4f65ed88f)" d="M 263.109532 22.731429
L 263.109497 22.731429
" style="fill:none;stroke:#80ffb4;stroke-width:0.5;"/>
   </g>
   <g id="LineCollection_11">
    <path clip-path="url(#pd4f65ed88f)" d="M 263.109532 26.614286
L 273.414869 26.614286
" style="fill:none;stroke:#80ffb4;stroke-width:0.5;"/>
   </g>
   <g id="LineCollection_12">
    <path clip-path="url(#pd4f65ed88f)" d="M 201.275459 39.718929
L 215.312061 39.718929
" style="fill:none;stroke:#80ffb4;stroke-width:0.5;"/>
   </g>
   <g id="LineCollection_13">
    <path clip-path="url(#pd4f65ed88f)" d="M 215.312061 30.497143
L 263.753583 30.497143
" style="fill:none;stroke:#80ffb4;stroke-width:0.5;"/>
   </g>
   <g id="LineCollection_14">
    <path clip-path="url(#pd4f65ed88f)" d="M 215.312061 48.940714
L 221.379438 48.940714
" style="fill:none;stroke:#80ffb4;stroke-width:0.5;"/>
   </g>
   <g id="LineCollection_15">
    <path clip-path="url(#pd4f65ed88f)" d="M 221.379438 39.233571
L 256.627041 39.233571
" style="fill:none;stroke:#80ffb4;stroke-width:0.5;"/>
   </g>
   <g id="LineCollection_16">
    <path clip-path="url(#pd4f65ed88f)" d="M 256.627041 34.38
L 262.143369 34.38
" style="fill:none;stroke:#80ffb4;stroke-width:0.5;"/>
   </g>
   <g id="LineCollection_17">
    <path clip-path="url(#pd4f65ed88f)" d="M 256.627041 38.262857
L 263.109497 38.262857
" style="fill:none;stroke:#80ffb4;stroke-width:0.5;"/>
   </g>
   <g id="LineCollection_18">
    <path clip-path="url(#pd4f65ed88f)" d="M 256.627041 44.087143
L 271.619525 44.087143
" style="fill:none;stroke:#80ffb4;stroke-width:0.5;"/>
   </g>
   <g id="LineCollection_19">
    <path clip-path="url(#pd4f65ed88f)" d="M 271.619525 42.145714
L 275.669169 42.145714
" style="fill:none;stroke:#80ffb4;stroke-width:0.5;"/>
   </g>
   <g id="LineCollection_20">
    <path clip-path="url(#pd4f65ed88f)" d="M 271.619525 46.028571
L 273.414869 46.028571
" style="fill:none;stroke:#80ffb4;stroke-width:0.5;"/>
   </g>
   <g id="LineCollection_21">
    <path clip-path="url(#pd4f65ed88f)" d="M 221.379438 58.647857
L 224.725361 58.647857
" style="fill:none;stroke:#80ffb4;stroke-width:0.5;"/>
   </g>
   <g id="LineCollection_22">
    <path clip-path="url(#pd4f65ed88f)" d="M 224.725361 49.911429
L 263.753583 49.911429
" style="fill:none;stroke:#80ffb4;stroke-width:0.5;"/>
   </g>
   <g id="LineCollection_23">
    <path clip-path="url(#pd4f65ed88f)" d="M 224.725361 53.794286
L 271.482612 53.794286
" style="fill:none;stroke:#80ffb4;stroke-width:0.5;"/>
   </g>
   <g id="LineCollection_24">
    <path clip-path="url(#pd4f65ed88f)" d="M 224.725361 59.618571
L 262.787489 59.618571
" style="fill:none;stroke:#80ffb4;stroke-width:0.5;"/>
   </g>
   <g id="LineCollection_25">
    <path clip-path="url(#pd4f65ed88f)" d="M 262.787489 57.677143
L 262.787454 57.677143
" style="fill:none;stroke:#80ffb4;stroke-width:0.5;"/>
   </g>
   <g id="LineCollection_26">
    <path clip-path="url(#pd4f65ed88f)" d="M 262.787489 61.56
L 265.68584 61.56
" style="fill:none;stroke:#80ffb4;stroke-width:0.5;"/>
   </g>
   <g id="LineCollection_27">
    <path clip-path="url(#pd4f65ed88f)" d="M 224.725361 67.384286
L 239.962775 67.384286
" style="fill:none;stroke:#80ffb4;stroke-width:0.5;"/>
   </g>
   <g id="LineCollection_28">
    <path clip-path="url(#pd4f65ed88f)" d="M 239.962775 65.442857
L 241.250912 65.442857
" style="fill:none;stroke:#80ffb4;stroke-width:0.5;"/>
   </g>
   <g id="LineCollection_29">
    <path clip-path="url(#pd4f65ed88f)" d="M 239.962775 69.325714
L 239.962741 69.325714
" style="fill:none;stroke:#80ffb4;stroke-width:0.5;"/>
   </g>
   <g id="LineCollection_30">
    <path clip-path="url(#pd4f65ed88f)" d="M 172.509281 119.742187
L 234.065579 119.742187
" style="fill:none;stroke:#80ffb4;stroke-width:0.5;"/>
   </g>
   <g id="LineCollection_31">
    <path clip-path="url(#pd4f65ed88f)" d="M 234.065579 73.208571
L 278.245512 73.208571
" style="fill:none;stroke:#80ffb4;stroke-width:0.5;"/>
   </g>
   <g id="LineCollection_32">
    <path clip-path="url(#pd4f65ed88f)" d="M 234.065579 80.974286
L 277.13988 80.974286
" style="fill:none;stroke:#80ffb4;stroke-width:0.5;"/>
   </g>
   <g id="LineCollection_33">
    <path clip-path="url(#pd4f65ed88f)" d="M 277.13988 77.091429
L 279.533683 77.091429
" style="fill:none;stroke:#80ffb4;stroke-width:0.5;"/>
   </g>
   <g id="LineCollection_34">
    <path clip-path="url(#pd4f65ed88f)" d="M 277.13988 80.974286
L 278.245512 80.974286
" style="fill:none;stroke:#80ffb4;stroke-width:0.5;"/>
   </g>
   <g id="LineCollection_35">
    <path clip-path="url(#pd4f65ed88f)" d="M 277.13988 84.857143
L 279.533683 84.857143
" style="fill:none;stroke:#80ffb4;stroke-width:0.5;"/>
   </g>
   <g id="LineCollection_36">
    <path clip-path="url(#pd4f65ed88f)" d="M 234.065579 99.417857
L 271.479987 99.417857
" style="fill:none;stroke:#80ffb4;stroke-width:0.5;"/>
   </g>
   <g id="LineCollection_37">
    <path clip-path="url(#pd4f65ed88f)" d="M 271.479987 88.74
L 275.669169 88.74
" style="fill:none;stroke:#80ffb4;stroke-width:0.5;"/>
   </g>
   <g id="LineCollection_38">
    <path clip-path="url(#pd4f65ed88f)" d="M 271.479987 92.622857
L 275.669169 92.622857
" style="fill:none;stroke:#80ffb4;stroke-width:0.5;"/>
   </g>
   <g id="LineCollection_39">
    <path clip-path="url(#pd4f65ed88f)" d="M 271.479987 96.505714
L 279.21164 96.505714
" style="fill:none;stroke:#80ffb4;stroke-width:0.5;"/>
   </g>
   <g id="LineCollection_40">
    <path clip-path="url(#pd4f65ed88f)" d="M 271.479987 100.388571
L 279.533683 100.388571
" style="fill:none;stroke:#80ffb4;stroke-width:0.5;"/>
   </g>
   <g id="LineCollection_41">
    <path clip-path="url(#pd4f65ed88f)" d="M 271.479987 104.271429
L 279.533683 104.271429
" style="fill:none;stroke:#80ffb4;stroke-width:0.5;"/>
   </g>
   <g id="LineCollection_42">
    <path clip-path="url(#pd4f65ed88f)" d="M 271.479987 110.095714
L 277.279417 110.095714
" style="fill:none;stroke:#80ffb4;stroke-width:0.5;"/>
   </g>
   <g id="LineCollection_43">
    <path clip-path="url(#pd4f65ed88f)" d="M 277.279417 108.154286
L 277.279383 108.154286
" style="fill:none;stroke:#80ffb4;stroke-width:0.5;"/>
   </g>
   <g id="LineCollection_44">
    <path clip-path="url(#pd4f65ed88f)" d="M 277.279417 112.037143
L 277.923469 112.037143
" style="fill:none;stroke:#80ffb4;stroke-width:0.5;"/>
   </g>
   <g id="LineCollection_45">
    <path clip-path="url(#pd4f65ed88f)" d="M 234.065579 126.597857
L 238.03827 126.597857
" style="fill:none;stroke:#80ffb4;stroke-width:0.5;"/>
   </g>
   <g id="LineCollection_46">
    <path clip-path="url(#pd4f65ed88f)" d="M 238.03827 115.92
L 266.651969 115.92
" style="fill:none;stroke:#80ffb4;stroke-width:0.5;"/>
   </g>
   <g id="LineCollection_47">
    <path clip-path="url(#pd4f65ed88f)" d="M 238.03827 122.715
L 271.343108 122.715
" style="fill:none;stroke:#80ffb4;stroke-width:0.5;"/>
   </g>
   <g id="LineCollection_48">
    <path clip-path="url(#pd4f65ed88f)" d="M 271.343108 119.802857
L 273.736912 119.802857
" style="fill:none;stroke:#80ffb4;stroke-width:0.5;"/>
   </g>
   <g id="LineCollection_49">
    <path clip-path="url(#pd4f65ed88f)" d="M 271.343108 125.627143
L 278.02514 125.627143
" style="fill:none;stroke:#80ffb4;stroke-width:0.5;"/>
   </g>
   <g id="LineCollection_50">
    <path clip-path="url(#pd4f65ed88f)" d="M 278.02514 123.685714
L 279.21164 123.685714
" style="fill:none;stroke:#80ffb4;stroke-width:0.5;"/>
   </g>
   <g id="LineCollection_51">
    <path clip-path="url(#pd4f65ed88f)" d="M 278.02514 127.568571
L 279.533683 127.568571
" style="fill:none;stroke:#80ffb4;stroke-width:0.5;"/>
   </g>
   <g id="LineCollection_52">
    <path clip-path="url(#pd4f65ed88f)" d="M 238.03827 137.275714
L 242.452042 137.275714
" style="fill:none;stroke:#80ffb4;stroke-width:0.5;"/>
   </g>
   <g id="LineCollection_53">
    <path clip-path="url(#pd4f65ed88f)" d="M 242.452042 133.392857
L 257.301645 133.392857
" style="fill:none;stroke:#80ffb4;stroke-width:0.5;"/>
   </g>
   <g id="LineCollection_54">
    <path clip-path="url(#pd4f65ed88f)" d="M 257.301645 131.451429
L 266.329926 131.451429
" style="fill:none;stroke:#80ffb4;stroke-width:0.5;"/>
   </g>
   <g id="LineCollection_55">
    <path clip-path="url(#pd4f65ed88f)" d="M 257.301645 135.334286
L 260.855232 135.334286
" style="fill:none;stroke:#80ffb4;stroke-width:0.5;"/>
   </g>
   <g id="LineCollection_56">
    <path clip-path="url(#pd4f65ed88f)" d="M 242.452042 141.158571
L 247.051312 141.158571
" style="fill:none;stroke:#80ffb4;stroke-width:0.5;"/>
   </g>
   <g id="LineCollection_57">
    <path clip-path="url(#pd4f65ed88f)" d="M 247.051312 139.217143
L 277.601426 139.217143
" style="fill:none;stroke:#80ffb4;stroke-width:0.5;"/>
   </g>
   <g id="LineCollection_58">
    <path clip-path="url(#pd4f65ed88f)" d="M 247.051312 143.1
L 278.567554 143.1
" style="fill:none;stroke:#80ffb4;stroke-width:0.5;"/>
   </g>
   <g id="LineCollection_59">
    <path clip-path="url(#pd4f65ed88f)" d="M 234.065579 166.275804
L 251.676658 166.275804
" style="fill:none;stroke:#80ffb4;stroke-width:0.5;"/>
   </g>
   <g id="LineCollection_60">
    <path clip-path="url(#pd4f65ed88f)" d="M 251.676658 148.924286
L 277.13988 148.924286
" style="fill:none;stroke:#80ffb4;stroke-width:0.5;"/>
   </g>
   <g id="LineCollection_61">
    <path clip-path="url(#pd4f65ed88f)" d="M 277.13988 146.982857
L 279.533683 146.982857
" style="fill:none;stroke:#80ffb4;stroke-width:0.5;"/>
   </g>
   <g id="LineCollection_62">
    <path clip-path="url(#pd4f65ed88f)" d="M 277.13988 150.865714
L 279.533683 150.865714
" style="fill:none;stroke:#80ffb4;stroke-width:0.5;"/>
   </g>
   <g id="LineCollection_63">
    <path clip-path="url(#pd4f65ed88f)" d="M 251.676658 183.627321
L 271.479987 183.627321
" style="fill:none;stroke:#80ffb4;stroke-width:0.5;"/>
   </g>
   <g id="LineCollection_64">
    <path clip-path="url(#pd4f65ed88f)" d="M 271.479987 154.748571
L 275.669169 154.748571
" style="fill:none;stroke:#80ffb4;stroke-width:0.5;"/>
   </g>
   <g id="LineCollection_65">
    <path clip-path="url(#pd4f65ed88f)" d="M 271.479987 158.631429
L 275.669169 158.631429
" style="fill:none;stroke:#80ffb4;stroke-width:0.5;"/>
   </g>
   <g id="LineCollection_66">
    <path clip-path="url(#pd4f65ed88f)" d="M 271.479987 162.514286
L 279.533683 162.514286
" style="fill:none;stroke:#80ffb4;stroke-width:0.5;"/>
   </g>
   <g id="LineCollection_67">
    <path clip-path="url(#pd4f65ed88f)" d="M 271.479987 166.397143
L 275.669169 166.397143
" style="fill:none;stroke:#80ffb4;stroke-width:0.5;"/>
   </g>
   <g id="LineCollection_68">
    <path clip-path="url(#pd4f65ed88f)" d="M 271.479987 170.28
L 279.21164 170.28
" style="fill:none;stroke:#80ffb4;stroke-width:0.5;"/>
   </g>
   <g id="LineCollection_69">
    <path clip-path="url(#pd4f65ed88f)" d="M 271.479987 174.162857
L 278.567554 174.162857
" style="fill:none;stroke:#80ffb4;stroke-width:0.5;"/>
   </g>
   <g id="LineCollection_70">
    <path clip-path="url(#pd4f65ed88f)" d="M 271.479987 178.045714
L 277.601426 178.045714
" style="fill:none;stroke:#80ffb4;stroke-width:0.5;"/>
   </g>
   <g id="LineCollection_71">
    <path clip-path="url(#pd4f65ed88f)" d="M 271.479987 181.928571
L 279.533683 181.928571
" style="fill:none;stroke:#80ffb4;stroke-width:0.5;"/>
   </g>
   <g id="LineCollection_72">
    <path clip-path="url(#pd4f65ed88f)" d="M 271.479987 185.811429
L 276.313254 185.811429
" style="fill:none;stroke:#80ffb4;stroke-width:0.5;"/>
   </g>
   <g id="LineCollection_73">
    <path clip-path="url(#pd4f65ed88f)" d="M 271.479987 191.635714
L 274.058989 191.635714
" style="fill:none;stroke:#80ffb4;stroke-width:0.5;"/>
   </g>
   <g id="LineCollection_74">
    <path clip-path="url(#pd4f65ed88f)" d="M 274.058989 189.694286
L 274.058954 189.694286
" style="fill:none;stroke:#80ffb4;stroke-width:0.5;"/>
   </g>
   <g id="LineCollection_75">
    <path clip-path="url(#pd4f65ed88f)" d="M 274.058989 193.577143
L 274.058954 193.577143
" style="fill:none;stroke:#80ffb4;stroke-width:0.5;"/>
   </g>
   <g id="LineCollection_76">
    <path clip-path="url(#pd4f65ed88f)" d="M 271.479987 200.372143
L 276.808286 200.372143
" style="fill:none;stroke:#80ffb4;stroke-width:0.5;"/>
   </g>
   <g id="LineCollection_77">
    <path clip-path="url(#pd4f65ed88f)" d="M 276.808286 197.46
L 278.567554 197.46
" style="fill:none;stroke:#80ffb4;stroke-width:0.5;"/>
   </g>
   <g id="LineCollection_78">
    <path clip-path="url(#pd4f65ed88f)" d="M 276.808286 203.284286
L 277.279417 203.284286
" style="fill:none;stroke:#80ffb4;stroke-width:0.5;"/>
   </g>
   <g id="LineCollection_79">
    <path clip-path="url(#pd4f65ed88f)" d="M 277.279417 201.342857
L 278.567554 201.342857
" style="fill:none;stroke:#80ffb4;stroke-width:0.5;"/>
   </g>
   <g id="LineCollection_80">
    <path clip-path="url(#pd4f65ed88f)" d="M 277.279417 205.225714
L 277.279383 205.225714
" style="fill:none;stroke:#80ffb4;stroke-width:0.5;"/>
   </g>
   <g id="LineCollection_81">
    <path clip-path="url(#pd4f65ed88f)" d="M 271.479987 212.506071
L 275.386669 212.506071
" style="fill:none;stroke:#80ffb4;stroke-width:0.5;"/>
   </g>
   <g id="LineCollection_82">
    <path clip-path="url(#pd4f65ed88f)" d="M 275.386669 209.108571
L 275.669169 209.108571
" style="fill:none;stroke:#80ffb4;stroke-width:0.5;"/>
   </g>
   <g id="LineCollection_83">
    <path clip-path="url(#pd4f65ed88f)" d="M 275.386669 215.903571
L 275.386669 215.903571
" style="fill:none;stroke:#80ffb4;stroke-width:0.5;"/>
   </g>
   <g id="LineCollection_84">
    <path clip-path="url(#pd4f65ed88f)" d="M 275.386669 212.991429
L 276.313254 212.991429
" style="fill:none;stroke:#80ffb4;stroke-width:0.5;"/>
   </g>
   <g id="LineCollection_85">
    <path clip-path="url(#pd4f65ed88f)" d="M 275.386669 218.815714
L 275.686399 218.815714
" style="fill:none;stroke:#80ffb4;stroke-width:0.5;"/>
   </g>
   <g id="LineCollection_86">
    <path clip-path="url(#pd4f65ed88f)" d="M 275.686399 216.874286
L 276.313254 216.874286
" style="fill:none;stroke:#80ffb4;stroke-width:0.5;"/>
   </g>
   <g id="LineCollection_87">
    <path clip-path="url(#pd4f65ed88f)" d="M 275.686399 220.757143
L 276.313254 220.757143
" style="fill:none;stroke:#80ffb4;stroke-width:0.5;"/>
   </g>
   <g id="LineCollection_88">
    <path clip-path="url(#pd4f65ed88f)" d="M 54.4081 74.998326
L 54.4081 74.998326
" style="fill:none;stroke:#e6ce74;stroke-width:0.5;"/>
   </g>
   <g id="LineCollection_89">
    <path clip-path="url(#pd4f65ed88f)" d="M 109.343895 74.998326
L 109.343895 74.998326
" style="fill:none;stroke:#80ffb4;stroke-width:0.5;"/>
   </g>
   <g id="LineCollection_90">
    <path clip-path="url(#pd4f65ed88f)" d="M 172.509281 119.742187
L 172.509281 30.254464
" style="fill:none;stroke:#80ffb4;stroke-width:0.5;"/>
   </g>
   <g id="LineCollection_91">
    <path clip-path="url(#pd4f65ed88f)" d="M 201.275459 39.718929
L 201.275459 20.79
" style="fill:none;stroke:#80ffb4;stroke-width:0.5;"/>
   </g>
   <g id="LineCollection_92">
    <path clip-path="url(#pd4f65ed88f)" d="M 230.389285 24.672857
L 230.389285 16.907143
" style="fill:none;stroke:#80ffb4;stroke-width:0.5;"/>
   </g>
   <g id="LineCollection_93">
    <path clip-path="url(#pd4f65ed88f)" d="M 266.249769 18.848571
L 266.249769 14.965714
" style="fill:none;stroke:#80ffb4;stroke-width:0.5;"/>
   </g>
   <g id="LineCollection_94">
    <path clip-path="url(#pd4f65ed88f)" d="M 263.109532 26.614286
L 263.109532 22.731429
" style="fill:none;stroke:#80ffb4;stroke-width:0.5;"/>
   </g>
   <g id="LineCollection_95">
    <path clip-path="url(#pd4f65ed88f)" d="M 215.312061 48.940714
L 215.312061 30.497143
" style="fill:none;stroke:#80ffb4;stroke-width:0.5;"/>
   </g>
   <g id="LineCollection_96">
    <path clip-path="url(#pd4f65ed88f)" d="M 221.379438 58.647857
L 221.379438 39.233571
" style="fill:none;stroke:#80ffb4;stroke-width:0.5;"/>
   </g>
   <g id="LineCollection_97">
    <path clip-path="url(#pd4f65ed88f)" d="M 256.627041 44.087143
L 256.627041 34.38
" style="fill:none;stroke:#80ffb4;stroke-width:0.5;"/>
   </g>
   <g id="LineCollection_98">
    <path clip-path="url(#pd4f65ed88f)" d="M 271.619525 46.028571
L 271.619525 42.145714
" style="fill:none;stroke:#80ffb4;stroke-width:0.5;"/>
   </g>
   <g id="LineCollection_99">
    <path clip-path="url(#pd4f65ed88f)" d="M 224.725361 67.384286
L 224.725361 49.911429
" style="fill:none;stroke:#80ffb4;stroke-width:0.5;"/>
   </g>
   <g id="LineCollection_100">
    <path clip-path="url(#pd4f65ed88f)" d="M 262.787489 61.56
L 262.787489 57.677143
" style="fill:none;stroke:#80ffb4;stroke-width:0.5;"/>
   </g>
   <g id="LineCollection_101">
    <path clip-path="url(#pd4f65ed88f)" d="M 239.962775 69.325714
L 239.962775 65.442857
" style="fill:none;stroke:#80ffb4;stroke-width:0.5;"/>
   </g>
   <g id="LineCollection_102">
    <path clip-path="url(#pd4f65ed88f)" d="M 234.065579 166.275804
L 234.065579 73.208571
" style="fill:none;stroke:#80ffb4;stroke-width:0.5;"/>
   </g>
   <g id="LineCollection_103">
    <path clip-path="url(#pd4f65ed88f)" d="M 277.13988 84.857143
L 277.13988 77.091429
" style="fill:none;stroke:#80ffb4;stroke-width:0.5;"/>
   </g>
   <g id="LineCollection_104">
    <path clip-path="url(#pd4f65ed88f)" d="M 271.479987 110.095714
L 271.479987 88.74
" style="fill:none;stroke:#80ffb4;stroke-width:0.5;"/>
   </g>
   <g id="LineCollection_105">
    <path clip-path="url(#pd4f65ed88f)" d="M 277.279417 112.037143
L 277.279417 108.154286
" style="fill:none;stroke:#80ffb4;stroke-width:0.5;"/>
   </g>
   <g id="LineCollection_106">
    <path clip-path="url(#pd4f65ed88f)" d="M 238.03827 137.275714
L 238.03827 115.92
" style="fill:none;stroke:#80ffb4;stroke-width:0.5;"/>
   </g>
   <g id="LineCollection_107">
    <path clip-path="url(#pd4f65ed88f)" d="M 271.343108 125.627143
L 271.343108 119.802857
" style="fill:none;stroke:#80ffb4;stroke-width:0.5;"/>
   </g>
   <g id="LineCollection_108">
    <path clip-path="url(#pd4f65ed88f)" d="M 278.02514 127.568571
L 278.02514 123.685714
" style="fill:none;stroke:#80ffb4;stroke-width:0.5;"/>
   </g>
   <g id="LineCollection_109">
    <path clip-path="url(#pd4f65ed88f)" d="M 242.452042 141.158571
L 242.452042 133.392857
" style="fill:none;stroke:#80ffb4;stroke-width:0.5;"/>
   </g>
   <g id="LineCollection_110">
    <path clip-path="url(#pd4f65ed88f)" d="M 257.301645 135.334286
L 257.301645 131.451429
" style="fill:none;stroke:#80ffb4;stroke-width:0.5;"/>
   </g>
   <g id="LineCollection_111">
    <path clip-path="url(#pd4f65ed88f)" d="M 247.051312 143.1
L 247.051312 139.217143
" style="fill:none;stroke:#80ffb4;stroke-width:0.5;"/>
   </g>
   <g id="LineCollection_112">
    <path clip-path="url(#pd4f65ed88f)" d="M 251.676658 183.627321
L 251.676658 148.924286
" style="fill:none;stroke:#80ffb4;stroke-width:0.5;"/>
   </g>
   <g id="LineCollection_113">
    <path clip-path="url(#pd4f65ed88f)" d="M 277.13988 150.865714
L 277.13988 146.982857
" style="fill:none;stroke:#80ffb4;stroke-width:0.5;"/>
   </g>
   <g id="LineCollection_114">
    <path clip-path="url(#pd4f65ed88f)" d="M 271.479987 212.506071
L 271.479987 154.748571
" style="fill:none;stroke:#80ffb4;stroke-width:0.5;"/>
   </g>
   <g id="LineCollection_115">
    <path clip-path="url(#pd4f65ed88f)" d="M 274.058989 193.577143
L 274.058989 189.694286
" style="fill:none;stroke:#80ffb4;stroke-width:0.5;"/>
   </g>
   <g id="LineCollection_116">
    <path clip-path="url(#pd4f65ed88f)" d="M 276.808286 203.284286
L 276.808286 197.46
" style="fill:none;stroke:#80ffb4;stroke-width:0.5;"/>
   </g>
   <g id="LineCollection_117">
    <path clip-path="url(#pd4f65ed88f)" d="M 277.279417 205.225714
L 277.279417 201.342857
" style="fill:none;stroke:#80ffb4;stroke-width:0.5;"/>
   </g>
   <g id="LineCollection_118">
    <path clip-path="url(#pd4f65ed88f)" d="M 275.386669 215.903571
L 275.386669 209.108571
" style="fill:none;stroke:#80ffb4;stroke-width:0.5;"/>
   </g>
   <g id="LineCollection_119">
    <path clip-path="url(#pd4f65ed88f)" d="M 275.386669 218.815714
L 275.386669 212.991429
" style="fill:none;stroke:#80ffb4;stroke-width:0.5;"/>
   </g>
   <g id="LineCollection_120">
    <path clip-path="url(#pd4f65ed88f)" d="M 275.686399 220.757143
L 275.686399 216.874286
" style="fill:none;stroke:#80ffb4;stroke-width:0.5;"/>
   </g>
   <g id="line2d_3">
    <path clip-path="url(#pd4f65ed88f)" style="fill:none;stroke:#a9a9a9;stroke-linecap:square;stroke-opacity:0.5;stroke-width:0.5;"/>
   </g>
   <g id="line2d_4">
    <path clip-path="url(#pd4f65ed88f)" d="M 116.491221 224.64
L 116.491221 7.2
" style="fill:none;stroke:#a9a9a9;stroke-linecap:square;stroke-opacity:0.5;stroke-width:0.5;"/>
   </g>
   <g id="line2d_5">
    <path clip-path="url(#pd4f65ed88f)" d="M 276.979898 224.64
L 276.979898 7.2
" style="fill:none;stroke:#a9a9a9;stroke-linecap:square;stroke-opacity:0.5;stroke-width:0.5;"/>
   </g>
   <g id="patch_3">
    <path d="M 7.2 224.64
L 342 224.64
" style="fill:none;stroke:#000000;stroke-linecap:square;stroke-linejoin:miter;stroke-width:0.8;"/>
   </g>
   <g id="text_4">
    <!--   -->
    <g transform="translate(54.4081 76.378013)scale(0.05 -0.05)">
     <defs>
      <path id="DejaVuSans-32"/>
     </defs>
     <use xlink:href="#DejaVuSans-32"/>
    </g>
   </g>
   <g id="text_5">
    <!--   -->
    <g transform="translate(109.343895 76.378013)scale(0.05 -0.05)">
     <use xlink:href="#DejaVuSans-32"/>
    </g>
   </g>
   <g id="text_6">
    <!--   -->
    <g transform="translate(172.509281 76.378013)scale(0.05 -0.05)">
     <use xlink:href="#DejaVuSans-32"/>
    </g>
   </g>
   <g id="text_7">
    <!--   -->
    <g transform="translate(201.275459 31.634152)scale(0.05 -0.05)">
     <use xlink:href="#DejaVuSans-32"/>
    </g>
   </g>
   <g id="text_8">
    <!--   -->
    <g transform="translate(230.389285 22.169687)scale(0.05 -0.05)">
     <use xlink:href="#DejaVuSans-32"/>
    </g>
   </g>
   <g id="text_9">
    <!--   -->
    <g transform="translate(266.249769 18.28683)scale(0.05 -0.05)">
     <use xlink:href="#DejaVuSans-32"/>
    </g>
   </g>
   <g id="text_10">
    <!--   -->
    <g transform="translate(267.618097 16.345402)scale(0.05 -0.05)">
     <use xlink:href="#DejaVuSans-32"/>
    </g>
   </g>
   <g id="text_11">
    <!--   -->
    <g transform="translate(267.296054 20.228259)scale(0.05 -0.05)">
     <use xlink:href="#DejaVuSans-32"/>
    </g>
   </g>
   <g id="text_12">
    <!--   -->
    <g transform="translate(263.109532 26.052545)scale(0.05 -0.05)">
     <use xlink:href="#DejaVuSans-32"/>
    </g>
   </g>
   <g id="text_13">
    <!--   -->
    <g transform="translate(263.109497 24.111116)scale(0.05 -0.05)">
     <use xlink:href="#DejaVuSans-32"/>
    </g>
   </g>
   <g id="text_14">
    <!--   -->
    <g transform="translate(273.414869 27.993973)scale(0.05 -0.05)">
     <use xlink:href="#DejaVuSans-32"/>
    </g>
   </g>
   <g id="text_15">
    <!--   -->
    <g transform="translate(215.312061 41.098616)scale(0.05 -0.05)">
     <use xlink:href="#DejaVuSans-32"/>
    </g>
   </g>
   <g id="text_16">
    <!--   -->
    <g transform="translate(263.753583 31.87683)scale(0.05 -0.05)">
     <use xlink:href="#DejaVuSans-32"/>
    </g>
   </g>
   <g id="text_17">
    <!--   -->
    <g transform="translate(221.379438 50.320402)scale(0.05 -0.05)">
     <use xlink:href="#DejaVuSans-32"/>
    </g>
   </g>
   <g id="text_18">
    <!--   -->
    <g transform="translate(256.627041 40.613259)scale(0.05 -0.05)">
     <use xlink:href="#DejaVuSans-32"/>
    </g>
   </g>
   <g id="text_19">
    <!--   -->
    <g transform="translate(262.143369 35.759687)scale(0.05 -0.05)">
     <use xlink:href="#DejaVuSans-32"/>
    </g>
   </g>
   <g id="text_20">
    <!--   -->
    <g transform="translate(263.109497 39.642545)scale(0.05 -0.05)">
     <use xlink:href="#DejaVuSans-32"/>
    </g>
   </g>
   <g id="text_21">
    <!--   -->
    <g transform="translate(271.619525 45.46683)scale(0.05 -0.05)">
     <use xlink:href="#DejaVuSans-32"/>
    </g>
   </g>
   <g id="text_22">
    <!--   -->
    <g transform="translate(275.669169 43.525402)scale(0.05 -0.05)">
     <use xlink:href="#DejaVuSans-32"/>
    </g>
   </g>
   <g id="text_23">
    <!--   -->
    <g transform="translate(273.414869 47.408259)scale(0.05 -0.05)">
     <use xlink:href="#DejaVuSans-32"/>
    </g>
   </g>
   <g id="text_24">
    <!--   -->
    <g transform="translate(224.725361 60.027545)scale(0.05 -0.05)">
     <use xlink:href="#DejaVuSans-32"/>
    </g>
   </g>
   <g id="text_25">
    <!--   -->
    <g transform="translate(263.753583 51.291116)scale(0.05 -0.05)">
     <use xlink:href="#DejaVuSans-32"/>
    </g>
   </g>
   <g id="text_26">
    <!--   -->
    <g transform="translate(271.482612 55.173973)scale(0.05 -0.05)">
     <use xlink:href="#DejaVuSans-32"/>
    </g>
   </g>
   <g id="text_27">
    <!--   -->
    <g transform="translate(262.787489 60.998259)scale(0.05 -0.05)">
     <use xlink:href="#DejaVuSans-32"/>
    </g>
   </g>
   <g id="text_28">
    <!--   -->
    <g transform="translate(262.787454 59.05683)scale(0.05 -0.05)">
     <use xlink:href="#DejaVuSans-32"/>
    </g>
   </g>
   <g id="text_29">
    <!--   -->
    <g transform="translate(265.68584 62.939687)scale(0.05 -0.05)">
     <use xlink:href="#DejaVuSans-32"/>
    </g>
   </g>
   <g id="text_30">
    <!--   -->
    <g transform="translate(239.962775 68.763973)scale(0.05 -0.05)">
     <use xlink:href="#DejaVuSans-32"/>
    </g>
   </g>
   <g id="text_31">
    <!--   -->
    <g transform="translate(241.250912 66.822545)scale(0.05 -0.05)">
     <use xlink:href="#DejaVuSans-32"/>
    </g>
   </g>
   <g id="text_32">
    <!--   -->
    <g transform="translate(239.962741 70.705402)scale(0.05 -0.05)">
     <use xlink:href="#DejaVuSans-32"/>
    </g>
   </g>
   <g id="text_33">
    <!--   -->
    <g transform="translate(234.065579 121.121875)scale(0.05 -0.05)">
     <use xlink:href="#DejaVuSans-32"/>
    </g>
   </g>
   <g id="text_34">
    <!--   -->
    <g transform="translate(278.245512 74.588259)scale(0.05 -0.05)">
     <use xlink:href="#DejaVuSans-32"/>
    </g>
   </g>
   <g id="text_35">
    <!--   -->
    <g transform="translate(277.13988 82.353973)scale(0.05 -0.05)">
     <use xlink:href="#DejaVuSans-32"/>
    </g>
   </g>
   <g id="text_36">
    <!--   -->
    <g transform="translate(279.533683 78.471116)scale(0.05 -0.05)">
     <use xlink:href="#DejaVuSans-32"/>
    </g>
   </g>
   <g id="text_37">
    <!--   -->
    <g transform="translate(278.245512 82.353973)scale(0.05 -0.05)">
     <use xlink:href="#DejaVuSans-32"/>
    </g>
   </g>
   <g id="text_38">
    <!--   -->
    <g transform="translate(279.533683 86.23683)scale(0.05 -0.05)">
     <use xlink:href="#DejaVuSans-32"/>
    </g>
   </g>
   <g id="text_39">
    <!--   -->
    <g transform="translate(271.479987 100.797545)scale(0.05 -0.05)">
     <use xlink:href="#DejaVuSans-32"/>
    </g>
   </g>
   <g id="text_40">
    <!--   -->
    <g transform="translate(275.669169 90.119687)scale(0.05 -0.05)">
     <use xlink:href="#DejaVuSans-32"/>
    </g>
   </g>
   <g id="text_41">
    <!--   -->
    <g transform="translate(275.669169 94.002545)scale(0.05 -0.05)">
     <use xlink:href="#DejaVuSans-32"/>
    </g>
   </g>
   <g id="text_42">
    <!--   -->
    <g transform="translate(279.21164 97.885402)scale(0.05 -0.05)">
     <use xlink:href="#DejaVuSans-32"/>
    </g>
   </g>
   <g id="text_43">
    <!--   -->
    <g transform="translate(279.533683 101.768259)scale(0.05 -0.05)">
     <use xlink:href="#DejaVuSans-32"/>
    </g>
   </g>
   <g id="text_44">
    <!--   -->
    <g transform="translate(279.533683 105.651116)scale(0.05 -0.05)">
     <use xlink:href="#DejaVuSans-32"/>
    </g>
   </g>
   <g id="text_45">
    <!--   -->
    <g transform="translate(277.279417 111.475402)scale(0.05 -0.05)">
     <use xlink:href="#DejaVuSans-32"/>
    </g>
   </g>
   <g id="text_46">
    <!--   -->
    <g transform="translate(277.279383 109.533973)scale(0.05 -0.05)">
     <use xlink:href="#DejaVuSans-32"/>
    </g>
   </g>
   <g id="text_47">
    <!--   -->
    <g transform="translate(277.923469 113.41683)scale(0.05 -0.05)">
     <use xlink:href="#DejaVuSans-32"/>
    </g>
   </g>
   <g id="text_48">
    <!--   -->
    <g transform="translate(238.03827 127.977545)scale(0.05 -0.05)">
     <use xlink:href="#DejaVuSans-32"/>
    </g>
   </g>
   <g id="text_49">
    <!--   -->
    <g transform="translate(266.651969 117.299687)scale(0.05 -0.05)">
     <use xlink:href="#DejaVuSans-32"/>
    </g>
   </g>
   <g id="text_50">
    <!--   -->
    <g transform="translate(271.343108 124.094687)scale(0.05 -0.05)">
     <use xlink:href="#DejaVuSans-32"/>
    </g>
   </g>
   <g id="text_51">
    <!--   -->
    <g transform="translate(273.736912 121.182545)scale(0.05 -0.05)">
     <use xlink:href="#DejaVuSans-32"/>
    </g>
   </g>
   <g id="text_52">
    <!--   -->
    <g transform="translate(278.02514 127.00683)scale(0.05 -0.05)">
     <use xlink:href="#DejaVuSans-32"/>
    </g>
   </g>
   <g id="text_53">
    <!--   -->
    <g transform="translate(279.21164 125.065402)scale(0.05 -0.05)">
     <use xlink:href="#DejaVuSans-32"/>
    </g>
   </g>
   <g id="text_54">
    <!--   -->
    <g transform="translate(279.533683 128.948259)scale(0.05 -0.05)">
     <use xlink:href="#DejaVuSans-32"/>
    </g>
   </g>
   <g id="text_55">
    <!--   -->
    <g transform="translate(242.452042 138.655402)scale(0.05 -0.05)">
     <use xlink:href="#DejaVuSans-32"/>
    </g>
   </g>
   <g id="text_56">
    <!--   -->
    <g transform="translate(257.301645 134.772545)scale(0.05 -0.05)">
     <use xlink:href="#DejaVuSans-32"/>
    </g>
   </g>
   <g id="text_57">
    <!--   -->
    <g transform="translate(266.329926 132.831116)scale(0.05 -0.05)">
     <use xlink:href="#DejaVuSans-32"/>
    </g>
   </g>
   <g id="text_58">
    <!--   -->
    <g transform="translate(260.855232 136.713973)scale(0.05 -0.05)">
     <use xlink:href="#DejaVuSans-32"/>
    </g>
   </g>
   <g id="text_59">
    <!--   -->
    <g transform="translate(247.051312 142.538259)scale(0.05 -0.05)">
     <use xlink:href="#DejaVuSans-32"/>
    </g>
   </g>
   <g id="text_60">
    <!--   -->
    <g transform="translate(277.601426 140.59683)scale(0.05 -0.05)">
     <use xlink:href="#DejaVuSans-32"/>
    </g>
   </g>
   <g id="text_61">
    <!--   -->
    <g transform="translate(278.567554 144.479687)scale(0.05 -0.05)">
     <use xlink:href="#DejaVuSans-32"/>
    </g>
   </g>
   <g id="text_62">
    <!--   -->
    <g transform="translate(251.676658 167.655491)scale(0.05 -0.05)">
     <use xlink:href="#DejaVuSans-32"/>
    </g>
   </g>
   <g id="text_63">
    <!--   -->
    <g transform="translate(277.13988 150.303973)scale(0.05 -0.05)">
     <use xlink:href="#DejaVuSans-32"/>
    </g>
   </g>
   <g id="text_64">
    <!--   -->
    <g transform="translate(279.533683 148.362545)scale(0.05 -0.05)">
     <use xlink:href="#DejaVuSans-32"/>
    </g>
   </g>
   <g id="text_65">
    <!--   -->
    <g transform="translate(279.533683 152.245402)scale(0.05 -0.05)">
     <use xlink:href="#DejaVuSans-32"/>
    </g>
   </g>
   <g id="text_66">
    <!--   -->
    <g transform="translate(271.479987 185.007009)scale(0.05 -0.05)">
     <use xlink:href="#DejaVuSans-32"/>
    </g>
   </g>
   <g id="text_67">
    <!--   -->
    <g transform="translate(275.669169 156.128259)scale(0.05 -0.05)">
     <use xlink:href="#DejaVuSans-32"/>
    </g>
   </g>
   <g id="text_68">
    <!--   -->
    <g transform="translate(275.669169 160.011116)scale(0.05 -0.05)">
     <use xlink:href="#DejaVuSans-32"/>
    </g>
   </g>
   <g id="text_69">
    <!--   -->
    <g transform="translate(279.533683 163.893973)scale(0.05 -0.05)">
     <use xlink:href="#DejaVuSans-32"/>
    </g>
   </g>
   <g id="text_70">
    <!--   -->
    <g transform="translate(275.669169 167.77683)scale(0.05 -0.05)">
     <use xlink:href="#DejaVuSans-32"/>
    </g>
   </g>
   <g id="text_71">
    <!--   -->
    <g transform="translate(279.21164 171.659687)scale(0.05 -0.05)">
     <use xlink:href="#DejaVuSans-32"/>
    </g>
   </g>
   <g id="text_72">
    <!--   -->
    <g transform="translate(278.567554 175.542545)scale(0.05 -0.05)">
     <use xlink:href="#DejaVuSans-32"/>
    </g>
   </g>
   <g id="text_73">
    <!--   -->
    <g transform="translate(277.601426 179.425402)scale(0.05 -0.05)">
     <use xlink:href="#DejaVuSans-32"/>
    </g>
   </g>
   <g id="text_74">
    <!--   -->
    <g transform="translate(279.533683 183.308259)scale(0.05 -0.05)">
     <use xlink:href="#DejaVuSans-32"/>
    </g>
   </g>
   <g id="text_75">
    <!--   -->
    <g transform="translate(276.313254 187.191116)scale(0.05 -0.05)">
     <use xlink:href="#DejaVuSans-32"/>
    </g>
   </g>
   <g id="text_76">
    <!--   -->
    <g transform="translate(274.058989 193.015402)scale(0.05 -0.05)">
     <use xlink:href="#DejaVuSans-32"/>
    </g>
   </g>
   <g id="text_77">
    <!--   -->
    <g transform="translate(274.058954 191.073973)scale(0.05 -0.05)">
     <use xlink:href="#DejaVuSans-32"/>
    </g>
   </g>
   <g id="text_78">
    <!--   -->
    <g transform="translate(274.058954 194.95683)scale(0.05 -0.05)">
     <use xlink:href="#DejaVuSans-32"/>
    </g>
   </g>
   <g id="text_79">
    <!--   -->
    <g transform="translate(276.808286 201.75183)scale(0.05 -0.05)">
     <use xlink:href="#DejaVuSans-32"/>
    </g>
   </g>
   <g id="text_80">
    <!--   -->
    <g transform="translate(278.567554 198.839687)scale(0.05 -0.05)">
     <use xlink:href="#DejaVuSans-32"/>
    </g>
   </g>
   <g id="text_81">
    <!--   -->
    <g transform="translate(277.279417 204.663973)scale(0.05 -0.05)">
     <use xlink:href="#DejaVuSans-32"/>
    </g>
   </g>
   <g id="text_82">
    <!--   -->
    <g transform="translate(278.567554 202.722545)scale(0.05 -0.05)">
     <use xlink:href="#DejaVuSans-32"/>
    </g>
   </g>
   <g id="text_83">
    <!--   -->
    <g transform="translate(277.279383 206.605402)scale(0.05 -0.05)">
     <use xlink:href="#DejaVuSans-32"/>
    </g>
   </g>
   <g id="text_84">
    <!--   -->
    <g transform="translate(275.386669 213.885759)scale(0.05 -0.05)">
     <use xlink:href="#DejaVuSans-32"/>
    </g>
   </g>
   <g id="text_85">
    <!--   -->
    <g transform="translate(275.669169 210.488259)scale(0.05 -0.05)">
     <use xlink:href="#DejaVuSans-32"/>
    </g>
   </g>
   <g id="text_86">
    <!--   -->
    <g transform="translate(275.386669 217.283259)scale(0.05 -0.05)">
     <use xlink:href="#DejaVuSans-32"/>
    </g>
   </g>
   <g id="text_87">
    <!--   -->
    <g transform="translate(276.313254 214.371116)scale(0.05 -0.05)">
     <use xlink:href="#DejaVuSans-32"/>
    </g>
   </g>
   <g id="text_88">
    <!--   -->
    <g transform="translate(275.686399 220.195402)scale(0.05 -0.05)">
     <use xlink:href="#DejaVuSans-32"/>
    </g>
   </g>
   <g id="text_89">
    <!--   -->
    <g transform="translate(276.313254 218.253973)scale(0.05 -0.05)">
     <use xlink:href="#DejaVuSans-32"/>
    </g>
   </g>
   <g id="text_90">
    <!--   -->
    <g transform="translate(276.313254 222.13683)scale(0.05 -0.05)">
     <use xlink:href="#DejaVuSans-32"/>
    </g>
   </g>
  </g>
 </g>
 <defs>
  <clipPath id="pd4f65ed88f">
   <rect height="217.44" width="334.8" x="7.2" y="7.2"/>
  </clipPath>
 </defs>
</svg>
