<?xml version="1.0" encoding="utf-8" standalone="no"?>
<!DOCTYPE svg PUBLIC "-//W3C//DTD SVG 1.1//EN"
  "http://www.w3.org/Graphics/SVG/1.1/DTD/svg11.dtd">
<!-- Created with matplotlib (https://matplotlib.org/) -->
<svg height="255.421562pt" version="1.1" viewBox="0 0 349.2 255.421562" width="349.2pt" xmlns="http://www.w3.org/2000/svg" xmlns:xlink="http://www.w3.org/1999/xlink">
 <metadata>
  <rdf:RDF xmlns:cc="http://creativecommons.org/ns#" xmlns:dc="http://purl.org/dc/elements/1.1/" xmlns:rdf="http://www.w3.org/1999/02/22-rdf-syntax-ns#">
   <cc:Work>
    <dc:type rdf:resource="http://purl.org/dc/dcmitype/StillImage"/>
    <dc:date>2021-03-04T17:08:01.028265</dc:date>
    <dc:format>image/svg+xml</dc:format>
    <dc:creator>
     <cc:Agent>
      <dc:title>Matplotlib v3.3.2, https://matplotlib.org/</dc:title>
     </cc:Agent>
    </dc:creator>
   </cc:Work>
  </rdf:RDF>
 </metadata>
 <defs>
  <style type="text/css">*{stroke-linecap:butt;stroke-linejoin:round;}</style>
 </defs>
 <g id="figure_1">
  <g id="patch_1">
   <path d="M 0 255.421562
L 349.2 255.421562
L 349.2 0
L 0 0
z
" style="fill:none;"/>
  </g>
  <g id="axes_1">
   <g id="patch_2">
    <path d="M 7.2 224.64
L 342 224.64
L 342 7.2
L 7.2 7.2
z
" style="fill:#ffffff;"/>
   </g>
   <g id="matplotlib.axis_1">
    <g id="xtick_1">
     <g id="line2d_1">
      <defs>
       <path d="M 0 0
L 0 3.5
" id="madf530cb6e" style="stroke:#000000;stroke-width:0.8;"/>
      </defs>
      <g>
       <use style="stroke:#000000;stroke-width:0.8;" x="91.144586" xlink:href="#madf530cb6e" y="224.64"/>
      </g>
     </g>
     <g id="text_1">
      <!-- 1500 -->
      <g transform="translate(84.782086 235.439219)scale(0.05 -0.05)">
       <defs>
        <path d="M 12.40625 8.296875
L 28.515625 8.296875
L 28.515625 63.921875
L 10.984375 60.40625
L 10.984375 69.390625
L 28.421875 72.90625
L 38.28125 72.90625
L 38.28125 8.296875
L 54.390625 8.296875
L 54.390625 0
L 12.40625 0
z
" id="DejaVuSans-49"/>
        <path d="M 10.796875 72.90625
L 49.515625 72.90625
L 49.515625 64.59375
L 19.828125 64.59375
L 19.828125 46.734375
Q 21.96875 47.46875 24.109375 47.828125
Q 26.265625 48.1875 28.421875 48.1875
Q 40.625 48.1875 47.75 41.5
Q 54.890625 34.8125 54.890625 23.390625
Q 54.890625 11.625 47.5625 5.09375
Q 40.234375 -1.421875 26.90625 -1.421875
Q 22.3125 -1.421875 17.546875 -0.640625
Q 12.796875 0.140625 7.71875 1.703125
L 7.71875 11.625
Q 12.109375 9.234375 16.796875 8.0625
Q 21.484375 6.890625 26.703125 6.890625
Q 35.15625 6.890625 40.078125 11.328125
Q 45.015625 15.765625 45.015625 23.390625
Q 45.015625 31 40.078125 35.4375
Q 35.15625 39.890625 26.703125 39.890625
Q 22.75 39.890625 18.8125 39.015625
Q 14.890625 38.140625 10.796875 36.28125
z
" id="DejaVuSans-53"/>
        <path d="M 31.78125 66.40625
Q 24.171875 66.40625 20.328125 58.90625
Q 16.5 51.421875 16.5 36.375
Q 16.5 21.390625 20.328125 13.890625
Q 24.171875 6.390625 31.78125 6.390625
Q 39.453125 6.390625 43.28125 13.890625
Q 47.125 21.390625 47.125 36.375
Q 47.125 51.421875 43.28125 58.90625
Q 39.453125 66.40625 31.78125 66.40625
z
M 31.78125 74.21875
Q 44.046875 74.21875 50.515625 64.515625
Q 56.984375 54.828125 56.984375 36.375
Q 56.984375 17.96875 50.515625 8.265625
Q 44.046875 -1.421875 31.78125 -1.421875
Q 19.53125 -1.421875 13.0625 8.265625
Q 6.59375 17.96875 6.59375 36.375
Q 6.59375 54.828125 13.0625 64.515625
Q 19.53125 74.21875 31.78125 74.21875
z
" id="DejaVuSans-48"/>
       </defs>
       <use xlink:href="#DejaVuSans-49"/>
       <use x="63.623047" xlink:href="#DejaVuSans-53"/>
       <use x="127.246094" xlink:href="#DejaVuSans-48"/>
       <use x="190.869141" xlink:href="#DejaVuSans-48"/>
      </g>
     </g>
    </g>
    <g id="xtick_2">
     <g id="line2d_2">
      <g>
       <use style="stroke:#000000;stroke-width:0.8;" x="277.290023" xlink:href="#madf530cb6e" y="224.64"/>
      </g>
     </g>
     <g id="text_2">
      <!-- 2000 -->
      <g transform="translate(270.927523 235.439219)scale(0.05 -0.05)">
       <defs>
        <path d="M 19.1875 8.296875
L 53.609375 8.296875
L 53.609375 0
L 7.328125 0
L 7.328125 8.296875
Q 12.9375 14.109375 22.625 23.890625
Q 32.328125 33.6875 34.8125 36.53125
Q 39.546875 41.84375 41.421875 45.53125
Q 43.3125 49.21875 43.3125 52.78125
Q 43.3125 58.59375 39.234375 62.25
Q 35.15625 65.921875 28.609375 65.921875
Q 23.96875 65.921875 18.8125 64.3125
Q 13.671875 62.703125 7.8125 59.421875
L 7.8125 69.390625
Q 13.765625 71.78125 18.9375 73
Q 24.125 74.21875 28.421875 74.21875
Q 39.75 74.21875 46.484375 68.546875
Q 53.21875 62.890625 53.21875 53.421875
Q 53.21875 48.921875 51.53125 44.890625
Q 49.859375 40.875 45.40625 35.40625
Q 44.1875 33.984375 37.640625 27.21875
Q 31.109375 20.453125 19.1875 8.296875
z
" id="DejaVuSans-50"/>
       </defs>
       <use xlink:href="#DejaVuSans-50"/>
       <use x="63.623047" xlink:href="#DejaVuSans-48"/>
       <use x="127.246094" xlink:href="#DejaVuSans-48"/>
       <use x="190.869141" xlink:href="#DejaVuSans-48"/>
      </g>
     </g>
    </g>
    <g id="text_3">
     <!-- Year -->
     <g transform="translate(166.13 246.557812)scale(0.08 -0.08)">
      <defs>
       <path d="M -0.203125 72.90625
L 10.40625 72.90625
L 30.609375 42.921875
L 50.6875 72.90625
L 61.28125 72.90625
L 35.5 34.71875
L 35.5 0
L 25.59375 0
L 25.59375 34.71875
z
" id="DejaVuSans-89"/>
       <path d="M 56.203125 29.59375
L 56.203125 25.203125
L 14.890625 25.203125
Q 15.484375 15.921875 20.484375 11.0625
Q 25.484375 6.203125 34.421875 6.203125
Q 39.59375 6.203125 44.453125 7.46875
Q 49.3125 8.734375 54.109375 11.28125
L 54.109375 2.78125
Q 49.265625 0.734375 44.1875 -0.34375
Q 39.109375 -1.421875 33.890625 -1.421875
Q 20.796875 -1.421875 13.15625 6.1875
Q 5.515625 13.8125 5.515625 26.8125
Q 5.515625 40.234375 12.765625 48.109375
Q 20.015625 56 32.328125 56
Q 43.359375 56 49.78125 48.890625
Q 56.203125 41.796875 56.203125 29.59375
z
M 47.21875 32.234375
Q 47.125 39.59375 43.09375 43.984375
Q 39.0625 48.390625 32.421875 48.390625
Q 24.90625 48.390625 20.390625 44.140625
Q 15.875 39.890625 15.1875 32.171875
z
" id="DejaVuSans-101"/>
       <path d="M 34.28125 27.484375
Q 23.390625 27.484375 19.1875 25
Q 14.984375 22.515625 14.984375 16.5
Q 14.984375 11.71875 18.140625 8.90625
Q 21.296875 6.109375 26.703125 6.109375
Q 34.1875 6.109375 38.703125 11.40625
Q 43.21875 16.703125 43.21875 25.484375
L 43.21875 27.484375
z
M 52.203125 31.203125
L 52.203125 0
L 43.21875 0
L 43.21875 8.296875
Q 40.140625 3.328125 35.546875 0.953125
Q 30.953125 -1.421875 24.3125 -1.421875
Q 15.921875 -1.421875 10.953125 3.296875
Q 6 8.015625 6 15.921875
Q 6 25.140625 12.171875 29.828125
Q 18.359375 34.515625 30.609375 34.515625
L 43.21875 34.515625
L 43.21875 35.40625
Q 43.21875 41.609375 39.140625 45
Q 35.0625 48.390625 27.6875 48.390625
Q 23 48.390625 18.546875 47.265625
Q 14.109375 46.140625 10.015625 43.890625
L 10.015625 52.203125
Q 14.9375 54.109375 19.578125 55.046875
Q 24.21875 56 28.609375 56
Q 40.484375 56 46.34375 49.84375
Q 52.203125 43.703125 52.203125 31.203125
z
" id="DejaVuSans-97"/>
       <path d="M 41.109375 46.296875
Q 39.59375 47.171875 37.8125 47.578125
Q 36.03125 48 33.890625 48
Q 26.265625 48 22.1875 43.046875
Q 18.109375 38.09375 18.109375 28.8125
L 18.109375 0
L 9.078125 0
L 9.078125 54.6875
L 18.109375 54.6875
L 18.109375 46.1875
Q 20.953125 51.171875 25.484375 53.578125
Q 30.03125 56 36.53125 56
Q 37.453125 56 38.578125 55.875
Q 39.703125 55.765625 41.0625 55.515625
z
" id="DejaVuSans-114"/>
      </defs>
      <use xlink:href="#DejaVuSans-89"/>
      <use x="47.833984" xlink:href="#DejaVuSans-101"/>
      <use x="109.357422" xlink:href="#DejaVuSans-97"/>
      <use x="170.636719" xlink:href="#DejaVuSans-114"/>
     </g>
    </g>
   </g>
   <g id="matplotlib.axis_2"/>
   <g id="LineCollection_1">
    <path clip-path="url(#pad0fc58884)" d="M 33.260361 61.881105
L 56.765639 61.881105
" style="fill:none;stroke:#ff964f;"/>
   </g>
   <g id="LineCollection_2">
    <path clip-path="url(#pad0fc58884)" d="M 56.765639 61.881105
L 187.240555 61.881105
" style="fill:none;stroke:#ff4f28;"/>
   </g>
   <g id="LineCollection_3">
    <path clip-path="url(#pad0fc58884)" d="M 187.240555 17.806829
L 260.08163 17.806829
" style="fill:none;stroke:#ff4f28;"/>
   </g>
   <g id="LineCollection_4">
    <path clip-path="url(#pad0fc58884)" d="M 187.240555 23.110244
L 269.046271 23.110244
" style="fill:none;stroke:#ff4f28;"/>
   </g>
   <g id="LineCollection_5">
    <path clip-path="url(#pad0fc58884)" d="M 187.240555 28.413659
L 271.660958 28.413659
" style="fill:none;stroke:#ff4f28;"/>
   </g>
   <g id="LineCollection_6">
    <path clip-path="url(#pad0fc58884)" d="M 187.240555 105.955381
L 192.964034 105.955381
" style="fill:none;stroke:#ff4f28;"/>
   </g>
   <g id="LineCollection_7">
    <path clip-path="url(#pad0fc58884)" d="M 192.964034 36.36878
L 262.548807 36.36878
" style="fill:none;stroke:#ff4f28;"/>
   </g>
   <g id="LineCollection_8">
    <path clip-path="url(#pad0fc58884)" d="M 262.548807 33.717073
L 267.925691 33.717073
" style="fill:none;stroke:#ff4f28;"/>
   </g>
   <g id="LineCollection_9">
    <path clip-path="url(#pad0fc58884)" d="M 262.548807 39.020488
L 263.816897 39.020488
" style="fill:none;stroke:#ff4f28;"/>
   </g>
   <g id="LineCollection_10">
    <path clip-path="url(#pad0fc58884)" d="M 192.964034 51.616098
L 265.075075 51.616098
" style="fill:none;stroke:#ff4f28;"/>
   </g>
   <g id="LineCollection_11">
    <path clip-path="url(#pad0fc58884)" d="M 265.075075 44.323902
L 273.528591 44.323902
" style="fill:none;stroke:#ff4f28;"/>
   </g>
   <g id="LineCollection_12">
    <path clip-path="url(#pad0fc58884)" d="M 265.075075 49.627317
L 268.299217 49.627317
" style="fill:none;stroke:#ff4f28;"/>
   </g>
   <g id="LineCollection_13">
    <path clip-path="url(#pad0fc58884)" d="M 265.075075 58.908293
L 267.827849 58.908293
" style="fill:none;stroke:#ff4f28;"/>
   </g>
   <g id="LineCollection_14">
    <path clip-path="url(#pad0fc58884)" d="M 267.827849 54.930732
L 280.252072 54.930732
" style="fill:none;stroke:#ff4f28;"/>
   </g>
   <g id="LineCollection_15">
    <path clip-path="url(#pad0fc58884)" d="M 267.827849 62.885854
L 268.299257 62.885854
" style="fill:none;stroke:#ff4f28;"/>
   </g>
   <g id="LineCollection_16">
    <path clip-path="url(#pad0fc58884)" d="M 268.299257 60.234146
L 275.022698 60.234146
" style="fill:none;stroke:#ff4f28;"/>
   </g>
   <g id="LineCollection_17">
    <path clip-path="url(#pad0fc58884)" d="M 268.299257 65.537561
L 268.299217 65.537561
" style="fill:none;stroke:#ff4f28;"/>
   </g>
   <g id="LineCollection_18">
    <path clip-path="url(#pad0fc58884)" d="M 192.964034 75.978659
L 250.724998 75.978659
" style="fill:none;stroke:#ff4f28;"/>
   </g>
   <g id="LineCollection_19">
    <path clip-path="url(#pad0fc58884)" d="M 250.724998 70.840976
L 279.878546 70.840976
" style="fill:none;stroke:#ff4f28;"/>
   </g>
   <g id="LineCollection_20">
    <path clip-path="url(#pad0fc58884)" d="M 250.724998 81.116341
L 265.293289 81.116341
" style="fill:none;stroke:#ff4f28;"/>
   </g>
   <g id="LineCollection_21">
    <path clip-path="url(#pad0fc58884)" d="M 265.293289 76.14439
L 273.155065 76.14439
" style="fill:none;stroke:#ff4f28;"/>
   </g>
   <g id="LineCollection_22">
    <path clip-path="url(#pad0fc58884)" d="M 265.293289 86.088293
L 269.032143 86.088293
" style="fill:none;stroke:#ff4f28;"/>
   </g>
   <g id="LineCollection_23">
    <path clip-path="url(#pad0fc58884)" d="M 269.032143 81.447805
L 276.890332 81.447805
" style="fill:none;stroke:#ff4f28;"/>
   </g>
   <g id="LineCollection_24">
    <path clip-path="url(#pad0fc58884)" d="M 269.032143 90.72878
L 270.879066 90.72878
" style="fill:none;stroke:#ff4f28;"/>
   </g>
   <g id="LineCollection_25">
    <path clip-path="url(#pad0fc58884)" d="M 270.879066 86.75122
L 276.890332 86.75122
" style="fill:none;stroke:#ff4f28;"/>
   </g>
   <g id="LineCollection_26">
    <path clip-path="url(#pad0fc58884)" d="M 270.879066 94.706341
L 275.769792 94.706341
" style="fill:none;stroke:#ff4f28;"/>
   </g>
   <g id="LineCollection_27">
    <path clip-path="url(#pad0fc58884)" d="M 275.769792 92.054634
L 276.890332 92.054634
" style="fill:none;stroke:#ff4f28;"/>
   </g>
   <g id="LineCollection_28">
    <path clip-path="url(#pad0fc58884)" d="M 275.769792 97.358049
L 275.769752 97.358049
" style="fill:none;stroke:#ff4f28;"/>
   </g>
   <g id="LineCollection_29">
    <path clip-path="url(#pad0fc58884)" d="M 192.964034 123.377927
L 234.511562 123.377927
" style="fill:none;stroke:#ff4f28;"/>
   </g>
   <g id="LineCollection_30">
    <path clip-path="url(#pad0fc58884)" d="M 234.511562 109.290732
L 258.440399 109.290732
" style="fill:none;stroke:#ff4f28;"/>
   </g>
   <g id="LineCollection_31">
    <path clip-path="url(#pad0fc58884)" d="M 258.440399 102.661463
L 266.431584 102.661463
" style="fill:none;stroke:#ff4f28;"/>
   </g>
   <g id="LineCollection_32">
    <path clip-path="url(#pad0fc58884)" d="M 258.440399 107.964878
L 263.816897 107.964878
" style="fill:none;stroke:#ff4f28;"/>
   </g>
   <g id="LineCollection_33">
    <path clip-path="url(#pad0fc58884)" d="M 258.440399 115.92
L 268.937312 115.92
" style="fill:none;stroke:#ff4f28;"/>
   </g>
   <g id="LineCollection_34">
    <path clip-path="url(#pad0fc58884)" d="M 268.937312 113.268293
L 278.757965 113.268293
" style="fill:none;stroke:#ff4f28;"/>
   </g>
   <g id="LineCollection_35">
    <path clip-path="url(#pad0fc58884)" d="M 268.937312 118.571707
L 272.781538 118.571707
" style="fill:none;stroke:#ff4f28;"/>
   </g>
   <g id="LineCollection_36">
    <path clip-path="url(#pad0fc58884)" d="M 234.511562 137.465122
L 257.245213 137.465122
" style="fill:none;stroke:#ff4f28;"/>
   </g>
   <g id="LineCollection_37">
    <path clip-path="url(#pad0fc58884)" d="M 257.245213 127.852683
L 268.89037 127.852683
" style="fill:none;stroke:#ff4f28;"/>
   </g>
   <g id="LineCollection_38">
    <path clip-path="url(#pad0fc58884)" d="M 268.89037 123.875122
L 273.902118 123.875122
" style="fill:none;stroke:#ff4f28;"/>
   </g>
   <g id="LineCollection_39">
    <path clip-path="url(#pad0fc58884)" d="M 268.89037 131.830244
L 273.902158 131.830244
" style="fill:none;stroke:#ff4f28;"/>
   </g>
   <g id="LineCollection_40">
    <path clip-path="url(#pad0fc58884)" d="M 273.902158 129.178537
L 276.143278 129.178537
" style="fill:none;stroke:#ff4f28;"/>
   </g>
   <g id="LineCollection_41">
    <path clip-path="url(#pad0fc58884)" d="M 273.902158 134.481951
L 273.902118 134.481951
" style="fill:none;stroke:#ff4f28;"/>
   </g>
   <g id="LineCollection_42">
    <path clip-path="url(#pad0fc58884)" d="M 257.245213 147.077561
L 260.08167 147.077561
" style="fill:none;stroke:#ff4f28;"/>
   </g>
   <g id="LineCollection_43">
    <path clip-path="url(#pad0fc58884)" d="M 260.08167 139.785366
L 264.190423 139.785366
" style="fill:none;stroke:#ff4f28;"/>
   </g>
   <g id="LineCollection_44">
    <path clip-path="url(#pad0fc58884)" d="M 260.08167 145.08878
L 260.08163 145.08878
" style="fill:none;stroke:#ff4f28;"/>
   </g>
   <g id="LineCollection_45">
    <path clip-path="url(#pad0fc58884)" d="M 260.08167 154.369756
L 263.385706 154.369756
" style="fill:none;stroke:#ff4f28;"/>
   </g>
   <g id="LineCollection_46">
    <path clip-path="url(#pad0fc58884)" d="M 263.385706 150.392195
L 270.540378 150.392195
" style="fill:none;stroke:#ff4f28;"/>
   </g>
   <g id="LineCollection_47">
    <path clip-path="url(#pad0fc58884)" d="M 263.385706 158.347317
L 263.816937 158.347317
" style="fill:none;stroke:#ff4f28;"/>
   </g>
   <g id="LineCollection_48">
    <path clip-path="url(#pad0fc58884)" d="M 263.816937 155.69561
L 263.816897 155.69561
" style="fill:none;stroke:#ff4f28;"/>
   </g>
   <g id="LineCollection_49">
    <path clip-path="url(#pad0fc58884)" d="M 263.816937 160.999024
L 263.816897 160.999024
" style="fill:none;stroke:#ff4f28;"/>
   </g>
   <g id="LineCollection_50">
    <path clip-path="url(#pad0fc58884)" d="M 192.964034 175.541982
L 197.595103 175.541982
" style="fill:none;stroke:#ff4f28;"/>
   </g>
   <g id="LineCollection_51">
    <path clip-path="url(#pad0fc58884)" d="M 197.595103 166.302439
L 279.505019 166.302439
" style="fill:none;stroke:#ff4f28;"/>
   </g>
   <g id="LineCollection_52">
    <path clip-path="url(#pad0fc58884)" d="M 197.595103 184.781524
L 199.980915 184.781524
" style="fill:none;stroke:#ff4f28;"/>
   </g>
   <g id="LineCollection_53">
    <path clip-path="url(#pad0fc58884)" d="M 199.980915 184.781524
L 256.771344 184.781524
" style="fill:none;stroke:#ff4f28;"/>
   </g>
   <g id="LineCollection_54">
    <path clip-path="url(#pad0fc58884)" d="M 256.771344 171.605854
L 261.20221 171.605854
" style="fill:none;stroke:#ff4f28;"/>
   </g>
   <g id="LineCollection_55">
    <path clip-path="url(#pad0fc58884)" d="M 256.771344 176.909268
L 271.287431 176.909268
" style="fill:none;stroke:#ff4f28;"/>
   </g>
   <g id="LineCollection_56">
    <path clip-path="url(#pad0fc58884)" d="M 256.771344 184.86439
L 258.484124 184.86439
" style="fill:none;stroke:#ff4f28;"/>
   </g>
   <g id="LineCollection_57">
    <path clip-path="url(#pad0fc58884)" d="M 258.484124 182.212683
L 260.08163 182.212683
" style="fill:none;stroke:#ff4f28;"/>
   </g>
   <g id="LineCollection_58">
    <path clip-path="url(#pad0fc58884)" d="M 258.484124 187.516098
L 260.08163 187.516098
" style="fill:none;stroke:#ff4f28;"/>
   </g>
   <g id="LineCollection_59">
    <path clip-path="url(#pad0fc58884)" d="M 256.771344 197.957195
L 264.946217 197.957195
" style="fill:none;stroke:#ff4f28;"/>
   </g>
   <g id="LineCollection_60">
    <path clip-path="url(#pad0fc58884)" d="M 264.946217 192.819512
L 268.672744 192.819512
" style="fill:none;stroke:#ff4f28;"/>
   </g>
   <g id="LineCollection_61">
    <path clip-path="url(#pad0fc58884)" d="M 264.946217 203.094878
L 264.946217 203.094878
" style="fill:none;stroke:#ff4f28;"/>
   </g>
   <g id="LineCollection_62">
    <path clip-path="url(#pad0fc58884)" d="M 264.946217 198.122927
L 269.419797 198.122927
" style="fill:none;stroke:#ff4f28;"/>
   </g>
   <g id="LineCollection_63">
    <path clip-path="url(#pad0fc58884)" d="M 264.946217 208.066829
L 265.030052 208.066829
" style="fill:none;stroke:#ff4f28;"/>
   </g>
   <g id="LineCollection_64">
    <path clip-path="url(#pad0fc58884)" d="M 265.030052 203.426341
L 269.419797 203.426341
" style="fill:none;stroke:#ff4f28;"/>
   </g>
   <g id="LineCollection_65">
    <path clip-path="url(#pad0fc58884)" d="M 265.030052 212.707317
L 265.030052 212.707317
" style="fill:none;stroke:#ff4f28;"/>
   </g>
   <g id="LineCollection_66">
    <path clip-path="url(#pad0fc58884)" d="M 265.030052 208.729756
L 270.540378 208.729756
" style="fill:none;stroke:#ff4f28;"/>
   </g>
   <g id="LineCollection_67">
    <path clip-path="url(#pad0fc58884)" d="M 265.030052 216.684878
L 268.672784 216.684878
" style="fill:none;stroke:#ff4f28;"/>
   </g>
   <g id="LineCollection_68">
    <path clip-path="url(#pad0fc58884)" d="M 268.672784 214.033171
L 268.672744 214.033171
" style="fill:none;stroke:#ff4f28;"/>
   </g>
   <g id="LineCollection_69">
    <path clip-path="url(#pad0fc58884)" d="M 268.672784 219.336585
L 270.540378 219.336585
" style="fill:none;stroke:#ff4f28;"/>
   </g>
   <g id="LineCollection_70">
    <path clip-path="url(#pad0fc58884)" d="M 56.765639 61.881105
L 56.765639 61.881105
" style="fill:none;stroke:#ff964f;"/>
   </g>
   <g id="LineCollection_71">
    <path clip-path="url(#pad0fc58884)" d="M 187.240555 105.955381
L 187.240555 17.806829
" style="fill:none;stroke:#ff4f28;"/>
   </g>
   <g id="LineCollection_72">
    <path clip-path="url(#pad0fc58884)" d="M 192.964034 175.541982
L 192.964034 36.36878
" style="fill:none;stroke:#ff4f28;"/>
   </g>
   <g id="LineCollection_73">
    <path clip-path="url(#pad0fc58884)" d="M 262.548807 39.020488
L 262.548807 33.717073
" style="fill:none;stroke:#ff4f28;"/>
   </g>
   <g id="LineCollection_74">
    <path clip-path="url(#pad0fc58884)" d="M 265.075075 58.908293
L 265.075075 44.323902
" style="fill:none;stroke:#ff4f28;"/>
   </g>
   <g id="LineCollection_75">
    <path clip-path="url(#pad0fc58884)" d="M 267.827849 62.885854
L 267.827849 54.930732
" style="fill:none;stroke:#ff4f28;"/>
   </g>
   <g id="LineCollection_76">
    <path clip-path="url(#pad0fc58884)" d="M 268.299257 65.537561
L 268.299257 60.234146
" style="fill:none;stroke:#ff4f28;"/>
   </g>
   <g id="LineCollection_77">
    <path clip-path="url(#pad0fc58884)" d="M 250.724998 81.116341
L 250.724998 70.840976
" style="fill:none;stroke:#ff4f28;"/>
   </g>
   <g id="LineCollection_78">
    <path clip-path="url(#pad0fc58884)" d="M 265.293289 86.088293
L 265.293289 76.14439
" style="fill:none;stroke:#ff4f28;"/>
   </g>
   <g id="LineCollection_79">
    <path clip-path="url(#pad0fc58884)" d="M 269.032143 90.72878
L 269.032143 81.447805
" style="fill:none;stroke:#ff4f28;"/>
   </g>
   <g id="LineCollection_80">
    <path clip-path="url(#pad0fc58884)" d="M 270.879066 94.706341
L 270.879066 86.75122
" style="fill:none;stroke:#ff4f28;"/>
   </g>
   <g id="LineCollection_81">
    <path clip-path="url(#pad0fc58884)" d="M 275.769792 97.358049
L 275.769792 92.054634
" style="fill:none;stroke:#ff4f28;"/>
   </g>
   <g id="LineCollection_82">
    <path clip-path="url(#pad0fc58884)" d="M 234.511562 137.465122
L 234.511562 109.290732
" style="fill:none;stroke:#ff4f28;"/>
   </g>
   <g id="LineCollection_83">
    <path clip-path="url(#pad0fc58884)" d="M 258.440399 115.92
L 258.440399 102.661463
" style="fill:none;stroke:#ff4f28;"/>
   </g>
   <g id="LineCollection_84">
    <path clip-path="url(#pad0fc58884)" d="M 268.937312 118.571707
L 268.937312 113.268293
" style="fill:none;stroke:#ff4f28;"/>
   </g>
   <g id="LineCollection_85">
    <path clip-path="url(#pad0fc58884)" d="M 257.245213 147.077561
L 257.245213 127.852683
" style="fill:none;stroke:#ff4f28;"/>
   </g>
   <g id="LineCollection_86">
    <path clip-path="url(#pad0fc58884)" d="M 268.89037 131.830244
L 268.89037 123.875122
" style="fill:none;stroke:#ff4f28;"/>
   </g>
   <g id="LineCollection_87">
    <path clip-path="url(#pad0fc58884)" d="M 273.902158 134.481951
L 273.902158 129.178537
" style="fill:none;stroke:#ff4f28;"/>
   </g>
   <g id="LineCollection_88">
    <path clip-path="url(#pad0fc58884)" d="M 260.08167 154.369756
L 260.08167 139.785366
" style="fill:none;stroke:#ff4f28;"/>
   </g>
   <g id="LineCollection_89">
    <path clip-path="url(#pad0fc58884)" d="M 263.385706 158.347317
L 263.385706 150.392195
" style="fill:none;stroke:#ff4f28;"/>
   </g>
   <g id="LineCollection_90">
    <path clip-path="url(#pad0fc58884)" d="M 263.816937 160.999024
L 263.816937 155.69561
" style="fill:none;stroke:#ff4f28;"/>
   </g>
   <g id="LineCollection_91">
    <path clip-path="url(#pad0fc58884)" d="M 197.595103 184.781524
L 197.595103 166.302439
" style="fill:none;stroke:#ff4f28;"/>
   </g>
   <g id="LineCollection_92">
    <path clip-path="url(#pad0fc58884)" d="M 199.980915 184.781524
L 199.980915 184.781524
" style="fill:none;stroke:#ff4f28;"/>
   </g>
   <g id="LineCollection_93">
    <path clip-path="url(#pad0fc58884)" d="M 256.771344 197.957195
L 256.771344 171.605854
" style="fill:none;stroke:#ff4f28;"/>
   </g>
   <g id="LineCollection_94">
    <path clip-path="url(#pad0fc58884)" d="M 258.484124 187.516098
L 258.484124 182.212683
" style="fill:none;stroke:#ff4f28;"/>
   </g>
   <g id="LineCollection_95">
    <path clip-path="url(#pad0fc58884)" d="M 264.946217 203.094878
L 264.946217 192.819512
" style="fill:none;stroke:#ff4f28;"/>
   </g>
   <g id="LineCollection_96">
    <path clip-path="url(#pad0fc58884)" d="M 264.946217 208.066829
L 264.946217 198.122927
" style="fill:none;stroke:#ff4f28;"/>
   </g>
   <g id="LineCollection_97">
    <path clip-path="url(#pad0fc58884)" d="M 265.030052 212.707317
L 265.030052 203.426341
" style="fill:none;stroke:#ff4f28;"/>
   </g>
   <g id="LineCollection_98">
    <path clip-path="url(#pad0fc58884)" d="M 265.030052 216.684878
L 265.030052 208.729756
" style="fill:none;stroke:#ff4f28;"/>
   </g>
   <g id="LineCollection_99">
    <path clip-path="url(#pad0fc58884)" d="M 268.672784 219.336585
L 268.672784 214.033171
" style="fill:none;stroke:#ff4f28;"/>
   </g>
   <g id="line2d_3">
    <path clip-path="url(#pad0fc58884)" style="fill:none;stroke:#a9a9a9;stroke-linecap:square;stroke-opacity:0.5;"/>
   </g>
   <g id="line2d_4">
    <path clip-path="url(#pad0fc58884)" d="M 91.144586 224.64
L 91.144586 7.2
" style="fill:none;stroke:#a9a9a9;stroke-linecap:square;stroke-opacity:0.5;"/>
   </g>
   <g id="line2d_5">
    <path clip-path="url(#pad0fc58884)" d="M 277.290023 224.64
L 277.290023 7.2
" style="fill:none;stroke:#a9a9a9;stroke-linecap:square;stroke-opacity:0.5;"/>
   </g>
   <g id="patch_3">
    <path d="M 7.2 224.64
L 342 224.64
" style="fill:none;stroke:#000000;stroke-linecap:square;stroke-linejoin:miter;stroke-width:0.8;"/>
   </g>
   <g id="text_4">
    <!--   -->
    <g transform="translate(56.765639 63.260793)scale(0.05 -0.05)">
     <defs>
      <path id="DejaVuSans-32"/>
     </defs>
     <use xlink:href="#DejaVuSans-32"/>
    </g>
   </g>
   <g id="text_5">
    <!--   -->
    <g transform="translate(187.240555 63.260793)scale(0.05 -0.05)">
     <use xlink:href="#DejaVuSans-32"/>
    </g>
   </g>
   <g id="text_6">
    <!--   -->
    <g transform="translate(260.08163 19.186517)scale(0.05 -0.05)">
     <use xlink:href="#DejaVuSans-32"/>
    </g>
   </g>
   <g id="text_7">
    <!--   -->
    <g transform="translate(269.046271 24.489931)scale(0.05 -0.05)">
     <use xlink:href="#DejaVuSans-32"/>
    </g>
   </g>
   <g id="text_8">
    <!--   -->
    <g transform="translate(271.660958 29.793346)scale(0.05 -0.05)">
     <use xlink:href="#DejaVuSans-32"/>
    </g>
   </g>
   <g id="text_9">
    <!--   -->
    <g transform="translate(192.964034 107.335069)scale(0.05 -0.05)">
     <use xlink:href="#DejaVuSans-32"/>
    </g>
   </g>
   <g id="text_10">
    <!--   -->
    <g transform="translate(262.548807 37.748468)scale(0.05 -0.05)">
     <use xlink:href="#DejaVuSans-32"/>
    </g>
   </g>
   <g id="text_11">
    <!--   -->
    <g transform="translate(267.925691 35.096761)scale(0.05 -0.05)">
     <use xlink:href="#DejaVuSans-32"/>
    </g>
   </g>
   <g id="text_12">
    <!--   -->
    <g transform="translate(263.816897 40.400175)scale(0.05 -0.05)">
     <use xlink:href="#DejaVuSans-32"/>
    </g>
   </g>
   <g id="text_13">
    <!--   -->
    <g transform="translate(265.075075 52.995785)scale(0.05 -0.05)">
     <use xlink:href="#DejaVuSans-32"/>
    </g>
   </g>
   <g id="text_14">
    <!--   -->
    <g transform="translate(273.528591 45.70359)scale(0.05 -0.05)">
     <use xlink:href="#DejaVuSans-32"/>
    </g>
   </g>
   <g id="text_15">
    <!--   -->
    <g transform="translate(268.299217 51.007005)scale(0.05 -0.05)">
     <use xlink:href="#DejaVuSans-32"/>
    </g>
   </g>
   <g id="text_16">
    <!--   -->
    <g transform="translate(267.827849 60.28798)scale(0.05 -0.05)">
     <use xlink:href="#DejaVuSans-32"/>
    </g>
   </g>
   <g id="text_17">
    <!--   -->
    <g transform="translate(280.252072 56.310419)scale(0.05 -0.05)">
     <use xlink:href="#DejaVuSans-32"/>
    </g>
   </g>
   <g id="text_18">
    <!--   -->
    <g transform="translate(268.299257 64.265541)scale(0.05 -0.05)">
     <use xlink:href="#DejaVuSans-32"/>
    </g>
   </g>
   <g id="text_19">
    <!--   -->
    <g transform="translate(275.022698 61.613834)scale(0.05 -0.05)">
     <use xlink:href="#DejaVuSans-32"/>
    </g>
   </g>
   <g id="text_20">
    <!--   -->
    <g transform="translate(268.299217 66.917248)scale(0.05 -0.05)">
     <use xlink:href="#DejaVuSans-32"/>
    </g>
   </g>
   <g id="text_21">
    <!--   -->
    <g transform="translate(250.724998 77.358346)scale(0.05 -0.05)">
     <use xlink:href="#DejaVuSans-32"/>
    </g>
   </g>
   <g id="text_22">
    <!--   -->
    <g transform="translate(279.878546 72.220663)scale(0.05 -0.05)">
     <use xlink:href="#DejaVuSans-32"/>
    </g>
   </g>
   <g id="text_23">
    <!--   -->
    <g transform="translate(265.293289 82.496029)scale(0.05 -0.05)">
     <use xlink:href="#DejaVuSans-32"/>
    </g>
   </g>
   <g id="text_24">
    <!--   -->
    <g transform="translate(273.155065 77.524078)scale(0.05 -0.05)">
     <use xlink:href="#DejaVuSans-32"/>
    </g>
   </g>
   <g id="text_25">
    <!--   -->
    <g transform="translate(269.032143 87.46798)scale(0.05 -0.05)">
     <use xlink:href="#DejaVuSans-32"/>
    </g>
   </g>
   <g id="text_26">
    <!--   -->
    <g transform="translate(276.890332 82.827492)scale(0.05 -0.05)">
     <use xlink:href="#DejaVuSans-32"/>
    </g>
   </g>
   <g id="text_27">
    <!--   -->
    <g transform="translate(270.879066 92.108468)scale(0.05 -0.05)">
     <use xlink:href="#DejaVuSans-32"/>
    </g>
   </g>
   <g id="text_28">
    <!--   -->
    <g transform="translate(276.890332 88.130907)scale(0.05 -0.05)">
     <use xlink:href="#DejaVuSans-32"/>
    </g>
   </g>
   <g id="text_29">
    <!--   -->
    <g transform="translate(275.769792 96.086029)scale(0.05 -0.05)">
     <use xlink:href="#DejaVuSans-32"/>
    </g>
   </g>
   <g id="text_30">
    <!--   -->
    <g transform="translate(276.890332 93.434322)scale(0.05 -0.05)">
     <use xlink:href="#DejaVuSans-32"/>
    </g>
   </g>
   <g id="text_31">
    <!--   -->
    <g transform="translate(275.769752 98.737736)scale(0.05 -0.05)">
     <use xlink:href="#DejaVuSans-32"/>
    </g>
   </g>
   <g id="text_32">
    <!--   -->
    <g transform="translate(234.511562 124.757614)scale(0.05 -0.05)">
     <use xlink:href="#DejaVuSans-32"/>
    </g>
   </g>
   <g id="text_33">
    <!--   -->
    <g transform="translate(258.440399 110.670419)scale(0.05 -0.05)">
     <use xlink:href="#DejaVuSans-32"/>
    </g>
   </g>
   <g id="text_34">
    <!--   -->
    <g transform="translate(266.431584 104.041151)scale(0.05 -0.05)">
     <use xlink:href="#DejaVuSans-32"/>
    </g>
   </g>
   <g id="text_35">
    <!--   -->
    <g transform="translate(263.816897 109.344566)scale(0.05 -0.05)">
     <use xlink:href="#DejaVuSans-32"/>
    </g>
   </g>
   <g id="text_36">
    <!--   -->
    <g transform="translate(268.937312 117.299687)scale(0.05 -0.05)">
     <use xlink:href="#DejaVuSans-32"/>
    </g>
   </g>
   <g id="text_37">
    <!--   -->
    <g transform="translate(278.757965 114.64798)scale(0.05 -0.05)">
     <use xlink:href="#DejaVuSans-32"/>
    </g>
   </g>
   <g id="text_38">
    <!--   -->
    <g transform="translate(272.781538 119.951395)scale(0.05 -0.05)">
     <use xlink:href="#DejaVuSans-32"/>
    </g>
   </g>
   <g id="text_39">
    <!--   -->
    <g transform="translate(257.245213 138.844809)scale(0.05 -0.05)">
     <use xlink:href="#DejaVuSans-32"/>
    </g>
   </g>
   <g id="text_40">
    <!--   -->
    <g transform="translate(268.89037 129.23237)scale(0.05 -0.05)">
     <use xlink:href="#DejaVuSans-32"/>
    </g>
   </g>
   <g id="text_41">
    <!--   -->
    <g transform="translate(273.902118 125.254809)scale(0.05 -0.05)">
     <use xlink:href="#DejaVuSans-32"/>
    </g>
   </g>
   <g id="text_42">
    <!--   -->
    <g transform="translate(273.902158 133.209931)scale(0.05 -0.05)">
     <use xlink:href="#DejaVuSans-32"/>
    </g>
   </g>
   <g id="text_43">
    <!--   -->
    <g transform="translate(276.143278 130.558224)scale(0.05 -0.05)">
     <use xlink:href="#DejaVuSans-32"/>
    </g>
   </g>
   <g id="text_44">
    <!--   -->
    <g transform="translate(273.902118 135.861639)scale(0.05 -0.05)">
     <use xlink:href="#DejaVuSans-32"/>
    </g>
   </g>
   <g id="text_45">
    <!--   -->
    <g transform="translate(260.08167 148.457248)scale(0.05 -0.05)">
     <use xlink:href="#DejaVuSans-32"/>
    </g>
   </g>
   <g id="text_46">
    <!--   -->
    <g transform="translate(264.190423 141.165053)scale(0.05 -0.05)">
     <use xlink:href="#DejaVuSans-32"/>
    </g>
   </g>
   <g id="text_47">
    <!--   -->
    <g transform="translate(260.08163 146.468468)scale(0.05 -0.05)">
     <use xlink:href="#DejaVuSans-32"/>
    </g>
   </g>
   <g id="text_48">
    <!--   -->
    <g transform="translate(263.385706 155.749444)scale(0.05 -0.05)">
     <use xlink:href="#DejaVuSans-32"/>
    </g>
   </g>
   <g id="text_49">
    <!--   -->
    <g transform="translate(270.540378 151.771883)scale(0.05 -0.05)">
     <use xlink:href="#DejaVuSans-32"/>
    </g>
   </g>
   <g id="text_50">
    <!--   -->
    <g transform="translate(263.816937 159.727005)scale(0.05 -0.05)">
     <use xlink:href="#DejaVuSans-32"/>
    </g>
   </g>
   <g id="text_51">
    <!--   -->
    <g transform="translate(263.816897 157.075297)scale(0.05 -0.05)">
     <use xlink:href="#DejaVuSans-32"/>
    </g>
   </g>
   <g id="text_52">
    <!--   -->
    <g transform="translate(263.816897 162.378712)scale(0.05 -0.05)">
     <use xlink:href="#DejaVuSans-32"/>
    </g>
   </g>
   <g id="text_53">
    <!--   -->
    <g transform="translate(197.595103 176.921669)scale(0.05 -0.05)">
     <use xlink:href="#DejaVuSans-32"/>
    </g>
   </g>
   <g id="text_54">
    <!--   -->
    <g transform="translate(279.505019 167.682127)scale(0.05 -0.05)">
     <use xlink:href="#DejaVuSans-32"/>
    </g>
   </g>
   <g id="text_55">
    <!--   -->
    <g transform="translate(199.980915 186.161212)scale(0.05 -0.05)">
     <use xlink:href="#DejaVuSans-32"/>
    </g>
   </g>
   <g id="text_56">
    <!--   -->
    <g transform="translate(256.771344 186.161212)scale(0.05 -0.05)">
     <use xlink:href="#DejaVuSans-32"/>
    </g>
   </g>
   <g id="text_57">
    <!--   -->
    <g transform="translate(261.20221 172.985541)scale(0.05 -0.05)">
     <use xlink:href="#DejaVuSans-32"/>
    </g>
   </g>
   <g id="text_58">
    <!--   -->
    <g transform="translate(271.287431 178.288956)scale(0.05 -0.05)">
     <use xlink:href="#DejaVuSans-32"/>
    </g>
   </g>
   <g id="text_59">
    <!--   -->
    <g transform="translate(258.484124 186.244078)scale(0.05 -0.05)">
     <use xlink:href="#DejaVuSans-32"/>
    </g>
   </g>
   <g id="text_60">
    <!--   -->
    <g transform="translate(260.08163 183.59237)scale(0.05 -0.05)">
     <use xlink:href="#DejaVuSans-32"/>
    </g>
   </g>
   <g id="text_61">
    <!--   -->
    <g transform="translate(260.08163 188.895785)scale(0.05 -0.05)">
     <use xlink:href="#DejaVuSans-32"/>
    </g>
   </g>
   <g id="text_62">
    <!--   -->
    <g transform="translate(264.946217 199.336883)scale(0.05 -0.05)">
     <use xlink:href="#DejaVuSans-32"/>
    </g>
   </g>
   <g id="text_63">
    <!--   -->
    <g transform="translate(268.672744 194.1992)scale(0.05 -0.05)">
     <use xlink:href="#DejaVuSans-32"/>
    </g>
   </g>
   <g id="text_64">
    <!--   -->
    <g transform="translate(264.946217 204.474566)scale(0.05 -0.05)">
     <use xlink:href="#DejaVuSans-32"/>
    </g>
   </g>
   <g id="text_65">
    <!--   -->
    <g transform="translate(269.419797 199.502614)scale(0.05 -0.05)">
     <use xlink:href="#DejaVuSans-32"/>
    </g>
   </g>
   <g id="text_66">
    <!--   -->
    <g transform="translate(265.030052 209.446517)scale(0.05 -0.05)">
     <use xlink:href="#DejaVuSans-32"/>
    </g>
   </g>
   <g id="text_67">
    <!--   -->
    <g transform="translate(269.419797 204.806029)scale(0.05 -0.05)">
     <use xlink:href="#DejaVuSans-32"/>
    </g>
   </g>
   <g id="text_68">
    <!--   -->
    <g transform="translate(265.030052 214.087005)scale(0.05 -0.05)">
     <use xlink:href="#DejaVuSans-32"/>
    </g>
   </g>
   <g id="text_69">
    <!--   -->
    <g transform="translate(270.540378 210.109444)scale(0.05 -0.05)">
     <use xlink:href="#DejaVuSans-32"/>
    </g>
   </g>
   <g id="text_70">
    <!--   -->
    <g transform="translate(268.672784 218.064566)scale(0.05 -0.05)">
     <use xlink:href="#DejaVuSans-32"/>
    </g>
   </g>
   <g id="text_71">
    <!--   -->
    <g transform="translate(268.672744 215.412858)scale(0.05 -0.05)">
     <use xlink:href="#DejaVuSans-32"/>
    </g>
   </g>
   <g id="text_72">
    <!--   -->
    <g transform="translate(270.540378 220.716273)scale(0.05 -0.05)">
     <use xlink:href="#DejaVuSans-32"/>
    </g>
   </g>
  </g>
 </g>
 <defs>
  <clipPath id="pad0fc58884">
   <rect height="217.44" width="334.8" x="7.2" y="7.2"/>
  </clipPath>
 </defs>
</svg>
