<?xml version="1.0" encoding="utf-8" standalone="no"?>
<!DOCTYPE svg PUBLIC "-//W3C//DTD SVG 1.1//EN"
  "http://www.w3.org/Graphics/SVG/1.1/DTD/svg11.dtd">
<!-- Created with matplotlib (https://matplotlib.org/) -->
<svg height="255.421562pt" version="1.1" viewBox="0 0 349.2 255.421562" width="349.2pt" xmlns="http://www.w3.org/2000/svg" xmlns:xlink="http://www.w3.org/1999/xlink">
 <metadata>
  <rdf:RDF xmlns:cc="http://creativecommons.org/ns#" xmlns:dc="http://purl.org/dc/elements/1.1/" xmlns:rdf="http://www.w3.org/1999/02/22-rdf-syntax-ns#">
   <cc:Work>
    <dc:type rdf:resource="http://purl.org/dc/dcmitype/StillImage"/>
    <dc:date>2021-03-04T17:07:53.410410</dc:date>
    <dc:format>image/svg+xml</dc:format>
    <dc:creator>
     <cc:Agent>
      <dc:title>Matplotlib v3.3.2, https://matplotlib.org/</dc:title>
     </cc:Agent>
    </dc:creator>
   </cc:Work>
  </rdf:RDF>
 </metadata>
 <defs>
  <style type="text/css">*{stroke-linecap:butt;stroke-linejoin:round;}</style>
 </defs>
 <g id="figure_1">
  <g id="patch_1">
   <path d="M 0 255.421562
L 349.2 255.421562
L 349.2 0
L 0 0
z
" style="fill:none;"/>
  </g>
  <g id="axes_1">
   <g id="patch_2">
    <path d="M 7.2 224.64
L 342 224.64
L 342 7.2
L 7.2 7.2
z
" style="fill:#ffffff;"/>
   </g>
   <g id="matplotlib.axis_1">
    <g id="xtick_1">
     <g id="line2d_1">
      <defs>
       <path d="M 0 0
L 0 3.5
" id="mc9709fe75a" style="stroke:#000000;stroke-width:0.8;"/>
      </defs>
      <g>
       <use style="stroke:#000000;stroke-width:0.8;" x="99.13819" xlink:href="#mc9709fe75a" y="224.64"/>
      </g>
     </g>
     <g id="text_1">
      <!-- 1500 -->
      <g transform="translate(92.77569 235.439219)scale(0.05 -0.05)">
       <defs>
        <path d="M 12.40625 8.296875
L 28.515625 8.296875
L 28.515625 63.921875
L 10.984375 60.40625
L 10.984375 69.390625
L 28.421875 72.90625
L 38.28125 72.90625
L 38.28125 8.296875
L 54.390625 8.296875
L 54.390625 0
L 12.40625 0
z
" id="DejaVuSans-49"/>
        <path d="M 10.796875 72.90625
L 49.515625 72.90625
L 49.515625 64.59375
L 19.828125 64.59375
L 19.828125 46.734375
Q 21.96875 47.46875 24.109375 47.828125
Q 26.265625 48.1875 28.421875 48.1875
Q 40.625 48.1875 47.75 41.5
Q 54.890625 34.8125 54.890625 23.390625
Q 54.890625 11.625 47.5625 5.09375
Q 40.234375 -1.421875 26.90625 -1.421875
Q 22.3125 -1.421875 17.546875 -0.640625
Q 12.796875 0.140625 7.71875 1.703125
L 7.71875 11.625
Q 12.109375 9.234375 16.796875 8.0625
Q 21.484375 6.890625 26.703125 6.890625
Q 35.15625 6.890625 40.078125 11.328125
Q 45.015625 15.765625 45.015625 23.390625
Q 45.015625 31 40.078125 35.4375
Q 35.15625 39.890625 26.703125 39.890625
Q 22.75 39.890625 18.8125 39.015625
Q 14.890625 38.140625 10.796875 36.28125
z
" id="DejaVuSans-53"/>
        <path d="M 31.78125 66.40625
Q 24.171875 66.40625 20.328125 58.90625
Q 16.5 51.421875 16.5 36.375
Q 16.5 21.390625 20.328125 13.890625
Q 24.171875 6.390625 31.78125 6.390625
Q 39.453125 6.390625 43.28125 13.890625
Q 47.125 21.390625 47.125 36.375
Q 47.125 51.421875 43.28125 58.90625
Q 39.453125 66.40625 31.78125 66.40625
z
M 31.78125 74.21875
Q 44.046875 74.21875 50.515625 64.515625
Q 56.984375 54.828125 56.984375 36.375
Q 56.984375 17.96875 50.515625 8.265625
Q 44.046875 -1.421875 31.78125 -1.421875
Q 19.53125 -1.421875 13.0625 8.265625
Q 6.59375 17.96875 6.59375 36.375
Q 6.59375 54.828125 13.0625 64.515625
Q 19.53125 74.21875 31.78125 74.21875
z
" id="DejaVuSans-48"/>
       </defs>
       <use xlink:href="#DejaVuSans-49"/>
       <use x="63.623047" xlink:href="#DejaVuSans-53"/>
       <use x="127.246094" xlink:href="#DejaVuSans-48"/>
       <use x="190.869141" xlink:href="#DejaVuSans-48"/>
      </g>
     </g>
    </g>
    <g id="xtick_2">
     <g id="line2d_2">
      <g>
       <use style="stroke:#000000;stroke-width:0.8;" x="273.647599" xlink:href="#mc9709fe75a" y="224.64"/>
      </g>
     </g>
     <g id="text_2">
      <!-- 2000 -->
      <g transform="translate(267.285099 235.439219)scale(0.05 -0.05)">
       <defs>
        <path d="M 19.1875 8.296875
L 53.609375 8.296875
L 53.609375 0
L 7.328125 0
L 7.328125 8.296875
Q 12.9375 14.109375 22.625 23.890625
Q 32.328125 33.6875 34.8125 36.53125
Q 39.546875 41.84375 41.421875 45.53125
Q 43.3125 49.21875 43.3125 52.78125
Q 43.3125 58.59375 39.234375 62.25
Q 35.15625 65.921875 28.609375 65.921875
Q 23.96875 65.921875 18.8125 64.3125
Q 13.671875 62.703125 7.8125 59.421875
L 7.8125 69.390625
Q 13.765625 71.78125 18.9375 73
Q 24.125 74.21875 28.421875 74.21875
Q 39.75 74.21875 46.484375 68.546875
Q 53.21875 62.890625 53.21875 53.421875
Q 53.21875 48.921875 51.53125 44.890625
Q 49.859375 40.875 45.40625 35.40625
Q 44.1875 33.984375 37.640625 27.21875
Q 31.109375 20.453125 19.1875 8.296875
z
" id="DejaVuSans-50"/>
       </defs>
       <use xlink:href="#DejaVuSans-50"/>
       <use x="63.623047" xlink:href="#DejaVuSans-48"/>
       <use x="127.246094" xlink:href="#DejaVuSans-48"/>
       <use x="190.869141" xlink:href="#DejaVuSans-48"/>
      </g>
     </g>
    </g>
    <g id="text_3">
     <!-- Year -->
     <g transform="translate(166.13 246.557812)scale(0.08 -0.08)">
      <defs>
       <path d="M -0.203125 72.90625
L 10.40625 72.90625
L 30.609375 42.921875
L 50.6875 72.90625
L 61.28125 72.90625
L 35.5 34.71875
L 35.5 0
L 25.59375 0
L 25.59375 34.71875
z
" id="DejaVuSans-89"/>
       <path d="M 56.203125 29.59375
L 56.203125 25.203125
L 14.890625 25.203125
Q 15.484375 15.921875 20.484375 11.0625
Q 25.484375 6.203125 34.421875 6.203125
Q 39.59375 6.203125 44.453125 7.46875
Q 49.3125 8.734375 54.109375 11.28125
L 54.109375 2.78125
Q 49.265625 0.734375 44.1875 -0.34375
Q 39.109375 -1.421875 33.890625 -1.421875
Q 20.796875 -1.421875 13.15625 6.1875
Q 5.515625 13.8125 5.515625 26.8125
Q 5.515625 40.234375 12.765625 48.109375
Q 20.015625 56 32.328125 56
Q 43.359375 56 49.78125 48.890625
Q 56.203125 41.796875 56.203125 29.59375
z
M 47.21875 32.234375
Q 47.125 39.59375 43.09375 43.984375
Q 39.0625 48.390625 32.421875 48.390625
Q 24.90625 48.390625 20.390625 44.140625
Q 15.875 39.890625 15.1875 32.171875
z
" id="DejaVuSans-101"/>
       <path d="M 34.28125 27.484375
Q 23.390625 27.484375 19.1875 25
Q 14.984375 22.515625 14.984375 16.5
Q 14.984375 11.71875 18.140625 8.90625
Q 21.296875 6.109375 26.703125 6.109375
Q 34.1875 6.109375 38.703125 11.40625
Q 43.21875 16.703125 43.21875 25.484375
L 43.21875 27.484375
z
M 52.203125 31.203125
L 52.203125 0
L 43.21875 0
L 43.21875 8.296875
Q 40.140625 3.328125 35.546875 0.953125
Q 30.953125 -1.421875 24.3125 -1.421875
Q 15.921875 -1.421875 10.953125 3.296875
Q 6 8.015625 6 15.921875
Q 6 25.140625 12.171875 29.828125
Q 18.359375 34.515625 30.609375 34.515625
L 43.21875 34.515625
L 43.21875 35.40625
Q 43.21875 41.609375 39.140625 45
Q 35.0625 48.390625 27.6875 48.390625
Q 23 48.390625 18.546875 47.265625
Q 14.109375 46.140625 10.015625 43.890625
L 10.015625 52.203125
Q 14.9375 54.109375 19.578125 55.046875
Q 24.21875 56 28.609375 56
Q 40.484375 56 46.34375 49.84375
Q 52.203125 43.703125 52.203125 31.203125
z
" id="DejaVuSans-97"/>
       <path d="M 41.109375 46.296875
Q 39.59375 47.171875 37.8125 47.578125
Q 36.03125 48 33.890625 48
Q 26.265625 48 22.1875 43.046875
Q 18.109375 38.09375 18.109375 28.8125
L 18.109375 0
L 9.078125 0
L 9.078125 54.6875
L 18.109375 54.6875
L 18.109375 46.1875
Q 20.953125 51.171875 25.484375 53.578125
Q 30.03125 56 36.53125 56
Q 37.453125 56 38.578125 55.875
Q 39.703125 55.765625 41.0625 55.515625
z
" id="DejaVuSans-114"/>
      </defs>
      <use xlink:href="#DejaVuSans-89"/>
      <use x="47.833984" xlink:href="#DejaVuSans-101"/>
      <use x="109.357422" xlink:href="#DejaVuSans-97"/>
      <use x="170.636719" xlink:href="#DejaVuSans-114"/>
     </g>
    </g>
   </g>
   <g id="matplotlib.axis_2"/>
   <g id="LineCollection_1">
    <path clip-path="url(#p041eb334fe)" d="M 31.631317 64.008199
L 44.405601 64.008199
" style="fill:none;stroke:#1acee3;"/>
   </g>
   <g id="LineCollection_2">
    <path clip-path="url(#p041eb334fe)" d="M 44.405601 64.008199
L 155.84486 64.008199
" style="fill:none;stroke:#4df3ce;"/>
   </g>
   <g id="LineCollection_3">
    <path clip-path="url(#p041eb334fe)" d="M 155.84486 39.176471
L 268.020269 39.176471
" style="fill:none;stroke:#4df3ce;"/>
   </g>
   <g id="LineCollection_4">
    <path clip-path="url(#p041eb334fe)" d="M 268.020269 32.781176
L 269.070764 32.781176
" style="fill:none;stroke:#4df3ce;"/>
   </g>
   <g id="LineCollection_5">
    <path clip-path="url(#p041eb334fe)" d="M 268.020269 45.571765
L 268.020232 45.571765
" style="fill:none;stroke:#4df3ce;"/>
   </g>
   <g id="LineCollection_6">
    <path clip-path="url(#p041eb334fe)" d="M 155.84486 88.839926
L 202.787744 88.839926
" style="fill:none;stroke:#4df3ce;"/>
   </g>
   <g id="LineCollection_7">
    <path clip-path="url(#p041eb334fe)" d="M 202.787744 58.362353
L 274.323425 58.362353
" style="fill:none;stroke:#4df3ce;"/>
   </g>
   <g id="LineCollection_8">
    <path clip-path="url(#p041eb334fe)" d="M 202.787744 119.3175
L 222.478196 119.3175
" style="fill:none;stroke:#4df3ce;"/>
   </g>
   <g id="LineCollection_9">
    <path clip-path="url(#p041eb334fe)" d="M 222.478196 88.74
L 241.106362 88.74
" style="fill:none;stroke:#4df3ce;"/>
   </g>
   <g id="LineCollection_10">
    <path clip-path="url(#p041eb334fe)" d="M 241.106362 71.152941
L 265.56899 71.152941
" style="fill:none;stroke:#4df3ce;"/>
   </g>
   <g id="LineCollection_11">
    <path clip-path="url(#p041eb334fe)" d="M 241.106362 83.943529
L 277.825199 83.943529
" style="fill:none;stroke:#4df3ce;"/>
   </g>
   <g id="LineCollection_12">
    <path clip-path="url(#p041eb334fe)" d="M 241.106362 106.327059
L 273.658799 106.327059
" style="fill:none;stroke:#4df3ce;"/>
   </g>
   <g id="LineCollection_13">
    <path clip-path="url(#p041eb334fe)" d="M 273.658799 96.734118
L 274.323425 96.734118
" style="fill:none;stroke:#4df3ce;"/>
   </g>
   <g id="LineCollection_14">
    <path clip-path="url(#p041eb334fe)" d="M 273.658799 115.92
L 273.99708 115.92
" style="fill:none;stroke:#4df3ce;"/>
   </g>
   <g id="LineCollection_15">
    <path clip-path="url(#p041eb334fe)" d="M 273.99708 109.524706
L 278.875731 109.524706
" style="fill:none;stroke:#4df3ce;"/>
   </g>
   <g id="LineCollection_16">
    <path clip-path="url(#p041eb334fe)" d="M 273.99708 122.315294
L 274.673602 122.315294
" style="fill:none;stroke:#4df3ce;"/>
   </g>
   <g id="LineCollection_17">
    <path clip-path="url(#p041eb334fe)" d="M 222.478196 149.895
L 246.44367 149.895
" style="fill:none;stroke:#4df3ce;"/>
   </g>
   <g id="LineCollection_18">
    <path clip-path="url(#p041eb334fe)" d="M 246.44367 135.105882
L 269.420941 135.105882
" style="fill:none;stroke:#4df3ce;"/>
   </g>
   <g id="LineCollection_19">
    <path clip-path="url(#p041eb334fe)" d="M 246.44367 164.684118
L 267.89308 164.684118
" style="fill:none;stroke:#4df3ce;"/>
   </g>
   <g id="LineCollection_20">
    <path clip-path="url(#p041eb334fe)" d="M 267.89308 147.896471
L 277.825199 147.896471
" style="fill:none;stroke:#4df3ce;"/>
   </g>
   <g id="LineCollection_21">
    <path clip-path="url(#p041eb334fe)" d="M 267.89308 181.471765
L 267.89308 181.471765
" style="fill:none;stroke:#4df3ce;"/>
   </g>
   <g id="LineCollection_22">
    <path clip-path="url(#p041eb334fe)" d="M 267.89308 167.082353
L 267.89308 167.082353
" style="fill:none;stroke:#4df3ce;"/>
   </g>
   <g id="LineCollection_23">
    <path clip-path="url(#p041eb334fe)" d="M 267.89308 160.687059
L 279.926263 160.687059
" style="fill:none;stroke:#4df3ce;"/>
   </g>
   <g id="LineCollection_24">
    <path clip-path="url(#p041eb334fe)" d="M 267.89308 173.477647
L 278.875731 173.477647
" style="fill:none;stroke:#4df3ce;"/>
   </g>
   <g id="LineCollection_25">
    <path clip-path="url(#p041eb334fe)" d="M 267.89308 195.861176
L 267.89308 195.861176
" style="fill:none;stroke:#4df3ce;"/>
   </g>
   <g id="LineCollection_26">
    <path clip-path="url(#p041eb334fe)" d="M 267.89308 186.268235
L 278.525554 186.268235
" style="fill:none;stroke:#4df3ce;"/>
   </g>
   <g id="LineCollection_27">
    <path clip-path="url(#p041eb334fe)" d="M 267.89308 205.454118
L 267.971877 205.454118
" style="fill:none;stroke:#4df3ce;"/>
   </g>
   <g id="LineCollection_28">
    <path clip-path="url(#p041eb334fe)" d="M 267.971877 199.058824
L 278.875731 199.058824
" style="fill:none;stroke:#4df3ce;"/>
   </g>
   <g id="LineCollection_29">
    <path clip-path="url(#p041eb334fe)" d="M 267.971877 211.849412
L 278.875731 211.849412
" style="fill:none;stroke:#4df3ce;"/>
   </g>
   <g id="LineCollection_30">
    <path clip-path="url(#p041eb334fe)" d="M 44.405601 64.008199
L 44.405601 64.008199
" style="fill:none;stroke:#1acee3;"/>
   </g>
   <g id="LineCollection_31">
    <path clip-path="url(#p041eb334fe)" d="M 155.84486 88.839926
L 155.84486 39.176471
" style="fill:none;stroke:#4df3ce;"/>
   </g>
   <g id="LineCollection_32">
    <path clip-path="url(#p041eb334fe)" d="M 268.020269 45.571765
L 268.020269 32.781176
" style="fill:none;stroke:#4df3ce;"/>
   </g>
   <g id="LineCollection_33">
    <path clip-path="url(#p041eb334fe)" d="M 202.787744 119.3175
L 202.787744 58.362353
" style="fill:none;stroke:#4df3ce;"/>
   </g>
   <g id="LineCollection_34">
    <path clip-path="url(#p041eb334fe)" d="M 222.478196 149.895
L 222.478196 88.74
" style="fill:none;stroke:#4df3ce;"/>
   </g>
   <g id="LineCollection_35">
    <path clip-path="url(#p041eb334fe)" d="M 241.106362 106.327059
L 241.106362 71.152941
" style="fill:none;stroke:#4df3ce;"/>
   </g>
   <g id="LineCollection_36">
    <path clip-path="url(#p041eb334fe)" d="M 273.658799 115.92
L 273.658799 96.734118
" style="fill:none;stroke:#4df3ce;"/>
   </g>
   <g id="LineCollection_37">
    <path clip-path="url(#p041eb334fe)" d="M 273.99708 122.315294
L 273.99708 109.524706
" style="fill:none;stroke:#4df3ce;"/>
   </g>
   <g id="LineCollection_38">
    <path clip-path="url(#p041eb334fe)" d="M 246.44367 164.684118
L 246.44367 135.105882
" style="fill:none;stroke:#4df3ce;"/>
   </g>
   <g id="LineCollection_39">
    <path clip-path="url(#p041eb334fe)" d="M 267.89308 181.471765
L 267.89308 147.896471
" style="fill:none;stroke:#4df3ce;"/>
   </g>
   <g id="LineCollection_40">
    <path clip-path="url(#p041eb334fe)" d="M 267.89308 195.861176
L 267.89308 167.082353
" style="fill:none;stroke:#4df3ce;"/>
   </g>
   <g id="LineCollection_41">
    <path clip-path="url(#p041eb334fe)" d="M 267.89308 173.477647
L 267.89308 160.687059
" style="fill:none;stroke:#4df3ce;"/>
   </g>
   <g id="LineCollection_42">
    <path clip-path="url(#p041eb334fe)" d="M 267.89308 205.454118
L 267.89308 186.268235
" style="fill:none;stroke:#4df3ce;"/>
   </g>
   <g id="LineCollection_43">
    <path clip-path="url(#p041eb334fe)" d="M 267.971877 211.849412
L 267.971877 199.058824
" style="fill:none;stroke:#4df3ce;"/>
   </g>
   <g id="line2d_3">
    <path clip-path="url(#p041eb334fe)" style="fill:none;stroke:#a9a9a9;stroke-linecap:square;stroke-opacity:0.5;"/>
   </g>
   <g id="line2d_4">
    <path clip-path="url(#p041eb334fe)" d="M 99.13819 224.64
L 99.13819 7.2
" style="fill:none;stroke:#a9a9a9;stroke-linecap:square;stroke-opacity:0.5;"/>
   </g>
   <g id="line2d_5">
    <path clip-path="url(#p041eb334fe)" d="M 273.647599 224.64
L 273.647599 7.2
" style="fill:none;stroke:#a9a9a9;stroke-linecap:square;stroke-opacity:0.5;"/>
   </g>
   <g id="patch_3">
    <path d="M 7.2 224.64
L 342 224.64
" style="fill:none;stroke:#000000;stroke-linecap:square;stroke-linejoin:miter;stroke-width:0.8;"/>
   </g>
   <g id="text_4">
    <!--   -->
    <g transform="translate(44.405601 65.387886)scale(0.05 -0.05)">
     <defs>
      <path id="DejaVuSans-32"/>
     </defs>
     <use xlink:href="#DejaVuSans-32"/>
    </g>
   </g>
   <g id="text_5">
    <!--   -->
    <g transform="translate(155.84486 65.387886)scale(0.05 -0.05)">
     <use xlink:href="#DejaVuSans-32"/>
    </g>
   </g>
   <g id="text_6">
    <!--   -->
    <g transform="translate(268.020269 40.556158)scale(0.05 -0.05)">
     <use xlink:href="#DejaVuSans-32"/>
    </g>
   </g>
   <g id="text_7">
    <!--   -->
    <g transform="translate(269.070764 34.160864)scale(0.05 -0.05)">
     <use xlink:href="#DejaVuSans-32"/>
    </g>
   </g>
   <g id="text_8">
    <!--   -->
    <g transform="translate(268.020232 46.951452)scale(0.05 -0.05)">
     <use xlink:href="#DejaVuSans-32"/>
    </g>
   </g>
   <g id="text_9">
    <!--   -->
    <g transform="translate(202.787744 90.219614)scale(0.05 -0.05)">
     <use xlink:href="#DejaVuSans-32"/>
    </g>
   </g>
   <g id="text_10">
    <!--   -->
    <g transform="translate(274.323425 59.74204)scale(0.05 -0.05)">
     <use xlink:href="#DejaVuSans-32"/>
    </g>
   </g>
   <g id="text_11">
    <!--   -->
    <g transform="translate(222.478196 120.697187)scale(0.05 -0.05)">
     <use xlink:href="#DejaVuSans-32"/>
    </g>
   </g>
   <g id="text_12">
    <!--   -->
    <g transform="translate(241.106362 90.119687)scale(0.05 -0.05)">
     <use xlink:href="#DejaVuSans-32"/>
    </g>
   </g>
   <g id="text_13">
    <!--   -->
    <g transform="translate(265.56899 72.532629)scale(0.05 -0.05)">
     <use xlink:href="#DejaVuSans-32"/>
    </g>
   </g>
   <g id="text_14">
    <!--   -->
    <g transform="translate(277.825199 85.323217)scale(0.05 -0.05)">
     <use xlink:href="#DejaVuSans-32"/>
    </g>
   </g>
   <g id="text_15">
    <!--   -->
    <g transform="translate(273.658799 107.706746)scale(0.05 -0.05)">
     <use xlink:href="#DejaVuSans-32"/>
    </g>
   </g>
   <g id="text_16">
    <!--   -->
    <g transform="translate(274.323425 98.113805)scale(0.05 -0.05)">
     <use xlink:href="#DejaVuSans-32"/>
    </g>
   </g>
   <g id="text_17">
    <!--   -->
    <g transform="translate(273.99708 117.299687)scale(0.05 -0.05)">
     <use xlink:href="#DejaVuSans-32"/>
    </g>
   </g>
   <g id="text_18">
    <!--   -->
    <g transform="translate(278.875731 110.904393)scale(0.05 -0.05)">
     <use xlink:href="#DejaVuSans-32"/>
    </g>
   </g>
   <g id="text_19">
    <!--   -->
    <g transform="translate(274.673602 123.694982)scale(0.05 -0.05)">
     <use xlink:href="#DejaVuSans-32"/>
    </g>
   </g>
   <g id="text_20">
    <!--   -->
    <g transform="translate(246.44367 151.274687)scale(0.05 -0.05)">
     <use xlink:href="#DejaVuSans-32"/>
    </g>
   </g>
   <g id="text_21">
    <!--   -->
    <g transform="translate(269.420941 136.48557)scale(0.05 -0.05)">
     <use xlink:href="#DejaVuSans-32"/>
    </g>
   </g>
   <g id="text_22">
    <!--   -->
    <g transform="translate(267.89308 166.063805)scale(0.05 -0.05)">
     <use xlink:href="#DejaVuSans-32"/>
    </g>
   </g>
   <g id="text_23">
    <!--   -->
    <g transform="translate(277.825199 149.276158)scale(0.05 -0.05)">
     <use xlink:href="#DejaVuSans-32"/>
    </g>
   </g>
   <g id="text_24">
    <!--   -->
    <g transform="translate(267.89308 182.851452)scale(0.05 -0.05)">
     <use xlink:href="#DejaVuSans-32"/>
    </g>
   </g>
   <g id="text_25">
    <!--   -->
    <g transform="translate(267.89308 168.46204)scale(0.05 -0.05)">
     <use xlink:href="#DejaVuSans-32"/>
    </g>
   </g>
   <g id="text_26">
    <!--   -->
    <g transform="translate(279.926263 162.066746)scale(0.05 -0.05)">
     <use xlink:href="#DejaVuSans-32"/>
    </g>
   </g>
   <g id="text_27">
    <!--   -->
    <g transform="translate(278.875731 174.857335)scale(0.05 -0.05)">
     <use xlink:href="#DejaVuSans-32"/>
    </g>
   </g>
   <g id="text_28">
    <!--   -->
    <g transform="translate(267.89308 197.240864)scale(0.05 -0.05)">
     <use xlink:href="#DejaVuSans-32"/>
    </g>
   </g>
   <g id="text_29">
    <!--   -->
    <g transform="translate(278.525554 187.647923)scale(0.05 -0.05)">
     <use xlink:href="#DejaVuSans-32"/>
    </g>
   </g>
   <g id="text_30">
    <!--   -->
    <g transform="translate(267.971877 206.833805)scale(0.05 -0.05)">
     <use xlink:href="#DejaVuSans-32"/>
    </g>
   </g>
   <g id="text_31">
    <!--   -->
    <g transform="translate(278.875731 200.438511)scale(0.05 -0.05)">
     <use xlink:href="#DejaVuSans-32"/>
    </g>
   </g>
   <g id="text_32">
    <!--   -->
    <g transform="translate(278.875731 213.229099)scale(0.05 -0.05)">
     <use xlink:href="#DejaVuSans-32"/>
    </g>
   </g>
  </g>
 </g>
 <defs>
  <clipPath id="p041eb334fe">
   <rect height="217.44" width="334.8" x="7.2" y="7.2"/>
  </clipPath>
 </defs>
</svg>
