<?xml version="1.0" encoding="utf-8" standalone="no"?>
<!DOCTYPE svg PUBLIC "-//W3C//DTD SVG 1.1//EN"
  "http://www.w3.org/Graphics/SVG/1.1/DTD/svg11.dtd">
<!-- Created with matplotlib (https://matplotlib.org/) -->
<svg height="255.421562pt" version="1.1" viewBox="0 0 360.625939 255.421562" width="360.625939pt" xmlns="http://www.w3.org/2000/svg" xmlns:xlink="http://www.w3.org/1999/xlink">
 <metadata>
  <rdf:RDF xmlns:cc="http://creativecommons.org/ns#" xmlns:dc="http://purl.org/dc/elements/1.1/" xmlns:rdf="http://www.w3.org/1999/02/22-rdf-syntax-ns#">
   <cc:Work>
    <dc:type rdf:resource="http://purl.org/dc/dcmitype/StillImage"/>
    <dc:date>2021-03-04T17:07:59.637393</dc:date>
    <dc:format>image/svg+xml</dc:format>
    <dc:creator>
     <cc:Agent>
      <dc:title>Matplotlib v3.3.2, https://matplotlib.org/</dc:title>
     </cc:Agent>
    </dc:creator>
   </cc:Work>
  </rdf:RDF>
 </metadata>
 <defs>
  <style type="text/css">*{stroke-linecap:butt;stroke-linejoin:round;}</style>
 </defs>
 <g id="figure_1">
  <g id="patch_1">
   <path d="M 0 255.421562
L 360.625939 255.421562
L 360.625939 0
L 0 0
z
" style="fill:none;"/>
  </g>
  <g id="axes_1">
   <g id="patch_2">
    <path d="M 12.263439 224.64
L 347.063439 224.64
L 347.063439 7.2
L 12.263439 7.2
z
" style="fill:#ffffff;"/>
   </g>
   <g id="matplotlib.axis_1">
    <g id="xtick_1">
     <g id="line2d_1">
      <defs>
       <path d="M 0 0
L 0 3.5
" id="m87438280e5" style="stroke:#000000;stroke-width:0.8;"/>
      </defs>
      <g>
       <use style="stroke:#000000;stroke-width:0.8;" x="13.5625" xlink:href="#m87438280e5" y="224.64"/>
      </g>
     </g>
     <g id="text_1">
      <!-- 1000 -->
      <g transform="translate(7.2 235.439219)scale(0.05 -0.05)">
       <defs>
        <path d="M 12.40625 8.296875
L 28.515625 8.296875
L 28.515625 63.921875
L 10.984375 60.40625
L 10.984375 69.390625
L 28.421875 72.90625
L 38.28125 72.90625
L 38.28125 8.296875
L 54.390625 8.296875
L 54.390625 0
L 12.40625 0
z
" id="DejaVuSans-49"/>
        <path d="M 31.78125 66.40625
Q 24.171875 66.40625 20.328125 58.90625
Q 16.5 51.421875 16.5 36.375
Q 16.5 21.390625 20.328125 13.890625
Q 24.171875 6.390625 31.78125 6.390625
Q 39.453125 6.390625 43.28125 13.890625
Q 47.125 21.390625 47.125 36.375
Q 47.125 51.421875 43.28125 58.90625
Q 39.453125 66.40625 31.78125 66.40625
z
M 31.78125 74.21875
Q 44.046875 74.21875 50.515625 64.515625
Q 56.984375 54.828125 56.984375 36.375
Q 56.984375 17.96875 50.515625 8.265625
Q 44.046875 -1.421875 31.78125 -1.421875
Q 19.53125 -1.421875 13.0625 8.265625
Q 6.59375 17.96875 6.59375 36.375
Q 6.59375 54.828125 13.0625 64.515625
Q 19.53125 74.21875 31.78125 74.21875
z
" id="DejaVuSans-48"/>
       </defs>
       <use xlink:href="#DejaVuSans-49"/>
       <use x="63.623047" xlink:href="#DejaVuSans-48"/>
       <use x="127.246094" xlink:href="#DejaVuSans-48"/>
       <use x="190.869141" xlink:href="#DejaVuSans-48"/>
      </g>
     </g>
    </g>
    <g id="xtick_2">
     <g id="line2d_2">
      <g>
       <use style="stroke:#000000;stroke-width:0.8;" x="180.31297" xlink:href="#m87438280e5" y="224.64"/>
      </g>
     </g>
     <g id="text_2">
      <!-- 1500 -->
      <g transform="translate(173.95047 235.439219)scale(0.05 -0.05)">
       <defs>
        <path d="M 10.796875 72.90625
L 49.515625 72.90625
L 49.515625 64.59375
L 19.828125 64.59375
L 19.828125 46.734375
Q 21.96875 47.46875 24.109375 47.828125
Q 26.265625 48.1875 28.421875 48.1875
Q 40.625 48.1875 47.75 41.5
Q 54.890625 34.8125 54.890625 23.390625
Q 54.890625 11.625 47.5625 5.09375
Q 40.234375 -1.421875 26.90625 -1.421875
Q 22.3125 -1.421875 17.546875 -0.640625
Q 12.796875 0.140625 7.71875 1.703125
L 7.71875 11.625
Q 12.109375 9.234375 16.796875 8.0625
Q 21.484375 6.890625 26.703125 6.890625
Q 35.15625 6.890625 40.078125 11.328125
Q 45.015625 15.765625 45.015625 23.390625
Q 45.015625 31 40.078125 35.4375
Q 35.15625 39.890625 26.703125 39.890625
Q 22.75 39.890625 18.8125 39.015625
Q 14.890625 38.140625 10.796875 36.28125
z
" id="DejaVuSans-53"/>
       </defs>
       <use xlink:href="#DejaVuSans-49"/>
       <use x="63.623047" xlink:href="#DejaVuSans-53"/>
       <use x="127.246094" xlink:href="#DejaVuSans-48"/>
       <use x="190.869141" xlink:href="#DejaVuSans-48"/>
      </g>
     </g>
    </g>
    <g id="xtick_3">
     <g id="line2d_3">
      <g>
       <use style="stroke:#000000;stroke-width:0.8;" x="347.063439" xlink:href="#m87438280e5" y="224.64"/>
      </g>
     </g>
     <g id="text_3">
      <!-- 2000 -->
      <g transform="translate(340.700939 235.439219)scale(0.05 -0.05)">
       <defs>
        <path d="M 19.1875 8.296875
L 53.609375 8.296875
L 53.609375 0
L 7.328125 0
L 7.328125 8.296875
Q 12.9375 14.109375 22.625 23.890625
Q 32.328125 33.6875 34.8125 36.53125
Q 39.546875 41.84375 41.421875 45.53125
Q 43.3125 49.21875 43.3125 52.78125
Q 43.3125 58.59375 39.234375 62.25
Q 35.15625 65.921875 28.609375 65.921875
Q 23.96875 65.921875 18.8125 64.3125
Q 13.671875 62.703125 7.8125 59.421875
L 7.8125 69.390625
Q 13.765625 71.78125 18.9375 73
Q 24.125 74.21875 28.421875 74.21875
Q 39.75 74.21875 46.484375 68.546875
Q 53.21875 62.890625 53.21875 53.421875
Q 53.21875 48.921875 51.53125 44.890625
Q 49.859375 40.875 45.40625 35.40625
Q 44.1875 33.984375 37.640625 27.21875
Q 31.109375 20.453125 19.1875 8.296875
z
" id="DejaVuSans-50"/>
       </defs>
       <use xlink:href="#DejaVuSans-50"/>
       <use x="63.623047" xlink:href="#DejaVuSans-48"/>
       <use x="127.246094" xlink:href="#DejaVuSans-48"/>
       <use x="190.869141" xlink:href="#DejaVuSans-48"/>
      </g>
     </g>
    </g>
    <g id="text_4">
     <!-- Year -->
     <g transform="translate(171.193439 246.557812)scale(0.08 -0.08)">
      <defs>
       <path d="M -0.203125 72.90625
L 10.40625 72.90625
L 30.609375 42.921875
L 50.6875 72.90625
L 61.28125 72.90625
L 35.5 34.71875
L 35.5 0
L 25.59375 0
L 25.59375 34.71875
z
" id="DejaVuSans-89"/>
       <path d="M 56.203125 29.59375
L 56.203125 25.203125
L 14.890625 25.203125
Q 15.484375 15.921875 20.484375 11.0625
Q 25.484375 6.203125 34.421875 6.203125
Q 39.59375 6.203125 44.453125 7.46875
Q 49.3125 8.734375 54.109375 11.28125
L 54.109375 2.78125
Q 49.265625 0.734375 44.1875 -0.34375
Q 39.109375 -1.421875 33.890625 -1.421875
Q 20.796875 -1.421875 13.15625 6.1875
Q 5.515625 13.8125 5.515625 26.8125
Q 5.515625 40.234375 12.765625 48.109375
Q 20.015625 56 32.328125 56
Q 43.359375 56 49.78125 48.890625
Q 56.203125 41.796875 56.203125 29.59375
z
M 47.21875 32.234375
Q 47.125 39.59375 43.09375 43.984375
Q 39.0625 48.390625 32.421875 48.390625
Q 24.90625 48.390625 20.390625 44.140625
Q 15.875 39.890625 15.1875 32.171875
z
" id="DejaVuSans-101"/>
       <path d="M 34.28125 27.484375
Q 23.390625 27.484375 19.1875 25
Q 14.984375 22.515625 14.984375 16.5
Q 14.984375 11.71875 18.140625 8.90625
Q 21.296875 6.109375 26.703125 6.109375
Q 34.1875 6.109375 38.703125 11.40625
Q 43.21875 16.703125 43.21875 25.484375
L 43.21875 27.484375
z
M 52.203125 31.203125
L 52.203125 0
L 43.21875 0
L 43.21875 8.296875
Q 40.140625 3.328125 35.546875 0.953125
Q 30.953125 -1.421875 24.3125 -1.421875
Q 15.921875 -1.421875 10.953125 3.296875
Q 6 8.015625 6 15.921875
Q 6 25.140625 12.171875 29.828125
Q 18.359375 34.515625 30.609375 34.515625
L 43.21875 34.515625
L 43.21875 35.40625
Q 43.21875 41.609375 39.140625 45
Q 35.0625 48.390625 27.6875 48.390625
Q 23 48.390625 18.546875 47.265625
Q 14.109375 46.140625 10.015625 43.890625
L 10.015625 52.203125
Q 14.9375 54.109375 19.578125 55.046875
Q 24.21875 56 28.609375 56
Q 40.484375 56 46.34375 49.84375
Q 52.203125 43.703125 52.203125 31.203125
z
" id="DejaVuSans-97"/>
       <path d="M 41.109375 46.296875
Q 39.59375 47.171875 37.8125 47.578125
Q 36.03125 48 33.890625 48
Q 26.265625 48 22.1875 43.046875
Q 18.109375 38.09375 18.109375 28.8125
L 18.109375 0
L 9.078125 0
L 9.078125 54.6875
L 18.109375 54.6875
L 18.109375 46.1875
Q 20.953125 51.171875 25.484375 53.578125
Q 30.03125 56 36.53125 56
Q 37.453125 56 38.578125 55.875
Q 39.703125 55.765625 41.0625 55.515625
z
" id="DejaVuSans-114"/>
      </defs>
      <use xlink:href="#DejaVuSans-89"/>
      <use x="47.833984" xlink:href="#DejaVuSans-101"/>
      <use x="109.357422" xlink:href="#DejaVuSans-97"/>
      <use x="170.636719" xlink:href="#DejaVuSans-114"/>
     </g>
    </g>
   </g>
   <g id="matplotlib.axis_2"/>
   <g id="LineCollection_1">
    <path clip-path="url(#pa92cf230e5)" d="M 35.608505 68.031429
L 90.102595 68.031429
" style="fill:none;stroke:#1996f3;"/>
   </g>
   <g id="LineCollection_2">
    <path clip-path="url(#pa92cf230e5)" d="M 90.102595 68.031429
L 115.807549 68.031429
" style="fill:none;stroke:#e6ce74;"/>
   </g>
   <g id="LineCollection_3">
    <path clip-path="url(#pa92cf230e5)" d="M 115.807549 68.031429
L 118.856515 68.031429
" style="fill:none;stroke:#e6ce74;"/>
   </g>
   <g id="LineCollection_4">
    <path clip-path="url(#pa92cf230e5)" d="M 118.856515 17.554286
L 118.856515 17.554286
" style="fill:none;stroke:#e6ce74;"/>
   </g>
   <g id="LineCollection_5">
    <path clip-path="url(#pa92cf230e5)" d="M 118.856515 118.508571
L 121.207231 118.508571
" style="fill:none;stroke:#e6ce74;"/>
   </g>
   <g id="LineCollection_6">
    <path clip-path="url(#pa92cf230e5)" d="M 121.207231 22.731429
L 141.239771 22.731429
" style="fill:none;stroke:#e6ce74;"/>
   </g>
   <g id="LineCollection_7">
    <path clip-path="url(#pa92cf230e5)" d="M 121.207231 35.674286
L 121.235621 35.674286
" style="fill:none;stroke:#e6ce74;"/>
   </g>
   <g id="LineCollection_8">
    <path clip-path="url(#pa92cf230e5)" d="M 121.235621 30.497143
L 140.438446 30.497143
" style="fill:none;stroke:#e6ce74;"/>
   </g>
   <g id="LineCollection_9">
    <path clip-path="url(#pa92cf230e5)" d="M 140.438446 27.908571
L 140.438446 27.908571
" style="fill:none;stroke:#e6ce74;"/>
   </g>
   <g id="LineCollection_10">
    <path clip-path="url(#pa92cf230e5)" d="M 140.438446 33.085714
L 140.438446 33.085714
" style="fill:none;stroke:#e6ce74;"/>
   </g>
   <g id="LineCollection_11">
    <path clip-path="url(#pa92cf230e5)" d="M 121.235621 40.851429
L 121.239407 40.851429
" style="fill:none;stroke:#e6ce74;"/>
   </g>
   <g id="LineCollection_12">
    <path clip-path="url(#pa92cf230e5)" d="M 121.239407 38.262857
L 121.239407 38.262857
" style="fill:none;stroke:#e6ce74;"/>
   </g>
   <g id="LineCollection_13">
    <path clip-path="url(#pa92cf230e5)" d="M 121.239407 43.44
L 129.544827 43.44
" style="fill:none;stroke:#e6ce74;"/>
   </g>
   <g id="LineCollection_14">
    <path clip-path="url(#pa92cf230e5)" d="M 121.207231 56.117427
L 126.333318 56.117427
" style="fill:none;stroke:#e6ce74;"/>
   </g>
   <g id="LineCollection_15">
    <path clip-path="url(#pa92cf230e5)" d="M 126.333318 48.617143
L 134.628102 48.617143
" style="fill:none;stroke:#e6ce74;"/>
   </g>
   <g id="LineCollection_16">
    <path clip-path="url(#pa92cf230e5)" d="M 126.333318 63.617712
L 129.239694 63.617712
" style="fill:none;stroke:#e6ce74;"/>
   </g>
   <g id="LineCollection_17">
    <path clip-path="url(#pa92cf230e5)" d="M 129.239694 53.794286
L 129.239694 53.794286
" style="fill:none;stroke:#e6ce74;"/>
   </g>
   <g id="LineCollection_18">
    <path clip-path="url(#pa92cf230e5)" d="M 129.239694 73.441138
L 145.469599 73.441138
" style="fill:none;stroke:#e6ce74;"/>
   </g>
   <g id="LineCollection_19">
    <path clip-path="url(#pa92cf230e5)" d="M 145.469599 58.971429
L 152.967388 58.971429
" style="fill:none;stroke:#e6ce74;"/>
   </g>
   <g id="LineCollection_20">
    <path clip-path="url(#pa92cf230e5)" d="M 145.469599 87.910848
L 164.986733 87.910848
" style="fill:none;stroke:#e6ce74;"/>
   </g>
   <g id="LineCollection_21">
    <path clip-path="url(#pa92cf230e5)" d="M 164.986733 64.148571
L 171.370829 64.148571
" style="fill:none;stroke:#e6ce74;"/>
   </g>
   <g id="LineCollection_22">
    <path clip-path="url(#pa92cf230e5)" d="M 164.986733 111.673125
L 171.040901 111.673125
" style="fill:none;stroke:#e6ce74;"/>
   </g>
   <g id="LineCollection_23">
    <path clip-path="url(#pa92cf230e5)" d="M 171.040901 69.325714
L 171.040901 69.325714
" style="fill:none;stroke:#e6ce74;"/>
   </g>
   <g id="LineCollection_24">
    <path clip-path="url(#pa92cf230e5)" d="M 171.040901 74.502857
L 171.040901 74.502857
" style="fill:none;stroke:#e6ce74;"/>
   </g>
   <g id="LineCollection_25">
    <path clip-path="url(#pa92cf230e5)" d="M 171.040901 79.68
L 177.653034 79.68
" style="fill:none;stroke:#e6ce74;"/>
   </g>
   <g id="LineCollection_26">
    <path clip-path="url(#pa92cf230e5)" d="M 171.040901 87.445714
L 171.765652 87.445714
" style="fill:none;stroke:#e6ce74;"/>
   </g>
   <g id="LineCollection_27">
    <path clip-path="url(#pa92cf230e5)" d="M 171.765652 84.857143
L 171.765652 84.857143
" style="fill:none;stroke:#e6ce74;"/>
   </g>
   <g id="LineCollection_28">
    <path clip-path="url(#pa92cf230e5)" d="M 171.765652 90.034286
L 174.716909 90.034286
" style="fill:none;stroke:#e6ce74;"/>
   </g>
   <g id="LineCollection_29">
    <path clip-path="url(#pa92cf230e5)" d="M 171.040901 103.300714
L 203.312555 103.300714
" style="fill:none;stroke:#e6ce74;"/>
   </g>
   <g id="LineCollection_30">
    <path clip-path="url(#pa92cf230e5)" d="M 203.312555 95.211429
L 209.922926 95.211429
" style="fill:none;stroke:#e6ce74;"/>
   </g>
   <g id="LineCollection_31">
    <path clip-path="url(#pa92cf230e5)" d="M 203.312555 111.39
L 216.325906 111.39
" style="fill:none;stroke:#e6ce74;"/>
   </g>
   <g id="LineCollection_32">
    <path clip-path="url(#pa92cf230e5)" d="M 216.325906 100.388571
L 219.219775 100.388571
" style="fill:none;stroke:#e6ce74;"/>
   </g>
   <g id="LineCollection_33">
    <path clip-path="url(#pa92cf230e5)" d="M 216.325906 122.391429
L 219.149893 122.391429
" style="fill:none;stroke:#e6ce74;"/>
   </g>
   <g id="LineCollection_34">
    <path clip-path="url(#pa92cf230e5)" d="M 219.149893 105.565714
L 219.149893 105.565714
" style="fill:none;stroke:#e6ce74;"/>
   </g>
   <g id="LineCollection_35">
    <path clip-path="url(#pa92cf230e5)" d="M 219.149893 110.742857
L 219.149893 110.742857
" style="fill:none;stroke:#e6ce74;"/>
   </g>
   <g id="LineCollection_36">
    <path clip-path="url(#pa92cf230e5)" d="M 219.149893 115.92
L 219.149893 115.92
" style="fill:none;stroke:#e6ce74;"/>
   </g>
   <g id="LineCollection_37">
    <path clip-path="url(#pa92cf230e5)" d="M 219.149893 121.097143
L 224.218989 121.097143
" style="fill:none;stroke:#e6ce74;"/>
   </g>
   <g id="LineCollection_38">
    <path clip-path="url(#pa92cf230e5)" d="M 219.149893 126.274286
L 219.149893 126.274286
" style="fill:none;stroke:#e6ce74;"/>
   </g>
   <g id="LineCollection_39">
    <path clip-path="url(#pa92cf230e5)" d="M 219.149893 131.451429
L 224.218992 131.451429
" style="fill:none;stroke:#e6ce74;"/>
   </g>
   <g id="LineCollection_40">
    <path clip-path="url(#pa92cf230e5)" d="M 219.149893 139.217143
L 222.071459 139.217143
" style="fill:none;stroke:#e6ce74;"/>
   </g>
   <g id="LineCollection_41">
    <path clip-path="url(#pa92cf230e5)" d="M 222.071459 136.628571
L 222.071459 136.628571
" style="fill:none;stroke:#e6ce74;"/>
   </g>
   <g id="LineCollection_42">
    <path clip-path="url(#pa92cf230e5)" d="M 222.071459 141.805714
L 222.071459 141.805714
" style="fill:none;stroke:#e6ce74;"/>
   </g>
   <g id="LineCollection_43">
    <path clip-path="url(#pa92cf230e5)" d="M 171.040901 154.020536
L 217.722695 154.020536
" style="fill:none;stroke:#e6ce74;"/>
   </g>
   <g id="LineCollection_44">
    <path clip-path="url(#pa92cf230e5)" d="M 217.722695 146.982857
L 240.094914 146.982857
" style="fill:none;stroke:#e6ce74;"/>
   </g>
   <g id="LineCollection_45">
    <path clip-path="url(#pa92cf230e5)" d="M 217.722695 161.058214
L 221.056751 161.058214
" style="fill:none;stroke:#e6ce74;"/>
   </g>
   <g id="LineCollection_46">
    <path clip-path="url(#pa92cf230e5)" d="M 221.056751 152.16
L 221.056751 152.16
" style="fill:none;stroke:#e6ce74;"/>
   </g>
   <g id="LineCollection_47">
    <path clip-path="url(#pa92cf230e5)" d="M 221.056751 169.956429
L 223.347507 169.956429
" style="fill:none;stroke:#e6ce74;"/>
   </g>
   <g id="LineCollection_48">
    <path clip-path="url(#pa92cf230e5)" d="M 223.347507 157.337143
L 223.347507 157.337143
" style="fill:none;stroke:#e6ce74;"/>
   </g>
   <g id="LineCollection_49">
    <path clip-path="url(#pa92cf230e5)" d="M 223.347507 162.514286
L 223.347507 162.514286
" style="fill:none;stroke:#e6ce74;"/>
   </g>
   <g id="LineCollection_50">
    <path clip-path="url(#pa92cf230e5)" d="M 223.347507 167.691429
L 223.347507 167.691429
" style="fill:none;stroke:#e6ce74;"/>
   </g>
   <g id="LineCollection_51">
    <path clip-path="url(#pa92cf230e5)" d="M 223.347507 182.575714
L 240.254936 182.575714
" style="fill:none;stroke:#e6ce74;"/>
   </g>
   <g id="LineCollection_52">
    <path clip-path="url(#pa92cf230e5)" d="M 240.254936 175.457143
L 246.00117 175.457143
" style="fill:none;stroke:#e6ce74;"/>
   </g>
   <g id="LineCollection_53">
    <path clip-path="url(#pa92cf230e5)" d="M 246.00117 172.868571
L 258.452865 172.868571
" style="fill:none;stroke:#e6ce74;"/>
   </g>
   <g id="LineCollection_54">
    <path clip-path="url(#pa92cf230e5)" d="M 246.00117 178.045714
L 269.729454 178.045714
" style="fill:none;stroke:#e6ce74;"/>
   </g>
   <g id="LineCollection_55">
    <path clip-path="url(#pa92cf230e5)" d="M 240.254936 189.694286
L 247.429594 189.694286
" style="fill:none;stroke:#e6ce74;"/>
   </g>
   <g id="LineCollection_56">
    <path clip-path="url(#pa92cf230e5)" d="M 247.429594 183.222857
L 253.349793 183.222857
" style="fill:none;stroke:#e6ce74;"/>
   </g>
   <g id="LineCollection_57">
    <path clip-path="url(#pa92cf230e5)" d="M 247.429594 196.165714
L 251.432997 196.165714
" style="fill:none;stroke:#e6ce74;"/>
   </g>
   <g id="LineCollection_58">
    <path clip-path="url(#pa92cf230e5)" d="M 251.432997 188.4
L 254.019009 188.4
" style="fill:none;stroke:#e6ce74;"/>
   </g>
   <g id="LineCollection_59">
    <path clip-path="url(#pa92cf230e5)" d="M 251.432997 193.577143
L 253.349793 193.577143
" style="fill:none;stroke:#e6ce74;"/>
   </g>
   <g id="LineCollection_60">
    <path clip-path="url(#pa92cf230e5)" d="M 251.432997 198.754286
L 254.019009 198.754286
" style="fill:none;stroke:#e6ce74;"/>
   </g>
   <g id="LineCollection_61">
    <path clip-path="url(#pa92cf230e5)" d="M 251.432997 203.931429
L 254.019009 203.931429
" style="fill:none;stroke:#e6ce74;"/>
   </g>
   <g id="LineCollection_62">
    <path clip-path="url(#pa92cf230e5)" d="M 121.207231 214.285714
L 125.016153 214.285714
" style="fill:none;stroke:#e6ce74;"/>
   </g>
   <g id="LineCollection_63">
    <path clip-path="url(#pa92cf230e5)" d="M 125.016153 209.108571
L 146.275228 209.108571
" style="fill:none;stroke:#e6ce74;"/>
   </g>
   <g id="LineCollection_64">
    <path clip-path="url(#pa92cf230e5)" d="M 125.016153 214.285714
L 146.275228 214.285714
" style="fill:none;stroke:#e6ce74;"/>
   </g>
   <g id="LineCollection_65">
    <path clip-path="url(#pa92cf230e5)" d="M 125.016153 219.462857
L 128.45985 219.462857
" style="fill:none;stroke:#e6ce74;"/>
   </g>
   <g id="LineCollection_66">
    <path clip-path="url(#pa92cf230e5)" d="M 128.45985 219.462857
L 146.275228 219.462857
" style="fill:none;stroke:#e6ce74;"/>
   </g>
   <g id="LineCollection_67">
    <path clip-path="url(#pa92cf230e5)" d="M 90.102595 68.031429
L 90.102595 68.031429
" style="fill:none;stroke:#1996f3;"/>
   </g>
   <g id="LineCollection_68">
    <path clip-path="url(#pa92cf230e5)" d="M 115.807549 68.031429
L 115.807549 68.031429
" style="fill:none;stroke:#e6ce74;"/>
   </g>
   <g id="LineCollection_69">
    <path clip-path="url(#pa92cf230e5)" d="M 118.856515 118.508571
L 118.856515 17.554286
" style="fill:none;stroke:#e6ce74;"/>
   </g>
   <g id="LineCollection_70">
    <path clip-path="url(#pa92cf230e5)" d="M 121.207231 214.285714
L 121.207231 22.731429
" style="fill:none;stroke:#e6ce74;"/>
   </g>
   <g id="LineCollection_71">
    <path clip-path="url(#pa92cf230e5)" d="M 121.235621 40.851429
L 121.235621 30.497143
" style="fill:none;stroke:#e6ce74;"/>
   </g>
   <g id="LineCollection_72">
    <path clip-path="url(#pa92cf230e5)" d="M 140.438446 33.085714
L 140.438446 27.908571
" style="fill:none;stroke:#e6ce74;"/>
   </g>
   <g id="LineCollection_73">
    <path clip-path="url(#pa92cf230e5)" d="M 121.239407 43.44
L 121.239407 38.262857
" style="fill:none;stroke:#e6ce74;"/>
   </g>
   <g id="LineCollection_74">
    <path clip-path="url(#pa92cf230e5)" d="M 126.333318 63.617712
L 126.333318 48.617143
" style="fill:none;stroke:#e6ce74;"/>
   </g>
   <g id="LineCollection_75">
    <path clip-path="url(#pa92cf230e5)" d="M 129.239694 73.441138
L 129.239694 53.794286
" style="fill:none;stroke:#e6ce74;"/>
   </g>
   <g id="LineCollection_76">
    <path clip-path="url(#pa92cf230e5)" d="M 145.469599 87.910848
L 145.469599 58.971429
" style="fill:none;stroke:#e6ce74;"/>
   </g>
   <g id="LineCollection_77">
    <path clip-path="url(#pa92cf230e5)" d="M 164.986733 111.673125
L 164.986733 64.148571
" style="fill:none;stroke:#e6ce74;"/>
   </g>
   <g id="LineCollection_78">
    <path clip-path="url(#pa92cf230e5)" d="M 171.040901 154.020536
L 171.040901 69.325714
" style="fill:none;stroke:#e6ce74;"/>
   </g>
   <g id="LineCollection_79">
    <path clip-path="url(#pa92cf230e5)" d="M 171.765652 90.034286
L 171.765652 84.857143
" style="fill:none;stroke:#e6ce74;"/>
   </g>
   <g id="LineCollection_80">
    <path clip-path="url(#pa92cf230e5)" d="M 203.312555 111.39
L 203.312555 95.211429
" style="fill:none;stroke:#e6ce74;"/>
   </g>
   <g id="LineCollection_81">
    <path clip-path="url(#pa92cf230e5)" d="M 216.325906 122.391429
L 216.325906 100.388571
" style="fill:none;stroke:#e6ce74;"/>
   </g>
   <g id="LineCollection_82">
    <path clip-path="url(#pa92cf230e5)" d="M 219.149893 139.217143
L 219.149893 105.565714
" style="fill:none;stroke:#e6ce74;"/>
   </g>
   <g id="LineCollection_83">
    <path clip-path="url(#pa92cf230e5)" d="M 222.071459 141.805714
L 222.071459 136.628571
" style="fill:none;stroke:#e6ce74;"/>
   </g>
   <g id="LineCollection_84">
    <path clip-path="url(#pa92cf230e5)" d="M 217.722695 161.058214
L 217.722695 146.982857
" style="fill:none;stroke:#e6ce74;"/>
   </g>
   <g id="LineCollection_85">
    <path clip-path="url(#pa92cf230e5)" d="M 221.056751 169.956429
L 221.056751 152.16
" style="fill:none;stroke:#e6ce74;"/>
   </g>
   <g id="LineCollection_86">
    <path clip-path="url(#pa92cf230e5)" d="M 223.347507 182.575714
L 223.347507 157.337143
" style="fill:none;stroke:#e6ce74;"/>
   </g>
   <g id="LineCollection_87">
    <path clip-path="url(#pa92cf230e5)" d="M 240.254936 189.694286
L 240.254936 175.457143
" style="fill:none;stroke:#e6ce74;"/>
   </g>
   <g id="LineCollection_88">
    <path clip-path="url(#pa92cf230e5)" d="M 246.00117 178.045714
L 246.00117 172.868571
" style="fill:none;stroke:#e6ce74;"/>
   </g>
   <g id="LineCollection_89">
    <path clip-path="url(#pa92cf230e5)" d="M 247.429594 196.165714
L 247.429594 183.222857
" style="fill:none;stroke:#e6ce74;"/>
   </g>
   <g id="LineCollection_90">
    <path clip-path="url(#pa92cf230e5)" d="M 251.432997 203.931429
L 251.432997 188.4
" style="fill:none;stroke:#e6ce74;"/>
   </g>
   <g id="LineCollection_91">
    <path clip-path="url(#pa92cf230e5)" d="M 125.016153 219.462857
L 125.016153 209.108571
" style="fill:none;stroke:#e6ce74;"/>
   </g>
   <g id="LineCollection_92">
    <path clip-path="url(#pa92cf230e5)" d="M 128.45985 219.462857
L 128.45985 219.462857
" style="fill:none;stroke:#e6ce74;"/>
   </g>
   <g id="line2d_4">
    <path clip-path="url(#pa92cf230e5)" d="M 13.5625 224.64
L 13.5625 7.2
" style="fill:none;stroke:#a9a9a9;stroke-linecap:square;stroke-opacity:0.5;"/>
   </g>
   <g id="line2d_5">
    <path clip-path="url(#pa92cf230e5)" d="M 180.31297 224.64
L 180.31297 7.2
" style="fill:none;stroke:#a9a9a9;stroke-linecap:square;stroke-opacity:0.5;"/>
   </g>
   <g id="line2d_6">
    <path clip-path="url(#pa92cf230e5)" d="M 347.063439 224.64
L 347.063439 7.2
" style="fill:none;stroke:#a9a9a9;stroke-linecap:square;stroke-opacity:0.5;"/>
   </g>
   <g id="patch_3">
    <path d="M 12.263439 224.64
L 347.063439 224.64
" style="fill:none;stroke:#000000;stroke-linecap:square;stroke-linejoin:miter;stroke-width:0.8;"/>
   </g>
   <g id="text_5">
    <!--   -->
    <g transform="translate(90.102595 69.411116)scale(0.05 -0.05)">
     <defs>
      <path id="DejaVuSans-32"/>
     </defs>
     <use xlink:href="#DejaVuSans-32"/>
    </g>
   </g>
   <g id="text_6">
    <!--   -->
    <g transform="translate(115.807549 69.411116)scale(0.05 -0.05)">
     <use xlink:href="#DejaVuSans-32"/>
    </g>
   </g>
   <g id="text_7">
    <!--   -->
    <g transform="translate(118.856515 69.411116)scale(0.05 -0.05)">
     <use xlink:href="#DejaVuSans-32"/>
    </g>
   </g>
   <g id="text_8">
    <!--   -->
    <g transform="translate(118.856515 18.933973)scale(0.05 -0.05)">
     <use xlink:href="#DejaVuSans-32"/>
    </g>
   </g>
   <g id="text_9">
    <!--   -->
    <g transform="translate(121.207231 119.888259)scale(0.05 -0.05)">
     <use xlink:href="#DejaVuSans-32"/>
    </g>
   </g>
   <g id="text_10">
    <!--   -->
    <g transform="translate(141.239771 24.111116)scale(0.05 -0.05)">
     <use xlink:href="#DejaVuSans-32"/>
    </g>
   </g>
   <g id="text_11">
    <!--   -->
    <g transform="translate(121.235621 37.053973)scale(0.05 -0.05)">
     <use xlink:href="#DejaVuSans-32"/>
    </g>
   </g>
   <g id="text_12">
    <!--   -->
    <g transform="translate(140.438446 31.87683)scale(0.05 -0.05)">
     <use xlink:href="#DejaVuSans-32"/>
    </g>
   </g>
   <g id="text_13">
    <!--   -->
    <g transform="translate(140.438446 29.288259)scale(0.05 -0.05)">
     <use xlink:href="#DejaVuSans-32"/>
    </g>
   </g>
   <g id="text_14">
    <!--   -->
    <g transform="translate(140.438446 34.465402)scale(0.05 -0.05)">
     <use xlink:href="#DejaVuSans-32"/>
    </g>
   </g>
   <g id="text_15">
    <!--   -->
    <g transform="translate(121.239407 42.231116)scale(0.05 -0.05)">
     <use xlink:href="#DejaVuSans-32"/>
    </g>
   </g>
   <g id="text_16">
    <!--   -->
    <g transform="translate(121.239407 39.642545)scale(0.05 -0.05)">
     <use xlink:href="#DejaVuSans-32"/>
    </g>
   </g>
   <g id="text_17">
    <!--   -->
    <g transform="translate(129.544827 44.819687)scale(0.05 -0.05)">
     <use xlink:href="#DejaVuSans-32"/>
    </g>
   </g>
   <g id="text_18">
    <!--   -->
    <g transform="translate(126.333318 57.497115)scale(0.05 -0.05)">
     <use xlink:href="#DejaVuSans-32"/>
    </g>
   </g>
   <g id="text_19">
    <!--   -->
    <g transform="translate(134.628102 49.99683)scale(0.05 -0.05)">
     <use xlink:href="#DejaVuSans-32"/>
    </g>
   </g>
   <g id="text_20">
    <!--   -->
    <g transform="translate(129.239694 64.9974)scale(0.05 -0.05)">
     <use xlink:href="#DejaVuSans-32"/>
    </g>
   </g>
   <g id="text_21">
    <!--   -->
    <g transform="translate(129.239694 55.173973)scale(0.05 -0.05)">
     <use xlink:href="#DejaVuSans-32"/>
    </g>
   </g>
   <g id="text_22">
    <!--   -->
    <g transform="translate(145.469599 74.820826)scale(0.05 -0.05)">
     <use xlink:href="#DejaVuSans-32"/>
    </g>
   </g>
   <g id="text_23">
    <!--   -->
    <g transform="translate(152.967388 60.351116)scale(0.05 -0.05)">
     <use xlink:href="#DejaVuSans-32"/>
    </g>
   </g>
   <g id="text_24">
    <!--   -->
    <g transform="translate(164.986733 89.290536)scale(0.05 -0.05)">
     <use xlink:href="#DejaVuSans-32"/>
    </g>
   </g>
   <g id="text_25">
    <!--   -->
    <g transform="translate(171.370829 65.528259)scale(0.05 -0.05)">
     <use xlink:href="#DejaVuSans-32"/>
    </g>
   </g>
   <g id="text_26">
    <!--   -->
    <g transform="translate(171.040901 113.052812)scale(0.05 -0.05)">
     <use xlink:href="#DejaVuSans-32"/>
    </g>
   </g>
   <g id="text_27">
    <!--   -->
    <g transform="translate(171.040901 70.705402)scale(0.05 -0.05)">
     <use xlink:href="#DejaVuSans-32"/>
    </g>
   </g>
   <g id="text_28">
    <!--   -->
    <g transform="translate(171.040901 75.882545)scale(0.05 -0.05)">
     <use xlink:href="#DejaVuSans-32"/>
    </g>
   </g>
   <g id="text_29">
    <!--   -->
    <g transform="translate(177.653034 81.059687)scale(0.05 -0.05)">
     <use xlink:href="#DejaVuSans-32"/>
    </g>
   </g>
   <g id="text_30">
    <!--   -->
    <g transform="translate(171.765652 88.825402)scale(0.05 -0.05)">
     <use xlink:href="#DejaVuSans-32"/>
    </g>
   </g>
   <g id="text_31">
    <!--   -->
    <g transform="translate(171.765652 86.23683)scale(0.05 -0.05)">
     <use xlink:href="#DejaVuSans-32"/>
    </g>
   </g>
   <g id="text_32">
    <!--   -->
    <g transform="translate(174.716909 91.413973)scale(0.05 -0.05)">
     <use xlink:href="#DejaVuSans-32"/>
    </g>
   </g>
   <g id="text_33">
    <!--   -->
    <g transform="translate(203.312555 104.680402)scale(0.05 -0.05)">
     <use xlink:href="#DejaVuSans-32"/>
    </g>
   </g>
   <g id="text_34">
    <!--   -->
    <g transform="translate(209.922926 96.591116)scale(0.05 -0.05)">
     <use xlink:href="#DejaVuSans-32"/>
    </g>
   </g>
   <g id="text_35">
    <!--   -->
    <g transform="translate(216.325906 112.769687)scale(0.05 -0.05)">
     <use xlink:href="#DejaVuSans-32"/>
    </g>
   </g>
   <g id="text_36">
    <!--   -->
    <g transform="translate(219.219775 101.768259)scale(0.05 -0.05)">
     <use xlink:href="#DejaVuSans-32"/>
    </g>
   </g>
   <g id="text_37">
    <!--   -->
    <g transform="translate(219.149893 123.771116)scale(0.05 -0.05)">
     <use xlink:href="#DejaVuSans-32"/>
    </g>
   </g>
   <g id="text_38">
    <!--   -->
    <g transform="translate(219.149893 106.945402)scale(0.05 -0.05)">
     <use xlink:href="#DejaVuSans-32"/>
    </g>
   </g>
   <g id="text_39">
    <!--   -->
    <g transform="translate(219.149893 112.122545)scale(0.05 -0.05)">
     <use xlink:href="#DejaVuSans-32"/>
    </g>
   </g>
   <g id="text_40">
    <!--   -->
    <g transform="translate(219.149893 117.299687)scale(0.05 -0.05)">
     <use xlink:href="#DejaVuSans-32"/>
    </g>
   </g>
   <g id="text_41">
    <!--   -->
    <g transform="translate(224.218989 122.47683)scale(0.05 -0.05)">
     <use xlink:href="#DejaVuSans-32"/>
    </g>
   </g>
   <g id="text_42">
    <!--   -->
    <g transform="translate(219.149893 127.653973)scale(0.05 -0.05)">
     <use xlink:href="#DejaVuSans-32"/>
    </g>
   </g>
   <g id="text_43">
    <!--   -->
    <g transform="translate(224.218992 132.831116)scale(0.05 -0.05)">
     <use xlink:href="#DejaVuSans-32"/>
    </g>
   </g>
   <g id="text_44">
    <!--   -->
    <g transform="translate(222.071459 140.59683)scale(0.05 -0.05)">
     <use xlink:href="#DejaVuSans-32"/>
    </g>
   </g>
   <g id="text_45">
    <!--   -->
    <g transform="translate(222.071459 138.008259)scale(0.05 -0.05)">
     <use xlink:href="#DejaVuSans-32"/>
    </g>
   </g>
   <g id="text_46">
    <!--   -->
    <g transform="translate(222.071459 143.185402)scale(0.05 -0.05)">
     <use xlink:href="#DejaVuSans-32"/>
    </g>
   </g>
   <g id="text_47">
    <!--   -->
    <g transform="translate(217.722695 155.400223)scale(0.05 -0.05)">
     <use xlink:href="#DejaVuSans-32"/>
    </g>
   </g>
   <g id="text_48">
    <!--   -->
    <g transform="translate(240.094914 148.362545)scale(0.05 -0.05)">
     <use xlink:href="#DejaVuSans-32"/>
    </g>
   </g>
   <g id="text_49">
    <!--   -->
    <g transform="translate(221.056751 162.437902)scale(0.05 -0.05)">
     <use xlink:href="#DejaVuSans-32"/>
    </g>
   </g>
   <g id="text_50">
    <!--   -->
    <g transform="translate(221.056751 153.539687)scale(0.05 -0.05)">
     <use xlink:href="#DejaVuSans-32"/>
    </g>
   </g>
   <g id="text_51">
    <!--   -->
    <g transform="translate(223.347507 171.336116)scale(0.05 -0.05)">
     <use xlink:href="#DejaVuSans-32"/>
    </g>
   </g>
   <g id="text_52">
    <!--   -->
    <g transform="translate(223.347507 158.71683)scale(0.05 -0.05)">
     <use xlink:href="#DejaVuSans-32"/>
    </g>
   </g>
   <g id="text_53">
    <!--   -->
    <g transform="translate(223.347507 163.893973)scale(0.05 -0.05)">
     <use xlink:href="#DejaVuSans-32"/>
    </g>
   </g>
   <g id="text_54">
    <!--   -->
    <g transform="translate(223.347507 169.071116)scale(0.05 -0.05)">
     <use xlink:href="#DejaVuSans-32"/>
    </g>
   </g>
   <g id="text_55">
    <!--   -->
    <g transform="translate(240.254936 183.955402)scale(0.05 -0.05)">
     <use xlink:href="#DejaVuSans-32"/>
    </g>
   </g>
   <g id="text_56">
    <!--   -->
    <g transform="translate(246.00117 176.83683)scale(0.05 -0.05)">
     <use xlink:href="#DejaVuSans-32"/>
    </g>
   </g>
   <g id="text_57">
    <!--   -->
    <g transform="translate(258.452865 174.248259)scale(0.05 -0.05)">
     <use xlink:href="#DejaVuSans-32"/>
    </g>
   </g>
   <g id="text_58">
    <!--   -->
    <g transform="translate(269.729454 179.425402)scale(0.05 -0.05)">
     <use xlink:href="#DejaVuSans-32"/>
    </g>
   </g>
   <g id="text_59">
    <!--   -->
    <g transform="translate(247.429594 191.073973)scale(0.05 -0.05)">
     <use xlink:href="#DejaVuSans-32"/>
    </g>
   </g>
   <g id="text_60">
    <!--   -->
    <g transform="translate(253.349793 184.602545)scale(0.05 -0.05)">
     <use xlink:href="#DejaVuSans-32"/>
    </g>
   </g>
   <g id="text_61">
    <!--   -->
    <g transform="translate(251.432997 197.545402)scale(0.05 -0.05)">
     <use xlink:href="#DejaVuSans-32"/>
    </g>
   </g>
   <g id="text_62">
    <!--   -->
    <g transform="translate(254.019009 189.779687)scale(0.05 -0.05)">
     <use xlink:href="#DejaVuSans-32"/>
    </g>
   </g>
   <g id="text_63">
    <!--   -->
    <g transform="translate(253.349793 194.95683)scale(0.05 -0.05)">
     <use xlink:href="#DejaVuSans-32"/>
    </g>
   </g>
   <g id="text_64">
    <!--   -->
    <g transform="translate(254.019009 200.133973)scale(0.05 -0.05)">
     <use xlink:href="#DejaVuSans-32"/>
    </g>
   </g>
   <g id="text_65">
    <!--   -->
    <g transform="translate(254.019009 205.311116)scale(0.05 -0.05)">
     <use xlink:href="#DejaVuSans-32"/>
    </g>
   </g>
   <g id="text_66">
    <!--   -->
    <g transform="translate(125.016153 215.665402)scale(0.05 -0.05)">
     <use xlink:href="#DejaVuSans-32"/>
    </g>
   </g>
   <g id="text_67">
    <!--   -->
    <g transform="translate(146.275228 210.488259)scale(0.05 -0.05)">
     <use xlink:href="#DejaVuSans-32"/>
    </g>
   </g>
   <g id="text_68">
    <!--   -->
    <g transform="translate(146.275228 215.665402)scale(0.05 -0.05)">
     <use xlink:href="#DejaVuSans-32"/>
    </g>
   </g>
   <g id="text_69">
    <!--   -->
    <g transform="translate(128.45985 220.842545)scale(0.05 -0.05)">
     <use xlink:href="#DejaVuSans-32"/>
    </g>
   </g>
   <g id="text_70">
    <!--   -->
    <g transform="translate(146.275228 220.842545)scale(0.05 -0.05)">
     <use xlink:href="#DejaVuSans-32"/>
    </g>
   </g>
  </g>
 </g>
 <defs>
  <clipPath id="pa92cf230e5">
   <rect height="217.44" width="334.8" x="12.263439" y="7.2"/>
  </clipPath>
 </defs>
</svg>
