<?xml version="1.0" encoding="utf-8" standalone="no"?>
<!DOCTYPE svg PUBLIC "-//W3C//DTD SVG 1.1//EN"
  "http://www.w3.org/Graphics/SVG/1.1/DTD/svg11.dtd">
<!-- Created with matplotlib (https://matplotlib.org/) -->
<svg height="330.541644pt" version="1.1" viewBox="0 0 1000.198125 330.541644" width="1000.198125pt" xmlns="http://www.w3.org/2000/svg" xmlns:xlink="http://www.w3.org/1999/xlink">
 <metadata>
  <rdf:RDF xmlns:cc="http://creativecommons.org/ns#" xmlns:dc="http://purl.org/dc/elements/1.1/" xmlns:rdf="http://www.w3.org/1999/02/22-rdf-syntax-ns#">
   <cc:Work>
    <dc:type rdf:resource="http://purl.org/dc/dcmitype/StillImage"/>
    <dc:date>2021-02-12T15:20:59.224508</dc:date>
    <dc:format>image/svg+xml</dc:format>
    <dc:creator>
     <cc:Agent>
      <dc:title>Matplotlib v3.3.2, https://matplotlib.org/</dc:title>
     </cc:Agent>
    </dc:creator>
   </cc:Work>
  </rdf:RDF>
 </metadata>
 <defs>
  <style type="text/css">*{stroke-linecap:butt;stroke-linejoin:round;}</style>
 </defs>
 <g id="figure_1">
  <g id="axes_1">
   <g id="patch_1">
    <path d="M 53.328125 273.99006
L 992.998125 273.99006
L 992.998125 31.48286
L 53.328125 31.48286
z
" style="fill:#ffffff;"/>
   </g>
   <g id="matplotlib.axis_1">
    <g id="xtick_1">
     <g id="text_1">
      <!-- 0 -->
      <g transform="translate(93.495398 287.06881)scale(0.08 -0.08)">
       <defs>
        <path d="M 31.78125 66.40625
Q 24.171875 66.40625 20.328125 58.90625
Q 16.5 51.421875 16.5 36.375
Q 16.5 21.390625 20.328125 13.890625
Q 24.171875 6.390625 31.78125 6.390625
Q 39.453125 6.390625 43.28125 13.890625
Q 47.125 21.390625 47.125 36.375
Q 47.125 51.421875 43.28125 58.90625
Q 39.453125 66.40625 31.78125 66.40625
z
M 31.78125 74.21875
Q 44.046875 74.21875 50.515625 64.515625
Q 56.984375 54.828125 56.984375 36.375
Q 56.984375 17.96875 50.515625 8.265625
Q 44.046875 -1.421875 31.78125 -1.421875
Q 19.53125 -1.421875 13.0625 8.265625
Q 6.59375 17.96875 6.59375 36.375
Q 6.59375 54.828125 13.0625 64.515625
Q 19.53125 74.21875 31.78125 74.21875
z
" id="DejaVuSans-48"/>
       </defs>
       <use xlink:href="#DejaVuSans-48"/>
      </g>
     </g>
    </g>
    <g id="xtick_2">
     <g id="text_2">
      <!-- 25 -->
      <g transform="translate(217.318069 287.06881)scale(0.08 -0.08)">
       <defs>
        <path d="M 19.1875 8.296875
L 53.609375 8.296875
L 53.609375 0
L 7.328125 0
L 7.328125 8.296875
Q 12.9375 14.109375 22.625 23.890625
Q 32.328125 33.6875 34.8125 36.53125
Q 39.546875 41.84375 41.421875 45.53125
Q 43.3125 49.21875 43.3125 52.78125
Q 43.3125 58.59375 39.234375 62.25
Q 35.15625 65.921875 28.609375 65.921875
Q 23.96875 65.921875 18.8125 64.3125
Q 13.671875 62.703125 7.8125 59.421875
L 7.8125 69.390625
Q 13.765625 71.78125 18.9375 73
Q 24.125 74.21875 28.421875 74.21875
Q 39.75 74.21875 46.484375 68.546875
Q 53.21875 62.890625 53.21875 53.421875
Q 53.21875 48.921875 51.53125 44.890625
Q 49.859375 40.875 45.40625 35.40625
Q 44.1875 33.984375 37.640625 27.21875
Q 31.109375 20.453125 19.1875 8.296875
z
" id="DejaVuSans-50"/>
        <path d="M 10.796875 72.90625
L 49.515625 72.90625
L 49.515625 64.59375
L 19.828125 64.59375
L 19.828125 46.734375
Q 21.96875 47.46875 24.109375 47.828125
Q 26.265625 48.1875 28.421875 48.1875
Q 40.625 48.1875 47.75 41.5
Q 54.890625 34.8125 54.890625 23.390625
Q 54.890625 11.625 47.5625 5.09375
Q 40.234375 -1.421875 26.90625 -1.421875
Q 22.3125 -1.421875 17.546875 -0.640625
Q 12.796875 0.140625 7.71875 1.703125
L 7.71875 11.625
Q 12.109375 9.234375 16.796875 8.0625
Q 21.484375 6.890625 26.703125 6.890625
Q 35.15625 6.890625 40.078125 11.328125
Q 45.015625 15.765625 45.015625 23.390625
Q 45.015625 31 40.078125 35.4375
Q 35.15625 39.890625 26.703125 39.890625
Q 22.75 39.890625 18.8125 39.015625
Q 14.890625 38.140625 10.796875 36.28125
z
" id="DejaVuSans-53"/>
       </defs>
       <use xlink:href="#DejaVuSans-50"/>
       <use x="63.623047" xlink:href="#DejaVuSans-53"/>
      </g>
     </g>
    </g>
    <g id="xtick_3">
     <g id="text_3">
      <!-- 50 -->
      <g transform="translate(343.685739 287.06881)scale(0.08 -0.08)">
       <use xlink:href="#DejaVuSans-53"/>
       <use x="63.623047" xlink:href="#DejaVuSans-48"/>
      </g>
     </g>
    </g>
    <g id="xtick_4">
     <g id="text_4">
      <!-- 75 -->
      <g transform="translate(470.05341 287.06881)scale(0.08 -0.08)">
       <defs>
        <path d="M 8.203125 72.90625
L 55.078125 72.90625
L 55.078125 68.703125
L 28.609375 0
L 18.3125 0
L 43.21875 64.59375
L 8.203125 64.59375
z
" id="DejaVuSans-55"/>
       </defs>
       <use xlink:href="#DejaVuSans-55"/>
       <use x="63.623047" xlink:href="#DejaVuSans-53"/>
      </g>
     </g>
    </g>
    <g id="xtick_5">
     <g id="text_5">
      <!-- 100 -->
      <g transform="translate(593.876081 287.06881)scale(0.08 -0.08)">
       <defs>
        <path d="M 12.40625 8.296875
L 28.515625 8.296875
L 28.515625 63.921875
L 10.984375 60.40625
L 10.984375 69.390625
L 28.421875 72.90625
L 38.28125 72.90625
L 38.28125 8.296875
L 54.390625 8.296875
L 54.390625 0
L 12.40625 0
z
" id="DejaVuSans-49"/>
       </defs>
       <use xlink:href="#DejaVuSans-49"/>
       <use x="63.623047" xlink:href="#DejaVuSans-48"/>
       <use x="127.246094" xlink:href="#DejaVuSans-48"/>
      </g>
     </g>
    </g>
    <g id="xtick_6">
     <g id="text_6">
      <!-- 125 -->
      <g transform="translate(720.243752 287.06881)scale(0.08 -0.08)">
       <use xlink:href="#DejaVuSans-49"/>
       <use x="63.623047" xlink:href="#DejaVuSans-50"/>
       <use x="127.246094" xlink:href="#DejaVuSans-53"/>
      </g>
     </g>
    </g>
    <g id="xtick_7">
     <g id="text_7">
      <!-- 150 -->
      <g transform="translate(846.611422 287.06881)scale(0.08 -0.08)">
       <use xlink:href="#DejaVuSans-49"/>
       <use x="63.623047" xlink:href="#DejaVuSans-53"/>
       <use x="127.246094" xlink:href="#DejaVuSans-48"/>
      </g>
     </g>
    </g>
    <g id="xtick_8">
     <g id="text_8">
      <!-- 175 -->
      <g transform="translate(972.979093 287.06881)scale(0.08 -0.08)">
       <use xlink:href="#DejaVuSans-49"/>
       <use x="63.623047" xlink:href="#DejaVuSans-55"/>
       <use x="127.246094" xlink:href="#DejaVuSans-53"/>
      </g>
     </g>
    </g>
    <g id="text_9">
     <!-- read length -->
     <g transform="translate(494.37875 300.330997)scale(0.1 -0.1)">
      <defs>
       <path d="M 41.109375 46.296875
Q 39.59375 47.171875 37.8125 47.578125
Q 36.03125 48 33.890625 48
Q 26.265625 48 22.1875 43.046875
Q 18.109375 38.09375 18.109375 28.8125
L 18.109375 0
L 9.078125 0
L 9.078125 54.6875
L 18.109375 54.6875
L 18.109375 46.1875
Q 20.953125 51.171875 25.484375 53.578125
Q 30.03125 56 36.53125 56
Q 37.453125 56 38.578125 55.875
Q 39.703125 55.765625 41.0625 55.515625
z
" id="DejaVuSans-114"/>
       <path d="M 56.203125 29.59375
L 56.203125 25.203125
L 14.890625 25.203125
Q 15.484375 15.921875 20.484375 11.0625
Q 25.484375 6.203125 34.421875 6.203125
Q 39.59375 6.203125 44.453125 7.46875
Q 49.3125 8.734375 54.109375 11.28125
L 54.109375 2.78125
Q 49.265625 0.734375 44.1875 -0.34375
Q 39.109375 -1.421875 33.890625 -1.421875
Q 20.796875 -1.421875 13.15625 6.1875
Q 5.515625 13.8125 5.515625 26.8125
Q 5.515625 40.234375 12.765625 48.109375
Q 20.015625 56 32.328125 56
Q 43.359375 56 49.78125 48.890625
Q 56.203125 41.796875 56.203125 29.59375
z
M 47.21875 32.234375
Q 47.125 39.59375 43.09375 43.984375
Q 39.0625 48.390625 32.421875 48.390625
Q 24.90625 48.390625 20.390625 44.140625
Q 15.875 39.890625 15.1875 32.171875
z
" id="DejaVuSans-101"/>
       <path d="M 34.28125 27.484375
Q 23.390625 27.484375 19.1875 25
Q 14.984375 22.515625 14.984375 16.5
Q 14.984375 11.71875 18.140625 8.90625
Q 21.296875 6.109375 26.703125 6.109375
Q 34.1875 6.109375 38.703125 11.40625
Q 43.21875 16.703125 43.21875 25.484375
L 43.21875 27.484375
z
M 52.203125 31.203125
L 52.203125 0
L 43.21875 0
L 43.21875 8.296875
Q 40.140625 3.328125 35.546875 0.953125
Q 30.953125 -1.421875 24.3125 -1.421875
Q 15.921875 -1.421875 10.953125 3.296875
Q 6 8.015625 6 15.921875
Q 6 25.140625 12.171875 29.828125
Q 18.359375 34.515625 30.609375 34.515625
L 43.21875 34.515625
L 43.21875 35.40625
Q 43.21875 41.609375 39.140625 45
Q 35.0625 48.390625 27.6875 48.390625
Q 23 48.390625 18.546875 47.265625
Q 14.109375 46.140625 10.015625 43.890625
L 10.015625 52.203125
Q 14.9375 54.109375 19.578125 55.046875
Q 24.21875 56 28.609375 56
Q 40.484375 56 46.34375 49.84375
Q 52.203125 43.703125 52.203125 31.203125
z
" id="DejaVuSans-97"/>
       <path d="M 45.40625 46.390625
L 45.40625 75.984375
L 54.390625 75.984375
L 54.390625 0
L 45.40625 0
L 45.40625 8.203125
Q 42.578125 3.328125 38.25 0.953125
Q 33.9375 -1.421875 27.875 -1.421875
Q 17.96875 -1.421875 11.734375 6.484375
Q 5.515625 14.40625 5.515625 27.296875
Q 5.515625 40.1875 11.734375 48.09375
Q 17.96875 56 27.875 56
Q 33.9375 56 38.25 53.625
Q 42.578125 51.265625 45.40625 46.390625
z
M 14.796875 27.296875
Q 14.796875 17.390625 18.875 11.75
Q 22.953125 6.109375 30.078125 6.109375
Q 37.203125 6.109375 41.296875 11.75
Q 45.40625 17.390625 45.40625 27.296875
Q 45.40625 37.203125 41.296875 42.84375
Q 37.203125 48.484375 30.078125 48.484375
Q 22.953125 48.484375 18.875 42.84375
Q 14.796875 37.203125 14.796875 27.296875
z
" id="DejaVuSans-100"/>
       <path id="DejaVuSans-32"/>
       <path d="M 9.421875 75.984375
L 18.40625 75.984375
L 18.40625 0
L 9.421875 0
z
" id="DejaVuSans-108"/>
       <path d="M 54.890625 33.015625
L 54.890625 0
L 45.90625 0
L 45.90625 32.71875
Q 45.90625 40.484375 42.875 44.328125
Q 39.84375 48.1875 33.796875 48.1875
Q 26.515625 48.1875 22.3125 43.546875
Q 18.109375 38.921875 18.109375 30.90625
L 18.109375 0
L 9.078125 0
L 9.078125 54.6875
L 18.109375 54.6875
L 18.109375 46.1875
Q 21.34375 51.125 25.703125 53.5625
Q 30.078125 56 35.796875 56
Q 45.21875 56 50.046875 50.171875
Q 54.890625 44.34375 54.890625 33.015625
z
" id="DejaVuSans-110"/>
       <path d="M 45.40625 27.984375
Q 45.40625 37.75 41.375 43.109375
Q 37.359375 48.484375 30.078125 48.484375
Q 22.859375 48.484375 18.828125 43.109375
Q 14.796875 37.75 14.796875 27.984375
Q 14.796875 18.265625 18.828125 12.890625
Q 22.859375 7.515625 30.078125 7.515625
Q 37.359375 7.515625 41.375 12.890625
Q 45.40625 18.265625 45.40625 27.984375
z
M 54.390625 6.78125
Q 54.390625 -7.171875 48.1875 -13.984375
Q 42 -20.796875 29.203125 -20.796875
Q 24.46875 -20.796875 20.265625 -20.09375
Q 16.0625 -19.390625 12.109375 -17.921875
L 12.109375 -9.1875
Q 16.0625 -11.328125 19.921875 -12.34375
Q 23.78125 -13.375 27.78125 -13.375
Q 36.625 -13.375 41.015625 -8.765625
Q 45.40625 -4.15625 45.40625 5.171875
L 45.40625 9.625
Q 42.625 4.78125 38.28125 2.390625
Q 33.9375 0 27.875 0
Q 17.828125 0 11.671875 7.65625
Q 5.515625 15.328125 5.515625 27.984375
Q 5.515625 40.671875 11.671875 48.328125
Q 17.828125 56 27.875 56
Q 33.9375 56 38.28125 53.609375
Q 42.625 51.21875 45.40625 46.390625
L 45.40625 54.6875
L 54.390625 54.6875
z
" id="DejaVuSans-103"/>
       <path d="M 18.3125 70.21875
L 18.3125 54.6875
L 36.8125 54.6875
L 36.8125 47.703125
L 18.3125 47.703125
L 18.3125 18.015625
Q 18.3125 11.328125 20.140625 9.421875
Q 21.96875 7.515625 27.59375 7.515625
L 36.8125 7.515625
L 36.8125 0
L 27.59375 0
Q 17.1875 0 13.234375 3.875
Q 9.28125 7.765625 9.28125 18.015625
L 9.28125 47.703125
L 2.6875 47.703125
L 2.6875 54.6875
L 9.28125 54.6875
L 9.28125 70.21875
z
" id="DejaVuSans-116"/>
       <path d="M 54.890625 33.015625
L 54.890625 0
L 45.90625 0
L 45.90625 32.71875
Q 45.90625 40.484375 42.875 44.328125
Q 39.84375 48.1875 33.796875 48.1875
Q 26.515625 48.1875 22.3125 43.546875
Q 18.109375 38.921875 18.109375 30.90625
L 18.109375 0
L 9.078125 0
L 9.078125 75.984375
L 18.109375 75.984375
L 18.109375 46.1875
Q 21.34375 51.125 25.703125 53.5625
Q 30.078125 56 35.796875 56
Q 45.21875 56 50.046875 50.171875
Q 54.890625 44.34375 54.890625 33.015625
z
" id="DejaVuSans-104"/>
      </defs>
      <use xlink:href="#DejaVuSans-114"/>
      <use x="38.863281" xlink:href="#DejaVuSans-101"/>
      <use x="100.386719" xlink:href="#DejaVuSans-97"/>
      <use x="161.666016" xlink:href="#DejaVuSans-100"/>
      <use x="225.142578" xlink:href="#DejaVuSans-32"/>
      <use x="256.929688" xlink:href="#DejaVuSans-108"/>
      <use x="284.712891" xlink:href="#DejaVuSans-101"/>
      <use x="346.236328" xlink:href="#DejaVuSans-110"/>
      <use x="409.615234" xlink:href="#DejaVuSans-103"/>
      <use x="473.091797" xlink:href="#DejaVuSans-116"/>
      <use x="512.300781" xlink:href="#DejaVuSans-104"/>
     </g>
    </g>
   </g>
   <g id="matplotlib.axis_2">
    <g id="ytick_1">
     <g id="line2d_1">
      <path clip-path="url(#p00557c768e)" d="M 53.328125 273.99006
L 992.998125 273.99006
" style="fill:none;stroke:#dedede;stroke-linecap:square;"/>
     </g>
     <g id="text_10">
      <!-- 0 -->
      <g transform="translate(41.238125 277.029435)scale(0.08 -0.08)">
       <use xlink:href="#DejaVuSans-48"/>
      </g>
     </g>
    </g>
    <g id="ytick_2">
     <g id="line2d_2">
      <path clip-path="url(#p00557c768e)" d="M 53.328125 245.641068
L 992.998125 245.641068
" style="fill:none;stroke:#dedede;stroke-linecap:square;"/>
     </g>
     <g id="text_11">
      <!-- 2000 -->
      <g transform="translate(25.968125 248.680443)scale(0.08 -0.08)">
       <use xlink:href="#DejaVuSans-50"/>
       <use x="63.623047" xlink:href="#DejaVuSans-48"/>
       <use x="127.246094" xlink:href="#DejaVuSans-48"/>
       <use x="190.869141" xlink:href="#DejaVuSans-48"/>
      </g>
     </g>
    </g>
    <g id="ytick_3">
     <g id="line2d_3">
      <path clip-path="url(#p00557c768e)" d="M 53.328125 217.292076
L 992.998125 217.292076
" style="fill:none;stroke:#dedede;stroke-linecap:square;"/>
     </g>
     <g id="text_12">
      <!-- 4000 -->
      <g transform="translate(25.968125 220.331451)scale(0.08 -0.08)">
       <defs>
        <path d="M 37.796875 64.3125
L 12.890625 25.390625
L 37.796875 25.390625
z
M 35.203125 72.90625
L 47.609375 72.90625
L 47.609375 25.390625
L 58.015625 25.390625
L 58.015625 17.1875
L 47.609375 17.1875
L 47.609375 0
L 37.796875 0
L 37.796875 17.1875
L 4.890625 17.1875
L 4.890625 26.703125
z
" id="DejaVuSans-52"/>
       </defs>
       <use xlink:href="#DejaVuSans-52"/>
       <use x="63.623047" xlink:href="#DejaVuSans-48"/>
       <use x="127.246094" xlink:href="#DejaVuSans-48"/>
       <use x="190.869141" xlink:href="#DejaVuSans-48"/>
      </g>
     </g>
    </g>
    <g id="ytick_4">
     <g id="line2d_4">
      <path clip-path="url(#p00557c768e)" d="M 53.328125 188.943084
L 992.998125 188.943084
" style="fill:none;stroke:#dedede;stroke-linecap:square;"/>
     </g>
     <g id="text_13">
      <!-- 6000 -->
      <g transform="translate(25.968125 191.982459)scale(0.08 -0.08)">
       <defs>
        <path d="M 33.015625 40.375
Q 26.375 40.375 22.484375 35.828125
Q 18.609375 31.296875 18.609375 23.390625
Q 18.609375 15.53125 22.484375 10.953125
Q 26.375 6.390625 33.015625 6.390625
Q 39.65625 6.390625 43.53125 10.953125
Q 47.40625 15.53125 47.40625 23.390625
Q 47.40625 31.296875 43.53125 35.828125
Q 39.65625 40.375 33.015625 40.375
z
M 52.59375 71.296875
L 52.59375 62.3125
Q 48.875 64.0625 45.09375 64.984375
Q 41.3125 65.921875 37.59375 65.921875
Q 27.828125 65.921875 22.671875 59.328125
Q 17.53125 52.734375 16.796875 39.40625
Q 19.671875 43.65625 24.015625 45.921875
Q 28.375 48.1875 33.59375 48.1875
Q 44.578125 48.1875 50.953125 41.515625
Q 57.328125 34.859375 57.328125 23.390625
Q 57.328125 12.15625 50.6875 5.359375
Q 44.046875 -1.421875 33.015625 -1.421875
Q 20.359375 -1.421875 13.671875 8.265625
Q 6.984375 17.96875 6.984375 36.375
Q 6.984375 53.65625 15.1875 63.9375
Q 23.390625 74.21875 37.203125 74.21875
Q 40.921875 74.21875 44.703125 73.484375
Q 48.484375 72.75 52.59375 71.296875
z
" id="DejaVuSans-54"/>
       </defs>
       <use xlink:href="#DejaVuSans-54"/>
       <use x="63.623047" xlink:href="#DejaVuSans-48"/>
       <use x="127.246094" xlink:href="#DejaVuSans-48"/>
       <use x="190.869141" xlink:href="#DejaVuSans-48"/>
      </g>
     </g>
    </g>
    <g id="ytick_5">
     <g id="line2d_5">
      <path clip-path="url(#p00557c768e)" d="M 53.328125 160.594092
L 992.998125 160.594092
" style="fill:none;stroke:#dedede;stroke-linecap:square;"/>
     </g>
     <g id="text_14">
      <!-- 8000 -->
      <g transform="translate(25.968125 163.633467)scale(0.08 -0.08)">
       <defs>
        <path d="M 31.78125 34.625
Q 24.75 34.625 20.71875 30.859375
Q 16.703125 27.09375 16.703125 20.515625
Q 16.703125 13.921875 20.71875 10.15625
Q 24.75 6.390625 31.78125 6.390625
Q 38.8125 6.390625 42.859375 10.171875
Q 46.921875 13.96875 46.921875 20.515625
Q 46.921875 27.09375 42.890625 30.859375
Q 38.875 34.625 31.78125 34.625
z
M 21.921875 38.8125
Q 15.578125 40.375 12.03125 44.71875
Q 8.5 49.078125 8.5 55.328125
Q 8.5 64.0625 14.71875 69.140625
Q 20.953125 74.21875 31.78125 74.21875
Q 42.671875 74.21875 48.875 69.140625
Q 55.078125 64.0625 55.078125 55.328125
Q 55.078125 49.078125 51.53125 44.71875
Q 48 40.375 41.703125 38.8125
Q 48.828125 37.15625 52.796875 32.3125
Q 56.78125 27.484375 56.78125 20.515625
Q 56.78125 9.90625 50.3125 4.234375
Q 43.84375 -1.421875 31.78125 -1.421875
Q 19.734375 -1.421875 13.25 4.234375
Q 6.78125 9.90625 6.78125 20.515625
Q 6.78125 27.484375 10.78125 32.3125
Q 14.796875 37.15625 21.921875 38.8125
z
M 18.3125 54.390625
Q 18.3125 48.734375 21.84375 45.5625
Q 25.390625 42.390625 31.78125 42.390625
Q 38.140625 42.390625 41.71875 45.5625
Q 45.3125 48.734375 45.3125 54.390625
Q 45.3125 60.0625 41.71875 63.234375
Q 38.140625 66.40625 31.78125 66.40625
Q 25.390625 66.40625 21.84375 63.234375
Q 18.3125 60.0625 18.3125 54.390625
z
" id="DejaVuSans-56"/>
       </defs>
       <use xlink:href="#DejaVuSans-56"/>
       <use x="63.623047" xlink:href="#DejaVuSans-48"/>
       <use x="127.246094" xlink:href="#DejaVuSans-48"/>
       <use x="190.869141" xlink:href="#DejaVuSans-48"/>
      </g>
     </g>
    </g>
    <g id="ytick_6">
     <g id="line2d_6">
      <path clip-path="url(#p00557c768e)" d="M 53.328125 132.2451
L 992.998125 132.2451
" style="fill:none;stroke:#dedede;stroke-linecap:square;"/>
     </g>
     <g id="text_15">
      <!-- 10000 -->
      <g transform="translate(20.878125 135.284475)scale(0.08 -0.08)">
       <use xlink:href="#DejaVuSans-49"/>
       <use x="63.623047" xlink:href="#DejaVuSans-48"/>
       <use x="127.246094" xlink:href="#DejaVuSans-48"/>
       <use x="190.869141" xlink:href="#DejaVuSans-48"/>
       <use x="254.492188" xlink:href="#DejaVuSans-48"/>
      </g>
     </g>
    </g>
    <g id="ytick_7">
     <g id="line2d_7">
      <path clip-path="url(#p00557c768e)" d="M 53.328125 103.896108
L 992.998125 103.896108
" style="fill:none;stroke:#dedede;stroke-linecap:square;"/>
     </g>
     <g id="text_16">
      <!-- 12000 -->
      <g transform="translate(20.878125 106.935483)scale(0.08 -0.08)">
       <use xlink:href="#DejaVuSans-49"/>
       <use x="63.623047" xlink:href="#DejaVuSans-50"/>
       <use x="127.246094" xlink:href="#DejaVuSans-48"/>
       <use x="190.869141" xlink:href="#DejaVuSans-48"/>
       <use x="254.492188" xlink:href="#DejaVuSans-48"/>
      </g>
     </g>
    </g>
    <g id="ytick_8">
     <g id="line2d_8">
      <path clip-path="url(#p00557c768e)" d="M 53.328125 75.547116
L 992.998125 75.547116
" style="fill:none;stroke:#dedede;stroke-linecap:square;"/>
     </g>
     <g id="text_17">
      <!-- 14000 -->
      <g transform="translate(20.878125 78.586491)scale(0.08 -0.08)">
       <use xlink:href="#DejaVuSans-49"/>
       <use x="63.623047" xlink:href="#DejaVuSans-52"/>
       <use x="127.246094" xlink:href="#DejaVuSans-48"/>
       <use x="190.869141" xlink:href="#DejaVuSans-48"/>
       <use x="254.492188" xlink:href="#DejaVuSans-48"/>
      </g>
     </g>
    </g>
    <g id="ytick_9">
     <g id="line2d_9">
      <path clip-path="url(#p00557c768e)" d="M 53.328125 47.198124
L 992.998125 47.198124
" style="fill:none;stroke:#dedede;stroke-linecap:square;"/>
     </g>
     <g id="text_18">
      <!-- 16000 -->
      <g transform="translate(20.878125 50.237499)scale(0.08 -0.08)">
       <use xlink:href="#DejaVuSans-49"/>
       <use x="63.623047" xlink:href="#DejaVuSans-54"/>
       <use x="127.246094" xlink:href="#DejaVuSans-48"/>
       <use x="190.869141" xlink:href="#DejaVuSans-48"/>
       <use x="254.492188" xlink:href="#DejaVuSans-48"/>
      </g>
     </g>
    </g>
    <g id="text_19">
     <!-- Count -->
     <g transform="translate(14.798437 167.584897)rotate(-90)scale(0.1 -0.1)">
      <defs>
       <path d="M 64.40625 67.28125
L 64.40625 56.890625
Q 59.421875 61.53125 53.78125 63.8125
Q 48.140625 66.109375 41.796875 66.109375
Q 29.296875 66.109375 22.65625 58.46875
Q 16.015625 50.828125 16.015625 36.375
Q 16.015625 21.96875 22.65625 14.328125
Q 29.296875 6.6875 41.796875 6.6875
Q 48.140625 6.6875 53.78125 8.984375
Q 59.421875 11.28125 64.40625 15.921875
L 64.40625 5.609375
Q 59.234375 2.09375 53.4375 0.328125
Q 47.65625 -1.421875 41.21875 -1.421875
Q 24.65625 -1.421875 15.125 8.703125
Q 5.609375 18.84375 5.609375 36.375
Q 5.609375 53.953125 15.125 64.078125
Q 24.65625 74.21875 41.21875 74.21875
Q 47.75 74.21875 53.53125 72.484375
Q 59.328125 70.75 64.40625 67.28125
z
" id="DejaVuSans-67"/>
       <path d="M 30.609375 48.390625
Q 23.390625 48.390625 19.1875 42.75
Q 14.984375 37.109375 14.984375 27.296875
Q 14.984375 17.484375 19.15625 11.84375
Q 23.34375 6.203125 30.609375 6.203125
Q 37.796875 6.203125 41.984375 11.859375
Q 46.1875 17.53125 46.1875 27.296875
Q 46.1875 37.015625 41.984375 42.703125
Q 37.796875 48.390625 30.609375 48.390625
z
M 30.609375 56
Q 42.328125 56 49.015625 48.375
Q 55.71875 40.765625 55.71875 27.296875
Q 55.71875 13.875 49.015625 6.21875
Q 42.328125 -1.421875 30.609375 -1.421875
Q 18.84375 -1.421875 12.171875 6.21875
Q 5.515625 13.875 5.515625 27.296875
Q 5.515625 40.765625 12.171875 48.375
Q 18.84375 56 30.609375 56
z
" id="DejaVuSans-111"/>
       <path d="M 8.5 21.578125
L 8.5 54.6875
L 17.484375 54.6875
L 17.484375 21.921875
Q 17.484375 14.15625 20.5 10.265625
Q 23.53125 6.390625 29.59375 6.390625
Q 36.859375 6.390625 41.078125 11.03125
Q 45.3125 15.671875 45.3125 23.6875
L 45.3125 54.6875
L 54.296875 54.6875
L 54.296875 0
L 45.3125 0
L 45.3125 8.40625
Q 42.046875 3.421875 37.71875 1
Q 33.40625 -1.421875 27.6875 -1.421875
Q 18.265625 -1.421875 13.375 4.4375
Q 8.5 10.296875 8.5 21.578125
z
M 31.109375 56
z
" id="DejaVuSans-117"/>
      </defs>
      <use xlink:href="#DejaVuSans-67"/>
      <use x="69.824219" xlink:href="#DejaVuSans-111"/>
      <use x="131.005859" xlink:href="#DejaVuSans-117"/>
      <use x="194.384766" xlink:href="#DejaVuSans-110"/>
      <use x="257.763672" xlink:href="#DejaVuSans-116"/>
     </g>
    </g>
   </g>
   <g id="line2d_10">
    <path clip-path="url(#p00557c768e)" d="M 96.040398 273.99006
L 267.90043 273.99006
L 272.955137 270.035376
L 278.009844 268.462007
L 283.06455 267.895027
L 288.119257 266.590973
L 293.173964 267.328047
L 298.228671 266.39253
L 303.283378 266.420879
L 308.338085 267.044557
L 313.392791 266.208262
L 323.502205 264.181309
L 328.556912 264.578195
L 333.611619 264.252181
L 338.666326 265.428664
L 343.721032 264.067913
L 348.775739 265.301094
L 353.830446 264.84751
L 358.885153 264.804987
L 363.93986 264.43645
L 368.994567 264.365577
L 374.049273 264.067913
L 379.10398 264.195483
L 384.158687 263.86947
L 389.213394 263.727725
L 394.268101 263.387537
L 399.322808 263.727725
L 404.377514 264.28053
L 409.432221 264.606544
L 414.486928 263.784423
L 419.541635 264.209658
L 424.596342 263.812772
L 429.651049 262.636289
L 434.705755 263.415886
L 439.760462 262.905604
L 444.815169 261.743295
L 449.869876 262.310275
L 459.97929 262.692987
L 465.033996 263.770248
L 470.088703 262.990651
L 475.14341 263.118222
L 480.198117 262.60794
L 485.252824 262.409497
L 490.307531 262.338624
L 495.362237 261.204665
L 505.471651 261.913389
L 510.526358 261.360584
L 515.581065 261.629899
L 520.635772 262.707161
L 525.690478 261.615725
L 530.745185 261.955913
L 535.799892 261.686597
L 540.854599 261.020396
L 545.909306 260.467591
L 550.964013 260.878651
L 556.018719 261.530678
L 561.073426 260.425067
L 571.18284 261.388933
L 576.237547 260.821953
L 581.292254 261.941738
L 586.34696 261.799993
L 591.401667 260.084879
L 596.456374 259.886436
L 601.511081 259.957309
L 606.565788 259.659645
L 611.620495 259.602947
L 616.675201 259.319457
L 621.729908 259.461202
L 626.784615 259.744692
L 631.839322 260.297497
L 636.894029 261.105443
L 641.948736 260.184101
L 647.003442 259.432853
L 652.058149 259.106839
L 657.112856 258.298893
L 662.167563 258.837524
L 667.22227 258.908396
L 672.276977 258.412289
L 677.331683 259.07849
L 682.38639 258.979269
L 687.441097 258.171322
L 692.495804 258.965094
L 697.550511 258.355591
L 702.605218 258.22802
L 707.659924 257.335027
L 712.714631 257.746088
L 717.769338 257.051537
L 722.824045 257.802786
L 727.878752 258.043752
L 732.933459 258.468987
L 737.988165 257.675215
L 743.042872 258.256369
L 748.097579 257.349202
L 753.152286 257.377551
L 758.206993 256.626302
L 763.2617 257.335027
L 768.316406 255.435645
L 773.371113 256.229416
L 778.42582 256.697175
L 783.480527 257.306678
L 788.535234 257.646866
L 793.58994 256.215242
L 798.644647 256.853094
L 803.699354 257.24998
L 808.754061 255.180504
L 813.808768 255.733309
L 818.863475 255.2939
L 823.918181 255.648262
L 828.972888 254.897014
L 834.027595 255.70496
L 839.082302 254.755269
L 844.137009 254.599349
L 849.191716 255.520692
L 854.246422 254.471779
L 859.301129 254.471779
L 864.355836 254.060719
L 869.410543 253.252772
L 874.46525 253.862276
L 879.519957 253.961497
L 884.574663 251.239994
L 889.62937 253.564611
L 894.684077 251.169121
L 899.738784 248.9579
L 904.793491 251.466786
L 909.848198 246.987645
L 914.902904 239.446813
L 919.957611 246.56241
L 925.012318 237.122196
L 930.067025 209.595325
L 935.121732 232.203646
L 940.176439 198.709312
L 945.231145 117.999731
L 950.285852 191.877205
L 950.285852 191.877205
" style="fill:none;stroke:#7cb5ec;stroke-linecap:square;"/>
   </g>
   <g id="line2d_11">
    <path clip-path="url(#p00557c768e)" d="M 96.040398 273.99006
L 267.90043 273.99006
L 272.955137 266.789416
L 278.009844 264.011215
L 283.06455 261.88504
L 288.119257 261.247188
L 293.173964 259.659645
L 298.228671 260.836128
L 308.338085 259.815564
L 313.392791 258.922571
L 318.447498 257.349202
L 323.502205 255.945927
L 328.556912 255.761658
L 333.611619 256.867269
L 343.721032 256.385336
L 348.775739 255.818356
L 353.830446 257.079886
L 358.885153 257.448423
L 363.93986 255.166329
L 368.994567 255.265551
L 374.049273 255.223027
L 379.10398 253.068504
L 384.158687 254.131591
L 389.213394 253.663833
L 394.268101 254.174115
L 399.322808 253.805578
L 404.377514 253.833927
L 409.432221 254.004021
L 414.486928 254.03237
L 419.541635 253.082678
L 424.596342 253.337819
L 429.651049 252.132987
L 434.705755 251.551833
L 439.760462 251.566007
L 444.815169 250.758061
L 449.869876 251.225819
L 454.924583 250.602142
L 459.97929 251.962893
L 465.033996 251.551833
L 470.088703 252.416477
L 475.14341 251.622705
L 480.198117 250.134383
L 485.252824 250.318652
L 490.307531 249.198866
L 495.362237 249.000424
L 500.416944 247.894813
L 505.471651 250.148558
L 510.526358 248.986249
L 515.581065 249.80837
L 520.635772 249.156343
L 525.690478 248.631887
L 535.799892 248.249175
L 540.854599 246.945122
L 545.909306 246.548236
L 550.964013 245.286706
L 556.018719 245.839511
L 561.073426 247.030169
L 566.128133 247.852289
L 571.18284 246.817551
L 576.237547 247.724719
L 581.292254 246.604934
L 586.34696 245.86786
L 591.401667 244.663028
L 596.456374 246.123001
L 601.511081 245.541846
L 606.565788 243.840907
L 611.620495 243.18888
L 616.675201 243.925954
L 621.729908 243.855081
L 626.784615 245.088263
L 631.839322 245.499323
L 636.894029 245.485149
L 641.948736 243.146357
L 647.003442 242.579377
L 652.058149 241.459592
L 657.112856 243.302276
L 662.167563 242.267538
L 667.22227 241.658035
L 672.276977 243.018786
L 677.331683 242.168316
L 682.38639 242.678598
L 687.441097 243.585766
L 692.495804 242.097444
L 697.550511 241.870652
L 702.605218 238.83731
L 707.659924 241.445417
L 712.714631 239.262545
L 717.769338 239.375941
L 722.824045 238.922357
L 727.878752 239.985444
L 737.988165 240.396504
L 743.042872 241.204451
L 748.097579 238.440424
L 753.152286 241.091055
L 758.206993 238.908182
L 763.2617 239.319243
L 768.316406 239.220021
L 773.371113 236.427646
L 778.42582 236.087458
L 783.480527 238.610518
L 788.535234 238.567994
L 793.58994 239.347592
L 798.644647 238.383726
L 803.699354 238.14276
L 808.754061 236.427646
L 813.808768 236.909578
L 823.918181 234.499914
L 828.972888 234.074679
L 834.027595 235.350384
L 839.082302 237.632478
L 844.137009 238.327028
L 849.191716 235.534652
L 854.246422 235.563001
L 859.301129 234.04633
L 864.355836 235.052719
L 869.410543 233.19586
L 874.46525 233.153337
L 879.519957 233.47935
L 884.574663 232.487136
L 889.62937 232.047726
L 894.684077 232.146948
L 899.738784 227.738679
L 904.793491 232.728102
L 909.848198 226.746465
L 914.902904 216.48413
L 919.957611 224.095834
L 925.012318 209.99221
L 930.067025 178.709098
L 935.121732 209.439405
L 940.176439 168.432588
L 945.231145 69.055197
L 950.285852 157.929287
L 950.285852 157.929287
" style="fill:none;stroke:#434348;stroke-linecap:square;"/>
   </g>
   <g id="line2d_12">
    <path clip-path="url(#p00557c768e)" d="M 96.040398 273.99006
L 267.90043 273.99006
L 272.955137 271.197684
L 278.009844 270.559832
L 283.06455 269.241604
L 288.119257 268.660449
L 293.173964 268.887241
L 298.228671 268.986463
L 303.283378 268.37696
L 308.338085 268.405309
L 313.392791 268.150168
L 318.447498 267.115429
L 323.502205 266.916986
L 328.556912 266.874463
L 333.611619 266.463403
L 338.666326 266.647671
L 343.721032 266.335832
L 348.775739 266.817765
L 353.830446 267.597362
L 358.885153 267.044557
L 363.93986 266.761067
L 368.994567 265.853899
L 374.049273 265.216047
L 379.10398 265.244396
L 384.158687 265.641282
L 389.213394 266.222436
L 394.268101 266.052342
L 399.322808 265.286919
L 404.377514 265.797201
L 409.432221 265.442839
L 414.486928 265.272745
L 419.541635 265.726329
L 424.596342 264.28053
L 429.651049 263.699376
L 434.705755 263.841121
L 439.760462 263.699376
L 444.815169 264.493148
L 449.869876 264.351403
L 454.924583 263.231618
L 459.97929 263.982866
L 465.033996 264.266356
L 470.088703 264.209658
L 475.14341 262.89143
L 480.198117 263.274141
L 485.252824 262.806383
L 490.307531 262.466195
L 500.416944 261.502329
L 505.471651 262.055134
L 510.526358 261.488155
L 515.581065 261.289712
L 520.635772 262.026785
L 525.690478 261.743295
L 530.745185 260.821953
L 535.799892 261.303886
L 540.854599 260.538463
L 545.909306 260.921175
L 550.964013 259.815564
L 556.018719 260.680208
L 561.073426 259.602947
L 566.128133 259.77304
L 571.18284 259.730517
L 576.237547 259.347806
L 581.292254 260.694383
L 586.34696 259.475376
L 591.401667 259.5179
L 596.456374 257.505121
L 601.511081 258.369765
L 606.565788 258.029577
L 616.675201 257.703564
L 621.729908 257.108235
L 626.784615 257.335027
L 631.839322 258.313067
L 636.894029 257.916182
L 641.948736 256.980665
L 647.003442 256.867269
L 652.058149 256.27194
L 657.112856 256.229416
L 662.167563 255.945927
L 667.22227 256.186893
L 672.276977 255.761658
L 677.331683 256.498732
L 682.38639 257.590168
L 687.441097 255.506517
L 692.495804 256.002625
L 697.550511 255.690786
L 702.605218 254.556826
L 707.659924 253.989846
L 712.714631 254.074893
L 717.769338 253.678007
L 722.824045 253.507913
L 727.878752 254.145766
L 732.933459 253.380343
L 737.988165 252.955108
L 743.042872 254.174115
L 748.097579 253.833927
L 753.152286 252.373954
L 758.206993 252.033766
L 763.2617 251.027376
L 768.316406 251.466786
L 773.371113 250.942329
L 778.42582 251.424262
L 783.480527 251.537658
L 788.535234 251.92037
L 793.58994 250.644665
L 798.644647 250.871457
L 808.754061 250.687189
L 813.808768 249.439833
L 818.863475 249.950115
L 823.918181 249.780021
L 828.972888 251.381739
L 834.027595 249.510705
L 839.082302 249.042947
L 844.137009 250.857283
L 849.191716 248.915377
L 854.246422 248.10743
L 859.301129 248.277524
L 864.355836 247.327833
L 869.410543 245.655242
L 874.46525 246.959296
L 879.519957 246.137175
L 884.574663 244.620504
L 889.62937 246.633283
L 894.684077 244.918169
L 899.738784 242.069095
L 904.793491 244.762249
L 909.848198 240.892612
L 914.902904 233.876236
L 919.957611 239.333417
L 925.012318 229.553015
L 930.067025 205.527244
L 935.121732 226.959082
L 940.176439 198.156506
L 945.231145 123.584483
L 950.285852 190.020346
L 950.285852 190.020346
" style="fill:none;stroke:#90ed7d;stroke-linecap:square;"/>
   </g>
   <g id="line2d_13">
    <path clip-path="url(#p00557c768e)" d="M 96.040398 273.99006
L 267.90043 273.99006
L 272.955137 271.778839
L 278.009844 270.758275
L 283.06455 269.964503
L 288.119257 269.76606
L 293.173964 269.298302
L 298.228671 269.581792
L 303.283378 269.227429
L 308.338085 269.425872
L 313.392791 268.334436
L 318.447498 268.306087
L 323.502205 268.518705
L 328.556912 267.65406
L 333.611619 268.022597
L 338.666326 267.696584
L 343.721032 268.065121
L 348.775739 267.469792
L 353.830446 268.235215
L 358.885153 267.639886
L 363.93986 267.852503
L 368.994567 267.143778
L 374.049273 267.597362
L 379.10398 267.143778
L 384.158687 266.435054
L 389.213394 266.491752
L 394.268101 267.313872
L 399.322808 266.505926
L 409.432221 266.619322
L 414.486928 267.328047
L 419.541635 266.378356
L 424.596342 266.491752
L 434.705755 264.861685
L 439.760462 265.768852
L 444.815169 265.768852
L 449.869876 265.230221
L 459.97929 264.776638
L 465.033996 265.329443
L 470.088703 264.507322
L 480.198117 263.99704
L 485.252824 262.905604
L 490.307531 263.486758
L 495.362237 263.826946
L 500.416944 262.664638
L 505.471651 263.373362
L 510.526358 263.500933
L 515.581065 263.231618
L 520.635772 263.401711
L 525.690478 262.905604
L 530.745185 262.749685
L 535.799892 262.466195
L 540.854599 262.622114
L 550.964013 260.892826
L 556.018719 261.247188
L 561.073426 259.886436
L 566.128133 261.559027
L 571.18284 261.672423
L 576.237547 261.034571
L 581.292254 261.672423
L 591.401667 259.843913
L 596.456374 260.113228
L 601.511081 259.687994
L 606.565788 258.596557
L 611.620495 258.653255
L 616.675201 260.141577
L 626.784615 259.503725
L 631.839322 259.687994
L 636.894029 259.206061
L 641.948736 257.902007
L 647.003442 257.632692
L 652.058149 257.859484
L 657.112856 257.150759
L 662.167563 257.24998
L 667.22227 257.717739
L 672.276977 256.994839
L 677.331683 256.626302
L 682.38639 256.895618
L 687.441097 256.130195
L 692.495804 256.186893
L 697.550511 257.023188
L 702.605218 255.931752
L 707.659924 254.485953
L 712.714631 255.251376
L 717.769338 255.081282
L 722.824045 255.152155
L 727.878752 255.038759
L 737.988165 255.520692
L 743.042872 253.635484
L 748.097579 252.728316
L 753.152286 253.30947
L 763.2617 253.068504
L 768.316406 253.153551
L 778.42582 251.849497
L 783.480527 252.74249
L 788.535234 251.608531
L 798.644647 252.345605
L 803.699354 251.055725
L 808.754061 251.027376
L 813.808768 250.332826
L 818.863475 250.715538
L 823.918181 250.077685
L 828.972888 250.474571
L 834.027595 249.298088
L 839.082302 249.80837
L 844.137009 249.921766
L 849.191716 249.298088
L 854.246422 248.9579
L 859.301129 247.894813
L 864.355836 247.951511
L 869.410543 247.12939
L 874.46525 247.767242
L 879.519957 247.086867
L 884.574663 244.691377
L 889.62937 246.477363
L 894.684077 245.272531
L 899.738784 242.877041
L 904.793491 245.258357
L 909.848198 240.183887
L 914.902904 234.131377
L 919.957611 240.538249
L 925.012318 230.431834
L 930.067025 206.519459
L 935.121732 226.335404
L 940.176439 195.860238
L 945.231145 122.025288
L 950.285852 189.028131
L 950.285852 189.028131
" style="fill:none;stroke:#f7a35c;stroke-linecap:square;"/>
   </g>
   <g id="line2d_14">
    <path clip-path="url(#p00557c768e)" d="M 96.040398 273.99006
L 267.90043 273.99006
L 272.955137 269.681013
L 278.009844 268.50453
L 283.06455 267.016208
L 288.119257 266.208262
L 298.228671 266.95951
L 303.283378 266.435054
L 308.338085 266.293309
L 313.392791 265.301094
L 318.447498 264.663242
L 323.502205 263.855295
L 328.556912 263.500933
L 333.611619 264.223832
L 338.666326 264.43645
L 343.721032 264.266356
L 348.775739 264.223832
L 353.830446 264.450624
L 358.885153 264.195483
L 363.93986 264.408101
L 368.994567 263.061524
L 374.049273 263.089873
L 384.158687 261.700772
L 394.268101 262.565416
L 399.322808 262.73551
L 404.377514 262.622114
L 409.432221 262.32445
L 414.486928 262.494544
L 419.541635 261.714946
L 429.651049 260.609336
L 434.705755 260.992047
L 439.760462 260.396718
L 444.815169 259.673819
L 449.869876 261.006222
L 454.924583 259.744692
L 459.97929 260.396718
L 470.088703 260.510114
L 475.14341 259.418678
L 480.198117 258.709953
L 485.252824 259.447027
L 490.307531 258.795
L 495.362237 258.582383
L 500.416944 258.709953
L 505.471651 257.760262
L 510.526358 257.646866
L 515.581065 258.086275
L 520.635772 258.157148
L 525.690478 257.675215
L 530.745185 257.902007
L 535.799892 257.987054
L 540.854599 256.768047
L 545.909306 256.597953
L 550.964013 255.648262
L 556.018719 255.818356
L 561.073426 255.818356
L 571.18284 256.498732
L 576.237547 256.427859
L 581.292254 255.832531
L 586.34696 254.485953
L 591.401667 254.273336
L 596.456374 253.663833
L 601.511081 253.635484
L 606.565788 254.44343
L 611.620495 253.635484
L 616.675201 254.301685
L 621.729908 253.295296
L 626.784615 254.698571
L 636.894029 253.692182
L 641.948736 252.912584
L 647.003442 252.473175
L 652.058149 251.736101
L 657.112856 251.325041
L 662.167563 251.580182
L 667.22227 250.432048
L 672.276977 251.509309
L 677.331683 251.962893
L 682.38639 252.132987
L 687.441097 251.325041
L 692.495804 250.191081
L 697.550511 250.432048
L 702.605218 250.304477
L 707.659924 248.716934
L 712.714631 248.164128
L 717.769338 249.553229
L 722.824045 248.008209
L 727.878752 247.781417
L 732.933459 248.986249
L 737.988165 248.646061
L 743.042872 248.9579
L 763.2617 247.00182
L 768.316406 245.570195
L 773.371113 246.789202
L 783.480527 247.228612
L 788.535234 246.987645
L 793.58994 246.916773
L 798.644647 246.307269
L 803.699354 246.27892
L 808.754061 246.009605
L 813.808768 244.478759
L 818.863475 244.847296
L 823.918181 245.598544
L 828.972888 244.677202
L 834.027595 244.974867
L 839.082302 244.464585
L 844.137009 244.266142
L 849.191716 243.699162
L 854.246422 243.316451
L 859.301129 243.684988
L 864.355836 243.62829
L 869.410543 243.032961
L 874.46525 242.834518
L 879.519957 240.623296
L 884.574663 240.297283
L 889.62937 241.161927
L 894.684077 239.985444
L 899.738784 238.100236
L 904.793491 240.339806
L 909.848198 237.051323
L 914.902904 226.406277
L 919.957611 233.677793
L 925.012318 221.445203
L 930.067025 196.115379
L 935.121732 219.715915
L 940.176439 187.142923
L 945.231145 102.634578
L 950.285852 177.291648
L 950.285852 177.291648
" style="fill:none;stroke:#8085e9;stroke-linecap:square;"/>
   </g>
   <g id="line2d_15">
    <path clip-path="url(#p00557c768e)" d="M 96.040398 273.99006
L 267.90043 273.99006
L 272.955137 263.274141
L 278.009844 258.369765
L 283.06455 255.818356
L 288.119257 251.977068
L 293.173964 251.566007
L 298.228671 252.544048
L 303.283378 253.408692
L 308.338085 254.03237
L 313.392791 253.337819
L 318.447498 252.076289
L 323.502205 249.737497
L 328.556912 249.000424
L 333.611619 249.737497
L 338.666326 249.539054
L 343.721032 246.56241
L 348.775739 249.127994
L 353.830446 248.291699
L 358.885153 252.019591
L 363.93986 250.417873
L 368.994567 251.381739
L 374.049273 248.235001
L 379.10398 248.490142
L 384.158687 248.334222
L 389.213394 247.342007
L 394.268101 247.781417
L 399.322808 246.916773
L 404.377514 247.753068
L 409.432221 249.127994
L 414.486928 249.907591
L 419.541635 249.468182
L 424.596342 248.716934
L 429.651049 247.455403
L 439.760462 245.839511
L 444.815169 245.882034
L 449.869876 245.102437
L 454.924583 244.989041
L 459.97929 246.378142
L 465.033996 248.39092
L 470.088703 248.26335
L 475.14341 247.512101
L 485.252824 247.214437
L 490.307531 246.335618
L 495.362237 244.308665
L 500.416944 244.776424
L 505.471651 244.535457
L 510.526358 245.485149
L 515.581065 247.171914
L 520.635772 245.527672
L 525.690478 246.916773
L 530.745185 247.28531
L 535.799892 246.363967
L 540.854599 244.407887
L 545.909306 243.415672
L 550.964013 243.429847
L 556.018719 243.18888
L 561.073426 243.741686
L 566.128133 244.138571
L 571.18284 245.272531
L 576.237547 244.776424
L 581.292254 245.527672
L 586.34696 244.237793
L 591.401667 243.826732
L 596.456374 242.877041
L 601.511081 243.103833
L 606.565788 242.919565
L 611.620495 241.374545
L 616.675201 241.459592
L 621.729908 244.351189
L 626.784615 243.727511
L 631.839322 244.592155
L 636.894029 243.160531
L 641.948736 242.791994
L 647.003442 241.161927
L 652.058149 240.679994
L 657.112856 241.743082
L 662.167563 240.935135
L 667.22227 240.538249
L 672.276977 240.609122
L 677.331683 242.593551
L 682.38639 243.316451
L 687.441097 242.324236
L 692.495804 243.3448
L 697.550511 241.388719
L 702.605218 240.5099
L 707.659924 240.5099
L 712.714631 238.865659
L 717.769338 237.901793
L 727.878752 239.673605
L 732.933459 241.332021
L 737.988165 239.985444
L 743.042872 241.317847
L 748.097579 239.673605
L 753.152286 240.09884
L 758.206993 238.497122
L 763.2617 237.391511
L 768.316406 237.363162
L 773.371113 238.780612
L 783.480527 237.802572
L 788.535234 240.424853
L 793.58994 239.007404
L 798.644647 238.667216
L 803.699354 237.561605
L 808.754061 236.31425
L 813.808768 239.177498
L 818.863475 236.087458
L 823.918181 234.840102
L 828.972888 235.846491
L 834.027595 234.457391
L 839.082302 236.427646
L 844.137009 236.129981
L 849.191716 236.696961
L 854.246422 235.59135
L 859.301129 235.166115
L 864.355836 238.043538
L 869.410543 232.203646
L 874.46525 233.295082
L 879.519957 232.671404
L 884.574663 230.743673
L 889.62937 231.36735
L 894.684077 229.581364
L 899.738784 225.75425
L 904.793491 230.871243
L 909.848198 225.924344
L 914.902904 210.84268
L 919.957611 220.693955
L 925.012318 207.242358
L 930.067025 167.624642
L 935.121732 202.224587
L 940.176439 157.192213
L 945.231145 43.030822
L 950.285852 144.151676
L 950.285852 144.151676
" style="fill:none;stroke:#f15c80;stroke-linecap:square;"/>
   </g>
   <g id="line2d_16">
    <path clip-path="url(#p00557c768e)" d="M 53.328125 273.99006
L 992.998125 273.99006
" style="fill:none;stroke:#dedede;stroke-linecap:square;stroke-width:2;"/>
   </g>
   <g id="text_20">
    <!-- Adapter Removal: Length Distribution -->
    <g transform="translate(372.166875 19.3575)scale(0.16 -0.16)">
     <defs>
      <path d="M 34.1875 63.1875
L 20.796875 26.90625
L 47.609375 26.90625
z
M 28.609375 72.90625
L 39.796875 72.90625
L 67.578125 0
L 57.328125 0
L 50.6875 18.703125
L 17.828125 18.703125
L 11.1875 0
L 0.78125 0
z
" id="DejaVuSans-65"/>
      <path d="M 18.109375 8.203125
L 18.109375 -20.796875
L 9.078125 -20.796875
L 9.078125 54.6875
L 18.109375 54.6875
L 18.109375 46.390625
Q 20.953125 51.265625 25.265625 53.625
Q 29.59375 56 35.59375 56
Q 45.5625 56 51.78125 48.09375
Q 58.015625 40.1875 58.015625 27.296875
Q 58.015625 14.40625 51.78125 6.484375
Q 45.5625 -1.421875 35.59375 -1.421875
Q 29.59375 -1.421875 25.265625 0.953125
Q 20.953125 3.328125 18.109375 8.203125
z
M 48.6875 27.296875
Q 48.6875 37.203125 44.609375 42.84375
Q 40.53125 48.484375 33.40625 48.484375
Q 26.265625 48.484375 22.1875 42.84375
Q 18.109375 37.203125 18.109375 27.296875
Q 18.109375 17.390625 22.1875 11.75
Q 26.265625 6.109375 33.40625 6.109375
Q 40.53125 6.109375 44.609375 11.75
Q 48.6875 17.390625 48.6875 27.296875
z
" id="DejaVuSans-112"/>
      <path d="M 44.390625 34.1875
Q 47.5625 33.109375 50.5625 29.59375
Q 53.5625 26.078125 56.59375 19.921875
L 66.609375 0
L 56 0
L 46.6875 18.703125
Q 43.0625 26.03125 39.671875 28.421875
Q 36.28125 30.8125 30.421875 30.8125
L 19.671875 30.8125
L 19.671875 0
L 9.8125 0
L 9.8125 72.90625
L 32.078125 72.90625
Q 44.578125 72.90625 50.734375 67.671875
Q 56.890625 62.453125 56.890625 51.90625
Q 56.890625 45.015625 53.6875 40.46875
Q 50.484375 35.9375 44.390625 34.1875
z
M 19.671875 64.796875
L 19.671875 38.921875
L 32.078125 38.921875
Q 39.203125 38.921875 42.84375 42.21875
Q 46.484375 45.515625 46.484375 51.90625
Q 46.484375 58.296875 42.84375 61.546875
Q 39.203125 64.796875 32.078125 64.796875
z
" id="DejaVuSans-82"/>
      <path d="M 52 44.1875
Q 55.375 50.25 60.0625 53.125
Q 64.75 56 71.09375 56
Q 79.640625 56 84.28125 50.015625
Q 88.921875 44.046875 88.921875 33.015625
L 88.921875 0
L 79.890625 0
L 79.890625 32.71875
Q 79.890625 40.578125 77.09375 44.375
Q 74.3125 48.1875 68.609375 48.1875
Q 61.625 48.1875 57.5625 43.546875
Q 53.515625 38.921875 53.515625 30.90625
L 53.515625 0
L 44.484375 0
L 44.484375 32.71875
Q 44.484375 40.625 41.703125 44.40625
Q 38.921875 48.1875 33.109375 48.1875
Q 26.21875 48.1875 22.15625 43.53125
Q 18.109375 38.875 18.109375 30.90625
L 18.109375 0
L 9.078125 0
L 9.078125 54.6875
L 18.109375 54.6875
L 18.109375 46.1875
Q 21.1875 51.21875 25.484375 53.609375
Q 29.78125 56 35.6875 56
Q 41.65625 56 45.828125 52.96875
Q 50 49.953125 52 44.1875
z
" id="DejaVuSans-109"/>
      <path d="M 2.984375 54.6875
L 12.5 54.6875
L 29.59375 8.796875
L 46.6875 54.6875
L 56.203125 54.6875
L 35.6875 0
L 23.484375 0
z
" id="DejaVuSans-118"/>
      <path d="M 11.71875 12.40625
L 22.015625 12.40625
L 22.015625 0
L 11.71875 0
z
M 11.71875 51.703125
L 22.015625 51.703125
L 22.015625 39.3125
L 11.71875 39.3125
z
" id="DejaVuSans-58"/>
      <path d="M 9.8125 72.90625
L 19.671875 72.90625
L 19.671875 8.296875
L 55.171875 8.296875
L 55.171875 0
L 9.8125 0
z
" id="DejaVuSans-76"/>
      <path d="M 19.671875 64.796875
L 19.671875 8.109375
L 31.59375 8.109375
Q 46.6875 8.109375 53.6875 14.9375
Q 60.6875 21.78125 60.6875 36.53125
Q 60.6875 51.171875 53.6875 57.984375
Q 46.6875 64.796875 31.59375 64.796875
z
M 9.8125 72.90625
L 30.078125 72.90625
Q 51.265625 72.90625 61.171875 64.09375
Q 71.09375 55.28125 71.09375 36.53125
Q 71.09375 17.671875 61.125 8.828125
Q 51.171875 0 30.078125 0
L 9.8125 0
z
" id="DejaVuSans-68"/>
      <path d="M 9.421875 54.6875
L 18.40625 54.6875
L 18.40625 0
L 9.421875 0
z
M 9.421875 75.984375
L 18.40625 75.984375
L 18.40625 64.59375
L 9.421875 64.59375
z
" id="DejaVuSans-105"/>
      <path d="M 44.28125 53.078125
L 44.28125 44.578125
Q 40.484375 46.53125 36.375 47.5
Q 32.28125 48.484375 27.875 48.484375
Q 21.1875 48.484375 17.84375 46.4375
Q 14.5 44.390625 14.5 40.28125
Q 14.5 37.15625 16.890625 35.375
Q 19.28125 33.59375 26.515625 31.984375
L 29.59375 31.296875
Q 39.15625 29.25 43.1875 25.515625
Q 47.21875 21.78125 47.21875 15.09375
Q 47.21875 7.46875 41.1875 3.015625
Q 35.15625 -1.421875 24.609375 -1.421875
Q 20.21875 -1.421875 15.453125 -0.5625
Q 10.6875 0.296875 5.421875 2
L 5.421875 11.28125
Q 10.40625 8.6875 15.234375 7.390625
Q 20.0625 6.109375 24.8125 6.109375
Q 31.15625 6.109375 34.5625 8.28125
Q 37.984375 10.453125 37.984375 14.40625
Q 37.984375 18.0625 35.515625 20.015625
Q 33.0625 21.96875 24.703125 23.78125
L 21.578125 24.515625
Q 13.234375 26.265625 9.515625 29.90625
Q 5.8125 33.546875 5.8125 39.890625
Q 5.8125 47.609375 11.28125 51.796875
Q 16.75 56 26.8125 56
Q 31.78125 56 36.171875 55.265625
Q 40.578125 54.546875 44.28125 53.078125
z
" id="DejaVuSans-115"/>
      <path d="M 48.6875 27.296875
Q 48.6875 37.203125 44.609375 42.84375
Q 40.53125 48.484375 33.40625 48.484375
Q 26.265625 48.484375 22.1875 42.84375
Q 18.109375 37.203125 18.109375 27.296875
Q 18.109375 17.390625 22.1875 11.75
Q 26.265625 6.109375 33.40625 6.109375
Q 40.53125 6.109375 44.609375 11.75
Q 48.6875 17.390625 48.6875 27.296875
z
M 18.109375 46.390625
Q 20.953125 51.265625 25.265625 53.625
Q 29.59375 56 35.59375 56
Q 45.5625 56 51.78125 48.09375
Q 58.015625 40.1875 58.015625 27.296875
Q 58.015625 14.40625 51.78125 6.484375
Q 45.5625 -1.421875 35.59375 -1.421875
Q 29.59375 -1.421875 25.265625 0.953125
Q 20.953125 3.328125 18.109375 8.203125
L 18.109375 0
L 9.078125 0
L 9.078125 75.984375
L 18.109375 75.984375
z
" id="DejaVuSans-98"/>
     </defs>
     <use xlink:href="#DejaVuSans-65"/>
     <use x="66.658203" xlink:href="#DejaVuSans-100"/>
     <use x="130.134766" xlink:href="#DejaVuSans-97"/>
     <use x="191.414062" xlink:href="#DejaVuSans-112"/>
     <use x="254.890625" xlink:href="#DejaVuSans-116"/>
     <use x="294.099609" xlink:href="#DejaVuSans-101"/>
     <use x="355.623047" xlink:href="#DejaVuSans-114"/>
     <use x="396.736328" xlink:href="#DejaVuSans-32"/>
     <use x="428.523438" xlink:href="#DejaVuSans-82"/>
     <use x="493.505859" xlink:href="#DejaVuSans-101"/>
     <use x="555.029297" xlink:href="#DejaVuSans-109"/>
     <use x="652.441406" xlink:href="#DejaVuSans-111"/>
     <use x="713.623047" xlink:href="#DejaVuSans-118"/>
     <use x="772.802734" xlink:href="#DejaVuSans-97"/>
     <use x="834.082031" xlink:href="#DejaVuSans-108"/>
     <use x="861.865234" xlink:href="#DejaVuSans-58"/>
     <use x="895.556641" xlink:href="#DejaVuSans-32"/>
     <use x="927.34375" xlink:href="#DejaVuSans-76"/>
     <use x="981.306641" xlink:href="#DejaVuSans-101"/>
     <use x="1042.830078" xlink:href="#DejaVuSans-110"/>
     <use x="1106.208984" xlink:href="#DejaVuSans-103"/>
     <use x="1169.685547" xlink:href="#DejaVuSans-116"/>
     <use x="1208.894531" xlink:href="#DejaVuSans-104"/>
     <use x="1272.273438" xlink:href="#DejaVuSans-32"/>
     <use x="1304.060547" xlink:href="#DejaVuSans-68"/>
     <use x="1381.0625" xlink:href="#DejaVuSans-105"/>
     <use x="1408.845703" xlink:href="#DejaVuSans-115"/>
     <use x="1460.945312" xlink:href="#DejaVuSans-116"/>
     <use x="1500.154297" xlink:href="#DejaVuSans-114"/>
     <use x="1541.267578" xlink:href="#DejaVuSans-105"/>
     <use x="1569.050781" xlink:href="#DejaVuSans-98"/>
     <use x="1632.527344" xlink:href="#DejaVuSans-117"/>
     <use x="1695.90625" xlink:href="#DejaVuSans-116"/>
     <use x="1735.115234" xlink:href="#DejaVuSans-105"/>
     <use x="1762.898438" xlink:href="#DejaVuSans-111"/>
     <use x="1824.080078" xlink:href="#DejaVuSans-110"/>
    </g>
   </g>
   <g id="legend_1">
    <g id="line2d_17">
     <path d="M 60.528125 303.490394
L 76.528125 303.490394
" style="fill:none;stroke:#7cb5ec;stroke-linecap:square;"/>
    </g>
    <g id="line2d_18"/>
    <g id="text_21">
     <!-- IP283_1 -->
     <g transform="translate(82.928125 306.290394)scale(0.08 -0.08)">
      <defs>
       <path d="M 9.8125 72.90625
L 19.671875 72.90625
L 19.671875 0
L 9.8125 0
z
" id="DejaVuSans-73"/>
       <path d="M 19.671875 64.796875
L 19.671875 37.40625
L 32.078125 37.40625
Q 38.96875 37.40625 42.71875 40.96875
Q 46.484375 44.53125 46.484375 51.125
Q 46.484375 57.671875 42.71875 61.234375
Q 38.96875 64.796875 32.078125 64.796875
z
M 9.8125 72.90625
L 32.078125 72.90625
Q 44.34375 72.90625 50.609375 67.359375
Q 56.890625 61.8125 56.890625 51.125
Q 56.890625 40.328125 50.609375 34.8125
Q 44.34375 29.296875 32.078125 29.296875
L 19.671875 29.296875
L 19.671875 0
L 9.8125 0
z
" id="DejaVuSans-80"/>
       <path d="M 40.578125 39.3125
Q 47.65625 37.796875 51.625 33
Q 55.609375 28.21875 55.609375 21.1875
Q 55.609375 10.40625 48.1875 4.484375
Q 40.765625 -1.421875 27.09375 -1.421875
Q 22.515625 -1.421875 17.65625 -0.515625
Q 12.796875 0.390625 7.625 2.203125
L 7.625 11.71875
Q 11.71875 9.328125 16.59375 8.109375
Q 21.484375 6.890625 26.8125 6.890625
Q 36.078125 6.890625 40.9375 10.546875
Q 45.796875 14.203125 45.796875 21.1875
Q 45.796875 27.640625 41.28125 31.265625
Q 36.765625 34.90625 28.71875 34.90625
L 20.21875 34.90625
L 20.21875 43.015625
L 29.109375 43.015625
Q 36.375 43.015625 40.234375 45.921875
Q 44.09375 48.828125 44.09375 54.296875
Q 44.09375 59.90625 40.109375 62.90625
Q 36.140625 65.921875 28.71875 65.921875
Q 24.65625 65.921875 20.015625 65.03125
Q 15.375 64.15625 9.8125 62.3125
L 9.8125 71.09375
Q 15.4375 72.65625 20.34375 73.4375
Q 25.25 74.21875 29.59375 74.21875
Q 40.828125 74.21875 47.359375 69.109375
Q 53.90625 64.015625 53.90625 55.328125
Q 53.90625 49.265625 50.4375 45.09375
Q 46.96875 40.921875 40.578125 39.3125
z
" id="DejaVuSans-51"/>
       <path d="M 50.984375 -16.609375
L 50.984375 -23.578125
L -0.984375 -23.578125
L -0.984375 -16.609375
z
" id="DejaVuSans-95"/>
      </defs>
      <use xlink:href="#DejaVuSans-73"/>
      <use x="29.492188" xlink:href="#DejaVuSans-80"/>
      <use x="89.794922" xlink:href="#DejaVuSans-50"/>
      <use x="153.417969" xlink:href="#DejaVuSans-56"/>
      <use x="217.041016" xlink:href="#DejaVuSans-51"/>
      <use x="280.664062" xlink:href="#DejaVuSans-95"/>
      <use x="330.664062" xlink:href="#DejaVuSans-49"/>
     </g>
    </g>
    <g id="line2d_19">
     <path d="M 60.528125 315.455394
L 76.528125 315.455394
" style="fill:none;stroke:#434348;stroke-linecap:square;"/>
    </g>
    <g id="line2d_20"/>
    <g id="text_22">
     <!-- IP542_1 -->
     <g transform="translate(82.928125 318.255394)scale(0.08 -0.08)">
      <use xlink:href="#DejaVuSans-73"/>
      <use x="29.492188" xlink:href="#DejaVuSans-80"/>
      <use x="89.794922" xlink:href="#DejaVuSans-53"/>
      <use x="153.417969" xlink:href="#DejaVuSans-52"/>
      <use x="217.041016" xlink:href="#DejaVuSans-50"/>
      <use x="280.664062" xlink:href="#DejaVuSans-95"/>
      <use x="330.664062" xlink:href="#DejaVuSans-49"/>
     </g>
    </g>
    <g id="line2d_21">
     <path d="M 278.359688 303.490394
L 294.359688 303.490394
" style="fill:none;stroke:#90ed7d;stroke-linecap:square;"/>
    </g>
    <g id="line2d_22"/>
    <g id="text_23">
     <!-- IP543_1 -->
     <g transform="translate(300.759687 306.290394)scale(0.08 -0.08)">
      <use xlink:href="#DejaVuSans-73"/>
      <use x="29.492188" xlink:href="#DejaVuSans-80"/>
      <use x="89.794922" xlink:href="#DejaVuSans-53"/>
      <use x="153.417969" xlink:href="#DejaVuSans-52"/>
      <use x="217.041016" xlink:href="#DejaVuSans-51"/>
      <use x="280.664062" xlink:href="#DejaVuSans-95"/>
      <use x="330.664062" xlink:href="#DejaVuSans-49"/>
     </g>
    </g>
    <g id="line2d_23">
     <path d="M 496.19125 303.490394
L 512.19125 303.490394
" style="fill:none;stroke:#f7a35c;stroke-linecap:square;"/>
    </g>
    <g id="line2d_24"/>
    <g id="text_24">
     <!-- IP557_1 -->
     <g transform="translate(518.59125 306.290394)scale(0.08 -0.08)">
      <use xlink:href="#DejaVuSans-73"/>
      <use x="29.492188" xlink:href="#DejaVuSans-80"/>
      <use x="89.794922" xlink:href="#DejaVuSans-53"/>
      <use x="153.417969" xlink:href="#DejaVuSans-53"/>
      <use x="217.041016" xlink:href="#DejaVuSans-55"/>
      <use x="280.664062" xlink:href="#DejaVuSans-95"/>
      <use x="330.664062" xlink:href="#DejaVuSans-49"/>
     </g>
    </g>
    <g id="line2d_25">
     <path d="M 714.022813 303.490394
L 730.022813 303.490394
" style="fill:none;stroke:#8085e9;stroke-linecap:square;"/>
    </g>
    <g id="line2d_26"/>
    <g id="text_25">
     <!-- IP562_1 -->
     <g transform="translate(736.422813 306.290394)scale(0.08 -0.08)">
      <use xlink:href="#DejaVuSans-73"/>
      <use x="29.492188" xlink:href="#DejaVuSans-80"/>
      <use x="89.794922" xlink:href="#DejaVuSans-53"/>
      <use x="153.417969" xlink:href="#DejaVuSans-54"/>
      <use x="217.041016" xlink:href="#DejaVuSans-50"/>
      <use x="280.664062" xlink:href="#DejaVuSans-95"/>
      <use x="330.664062" xlink:href="#DejaVuSans-49"/>
     </g>
    </g>
    <g id="line2d_27">
     <path d="M 931.854375 303.490394
L 947.854375 303.490394
" style="fill:none;stroke:#f15c80;stroke-linecap:square;"/>
    </g>
    <g id="line2d_28"/>
    <g id="text_26">
     <!-- IP579_1 -->
     <g transform="translate(954.254375 306.290394)scale(0.08 -0.08)">
      <defs>
       <path d="M 10.984375 1.515625
L 10.984375 10.5
Q 14.703125 8.734375 18.5 7.8125
Q 22.3125 6.890625 25.984375 6.890625
Q 35.75 6.890625 40.890625 13.453125
Q 46.046875 20.015625 46.78125 33.40625
Q 43.953125 29.203125 39.59375 26.953125
Q 35.25 24.703125 29.984375 24.703125
Q 19.046875 24.703125 12.671875 31.3125
Q 6.296875 37.9375 6.296875 49.421875
Q 6.296875 60.640625 12.9375 67.421875
Q 19.578125 74.21875 30.609375 74.21875
Q 43.265625 74.21875 49.921875 64.515625
Q 56.59375 54.828125 56.59375 36.375
Q 56.59375 19.140625 48.40625 8.859375
Q 40.234375 -1.421875 26.421875 -1.421875
Q 22.703125 -1.421875 18.890625 -0.6875
Q 15.09375 0.046875 10.984375 1.515625
z
M 30.609375 32.421875
Q 37.25 32.421875 41.125 36.953125
Q 45.015625 41.5 45.015625 49.421875
Q 45.015625 57.28125 41.125 61.84375
Q 37.25 66.40625 30.609375 66.40625
Q 23.96875 66.40625 20.09375 61.84375
Q 16.21875 57.28125 16.21875 49.421875
Q 16.21875 41.5 20.09375 36.953125
Q 23.96875 32.421875 30.609375 32.421875
z
" id="DejaVuSans-57"/>
      </defs>
      <use xlink:href="#DejaVuSans-73"/>
      <use x="29.492188" xlink:href="#DejaVuSans-80"/>
      <use x="89.794922" xlink:href="#DejaVuSans-53"/>
      <use x="153.417969" xlink:href="#DejaVuSans-55"/>
      <use x="217.041016" xlink:href="#DejaVuSans-57"/>
      <use x="280.664062" xlink:href="#DejaVuSans-95"/>
      <use x="330.664062" xlink:href="#DejaVuSans-49"/>
     </g>
    </g>
   </g>
  </g>
 </g>
 <defs>
  <clipPath id="p00557c768e">
   <rect height="242.5072" width="939.67" x="53.328125" y="31.48286"/>
  </clipPath>
 </defs>
</svg>
