<?xml version="1.0" encoding="utf-8" standalone="no"?>
<!DOCTYPE svg PUBLIC "-//W3C//DTD SVG 1.1//EN"
  "http://www.w3.org/Graphics/SVG/1.1/DTD/svg11.dtd">
<!-- Created with matplotlib (https://matplotlib.org/) -->
<svg height="330.541644pt" version="1.1" viewBox="0 0 1000.358125 330.541644" width="1000.358125pt" xmlns="http://www.w3.org/2000/svg" xmlns:xlink="http://www.w3.org/1999/xlink">
 <metadata>
  <rdf:RDF xmlns:cc="http://creativecommons.org/ns#" xmlns:dc="http://purl.org/dc/elements/1.1/" xmlns:rdf="http://www.w3.org/1999/02/22-rdf-syntax-ns#">
   <cc:Work>
    <dc:type rdf:resource="http://purl.org/dc/dcmitype/StillImage"/>
    <dc:date>2021-02-12T15:21:13.167092</dc:date>
    <dc:format>image/svg+xml</dc:format>
    <dc:creator>
     <cc:Agent>
      <dc:title>Matplotlib v3.3.2, https://matplotlib.org/</dc:title>
     </cc:Agent>
    </dc:creator>
   </cc:Work>
  </rdf:RDF>
 </metadata>
 <defs>
  <style type="text/css">*{stroke-linecap:butt;stroke-linejoin:round;}</style>
 </defs>
 <g id="figure_1">
  <g id="axes_1">
   <g id="patch_1">
    <path d="M 32.968125 273.99006
L 993.158125 273.99006
L 993.158125 31.48286
L 32.968125 31.48286
z
" style="fill:#ffffff;"/>
   </g>
   <g id="patch_2">
    <path clip-path="url(#p77ce655637)" d="M 32.968125 -696.03874
L 993.158125 -696.03874
L 993.158125 -4576.15394
L 32.968125 -4576.15394
z
" style="fill:#e6c3c3;"/>
   </g>
   <g id="patch_3">
    <path clip-path="url(#p77ce655637)" d="M 32.968125 31.48286
L 993.158125 31.48286
L 993.158125 -696.03874
L 32.968125 -696.03874
z
" style="fill:#e6dcc3;"/>
   </g>
   <g id="patch_4">
    <path clip-path="url(#p77ce655637)" d="M 32.968125 273.99006
L 993.158125 273.99006
L 993.158125 31.48286
L 32.968125 31.48286
z
" style="fill:#c3e6c3;"/>
   </g>
   <g id="matplotlib.axis_1">
    <g id="xtick_1">
     <g id="text_1">
      <!-- 0 -->
      <g transform="translate(30.423125 287.06881)scale(0.08 -0.08)">
       <defs>
        <path d="M 31.78125 66.40625
Q 24.171875 66.40625 20.328125 58.90625
Q 16.5 51.421875 16.5 36.375
Q 16.5 21.390625 20.328125 13.890625
Q 24.171875 6.390625 31.78125 6.390625
Q 39.453125 6.390625 43.28125 13.890625
Q 47.125 21.390625 47.125 36.375
Q 47.125 51.421875 43.28125 58.90625
Q 39.453125 66.40625 31.78125 66.40625
z
M 31.78125 74.21875
Q 44.046875 74.21875 50.515625 64.515625
Q 56.984375 54.828125 56.984375 36.375
Q 56.984375 17.96875 50.515625 8.265625
Q 44.046875 -1.421875 31.78125 -1.421875
Q 19.53125 -1.421875 13.0625 8.265625
Q 6.59375 17.96875 6.59375 36.375
Q 6.59375 54.828125 13.0625 64.515625
Q 19.53125 74.21875 31.78125 74.21875
z
" id="DejaVuSans-48"/>
       </defs>
       <use xlink:href="#DejaVuSans-48"/>
      </g>
     </g>
    </g>
    <g id="xtick_2">
     <g id="text_2">
      <!-- 20 -->
      <g transform="translate(231.200518 287.06881)scale(0.08 -0.08)">
       <defs>
        <path d="M 19.1875 8.296875
L 53.609375 8.296875
L 53.609375 0
L 7.328125 0
L 7.328125 8.296875
Q 12.9375 14.109375 22.625 23.890625
Q 32.328125 33.6875 34.8125 36.53125
Q 39.546875 41.84375 41.421875 45.53125
Q 43.3125 49.21875 43.3125 52.78125
Q 43.3125 58.59375 39.234375 62.25
Q 35.15625 65.921875 28.609375 65.921875
Q 23.96875 65.921875 18.8125 64.3125
Q 13.671875 62.703125 7.8125 59.421875
L 7.8125 69.390625
Q 13.765625 71.78125 18.9375 73
Q 24.125 74.21875 28.421875 74.21875
Q 39.75 74.21875 46.484375 68.546875
Q 53.21875 62.890625 53.21875 53.421875
Q 53.21875 48.921875 51.53125 44.890625
Q 49.859375 40.875 45.40625 35.40625
Q 44.1875 33.984375 37.640625 27.21875
Q 31.109375 20.453125 19.1875 8.296875
z
" id="DejaVuSans-50"/>
       </defs>
       <use xlink:href="#DejaVuSans-50"/>
       <use x="63.623047" xlink:href="#DejaVuSans-48"/>
      </g>
     </g>
    </g>
    <g id="xtick_3">
     <g id="text_3">
      <!-- 40 -->
      <g transform="translate(434.522911 287.06881)scale(0.08 -0.08)">
       <defs>
        <path d="M 37.796875 64.3125
L 12.890625 25.390625
L 37.796875 25.390625
z
M 35.203125 72.90625
L 47.609375 72.90625
L 47.609375 25.390625
L 58.015625 25.390625
L 58.015625 17.1875
L 47.609375 17.1875
L 47.609375 0
L 37.796875 0
L 37.796875 17.1875
L 4.890625 17.1875
L 4.890625 26.703125
z
" id="DejaVuSans-52"/>
       </defs>
       <use xlink:href="#DejaVuSans-52"/>
       <use x="63.623047" xlink:href="#DejaVuSans-48"/>
      </g>
     </g>
    </g>
    <g id="xtick_4">
     <g id="text_4">
      <!-- 60 -->
      <g transform="translate(637.845303 287.06881)scale(0.08 -0.08)">
       <defs>
        <path d="M 33.015625 40.375
Q 26.375 40.375 22.484375 35.828125
Q 18.609375 31.296875 18.609375 23.390625
Q 18.609375 15.53125 22.484375 10.953125
Q 26.375 6.390625 33.015625 6.390625
Q 39.65625 6.390625 43.53125 10.953125
Q 47.40625 15.53125 47.40625 23.390625
Q 47.40625 31.296875 43.53125 35.828125
Q 39.65625 40.375 33.015625 40.375
z
M 52.59375 71.296875
L 52.59375 62.3125
Q 48.875 64.0625 45.09375 64.984375
Q 41.3125 65.921875 37.59375 65.921875
Q 27.828125 65.921875 22.671875 59.328125
Q 17.53125 52.734375 16.796875 39.40625
Q 19.671875 43.65625 24.015625 45.921875
Q 28.375 48.1875 33.59375 48.1875
Q 44.578125 48.1875 50.953125 41.515625
Q 57.328125 34.859375 57.328125 23.390625
Q 57.328125 12.15625 50.6875 5.359375
Q 44.046875 -1.421875 33.015625 -1.421875
Q 20.359375 -1.421875 13.671875 8.265625
Q 6.984375 17.96875 6.984375 36.375
Q 6.984375 53.65625 15.1875 63.9375
Q 23.390625 74.21875 37.203125 74.21875
Q 40.921875 74.21875 44.703125 73.484375
Q 48.484375 72.75 52.59375 71.296875
z
" id="DejaVuSans-54"/>
       </defs>
       <use xlink:href="#DejaVuSans-54"/>
       <use x="63.623047" xlink:href="#DejaVuSans-48"/>
      </g>
     </g>
    </g>
    <g id="xtick_5">
     <g id="text_5">
      <!-- 80 -->
      <g transform="translate(841.167696 287.06881)scale(0.08 -0.08)">
       <defs>
        <path d="M 31.78125 34.625
Q 24.75 34.625 20.71875 30.859375
Q 16.703125 27.09375 16.703125 20.515625
Q 16.703125 13.921875 20.71875 10.15625
Q 24.75 6.390625 31.78125 6.390625
Q 38.8125 6.390625 42.859375 10.171875
Q 46.921875 13.96875 46.921875 20.515625
Q 46.921875 27.09375 42.890625 30.859375
Q 38.875 34.625 31.78125 34.625
z
M 21.921875 38.8125
Q 15.578125 40.375 12.03125 44.71875
Q 8.5 49.078125 8.5 55.328125
Q 8.5 64.0625 14.71875 69.140625
Q 20.953125 74.21875 31.78125 74.21875
Q 42.671875 74.21875 48.875 69.140625
Q 55.078125 64.0625 55.078125 55.328125
Q 55.078125 49.078125 51.53125 44.71875
Q 48 40.375 41.703125 38.8125
Q 48.828125 37.15625 52.796875 32.3125
Q 56.78125 27.484375 56.78125 20.515625
Q 56.78125 9.90625 50.3125 4.234375
Q 43.84375 -1.421875 31.78125 -1.421875
Q 19.734375 -1.421875 13.25 4.234375
Q 6.78125 9.90625 6.78125 20.515625
Q 6.78125 27.484375 10.78125 32.3125
Q 14.796875 37.15625 21.921875 38.8125
z
M 18.3125 54.390625
Q 18.3125 48.734375 21.84375 45.5625
Q 25.390625 42.390625 31.78125 42.390625
Q 38.140625 42.390625 41.71875 45.5625
Q 45.3125 48.734375 45.3125 54.390625
Q 45.3125 60.0625 41.71875 63.234375
Q 38.140625 66.40625 31.78125 66.40625
Q 25.390625 66.40625 21.84375 63.234375
Q 18.3125 60.0625 18.3125 54.390625
z
" id="DejaVuSans-56"/>
       </defs>
       <use xlink:href="#DejaVuSans-56"/>
       <use x="63.623047" xlink:href="#DejaVuSans-48"/>
      </g>
     </g>
    </g>
    <g id="text_6">
     <!-- Position in Read (bp) -->
     <g transform="translate(461.46 300.330997)scale(0.1 -0.1)">
      <defs>
       <path d="M 19.671875 64.796875
L 19.671875 37.40625
L 32.078125 37.40625
Q 38.96875 37.40625 42.71875 40.96875
Q 46.484375 44.53125 46.484375 51.125
Q 46.484375 57.671875 42.71875 61.234375
Q 38.96875 64.796875 32.078125 64.796875
z
M 9.8125 72.90625
L 32.078125 72.90625
Q 44.34375 72.90625 50.609375 67.359375
Q 56.890625 61.8125 56.890625 51.125
Q 56.890625 40.328125 50.609375 34.8125
Q 44.34375 29.296875 32.078125 29.296875
L 19.671875 29.296875
L 19.671875 0
L 9.8125 0
z
" id="DejaVuSans-80"/>
       <path d="M 30.609375 48.390625
Q 23.390625 48.390625 19.1875 42.75
Q 14.984375 37.109375 14.984375 27.296875
Q 14.984375 17.484375 19.15625 11.84375
Q 23.34375 6.203125 30.609375 6.203125
Q 37.796875 6.203125 41.984375 11.859375
Q 46.1875 17.53125 46.1875 27.296875
Q 46.1875 37.015625 41.984375 42.703125
Q 37.796875 48.390625 30.609375 48.390625
z
M 30.609375 56
Q 42.328125 56 49.015625 48.375
Q 55.71875 40.765625 55.71875 27.296875
Q 55.71875 13.875 49.015625 6.21875
Q 42.328125 -1.421875 30.609375 -1.421875
Q 18.84375 -1.421875 12.171875 6.21875
Q 5.515625 13.875 5.515625 27.296875
Q 5.515625 40.765625 12.171875 48.375
Q 18.84375 56 30.609375 56
z
" id="DejaVuSans-111"/>
       <path d="M 44.28125 53.078125
L 44.28125 44.578125
Q 40.484375 46.53125 36.375 47.5
Q 32.28125 48.484375 27.875 48.484375
Q 21.1875 48.484375 17.84375 46.4375
Q 14.5 44.390625 14.5 40.28125
Q 14.5 37.15625 16.890625 35.375
Q 19.28125 33.59375 26.515625 31.984375
L 29.59375 31.296875
Q 39.15625 29.25 43.1875 25.515625
Q 47.21875 21.78125 47.21875 15.09375
Q 47.21875 7.46875 41.1875 3.015625
Q 35.15625 -1.421875 24.609375 -1.421875
Q 20.21875 -1.421875 15.453125 -0.5625
Q 10.6875 0.296875 5.421875 2
L 5.421875 11.28125
Q 10.40625 8.6875 15.234375 7.390625
Q 20.0625 6.109375 24.8125 6.109375
Q 31.15625 6.109375 34.5625 8.28125
Q 37.984375 10.453125 37.984375 14.40625
Q 37.984375 18.0625 35.515625 20.015625
Q 33.0625 21.96875 24.703125 23.78125
L 21.578125 24.515625
Q 13.234375 26.265625 9.515625 29.90625
Q 5.8125 33.546875 5.8125 39.890625
Q 5.8125 47.609375 11.28125 51.796875
Q 16.75 56 26.8125 56
Q 31.78125 56 36.171875 55.265625
Q 40.578125 54.546875 44.28125 53.078125
z
" id="DejaVuSans-115"/>
       <path d="M 9.421875 54.6875
L 18.40625 54.6875
L 18.40625 0
L 9.421875 0
z
M 9.421875 75.984375
L 18.40625 75.984375
L 18.40625 64.59375
L 9.421875 64.59375
z
" id="DejaVuSans-105"/>
       <path d="M 18.3125 70.21875
L 18.3125 54.6875
L 36.8125 54.6875
L 36.8125 47.703125
L 18.3125 47.703125
L 18.3125 18.015625
Q 18.3125 11.328125 20.140625 9.421875
Q 21.96875 7.515625 27.59375 7.515625
L 36.8125 7.515625
L 36.8125 0
L 27.59375 0
Q 17.1875 0 13.234375 3.875
Q 9.28125 7.765625 9.28125 18.015625
L 9.28125 47.703125
L 2.6875 47.703125
L 2.6875 54.6875
L 9.28125 54.6875
L 9.28125 70.21875
z
" id="DejaVuSans-116"/>
       <path d="M 54.890625 33.015625
L 54.890625 0
L 45.90625 0
L 45.90625 32.71875
Q 45.90625 40.484375 42.875 44.328125
Q 39.84375 48.1875 33.796875 48.1875
Q 26.515625 48.1875 22.3125 43.546875
Q 18.109375 38.921875 18.109375 30.90625
L 18.109375 0
L 9.078125 0
L 9.078125 54.6875
L 18.109375 54.6875
L 18.109375 46.1875
Q 21.34375 51.125 25.703125 53.5625
Q 30.078125 56 35.796875 56
Q 45.21875 56 50.046875 50.171875
Q 54.890625 44.34375 54.890625 33.015625
z
" id="DejaVuSans-110"/>
       <path id="DejaVuSans-32"/>
       <path d="M 44.390625 34.1875
Q 47.5625 33.109375 50.5625 29.59375
Q 53.5625 26.078125 56.59375 19.921875
L 66.609375 0
L 56 0
L 46.6875 18.703125
Q 43.0625 26.03125 39.671875 28.421875
Q 36.28125 30.8125 30.421875 30.8125
L 19.671875 30.8125
L 19.671875 0
L 9.8125 0
L 9.8125 72.90625
L 32.078125 72.90625
Q 44.578125 72.90625 50.734375 67.671875
Q 56.890625 62.453125 56.890625 51.90625
Q 56.890625 45.015625 53.6875 40.46875
Q 50.484375 35.9375 44.390625 34.1875
z
M 19.671875 64.796875
L 19.671875 38.921875
L 32.078125 38.921875
Q 39.203125 38.921875 42.84375 42.21875
Q 46.484375 45.515625 46.484375 51.90625
Q 46.484375 58.296875 42.84375 61.546875
Q 39.203125 64.796875 32.078125 64.796875
z
" id="DejaVuSans-82"/>
       <path d="M 56.203125 29.59375
L 56.203125 25.203125
L 14.890625 25.203125
Q 15.484375 15.921875 20.484375 11.0625
Q 25.484375 6.203125 34.421875 6.203125
Q 39.59375 6.203125 44.453125 7.46875
Q 49.3125 8.734375 54.109375 11.28125
L 54.109375 2.78125
Q 49.265625 0.734375 44.1875 -0.34375
Q 39.109375 -1.421875 33.890625 -1.421875
Q 20.796875 -1.421875 13.15625 6.1875
Q 5.515625 13.8125 5.515625 26.8125
Q 5.515625 40.234375 12.765625 48.109375
Q 20.015625 56 32.328125 56
Q 43.359375 56 49.78125 48.890625
Q 56.203125 41.796875 56.203125 29.59375
z
M 47.21875 32.234375
Q 47.125 39.59375 43.09375 43.984375
Q 39.0625 48.390625 32.421875 48.390625
Q 24.90625 48.390625 20.390625 44.140625
Q 15.875 39.890625 15.1875 32.171875
z
" id="DejaVuSans-101"/>
       <path d="M 34.28125 27.484375
Q 23.390625 27.484375 19.1875 25
Q 14.984375 22.515625 14.984375 16.5
Q 14.984375 11.71875 18.140625 8.90625
Q 21.296875 6.109375 26.703125 6.109375
Q 34.1875 6.109375 38.703125 11.40625
Q 43.21875 16.703125 43.21875 25.484375
L 43.21875 27.484375
z
M 52.203125 31.203125
L 52.203125 0
L 43.21875 0
L 43.21875 8.296875
Q 40.140625 3.328125 35.546875 0.953125
Q 30.953125 -1.421875 24.3125 -1.421875
Q 15.921875 -1.421875 10.953125 3.296875
Q 6 8.015625 6 15.921875
Q 6 25.140625 12.171875 29.828125
Q 18.359375 34.515625 30.609375 34.515625
L 43.21875 34.515625
L 43.21875 35.40625
Q 43.21875 41.609375 39.140625 45
Q 35.0625 48.390625 27.6875 48.390625
Q 23 48.390625 18.546875 47.265625
Q 14.109375 46.140625 10.015625 43.890625
L 10.015625 52.203125
Q 14.9375 54.109375 19.578125 55.046875
Q 24.21875 56 28.609375 56
Q 40.484375 56 46.34375 49.84375
Q 52.203125 43.703125 52.203125 31.203125
z
" id="DejaVuSans-97"/>
       <path d="M 45.40625 46.390625
L 45.40625 75.984375
L 54.390625 75.984375
L 54.390625 0
L 45.40625 0
L 45.40625 8.203125
Q 42.578125 3.328125 38.25 0.953125
Q 33.9375 -1.421875 27.875 -1.421875
Q 17.96875 -1.421875 11.734375 6.484375
Q 5.515625 14.40625 5.515625 27.296875
Q 5.515625 40.1875 11.734375 48.09375
Q 17.96875 56 27.875 56
Q 33.9375 56 38.25 53.625
Q 42.578125 51.265625 45.40625 46.390625
z
M 14.796875 27.296875
Q 14.796875 17.390625 18.875 11.75
Q 22.953125 6.109375 30.078125 6.109375
Q 37.203125 6.109375 41.296875 11.75
Q 45.40625 17.390625 45.40625 27.296875
Q 45.40625 37.203125 41.296875 42.84375
Q 37.203125 48.484375 30.078125 48.484375
Q 22.953125 48.484375 18.875 42.84375
Q 14.796875 37.203125 14.796875 27.296875
z
" id="DejaVuSans-100"/>
       <path d="M 31 75.875
Q 24.46875 64.65625 21.28125 53.65625
Q 18.109375 42.671875 18.109375 31.390625
Q 18.109375 20.125 21.3125 9.0625
Q 24.515625 -2 31 -13.1875
L 23.1875 -13.1875
Q 15.875 -1.703125 12.234375 9.375
Q 8.59375 20.453125 8.59375 31.390625
Q 8.59375 42.28125 12.203125 53.3125
Q 15.828125 64.359375 23.1875 75.875
z
" id="DejaVuSans-40"/>
       <path d="M 48.6875 27.296875
Q 48.6875 37.203125 44.609375 42.84375
Q 40.53125 48.484375 33.40625 48.484375
Q 26.265625 48.484375 22.1875 42.84375
Q 18.109375 37.203125 18.109375 27.296875
Q 18.109375 17.390625 22.1875 11.75
Q 26.265625 6.109375 33.40625 6.109375
Q 40.53125 6.109375 44.609375 11.75
Q 48.6875 17.390625 48.6875 27.296875
z
M 18.109375 46.390625
Q 20.953125 51.265625 25.265625 53.625
Q 29.59375 56 35.59375 56
Q 45.5625 56 51.78125 48.09375
Q 58.015625 40.1875 58.015625 27.296875
Q 58.015625 14.40625 51.78125 6.484375
Q 45.5625 -1.421875 35.59375 -1.421875
Q 29.59375 -1.421875 25.265625 0.953125
Q 20.953125 3.328125 18.109375 8.203125
L 18.109375 0
L 9.078125 0
L 9.078125 75.984375
L 18.109375 75.984375
z
" id="DejaVuSans-98"/>
       <path d="M 18.109375 8.203125
L 18.109375 -20.796875
L 9.078125 -20.796875
L 9.078125 54.6875
L 18.109375 54.6875
L 18.109375 46.390625
Q 20.953125 51.265625 25.265625 53.625
Q 29.59375 56 35.59375 56
Q 45.5625 56 51.78125 48.09375
Q 58.015625 40.1875 58.015625 27.296875
Q 58.015625 14.40625 51.78125 6.484375
Q 45.5625 -1.421875 35.59375 -1.421875
Q 29.59375 -1.421875 25.265625 0.953125
Q 20.953125 3.328125 18.109375 8.203125
z
M 48.6875 27.296875
Q 48.6875 37.203125 44.609375 42.84375
Q 40.53125 48.484375 33.40625 48.484375
Q 26.265625 48.484375 22.1875 42.84375
Q 18.109375 37.203125 18.109375 27.296875
Q 18.109375 17.390625 22.1875 11.75
Q 26.265625 6.109375 33.40625 6.109375
Q 40.53125 6.109375 44.609375 11.75
Q 48.6875 17.390625 48.6875 27.296875
z
" id="DejaVuSans-112"/>
       <path d="M 8.015625 75.875
L 15.828125 75.875
Q 23.140625 64.359375 26.78125 53.3125
Q 30.421875 42.28125 30.421875 31.390625
Q 30.421875 20.453125 26.78125 9.375
Q 23.140625 -1.703125 15.828125 -13.1875
L 8.015625 -13.1875
Q 14.5 -2 17.703125 9.0625
Q 20.90625 20.125 20.90625 31.390625
Q 20.90625 42.671875 17.703125 53.65625
Q 14.5 64.65625 8.015625 75.875
z
" id="DejaVuSans-41"/>
      </defs>
      <use xlink:href="#DejaVuSans-80"/>
      <use x="56.677734" xlink:href="#DejaVuSans-111"/>
      <use x="117.859375" xlink:href="#DejaVuSans-115"/>
      <use x="169.958984" xlink:href="#DejaVuSans-105"/>
      <use x="197.742188" xlink:href="#DejaVuSans-116"/>
      <use x="236.951172" xlink:href="#DejaVuSans-105"/>
      <use x="264.734375" xlink:href="#DejaVuSans-111"/>
      <use x="325.916016" xlink:href="#DejaVuSans-110"/>
      <use x="389.294922" xlink:href="#DejaVuSans-32"/>
      <use x="421.082031" xlink:href="#DejaVuSans-105"/>
      <use x="448.865234" xlink:href="#DejaVuSans-110"/>
      <use x="512.244141" xlink:href="#DejaVuSans-32"/>
      <use x="544.03125" xlink:href="#DejaVuSans-82"/>
      <use x="609.013672" xlink:href="#DejaVuSans-101"/>
      <use x="670.537109" xlink:href="#DejaVuSans-97"/>
      <use x="731.816406" xlink:href="#DejaVuSans-100"/>
      <use x="795.292969" xlink:href="#DejaVuSans-32"/>
      <use x="827.080078" xlink:href="#DejaVuSans-40"/>
      <use x="866.09375" xlink:href="#DejaVuSans-98"/>
      <use x="929.570312" xlink:href="#DejaVuSans-112"/>
      <use x="993.046875" xlink:href="#DejaVuSans-41"/>
     </g>
    </g>
   </g>
   <g id="matplotlib.axis_2">
    <g id="ytick_1">
     <g id="line2d_1">
      <path clip-path="url(#p77ce655637)" d="M 32.968125 273.99006
L 993.158125 273.99006
" style="fill:none;stroke:#dedede;stroke-linecap:square;"/>
     </g>
     <g id="text_7">
      <!-- 0 -->
      <g transform="translate(20.878125 277.029435)scale(0.08 -0.08)">
       <use xlink:href="#DejaVuSans-48"/>
      </g>
     </g>
    </g>
    <g id="ytick_2">
     <g id="line2d_2">
      <path clip-path="url(#p77ce655637)" d="M 32.968125 225.48862
L 993.158125 225.48862
" style="fill:none;stroke:#dedede;stroke-linecap:square;"/>
     </g>
     <g id="text_8">
      <!-- 1 -->
      <g transform="translate(20.878125 228.527995)scale(0.08 -0.08)">
       <defs>
        <path d="M 12.40625 8.296875
L 28.515625 8.296875
L 28.515625 63.921875
L 10.984375 60.40625
L 10.984375 69.390625
L 28.421875 72.90625
L 38.28125 72.90625
L 38.28125 8.296875
L 54.390625 8.296875
L 54.390625 0
L 12.40625 0
z
" id="DejaVuSans-49"/>
       </defs>
       <use xlink:href="#DejaVuSans-49"/>
      </g>
     </g>
    </g>
    <g id="ytick_3">
     <g id="line2d_3">
      <path clip-path="url(#p77ce655637)" d="M 32.968125 176.98718
L 993.158125 176.98718
" style="fill:none;stroke:#dedede;stroke-linecap:square;"/>
     </g>
     <g id="text_9">
      <!-- 2 -->
      <g transform="translate(20.878125 180.026555)scale(0.08 -0.08)">
       <use xlink:href="#DejaVuSans-50"/>
      </g>
     </g>
    </g>
    <g id="ytick_4">
     <g id="line2d_4">
      <path clip-path="url(#p77ce655637)" d="M 32.968125 128.48574
L 993.158125 128.48574
" style="fill:none;stroke:#dedede;stroke-linecap:square;"/>
     </g>
     <g id="text_10">
      <!-- 3 -->
      <g transform="translate(20.878125 131.525115)scale(0.08 -0.08)">
       <defs>
        <path d="M 40.578125 39.3125
Q 47.65625 37.796875 51.625 33
Q 55.609375 28.21875 55.609375 21.1875
Q 55.609375 10.40625 48.1875 4.484375
Q 40.765625 -1.421875 27.09375 -1.421875
Q 22.515625 -1.421875 17.65625 -0.515625
Q 12.796875 0.390625 7.625 2.203125
L 7.625 11.71875
Q 11.71875 9.328125 16.59375 8.109375
Q 21.484375 6.890625 26.8125 6.890625
Q 36.078125 6.890625 40.9375 10.546875
Q 45.796875 14.203125 45.796875 21.1875
Q 45.796875 27.640625 41.28125 31.265625
Q 36.765625 34.90625 28.71875 34.90625
L 20.21875 34.90625
L 20.21875 43.015625
L 29.109375 43.015625
Q 36.375 43.015625 40.234375 45.921875
Q 44.09375 48.828125 44.09375 54.296875
Q 44.09375 59.90625 40.109375 62.90625
Q 36.140625 65.921875 28.71875 65.921875
Q 24.65625 65.921875 20.015625 65.03125
Q 15.375 64.15625 9.8125 62.3125
L 9.8125 71.09375
Q 15.4375 72.65625 20.34375 73.4375
Q 25.25 74.21875 29.59375 74.21875
Q 40.828125 74.21875 47.359375 69.109375
Q 53.90625 64.015625 53.90625 55.328125
Q 53.90625 49.265625 50.4375 45.09375
Q 46.96875 40.921875 40.578125 39.3125
z
" id="DejaVuSans-51"/>
       </defs>
       <use xlink:href="#DejaVuSans-51"/>
      </g>
     </g>
    </g>
    <g id="ytick_5">
     <g id="line2d_5">
      <path clip-path="url(#p77ce655637)" d="M 32.968125 79.9843
L 993.158125 79.9843
" style="fill:none;stroke:#dedede;stroke-linecap:square;"/>
     </g>
     <g id="text_11">
      <!-- 4 -->
      <g transform="translate(20.878125 83.023675)scale(0.08 -0.08)">
       <use xlink:href="#DejaVuSans-52"/>
      </g>
     </g>
    </g>
    <g id="ytick_6">
     <g id="line2d_6">
      <path clip-path="url(#p77ce655637)" d="M 32.968125 31.48286
L 993.158125 31.48286
" style="fill:none;stroke:#dedede;stroke-linecap:square;"/>
     </g>
     <g id="text_12">
      <!-- 5 -->
      <g transform="translate(20.878125 34.522235)scale(0.08 -0.08)">
       <defs>
        <path d="M 10.796875 72.90625
L 49.515625 72.90625
L 49.515625 64.59375
L 19.828125 64.59375
L 19.828125 46.734375
Q 21.96875 47.46875 24.109375 47.828125
Q 26.265625 48.1875 28.421875 48.1875
Q 40.625 48.1875 47.75 41.5
Q 54.890625 34.8125 54.890625 23.390625
Q 54.890625 11.625 47.5625 5.09375
Q 40.234375 -1.421875 26.90625 -1.421875
Q 22.3125 -1.421875 17.546875 -0.640625
Q 12.796875 0.140625 7.71875 1.703125
L 7.71875 11.625
Q 12.109375 9.234375 16.796875 8.0625
Q 21.484375 6.890625 26.703125 6.890625
Q 35.15625 6.890625 40.078125 11.328125
Q 45.015625 15.765625 45.015625 23.390625
Q 45.015625 31 40.078125 35.4375
Q 35.15625 39.890625 26.703125 39.890625
Q 22.75 39.890625 18.8125 39.015625
Q 14.890625 38.140625 10.796875 36.28125
z
" id="DejaVuSans-53"/>
       </defs>
       <use xlink:href="#DejaVuSans-53"/>
      </g>
     </g>
    </g>
    <g id="text_13">
     <!-- Percentage N-Count -->
     <g transform="translate(14.798438 202.841147)rotate(-90)scale(0.1 -0.1)">
      <defs>
       <path d="M 41.109375 46.296875
Q 39.59375 47.171875 37.8125 47.578125
Q 36.03125 48 33.890625 48
Q 26.265625 48 22.1875 43.046875
Q 18.109375 38.09375 18.109375 28.8125
L 18.109375 0
L 9.078125 0
L 9.078125 54.6875
L 18.109375 54.6875
L 18.109375 46.1875
Q 20.953125 51.171875 25.484375 53.578125
Q 30.03125 56 36.53125 56
Q 37.453125 56 38.578125 55.875
Q 39.703125 55.765625 41.0625 55.515625
z
" id="DejaVuSans-114"/>
       <path d="M 48.78125 52.59375
L 48.78125 44.1875
Q 44.96875 46.296875 41.140625 47.34375
Q 37.3125 48.390625 33.40625 48.390625
Q 24.65625 48.390625 19.8125 42.84375
Q 14.984375 37.3125 14.984375 27.296875
Q 14.984375 17.28125 19.8125 11.734375
Q 24.65625 6.203125 33.40625 6.203125
Q 37.3125 6.203125 41.140625 7.25
Q 44.96875 8.296875 48.78125 10.40625
L 48.78125 2.09375
Q 45.015625 0.34375 40.984375 -0.53125
Q 36.96875 -1.421875 32.421875 -1.421875
Q 20.0625 -1.421875 12.78125 6.34375
Q 5.515625 14.109375 5.515625 27.296875
Q 5.515625 40.671875 12.859375 48.328125
Q 20.21875 56 33.015625 56
Q 37.15625 56 41.109375 55.140625
Q 45.0625 54.296875 48.78125 52.59375
z
" id="DejaVuSans-99"/>
       <path d="M 45.40625 27.984375
Q 45.40625 37.75 41.375 43.109375
Q 37.359375 48.484375 30.078125 48.484375
Q 22.859375 48.484375 18.828125 43.109375
Q 14.796875 37.75 14.796875 27.984375
Q 14.796875 18.265625 18.828125 12.890625
Q 22.859375 7.515625 30.078125 7.515625
Q 37.359375 7.515625 41.375 12.890625
Q 45.40625 18.265625 45.40625 27.984375
z
M 54.390625 6.78125
Q 54.390625 -7.171875 48.1875 -13.984375
Q 42 -20.796875 29.203125 -20.796875
Q 24.46875 -20.796875 20.265625 -20.09375
Q 16.0625 -19.390625 12.109375 -17.921875
L 12.109375 -9.1875
Q 16.0625 -11.328125 19.921875 -12.34375
Q 23.78125 -13.375 27.78125 -13.375
Q 36.625 -13.375 41.015625 -8.765625
Q 45.40625 -4.15625 45.40625 5.171875
L 45.40625 9.625
Q 42.625 4.78125 38.28125 2.390625
Q 33.9375 0 27.875 0
Q 17.828125 0 11.671875 7.65625
Q 5.515625 15.328125 5.515625 27.984375
Q 5.515625 40.671875 11.671875 48.328125
Q 17.828125 56 27.875 56
Q 33.9375 56 38.28125 53.609375
Q 42.625 51.21875 45.40625 46.390625
L 45.40625 54.6875
L 54.390625 54.6875
z
" id="DejaVuSans-103"/>
       <path d="M 9.8125 72.90625
L 23.09375 72.90625
L 55.421875 11.921875
L 55.421875 72.90625
L 64.984375 72.90625
L 64.984375 0
L 51.703125 0
L 19.390625 60.984375
L 19.390625 0
L 9.8125 0
z
" id="DejaVuSans-78"/>
       <path d="M 4.890625 31.390625
L 31.203125 31.390625
L 31.203125 23.390625
L 4.890625 23.390625
z
" id="DejaVuSans-45"/>
       <path d="M 64.40625 67.28125
L 64.40625 56.890625
Q 59.421875 61.53125 53.78125 63.8125
Q 48.140625 66.109375 41.796875 66.109375
Q 29.296875 66.109375 22.65625 58.46875
Q 16.015625 50.828125 16.015625 36.375
Q 16.015625 21.96875 22.65625 14.328125
Q 29.296875 6.6875 41.796875 6.6875
Q 48.140625 6.6875 53.78125 8.984375
Q 59.421875 11.28125 64.40625 15.921875
L 64.40625 5.609375
Q 59.234375 2.09375 53.4375 0.328125
Q 47.65625 -1.421875 41.21875 -1.421875
Q 24.65625 -1.421875 15.125 8.703125
Q 5.609375 18.84375 5.609375 36.375
Q 5.609375 53.953125 15.125 64.078125
Q 24.65625 74.21875 41.21875 74.21875
Q 47.75 74.21875 53.53125 72.484375
Q 59.328125 70.75 64.40625 67.28125
z
" id="DejaVuSans-67"/>
       <path d="M 8.5 21.578125
L 8.5 54.6875
L 17.484375 54.6875
L 17.484375 21.921875
Q 17.484375 14.15625 20.5 10.265625
Q 23.53125 6.390625 29.59375 6.390625
Q 36.859375 6.390625 41.078125 11.03125
Q 45.3125 15.671875 45.3125 23.6875
L 45.3125 54.6875
L 54.296875 54.6875
L 54.296875 0
L 45.3125 0
L 45.3125 8.40625
Q 42.046875 3.421875 37.71875 1
Q 33.40625 -1.421875 27.6875 -1.421875
Q 18.265625 -1.421875 13.375 4.4375
Q 8.5 10.296875 8.5 21.578125
z
M 31.109375 56
z
" id="DejaVuSans-117"/>
      </defs>
      <use xlink:href="#DejaVuSans-80"/>
      <use x="56.677734" xlink:href="#DejaVuSans-101"/>
      <use x="118.201172" xlink:href="#DejaVuSans-114"/>
      <use x="157.064453" xlink:href="#DejaVuSans-99"/>
      <use x="212.044922" xlink:href="#DejaVuSans-101"/>
      <use x="273.568359" xlink:href="#DejaVuSans-110"/>
      <use x="336.947266" xlink:href="#DejaVuSans-116"/>
      <use x="376.15625" xlink:href="#DejaVuSans-97"/>
      <use x="437.435547" xlink:href="#DejaVuSans-103"/>
      <use x="500.912109" xlink:href="#DejaVuSans-101"/>
      <use x="562.435547" xlink:href="#DejaVuSans-32"/>
      <use x="594.222656" xlink:href="#DejaVuSans-78"/>
      <use x="669.027344" xlink:href="#DejaVuSans-45"/>
      <use x="705.111328" xlink:href="#DejaVuSans-67"/>
      <use x="774.935547" xlink:href="#DejaVuSans-111"/>
      <use x="836.117188" xlink:href="#DejaVuSans-117"/>
      <use x="899.496094" xlink:href="#DejaVuSans-110"/>
      <use x="962.875" xlink:href="#DejaVuSans-116"/>
     </g>
    </g>
   </g>
   <g id="line2d_7">
    <path clip-path="url(#p77ce655637)" d="M 43.134245 268.90955
L 53.300364 273.733076
L 63.466484 273.99006
L 73.632604 273.99006
L 83.798723 273.99006
L 93.964843 273.99006
L 104.130962 273.99006
L 114.297082 273.99006
L 124.463202 273.99006
L 134.629321 273.99006
L 154.961561 273.99006
L 175.2938 273.99006
L 195.626039 273.99006
L 215.958279 273.984988
L 236.290518 273.99006
L 256.622757 273.99006
L 276.954996 273.99006
L 297.287236 273.99006
L 317.619475 273.99006
L 337.951714 273.99006
L 358.283953 273.986679
L 378.616193 273.979916
L 398.948432 273.944411
L 419.280671 273.978225
L 439.612911 273.965545
L 459.94515 273.968081
L 480.277389 273.947793
L 500.609628 273.903835
L 520.941868 273.87932
L 541.274107 273.850578
L 561.606346 273.771962
L 581.938586 273.800703
L 602.270825 273.758436
L 622.603064 273.827754
L 642.935303 273.578378
L 663.267543 273.547946
L 683.599782 273.487926
L 703.932021 273.686582
L 724.264261 273.613882
L 744.5965 273.601202
L 764.928739 273.667139
L 785.260978 273.601202
L 805.593218 273.551327
L 825.925457 273.602893
L 846.257696 273.678974
L 866.589935 273.653614
L 886.922175 273.685737
L 907.254414 273.908062
L 927.586653 273.95371
L 947.918893 273.9647
" style="fill:none;stroke:#5cb85c;stroke-linecap:square;"/>
   </g>
   <g id="line2d_8">
    <path clip-path="url(#p77ce655637)" d="M 43.134245 273.802394
L 53.300364 273.695881
L 63.466484 273.820991
L 73.632604 273.81761
L 83.798723 272.475206
L 93.964843 272.909712
L 104.130962 273.734766
L 114.297082 273.195438
L 124.463202 273.5471
L 134.629321 273.477782
L 154.961561 273.402547
L 175.2938 273.67052
L 195.626039 273.658686
L 215.958279 273.678129
L 236.290518 273.404237
L 256.622757 273.536111
L 276.954996 272.804889
L 297.287236 273.442278
L 317.619475 273.132037
L 337.951714 273.55809
L 358.283953 273.432134
L 378.616193 273.572461
L 398.948432 273.305332
L 419.280671 273.071172
L 439.612911 272.90464
L 459.94515 273.411846
L 480.277389 273.613882
L 500.609628 273.755055
L 520.941868 273.654459
L 541.274107 273.788023
L 561.606346 273.735612
L 581.938586 273.475246
L 602.270825 273.574997
L 622.603064 273.685737
L 642.935303 273.658686
L 663.267543 272.97903
L 683.599782 273.713633
L 703.932021 273.787178
L 724.264261 273.700107
L 744.5965 273.882701
L 764.928739 273.86664
L 785.260978 273.635016
L 805.593218 273.67052
L 825.925457 272.892805
L 846.257696 272.998473
L 866.589935 273.53442
L 886.922175 273.190366
L 907.254414 273.60881
L 927.586653 273.659531
L 947.918893 273.178531
" style="fill:none;stroke:#5cb85c;stroke-linecap:square;"/>
   </g>
   <g id="line2d_9">
    <path clip-path="url(#p77ce655637)" d="M 43.134245 269.07126
L 53.300364 273.701808
L 63.466484 273.99006
L 73.632604 273.99006
L 83.798723 273.99006
L 93.964843 273.99006
L 104.130962 273.99006
L 114.297082 273.99006
L 124.463202 273.99006
L 134.629321 273.99006
L 154.961561 273.99006
L 175.2938 273.99006
L 195.626039 273.99006
L 215.958279 273.987415
L 236.290518 273.99006
L 256.622757 273.99006
L 276.954996 273.99006
L 297.287236 273.99006
L 317.619475 273.988738
L 337.951714 273.99006
L 358.283953 273.983449
L 378.616193 273.973532
L 398.948432 273.937831
L 419.280671 273.969565
L 439.612911 273.972871
L 459.94515 273.964937
L 480.277389 273.948409
L 500.609628 273.908741
L 520.941868 273.891552
L 541.274107 273.857173
L 561.606346 273.788416
L 581.938586 273.820811
L 602.270825 273.786432
L 622.603064 273.841967
L 642.935303 273.635034
L 663.267543 273.612555
L 683.599782 273.52132
L 703.932021 273.706436
L 724.264261 273.641645
L 744.5965 273.629084
L 764.928739 273.672718
L 785.260978 273.649579
L 805.593218 273.586771
L 825.925457 273.652223
L 846.257696 273.703791
L 866.589935 273.671396
L 886.922175 273.722964
L 907.254414 273.914691
L 927.586653 273.955681
L 947.918893 273.974193
" style="fill:none;stroke:#5cb85c;stroke-linecap:square;"/>
   </g>
   <g id="line2d_10">
    <path clip-path="url(#p77ce655637)" d="M 43.134245 273.793044
L 53.300364 273.646273
L 63.466484 273.783788
L 73.632604 273.765276
L 83.798723 272.423184
L 93.964843 272.901842
L 104.130962 273.709741
L 114.297082 273.196705
L 124.463202 273.48628
L 134.629321 273.419506
L 154.961561 273.386449
L 175.2938 273.642306
L 195.626039 273.609911
L 215.958279 273.629745
L 236.290518 273.349426
L 256.622757 273.488924
L 276.954996 272.820523
L 297.287236 273.429423
L 317.619475 273.107453
L 337.951714 273.500163
L 358.283953 273.408266
L 378.616193 273.515369
L 398.948432 273.280669
L 419.280671 273.047951
L 439.612911 272.886636
L 459.94515 273.393061
L 480.277389 273.570904
L 500.609628 273.714369
L 520.941868 273.611894
L 541.274107 273.72627
L 561.606346 273.699163
L 581.938586 273.457851
L 602.270825 273.540492
L 622.603064 273.671396
L 642.935303 273.625778
L 663.267543 272.991755
L 683.599782 273.673379
L 703.932021 273.748748
L 724.264261 273.66214
L 744.5965 273.843289
L 764.928739 273.842628
L 785.260978 273.596688
L 805.593218 273.638339
L 825.925457 272.892586
L 846.257696 272.934237
L 866.589935 273.473057
L 886.922175 273.15836
L 907.254414 273.571565
L 927.586653 273.636356
L 947.918893 273.155715
" style="fill:none;stroke:#5cb85c;stroke-linecap:square;"/>
   </g>
   <g id="line2d_11">
    <path clip-path="url(#p77ce655637)" d="M 43.134245 268.893133
L 53.300364 273.714402
L 63.466484 273.99006
L 73.632604 273.99006
L 83.798723 273.99006
L 93.964843 273.99006
L 104.130962 273.99006
L 114.297082 273.99006
L 124.463202 273.99006
L 134.629321 273.99006
L 154.961561 273.99006
L 175.2938 273.99006
L 195.626039 273.99006
L 215.958279 273.989147
L 236.290518 273.99006
L 256.622757 273.99006
L 276.954996 273.99006
L 297.287236 273.99006
L 317.619475 273.989147
L 337.951714 273.99006
L 358.283953 273.986409
L 378.616193 273.976368
L 398.948432 273.939857
L 419.280671 273.976368
L 439.612911 273.974543
L 459.94515 273.968153
L 480.277389 273.951724
L 500.609628 273.906085
L 520.941868 273.886917
L 541.274107 273.853144
L 561.606346 273.769169
L 581.938586 273.798378
L 602.270825 273.764605
L 622.603064 273.828499
L 642.935303 273.595742
L 663.267543 273.563795
L 683.599782 273.484384
L 703.932021 273.708013
L 724.264261 273.63134
L 744.5965 273.617648
L 764.928739 273.675153
L 785.260978 273.618561
L 805.593218 273.554667
L 825.925457 273.61491
L 846.257696 273.686106
L 866.589935 273.640468
L 886.922175 273.692496
L 907.254414 273.910649
L 927.586653 273.950811
L 947.918893 273.975456
" style="fill:none;stroke:#5cb85c;stroke-linecap:square;"/>
   </g>
   <g id="line2d_12">
    <path clip-path="url(#p77ce655637)" d="M 43.134245 273.743611
L 53.300364 273.606695
L 63.466484 273.732658
L 73.632604 273.747262
L 83.798723 272.365323
L 93.964843 272.73956
L 104.130962 273.645032
L 114.297082 273.049903
L 124.463202 273.376676
L 134.629321 273.337427
L 154.961561 273.286312
L 175.2938 273.570184
L 195.626039 273.553754
L 215.958279 273.557405
L 236.290518 273.248888
L 256.622757 273.393106
L 276.954996 272.652847
L 297.287236 273.333776
L 317.619475 272.999701
L 337.951714 273.408623
L 358.283953 273.298178
L 378.616193 273.416838
L 398.948432 273.161262
L 419.280671 272.89747
L 439.612911 272.722218
L 459.94515 273.275358
L 480.277389 273.468866
L 500.609628 273.652334
L 520.941868 273.541888
L 541.274107 273.691583
L 561.606346 273.645032
L 581.938586 273.353857
L 602.270825 273.459739
L 622.603064 273.58844
L 642.935303 273.560144
L 663.267543 272.843617
L 683.599782 273.636817
L 703.932021 273.706187
L 724.264261 273.603044
L 744.5965 273.82211
L 764.928739 273.807505
L 785.260978 273.508116
L 805.593218 273.570184
L 825.925457 272.764205
L 846.257696 272.736822
L 866.589935 273.393106
L 886.922175 273.004265
L 907.254414 273.498075
L 927.586653 273.554667
L 947.918893 273.03895
" style="fill:none;stroke:#5cb85c;stroke-linecap:square;"/>
   </g>
   <g id="line2d_13">
    <path clip-path="url(#p77ce655637)" d="M 43.134245 268.974122
L 53.300364 273.716065
L 63.466484 273.99006
L 73.632604 273.99006
L 83.798723 273.99006
L 93.964843 273.99006
L 104.130962 273.99006
L 114.297082 273.99006
L 124.463202 273.99006
L 134.629321 273.99006
L 154.961561 273.99006
L 175.2938 273.99006
L 195.626039 273.99006
L 215.958279 273.980927
L 236.290518 273.99006
L 256.622757 273.99006
L 276.954996 273.99006
L 297.287236 273.99006
L 317.619475 273.988233
L 337.951714 273.99006
L 358.283953 273.988233
L 378.616193 273.97088
L 398.948432 273.933434
L 419.280671 273.96814
L 439.612911 273.963574
L 459.94515 273.967227
L 480.277389 273.930694
L 500.609628 273.898728
L 520.941868 273.868589
L 541.274107 273.856716
L 561.606346 273.763557
L 581.938586 273.80283
L 602.270825 273.761731
L 622.603064 273.832056
L 642.935303 273.59094
L 663.267543 273.555321
L 683.599782 273.450289
L 703.932021 273.674052
L 724.264261 273.608293
L 744.5965 273.600987
L 764.928739 273.653959
L 785.260978 273.611033
L 805.593218 273.527008
L 825.925457 273.606467
L 846.257696 273.687752
L 866.589935 273.653959
L 886.922175 273.698712
L 907.254414 273.896902
L 927.586653 273.958094
L 947.918893 273.959007
" style="fill:none;stroke:#5cb85c;stroke-linecap:square;"/>
   </g>
   <g id="line2d_14">
    <path clip-path="url(#p77ce655637)" d="M 43.134245 273.732505
L 53.300364 273.639346
L 63.466484 273.779997
L 73.632604 273.796437
L 83.798723 272.371662
L 93.964843 272.835627
L 104.130962 273.686839
L 114.297082 273.113275
L 124.463202 273.43659
L 134.629321 273.389097
L 154.961561 273.331558
L 175.2938 273.598247
L 195.626039 273.580894
L 215.958279 273.586374
L 236.290518 273.313292
L 256.622757 273.438416
L 276.954996 272.770781
L 297.287236 273.379964
L 317.619475 273.052996
L 337.951714 273.442983
L 358.283953 273.337951
L 378.616193 273.463989
L 398.948432 273.217394
L 419.280671 272.963491
L 439.612911 272.84476
L 459.94515 273.319685
L 480.277389 273.513308
L 500.609628 273.681359
L 520.941868 273.573587
L 541.274107 273.731591
L 561.606346 273.669486
L 581.938586 273.413757
L 602.270825 273.490475
L 622.603064 273.611033
L 642.935303 273.583634
L 663.267543 272.901386
L 683.599782 273.669486
L 703.932021 273.734331
L 724.264261 273.63752
L 744.5965 273.842103
L 764.928739 273.81927
L 785.260978 273.541621
L 805.593218 273.598247
L 825.925457 272.835627
L 846.257696 272.902299
L 866.589935 273.437503
L 886.922175 273.110535
L 907.254414 273.518788
L 927.586653 273.576327
L 947.918893 273.06213
" style="fill:none;stroke:#5cb85c;stroke-linecap:square;"/>
   </g>
   <g id="line2d_15">
    <path clip-path="url(#p77ce655637)" d="M 43.134245 268.882849
L 53.300364 273.726277
L 63.466484 273.99006
L 73.632604 273.99006
L 83.798723 273.99006
L 93.964843 273.99006
L 104.130962 273.99006
L 114.297082 273.99006
L 124.463202 273.99006
L 134.629321 273.99006
L 154.961561 273.99006
L 175.2938 273.99006
L 195.626039 273.99006
L 215.958279 273.989265
L 236.290518 273.99006
L 256.622757 273.99006
L 276.954996 273.99006
L 297.287236 273.99006
L 317.619475 273.99006
L 337.951714 273.99006
L 358.283953 273.988471
L 378.616193 273.980526
L 398.948432 273.93921
L 419.280671 273.974964
L 439.612911 273.971786
L 459.94515 273.967019
L 480.277389 273.951923
L 500.609628 273.90584
L 520.941868 273.88995
L 541.274107 273.866114
L 561.606346 273.78825
L 581.938586 273.820826
L 602.270825 273.785867
L 622.603064 273.851813
L 642.935303 273.650798
L 663.267543 273.622195
L 683.599782 273.549098
L 703.932021 273.73899
L 724.264261 273.671455
L 744.5965 273.664304
L 764.928739 273.713565
L 785.260978 273.652387
L 805.593218 273.615044
L 825.925457 273.673839
L 846.257696 273.742168
L 866.589935 273.689729
L 886.922175 273.723099
L 907.254414 273.915375
L 927.586653 273.955895
L 947.918893 273.970991
" style="fill:none;stroke:#5cb85c;stroke-linecap:square;"/>
   </g>
   <g id="line2d_16">
    <path clip-path="url(#p77ce655637)" d="M 43.134245 273.810497
L 53.300364 273.694496
L 63.466484 273.800963
L 73.632604 273.799374
L 83.798723 272.44868
L 93.964843 272.869779
L 104.130962 273.745346
L 114.297082 273.174877
L 124.463202 273.522879
L 134.629321 273.456139
L 154.961561 273.389399
L 175.2938 273.687346
L 195.626039 273.637291
L 215.958279 273.65477
L 236.290518 273.388604
L 256.622757 273.524468
L 276.954996 272.806217
L 297.287236 273.442632
L 317.619475 273.123232
L 337.951714 273.544331
L 358.283953 273.419591
L 378.616193 273.548304
L 398.948432 273.281343
L 419.280671 273.027095
L 439.612911 272.880902
L 459.94515 273.408467
L 480.277389 273.599948
L 500.609628 273.739784
L 520.941868 273.653181
L 541.274107 273.777127
L 561.606346 273.745346
L 581.938586 273.472029
L 602.270825 273.571345
L 622.603064 273.684168
L 642.935303 273.653976
L 663.267543 272.965916
L 683.599782 273.704031
L 703.932021 273.784278
L 724.264261 273.6794
L 744.5965 273.877237
L 764.928739 273.862936
L 785.260978 273.616633
L 805.593218 273.68814
L 825.925457 272.886464
L 846.257696 272.942875
L 866.589935 273.510961
L 886.922175 273.167726
L 907.254414 273.611071
L 927.586653 273.657948
L 947.918893 273.149452
" style="fill:none;stroke:#5cb85c;stroke-linecap:square;"/>
   </g>
   <g id="line2d_17">
    <path clip-path="url(#p77ce655637)" d="M 43.134245 268.706281
L 53.300364 273.695397
L 63.466484 273.99006
L 73.632604 273.99006
L 83.798723 273.99006
L 93.964843 273.99006
L 104.130962 273.99006
L 114.297082 273.99006
L 124.463202 273.99006
L 134.629321 273.99006
L 154.961561 273.99006
L 175.2938 273.99006
L 195.626039 273.99006
L 215.958279 273.988171
L 236.290518 273.99006
L 256.622757 273.99006
L 276.954996 273.99006
L 297.287236 273.99006
L 317.619475 273.988801
L 337.951714 273.99006
L 358.283953 273.985653
L 378.616193 273.980616
L 398.948432 273.951653
L 419.280671 273.974949
L 439.612911 273.968653
L 459.94515 273.969912
L 480.277389 273.953542
L 500.609628 273.903802
L 520.941868 273.884284
L 541.274107 273.855321
L 561.606346 273.789841
L 581.938586 273.825099
L 602.270825 273.786692
L 622.603064 273.853432
L 642.935303 273.629917
L 663.267543 273.618584
L 683.599782 273.536733
L 703.932021 273.731915
L 724.264261 273.661398
L 744.5965 273.645028
L 764.928739 273.701694
L 785.260978 273.634324
L 805.593218 273.593399
L 825.925457 273.656991
L 846.257696 273.717434
L 866.589935 273.683435
L 886.922175 273.708619
L 907.254414 273.916394
L 927.586653 273.954172
L 947.918893 273.972431
" style="fill:none;stroke:#5cb85c;stroke-linecap:square;"/>
   </g>
   <g id="line2d_18">
    <path clip-path="url(#p77ce655637)" d="M 43.134245 273.77347
L 53.300364 273.637472
L 63.466484 273.770952
L 73.632604 273.772211
L 83.798723 272.332898
L 93.964843 272.772373
L 104.130962 273.692879
L 114.297082 273.084665
L 124.463202 273.457401
L 134.629321 273.388772
L 154.961561 273.32581
L 175.2938 273.62488
L 195.626039 273.599695
L 215.958279 273.623621
L 236.290518 273.327699
L 256.622757 273.45803
L 276.954996 272.714448
L 297.287236 273.368624
L 317.619475 273.029888
L 337.951714 273.480697
L 358.283953 273.344699
L 378.616193 273.493289
L 398.948432 273.211219
L 419.280671 272.919075
L 439.612911 272.819595
L 459.94515 273.316995
L 480.277389 273.544288
L 500.609628 273.711138
L 520.941868 273.585843
L 541.274107 273.733175
L 561.606346 273.687842
L 581.938586 273.413957
L 602.270825 273.510918
L 622.603064 273.634954
L 642.935303 273.59214
L 663.267543 272.856113
L 683.599782 273.666435
L 703.932021 273.7401
L 724.264261 273.648176
L 744.5965 273.849025
L 764.928739 273.847766
L 785.260978 273.568214
L 805.593218 273.62488
L 825.925457 272.783706
L 846.257696 272.884446
L 866.589935 273.44166
L 886.922175 273.075221
L 907.254414 273.553733
L 927.586653 273.606621
L 947.918893 273.056962
" style="fill:none;stroke:#5cb85c;stroke-linecap:square;"/>
   </g>
   <g id="line2d_19">
    <path clip-path="url(#p77ce655637)" d="M 32.968125 273.99006
L 993.158125 273.99006
" style="fill:none;stroke:#dedede;stroke-linecap:square;stroke-width:2;"/>
   </g>
   <g id="text_14">
    <!-- FastQC: Per Base N Content -->
    <g transform="translate(402.209375 19.3575)scale(0.16 -0.16)">
     <defs>
      <path d="M 9.8125 72.90625
L 51.703125 72.90625
L 51.703125 64.59375
L 19.671875 64.59375
L 19.671875 43.109375
L 48.578125 43.109375
L 48.578125 34.8125
L 19.671875 34.8125
L 19.671875 0
L 9.8125 0
z
" id="DejaVuSans-70"/>
      <path d="M 39.40625 66.21875
Q 28.65625 66.21875 22.328125 58.203125
Q 16.015625 50.203125 16.015625 36.375
Q 16.015625 22.609375 22.328125 14.59375
Q 28.65625 6.59375 39.40625 6.59375
Q 50.140625 6.59375 56.421875 14.59375
Q 62.703125 22.609375 62.703125 36.375
Q 62.703125 50.203125 56.421875 58.203125
Q 50.140625 66.21875 39.40625 66.21875
z
M 53.21875 1.3125
L 66.21875 -12.890625
L 54.296875 -12.890625
L 43.5 -1.21875
Q 41.890625 -1.3125 41.03125 -1.359375
Q 40.1875 -1.421875 39.40625 -1.421875
Q 24.03125 -1.421875 14.8125 8.859375
Q 5.609375 19.140625 5.609375 36.375
Q 5.609375 53.65625 14.8125 63.9375
Q 24.03125 74.21875 39.40625 74.21875
Q 54.734375 74.21875 63.90625 63.9375
Q 73.09375 53.65625 73.09375 36.375
Q 73.09375 23.6875 67.984375 14.640625
Q 62.890625 5.609375 53.21875 1.3125
z
" id="DejaVuSans-81"/>
      <path d="M 11.71875 12.40625
L 22.015625 12.40625
L 22.015625 0
L 11.71875 0
z
M 11.71875 51.703125
L 22.015625 51.703125
L 22.015625 39.3125
L 11.71875 39.3125
z
" id="DejaVuSans-58"/>
      <path d="M 19.671875 34.8125
L 19.671875 8.109375
L 35.5 8.109375
Q 43.453125 8.109375 47.28125 11.40625
Q 51.125 14.703125 51.125 21.484375
Q 51.125 28.328125 47.28125 31.5625
Q 43.453125 34.8125 35.5 34.8125
z
M 19.671875 64.796875
L 19.671875 42.828125
L 34.28125 42.828125
Q 41.5 42.828125 45.03125 45.53125
Q 48.578125 48.25 48.578125 53.8125
Q 48.578125 59.328125 45.03125 62.0625
Q 41.5 64.796875 34.28125 64.796875
z
M 9.8125 72.90625
L 35.015625 72.90625
Q 46.296875 72.90625 52.390625 68.21875
Q 58.5 63.53125 58.5 54.890625
Q 58.5 48.1875 55.375 44.234375
Q 52.25 40.28125 46.1875 39.3125
Q 53.46875 37.75 57.5 32.78125
Q 61.53125 27.828125 61.53125 20.40625
Q 61.53125 10.640625 54.890625 5.3125
Q 48.25 0 35.984375 0
L 9.8125 0
z
" id="DejaVuSans-66"/>
     </defs>
     <use xlink:href="#DejaVuSans-70"/>
     <use x="48.394531" xlink:href="#DejaVuSans-97"/>
     <use x="109.673828" xlink:href="#DejaVuSans-115"/>
     <use x="161.773438" xlink:href="#DejaVuSans-116"/>
     <use x="200.982422" xlink:href="#DejaVuSans-81"/>
     <use x="279.693359" xlink:href="#DejaVuSans-67"/>
     <use x="349.517578" xlink:href="#DejaVuSans-58"/>
     <use x="383.208984" xlink:href="#DejaVuSans-32"/>
     <use x="414.996094" xlink:href="#DejaVuSans-80"/>
     <use x="471.673828" xlink:href="#DejaVuSans-101"/>
     <use x="533.197266" xlink:href="#DejaVuSans-114"/>
     <use x="574.310547" xlink:href="#DejaVuSans-32"/>
     <use x="606.097656" xlink:href="#DejaVuSans-66"/>
     <use x="674.701172" xlink:href="#DejaVuSans-97"/>
     <use x="735.980469" xlink:href="#DejaVuSans-115"/>
     <use x="788.080078" xlink:href="#DejaVuSans-101"/>
     <use x="849.603516" xlink:href="#DejaVuSans-32"/>
     <use x="881.390625" xlink:href="#DejaVuSans-78"/>
     <use x="956.195312" xlink:href="#DejaVuSans-32"/>
     <use x="987.982422" xlink:href="#DejaVuSans-67"/>
     <use x="1057.806641" xlink:href="#DejaVuSans-111"/>
     <use x="1118.988281" xlink:href="#DejaVuSans-110"/>
     <use x="1182.367188" xlink:href="#DejaVuSans-116"/>
     <use x="1221.576172" xlink:href="#DejaVuSans-101"/>
     <use x="1283.099609" xlink:href="#DejaVuSans-110"/>
     <use x="1346.478516" xlink:href="#DejaVuSans-116"/>
    </g>
   </g>
   <g id="legend_1">
    <g id="line2d_20">
     <path d="M 40.168125 291.525394
L 56.168125 291.525394
" style="fill:none;stroke:#5cb85c;stroke-linecap:square;"/>
    </g>
    <g id="line2d_21"/>
    <g id="text_15">
     <!-- IP283_1 -->
     <g transform="translate(62.568125 294.325394)scale(0.08 -0.08)">
      <defs>
       <path d="M 9.8125 72.90625
L 19.671875 72.90625
L 19.671875 0
L 9.8125 0
z
" id="DejaVuSans-73"/>
       <path d="M 50.984375 -16.609375
L 50.984375 -23.578125
L -0.984375 -23.578125
L -0.984375 -16.609375
z
" id="DejaVuSans-95"/>
      </defs>
      <use xlink:href="#DejaVuSans-73"/>
      <use x="29.492188" xlink:href="#DejaVuSans-80"/>
      <use x="89.794922" xlink:href="#DejaVuSans-50"/>
      <use x="153.417969" xlink:href="#DejaVuSans-56"/>
      <use x="217.041016" xlink:href="#DejaVuSans-51"/>
      <use x="280.664062" xlink:href="#DejaVuSans-95"/>
      <use x="330.664062" xlink:href="#DejaVuSans-49"/>
     </g>
    </g>
    <g id="line2d_22">
     <path d="M 40.168125 303.490394
L 56.168125 303.490394
" style="fill:none;stroke:#5cb85c;stroke-linecap:square;"/>
    </g>
    <g id="line2d_23"/>
    <g id="text_16">
     <!-- IP283_2 -->
     <g transform="translate(62.568125 306.290394)scale(0.08 -0.08)">
      <use xlink:href="#DejaVuSans-73"/>
      <use x="29.492188" xlink:href="#DejaVuSans-80"/>
      <use x="89.794922" xlink:href="#DejaVuSans-50"/>
      <use x="153.417969" xlink:href="#DejaVuSans-56"/>
      <use x="217.041016" xlink:href="#DejaVuSans-51"/>
      <use x="280.664062" xlink:href="#DejaVuSans-95"/>
      <use x="330.664062" xlink:href="#DejaVuSans-50"/>
     </g>
    </g>
    <g id="line2d_24">
     <path d="M 40.168125 315.455394
L 56.168125 315.455394
" style="fill:none;stroke:#5cb85c;stroke-linecap:square;"/>
    </g>
    <g id="line2d_25"/>
    <g id="text_17">
     <!-- IP542_1 -->
     <g transform="translate(62.568125 318.255394)scale(0.08 -0.08)">
      <use xlink:href="#DejaVuSans-73"/>
      <use x="29.492188" xlink:href="#DejaVuSans-80"/>
      <use x="89.794922" xlink:href="#DejaVuSans-53"/>
      <use x="153.417969" xlink:href="#DejaVuSans-52"/>
      <use x="217.041016" xlink:href="#DejaVuSans-50"/>
      <use x="280.664062" xlink:href="#DejaVuSans-95"/>
      <use x="330.664062" xlink:href="#DejaVuSans-49"/>
     </g>
    </g>
    <g id="line2d_26">
     <path d="M 263.129688 291.525394
L 279.129688 291.525394
" style="fill:none;stroke:#5cb85c;stroke-linecap:square;"/>
    </g>
    <g id="line2d_27"/>
    <g id="text_18">
     <!-- IP542_2 -->
     <g transform="translate(285.529688 294.325394)scale(0.08 -0.08)">
      <use xlink:href="#DejaVuSans-73"/>
      <use x="29.492188" xlink:href="#DejaVuSans-80"/>
      <use x="89.794922" xlink:href="#DejaVuSans-53"/>
      <use x="153.417969" xlink:href="#DejaVuSans-52"/>
      <use x="217.041016" xlink:href="#DejaVuSans-50"/>
      <use x="280.664062" xlink:href="#DejaVuSans-95"/>
      <use x="330.664062" xlink:href="#DejaVuSans-50"/>
     </g>
    </g>
    <g id="line2d_28">
     <path d="M 263.129688 303.490394
L 279.129688 303.490394
" style="fill:none;stroke:#5cb85c;stroke-linecap:square;"/>
    </g>
    <g id="line2d_29"/>
    <g id="text_19">
     <!-- IP543_1 -->
     <g transform="translate(285.529688 306.290394)scale(0.08 -0.08)">
      <use xlink:href="#DejaVuSans-73"/>
      <use x="29.492188" xlink:href="#DejaVuSans-80"/>
      <use x="89.794922" xlink:href="#DejaVuSans-53"/>
      <use x="153.417969" xlink:href="#DejaVuSans-52"/>
      <use x="217.041016" xlink:href="#DejaVuSans-51"/>
      <use x="280.664062" xlink:href="#DejaVuSans-95"/>
      <use x="330.664062" xlink:href="#DejaVuSans-49"/>
     </g>
    </g>
    <g id="line2d_30">
     <path d="M 263.129688 315.455394
L 279.129688 315.455394
" style="fill:none;stroke:#5cb85c;stroke-linecap:square;"/>
    </g>
    <g id="line2d_31"/>
    <g id="text_20">
     <!-- IP543_2 -->
     <g transform="translate(285.529688 318.255394)scale(0.08 -0.08)">
      <use xlink:href="#DejaVuSans-73"/>
      <use x="29.492188" xlink:href="#DejaVuSans-80"/>
      <use x="89.794922" xlink:href="#DejaVuSans-53"/>
      <use x="153.417969" xlink:href="#DejaVuSans-52"/>
      <use x="217.041016" xlink:href="#DejaVuSans-51"/>
      <use x="280.664062" xlink:href="#DejaVuSans-95"/>
      <use x="330.664062" xlink:href="#DejaVuSans-50"/>
     </g>
    </g>
    <g id="line2d_32">
     <path d="M 486.09125 291.525394
L 502.09125 291.525394
" style="fill:none;stroke:#5cb85c;stroke-linecap:square;"/>
    </g>
    <g id="line2d_33"/>
    <g id="text_21">
     <!-- IP557_1 -->
     <g transform="translate(508.49125 294.325394)scale(0.08 -0.08)">
      <defs>
       <path d="M 8.203125 72.90625
L 55.078125 72.90625
L 55.078125 68.703125
L 28.609375 0
L 18.3125 0
L 43.21875 64.59375
L 8.203125 64.59375
z
" id="DejaVuSans-55"/>
      </defs>
      <use xlink:href="#DejaVuSans-73"/>
      <use x="29.492188" xlink:href="#DejaVuSans-80"/>
      <use x="89.794922" xlink:href="#DejaVuSans-53"/>
      <use x="153.417969" xlink:href="#DejaVuSans-53"/>
      <use x="217.041016" xlink:href="#DejaVuSans-55"/>
      <use x="280.664062" xlink:href="#DejaVuSans-95"/>
      <use x="330.664062" xlink:href="#DejaVuSans-49"/>
     </g>
    </g>
    <g id="line2d_34">
     <path d="M 486.09125 303.490394
L 502.09125 303.490394
" style="fill:none;stroke:#5cb85c;stroke-linecap:square;"/>
    </g>
    <g id="line2d_35"/>
    <g id="text_22">
     <!-- IP557_2 -->
     <g transform="translate(508.49125 306.290394)scale(0.08 -0.08)">
      <use xlink:href="#DejaVuSans-73"/>
      <use x="29.492188" xlink:href="#DejaVuSans-80"/>
      <use x="89.794922" xlink:href="#DejaVuSans-53"/>
      <use x="153.417969" xlink:href="#DejaVuSans-53"/>
      <use x="217.041016" xlink:href="#DejaVuSans-55"/>
      <use x="280.664062" xlink:href="#DejaVuSans-95"/>
      <use x="330.664062" xlink:href="#DejaVuSans-50"/>
     </g>
    </g>
    <g id="line2d_36">
     <path d="M 709.052813 291.525394
L 725.052813 291.525394
" style="fill:none;stroke:#5cb85c;stroke-linecap:square;"/>
    </g>
    <g id="line2d_37"/>
    <g id="text_23">
     <!-- IP562_1 -->
     <g transform="translate(731.452813 294.325394)scale(0.08 -0.08)">
      <use xlink:href="#DejaVuSans-73"/>
      <use x="29.492188" xlink:href="#DejaVuSans-80"/>
      <use x="89.794922" xlink:href="#DejaVuSans-53"/>
      <use x="153.417969" xlink:href="#DejaVuSans-54"/>
      <use x="217.041016" xlink:href="#DejaVuSans-50"/>
      <use x="280.664062" xlink:href="#DejaVuSans-95"/>
      <use x="330.664062" xlink:href="#DejaVuSans-49"/>
     </g>
    </g>
    <g id="line2d_38">
     <path d="M 709.052813 303.490394
L 725.052813 303.490394
" style="fill:none;stroke:#5cb85c;stroke-linecap:square;"/>
    </g>
    <g id="line2d_39"/>
    <g id="text_24">
     <!-- IP562_2 -->
     <g transform="translate(731.452813 306.290394)scale(0.08 -0.08)">
      <use xlink:href="#DejaVuSans-73"/>
      <use x="29.492188" xlink:href="#DejaVuSans-80"/>
      <use x="89.794922" xlink:href="#DejaVuSans-53"/>
      <use x="153.417969" xlink:href="#DejaVuSans-54"/>
      <use x="217.041016" xlink:href="#DejaVuSans-50"/>
      <use x="280.664062" xlink:href="#DejaVuSans-95"/>
      <use x="330.664062" xlink:href="#DejaVuSans-50"/>
     </g>
    </g>
    <g id="line2d_40">
     <path d="M 932.014375 291.525394
L 948.014375 291.525394
" style="fill:none;stroke:#5cb85c;stroke-linecap:square;"/>
    </g>
    <g id="line2d_41"/>
    <g id="text_25">
     <!-- IP579_1 -->
     <g transform="translate(954.414375 294.325394)scale(0.08 -0.08)">
      <defs>
       <path d="M 10.984375 1.515625
L 10.984375 10.5
Q 14.703125 8.734375 18.5 7.8125
Q 22.3125 6.890625 25.984375 6.890625
Q 35.75 6.890625 40.890625 13.453125
Q 46.046875 20.015625 46.78125 33.40625
Q 43.953125 29.203125 39.59375 26.953125
Q 35.25 24.703125 29.984375 24.703125
Q 19.046875 24.703125 12.671875 31.3125
Q 6.296875 37.9375 6.296875 49.421875
Q 6.296875 60.640625 12.9375 67.421875
Q 19.578125 74.21875 30.609375 74.21875
Q 43.265625 74.21875 49.921875 64.515625
Q 56.59375 54.828125 56.59375 36.375
Q 56.59375 19.140625 48.40625 8.859375
Q 40.234375 -1.421875 26.421875 -1.421875
Q 22.703125 -1.421875 18.890625 -0.6875
Q 15.09375 0.046875 10.984375 1.515625
z
M 30.609375 32.421875
Q 37.25 32.421875 41.125 36.953125
Q 45.015625 41.5 45.015625 49.421875
Q 45.015625 57.28125 41.125 61.84375
Q 37.25 66.40625 30.609375 66.40625
Q 23.96875 66.40625 20.09375 61.84375
Q 16.21875 57.28125 16.21875 49.421875
Q 16.21875 41.5 20.09375 36.953125
Q 23.96875 32.421875 30.609375 32.421875
z
" id="DejaVuSans-57"/>
      </defs>
      <use xlink:href="#DejaVuSans-73"/>
      <use x="29.492188" xlink:href="#DejaVuSans-80"/>
      <use x="89.794922" xlink:href="#DejaVuSans-53"/>
      <use x="153.417969" xlink:href="#DejaVuSans-55"/>
      <use x="217.041016" xlink:href="#DejaVuSans-57"/>
      <use x="280.664062" xlink:href="#DejaVuSans-95"/>
      <use x="330.664062" xlink:href="#DejaVuSans-49"/>
     </g>
    </g>
    <g id="line2d_42">
     <path d="M 932.014375 303.490394
L 948.014375 303.490394
" style="fill:none;stroke:#5cb85c;stroke-linecap:square;"/>
    </g>
    <g id="line2d_43"/>
    <g id="text_26">
     <!-- IP579_2 -->
     <g transform="translate(954.414375 306.290394)scale(0.08 -0.08)">
      <use xlink:href="#DejaVuSans-73"/>
      <use x="29.492188" xlink:href="#DejaVuSans-80"/>
      <use x="89.794922" xlink:href="#DejaVuSans-53"/>
      <use x="153.417969" xlink:href="#DejaVuSans-55"/>
      <use x="217.041016" xlink:href="#DejaVuSans-57"/>
      <use x="280.664062" xlink:href="#DejaVuSans-95"/>
      <use x="330.664062" xlink:href="#DejaVuSans-50"/>
     </g>
    </g>
   </g>
  </g>
 </g>
 <defs>
  <clipPath id="p77ce655637">
   <rect height="242.5072" width="960.19" x="32.968125" y="31.48286"/>
  </clipPath>
 </defs>
</svg>
